<svg width="1500" height="1500" viewBox="0 0 1500 1500" fill="none" xmlns="http://www.w3.org/2000/svg">
<rect width="1500" height="1500" fill="#F7F2EE"/>
<path d="M334.9 1312C286.1 1309 191.6 1309.3 119.4 1228C82.6003 1186.5 69.9003 1138.3 66.0003 1083.5C50.7003 868.7 234.5 797.7 238 670.3C239.3 620.6 202.2 584.8 181 542.9C143.3 468.5 95.2003 319.1 132.4 237.8C157 184 194.9 168 245 145.7C338.3 104.2 444.6 90.5001 542.9 122.4C595.9 139.6 631.3 156.9 689.1 154.2C767.1 150.6 839.2 97.7001 914.3 78.7001C988.3 59.9001 1071 35.2001 1149.4 112.3C1221.2 182.9 1168.2 260.6 1195.6 316.7C1228.3 383.6 1322.9 376.3 1381.4 423.3C1393.6 433.1 1404.2 445.3 1412.4 461C1503.3 636.1 1284.2 741.8 1282 888C1281 951.6 1331.5 978.9 1361.2 1025.7C1406.1 1096.5 1411.3 1210.4 1332.8 1257.6C1301.1 1276.7 1255.8 1280.2 1205.6 1276.5C1208.9 1250.5 1206 1221.9 1197 1201.1C1139.2 1067.4 984.3 1123.4 875 1113.6C826.4 1109.2 748.8 1074.4 767.4 1013C767.4 1013 757.9 1016.2 748.5 1019.4C736.3 1023.5 723.1 1022.7 711.5 1017.3C702.6 1013.1 693.7 1008.9 693.7 1008.9C695.7 1017.3 699.6 1069.6 674.5 1088.4C636 1117.3 555.2 1100.8 507.9 1107.6C404.2 1122.5 323.8 1204.2 334.9 1312Z" stroke="black" stroke-width="8" stroke-miterlimit="10" stroke-linecap="round" stroke-linejoin="round"/>
<path d="M226.9 1295.7C227.9 1179.5 274.9 1141 316.5 1115.5C352.6 1093.4 394.2 1078.8 436.3 1074.2C504.9 1066.7 645.6 1099.9 671.7 1008.4" stroke="black" stroke-width="4" stroke-miterlimit="10" stroke-linecap="round" stroke-linejoin="round"/>
<path d="M84.0005 1169.9C86.4005 1151.6 104.3 1115.9 113.1 1099.7C136.3 1056.7 174.9 1029.9 222.1 1017.5C348.7 984.2 542 1053.3 648.3 968.2" stroke="black" stroke-width="4" stroke-miterlimit="10" stroke-linecap="round" stroke-linejoin="round"/>
<path d="M125.2 872.4C202.9 840.1 281 950 339.8 953.2C431.5 958.1 495.8 852.8 592.3 882.8" stroke="black" stroke-width="4" stroke-miterlimit="10" stroke-linecap="round" stroke-linejoin="round"/>
<path d="M387.2 945.9C385.6 944.9 391 945.8 392.8 945.9C397.7 946 402.6 946.8 407.4 947.5C424.8 950 442.3 952.3 459.7 954.3C512 960.3 571.3 971.6 613.1 931.7" stroke="black" stroke-width="4" stroke-miterlimit="10" stroke-linecap="round" stroke-linejoin="round"/>
<path d="M699.1 158.7C701.3 156.1 713.9 164.1 715.4 165C766 193 802.5 241.3 825.8 293.4C827.4 297 829 300.6 830.5 304.2C831 305.4 831.5 306.6 832 307.8C894 458.3 919.9 616.6 846.8 766" stroke="black" stroke-width="4" stroke-miterlimit="10" stroke-linecap="round" stroke-linejoin="round"/>
<path d="M786.4 1009.4C786.8 1009.5 786.3 1010.3 786.5 1010.7C807.4 1051.1 863.7 1073.1 906.7 1072.7C967.8 1072 1023.6 1032.3 1082.6 1019.9C1178.6 999.8 1337.9 1021.9 1353.6 1186.7" stroke="black" stroke-width="4" stroke-miterlimit="10" stroke-linecap="round" stroke-linejoin="round"/>
<path d="M806.5 982.3C805.1 981.8 808.7 984.2 809.9 985C813.7 987.5 817.8 989.7 821.9 991.8C833 997.4 844.5 1001.9 856.4 1005.4C891.6 1015.9 932.7 1017.8 967.8 1005.6C991.5 997.3 1013 982.2 1033.9 968.6C1105.7 922.1 1187.2 864.8 1275.3 902.2" stroke="black" stroke-width="4" stroke-miterlimit="10" stroke-linecap="round" stroke-linejoin="round"/>
<path d="M811.3 952.3C813.1 950.8 815 955.2 817.2 956.1C836.1 963.8 857.3 961.2 875.2 952.1C918.8 929.9 941.2 887.1 974.4 853.8" stroke="black" stroke-width="4" stroke-miterlimit="10" stroke-linecap="round" stroke-linejoin="round"/>
<path d="M1216.7 699.5C1239.3 670.3 1359.5 633.9 1376.2 686.4" stroke="black" stroke-width="4" stroke-miterlimit="10" stroke-linecap="round" stroke-linejoin="round"/>
<path d="M824.9 930.7C825.8 930.3 840.3 926.6 844.2 924.9C874.1 912.3 895.6 896.8 914.7 859.5" stroke="black" stroke-width="4" stroke-miterlimit="10" stroke-linecap="round" stroke-linejoin="round"/>
<path d="M966.4 704.5C973.7 669.3 997.2 631.5 1024.9 609.4" stroke="black" stroke-width="4" stroke-miterlimit="10" stroke-linecap="round" stroke-linejoin="round"/>
<path d="M1118.6 497.8C1117.1 500 1122.7 494.3 1124.7 492.4C1128.5 488.9 1132.2 485.2 1136.2 481.9C1148.3 471.8 1160.7 462.1 1173.2 452.5C1210.6 424.1 1255.8 388.4 1305.3 388.4" stroke="black" stroke-width="4" stroke-miterlimit="10" stroke-linecap="round" stroke-linejoin="round"/>
<path d="M839.2 823C883.8 772.7 910.1 730.1 927.9 700.4C981.3 611.7 1035.8 491.8 1061.4 392" stroke="black" stroke-width="4" stroke-miterlimit="10" stroke-linecap="round" stroke-linejoin="round"/>
<path d="M929.6 74.6001C929.1 74.2001 970.7 88.4001 986.2 102.6C1009.8 124.3 1057.1 162.3 1071.4 204.5" stroke="black" stroke-width="4" stroke-miterlimit="10" stroke-linecap="round" stroke-linejoin="round"/>
<path d="M402.7 103.6C395.8 104.5 416.2 107.4 422.6 110.1C439.6 117.2 456.3 125.6 472.1 135.1C516.8 161.8 552.3 198.6 579.9 242.3" stroke="black" stroke-width="4" stroke-miterlimit="10" stroke-linecap="round" stroke-linejoin="round"/>
<path d="M194.7 167.2C195.8 168 246.9 177.5 255.4 181.1C331.6 213.7 392 280.8 421 358.1" stroke="black" stroke-width="4" stroke-miterlimit="10" stroke-linecap="round" stroke-linejoin="round"/>
<path d="M140 230.6C142.2 226.4 139.6 240.2 140.4 244.8C142 253.8 143.9 262.8 146.4 271.6C153.5 296.8 164.3 321.2 176.1 344.5C212.2 416 271.7 470.2 344.6 502.3" stroke="black" stroke-width="4" stroke-miterlimit="10" stroke-linecap="round" stroke-linejoin="round"/>
<path d="M210.701 590.3C210.601 590.2 211.401 590.8 211.601 590.9C220.401 597.7 228.101 605.7 237.401 612.2C253.501 623.4 270.001 633.8 287.701 642.1C342.201 667.5 407.901 666.3 466.201 656.1" stroke="black" stroke-width="4" stroke-miterlimit="10" stroke-linecap="round" stroke-linejoin="round"/>
<path d="M666.9 839.9C665.1 773.4 720.9 740.8 769.7 747.2" stroke="black" stroke-width="4" stroke-miterlimit="10" stroke-linecap="round" stroke-linejoin="round"/>
<path d="M636.2 843.8C655.3 806.2 622.3 694.9 576.3 678" stroke="black" stroke-width="4" stroke-miterlimit="10" stroke-linecap="round" stroke-linejoin="round"/>
<path fill-rule="evenodd" clip-rule="evenodd" d="M1232.9 1014.9C1226.6 1012.7 1218.6 1014.1 1217 1021C1216.4 1024 1213.5 1028.6 1221.7 1034.1C1233.6 1042 1245.8 1023.9 1232.9 1014.9Z" fill="#F7F2EE"/>
<path d="M1232.9 1014.9C1226.6 1012.7 1218.6 1014.1 1217 1021C1216.4 1024 1213.5 1028.6 1221.7 1034.1C1233.6 1042 1245.8 1023.9 1232.9 1014.9Z" stroke="black" stroke-width="4" stroke-miterlimit="10" stroke-linecap="round" stroke-linejoin="round"/>
<path fill-rule="evenodd" clip-rule="evenodd" d="M964.8 996.3C958.5 994.1 950.5 995.5 948.9 1002.4C948.3 1005.4 945.4 1010 953.5 1015.5C965.5 1023.4 977.7 1005.3 964.8 996.3Z" fill="#F7F2EE"/>
<path d="M964.8 996.3C958.5 994.1 950.5 995.5 948.9 1002.4C948.3 1005.4 945.4 1010 953.5 1015.5C965.5 1023.4 977.7 1005.3 964.8 996.3Z" stroke="black" stroke-width="4" stroke-miterlimit="10" stroke-linecap="round" stroke-linejoin="round"/>
<path fill-rule="evenodd" clip-rule="evenodd" d="M309.4 1110.6C299.4 1107 286.7 1109.2 284.3 1120.8C283.3 1125.7 278.7 1133.4 291.7 1142.5C310.6 1155.7 329.8 1125.5 309.4 1110.6Z" fill="#F7F2EE"/>
<path d="M309.4 1110.6C299.4 1107 286.7 1109.2 284.3 1120.8C283.3 1125.7 278.7 1133.4 291.7 1142.5C310.6 1155.7 329.8 1125.5 309.4 1110.6Z" stroke="black" stroke-width="4" stroke-miterlimit="10" stroke-linecap="round" stroke-linejoin="round"/>
<path fill-rule="evenodd" clip-rule="evenodd" d="M511.5 1001.3C505.2 999.1 497.2 1000.5 495.6 1007.4C495 1010.4 492.1 1015 500.2 1020.5C512.3 1028.4 524.4 1010.3 511.5 1001.3Z" fill="#F7F2EE"/>
<path d="M511.5 1001.3C505.2 999.1 497.2 1000.5 495.6 1007.4C495 1010.4 492.1 1015 500.2 1020.5C512.3 1028.4 524.4 1010.3 511.5 1001.3Z" stroke="black" stroke-width="4" stroke-miterlimit="10" stroke-linecap="round" stroke-linejoin="round"/>
<path fill-rule="evenodd" clip-rule="evenodd" d="M876.4 412.2C870.1 410 862.1 411.4 860.5 418.3C859.9 421.3 857 425.9 865.1 431.4C877.1 439.4 889.3 421.2 876.4 412.2Z" fill="#F7F2EE"/>
<path d="M876.4 412.2C870.1 410 862.1 411.4 860.5 418.3C859.9 421.3 857 425.9 865.1 431.4C877.1 439.4 889.3 421.2 876.4 412.2Z" stroke="black" stroke-width="4" stroke-miterlimit="10" stroke-linecap="round" stroke-linejoin="round"/>
<path fill-rule="evenodd" clip-rule="evenodd" d="M359.6 493.7C353.3 491.5 345.3 492.9 343.7 499.8C343.1 502.8 340.2 507.4 348.3 512.9C360.4 520.9 372.5 502.7 359.6 493.7Z" fill="#F7F2EE"/>
<path d="M359.6 493.7C353.3 491.5 345.3 492.9 343.7 499.8C343.1 502.8 340.2 507.4 348.3 512.9C360.4 520.9 372.5 502.7 359.6 493.7Z" stroke="black" stroke-width="4" stroke-miterlimit="10" stroke-linecap="round" stroke-linejoin="round"/>
<path fill-rule="evenodd" clip-rule="evenodd" d="M473.4 218.8C476.7 215.3 457.1 219.5 454 226.7C448.9 238.9 450.7 255.2 464.2 258.4C485.6 263.3 492 227.4 473.4 218.8Z" fill="#F7F2EE"/>
<path d="M473.4 218.8C476.7 215.3 457.1 219.5 454 226.7C448.9 238.9 450.7 255.2 464.2 258.4C485.6 263.3 492 227.4 473.4 218.8Z" stroke="black" stroke-width="4" stroke-miterlimit="10" stroke-linecap="round" stroke-linejoin="round"/>
<path fill-rule="evenodd" clip-rule="evenodd" d="M1257 448C1260.5 450.1 1248.5 448.3 1245.1 450.5C1237.2 455.6 1231.6 467.5 1237.7 476C1248.7 491 1283.7 469.4 1257 448Z" fill="black"/>
<path d="M1257 448C1260.5 450.1 1248.5 448.3 1245.1 450.5C1237.2 455.6 1231.6 467.5 1237.7 476C1248.7 491 1283.7 469.4 1257 448Z" stroke="black" stroke-width="4" stroke-miterlimit="10" stroke-linecap="round" stroke-linejoin="round"/>
<path fill-rule="evenodd" clip-rule="evenodd" d="M245 534.9C241.3 536.5 239.2 538.6 238.6 540.8C237.1 545.9 237.2 552.4 242.1 555.7C252.8 562.8 263 539.4 245 534.9Z" fill="black"/>
<path d="M245 534.9C241.3 536.5 239.2 538.6 238.6 540.8C237.1 545.9 237.2 552.4 242.1 555.7C252.8 562.8 263 539.4 245 534.9Z" stroke="black" stroke-width="4" stroke-miterlimit="10" stroke-linecap="round" stroke-linejoin="round"/>
<path d="M782 271C781.2 269.9 781.9 273.7 782 275.1C782.1 279.1 782.3 283.2 782.4 287.2C782.7 298.8 783.2 310.4 783.5 322" stroke="black" stroke-width="4" stroke-miterlimit="10" stroke-linecap="round" stroke-linejoin="round"/>
<path d="M766 299.8C765.2 299.9 764.2 300.2 765.6 300.4C776.1 301.3 786.9 300.1 797.4 299.9" stroke="black" stroke-width="4" stroke-miterlimit="10" stroke-linecap="round" stroke-linejoin="round"/>
<path d="M796.6 283.6C795.4 283.8 791.5 291.8 790.9 292.8C785.3 301.5 778.9 309.9 772.2 317.8" stroke="black" stroke-width="4" stroke-miterlimit="10" stroke-linecap="round" stroke-linejoin="round"/>
<path d="M767.9 286.8C767.3 287.4 773.9 293.1 774.3 293.5C781.6 300.8 789.1 307.9 796.3 315.3" stroke="black" stroke-width="4" stroke-miterlimit="10" stroke-linecap="round" stroke-linejoin="round"/>
<path d="M1339.6 599.5C1339.4 600.9 1341.5 597.5 1342.3 596.5C1344.9 593.4 1347.4 590.3 1350 587.2C1357.4 578.3 1364.7 569.2 1372.2 560.4" stroke="black" stroke-width="4" stroke-miterlimit="10" stroke-linecap="round" stroke-linejoin="round"/>
<path d="M1370.6 588.5C1371.3 588.9 1372.3 589.4 1371.3 588.3C1364 580.7 1355.1 574.4 1347 567.7" stroke="black" stroke-width="4" stroke-miterlimit="10" stroke-linecap="round" stroke-linejoin="round"/>
<path d="M1336.9 580.4C1337.9 581 1346.2 577.6 1347.3 577.3C1357.2 574.4 1367.6 572.4 1377.8 570.9" stroke="black" stroke-width="4" stroke-miterlimit="10" stroke-linecap="round" stroke-linejoin="round"/>
<path d="M1360.5 597C1361.4 597 1360.2 588.3 1360.1 587.7C1359.5 577.4 1358.5 567.1 1358 556.8" stroke="black" stroke-width="4" stroke-miterlimit="10" stroke-linecap="round" stroke-linejoin="round"/>
<path d="M262.9 269.5C265.7 271 302.4 338.2 307.7 347" stroke="black" stroke-width="6" stroke-miterlimit="10" stroke-linecap="round" stroke-linejoin="round"/>
<path d="M252.5 325.3C259.8 322.1 303.5 292.8 313 286.7" stroke="black" stroke-width="6" stroke-miterlimit="10" stroke-linecap="round" stroke-linejoin="round"/>
<path d="M292.6 278.2C289.9 281.4 279 325.6 278.4 331" stroke="black" stroke-width="6" stroke-miterlimit="10" stroke-linecap="round" stroke-linejoin="round"/>
<path d="M260.6 297.3C277.9 306.4 294.9 311.5 304.6 315.8" stroke="black" stroke-width="6" stroke-miterlimit="10" stroke-linecap="round" stroke-linejoin="round"/>
<path d="M1107.6 516.3C1107.8 516.5 1095.1 532.7 1094.4 533.5C1092.1 536.4 1089.8 539.4 1087.5 542.3C1075.5 557.8 1063.8 573.6 1051 588.4" stroke="black" stroke-width="4" stroke-miterlimit="10" stroke-linecap="round" stroke-linejoin="round"/>
<path d="M1056.4 532.7C1056.1 530.5 1059.6 535.9 1061.2 537.4C1064.3 540.5 1067.8 543.2 1071.1 546C1081 554.5 1091.7 561.8 1102 569.8" stroke="black" stroke-width="4" stroke-miterlimit="10" stroke-linecap="round" stroke-linejoin="round"/>
<path d="M1110.9 546.2C1092.4 551.7 1073.3 556.1 1054.4 559.9" stroke="black" stroke-width="4" stroke-miterlimit="10" stroke-linecap="round" stroke-linejoin="round"/>
<path d="M1075.3 524.7C1075.2 524.7 1075.1 525.5 1075.1 525.6C1074 542.5 1080.3 561.1 1084.5 577.3" stroke="black" stroke-width="4" stroke-miterlimit="10" stroke-linecap="round" stroke-linejoin="round"/>
<path fill-rule="evenodd" clip-rule="evenodd" d="M931.6 230C931.2 230.8 933.4 230.5 934.2 230.9C940 233.9 1011.8 248.6 1018.1 294.2C1024.3 338.5 968 397.6 979.5 392C1049.3 357.6 1100.1 322.8 1091.4 271.6C1083.2 222.2 1015.7 180.7 931.6 230Z" fill="black"/>
<path d="M931.6 230C931.2 230.8 933.4 230.5 934.2 230.9C940 233.9 1011.8 248.6 1018.1 294.2C1024.3 338.5 968 397.6 979.5 392C1049.3 357.6 1100.1 322.8 1091.4 271.6C1083.2 222.2 1015.7 180.7 931.6 230Z" stroke="black" stroke-width="4" stroke-miterlimit="10" stroke-linecap="round" stroke-linejoin="round"/>
<path fill-rule="evenodd" clip-rule="evenodd" d="M336.7 1312.5C377.8 1313.5 435 1296.1 474.9 1285.1C513.7 1274.3 584.9 1206.6 625.3 1203C689 1197.3 727.2 1246.2 790.2 1240C845.8 1234.5 866.6 1180 939.2 1235.8C986.1 1271.8 1071.1 1268.6 1155.1 1273.3C1169.8 1274.1 1194.9 1276.2 1208.6 1277.2C1207 1290.1 1202.6 1309 1197.9 1319.4C1161.4 1399 1083.2 1416.7 1002.5 1428.6C854.8 1450.4 703.2 1438.7 555.3 1424.3C506.8 1419.6 346.1 1395.9 338.5 1325.4L336.7 1312.5Z" fill="#5825E4"/>
<path d="M336.7 1312.5C377.8 1313.5 435 1296.1 474.9 1285.1C513.7 1274.3 584.9 1206.6 625.3 1203C689 1197.3 727.2 1246.2 790.2 1240C845.8 1234.5 866.6 1180 939.2 1235.8C986.1 1271.8 1071.1 1268.6 1155.1 1273.3C1169.8 1274.1 1194.9 1276.2 1208.6 1277.2C1207 1290.1 1202.6 1309 1197.9 1319.4C1161.4 1399 1083.2 1416.7 1002.5 1428.6C854.8 1450.4 703.2 1438.7 555.3 1424.3C506.8 1419.6 346.1 1395.9 338.5 1325.4L336.7 1312.5Z" stroke="black" stroke-width="4" stroke-miterlimit="10" stroke-linecap="round" stroke-linejoin="round"/>
<path d="M363.3 1335.9C390.1 1331.4 417.3 1326.2 442 1313.9" stroke="#F7F2EE" stroke-width="4" stroke-miterlimit="10" stroke-linecap="round" stroke-linejoin="round"/>
<path d="M522.7 1288.5C566.7 1285 571.8 1264.2 620.4 1240.2C655.4 1222.9 718.4 1265 756.6 1271.8C804.8 1280.3 845.3 1237.5 885.1 1245.1C916.3 1251.1 957.2 1278 970.7 1280.6" stroke="#F7F2EE" stroke-width="4" stroke-miterlimit="10" stroke-linecap="round" stroke-linejoin="round"/>
<path d="M1063.7 1295.5C1112.6 1310.3 1152.3 1247 1188.6 1317.5" stroke="#F7F2EE" stroke-width="4" stroke-miterlimit="10" stroke-linecap="round" stroke-linejoin="round"/>
<path d="M399.7 1368.8C421.2 1371.6 421.5 1367.6 442.9 1365.1C467.6 1362.3 491 1355.2 513.8 1345.3C546.6 1331.2 574.9 1313 604.4 1293.3C609.2 1290.1 614.3 1287.1 619.5 1284.5C668.4 1260 697.1 1315.3 745.7 1316.2C787.2 1317 842.9 1257.9 890.1 1285.2C939.9 1313.9 987.3 1327.8 1049.2 1331.4C1070.1 1332.6 1144.3 1310.6 1181.5 1338.6" stroke="#F7F2EE" stroke-width="4" stroke-miterlimit="10" stroke-linecap="round" stroke-linejoin="round"/>
<path d="M1153.7 1365.2C1109.7 1339.2 1059.7 1378.9 1011.5 1367.7C954.6 1354.6 889.9 1308.5 828.4 1327.3C798 1336.6 784.1 1363.8 749.3 1362.7C686.1 1360.8 665.5 1322.9 612 1346.2C603.7 1349.8 594.6 1354.9 584.5 1361.7C559.4 1378.7 496.4 1398.4 496.4 1399.2" stroke="#F7F2EE" stroke-width="4" stroke-miterlimit="10" stroke-linecap="round" stroke-linejoin="round"/>
<path d="M577.3 1411.5C590.3 1401.1 605.5 1393.2 621.9 1389.8C661.9 1381.4 685.8 1408 720.3 1419.7C769 1436.1 785.4 1379.7 832.3 1376.2C869.3 1373.4 921.4 1413 956.4 1416.3C984.2 1419 1048.4 1388.1 1084.7 1403.7" stroke="#F7F2EE" stroke-width="4" stroke-miterlimit="10" stroke-linecap="round" stroke-linejoin="round"/>
<path d="M806.4 1425.1C810 1424.7 817.6 1417.8 821.6 1416.2C842.4 1407.7 869.7 1413.8 884.9 1430.8" stroke="#F7F2EE" stroke-width="4" stroke-miterlimit="10" stroke-linecap="round" stroke-linejoin="round"/>
<path fill-rule="evenodd" clip-rule="evenodd" d="M419.3 1309.3C420.3 1312.2 421.2 1316.4 422.1 1318.3C423.8 1322 425.3 1325.8 427 1329.5C430.1 1336.2 457.5 1381.5 469.6 1373.4C479.5 1366.8 453 1329.7 448.7 1322.4C448 1321.2 442.7 1311.1 441 1311.3C439.2 1311.6 442.4 1314.5 443.1 1316.1C444.7 1319.5 446.5 1322.8 448.3 1326C451.1 1331 475.8 1373.3 485.1 1367.4C496.1 1360.5 473.6 1323.4 469.3 1315.6C467.5 1312.4 465.7 1309.3 463.5 1306.3C462.4 1304.8 460.8 1300.5 460 1302.1C459.2 1303.6 465.8 1312.1 466.5 1313.4C469.8 1318.9 494.7 1366 504.9 1359.8C517.3 1352.2 493.3 1314.7 488.4 1306.7C486.5 1303.6 485.1 1298.9 483.3 1295.8C482.3 1294.2 481.1 1289.4 480.3 1291C479.6 1292.3 483.8 1298.3 484.4 1299.3C488.9 1307.5 492.6 1314.4 497.8 1323.8C500.2 1328.2 521.4 1355.5 524 1349C530.9 1331.3 505.4 1295.1 498.4 1274.7C496.7 1269.9 513.9 1268.3 509.9 1262.9C503.6 1254.3 493.6 1242.5 483.5 1239.5C442.3 1227.2 399.6 1272.7 419.3 1309.3Z" fill="#F7F2EE"/>
<path d="M419.3 1309.3C420.3 1312.2 421.2 1316.4 422.1 1318.3C423.8 1322 425.3 1325.8 427 1329.5C430.1 1336.2 457.5 1381.5 469.6 1373.4C479.5 1366.8 453 1329.7 448.7 1322.4C448 1321.2 442.7 1311.1 441 1311.3C439.2 1311.6 442.4 1314.5 443.1 1316.1C444.7 1319.5 446.5 1322.8 448.3 1326C451.1 1331 475.8 1373.3 485.1 1367.4C496.1 1360.5 473.6 1323.4 469.3 1315.6C467.5 1312.4 465.7 1309.3 463.5 1306.3C462.4 1304.8 460.8 1300.5 460 1302.1C459.2 1303.6 465.8 1312.1 466.5 1313.4C469.8 1318.9 494.7 1366 504.9 1359.8C517.3 1352.2 493.3 1314.7 488.4 1306.7C486.5 1303.6 485.1 1298.9 483.3 1295.8C482.3 1294.2 481.1 1289.4 480.3 1291C479.6 1292.3 483.8 1298.3 484.4 1299.3C488.9 1307.5 492.6 1314.4 497.8 1323.8C500.2 1328.2 521.4 1355.5 524 1349C530.9 1331.3 505.4 1295.1 498.4 1274.7C496.7 1269.9 513.9 1268.3 509.9 1262.9C503.6 1254.3 493.6 1242.5 483.5 1239.5C442.3 1227.2 399.6 1272.7 419.3 1309.3Z" stroke="black" stroke-width="4" stroke-miterlimit="10" stroke-linecap="round" stroke-linejoin="round"/>
<path fill-rule="evenodd" clip-rule="evenodd" d="M1093.1 1302.1C1095.3 1302.6 1091.2 1306 1090.3 1308C1088.6 1311.7 1087.1 1315.5 1085.3 1319.2C1082.2 1325.9 1054.2 1371.2 1041.9 1363.1C1031.8 1356.5 1058.8 1319.4 1063.2 1312.1C1063.9 1310.9 1069.3 1300.8 1071 1301C1072.8 1301.3 1069.6 1304.2 1068.9 1305.8C1067.3 1309.2 1065.5 1312.5 1063.6 1315.7C1060.8 1320.7 1035.6 1363 1026.1 1357.1C1014.9 1350.2 1037.8 1313.1 1042.2 1305.3C1044 1302.1 1045.9 1299 1048.1 1296C1049.2 1294.5 1050.9 1290.2 1051.7 1291.8C1052.5 1293.3 1045.8 1301.8 1045 1303.1C1041.6 1308.6 1016.2 1355.7 1005.9 1349.5C993.201 1341.9 1017.8 1304.4 1022.7 1296.4C1024.6 1293.3 1026 1288.6 1027.9 1285.5C1028.9 1283.9 1030.1 1279.1 1031 1280.7C1031.7 1282 1027.4 1288 1026.9 1289C1022.4 1297.2 1018.5 1304.1 1013.3 1313.5C1010.9 1317.9 989.2 1345.2 986.6 1338.7C979.5 1321 1005.5 1284.8 1012.6 1264.5C1014.3 1259.7 996.8 1258.1 1000.8 1252.7C1007.3 1244.1 1017.4 1232.3 1027.7 1229.3C1069.5 1217 1110.3 1271.6 1090.2 1308.2" fill="#F7F2EE"/>
<path d="M1093.1 1302.1C1095.3 1302.6 1091.2 1306 1090.3 1308C1088.6 1311.7 1087.1 1315.5 1085.3 1319.2C1082.2 1325.9 1054.2 1371.2 1041.9 1363.1C1031.8 1356.5 1058.8 1319.4 1063.2 1312.1C1063.9 1310.9 1069.3 1300.8 1071 1301C1072.8 1301.3 1069.6 1304.2 1068.9 1305.8C1067.3 1309.2 1065.5 1312.5 1063.6 1315.7C1060.8 1320.7 1035.6 1363 1026.1 1357.1C1014.9 1350.2 1037.8 1313.1 1042.2 1305.3C1044 1302.1 1045.9 1299 1048.1 1296C1049.2 1294.5 1050.9 1290.2 1051.7 1291.8C1052.5 1293.3 1045.8 1301.8 1045 1303.1C1041.6 1308.6 1016.2 1355.7 1005.9 1349.5C993.201 1341.9 1017.8 1304.4 1022.7 1296.4C1024.6 1293.3 1026 1288.6 1027.9 1285.5C1028.9 1283.9 1030.1 1279.1 1031 1280.7C1031.7 1282 1027.4 1288 1026.9 1289C1022.4 1297.2 1018.5 1304.1 1013.3 1313.5C1010.9 1317.9 989.2 1345.2 986.6 1338.7C979.5 1321 1005.5 1284.8 1012.6 1264.5C1014.3 1259.7 996.8 1258.1 1000.8 1252.7C1007.3 1244.1 1017.4 1232.3 1027.7 1229.3C1069.5 1217 1110.3 1271.6 1090.2 1308.2" stroke="black" stroke-width="4" stroke-miterlimit="10" stroke-linecap="round" stroke-linejoin="round"/>
<path fill-rule="evenodd" clip-rule="evenodd" d="M806.4 782.7C812.5 735.1 735.7 698.7 697.9 684.6C592.1 645.3 401.3 670.9 415.6 505.6C418.8 469.1 437.8 421.2 466.3 395.5C502.7 362.6 575.6 344.9 621.4 347.7C685.8 351.6 757.7 378.8 796.2 438C838 502.3 837.4 709.8 806.4 782.7Z" fill="#A1D92C"/>
<path d="M806.4 782.7C812.5 735.1 735.7 698.7 697.9 684.6C592.1 645.3 401.3 670.9 415.6 505.6C418.8 469.1 437.8 421.2 466.3 395.5C502.7 362.6 575.6 344.9 621.4 347.7C685.8 351.6 757.7 378.8 796.2 438C838 502.3 837.4 709.8 806.4 782.7Z" stroke="black" stroke-width="8" stroke-miterlimit="10" stroke-linecap="round" stroke-linejoin="round"/>
<path fill-rule="evenodd" clip-rule="evenodd" d="M580.4 553.3C580.4 553.3 582.3 555.7 582.5 555.9C587.1 562.1 605.8 582.6 609.7 589.3C612.9 594.9 638.4 638 630.5 654.6C629.5 656.8 611 662.2 608.3 662.9C575.8 670.8 534.7 613.2 525.5 589.4C521.4 578.8 518.1 564.6 523.9 553.8C530.7 541.2 577.4 543.6 580.6 552" fill="#F7F2EE"/>
<path d="M580.4 553.3C580.4 553.3 582.3 555.7 582.5 555.9C587.1 562.1 605.8 582.6 609.7 589.3C612.9 594.9 638.4 638 630.5 654.6C629.5 656.8 611 662.2 608.3 662.9C575.8 670.8 534.7 613.2 525.5 589.4C521.4 578.8 518.1 564.6 523.9 553.8C530.7 541.2 577.4 543.6 580.6 552" stroke="black" stroke-width="4" stroke-miterlimit="10" stroke-linecap="round" stroke-linejoin="round"/>
<path fill-rule="evenodd" clip-rule="evenodd" d="M556.1 545.3C558.1 539.8 688.5 388.7 692.3 380.2C699.9 363.4 707.4 343.3 699 330.1C670.5 284.7 655.1 307.1 633.3 299.9C601.7 289.5 616.8 269.7 575.8 266C523.9 261.2 521.6 322.7 506.2 326.4C446.3 340.8 469.4 368.2 438.6 427.2C427.3 448.8 401.7 454 398.2 488C391 558.6 450.9 512.8 438.2 564.4C420 637.7 558.8 660 581.4 659.1C607.4 658 569.7 574.6 556.1 545.3Z" fill="black"/>
<path d="M556.1 545.3C558.1 539.8 688.5 388.7 692.3 380.2C699.9 363.4 707.4 343.3 699 330.1C670.5 284.7 655.1 307.1 633.3 299.9C601.7 289.5 616.8 269.7 575.8 266C523.9 261.2 521.6 322.7 506.2 326.4C446.3 340.8 469.4 368.2 438.6 427.2C427.3 448.8 401.7 454 398.2 488C391 558.6 450.9 512.8 438.2 564.4C420 637.7 558.8 660 581.4 659.1C607.4 658 569.7 574.6 556.1 545.3Z" stroke="black" stroke-width="4" stroke-miterlimit="10" stroke-linecap="round" stroke-linejoin="round"/>
<path d="M637.8 340.6C627.6 310.5 550.6 287.3 530.6 340.4C525.3 354.6 502.4 349.7 494.6 366.1C485.8 384.6 493.7 407.3 483.8 426.6C474.2 445.4 456 458.7 448.9 479C434.8 518.9 515.3 540.2 459.1 613.3" stroke="#F7F2EE" stroke-width="4" stroke-miterlimit="10" stroke-linecap="round" stroke-linejoin="round"/>
<path d="M626.8 350.1C596.6 339.1 591.9 376.7 579.8 368.9C530.3 337.1 520.5 398.4 511.9 449.8C509.2 465.7 497.9 478.5 495 494C489.1 525.6 583.5 609.8 531.9 652.8" stroke="#F7F2EE" stroke-width="4" stroke-miterlimit="10" stroke-linecap="round" stroke-linejoin="round"/>
<path fill-rule="evenodd" clip-rule="evenodd" d="M688.2 428.6C627.5 399.3 651.7 345.5 615.8 367.2C601.6 375.8 599.9 401.6 584.3 404.3C569.3 406.9 557.7 363.3 539.8 392.4C530.4 407.7 544.7 420.1 543.9 435.4C541.9 476.1 520.5 507.1 553.5 542.7C560.2 549.9 572.2 556.3 582.3 554.6C602.3 551.1 615.1 530 630.5 519C632.5 517.6 647.6 512.8 647.6 512.8C649.9 508.6 647.1 496.2 649.4 490.2C656.3 472.6 670.5 460.8 680.6 445.4C682.8 442.1 684.8 430.6 688.2 428.6Z" fill="#F7F2EE"/>
<path d="M688.2 428.6C627.5 399.3 651.7 345.5 615.8 367.2C601.6 375.8 599.9 401.6 584.3 404.3C569.3 406.9 557.7 363.3 539.8 392.4C530.4 407.7 544.7 420.1 543.9 435.4C541.9 476.1 520.5 507.1 553.5 542.7C560.2 549.9 572.2 556.3 582.3 554.6C602.3 551.1 615.1 530 630.5 519C632.5 517.6 647.6 512.8 647.6 512.8C649.9 508.6 647.1 496.2 649.4 490.2C656.3 472.6 670.5 460.8 680.6 445.4C682.8 442.1 684.8 430.6 688.2 428.6Z" stroke="black" stroke-width="4" stroke-miterlimit="10" stroke-linecap="round" stroke-linejoin="round"/>
<path d="M665.3 436.7C647.7 423.9 633.3 424.3 624.5 427.2" stroke="black" stroke-width="4" stroke-miterlimit="10" stroke-linecap="round" stroke-linejoin="round"/>
<path d="M613.901 445.6C612.801 459.3 621.601 465.9 638.701 467.2" stroke="black" stroke-width="4" stroke-miterlimit="10" stroke-linecap="round" stroke-linejoin="round"/>
<path d="M603 524.8C593.3 524.9 580.1 520.4 576.7 497.7" stroke="black" stroke-width="4" stroke-miterlimit="10" stroke-linecap="round" stroke-linejoin="round"/>
<path fill-rule="evenodd" clip-rule="evenodd" d="M668.8 451.9C668.8 451.9 678.4 430.4 665.6 414.9C649.5 395.4 645.5 374.9 662.2 366.2C667.7 363.3 677.3 361.2 700.6 359.8C743.7 357.2 768.4 394.6 784.7 410.8C817.9 443.8 820.4 486.8 788.1 519.4C775.3 532.3 799.1 592.3 748.7 585.9" fill="black"/>
<path d="M668.8 451.9C668.8 451.9 678.4 430.4 665.6 414.9C649.5 395.4 645.5 374.9 662.2 366.2C667.7 363.3 677.3 361.2 700.6 359.8C743.7 357.2 768.4 394.6 784.7 410.8C817.9 443.8 820.4 486.8 788.1 519.4C775.3 532.3 799.1 592.3 748.7 585.9" stroke="black" stroke-width="4" stroke-miterlimit="10" stroke-linecap="round" stroke-linejoin="round"/>
<path d="M672.6 447.5C693.6 424.5 674 411.3 672.1 407.8C659 384 662.3 383.4 661.9 364.9C661.8 361 670.1 343.5 675.9 341.8C678.7 341 692.6 360.7 701.1 361.4" stroke="#F7F2EE" stroke-width="4" stroke-miterlimit="10" stroke-linecap="round" stroke-linejoin="round"/>
<path fill-rule="evenodd" clip-rule="evenodd" d="M746.4 617.9C747.5 591.2 746 543.3 750.4 518C752.2 507.5 768 498.7 759.3 486.5C744.6 466 739.2 488.4 733.1 493.9C730.8 496 725 495.5 722 497.3C721.8 497.4 718.7 500.3 718.7 500.2C718.2 499.9 718.5 497.2 718.5 496.8C718.5 482.6 719.7 463.9 708.7 453.2C699.4 444.2 690.4 448.1 686.4 451.1C686.4 451.1 668.4 453.4 668 454.1C662.1 465.1 660.6 483.7 664 494.9C669.1 511.4 652.1 515.7 643.9 530C643.9 530.1 643.8 530.2 643.8 530.2C643.8 534.9 651 546.1 652.9 550.3C666.6 580.6 679.8 599.2 714.3 557.8C718.2 553.1 696.5 562.4 685 576.3C666.6 598.4 619.5 622.4 614 643.7C612.4 650.1 609.1 660.6 613.9 661.8C665.6 675.1 682.8 677.3 687.3 680.6" fill="#F7F2EE"/>
<path d="M746.4 617.9C747.5 591.2 746 543.3 750.4 518C752.2 507.5 768 498.7 759.3 486.5C744.6 466 739.2 488.4 733.1 493.9C730.8 496 725 495.5 722 497.3C721.8 497.4 718.7 500.3 718.7 500.2C718.2 499.9 718.5 497.2 718.5 496.8C718.5 482.6 719.7 463.9 708.7 453.2C699.4 444.2 690.4 448.1 686.4 451.1C686.4 451.1 668.4 453.4 668 454.1C662.1 465.1 660.6 483.7 664 494.9C669.1 511.4 652.1 515.7 643.9 530C643.9 530.1 643.8 530.2 643.8 530.2C643.8 534.9 651 546.1 652.9 550.3C666.6 580.6 679.8 599.2 714.3 557.8C718.2 553.1 696.5 562.4 685 576.3C666.6 598.4 619.5 622.4 614 643.7C612.4 650.1 609.1 660.6 613.9 661.8C665.6 675.1 682.8 677.3 687.3 680.6" stroke="black" stroke-width="4" stroke-miterlimit="10" stroke-linecap="round" stroke-linejoin="round"/>
<path d="M685 468C692.6 469.6 701.901 472.1 704.401 484.5" stroke="black" stroke-width="4" stroke-miterlimit="10" stroke-linecap="round" stroke-linejoin="round"/>
<path d="M680.1 509.3C683.2 511.3 694.2 510.3 698.3 505" stroke="black" stroke-width="4" stroke-miterlimit="10" stroke-linecap="round" stroke-linejoin="round"/>
<path d="M677.7 551.1C681.6 555.2 692.3 556.3 701.7 543.6" stroke="black" stroke-width="4" stroke-miterlimit="10" stroke-linecap="round" stroke-linejoin="round"/>
<path fill-rule="evenodd" clip-rule="evenodd" d="M689 678.1C688.5 678.5 690 677.2 690.4 676.7C691.7 675.1 693.1 673.5 694.4 672C698.2 667.8 701.8 663.5 705.5 659.3C716.6 647 727.5 634.6 740.7 624.5C743.9 622.1 752.2 616 756.3 620C760.2 623.8 754 631.8 751.8 634.7C742.1 647.2 730.2 658.3 719.5 670C715.9 673.9 712.6 677.9 709.2 681.9C708.1 683.2 706.9 684.6 705.7 685.9C705.1 686.5 703 688.2 703.7 687.7" fill="#F7F2EE"/>
<path d="M689 678.1C688.5 678.5 690 677.2 690.4 676.7C691.7 675.1 693.1 673.5 694.4 672C698.2 667.8 701.8 663.5 705.5 659.3C716.6 647 727.5 634.6 740.7 624.5C743.9 622.1 752.2 616 756.3 620C760.2 623.8 754 631.8 751.8 634.7C742.1 647.2 730.2 658.3 719.5 670C715.9 673.9 712.6 677.9 709.2 681.9C708.1 683.2 706.9 684.6 705.7 685.9C705.1 686.5 703 688.2 703.7 687.7" stroke="black" stroke-width="4" stroke-miterlimit="10" stroke-linecap="round" stroke-linejoin="round"/>
<path fill-rule="evenodd" clip-rule="evenodd" d="M705.8 685.8C705.2 686.4 754.5 632.8 755.3 632.8C757 632.8 758.9 633.2 760.4 633.9C764.8 636 765.9 640.1 764.7 644.6C760.2 662.6 739.4 680.6 726.4 693.1" fill="#F7F2EE"/>
<path d="M705.8 685.8C705.2 686.4 754.5 632.8 755.3 632.8C757 632.8 758.9 633.2 760.4 633.9C764.8 636 765.9 640.1 764.7 644.6C760.2 662.6 739.4 680.6 726.4 693.1" stroke="black" stroke-width="4" stroke-miterlimit="10" stroke-linecap="round" stroke-linejoin="round"/>
<path fill-rule="evenodd" clip-rule="evenodd" d="M726.5 693.1C726.5 691.5 751.101 671.5 760.701 654.8C763.101 650.6 768.1 667.1 766.8 671.5C763.4 682.6 751.7 695.9 742 702.7" fill="#F7F2EE"/>
<path d="M726.5 693.1C726.5 691.5 751.101 671.5 760.701 654.8C763.101 650.6 768.1 667.1 766.8 671.5C763.4 682.6 751.7 695.9 742 702.7" stroke="black" stroke-width="4" stroke-miterlimit="10" stroke-linecap="round" stroke-linejoin="round"/>
<path fill-rule="evenodd" clip-rule="evenodd" d="M884.8 872.1C895.4 785.9 939.5 717.1 1015.3 683.7C1095.8 648.3 1200.1 657.7 1232.3 726.1C1245.8 754.7 1242 790.2 1228.8 817.3C1156.2 966.9 953.8 785.9 884.8 872.1Z" fill="#A1D92C"/>
<path d="M884.8 872.1C895.4 785.9 939.5 717.1 1015.3 683.7C1095.8 648.3 1200.1 657.7 1232.3 726.1C1245.8 754.7 1242 790.2 1228.8 817.3C1156.2 966.9 953.8 785.9 884.8 872.1Z" stroke="black" stroke-width="8" stroke-miterlimit="10" stroke-linecap="round" stroke-linejoin="round"/>
<path d="M1024.8 710.3C1024.9 710.3 1024.6 710.4 1024.6 710.4C1023.2 711.4 1021.7 712.4 1020.3 713.4C1017.2 715.7 1014.1 718 1010.9 720.2" stroke="#F7F2EE" stroke-width="4" stroke-miterlimit="10" stroke-linecap="round" stroke-linejoin="round"/>
<path d="M996.7 729.4C996.6 729.4 996.6 729.4 996.7 729.4" stroke="#F7F2EE" stroke-width="4" stroke-miterlimit="10" stroke-linecap="round" stroke-linejoin="round"/>
<path d="M982.2 738.3C983.3 737.4 980.3 740.5 979.4 741.5C977.5 743.7 975.6 745.9 973.7 748.1" stroke="#F7F2EE" stroke-width="4" stroke-miterlimit="10" stroke-linecap="round" stroke-linejoin="round"/>
<path d="M961.3 761.4C961.4 761.4 961.2 761.4 961.1 761.5" stroke="#F7F2EE" stroke-width="4" stroke-miterlimit="10" stroke-linecap="round" stroke-linejoin="round"/>
<path d="M950.6 772.5C951.3 772.1 949.6 773.8 949.2 774.4C948.3 775.7 947.4 777 946.6 778.3" stroke="#F7F2EE" stroke-width="4" stroke-miterlimit="10" stroke-linecap="round" stroke-linejoin="round"/>
<path d="M933.9 795.6C933.9 795.6 933.8 795.6 933.7 795.6" stroke="#F7F2EE" stroke-width="4" stroke-miterlimit="10" stroke-linecap="round" stroke-linejoin="round"/>
<path d="M926.6 806.7C926.7 809.5 922.7 814.4 921.4 816.8" stroke="#F7F2EE" stroke-width="4" stroke-miterlimit="10" stroke-linecap="round" stroke-linejoin="round"/>
<path d="M1030.7 736.6C1027.6 737.8 1023.4 745.7 1021.2 748.3" stroke="#F7F2EE" stroke-width="4" stroke-miterlimit="10" stroke-linecap="round" stroke-linejoin="round"/>
<path d="M1007.9 761.3C1007.9 761.3 1007.8 761.3 1007.9 761.3" stroke="#F7F2EE" stroke-width="4" stroke-miterlimit="10" stroke-linecap="round" stroke-linejoin="round"/>
<path d="M999.9 773C998 775.3 996.2 777.8 994.2 780.2" stroke="#F7F2EE" stroke-width="4" stroke-miterlimit="10" stroke-linecap="round" stroke-linejoin="round"/>
<path d="M972.8 805.7C972.9 804.7 971.7 807.5 971.2 808.3C970.1 810.1 969 811.8 967.9 813.5" stroke="#F7F2EE" stroke-width="4" stroke-miterlimit="10" stroke-linecap="round" stroke-linejoin="round"/>
<path d="M956.6 827.7C956.6 827.7 956.5 827.8 956.6 827.7" stroke="#F7F2EE" stroke-width="4" stroke-miterlimit="10" stroke-linecap="round" stroke-linejoin="round"/>
<path d="M1072.2 741.9C1072.5 741.6 1071.7 742.5 1071.5 742.8" stroke="#F7F2EE" stroke-width="4" stroke-miterlimit="10" stroke-linecap="round" stroke-linejoin="round"/>
<path d="M1020.4 827.9C1019.8 828.9 1019.1 829.9 1018.5 830.9" stroke="#F7F2EE" stroke-width="4" stroke-miterlimit="10" stroke-linecap="round" stroke-linejoin="round"/>
<path d="M1091.7 745.8C1090.8 745.1 1091.7 748.2 1091.6 749.3C1091.5 751.7 1091.4 754.1 1091.3 756.5" stroke="#F7F2EE" stroke-width="4" stroke-miterlimit="10" stroke-linecap="round" stroke-linejoin="round"/>
<path d="M1091.2 771.2C1091.2 771.2 1091.2 771.3 1091.2 771.2" stroke="#F7F2EE" stroke-width="4" stroke-miterlimit="10" stroke-linecap="round" stroke-linejoin="round"/>
<path d="M1091.6 785.3C1091.2 787.4 1091.3 789.7 1091.3 791.8" stroke="#F7F2EE" stroke-width="4" stroke-miterlimit="10" stroke-linecap="round" stroke-linejoin="round"/>
<path d="M1081.3 856.2C1081 856.5 1081.1 858.6 1081.1 859.1" stroke="#F7F2EE" stroke-width="4" stroke-miterlimit="10" stroke-linecap="round" stroke-linejoin="round"/>
<path d="M1108.4 744.4C1108.4 744.4 1108.7 745.3 1108.7 745.5" stroke="#F7F2EE" stroke-width="4" stroke-miterlimit="10" stroke-linecap="round" stroke-linejoin="round"/>
<path d="M1111.5 758.7C1111.5 758.7 1111.4 758.8 1111.5 758.7" stroke="#F7F2EE" stroke-width="4" stroke-miterlimit="10" stroke-linecap="round" stroke-linejoin="round"/>
<path d="M1136.5 854.6C1136.3 854.9 1137 856.1 1137.1 856.4" stroke="#F7F2EE" stroke-width="4" stroke-miterlimit="10" stroke-linecap="round" stroke-linejoin="round"/>
<path d="M1126.3 732.7C1126.3 732.7 1127 734.1 1127.1 734.2" stroke="#F7F2EE" stroke-width="4" stroke-miterlimit="10" stroke-linecap="round" stroke-linejoin="round"/>
<path d="M1160.4 833.9C1160.5 833.9 1161 835.2 1161.1 835.5" stroke="#F7F2EE" stroke-width="4" stroke-miterlimit="10" stroke-linecap="round" stroke-linejoin="round"/>
<path d="M1167.4 847.9C1167.4 847.9 1167.4 847.8 1167.4 847.9" stroke="#F7F2EE" stroke-width="4" stroke-miterlimit="10" stroke-linecap="round" stroke-linejoin="round"/>
<path d="M1172.6 856.3C1172.5 856.4 1173.1 857.4 1173.2 857.5" stroke="#F7F2EE" stroke-width="4" stroke-miterlimit="10" stroke-linecap="round" stroke-linejoin="round"/>
<path d="M1142.9 720.5C1143.3 719.4 1144.5 722.2 1145.3 723" stroke="#F7F2EE" stroke-width="4" stroke-miterlimit="10" stroke-linecap="round" stroke-linejoin="round"/>
<path d="M1157.7 733.2C1157.7 733.1 1157.7 733.2 1157.7 733.2" stroke="#F7F2EE" stroke-width="4" stroke-miterlimit="10" stroke-linecap="round" stroke-linejoin="round"/>
<path d="M1164.9 743.1C1164.8 743.1 1165.3 743.4 1165.3 743.5C1167.8 745.3 1170 747.5 1172.4 749.5" stroke="#F7F2EE" stroke-width="4" stroke-miterlimit="10" stroke-linecap="round" stroke-linejoin="round"/>
<path d="M1189.1 772.9C1189.3 774.6 1196.9 779.1 1198.3 780.3" stroke="#F7F2EE" stroke-width="4" stroke-miterlimit="10" stroke-linecap="round" stroke-linejoin="round"/>
<path d="M1213.8 799.5C1213.8 799.5 1217.9 802.1 1218.2 802.3" stroke="#F7F2EE" stroke-width="4" stroke-miterlimit="10" stroke-linecap="round" stroke-linejoin="round"/>
<path d="M1157.6 705.2C1159.3 707.1 1162.9 708.3 1165.2 709.7" stroke="#F7F2EE" stroke-width="4" stroke-miterlimit="10" stroke-linecap="round" stroke-linejoin="round"/>
<path d="M1184.6 726.1C1185.1 727.9 1192.4 730.7 1194.1 731.6" stroke="#F7F2EE" stroke-width="4" stroke-miterlimit="10" stroke-linecap="round" stroke-linejoin="round"/>
<path d="M1204.4 742.1C1204.4 742.1 1204.4 742.2 1204.4 742.1" stroke="#F7F2EE" stroke-width="4" stroke-miterlimit="10" stroke-linecap="round" stroke-linejoin="round"/>
<path d="M1213.6 751.7C1212.8 750.6 1216 753 1217.2 753.7" stroke="#F7F2EE" stroke-width="4" stroke-miterlimit="10" stroke-linecap="round" stroke-linejoin="round"/>
<path d="M1231 764.3C1231.1 764.3 1231.1 764.3 1231 764.3" stroke="#F7F2EE" stroke-width="4" stroke-miterlimit="10" stroke-linecap="round" stroke-linejoin="round"/>
<path d="M1168.8 688.5C1169.4 688.4 1171.8 689.8 1172.4 690.1" stroke="#F7F2EE" stroke-width="4" stroke-miterlimit="10" stroke-linecap="round" stroke-linejoin="round"/>
<path fill-rule="evenodd" clip-rule="evenodd" d="M1094.8 650.6C1098.1 646.9 1073.9 623.7 1051.6 629.5C1045.8 631 1040.2 633 1035.6 636.5C990.9 670 1052.2 738.9 1095.3 738.9C1129.5 738.9 1176.1 671.8 1167.2 643.4C1158.7 616.3 1108.5 621.1 1094.8 650.6Z" fill="black"/>
<path d="M1116.2 641.1C1125.6 634.1 1140.9 633.9 1148.1 641.3" stroke="#F7F2EE" stroke-width="4" stroke-miterlimit="10" stroke-linecap="round" stroke-linejoin="round"/>
<path fill-rule="evenodd" clip-rule="evenodd" d="M1052.5 851.1C1045.1 843.4 1008.4 821.4 1008.5 805.4C1008.5 790.7 1038.4 818.5 1041.1 815.7C1045.6 811.1 1017.5 776.8 1019.7 765.4C1022.9 748.6 1055.1 740.3 1066.1 752.7C1080.1 768.5 1104.3 840.1 1073.6 852.1C1065.6 855.1 1059.4 854.9 1052.5 851.1Z" fill="#F7F2EE"/>
<path d="M1052.5 851.1C1045.1 843.4 1008.4 821.4 1008.5 805.4C1008.5 790.7 1038.4 818.5 1041.1 815.7C1045.6 811.1 1017.5 776.8 1019.7 765.4C1022.9 748.6 1055.1 740.3 1066.1 752.7C1080.1 768.5 1104.3 840.1 1073.6 852.1C1065.6 855.1 1059.4 854.9 1052.5 851.1Z" stroke="black" stroke-width="4" stroke-miterlimit="10" stroke-linecap="round" stroke-linejoin="round"/>
<path d="M1051.6 822.8C1050.8 823.3 1053.3 823.4 1054.2 823.8C1056 824.6 1057.7 825.6 1059.3 826.6C1060.5 827.3 1061.7 828.1 1062.8 828.9C1066.3 831.4 1069.4 834.3 1072 837.7" stroke="black" stroke-width="4" stroke-miterlimit="10" stroke-linecap="round" stroke-linejoin="round"/>
<path d="M1024.4 759.3C1024.4 759.3 1026.7 761.8 1026.8 762C1028.3 763.8 1029.6 765.7 1031 767.7C1037.7 777.1 1044.1 786.5 1049.2 796.8" stroke="black" stroke-width="4" stroke-miterlimit="10" stroke-linecap="round" stroke-linejoin="round"/>
<path d="M1039.5 752.5C1039 752.6 1040.3 753.2 1040.6 753.6C1041.3 754.5 1041.8 755.4 1042.4 756.4C1044.2 759.5 1046 762.6 1047.7 765.7C1052.7 775.1 1057.8 784.6 1060.9 794.9" stroke="black" stroke-width="4" stroke-miterlimit="10" stroke-linecap="round" stroke-linejoin="round"/>
<path d="M1058.9 749.5C1064.9 761.4 1066.9 777 1070.2 789.9" stroke="black" stroke-width="4" stroke-miterlimit="10" stroke-linecap="round" stroke-linejoin="round"/>
<path fill-rule="evenodd" clip-rule="evenodd" d="M1137 847.2C1140 837.8 1173.2 823 1174.3 807.1C1175.4 792.5 1146.6 819.2 1144.4 816.3C1140.7 811.5 1168.4 778.3 1167.3 766.9C1165.7 750.1 1137.4 740.9 1126.6 752.8C1112.9 768.1 1085.9 838.5 1112.5 851.3C1119.4 854.7 1125 854.6 1131.5 851.1" fill="#F7F2EE"/>
<path d="M1137 847.2C1140 837.8 1173.2 823 1174.3 807.1C1175.4 792.5 1146.6 819.2 1144.4 816.3C1140.7 811.5 1168.4 778.3 1167.3 766.9C1165.7 750.1 1137.4 740.9 1126.6 752.8C1112.9 768.1 1085.9 838.5 1112.5 851.3C1119.4 854.7 1125 854.6 1131.5 851.1" stroke="black" stroke-width="4" stroke-miterlimit="10" stroke-linecap="round" stroke-linejoin="round"/>
<path d="M1118.8 789.1C1127.1 776.9 1131.6 762.2 1140.3 750.1" stroke="black" stroke-width="4" stroke-miterlimit="10" stroke-linecap="round" stroke-linejoin="round"/>
<path fill-rule="evenodd" clip-rule="evenodd" d="M1130.9 791.1C1130.6 791.5 1131.5 790.2 1131.7 790C1132.4 788.9 1133 787.9 1133.7 786.8C1135.4 783.9 1137.2 781.1 1139 778.3C1144 770.1 1148.6 758.5 1155.5 751.6" fill="#F7F2EE"/>
<path d="M1130.9 791.1C1130.6 791.5 1131.5 790.2 1131.7 790C1132.4 788.9 1133 787.9 1133.7 786.8C1135.4 783.9 1137.2 781.1 1139 778.3C1144 770.1 1148.6 758.5 1155.5 751.6" stroke="black" stroke-width="4" stroke-miterlimit="10" stroke-linecap="round" stroke-linejoin="round"/>
<path d="M1140.8 795.4C1142.5 795.1 1146.4 787.1 1147.3 785.7C1152.8 777.3 1158.6 768.9 1164.9 761.1" stroke="black" stroke-width="4" stroke-miterlimit="10" stroke-linecap="round" stroke-linejoin="round"/>
<path d="M1113.7 839.8C1114.2 840.2 1114.5 838.8 1114.8 838.3C1116 836.8 1117.3 835.2 1118.7 833.8C1122.3 830 1126.2 826.6 1130.9 824.2" stroke="black" stroke-width="4" stroke-miterlimit="10" stroke-linecap="round" stroke-linejoin="round"/>
<path fill-rule="evenodd" clip-rule="evenodd" d="M560.3 845.2C558.4 842.5 542.5 764.2 444.9 745C407.4 737.6 334.8 744.2 323.8 790.5C312.3 839.1 346.8 893 398.6 889.4C449.8 885.8 498.6 826.4 560.6 845.2" fill="#A1D92C"/>
<path d="M560.3 845.2C558.4 842.5 542.5 764.2 444.9 745C407.4 737.6 334.8 744.2 323.8 790.5C312.3 839.1 346.8 893 398.6 889.4C449.8 885.8 498.6 826.4 560.6 845.2" stroke="black" stroke-width="8" stroke-miterlimit="10" stroke-linecap="round" stroke-linejoin="round"/>
<path fill-rule="evenodd" clip-rule="evenodd" d="M397.5 826.7C397.5 826.7 389.4 841 389 852.4C388.2 871.7 398.6 890.7 404 889.6C467.5 877.1 471.9 852.9 520.5 843.4C524.1 842.7 534.4 843.4 533.1 840.9C525.3 826.4 516.2 804 494.5 804.7" fill="#F7F2EE"/>
<path d="M397.5 826.7C397.5 826.7 389.4 841 389 852.4C388.2 871.7 398.6 890.7 404 889.6C467.5 877.1 471.9 852.9 520.5 843.4C524.1 842.7 534.4 843.4 533.1 840.9C525.3 826.4 516.2 804 494.5 804.7" stroke="black" stroke-width="4" stroke-miterlimit="10" stroke-linecap="round" stroke-linejoin="round"/>
<path fill-rule="evenodd" clip-rule="evenodd" d="M420.7 722.9C420.8 721.7 420.9 725.3 421.3 726.4C422 728.4 424.1 733.1 426.9 732.5C429.5 732 429.7 725.2 430.3 725.2C431.9 725.1 433.6 731.1 436.6 731.1C439.9 731.1 439.6 723.9 440.2 723.9C441.2 723.9 444.1 728.9 445.5 729.6C451.3 732.4 450.3 721.1 449.6 718.3" fill="black"/>
<path d="M420.7 722.9C420.8 721.7 420.9 725.3 421.3 726.4C422 728.4 424.1 733.1 426.9 732.5C429.5 732 429.7 725.2 430.3 725.2C431.9 725.1 433.6 731.1 436.6 731.1C439.9 731.1 439.6 723.9 440.2 723.9C441.2 723.9 444.1 728.9 445.5 729.6C451.3 732.4 450.3 721.1 449.6 718.3" stroke="black" stroke-width="4" stroke-miterlimit="10" stroke-linecap="round" stroke-linejoin="round"/>
<path fill-rule="evenodd" clip-rule="evenodd" d="M491.001 852.7C490.101 852.7 432.501 885.7 429.501 881.9C423.101 873.8 425.101 854.2 425.901 850.5C431.201 827.2 488.801 811.6 491.001 852.7Z" fill="black"/>
<path d="M491.001 852.7C490.101 852.7 432.501 885.7 429.501 881.9C423.101 873.8 425.101 854.2 425.901 850.5C431.201 827.2 488.801 811.6 491.001 852.7Z" stroke="black" stroke-width="4" stroke-miterlimit="10" stroke-linecap="round" stroke-linejoin="round"/>
<path fill-rule="evenodd" clip-rule="evenodd" d="M364.101 726.6C361.601 726.4 371.901 725.7 369.301 725.8C335.201 727.4 338.701 788.1 354.501 808.6C379.301 840.6 455.401 815.4 489.101 806C499.001 803.2 510.901 804.6 520.001 799.2C526.001 795.6 529.601 788.5 531.901 782.1C540.501 757.9 532.601 723.6 505.901 715.7C499.601 713.8 494.401 714.3 488.901 710.7C483.601 707.2 489.101 686.5 474.801 688.7C455.901 691.6 471.301 712.3 455.001 714.7C437.201 717.4 416.301 726.2 398.101 722.4C391.701 721.1 400.701 703.9 383.501 704.9C365.201 705.8 388.301 728.3 364.101 726.6Z" fill="#F7F2EE"/>
<path d="M364.101 726.6C361.601 726.4 371.901 725.7 369.301 725.8C335.201 727.4 338.701 788.1 354.501 808.6C379.301 840.6 455.401 815.4 489.101 806C499.001 803.2 510.901 804.6 520.001 799.2C526.001 795.6 529.601 788.5 531.901 782.1C540.501 757.9 532.601 723.6 505.901 715.7C499.601 713.8 494.401 714.3 488.901 710.7C483.601 707.2 489.101 686.5 474.801 688.7C455.901 691.6 471.301 712.3 455.001 714.7C437.201 717.4 416.301 726.2 398.101 722.4C391.701 721.1 400.701 703.9 383.501 704.9C365.201 705.8 388.301 728.3 364.101 726.6Z" stroke="black" stroke-width="4" stroke-miterlimit="10" stroke-linecap="round" stroke-linejoin="round"/>
<path fill-rule="evenodd" clip-rule="evenodd" d="M407.4 725.7C406.8 724 408.2 729.3 408.9 731C409.6 732.9 412.3 740.4 415.2 739.6C418.5 738.6 417.5 732.8 421.7 732.6C425.2 732.5 429.7 739.1 432.6 737.8C435.8 736.4 434.2 730.4 438 729.2C442.1 727.9 446.4 732.5 450.6 730.9C453.7 729.7 455.3 716.5 451.4 715.2" fill="black"/>
<path d="M407.4 725.7C406.8 724 408.2 729.3 408.9 731C409.6 732.9 412.3 740.4 415.2 739.6C418.5 738.6 417.5 732.8 421.7 732.6C425.2 732.5 429.7 739.1 432.6 737.8C435.8 736.4 434.2 730.4 438 729.2C442.1 727.9 446.4 732.5 450.6 730.9C453.7 729.7 455.3 716.5 451.4 715.2" stroke="black" stroke-width="4" stroke-miterlimit="10" stroke-linecap="round" stroke-linejoin="round"/>
<path d="M440.201 753.8C440.201 753.2 437.201 756.6 437.101 757.2C436.401 759.8 437.701 763 440.601 763.3C446.801 763.9 447.7 755.5 441.5 754.6" stroke="black" stroke-width="4" stroke-miterlimit="10" stroke-linecap="round" stroke-linejoin="round"/>
<path d="M423.2 771.9C420.3 775.3 426.4 782.5 429.2 783.5C445.1 789.2 441.2 774.1 439.4 765.9" stroke="black" stroke-width="4" stroke-miterlimit="10" stroke-linecap="round" stroke-linejoin="round"/>
<path d="M440.2 765.7C440.1 765.7 440.2 767.5 440.2 767.6C440.4 768.9 440.6 770.2 440.9 771.5C441.7 775.5 443.3 779.8 446.9 781.9C458.2 788.4 462.7 771.3 456.6 764" stroke="black" stroke-width="4" stroke-miterlimit="10" stroke-linecap="round" stroke-linejoin="round"/>
<path d="M345.1 828.9C348.8 818.8 411.2 785.7 426.4 782.6" stroke="black" stroke-width="4" stroke-miterlimit="10" stroke-linecap="round" stroke-linejoin="round"/>
<path d="M460.8 774.8C460.1 774.2 462.5 774.6 463.4 774.5C465.1 774.3 466.901 774.1 468.601 774" stroke="black" stroke-width="4" stroke-miterlimit="10" stroke-linecap="round" stroke-linejoin="round"/>
<path fill-rule="evenodd" clip-rule="evenodd" d="M344.7 826.7C341.1 821.5 346.3 812.9 338.7 807.9C337.5 807.1 336.1 806.7 334.7 806.7C328.8 806.6 327.3 813.8 322 815C312.2 817.1 294.5 802.1 290.4 818.8C287.2 831.8 302.2 834.1 304.2 844.3C305.8 852.6 296.7 866.7 303.8 873.7C310.9 880.7 319.6 869.5 326.8 869.8C338 870.3 337.6 893.7 357.5 881.3C365.8 876.1 358.5 867.1 360.2 859.8C362.3 850.8 386.6 829.6 352.4 831.7" fill="black"/>
<path d="M344.7 826.7C341.1 821.5 346.3 812.9 338.7 807.9C337.5 807.1 336.1 806.7 334.7 806.7C328.8 806.6 327.3 813.8 322 815C312.2 817.1 294.5 802.1 290.4 818.8C287.2 831.8 302.2 834.1 304.2 844.3C305.8 852.6 296.7 866.7 303.8 873.7C310.9 880.7 319.6 869.5 326.8 869.8C338 870.3 337.6 893.7 357.5 881.3C365.8 876.1 358.5 867.1 360.2 859.8C362.3 850.8 386.6 829.6 352.4 831.7" stroke="black" stroke-width="4" stroke-miterlimit="10" stroke-linecap="round" stroke-linejoin="round"/>
<path fill-rule="evenodd" clip-rule="evenodd" d="M341.4 833.6C341.6 833.7 340.5 830.4 339.3 829.6C336.6 827.7 331.9 829.5 329.5 831.2C324.2 835.1 322.3 845.8 327.9 850.2C340 859.7 357.1 841.1 341.6 832.9" fill="#F7F2EE"/>
<path d="M341.4 833.6C341.6 833.7 340.5 830.4 339.3 829.6C336.6 827.7 331.9 829.5 329.5 831.2C324.2 835.1 322.3 845.8 327.9 850.2C340 859.7 357.1 841.1 341.6 832.9" stroke="black" stroke-width="4" stroke-miterlimit="10" stroke-linecap="round" stroke-linejoin="round"/>
<path d="M402.5 751.9C402.1 752.1 407.2 752 407.9 751.9C411.9 751.3 415.8 750.6 419.8 749.8" stroke="black" stroke-width="4" stroke-miterlimit="10" stroke-linecap="round" stroke-linejoin="round"/>
<path d="M459.2 747.1C460.4 746.3 468.3 744.7 471 743.9C473 743.3 475 742.5 477.1 742.1C477.2 742.1 477.4 742.1 477.3 742.1" stroke="black" stroke-width="4" stroke-miterlimit="10" stroke-linecap="round" stroke-linejoin="round"/>
<path d="M493.2 739.5C497.7 736.6 500.8 734.6 507.8 730.1" stroke="black" stroke-width="4" stroke-miterlimit="10" stroke-linecap="round" stroke-linejoin="round"/>
<path fill-rule="evenodd" clip-rule="evenodd" d="M495.7 754.4C495.5 754.2 502.7 754 504.7 753.6C510.1 752.6 513 751.9 518.4 751" fill="#808080"/>
<path d="M495.7 754.4C495.5 754.2 502.7 754 504.7 753.6C510.1 752.6 513 751.9 518.4 751" stroke="black" stroke-width="4" stroke-miterlimit="10" stroke-linecap="round" stroke-linejoin="round"/>
<path d="M490.6 769.1C501.2 772 512.3 775.1 513.3 775.3" stroke="black" stroke-width="4" stroke-miterlimit="10" stroke-linecap="round" stroke-linejoin="round"/>
<path fill-rule="evenodd" clip-rule="evenodd" d="M364.4 750.2C363.7 750.5 365.8 750.8 366.6 751C368.5 751.5 370.3 752.1 372.1 752.6C377.1 754 382.1 755.6 387 757.4" fill="#F7F2EE"/>
<path d="M364.4 750.2C363.7 750.5 365.8 750.8 366.6 751C368.5 751.5 370.3 752.1 372.1 752.6C377.1 754 382.1 755.6 387 757.4" stroke="black" stroke-width="4" stroke-miterlimit="10" stroke-linecap="round" stroke-linejoin="round"/>
<path d="M388.6 773.6C381.2 774.4 374.9 775.8 368.3 777.9" stroke="black" stroke-width="4" stroke-miterlimit="10" stroke-linecap="round" stroke-linejoin="round"/>
<path d="M389.2 1243.5C394.9 1242.8 411.6 1230.5 419.6 1226.8C466 1204.9 523.2 1186.3 566.2 1222.5" stroke="black" stroke-width="4" stroke-miterlimit="10" stroke-linecap="round" stroke-linejoin="round"/>
<path d="M936.9 1231.8C936.9 1231.8 937.4 1231.5 937.5 1231.4C943.7 1227.7 1004.8 1180.6 1039.1 1180.7C1073.4 1180.8 1108.7 1209.5 1143.1 1232.1" stroke="black" stroke-width="4" stroke-miterlimit="10" stroke-linecap="round" stroke-linejoin="round"/>
<path fill-rule="evenodd" clip-rule="evenodd" d="M762.901 786.8C755.601 786.5 748.101 790.4 742.301 794.3C728.601 803.4 718.001 816.7 707.501 829.2C695.301 843.8 684.401 862 664.901 867.4C644.801 872.9 632.701 839.2 614.001 874.6C587.201 925.4 641.501 919.2 649.701 930.1C652.101 933.3 650.501 944.3 651.101 948.1C657.001 985.5 678.501 1011.1 715.801 1021.4C734.801 1026.7 755.901 1024.6 772.801 1014.5C823.301 984.2 802.701 932.2 808.901 926C810.001 924.9 823.201 932.1 827.501 929.3C841.401 920.5 845.901 882.2 837.901 868.6C831.501 857.8 815.301 870.5 811.001 877.2C810.201 878.4 808.901 881 808.901 881C808.901 881 808.801 877 808.601 875C807.301 864.4 802.801 852.3 793.601 846.3C771.801 832.2 746.101 838.5 726.101 818.5" fill="#F7F2EE"/>
<path d="M762.901 786.8C755.601 786.5 748.101 790.4 742.301 794.3C728.601 803.4 718.001 816.7 707.501 829.2C695.301 843.8 684.401 862 664.901 867.4C644.801 872.9 632.701 839.2 614.001 874.6C587.201 925.4 641.501 919.2 649.701 930.1C652.101 933.3 650.501 944.3 651.101 948.1C657.001 985.5 678.501 1011.1 715.801 1021.4C734.801 1026.7 755.901 1024.6 772.801 1014.5C823.301 984.2 802.701 932.2 808.901 926C810.001 924.9 823.201 932.1 827.501 929.3C841.401 920.5 845.901 882.2 837.901 868.6C831.501 857.8 815.301 870.5 811.001 877.2C810.201 878.4 808.901 881 808.901 881C808.901 881 808.801 877 808.601 875C807.301 864.4 802.801 852.3 793.601 846.3C771.801 832.2 746.101 838.5 726.101 818.5" stroke="black" stroke-width="8" stroke-miterlimit="10" stroke-linecap="round" stroke-linejoin="round"/>
<path d="M674.4 895.9C669.1 905.7 698.2 924.5 703.3 896.3" stroke="black" stroke-width="4" stroke-miterlimit="10" stroke-linecap="round" stroke-linejoin="round"/>
<path d="M750.901 892.3C749.501 892.3 752.901 907.7 765.001 908.7C775.801 909.6 778.901 898.5 778.901 889.8" stroke="black" stroke-width="4" stroke-miterlimit="10" stroke-linecap="round" stroke-linejoin="round"/>
<path d="M729.9 914.9C731.8 924.6 738 935.9 729.3 943.2" stroke="black" stroke-width="4" stroke-miterlimit="10" stroke-linecap="round" stroke-linejoin="round"/>
<path d="M699.4 954.3C700.1 952.6 699.9 958 700.5 959.7C701.6 963 703 966.4 704.4 969.6C708.7 979.5 715.4 990.6 727 992.5C750.2 996.3 760.9 966.6 757.7 947.8" stroke="black" stroke-width="4" stroke-miterlimit="10" stroke-linecap="round" stroke-linejoin="round"/>
</svg>
