<svg width="1500" height="1500" viewBox="0 0 1500 1500" fill="none" xmlns="http://www.w3.org/2000/svg">
<rect width="1500" height="1500" fill="#F7F2EE"/>
<path fill-rule="evenodd" clip-rule="evenodd" d="M549.574 826.198C547.774 826.598 551.974 820.898 552.574 819.798C556.374 813.098 560.374 806.498 564.074 799.698C574.374 781.398 616.174 762.498 625.274 743.598C650.674 690.498 659.274 649.198 666.874 542.098C675.474 420.898 663.174 361.798 652.074 280.998C649.674 263.698 634.574 238.498 625.074 204.498C622.474 194.998 615.674 166.598 617.874 162.298C634.974 127.698 651.474 219.098 646.174 159.998C644.174 137.298 629.774 93.8976 648.574 88.4976C668.774 82.6976 678.774 128.698 690.874 169.498C711.674 239.998 709.774 276.098 713.874 291.898C725.874 338.398 747.174 511.898 730.574 611.398C715.674 700.497 696.875 806.198 627.475 872.198C611.875 887.098 585.474 932.698 575.374 944.798" fill="#F7F2EE"/>
<path d="M549.574 826.198C547.774 826.598 551.974 820.898 552.574 819.798C556.374 813.098 560.374 806.498 564.074 799.698C574.374 781.398 616.174 762.498 625.274 743.598C650.674 690.498 659.274 649.198 666.874 542.098C675.474 420.898 663.174 361.798 652.074 280.998C649.674 263.698 634.574 238.498 625.074 204.498C622.474 194.998 615.674 166.598 617.874 162.298C634.974 127.698 651.474 219.098 646.174 159.998C644.174 137.298 629.774 93.8976 648.574 88.4976C668.774 82.6976 678.774 128.698 690.874 169.498C711.674 239.998 709.774 276.098 713.874 291.898C725.874 338.398 747.174 511.898 730.574 611.398C715.674 700.498 696.875 806.198 627.475 872.198C611.875 887.098 585.474 932.698 575.374 944.798" stroke="#1D1D1D" stroke-width="8" stroke-miterlimit="10" stroke-linecap="round" stroke-linejoin="round"/>
<path fill-rule="evenodd" clip-rule="evenodd" d="M405.474 726.898C388.974 564.298 477.674 492.398 542.674 412.798C580.374 366.698 620.074 336.098 655.274 290.098C665.174 277.198 710.174 278.198 725.674 253.898C737.774 234.898 722.674 240.098 726.774 229.398C732.874 213.698 726.674 201.798 718.374 201.198C708.974 200.598 730.174 187.098 717.174 179.298C673.174 152.998 628.574 249.098 569.774 299.398C512.274 348.498 454.374 404.598 403.874 460.498C301.874 573.298 300.974 742.098 330.874 909.198" fill="#F7F2EE"/>
<path d="M405.474 726.898C388.974 564.298 477.674 492.398 542.674 412.798C580.374 366.698 620.074 336.098 655.274 290.098C665.174 277.198 710.174 278.198 725.674 253.898C737.774 234.898 722.674 240.098 726.774 229.398C732.874 213.698 726.674 201.798 718.374 201.198C708.974 200.598 730.174 187.098 717.174 179.298C673.174 152.998 628.574 249.098 569.774 299.398C512.274 348.498 454.374 404.598 403.874 460.498C301.874 573.298 300.974 742.098 330.874 909.198" stroke="#1D1D1D" stroke-width="8" stroke-miterlimit="10" stroke-linecap="round" stroke-linejoin="round"/>
<path fill-rule="evenodd" clip-rule="evenodd" d="M464.774 1311.1C387.074 1299.9 231.674 1277.5 254.474 1247.8C298.474 1190.3 346.574 1105.4 341.874 1026.1C340.874 1008.6 309.974 856.998 324.274 855.498C356.974 852.098 376.374 829.398 387.574 808.198C390.874 802.098 395.374 776.398 398.274 769.298C398.974 767.498 440.274 698.998 412.674 768.198C418.674 767.598 406.674 764.898 417.574 809.798C423.874 835.698 507.874 880.698 522.774 818.998C523.474 816.198 534.774 825.298 534.974 838.998C536.074 926.798 579.374 939.198 577.874 941.598C567.474 958.498 550.274 1006.7 549.074 1036.1C546.074 1113.3 605.874 1179.1 665.974 1229.4C682.274 1243 442.474 1306.6 464.774 1311.1Z" fill="#F7F2EE"/>
<path d="M464.774 1311.1C387.074 1299.9 231.674 1277.5 254.474 1247.8C298.474 1190.3 346.574 1105.4 341.874 1026.1C340.874 1008.6 309.974 856.998 324.274 855.498C356.974 852.098 376.374 829.398 387.574 808.198C390.874 802.098 395.374 776.398 398.274 769.298C398.974 767.498 440.274 698.998 412.674 768.198C418.674 767.598 406.674 764.898 417.574 809.798C423.874 835.698 507.874 880.698 522.774 818.998C523.474 816.198 534.774 825.298 534.974 838.998C536.074 926.798 579.374 939.198 577.874 941.598C567.474 958.498 550.274 1006.7 549.074 1036.1C546.074 1113.3 605.874 1179.1 665.974 1229.4C682.274 1243 442.474 1306.6 464.774 1311.1Z" stroke="#1D1D1D" stroke-width="8" stroke-miterlimit="10" stroke-linecap="round" stroke-linejoin="round"/>
<path d="M521.074 921.897C478.074 944.297 439.474 1009.9 396.174 1004.5" stroke="#1D1D1D" stroke-width="4" stroke-miterlimit="10" stroke-linecap="round" stroke-linejoin="round"/>
<path d="M398.274 1135.9C408.374 1148.6 420.674 1160.3 433.674 1170.2C473.074 1200.1 515.874 1207.1 564.074 1207.1" stroke="#1D1D1D" stroke-width="4" stroke-miterlimit="10" stroke-linecap="round" stroke-linejoin="round"/>
<path d="M408.875 836.698C432.575 874.098 484.375 882.297 512.175 863.797" stroke="#1D1D1D" stroke-width="4" stroke-miterlimit="10" stroke-linecap="round" stroke-linejoin="round"/>
<path fill-rule="evenodd" clip-rule="evenodd" d="M476.275 1315.2C475.775 1315.3 527.875 1306.1 541.775 1306C562.574 1305.8 571.775 1304.6 591.975 1310C658.775 1328.1 765.474 1406.6 798.374 1285.8C806.074 1257.4 804.774 1219.9 795.574 1192.9C774.074 1129.8 731.474 1132.6 694.174 1146.3C616.174 1175 548.474 1228.3 465.974 1230.2C393.374 1231.9 289.875 1173.5 217.175 1164.8C179.975 1160.3 160.074 1207.4 158.374 1279.8C154.374 1445.9 416.074 1315.2 476.275 1315.2Z" fill="#E2296B"/>
<path d="M476.275 1315.2C475.775 1315.3 527.875 1306.1 541.775 1306C562.575 1305.8 571.775 1304.6 591.975 1310C658.775 1328.1 765.474 1406.6 798.374 1285.8C806.074 1257.4 804.774 1219.9 795.574 1192.9C774.074 1129.8 731.474 1132.6 694.174 1146.3C616.174 1175 548.474 1228.3 465.974 1230.2C393.374 1231.9 289.875 1173.5 217.175 1164.8C179.975 1160.3 160.074 1207.4 158.374 1279.8C154.374 1445.9 416.075 1315.2 476.275 1315.2Z" stroke="#1D1D1D" stroke-width="8" stroke-miterlimit="10" stroke-linecap="round" stroke-linejoin="round"/>
<path d="M193.275 1230.5C191.875 1230.5 195.975 1230.5 197.375 1230.5C200.375 1230.5 203.375 1230.4 206.375 1230.4C215.075 1230.3 223.774 1230.4 232.474 1230.3C238.174 1230.3 319.075 1229.7 321.375 1232.6C322.975 1234.6 301.275 1238.3 300.175 1238.5C279.875 1242.2 255.575 1244.4 237.275 1252.9C235.675 1253.6 231.775 1255.3 233.275 1257.3C240.375 1266.9 356.175 1262.8 373.675 1262.7C379.075 1262.7 417.475 1262.8 417.875 1266.6C418.375 1271.5 372.475 1274.8 363.175 1275.2C333.275 1276.4 213.275 1270.1 193.875 1284C177.975 1295.5 237.674 1300.2 241.974 1300.3C259.374 1300.9 280.875 1298.3 297.475 1303.9" stroke="#F7F2EE" stroke-width="4" stroke-miterlimit="10" stroke-linecap="round" stroke-linejoin="round"/>
<path d="M658.975 1200.7C659.175 1200.2 660.474 1200 660.874 1199.9C676.974 1195.6 727.574 1183.2 738.874 1197.1C741.274 1200.1 739.674 1203.4 737.274 1205.6C709.274 1231.6 579.574 1241 539.674 1247.7C521.674 1250.7 501.874 1252.9 484.974 1261.1C484.074 1261.5 480.474 1263.1 480.874 1264.8C482.074 1270.6 532.274 1264.9 541.774 1263.7C607.674 1255.1 675.574 1241.2 742.174 1243.7C748.574 1243.9 755.374 1244.2 761.474 1246.6C785.674 1256.1 691.774 1270.4 687.874 1271.9C685.874 1272.7 681.374 1274.1 681.174 1277.1C681.074 1278.9 682.675 1280 683.975 1280.7C689.675 1283.9 776.774 1289.6 743.074 1302.3" stroke="#F7F2EE" stroke-width="4" stroke-miterlimit="10" stroke-linecap="round" stroke-linejoin="round"/>
<path fill-rule="evenodd" clip-rule="evenodd" d="M100.574 1411.6C112.074 1402.6 131.774 1391.3 152.874 1381.6C172.474 1372.6 193.274 1364.9 209.774 1361.6C210.274 1361.5 210.674 1361 210.574 1360.4C210.474 1359.9 209.974 1359.5 209.374 1359.6C192.774 1362.9 171.774 1370.6 152.074 1379.7C130.774 1389.5 110.974 1400.8 99.3744 1409.9C98.9744 1410.2 98.8745 1410.9 99.1745 1411.3C99.4745 1411.8 100.074 1411.9 100.574 1411.6Z" fill="#1D1D1D"/>
<path fill-rule="evenodd" clip-rule="evenodd" d="M707.375 1351.3C740.775 1362.1 777.975 1369.7 815.575 1369.4C851.675 1369.1 888.075 1361.4 921.475 1342.1C922.475 1341.5 922.775 1340.3 922.175 1339.4C921.575 1338.4 920.375 1338.1 919.475 1338.7C886.675 1357.6 850.975 1365.2 815.575 1365.5C778.475 1365.8 741.575 1358.2 708.675 1347.6C707.575 1347.3 706.475 1347.8 706.175 1348.9C705.775 1349.8 706.375 1350.9 707.375 1351.3Z" fill="#1D1D1D"/>
<path fill-rule="evenodd" clip-rule="evenodd" d="M1092.17 1345.1C1119.27 1353.7 1169.17 1378.2 1245.57 1378.7C1288.47 1379 1339.87 1371.8 1400.17 1349.9C1401.17 1349.5 1401.77 1348.4 1401.37 1347.3C1400.97 1346.3 1399.87 1345.7 1398.77 1346.1C1338.97 1367.8 1288.17 1375 1245.57 1374.7C1169.77 1374.1 1120.27 1349.8 1093.37 1341.3C1092.27 1341 1091.17 1341.5 1090.87 1342.6C1090.57 1343.7 1091.07 1344.7 1092.17 1345.1Z" fill="#1D1D1D"/>
<path fill-rule="evenodd" clip-rule="evenodd" d="M499.574 589.798C456.974 598.398 461.474 615.898 436.974 621.498C421.674 624.998 414.774 605.798 397.174 617.498C381.574 627.798 374.274 651.498 358.074 659.298C344.574 665.798 270.474 675.198 294.074 703.598C341.074 760.398 308.874 777.298 396.674 771.798C400.674 771.498 428.474 808.698 435.074 808.698C515.874 808.698 513.374 823.498 559.174 849.098C597.574 870.498 659.774 821.998 667.474 817.798C671.874 815.398 671.174 818.098 675.374 803.598C683.474 764.598 648.174 770.998 639.674 744.198C634.474 727.798 645.174 710.398 635.074 694.598C626.874 681.698 608.374 681.298 601.874 667.298C595.774 654.098 601.174 638.798 594.974 625.398C583.774 600.898 529.774 583.698 499.574 589.798Z" fill="#1D1D1D"/>
<path d="M499.574 589.798C456.974 598.398 461.474 615.898 436.974 621.498C421.674 624.998 414.774 605.798 397.174 617.498C381.574 627.798 374.274 651.498 358.074 659.298C344.574 665.798 270.474 675.198 294.074 703.598C341.074 760.398 308.874 777.298 396.674 771.798C400.674 771.498 428.474 808.698 435.074 808.698C515.874 808.698 513.374 823.498 559.174 849.098C597.574 870.498 659.774 821.998 667.474 817.798C671.874 815.398 671.174 818.098 675.374 803.598C683.474 764.598 648.174 770.998 639.674 744.198C634.474 727.798 645.174 710.398 635.074 694.598C626.874 681.698 608.374 681.298 601.874 667.298C595.774 654.098 601.174 638.798 594.974 625.398C583.774 600.898 529.774 583.698 499.574 589.798Z" stroke="#1D1D1D" stroke-width="4" stroke-miterlimit="10" stroke-linecap="round" stroke-linejoin="round"/>
<path fill-rule="evenodd" clip-rule="evenodd" d="M464.474 602.198H464.374C464.474 602.198 464.474 602.198 464.474 602.198ZM464.674 598.498C464.274 598.298 463.774 598.298 463.274 598.398C462.374 598.598 462.074 599.098 461.974 599.198C461.574 599.798 461.074 602.298 463.674 602.498C464.674 602.598 468.274 602.298 469.674 602.198L480.474 601.898C485.774 601.898 491.174 601.998 496.474 602.198C501.674 602.398 506.974 602.798 512.374 603.498C527.874 605.298 552.974 611.998 573.174 621.998C587.974 629.298 600.174 638.298 603.674 648.598C604.074 649.598 605.174 650.198 606.174 649.898C607.174 649.498 607.774 648.398 607.474 647.398C603.774 636.298 590.874 626.298 574.974 618.498C554.274 608.298 528.674 601.498 512.874 599.598C507.374 598.898 501.974 598.598 496.674 598.298C491.274 598.098 485.874 597.998 480.474 597.998L469.474 598.298C468.474 598.298 465.974 598.398 464.674 598.498Z" fill="#F7F2EE"/>
<path fill-rule="evenodd" clip-rule="evenodd" d="M494.974 614.698C493.474 615.598 491.774 616.798 489.974 618.098C486.174 620.798 481.974 624.098 478.874 626.298C468.674 633.798 465.374 643.998 458.474 652.098C455.874 655.198 452.574 657.898 448.074 659.998C442.374 662.598 437.174 663.198 432.174 662.898C418.374 661.998 406.274 654.398 391.774 657.398C390.774 657.598 389.774 657.898 388.874 658.398C387.974 658.798 387.074 659.298 386.274 659.798C383.674 661.498 381.674 663.598 379.774 665.998C373.274 674.498 370.774 686.398 361.574 692.898C352.074 699.598 338.874 698.398 328.374 702.198C325.374 703.298 322.574 704.698 320.074 706.798C319.274 707.498 319.074 708.798 319.774 709.598C320.474 710.398 321.774 710.598 322.574 709.898C324.674 708.098 327.074 706.898 329.674 705.998C340.474 702.098 354.074 703.198 363.874 696.198C366.374 694.398 368.474 692.298 370.274 689.998C373.674 685.498 376.074 680.298 378.774 675.298C381.274 670.598 384.074 666.198 388.574 663.198C389.174 662.798 389.874 662.398 390.574 662.098C391.274 661.798 391.974 661.598 392.674 661.398C399.474 659.998 405.674 661.098 411.774 662.598C418.374 664.298 424.974 666.498 431.874 666.898C437.474 667.298 443.374 666.598 449.774 663.698C454.874 661.398 458.474 658.298 461.474 654.798C468.174 646.998 471.274 636.898 481.274 629.598C483.874 627.698 487.374 624.998 490.674 622.498C492.974 620.898 495.174 619.298 497.074 618.198C497.974 617.598 498.274 616.398 497.774 615.498C497.274 614.598 495.974 614.098 494.974 614.698Z" fill="#F7F2EE"/>
<path fill-rule="evenodd" clip-rule="evenodd" d="M521.174 622.497C519.974 636.897 516.274 644.897 511.474 649.897C507.774 653.797 503.474 655.897 499.274 657.997C494.374 660.397 489.674 662.697 485.774 666.897C483.574 669.297 481.774 671.797 480.174 674.397C473.774 684.597 470.574 696.397 462.374 705.397C458.874 709.297 454.474 711.398 449.674 712.698C437.874 715.798 423.774 714.197 412.574 719.497C408.774 721.298 406.074 723.097 403.874 724.997C398.374 729.897 396.874 735.297 389.174 742.297C388.374 743.097 388.274 744.297 389.074 745.097C389.874 745.897 391.074 745.998 391.874 745.198C399.474 738.098 400.974 732.797 406.474 727.897C408.374 726.197 410.774 724.597 414.174 722.997C425.074 717.897 438.974 719.497 450.574 716.497C456.174 714.997 461.174 712.597 465.274 707.997C467.374 705.597 469.274 703.097 470.874 700.397C477.074 690.297 480.374 678.497 488.674 669.397C492.174 665.597 496.574 663.597 500.974 661.397C505.574 659.097 510.274 656.697 514.374 652.397C519.574 646.897 523.774 638.197 525.174 622.597C525.274 621.497 524.474 620.497 523.374 620.397C522.174 620.597 521.274 621.397 521.174 622.497Z" fill="#F7F2EE"/>
<path fill-rule="evenodd" clip-rule="evenodd" d="M542.274 626.998C542.074 631.298 541.674 635.498 541.074 639.098C540.574 642.098 539.974 644.698 539.174 646.598C536.874 651.798 534.174 656.998 531.374 661.998C528.474 666.998 525.474 671.898 522.274 676.798C514.574 688.698 499.974 698.798 491.874 710.598C487.774 716.598 485.374 722.998 485.874 730.198C486.874 743.698 483.674 754.098 478.474 762.598C468.374 778.898 451.074 788.398 441.274 799.098C440.574 799.898 440.574 801.198 441.374 801.898C442.174 802.598 443.474 802.598 444.174 801.798C454.074 790.898 471.574 781.198 481.774 764.698C487.374 755.598 490.874 744.398 489.774 729.898C489.274 723.598 491.574 718.098 495.074 712.898C503.174 700.998 517.774 690.898 525.574 678.998C528.774 674.098 531.874 669.098 534.774 663.998C537.674 658.898 540.374 653.598 542.774 648.298C543.674 646.198 544.374 643.298 544.974 639.898C545.574 636.198 545.974 631.898 546.174 627.398C546.274 626.298 545.374 625.398 544.274 625.298C543.274 625.098 542.274 625.898 542.274 626.998Z" fill="#F7F2EE"/>
<path fill-rule="evenodd" clip-rule="evenodd" d="M560.374 634.698C559.474 636.398 559.174 639.098 559.274 642.498C559.374 647.098 560.074 652.998 559.974 658.498C559.874 661.798 559.474 664.898 558.274 667.298C551.974 680.498 544.374 694.598 538.974 708.998C535.274 718.898 532.574 728.998 531.974 739.198C531.774 741.898 532.074 744.598 532.674 747.198C534.774 756.598 540.974 765.298 540.274 775.298C539.574 784.698 538.874 790.498 539.374 796.298C539.874 801.898 541.474 807.698 545.574 816.698C546.074 817.698 547.174 818.198 548.174 817.698C549.174 817.198 549.674 816.098 549.174 815.098C545.374 806.598 543.774 801.298 543.274 795.998C542.774 790.298 543.574 784.798 544.174 775.598C544.374 772.898 544.074 770.198 543.574 767.598C541.574 757.998 535.274 749.298 535.874 739.398C536.474 729.598 539.074 719.898 542.674 710.398C548.074 696.098 555.574 682.198 561.874 669.098C563.274 666.198 563.774 662.598 563.974 658.698C564.174 653.198 563.374 647.198 563.274 642.498C563.174 639.998 563.274 637.998 563.974 636.698C564.474 635.698 564.174 634.498 563.174 633.998C562.174 633.398 560.974 633.698 560.374 634.698Z" fill="#F7F2EE"/>
<path fill-rule="evenodd" clip-rule="evenodd" d="M580.174 646.497C582.374 650.497 583.174 654.197 583.074 658.597C582.974 663.797 581.774 669.897 580.374 678.597C579.074 686.197 580.874 692.997 584.174 699.497C591.074 712.997 604.774 724.997 608.574 739.497C609.474 742.797 609.174 745.897 608.274 748.697C606.274 754.697 601.274 759.897 596.974 765.397C592.174 771.397 588.074 777.797 588.374 785.497C588.474 788.797 590.274 792.397 593.274 795.997C601.374 806.097 618.274 816.897 622.774 825.397C623.274 826.397 624.474 826.697 625.474 826.197C626.474 825.697 626.774 824.497 626.274 823.497C621.674 814.897 604.574 803.797 596.374 793.497C594.074 790.597 592.474 787.897 592.374 785.297C592.074 778.497 595.874 773.097 600.074 767.797C604.674 761.997 609.874 756.397 612.074 749.897C613.274 746.397 613.574 742.597 612.474 738.497C608.674 723.697 594.774 711.397 587.774 697.597C584.874 691.897 583.174 685.797 584.374 679.197C585.874 670.297 587.074 663.997 587.174 658.597C587.274 653.497 586.374 649.197 583.774 644.497C583.274 643.497 582.074 643.197 581.074 643.697C579.974 644.297 579.674 645.597 580.174 646.497Z" fill="#F7F2EE"/>
<path fill-rule="evenodd" clip-rule="evenodd" d="M950.175 1088.8C923.575 1092.7 866.975 1202 858.975 1278.1C854.975 1315.8 839.975 1403.8 984.475 1393.9" fill="#F7F2EE"/>
<path d="M950.175 1088.8C923.575 1092.7 866.975 1202 858.975 1278.1C854.975 1315.8 839.975 1403.8 984.475 1393.9" stroke="#1D1D1D" stroke-width="8" stroke-miterlimit="10" stroke-linecap="round" stroke-linejoin="round"/>
<path fill-rule="evenodd" clip-rule="evenodd" d="M1058.57 1395.6C1067.77 1396.2 1081.77 1398.2 1092.47 1398.5C1160.67 1400.4 1168.37 1325.8 1165.97 1284.8C1162.37 1222.4 1150.77 1183.7 1137.27 1157.9C1121.57 1127.9 1103.47 1115.4 1092.67 1103.9C1055.07 1063.9 977.475 1079.3 942.375 1093.4" fill="#F7F2EE"/>
<path d="M1058.57 1395.6C1067.77 1396.2 1081.77 1398.2 1092.47 1398.5C1160.67 1400.4 1168.37 1325.8 1165.97 1284.8C1162.37 1222.4 1150.77 1183.7 1137.27 1157.9C1121.57 1127.9 1103.47 1115.4 1092.67 1103.9C1055.07 1063.9 977.475 1079.3 942.375 1093.4" stroke="#1D1D1D" stroke-width="8" stroke-miterlimit="10" stroke-linecap="round" stroke-linejoin="round"/>
<path fill-rule="evenodd" clip-rule="evenodd" d="M957.875 980.098C969.275 972.698 984.375 943.698 994.375 944.798C1028.97 948.398 1006.87 973.698 1012.57 977.998C1025.77 987.898 1057.97 988.698 1074.27 993.198C1094.77 998.898 1090.37 966.598 1099.47 964.598C1138.07 956.198 1113.87 1010.8 1126.47 1016.4C1137.57 1021.4 1173.97 1034.5 1165.77 1082C1163.37 1096.2 1158.77 1101.1 1150.57 1113C1118.77 1159.1 945.775 1109.3 918.175 1072.7C900.275 1049 891.574 1014.3 905.774 993.798C914.674 980.898 937.075 965.098 957.875 980.098Z" fill="#F7F2EE"/>
<path d="M957.875 980.098C969.275 972.698 984.375 943.698 994.375 944.798C1028.97 948.398 1006.87 973.698 1012.57 977.998C1025.77 987.898 1057.97 988.698 1074.27 993.198C1094.77 998.898 1090.37 966.598 1099.47 964.598C1138.07 956.198 1113.87 1010.8 1126.47 1016.4C1137.57 1021.4 1173.97 1034.5 1165.77 1082C1163.37 1096.2 1158.77 1101.1 1150.57 1113C1118.77 1159.1 945.775 1109.3 918.175 1072.7C900.275 1049 891.574 1014.3 905.774 993.798C914.674 980.898 937.075 965.098 957.875 980.098Z" stroke="#1D1D1D" stroke-width="8" stroke-miterlimit="10" stroke-linecap="round" stroke-linejoin="round"/>
<path d="M1167.97 1058.5C1167.47 1058.6 1171.27 1056.7 1171.87 1056.5C1174.57 1055.5 1177.37 1054.7 1180.17 1054C1188.37 1052.1 1197.87 1050.9 1206.27 1052.8" stroke="#1D1D1D" stroke-width="4" stroke-miterlimit="10" stroke-linecap="round" stroke-linejoin="round"/>
<path d="M1166.17 1089.4C1167.17 1087 1186.17 1088.4 1189.07 1088.8" stroke="#1D1D1D" stroke-width="4" stroke-miterlimit="10" stroke-linecap="round" stroke-linejoin="round"/>
<path d="M1156.97 1109.2C1158.17 1106.8 1172.87 1115.5 1176.37 1118.5" stroke="#1D1D1D" stroke-width="4" stroke-miterlimit="10" stroke-linecap="round" stroke-linejoin="round"/>
<path d="M913.574 985.798C916.374 978.198 882.675 968.198 873.375 969.198" stroke="#1D1D1D" stroke-width="4" stroke-miterlimit="10" stroke-linecap="round" stroke-linejoin="round"/>
<path d="M899.174 1004.9C899.074 1005 898.774 1005 898.674 1004.9C888.074 1004.3 877.174 1004.5 866.674 1006.9" stroke="#1D1D1D" stroke-width="4" stroke-miterlimit="10" stroke-linecap="round" stroke-linejoin="round"/>
<path d="M904.374 1040.9C901.574 1037.1 874.174 1050.8 870.674 1053.8" stroke="#1D1D1D" stroke-width="4" stroke-miterlimit="10" stroke-linecap="round" stroke-linejoin="round"/>
<path fill-rule="evenodd" clip-rule="evenodd" d="M1017.97 980.098C1017.57 979.798 1018.07 980.398 1018.07 980.598C1018.87 984.598 1017.37 988.998 1016.87 992.798C1016.17 997.698 1008.77 1013.6 1016.67 1018.5C1023.97 1023.1 1025.27 1003.3 1032.87 1006C1040.37 1008.6 1034.37 1023.5 1044.07 1024.8C1050.87 1025.7 1048.47 1009.6 1052.57 1010.9C1058.57 1012.9 1059.17 1032.4 1070.37 1028.4C1076.37 1026.2 1075.87 1017.3 1076.37 1012.9C1079.17 985.898 1059.97 985.098 1025.27 982.798" fill="#1D1D1D"/>
<path fill-rule="evenodd" clip-rule="evenodd" d="M1017.57 980.998C1017.47 980.998 1017.47 980.897 1017.37 980.897C1017.47 980.997 1017.57 980.998 1017.57 980.998ZM1017.17 980.897C1017.47 982.297 1017.37 983.897 1017.27 985.397C1016.97 987.897 1016.27 990.397 1015.97 992.597C1015.47 996.097 1011.77 1004.8 1012.17 1011.5C1012.37 1014.8 1013.57 1017.6 1016.27 1019.3C1018.37 1020.6 1020.17 1020.3 1021.67 1019.1C1023.97 1017.2 1025.77 1012.8 1027.87 1009.6C1029.17 1007.6 1030.57 1006.1 1032.67 1006.8C1035.47 1007.8 1035.97 1010.7 1036.47 1013.8C1036.97 1017.2 1037.37 1020.9 1039.37 1023.2C1040.47 1024.5 1041.87 1025.4 1044.07 1025.7C1045.87 1025.9 1047.17 1025.2 1048.17 1024C1049.97 1021.7 1050.47 1017.1 1051.27 1014C1051.47 1013.3 1051.67 1012.7 1051.87 1012.2C1051.97 1011.9 1052.17 1011.7 1052.37 1011.8C1054.07 1012.4 1055.17 1014.6 1056.37 1017.2C1058.07 1020.8 1059.67 1025 1062.17 1027.5C1064.27 1029.6 1066.97 1030.7 1070.77 1029.3C1073.47 1028.3 1074.97 1026.2 1075.97 1023.6C1077.17 1020.1 1077.17 1015.7 1077.47 1012.9C1078.87 999.497 1074.97 992.398 1066.77 988.198C1057.97 983.798 1043.87 982.898 1025.47 981.698C1024.87 981.698 1024.47 982.097 1024.37 982.597C1024.37 983.197 1024.77 983.598 1025.27 983.698C1043.37 984.898 1057.17 985.598 1065.77 989.998C1073.27 993.798 1076.67 1000.5 1075.37 1012.7C1075.07 1015.3 1075.17 1019.5 1073.97 1022.9C1073.27 1024.9 1072.07 1026.6 1070.07 1027.3C1067.17 1028.3 1065.17 1027.6 1063.57 1026C1060.77 1023.2 1059.17 1018.1 1057.27 1014.5C1056.07 1012.2 1054.67 1010.4 1052.97 1009.8C1051.77 1009.4 1050.97 1009.8 1050.27 1010.8C1049.07 1012.5 1048.77 1017.1 1047.67 1020.4C1047.07 1022.3 1046.17 1023.9 1044.27 1023.6C1042.67 1023.4 1041.57 1022.8 1040.77 1021.8C1038.67 1019.3 1038.77 1015 1037.97 1011.5C1037.27 1008.4 1036.07 1005.9 1033.17 1004.9C1031.07 1004.2 1029.37 1004.8 1027.97 1006.1C1025.67 1008.3 1023.87 1012.6 1021.97 1015.6C1020.67 1017.5 1019.27 1018.8 1017.27 1017.5C1014.37 1015.7 1013.87 1012.3 1014.17 1008.7C1014.67 1002.6 1017.47 995.697 1017.87 992.797C1018.17 990.497 1018.87 987.998 1019.17 985.498C1019.37 983.698 1019.37 981.997 1019.07 980.297C1019.07 980.297 1019.07 980.197 1018.97 980.097C1018.97 979.797 1018.87 979.398 1018.57 979.198C1017.97 978.798 1017.57 978.998 1017.47 978.998C1017.17 979.098 1016.67 979.497 1016.87 980.297C1016.97 980.497 1017.07 980.797 1017.17 980.897Z" fill="#1D1D1D"/>
<path fill-rule="evenodd" clip-rule="evenodd" d="M1253.27 332.798C1253.27 305.598 1239.47 244.798 1204.37 229.998C1150.87 207.298 912.574 224.198 864.874 254.898C836.374 273.198 836.474 330.698 832.174 358.998C821.174 430.098 830.074 627.398 893.574 682.098C904.674 691.698 920.074 695.598 934.574 697.698C981.974 704.598 1173.87 703.598 1222.97 685.098C1232.77 681.398 1240.27 674.698 1245.37 665.898C1273.67 617.698 1265.47 491.098 1261.67 436.698C1259.87 410.998 1257.17 385.298 1255.07 359.598C1254.37 350.698 1253.27 341.698 1253.27 332.798Z" fill="#2590E4"/>
<path fill-rule="evenodd" clip-rule="evenodd" d="M1251.27 332.797C1251.27 336.397 1251.47 340.097 1251.67 343.697C1252.07 349.097 1252.57 354.397 1253.07 359.797C1254.57 377.797 1256.27 395.797 1257.87 413.797C1258.57 421.497 1259.17 429.197 1259.67 436.897C1261.87 468.597 1265.57 524.897 1262.67 575.797C1260.57 611.797 1255.27 645.098 1243.67 664.997C1241.17 669.198 1238.17 672.897 1234.57 676.097C1231.07 679.197 1226.97 681.597 1222.27 683.397C1201.97 690.997 1157.07 695.597 1108.17 697.897C1039.27 701.197 962.475 699.797 934.875 695.797C926.375 694.597 917.575 692.697 909.575 689.397C904.275 687.197 899.275 684.398 894.875 680.698C868.875 658.398 852.275 611.897 842.375 560.197C828.075 486.097 827.675 400.997 834.175 359.397C836.775 342.697 837.775 315.897 843.975 292.997C848.175 277.597 854.675 263.897 865.975 256.597C889.775 241.297 961.274 229.597 1033.27 224.397C1104.87 219.297 1177.07 220.597 1203.57 231.897C1216.97 237.597 1227.07 250.197 1234.57 264.897C1246.17 287.997 1251.27 316.497 1251.27 332.797ZM1255.27 332.797C1255.27 316.097 1250.17 286.797 1238.17 262.997C1230.27 247.297 1219.37 234.097 1205.17 228.097C1178.37 216.697 1105.37 215.097 1032.97 220.297C960.075 225.497 887.874 237.597 863.774 253.097C851.774 260.897 844.575 275.297 840.075 291.797C833.775 314.897 832.775 341.797 830.175 358.597C823.675 400.497 824.075 486.097 838.475 560.697C848.575 613.397 865.875 660.698 892.375 683.497C896.975 687.497 902.375 690.597 908.175 692.897C916.475 696.297 925.675 698.297 934.475 699.597C962.175 703.597 1039.37 704.997 1108.57 701.698C1157.97 699.398 1203.37 694.597 1223.87 686.897C1228.97 684.997 1233.47 682.297 1237.37 678.897C1241.27 675.497 1244.67 671.397 1247.37 666.797C1259.27 646.497 1264.87 612.597 1266.97 575.797C1269.87 524.697 1266.17 468.197 1263.97 436.397C1263.47 428.697 1262.77 420.897 1262.17 413.197C1260.67 395.197 1258.87 377.197 1257.37 359.197C1256.97 353.897 1256.37 348.497 1255.97 343.097C1255.37 339.797 1255.27 336.297 1255.27 332.797Z" fill="#1D1D1D"/>
<path fill-rule="evenodd" clip-rule="evenodd" d="M936.475 360.497C936.775 360.797 937.075 361.197 937.375 361.497C938.975 363.497 940.874 366.197 942.074 367.397C942.674 367.997 943.575 367.997 944.175 367.497C944.775 366.897 944.774 365.997 944.274 365.397C942.974 363.997 940.675 360.697 938.975 358.797C938.075 357.797 937.274 357.197 936.774 356.997C936.074 356.797 935.474 356.897 935.074 357.297C934.674 357.597 934.274 358.197 934.274 359.297C934.274 360.097 934.974 360.797 935.774 360.697C935.974 360.597 936.275 360.597 936.475 360.497Z" fill="#F7F2EE"/>
<path fill-rule="evenodd" clip-rule="evenodd" d="M961.474 388.598C962.074 388.198 962.274 387.298 961.974 386.598C961.574 385.898 960.674 385.598 959.974 385.998C959.774 386.098 959.574 386.198 959.474 386.398C959.374 386.498 959.274 386.698 959.174 386.898C958.874 387.698 959.274 388.498 960.074 388.798C960.474 389.098 961.074 388.998 961.474 388.598Z" fill="#F7F2EE"/>
<path fill-rule="evenodd" clip-rule="evenodd" d="M972.274 403.597C972.874 403.897 973.374 404.397 973.874 404.897C975.274 406.397 976.574 408.397 977.674 409.597C978.274 410.197 979.174 410.197 979.774 409.697C980.374 409.097 980.374 408.197 979.874 407.597C978.774 406.397 977.474 404.397 976.074 402.897C975.274 402.097 974.474 401.397 973.674 400.897C972.974 400.497 972.074 400.797 971.674 401.497C971.274 402.397 971.574 403.297 972.274 403.597Z" fill="#F7F2EE"/>
<path fill-rule="evenodd" clip-rule="evenodd" d="M998.475 436.198L998.374 436.498C998.074 437.298 998.574 438.098 999.274 438.398C1000.07 438.698 1000.87 438.198 1001.17 437.498C1001.17 437.398 1001.47 436.498 1001.47 436.098C1001.47 434.898 1000.67 434.598 999.975 434.598C999.175 434.598 998.474 435.198 998.374 435.998C998.474 436.098 998.475 436.198 998.475 436.198Z" fill="#F7F2EE"/>
<path fill-rule="evenodd" clip-rule="evenodd" d="M1032.87 474.298C1033.67 475.498 1034.67 477.598 1035.47 478.498C1035.97 479.098 1036.97 479.198 1037.57 478.698C1038.17 478.198 1038.27 477.198 1037.77 476.598C1036.97 475.698 1036.07 473.598 1035.27 472.498C1034.67 471.598 1033.97 471.098 1033.47 470.998C1032.67 470.798 1031.77 470.998 1031.27 472.398C1031.07 473.198 1031.47 473.998 1032.27 474.298C1032.37 474.298 1032.67 474.298 1032.87 474.298Z" fill="#F7F2EE"/>
<path fill-rule="evenodd" clip-rule="evenodd" d="M1060.67 513.598C1061.87 516.298 1063.27 518.698 1064.77 520.998C1066.97 524.498 1069.47 527.698 1072.27 531.098C1072.77 531.698 1073.77 531.798 1074.37 531.298C1074.97 530.798 1075.07 529.798 1074.57 529.198C1071.87 525.898 1069.47 522.798 1067.27 519.398C1065.87 517.198 1064.57 514.898 1063.37 512.398C1063.07 511.598 1062.17 511.298 1061.37 511.698C1060.67 511.998 1060.27 512.898 1060.67 513.598Z" fill="#F7F2EE"/>
<path d="M1095.27 568.998C1095.67 568.598 1095.37 570.098 1095.37 570.598" stroke="#F7F2EE" stroke-width="8" stroke-miterlimit="10" stroke-linecap="round" stroke-linejoin="round"/>
<path fill-rule="evenodd" clip-rule="evenodd" d="M903.875 376.798C904.075 377.398 904.175 378.098 904.375 378.898C904.975 381.998 905.375 386.198 906.175 388.298C906.475 389.098 907.375 389.498 908.075 389.198C908.875 388.898 909.275 387.998 908.975 387.298C907.975 384.598 907.575 378.498 906.675 375.798C906.175 374.298 905.175 373.498 904.375 373.498C903.775 373.398 902.875 373.598 902.075 374.598C901.575 375.198 901.675 376.198 902.275 376.698C902.775 376.998 903.375 376.998 903.875 376.798Z" fill="#F7F2EE"/>
<path fill-rule="evenodd" clip-rule="evenodd" d="M919.774 425.198C919.974 424.498 919.575 423.798 918.875 423.498C918.075 423.198 917.275 423.498 916.875 424.298L916.774 425.198C916.774 425.998 917.375 426.698 918.175 426.798C918.975 426.798 919.674 426.198 919.774 425.398V425.198Z" fill="#F7F2EE"/>
<path fill-rule="evenodd" clip-rule="evenodd" d="M927.474 451.097C928.574 451.297 928.874 452.197 929.174 453.197C929.874 456.397 929.274 461.197 930.474 464.197C930.774 464.997 931.674 465.397 932.374 465.097C933.174 464.797 933.574 463.897 933.274 463.197C932.574 461.297 932.674 458.698 932.474 456.297C932.374 454.197 932.174 452.197 931.474 450.797C930.774 449.397 929.674 448.497 927.974 448.197C927.174 448.097 926.374 448.598 926.274 449.398C926.074 450.198 926.674 450.997 927.474 451.097Z" fill="#F7F2EE"/>
<path fill-rule="evenodd" clip-rule="evenodd" d="M955.975 516.098C955.975 516.098 956.075 515.998 955.975 516.098V516.098ZM953.374 515.998C953.574 516.498 954.074 516.798 954.874 516.698C954.274 516.798 953.674 516.498 953.374 515.998ZM953.274 514.998C952.974 515.798 953.375 516.598 954.175 516.898C954.875 517.198 955.774 516.798 956.074 516.098C956.074 515.998 956.275 514.998 956.175 514.798C955.975 514.098 955.474 513.598 954.574 513.698C953.874 513.898 953.374 514.398 953.274 514.998Z" fill="#F7F2EE"/>
<path fill-rule="evenodd" clip-rule="evenodd" d="M969.175 544.598C969.175 544.598 969.574 544.998 969.874 545.398C970.574 546.298 971.175 547.698 971.975 549.298C974.375 554.598 976.875 561.998 977.675 563.798C978.075 564.598 978.875 564.898 979.675 564.498C980.375 564.098 980.774 563.298 980.374 562.498C979.474 560.498 976.375 551.198 973.675 545.998C972.475 543.598 971.074 542.098 970.074 541.798C969.274 541.598 968.474 542.098 968.274 542.898C967.974 543.598 968.375 544.398 969.175 544.598Z" fill="#F7F2EE"/>
<path fill-rule="evenodd" clip-rule="evenodd" d="M991.774 590.198C991.774 590.298 991.674 590.398 991.674 590.398C991.474 591.198 991.974 591.998 992.774 592.198C993.574 592.398 994.374 591.898 994.574 591.098C994.574 590.998 994.774 590.398 994.774 590.098C994.774 589.598 994.574 589.198 994.274 588.998C993.674 588.398 992.674 588.498 992.174 589.098C991.874 589.498 991.774 589.898 991.774 590.198Z" fill="#F7F2EE"/>
<path fill-rule="evenodd" clip-rule="evenodd" d="M1009.67 653.398C1010.97 655.298 1013.17 659.198 1014.37 660.798C1014.87 661.498 1015.77 661.698 1016.47 661.198C1017.17 660.698 1017.37 659.798 1016.87 659.098C1015.57 657.098 1012.57 651.998 1011.57 650.698C1011.27 650.298 1010.97 650.098 1010.87 649.998C1010.37 649.698 1009.87 649.798 1009.57 649.898C1009.27 649.998 1008.97 650.198 1008.77 650.598C1008.67 650.698 1008.47 651.398 1008.87 652.498C1008.97 652.998 1009.27 653.298 1009.67 653.398Z" fill="#F7F2EE"/>
<path fill-rule="evenodd" clip-rule="evenodd" d="M980.074 325.398C980.174 325.398 980.274 325.498 980.374 325.598C982.374 326.598 986.874 329.598 987.674 329.998C988.374 330.398 989.274 330.098 989.674 329.398C990.074 328.698 989.774 327.798 989.074 327.398C988.374 326.998 983.774 323.998 981.774 322.998C980.674 322.398 979.775 322.598 979.475 322.698C978.775 323.098 978.474 323.998 978.874 324.698C979.074 325.098 979.574 325.398 980.074 325.398Z" fill="#F7F2EE"/>
<path fill-rule="evenodd" clip-rule="evenodd" d="M1033.07 344.197C1022.67 340.997 1017.67 339.997 1014.27 338.797C1012.67 338.297 1011.47 337.797 1010.17 336.897C1009.47 336.397 1008.57 336.697 1008.07 337.297C1007.67 337.997 1007.77 338.897 1008.47 339.397C1009.97 340.397 1011.37 340.997 1013.27 341.597C1016.67 342.697 1021.67 343.697 1032.07 346.997C1032.87 347.197 1033.67 346.797 1033.97 345.997C1034.27 345.297 1033.87 344.497 1033.07 344.197Z" fill="#F7F2EE"/>
<path fill-rule="evenodd" clip-rule="evenodd" d="M1060.17 352.497C1059.87 352.097 1059.37 351.897 1058.87 351.897C1057.57 351.997 1057.37 352.797 1057.27 353.097C1057.17 353.497 1057.17 354.497 1058.37 354.997C1058.97 355.297 1060.67 355.697 1060.87 355.797C1063.27 356.797 1065.67 357.697 1068.07 358.597C1070.47 359.497 1072.97 360.397 1075.37 361.197C1076.17 361.497 1076.97 360.997 1077.27 360.297C1077.57 359.497 1077.07 358.697 1076.37 358.397C1073.97 357.597 1071.57 356.697 1069.17 355.797C1066.77 354.897 1064.37 353.997 1061.97 352.997C1061.87 352.997 1060.87 352.697 1060.17 352.497Z" fill="#F7F2EE"/>
<path fill-rule="evenodd" clip-rule="evenodd" d="M1113.37 371.698C1113.57 371.698 1113.87 371.698 1114.07 371.598C1113.87 371.698 1113.67 371.798 1113.37 371.698ZM1112.37 370.998C1112.57 371.698 1113.37 372.198 1114.17 371.998C1114.97 371.798 1115.47 370.998 1115.27 370.298C1115.27 370.198 1114.77 369.198 1114.47 368.998C1114.07 368.798 1113.67 368.698 1113.27 368.898C1112.47 369.098 1112.07 369.998 1112.27 370.798C1112.27 370.798 1112.27 370.898 1112.37 370.998Z" fill="#F7F2EE"/>
<path fill-rule="evenodd" clip-rule="evenodd" d="M1143.77 383.098C1143.97 383.098 1144.37 383.298 1144.87 383.398C1147.67 384.198 1154.07 386.198 1157.27 386.998C1158.07 387.198 1158.87 386.698 1159.07 385.898C1159.27 385.098 1158.77 384.298 1157.97 384.098C1154.77 383.298 1148.47 381.298 1145.67 380.498C1145.07 380.298 1144.57 380.198 1144.37 380.098C1144.07 379.998 1143.87 379.998 1143.77 379.998C1142.87 380.098 1142.67 380.598 1142.47 380.898C1142.37 381.298 1142.17 381.898 1142.87 382.598C1143.17 382.898 1143.47 383.098 1143.77 383.098Z" fill="#F7F2EE"/>
<path fill-rule="evenodd" clip-rule="evenodd" d="M844.475 366.698C843.875 355.598 848.175 292.098 863.975 273.798C880.275 254.898 962.074 242.898 967.374 247.998C971.874 252.298 975.875 289.398 963.475 317.498C949.275 349.898 903.375 366.098 844.475 366.698Z" fill="#F7F2EE"/>
<path fill-rule="evenodd" clip-rule="evenodd" d="M845.475 365.698C845.275 357.598 846.875 332.298 851.475 309.598C854.475 294.898 858.774 281.398 864.774 274.398C870.874 267.298 886.374 261.298 903.374 256.698C925.174 250.898 949.574 247.498 961.074 247.798C962.874 247.798 964.375 247.998 965.475 248.198C966.075 248.298 966.574 248.498 966.774 248.698C967.674 249.498 968.374 251.698 969.074 254.798C970.474 261.198 971.374 271.498 970.574 282.898C969.774 293.998 967.475 306.298 962.675 317.098C955.975 332.198 942.375 343.698 923.675 351.698C902.875 360.698 875.875 365.298 845.475 365.698ZM843.475 366.798C843.475 367.298 843.975 367.798 844.475 367.698C875.675 367.398 903.174 362.698 924.374 353.598C943.574 345.398 957.575 333.498 964.475 317.898C969.375 306.798 971.675 294.298 972.475 282.998C973.275 271.298 972.375 260.898 970.975 254.298C970.175 250.698 969.074 248.198 968.074 247.198C967.274 246.398 964.774 245.798 961.074 245.698C949.474 245.398 924.774 248.798 902.774 254.698C885.274 259.398 869.475 265.698 863.175 272.998C856.975 280.098 852.575 293.998 849.475 309.098C844.575 333.098 843.075 359.898 843.475 366.798Z" fill="#F7F2EE"/>
<path fill-rule="evenodd" clip-rule="evenodd" d="M840.774 491.498C842.874 488.298 846.374 485.998 850.274 484.098C856.174 481.198 863.174 479.298 868.674 477.098C899.474 464.898 932.774 466.698 968.574 472.098C1015.27 479.098 1066.07 492.398 1120.97 489.798C1154.77 488.298 1190.17 480.798 1226.97 462.198C1227.97 461.698 1228.37 460.498 1227.87 459.498C1227.37 458.498 1226.17 458.098 1225.17 458.598C1188.87 476.798 1154.07 484.198 1120.77 485.798C1066.17 488.298 1015.57 475.098 969.174 468.098C932.674 462.598 898.674 460.898 867.274 473.398C860.674 475.998 852.074 478.298 845.574 482.098C842.274 483.998 839.474 486.398 837.574 489.198C836.974 490.098 837.174 491.398 838.174 491.998C838.974 492.698 840.174 492.398 840.774 491.498Z" fill="#1D1D1D"/>
<path fill-rule="evenodd" clip-rule="evenodd" d="M1047.87 222.398C1050.07 237.598 1057.27 275.398 1057.67 314.298C1057.87 335.298 1056.17 356.598 1050.57 374.898C1032.97 432.698 1026.67 475.198 1032.97 521.398C1038.37 561.498 1053.17 604.298 1078.17 662.398C1078.57 663.398 1079.77 663.898 1080.77 663.398C1081.77 662.998 1082.27 661.798 1081.77 660.798C1056.87 603.198 1042.17 560.598 1036.77 520.898C1030.67 475.198 1036.87 433.198 1054.27 376.098C1059.97 357.398 1061.77 335.698 1061.47 314.298C1061.07 275.098 1053.87 237.098 1051.67 221.798C1051.47 220.698 1050.47 219.998 1049.37 220.098C1048.47 220.298 1047.67 221.298 1047.87 222.398Z" fill="#1D1D1D"/>
<path fill-rule="evenodd" clip-rule="evenodd" d="M1238.47 621.098C1246.77 551.898 1208.37 507.698 1201.67 462.298C1197.57 435.098 1225.67 385.898 1226.87 358.498C1227.67 340.698 1222.47 257.998 1158.97 262.698L1238.47 621.098ZM1158.87 262.798C1203.47 295.498 1197.87 322.998 1196.87 335.298C1195.17 356.298 1189.27 371.298 1189.07 376.998C1188.57 390.498 1169.17 427.798 1158.17 461.898C1138.87 521.898 1197.77 565.397 1192.97 627.598C1189.97 666.397 1237.97 649.098 1238.47 621.198" fill="#1D1D1D"/>
<path fill-rule="evenodd" clip-rule="evenodd" d="M1237.47 620.998C1240.37 596.598 1237.47 575.398 1232.27 556.098C1222.57 520.698 1205.07 491.798 1200.67 462.498C1199.77 456.198 1200.47 448.798 1202.17 440.798C1207.97 413.798 1224.87 379.698 1225.87 358.498C1226.37 346.998 1224.37 307.698 1205.17 283.398C1195.57 271.298 1181.77 262.898 1161.77 263.598C1175.57 274.098 1184.37 283.998 1189.87 293.098C1201.37 311.998 1198.67 327.098 1197.97 335.298C1197.47 341.498 1196.57 347.098 1195.57 352.198C1193.27 364.298 1190.27 372.898 1190.07 376.898C1189.97 380.898 1188.17 387.098 1185.37 394.598C1178.87 412.298 1166.87 437.898 1159.17 461.998C1153.37 479.998 1154.77 496.498 1159.27 512.498C1169.77 549.698 1197.37 584.098 1193.97 627.498C1193.27 635.798 1195.07 641.498 1198.27 644.898C1202.37 649.298 1208.77 649.898 1215.17 647.998C1226.17 644.798 1237.27 634.098 1237.47 620.998ZM1158.77 261.798H1158.67V261.898V261.998V262.098V262.198C1173.57 273.098 1182.77 283.398 1188.47 292.698C1199.67 311.098 1196.97 325.698 1196.27 333.698C1195.77 339.798 1194.87 345.398 1193.97 350.398C1191.57 362.598 1188.67 371.398 1188.47 375.398C1188.37 379.298 1186.57 385.198 1183.87 392.498C1177.27 410.298 1165.37 435.898 1157.67 459.998C1151.77 478.398 1153.07 495.298 1157.77 511.598C1168.27 548.598 1195.77 582.698 1192.47 625.898C1191.17 642.498 1198.87 649.198 1208.37 649.598C1221.97 650.098 1239.67 636.798 1239.97 619.698C1242.97 595.098 1239.97 573.598 1234.67 554.098C1225.07 518.698 1207.47 489.998 1203.07 460.698C1202.17 454.598 1202.87 447.498 1204.57 439.698C1210.37 412.598 1227.37 378.398 1228.27 357.098C1228.77 345.298 1226.67 305.398 1207.17 280.698C1196.27 268.998 1181.07 260.098 1158.77 261.798Z" fill="#1D1D1D"/>
<path fill-rule="evenodd" clip-rule="evenodd" d="M1169.87 622.297C1171.37 622.797 1172.77 616.697 1173.07 615.397C1187.17 562.797 1129.87 546.197 1114.97 502.897C1107.57 481.497 1112.87 460.397 1120.17 439.797C1120.87 437.797 1127.27 411.997 1126.77 412.097C1120.97 413.797 1112.07 434.497 1109.47 439.297C1053.77 541.597 1145.07 556.597 1137.67 629.897" fill="#F7F2EE"/>
<path fill-rule="evenodd" clip-rule="evenodd" d="M1123.77 417.398C1121.97 424.998 1118.77 437.798 1118.37 439.098C1113.97 451.598 1110.27 464.398 1109.57 477.298C1109.17 485.998 1110.07 494.698 1113.17 503.498C1118.47 518.698 1128.77 530.698 1139.57 542.098C1150.47 553.598 1161.77 564.398 1168.17 577.498C1173.27 587.898 1175.17 599.898 1171.27 614.798C1171.07 615.398 1170.67 617.198 1170.17 618.798C1169.97 619.298 1169.67 619.898 1169.47 620.298C1168.87 620.498 1168.37 620.898 1168.07 621.498C1167.67 622.498 1168.27 623.698 1169.27 624.098C1170.37 624.498 1171.87 624.098 1172.87 622.398C1173.97 620.598 1174.77 616.898 1175.07 615.898C1179.37 599.898 1177.27 587.098 1171.77 575.798C1165.17 562.298 1153.67 551.198 1142.47 539.398C1132.07 528.398 1121.97 516.898 1116.87 502.198C1113.97 493.898 1113.07 485.698 1113.47 477.498C1114.07 464.998 1117.67 452.598 1122.07 440.398C1122.67 438.798 1126.87 421.998 1128.27 415.298C1128.57 413.998 1128.77 412.998 1128.77 412.598C1128.87 412.098 1128.77 411.698 1128.67 411.498C1128.47 410.798 1128.07 410.498 1127.67 410.298C1127.27 410.098 1126.77 409.998 1126.17 410.098C1123.87 410.798 1121.07 413.798 1118.37 417.898C1113.87 424.898 1109.37 435.098 1107.67 438.198C1088.87 472.798 1086.57 497.598 1091.67 517.998C1096.77 538.898 1109.57 555.198 1120.27 572.698C1130.07 588.898 1138.07 606.198 1135.67 629.598C1135.57 630.698 1136.37 631.698 1137.47 631.798C1138.57 631.898 1139.57 631.098 1139.67 629.998C1142.07 605.598 1133.87 587.498 1123.67 570.598C1113.27 553.398 1100.57 537.498 1095.57 516.998C1090.77 497.298 1093.07 473.398 1111.27 440.098C1112.97 436.998 1117.37 426.998 1121.77 419.998C1122.47 419.198 1123.17 418.298 1123.77 417.398Z" fill="#1D1D1D"/>
<path fill-rule="evenodd" clip-rule="evenodd" d="M1238.07 612.498C1203.47 614.498 1250.87 573.198 1249.47 536.598C1248.57 514.298 1238.47 468.098 1241.67 467.298C1288.57 455.598 1321.77 563.098 1274.07 610.798" fill="#F7F2EE"/>
<path fill-rule="evenodd" clip-rule="evenodd" d="M1243.07 468.998C1253.97 466.698 1264.07 471.298 1272.37 479.998C1282.77 490.898 1290.37 508.298 1293.57 527.398C1298.47 555.998 1293.47 588.498 1272.67 609.298C1271.87 610.098 1271.87 611.298 1272.67 612.098C1273.47 612.898 1274.77 612.898 1275.47 612.098C1297.17 590.398 1302.57 556.498 1297.57 526.698C1294.17 506.798 1286.17 488.698 1275.27 477.198C1265.67 467.098 1253.87 462.098 1241.17 465.298C1240.47 465.498 1239.77 465.998 1239.37 467.198C1238.97 468.298 1238.97 470.798 1239.27 474.298C1240.57 488.098 1246.77 519.498 1247.47 536.698C1247.97 550.298 1241.57 564.498 1235.37 576.798C1229.77 587.798 1224.47 597.398 1223.57 603.798C1223.27 606.498 1223.57 608.698 1224.77 610.398C1226.57 613.198 1230.67 614.898 1238.27 614.498C1239.37 614.398 1240.17 613.498 1240.17 612.398C1240.07 611.298 1239.17 610.498 1238.07 610.498C1232.57 610.798 1229.47 610.198 1228.17 608.198C1227.47 607.198 1227.37 605.898 1227.67 604.298C1228.47 598.098 1233.77 589.098 1239.07 578.598C1245.57 565.698 1252.17 550.698 1251.67 536.498C1251.47 530.698 1250.57 523.198 1249.47 515.398C1247.17 498.798 1243.87 480.298 1243.27 471.898C1243.07 470.698 1243.07 469.598 1243.07 468.998Z" fill="#1D1D1D"/>
<path fill-rule="evenodd" clip-rule="evenodd" d="M1099.77 635.098C1100.07 634.998 1103.47 652.398 1103.67 652.998C1105.67 661.998 1107.97 670.898 1110.07 679.898C1116.97 708.498 1122.07 753.898 1143.07 777.498C1165.67 803.098 1262.47 803.798 1281.77 778.398C1300.27 754.098 1306.17 712.698 1313.17 667.898C1315.27 654.698 1319.87 628.198 1310.07 616.298C1293.17 596.098 1130.67 623.398 1099.77 635.098Z" fill="#F7F2EE"/>
<path fill-rule="evenodd" clip-rule="evenodd" d="M1102.17 636.398C1121.17 629.798 1176.97 618.998 1226.17 613.898C1253.27 611.098 1278.27 609.998 1294.07 612.398C1301.17 613.398 1306.27 614.998 1308.47 617.798C1312.27 622.298 1313.67 629.198 1313.97 636.598C1314.47 647.798 1312.37 660.098 1311.17 667.798C1307.37 692.298 1303.87 715.698 1298.47 735.898C1294.07 752.298 1288.37 766.598 1280.17 777.398C1270.57 789.898 1241.57 795.598 1212.47 795.198C1184.07 794.798 1155.47 788.698 1144.57 776.298C1136.27 766.898 1130.57 754.098 1126.17 740.198C1119.57 719.498 1116.17 696.498 1112.07 679.498L1105.67 652.598C1105.47 652.098 1103.27 640.898 1102.17 636.398ZM1097.97 636.098C1098.07 636.298 1098.17 636.898 1098.27 637.398C1099.27 641.798 1101.47 652.998 1101.67 653.498L1108.07 680.398C1112.17 697.498 1115.67 720.498 1122.27 741.298C1126.87 755.698 1132.87 769.098 1141.47 778.798C1152.87 791.698 1182.67 798.598 1212.37 798.998C1242.97 799.398 1273.27 792.798 1283.27 779.598C1291.77 768.398 1297.67 753.698 1302.27 736.798C1307.77 716.498 1311.27 692.898 1315.07 668.298C1316.27 660.398 1318.47 647.798 1317.97 636.298C1317.57 627.998 1315.77 620.298 1311.57 615.198C1309.37 612.598 1305.07 610.498 1298.97 609.198C1287.27 606.698 1268.57 606.598 1247.17 608.098C1192.17 611.898 1118.87 625.798 1099.07 633.298C1098.07 633.698 1097.57 634.798 1097.87 635.898C1097.87 635.898 1097.97 635.998 1097.97 636.098Z" fill="#1D1D1D"/>
<path fill-rule="evenodd" clip-rule="evenodd" d="M1180.37 689.097C1180.37 689.197 1180.27 689.297 1180.17 689.297C1179.97 689.497 1179.77 689.697 1179.57 689.897C1179.07 690.297 1178.57 690.597 1178.27 690.797C1172.97 693.997 1156.17 699.297 1147.07 703.897C1144.17 705.397 1142.07 706.797 1141.17 708.097C1140.57 708.997 1140.37 709.897 1140.77 710.697C1141.47 712.297 1143.17 713.297 1145.77 713.797C1148.87 714.397 1153.17 714.197 1158.07 713.597C1173.17 711.697 1193.47 705.397 1197.27 703.997L1200.17 702.897C1204.37 701.197 1245.97 679.997 1276.97 669.497C1288.57 665.597 1298.57 663.097 1304.47 663.897C1306.97 664.197 1308.67 665.097 1309.17 666.997C1309.37 667.697 1308.97 668.297 1308.27 668.897C1307.07 670.097 1304.87 671.397 1302.07 672.597C1291.97 677.197 1274.17 682.197 1261.57 688.597C1256.77 690.997 1252.77 693.697 1250.17 696.597C1248.57 698.397 1248.17 699.797 1248.37 700.997C1248.77 702.697 1250.77 703.997 1254.07 704.597C1261.87 706.097 1276.87 704.897 1286.07 704.897C1288.67 704.897 1290.87 704.997 1292.17 705.397C1292.57 705.497 1292.87 705.497 1292.97 705.697C1293.07 705.897 1292.97 706.097 1292.87 706.297C1292.77 706.497 1292.67 706.697 1292.47 706.897C1289.07 710.797 1278.67 713.397 1264.97 715.497C1229.77 720.897 1172.47 722.497 1146.37 729.197C1141.47 730.397 1137.77 731.897 1135.27 733.497C1133.27 734.897 1132.17 736.397 1131.97 738.097C1131.07 744.897 1136.87 748.297 1146.17 749.297C1165.07 751.297 1198.97 743.797 1213.97 742.497C1216.07 742.297 1217.87 742.197 1219.07 742.397C1219.37 742.397 1219.67 742.497 1219.97 742.497C1218.57 743.197 1214.07 745.397 1213.67 745.597L1190.67 754.597C1189.47 755.097 1177.47 760.597 1173.37 764.197C1172.17 765.197 1171.67 766.297 1171.77 766.997C1171.87 767.797 1172.57 768.697 1174.57 768.997C1180.67 769.797 1191.17 766.597 1203.47 761.697C1223.67 753.697 1248.87 741.097 1266.97 735.397C1273.67 733.297 1279.37 731.997 1283.37 732.397C1285.97 732.597 1287.77 733.497 1288.67 735.297C1289.07 736.197 1288.87 737.197 1288.27 738.197C1287.47 739.497 1286.07 740.797 1284.17 742.197C1277.97 746.897 1267.37 751.697 1259.37 755.897C1254.37 758.497 1250.37 760.997 1248.87 762.897C1247.57 764.697 1248.47 766.397 1250.77 767.797C1253.87 769.697 1259.47 770.997 1260.67 771.297C1262.27 771.697 1264.87 772.197 1265.87 773.197C1265.97 773.298 1265.97 773.497 1265.77 773.697C1265.47 773.997 1265.07 774.397 1264.37 774.697C1253.47 781.197 1240.07 783.997 1226.17 784.497C1205.57 785.397 1183.67 781.597 1166.27 778.197C1165.77 778.097 1165.17 778.397 1165.07 778.997C1164.97 779.497 1165.27 780.097 1165.87 780.197C1183.37 783.597 1205.47 787.397 1226.17 786.497C1240.47 785.897 1254.17 783.097 1265.37 776.397C1268.47 774.497 1268.27 772.897 1267.27 771.797C1266.17 770.597 1263.07 769.797 1261.17 769.297C1260.17 768.997 1255.97 768.097 1252.97 766.597C1252.07 766.197 1251.27 765.697 1250.77 765.197C1250.37 764.798 1250.07 764.397 1250.47 763.897C1251.77 762.097 1255.57 759.897 1260.27 757.497C1268.37 753.297 1279.07 748.297 1285.37 743.597C1287.47 741.997 1289.07 740.497 1289.97 738.997C1290.97 737.297 1291.17 735.697 1290.47 734.197C1289.27 731.797 1286.97 730.497 1283.57 730.197C1279.37 729.797 1273.37 730.997 1266.37 733.297C1248.27 739.097 1223.07 751.597 1202.77 759.697C1190.87 764.397 1180.77 767.597 1174.87 766.897C1174.67 766.897 1174.57 766.897 1174.37 766.797C1174.17 766.797 1173.87 766.697 1173.77 766.597C1173.87 766.497 1173.97 766.297 1174.07 766.097C1174.87 765.097 1176.57 763.997 1178.47 762.797C1183.47 759.697 1190.47 756.597 1191.27 756.197L1214.27 747.197C1214.67 746.997 1219.07 745.497 1220.97 744.097C1222.27 743.097 1222.47 741.997 1221.97 741.297C1221.67 740.897 1220.97 740.497 1219.97 740.297C1218.67 739.997 1216.47 740.097 1213.67 740.297C1198.77 741.597 1165.07 749.097 1146.27 747.097C1138.37 746.297 1133.07 743.897 1133.87 738.097C1134.07 736.597 1135.47 735.297 1137.67 734.097C1142.67 731.397 1151.67 729.397 1162.97 727.797C1193.27 723.397 1239.67 721.597 1268.57 716.697C1281.27 714.597 1290.57 711.697 1293.97 707.997C1294.37 707.497 1294.77 706.797 1294.97 706.097C1295.07 705.497 1294.97 704.897 1294.67 704.397C1294.47 704.097 1294.17 703.797 1293.57 703.497C1292.87 703.197 1291.67 702.897 1290.07 702.797C1282.07 702.197 1263.37 704.097 1254.47 702.397C1253.17 702.197 1252.17 701.797 1251.37 701.397C1250.87 701.097 1250.47 700.797 1250.37 700.297C1250.27 699.597 1250.67 698.797 1251.67 697.697C1255.77 693.097 1263.67 689.197 1272.27 685.797C1285.07 680.597 1299.67 676.397 1306.57 672.397C1308.47 671.297 1309.87 670.097 1310.57 668.997C1311.17 668.097 1311.27 667.197 1311.07 666.297C1310.37 663.697 1308.17 662.197 1304.67 661.697C1298.57 660.897 1288.17 663.297 1276.27 667.397C1245.27 677.897 1203.67 699.097 1199.37 700.797L1196.47 701.897C1192.77 703.297 1172.57 709.497 1157.77 711.397C1153.17 711.997 1148.97 712.197 1146.07 711.597C1144.27 711.297 1142.97 710.697 1142.57 709.697C1142.37 709.297 1142.77 708.997 1143.17 708.597C1144.17 707.697 1145.77 706.597 1147.87 705.597C1156.97 700.997 1173.87 695.697 1179.17 692.397C1179.77 691.997 1181.27 691.097 1181.77 690.097C1182.17 689.397 1182.27 688.597 1181.77 687.797C1181.57 687.497 1181.07 687.097 1180.37 686.897C1179.57 686.697 1178.17 686.597 1176.47 686.697C1168.07 687.097 1149.37 690.297 1135.77 689.997C1131.27 689.897 1127.37 689.397 1124.67 688.297C1122.27 687.297 1120.77 685.797 1120.87 683.497C1120.97 681.297 1123.27 680.497 1126.07 679.997C1130.47 679.197 1135.97 679.597 1138.07 679.697C1163.97 680.297 1191.27 676.697 1218.27 670.697C1245.17 664.697 1271.57 656.297 1295.47 647.197C1297.07 646.597 1304.37 644.197 1308.77 641.397C1310.37 640.397 1311.67 639.197 1312.17 638.097C1312.57 637.197 1312.67 636.397 1312.37 635.497C1311.67 633.297 1309.47 632.297 1306.57 631.997C1301.77 631.597 1294.97 633.397 1292.47 633.897C1265.77 638.897 1197.97 661.397 1157.57 666.597C1147.57 667.897 1139.27 668.097 1133.77 666.597C1129.97 665.597 1127.57 663.897 1127.17 660.897C1126.87 659.097 1128.47 658.197 1130.47 657.497C1133.77 656.397 1138.27 656.297 1139.97 656.097C1161.77 654.097 1183.87 650.997 1205.77 646.597C1227.67 642.197 1249.27 636.397 1269.97 629.297C1271.27 628.897 1276.37 627.497 1279.67 625.697C1281.77 624.497 1283.07 622.997 1282.87 621.597C1282.77 620.697 1282.27 619.997 1281.47 619.397C1280.37 618.597 1278.77 618.197 1276.77 617.997C1271.37 617.397 1263.57 618.597 1261.77 618.897C1244.17 621.497 1191.07 636.497 1150.97 642.097C1137.77 643.997 1125.97 644.797 1117.37 643.797C1111.47 643.097 1107.07 641.597 1104.87 638.797C1104.57 638.397 1103.87 638.297 1103.47 638.597C1103.07 638.897 1102.97 639.597 1103.27 639.997C1105.67 643.097 1110.47 644.997 1117.07 645.797C1125.77 646.797 1137.77 645.997 1151.17 644.097C1191.27 638.497 1244.27 623.497 1261.97 620.897C1263.47 620.697 1269.47 619.697 1274.47 619.897C1276.27 619.897 1277.97 620.097 1279.17 620.597C1280.07 620.897 1280.77 621.297 1280.87 621.997C1280.97 622.397 1280.57 622.697 1280.17 623.097C1279.47 623.697 1278.57 624.197 1277.47 624.697C1274.37 626.097 1270.37 627.197 1269.37 627.497C1248.77 634.597 1227.17 640.297 1205.37 644.697C1183.57 649.097 1161.47 652.297 1139.77 654.197C1137.67 654.397 1131.67 654.597 1128.17 656.297C1126.07 657.397 1124.87 658.897 1125.17 661.197C1125.67 664.897 1128.57 667.297 1133.27 668.497C1138.97 669.997 1147.47 669.797 1157.87 668.497C1198.27 663.397 1266.07 640.797 1292.87 635.797C1294.97 635.397 1300.17 633.997 1304.47 633.897C1306.07 633.897 1307.67 633.997 1308.77 634.497C1309.57 634.797 1310.17 635.297 1310.37 636.097C1310.57 636.797 1310.17 637.397 1309.57 637.997C1308.67 638.897 1307.37 639.797 1305.77 640.597C1301.47 642.897 1295.87 644.697 1294.47 645.297C1270.67 654.397 1244.37 662.797 1217.57 668.697C1190.77 674.697 1163.57 678.197 1137.87 677.597C1135.37 677.497 1128.07 676.997 1123.47 678.497C1120.67 679.397 1118.87 680.997 1118.77 683.397C1118.67 687.897 1122.67 690.497 1129.07 691.397C1142.27 693.397 1165.57 689.197 1175.87 688.697C1177.27 688.597 1178.47 688.597 1179.27 688.697C1179.87 688.897 1180.17 688.997 1180.37 689.097Z" fill="#1D1D1D"/>
<path fill-rule="evenodd" clip-rule="evenodd" d="M1331.67 793.598C1283.47 785.398 1206.67 800.698 1152.47 802.098C1134.67 802.598 1119.37 801.498 1108.37 797.598C1107.87 797.398 1107.27 797.698 1107.07 798.198C1106.87 798.698 1107.17 799.298 1107.67 799.498C1118.87 803.498 1134.37 804.598 1152.47 804.098C1206.47 802.698 1283.17 787.298 1331.27 795.498C1331.77 795.598 1332.37 795.198 1332.47 794.698C1332.57 794.198 1332.17 793.698 1331.67 793.598Z" fill="#1D1D1D"/>
<path fill-rule="evenodd" clip-rule="evenodd" d="M1232.27 594.098C1227.87 594.098 1223.47 591.598 1219.57 588.198C1212.87 582.498 1207.47 574.198 1205.57 571.098C1201.47 564.198 1198.97 560.498 1196.67 555.898C1195.27 552.998 1193.77 549.798 1192.07 545.098C1184.37 525.098 1184.47 498.598 1188.37 474.198C1191.37 455.698 1196.57 438.398 1202.37 425.998C1206.27 417.598 1210.47 411.498 1214.37 408.898C1214.87 408.598 1214.97 407.998 1214.67 407.498C1214.37 406.998 1213.77 406.898 1213.27 407.198C1209.17 409.898 1204.67 416.298 1200.57 425.098C1194.77 437.598 1189.47 455.098 1186.37 473.798C1182.37 498.598 1182.37 525.398 1190.17 545.698C1191.97 550.398 1193.37 553.698 1194.87 556.598C1197.27 561.298 1199.67 565.098 1203.87 571.998C1205.87 575.198 1211.47 583.698 1218.27 589.598C1222.57 593.298 1227.47 595.998 1232.27 595.998C1232.87 595.998 1233.27 595.498 1233.27 594.998C1233.27 594.498 1232.87 594.098 1232.27 594.098Z" fill="#1D1D1D"/>
<path d="M1202.17 1397.3C1202.07 1397.3 1203.67 1398.2 1203.97 1398.3C1220.87 1403.2 1239.67 1403.6 1257.07 1403.6C1295.87 1403.5 1332.07 1396.3 1368.77 1384.1" stroke="#1D1D1D" stroke-width="4" stroke-miterlimit="10" stroke-linecap="round" stroke-linejoin="round"/>
<path fill-rule="evenodd" clip-rule="evenodd" d="M1141.07 617.397C1140.07 615.298 1139.87 612.598 1139.97 609.498C1140.27 602.698 1142.47 594.598 1142.37 589.598C1142.07 576.198 1140.17 565.198 1136.97 554.498C1133.77 543.798 1129.17 533.498 1123.77 521.598C1123.57 521.098 1122.97 520.898 1122.47 521.098C1121.97 521.298 1121.77 521.898 1121.97 522.398C1127.37 534.198 1131.87 544.398 1135.07 554.998C1138.27 565.498 1140.17 576.298 1140.47 589.498C1140.57 594.398 1138.47 602.498 1138.07 609.198C1137.87 612.598 1138.17 615.798 1139.37 618.098C1139.57 618.598 1140.27 618.798 1140.67 618.598C1141.07 618.498 1141.27 617.897 1141.07 617.397Z" fill="#1D1D1D"/>
<path fill-rule="evenodd" clip-rule="evenodd" d="M1232.27 596.098C1234.27 596.198 1237.27 595.298 1240.47 594.098C1244.47 592.498 1248.77 590.198 1251.37 588.398C1262.47 580.498 1268.97 570.398 1272.67 559.198C1278.07 542.398 1276.87 523.198 1273.97 505.098C1273.37 501.298 1272.87 496.898 1272.07 492.698C1271.47 489.898 1270.77 487.098 1269.77 484.498C1269.17 482.898 1268.47 477.998 1267.57 474.898C1267.27 473.698 1266.87 472.798 1266.47 472.298C1266.17 471.898 1265.57 471.798 1265.07 472.098C1264.67 472.398 1264.57 473.098 1264.87 473.498C1265.27 474.098 1265.57 475.198 1265.97 476.598C1266.67 479.698 1267.37 483.698 1267.87 485.198C1268.87 487.698 1269.47 490.398 1270.07 493.098C1270.87 497.298 1271.37 501.598 1271.97 505.398C1274.77 523.198 1276.07 542.098 1270.67 558.598C1267.17 569.398 1260.77 579.098 1250.17 586.798C1247.67 588.598 1243.57 590.798 1239.67 592.298C1236.77 593.398 1234.07 594.198 1232.27 594.198C1231.67 594.198 1231.27 594.598 1231.27 595.198C1231.27 595.798 1231.77 596.098 1232.27 596.098Z" fill="#1D1D1D"/>
<path fill-rule="evenodd" clip-rule="evenodd" d="M296.474 1398C296.574 1398 297.674 1397.1 299.174 1396.4C303.574 1394.3 313.174 1391 332.674 1386.4C346.374 1383.2 365.074 1379.4 390.174 1375.1C439.974 1366.6 487.874 1364.4 535.374 1367.1C583.074 1369.8 630.574 1377.3 679.474 1388.2C679.974 1388.3 680.574 1388 680.674 1387.4C680.774 1386.9 680.474 1386.3 679.874 1386.2C630.774 1375.3 583.274 1367.7 535.474 1365C487.774 1362.3 439.774 1364.5 389.774 1373C358.274 1378.4 336.874 1383 322.574 1386.6C307.874 1390.4 300.574 1393.2 297.274 1394.9C295.874 1395.6 295.074 1396.2 294.774 1396.6C294.574 1396.9 294.474 1397.1 294.374 1397.3C294.274 1397.8 294.674 1398.4 295.174 1398.4C295.874 1398.7 296.374 1398.4 296.474 1398Z" fill="#1D1D1D"/>
<path d="M991.074 1323.1C1001.97 1324 912.775 1317 901.175 1323.1C881.075 1333.7 979.874 1329.9 993.074 1337.8C994.274 1338.5 987.075 1339.8 986.475 1339.9C975.975 1341.8 932.474 1347.9 933.074 1352.5C934.174 1360.1 987.675 1356.2 998.375 1356" stroke="#1D1D1D" stroke-width="4" stroke-miterlimit="10" stroke-linecap="round" stroke-linejoin="round"/>
<path d="M1095.27 1321C1093.87 1321.2 1098.07 1320.7 1099.57 1320.7C1102.47 1320.5 1105.37 1320.5 1108.17 1320.7C1113.97 1321 1123.97 1321.6 1128.47 1324.8C1133.27 1328.3 1094.77 1335.5 1095.07 1338.9C1095.37 1342.5 1128.57 1340.9 1130.57 1348.2C1132.87 1357.1 1107.17 1356.5 1104.87 1357.3" stroke="#1D1D1D" stroke-width="4" stroke-miterlimit="10" stroke-linecap="round" stroke-linejoin="round"/>
<path fill-rule="evenodd" clip-rule="evenodd" d="M985.574 1393.7C1006.17 1392.3 1016.17 1377.3 1023.57 1367.3C1040.27 1344.8 1055.57 1313.4 1048.57 1284.9C1045.27 1271.4 1010.07 1252.9 1011.47 1271C1012.17 1279.3 1035.67 1258.6 1022.07 1290.1C1018.57 1298.3 1005.77 1296.4 1001.17 1295.5C965.675 1288.6 994.174 1245.7 1022.07 1247.2C1085.67 1250.7 1090.67 1364.7 1059.07 1393.8" fill="#F7F2EE"/>
<path fill-rule="evenodd" clip-rule="evenodd" d="M985.574 1397.7C993.174 1397.2 999.674 1392.9 1004.87 1389.7C1014.27 1383.9 1020.37 1375.2 1025.27 1368.5C1035.37 1354.9 1044.97 1338 1049.57 1320.5C1052.67 1308.5 1053.57 1296.2 1050.67 1284.4C1048.77 1276.7 1037.37 1267.4 1027.27 1263.5C1020.57 1260.9 1014.57 1260.9 1011.57 1264C1010.17 1265.5 1009.27 1267.9 1009.57 1271.2C1009.87 1275.1 1013.17 1275.7 1017.47 1274.8C1018.97 1274.5 1020.67 1274 1022.17 1273.9C1023.07 1273.8 1023.97 1273.8 1024.27 1274.6C1024.97 1276.8 1023.97 1281 1020.37 1289.3C1019.27 1291.8 1017.07 1293.1 1014.67 1293.7C1009.97 1294.9 1004.37 1294 1001.67 1293.5C995.574 1292.3 991.474 1290.1 989.174 1287C986.374 1283.3 986.174 1278.6 987.774 1273.7C991.774 1261.3 1007.07 1248.3 1022.17 1249.1C1046.77 1250.4 1062.17 1269 1070.07 1292.5C1081.97 1328.1 1073.97 1376.6 1055.37 1393.7C1054.57 1394.4 1057.07 1394.2 1057.87 1395.1C1058.57 1395.9 1061.67 1397.3 1062.47 1396.4C1078.37 1378.6 1086.27 1328.3 1073.87 1291.2C1065.47 1266.1 1048.77 1246.5 1022.47 1245.1C1005.67 1244.2 988.574 1258.6 984.074 1272.4C982.074 1278.6 982.474 1284.6 986.174 1289.4C988.974 1293 993.774 1296 1001.07 1297.4C1004.17 1298 1010.57 1299 1015.87 1297.5C1019.47 1296.5 1022.67 1294.5 1024.27 1290.8C1028.47 1281.1 1029.17 1275.9 1028.27 1273.3C1027.57 1271.2 1026.17 1270.2 1024.27 1269.9C1022.67 1269.6 1020.57 1270 1018.47 1270.4C1017.37 1270.6 1016.27 1270.9 1015.37 1271C1014.97 1271.1 1014.57 1271.1 1014.27 1271.1C1014.07 1271.1 1013.87 1271 1013.87 1270.8C1013.37 1264.1 1019.47 1264.5 1026.07 1267.1C1034.97 1270.6 1045.37 1278.5 1046.97 1285.3C1049.67 1296.5 1048.87 1308.1 1045.87 1319.5C1041.37 1336.5 1032.07 1352.9 1022.27 1366.1C1018.27 1371.5 1013.57 1378.3 1006.77 1383.6C1001.37 1387.8 994.174 1389.2 985.274 1389.8C984.174 1389.9 983.774 1392.7 983.874 1393.8C983.674 1394.9 984.374 1397.8 985.574 1397.7Z" fill="#1D1D1D"/>
<path fill-rule="evenodd" clip-rule="evenodd" d="M964.175 1293.8C963.875 1293.8 963.574 1293.9 963.274 1294.1C957.974 1297.7 958.175 1300.6 962.975 1298.7C963.075 1298.6 963.275 1298.6 963.375 1298.5C964.175 1298.2 964.975 1297.8 965.975 1297.2C969.375 1295.3 979.174 1289.5 982.074 1287.9C983.074 1287.4 983.375 1286.2 982.875 1285.2C982.375 1284.2 981.175 1283.9 980.175 1284.4C977.275 1286.1 967.575 1291.9 964.175 1293.8Z" fill="#1D1D1D"/>
<path fill-rule="evenodd" clip-rule="evenodd" d="M1022.67 1267.6C1065.77 1253.7 1135.07 1276.4 1188.87 1276C1216.67 1275.8 1240.47 1269.5 1254.77 1249.6C1255.47 1248.7 1255.17 1247.5 1254.37 1246.8C1253.47 1246.2 1252.27 1246.4 1251.57 1247.2C1237.97 1266 1215.27 1271.7 1188.87 1271.9C1134.67 1272.3 1064.87 1249.7 1021.47 1263.7C1020.37 1264 1019.87 1265.2 1020.17 1266.2C1020.47 1267.4 1021.57 1268 1022.67 1267.6Z" fill="#1D1D1D"/>
<path fill-rule="evenodd" clip-rule="evenodd" d="M1253.57 1247.4C1253.67 1247.4 1253.27 1248 1253.17 1248.1C1249.07 1252.1 1238.57 1252.3 1233.37 1252.7C1222.27 1253.6 1192.77 1249.8 1197.37 1232.3C1201.67 1216 1224.77 1221.9 1234.37 1228.8C1237.97 1231.4 1241.27 1234.4 1244.57 1237.3C1246.77 1239.2 1251.47 1246.2 1250.67 1243.4C1249.17 1237.4 1201.77 1192.6 1236.37 1186.9C1258.27 1183.3 1262.77 1213.4 1259.27 1228.5C1259.07 1229.1 1258.57 1232.8 1257.57 1232.9C1256.27 1233 1256.67 1215.3 1256.77 1214.2C1257.57 1199.8 1263.17 1166.3 1285.07 1171.8C1308.97 1177.8 1290.17 1209.5 1281.07 1219.5C1280.37 1220.3 1268.77 1232.3 1268.47 1231.5C1265.57 1223.7 1309.47 1182.6 1324.47 1205.3C1338.07 1225.8 1302.07 1241.2 1287.57 1243.5C1286.47 1243.7 1278.87 1245 1278.47 1243.1C1278.17 1241.6 1283.77 1240.3 1284.57 1240.1C1296.47 1236.9 1339.97 1235.9 1331.07 1259.5C1322.87 1281.2 1271.97 1271.2 1272.57 1257.6C1272.67 1254.2 1283.07 1262 1283.57 1262.5C1290.47 1268.7 1307.47 1290 1294.67 1298.3C1279.77 1308 1255.77 1270.3 1264.37 1261.7C1264.57 1261.5 1265.27 1263.5 1265.27 1263.5C1268.57 1274.7 1265.97 1305.6 1248.87 1304.2C1229.87 1302.6 1244.87 1269.4 1252.27 1262.1" fill="#F7F2EE"/>
<path fill-rule="evenodd" clip-rule="evenodd" d="M1286.77 1210.5C1280.87 1215 1275.67 1220.1 1272.57 1224.4C1271.17 1226.3 1270.17 1228 1269.77 1229.4C1269.77 1229.5 1269.67 1229.6 1269.67 1229.7C1272.97 1226.8 1279.97 1219.6 1280.47 1218.9C1282.27 1216.9 1284.57 1213.9 1286.77 1210.5ZM1258.47 1207.9C1258.17 1210.3 1257.97 1212.5 1257.87 1214.4C1257.77 1215.2 1257.57 1224.9 1257.97 1229.9C1258.17 1229.2 1258.37 1228.5 1258.37 1228.3C1259.67 1222.7 1259.87 1215.1 1258.47 1207.9ZM1298.67 1239.6C1292.97 1239.8 1287.97 1240.4 1284.97 1241.2C1284.57 1241.3 1282.87 1241.7 1281.37 1242.3C1280.87 1242.5 1280.27 1242.9 1279.87 1243.1H1279.97C1280.77 1243.3 1281.87 1243.3 1282.97 1243.2C1284.97 1243.1 1287.07 1242.7 1287.57 1242.6C1290.47 1242.1 1294.47 1241.1 1298.67 1239.6ZM1252.57 1247.6C1252.57 1247.7 1252.57 1247.7 1252.67 1247.8C1252.77 1248 1252.87 1248.1 1253.07 1248.2C1252.77 1248.1 1252.67 1247.9 1252.57 1247.6ZM1253.27 1248.3C1253.47 1248.3 1253.67 1248.4 1253.97 1248.2C1253.77 1248.4 1253.47 1248.4 1253.27 1248.3ZM1273.67 1257.9C1273.67 1260.5 1275.77 1262.8 1278.97 1264.9C1281.47 1266.5 1284.67 1267.8 1288.17 1268.9C1286.27 1266.6 1284.37 1264.6 1282.97 1263.4C1282.77 1263.2 1280.27 1261.3 1277.77 1259.8C1276.57 1259.1 1275.37 1258.5 1274.47 1258.1C1274.27 1258 1273.87 1257.9 1273.67 1257.9ZM1264.37 1263.7C1263.57 1265.2 1263.57 1267.3 1263.97 1269.6C1264.27 1271.5 1264.87 1273.5 1265.67 1275.6C1265.77 1271 1265.37 1266.8 1264.47 1263.9L1264.37 1263.7ZM1257.87 1199.1C1257.37 1197.8 1256.67 1196.6 1256.07 1195.4C1252.07 1188.6 1245.67 1184.3 1236.27 1185.8C1230.07 1186.8 1226.37 1189.1 1224.47 1192.1C1222.87 1194.6 1222.47 1197.7 1223.07 1201.2C1224.77 1210.7 1233.77 1222.8 1240.97 1231.8C1241.87 1232.9 1242.67 1233.9 1243.47 1234.9C1242.07 1233.7 1240.67 1232.4 1239.27 1231.2C1237.87 1230 1236.47 1228.9 1234.97 1227.9C1229.07 1223.7 1218.37 1219.9 1209.77 1220.9C1203.57 1221.6 1198.37 1224.8 1196.47 1231.9C1194.37 1239.7 1198.57 1245 1205.07 1248.4C1213.77 1253 1226.77 1254.1 1233.47 1253.5C1236.57 1253.3 1241.57 1253.1 1245.87 1252.1C1249.07 1251.4 1252.07 1250.3 1253.87 1248.6C1253.97 1248.5 1254.37 1247.9 1254.47 1247.7C1254.87 1246.9 1254.07 1246.3 1253.97 1246.3C1253.77 1246.2 1253.57 1246.2 1253.17 1246.3C1252.87 1246.4 1252.77 1246.6 1252.67 1246.9L1252.47 1247.2C1250.87 1248.7 1248.37 1249.6 1245.57 1250.2C1241.27 1251.1 1236.47 1251.3 1233.37 1251.5C1226.97 1252 1214.47 1251 1206.07 1246.6C1200.37 1243.6 1196.67 1239.1 1198.47 1232.4C1200.07 1226.2 1204.67 1223.5 1210.07 1222.8C1218.27 1221.8 1228.37 1225.5 1233.87 1229.4C1235.27 1230.4 1236.67 1231.5 1238.07 1232.6C1240.07 1234.3 1242.07 1236.1 1244.07 1237.8C1245.77 1239.3 1248.97 1243.8 1250.07 1244.5C1250.57 1244.8 1250.97 1244.8 1251.17 1244.7C1251.47 1244.6 1252.17 1244.1 1251.87 1242.9C1251.47 1241.2 1247.57 1236.4 1242.67 1230.4C1235.67 1221.6 1226.77 1209.9 1225.17 1200.7C1224.67 1197.8 1224.87 1195.2 1226.27 1193.1C1227.97 1190.5 1231.27 1188.6 1236.77 1187.7C1245.17 1186.3 1250.87 1190.2 1254.47 1196.3C1255.57 1198.3 1256.57 1200.4 1257.27 1202.7C1256.57 1207 1256.17 1210.9 1255.97 1214C1255.87 1214.9 1255.67 1226.7 1256.27 1231.1C1256.37 1232.2 1256.67 1233 1256.97 1233.3C1257.27 1233.7 1257.67 1233.8 1257.97 1233.7C1258.47 1233.7 1259.07 1233.3 1259.37 1232.5C1259.97 1231.3 1260.37 1229 1260.47 1228.5C1262.07 1221.5 1261.97 1211.2 1259.27 1202.5C1260.57 1195.3 1262.77 1187.2 1266.57 1181.1C1270.67 1174.6 1276.47 1170.4 1284.97 1172.6C1294.17 1174.9 1296.57 1181.3 1295.67 1188.7C1294.97 1194.3 1292.37 1200.5 1289.37 1205.9C1281.67 1211.1 1274.87 1217.6 1270.97 1222.9C1269.47 1225 1268.37 1226.9 1267.87 1228.4C1267.47 1229.7 1267.37 1230.8 1267.67 1231.6C1267.87 1232.1 1268.27 1232.5 1269.07 1232.2C1269.37 1232.1 1269.87 1231.7 1270.67 1231.1C1273.87 1228.3 1281.37 1220.6 1281.97 1219.9C1284.57 1217.1 1287.87 1212.5 1290.87 1207.2C1293.47 1205.4 1296.27 1203.9 1298.97 1202.6C1308.57 1198.1 1318.27 1197.2 1323.77 1205.6C1329.07 1213.6 1326.27 1220.8 1320.27 1226.6C1315.87 1230.9 1309.67 1234.5 1303.67 1237.2C1295.87 1237 1288.47 1237.8 1284.47 1238.9C1283.77 1239.1 1280.37 1239.9 1278.77 1240.9C1277.87 1241.5 1277.47 1242.3 1277.57 1243.1C1277.77 1243.9 1278.57 1244.6 1279.97 1244.8C1282.47 1245.2 1286.97 1244.4 1287.77 1244.3C1291.97 1243.6 1297.87 1241.9 1303.97 1239.3C1309.67 1239.5 1315.57 1240.2 1320.57 1241.9C1325.57 1243.6 1329.47 1246.2 1330.87 1250.2C1331.67 1252.6 1331.57 1255.5 1330.27 1259.1C1326.57 1268.9 1313.97 1271.8 1301.57 1271C1298.17 1270.8 1294.67 1270.3 1291.47 1269.5C1288.87 1266.1 1286.27 1263.3 1284.37 1261.6C1283.97 1261.2 1278.27 1257 1275.07 1255.9C1272.97 1255.2 1271.77 1255.8 1271.67 1257.4C1271.57 1260.6 1273.87 1263.7 1277.97 1266.3C1281.17 1268.3 1285.47 1270 1290.27 1271.2C1293.07 1274.9 1295.67 1279.1 1297.17 1283.3C1299.17 1288.8 1299.07 1294.1 1294.17 1297.3C1291.17 1299.3 1287.67 1299 1284.27 1297.5C1279.87 1295.5 1275.57 1291.5 1271.97 1286.7C1270.17 1284.3 1268.57 1281.8 1267.27 1279.2C1267.77 1272.9 1267.37 1266.9 1266.27 1263.1C1266.27 1263 1265.67 1261.6 1265.37 1261.1C1264.77 1260.2 1263.97 1260.5 1263.67 1260.8C1261.77 1262.7 1261.17 1265.9 1261.77 1269.7C1262.27 1272.7 1263.47 1276.2 1265.17 1279.6C1264.77 1284 1263.87 1288.4 1262.37 1292.3C1259.87 1298.8 1255.57 1303.6 1248.97 1303C1241.47 1302.4 1239.97 1296.3 1240.97 1289.1C1242.37 1279 1248.87 1266.6 1253.07 1262.5C1253.47 1262.1 1253.47 1261.5 1253.07 1261.1C1252.67 1260.7 1252.07 1260.7 1251.67 1261.1C1247.37 1265.4 1240.57 1278.2 1239.07 1288.8C1237.87 1297.2 1240.07 1304.2 1248.87 1304.9C1256.47 1305.5 1261.47 1300.2 1264.37 1292.9C1265.57 1289.7 1266.47 1286.1 1266.97 1282.5C1268.07 1284.3 1269.17 1286.1 1270.47 1287.7C1274.27 1292.7 1278.87 1297 1283.57 1299.1C1287.67 1300.9 1291.77 1301.1 1295.37 1298.8C1301.17 1295 1301.47 1288.9 1299.17 1282.5C1297.87 1278.8 1295.67 1275.1 1293.37 1271.7C1296.07 1272.2 1298.77 1272.6 1301.57 1272.8C1314.87 1273.6 1328.37 1270.1 1332.27 1259.6C1333.77 1255.6 1333.87 1252.2 1332.87 1249.4C1331.27 1244.8 1326.97 1241.8 1321.27 1239.9C1317.27 1238.5 1312.57 1237.8 1307.87 1237.4C1312.97 1234.9 1317.97 1231.7 1321.67 1228C1328.37 1221.5 1331.37 1213.4 1325.37 1204.4C1319.27 1195.2 1308.67 1195.8 1298.07 1200.7C1296.27 1201.5 1294.47 1202.5 1292.67 1203.6C1295.07 1198.8 1296.97 1193.6 1297.57 1188.8C1298.67 1180.4 1295.87 1173.1 1285.37 1170.5C1275.87 1168.1 1269.27 1172.7 1264.77 1179.9C1261.47 1185.7 1259.27 1192.6 1257.87 1199.1Z" fill="#1D1D1D"/>
<path fill-rule="evenodd" clip-rule="evenodd" d="M1259.27 1238.8C1259.57 1239 1258.57 1238.8 1258.27 1239C1254.87 1241.1 1253.57 1245.9 1253.27 1249.6C1252.87 1255.5 1255.87 1262.2 1262.87 1261.5C1289.37 1259 1269.57 1225.2 1256.47 1238.4" fill="#1D1D1D"/>
<path fill-rule="evenodd" clip-rule="evenodd" d="M1258.47 1239.4C1258.47 1239.4 1258.47 1239.5 1258.47 1239.4V1239.4ZM1258.67 1239.9C1257.47 1240.7 1256.67 1241.8 1255.97 1243.1C1254.87 1245.2 1254.37 1247.6 1254.27 1249.7C1254.07 1252.4 1254.67 1255.3 1256.07 1257.5C1257.47 1259.6 1259.67 1260.9 1262.67 1260.6C1267.67 1260.1 1270.87 1258.5 1272.77 1256.3C1275.17 1253.4 1275.27 1249.4 1273.97 1245.9C1271.57 1239.3 1264.47 1233.6 1258.37 1238.1C1258.47 1238.1 1258.57 1238.1 1258.67 1238.1C1259.07 1237.9 1259.47 1237.9 1259.87 1238.2C1260.27 1238.6 1260.27 1238.9 1260.27 1239.2C1260.27 1239.5 1260.07 1239.8 1259.77 1240C1259.67 1240.1 1259.57 1240.1 1259.37 1240.1C1259.17 1239.9 1258.77 1239.9 1258.67 1239.9ZM1256.17 1239.4C1255.37 1240.2 1254.77 1241.1 1254.17 1242.2C1252.97 1244.5 1252.37 1247.3 1252.27 1249.6C1252.07 1252.8 1252.77 1256.1 1254.47 1258.6C1256.27 1261.2 1259.07 1262.9 1262.97 1262.6C1268.67 1262.1 1272.27 1260.1 1274.47 1257.6C1277.37 1254.1 1277.57 1249.5 1276.07 1245.2C1273.07 1236.8 1263.37 1230.2 1255.77 1237.8C1255.37 1238.2 1255.37 1238.8 1255.77 1239.2C1255.77 1239.3 1255.97 1239.4 1256.17 1239.4Z" fill="#1D1D1D"/>
<path fill-rule="evenodd" clip-rule="evenodd" d="M961.575 1174.4C961.675 1174.5 962.875 1187.8 962.675 1187.8C949.275 1184.1 942.875 1177.9 941.975 1172.5C941.175 1167.3 951.675 1166.6 958.675 1165.5C969.975 1163.7 1047.47 1165.4 1048.67 1173.1C1050.17 1182.5 974.475 1173.3 961.575 1174.4C959.275 1174.6 970.575 1177 972.375 1179.2C979.275 1187.3 1001.57 1189.5 1044.47 1187.2C1049.67 1186.9 1076.57 1184.1 1076.97 1191C1077.87 1204.6 1034.27 1190.8 1034.87 1197.2C1035.67 1205.8 1085.27 1208.3 1089.87 1213.1C1093.97 1217.4 1019.57 1216.7 1015.97 1216.4C876.675 1207.3 957.975 1196.3 1004.17 1202.5C1022.97 1205 962.174 1188.2 962.774 1187.7" fill="#1D1D1D"/>
<path d="M961.575 1174.4C961.675 1174.5 962.875 1187.8 962.675 1187.8C949.275 1184.1 942.875 1177.9 941.975 1172.5C941.175 1167.3 951.675 1166.6 958.675 1165.5C969.975 1163.7 1047.47 1165.4 1048.67 1173.1C1050.17 1182.5 974.475 1173.3 961.575 1174.4ZM961.575 1174.4C959.275 1174.6 970.575 1177 972.375 1179.2C979.275 1187.3 1001.57 1189.5 1044.47 1187.2C1049.67 1186.9 1076.57 1184.1 1076.97 1191C1077.87 1204.6 1034.27 1190.8 1034.87 1197.2C1035.67 1205.8 1085.27 1208.3 1089.87 1213.1C1093.97 1217.4 1019.57 1216.7 1015.97 1216.4C876.675 1207.3 957.975 1196.3 1004.17 1202.5C1022.97 1205 962.174 1188.2 962.774 1187.7" stroke="#1D1D1D" stroke-width="4" stroke-miterlimit="10" stroke-linecap="round" stroke-linejoin="round"/>
</svg>
