<svg width="1500" height="1500" viewBox="0 0 1500 1500" fill="none" xmlns="http://www.w3.org/2000/svg">
<rect width="1500" height="1500" fill="#F7F2EE"/>
<path fill-rule="evenodd" clip-rule="evenodd" d="M256.6 260.2C255.8 259.6 254.9 264.9 254.9 265C252.3 282.9 250.9 301 248.7 319C246.9 333.3 237.8 398.6 235.8 410.5C232.7 429.5 240.6 431 240.8 431.2C273.4 454.5 427.3 464.5 447.4 464.8C479.1 465.1 492 466.8 494.2 439.7C495.4 425.5 504.3 324.3 505.8 300.4C508.3 259.7 488 273.4 447.7 271.2C385.6 267.8 323.2 268.2 261.4 264" fill="#FF8524"/>
<path d="M256.6 260.2C255.8 259.6 254.9 264.9 254.9 265C252.3 282.9 250.9 301 248.7 319C246.9 333.3 237.8 398.6 235.8 410.5C232.7 429.5 240.6 431 240.8 431.2C273.4 454.5 427.3 464.5 447.4 464.8C479.1 465.1 492 466.8 494.2 439.7C495.4 425.5 504.3 324.3 505.8 300.4C508.3 259.7 488 273.4 447.7 271.2C385.6 267.8 323.2 268.2 261.4 264" stroke="#1D1D1D" stroke-width="8" stroke-miterlimit="10" stroke-linecap="round" stroke-linejoin="round"/>
<path d="M257.6 301.3C257.6 301.6 268.9 304 275.9 304.8C313.6 309.3 352.1 313.5 390.1 314C425.6 314.4 463.2 309.7 498.4 316.2" stroke="#1D1D1D" stroke-width="8" stroke-miterlimit="10" stroke-linecap="round" stroke-linejoin="round"/>
<path opacity="0.9116" fill-rule="evenodd" clip-rule="evenodd" d="M326.8 271.9C322.8 289.3 297.1 309.7 326.3 313.1C348.2 315.6 353.2 293 356.7 274.2" fill="#F7F2EE"/>
<path d="M326.8 271.9C322.8 289.3 297.1 309.7 326.3 313.1C348.2 315.6 353.2 293 356.7 274.2" stroke="#1D1D1D" stroke-width="4" stroke-miterlimit="10" stroke-linecap="round" stroke-linejoin="round"/>
<path opacity="0.9116" fill-rule="evenodd" clip-rule="evenodd" d="M399.5 272.8C396.9 274.1 393.2 288.4 392 290.8C385.7 304.1 374.8 313.8 393.9 315.9C408 317.5 413 297.7 419.1 287.4C421.1 284.1 423.2 280.8 425 277.4C425.9 275.7 428.4 270.4 428 272.4" fill="#F7F2EE"/>
<path d="M399.5 272.8C396.9 274.1 393.2 288.4 392 290.8C385.7 304.1 374.8 313.8 393.9 315.9C408 317.5 413 297.7 419.1 287.4C421.1 284.1 423.2 280.8 425 277.4C425.9 275.7 428.4 270.4 428 272.4" stroke="#1D1D1D" stroke-width="4" stroke-miterlimit="10" stroke-linecap="round" stroke-linejoin="round"/>
<path d="M260.1 228.2C260.2 228.2 262.5 231 262.7 231.2C270.1 239.4 276.8 248 282.8 257.2C283.2 257.8 284.6 261.4 285.5 261C304.8 253.8 485.3 181.7 492 182.9" stroke="#1D1D1D" stroke-width="8" stroke-miterlimit="10" stroke-linecap="round" stroke-linejoin="round"/>
<path d="M258.7 226.6C259 226.8 447 146.1 466.8 149.8C475.8 151.5 486.5 168.2 493 174.3" stroke="#1D1D1D" stroke-width="8" stroke-miterlimit="10" stroke-linecap="round" stroke-linejoin="round"/>
<path opacity="0.9116" fill-rule="evenodd" clip-rule="evenodd" d="M466.8 271.3C466.9 271.5 466.3 271.3 466.1 271.5C459.3 277.4 455.6 291.4 451.2 299.1C450.6 300.2 443.3 310.3 444.7 311.3C468.3 327.8 485.6 297.6 492.5 278.8" fill="#F7F2EE"/>
<path d="M466.8 271.3C466.9 271.5 466.3 271.3 466.1 271.5C459.3 277.4 455.6 291.4 451.2 299.1C450.6 300.2 443.3 310.3 444.7 311.3C468.3 327.8 485.6 297.6 492.5 278.8" stroke="#1D1D1D" stroke-width="4" stroke-miterlimit="10" stroke-linecap="round" stroke-linejoin="round"/>
<path d="M584.7 175.7C585 175.8 580.6 184.3 580.4 184.6C573.4 195.8 563.1 206 552.3 214.4C550.1 216.2 545.1 219.1 545.1 219.1C545.1 219.1 548.2 220.8 549.6 221.8C562.6 231 563.5 247.3 564.8 260.9C564.8 261.3 564.7 263.1 565.3 263.3C565.9 263.6 567.9 258.2 568.1 257.8C571.2 252.2 574.7 246.6 578.3 241.3C583 234.6 588.5 228.5 595.5 223.6C604.4 217.4 595.5 216.7 590.6 207.6C585.9 198.9 585 189 585 179.5" stroke="#1D1D1D" stroke-width="4" stroke-miterlimit="10" stroke-linecap="round" stroke-linejoin="round"/>
<path d="M185.9 343C187.5 341.4 182.2 348.3 181.6 350.5C180.5 354.6 164.7 368.5 166.3 370.3C167.8 372.1 177.6 396.9 178 395.1C178.8 391.1 192.2 375.3 196.3 370.3C196.4 370.2 194.9 367.5 194.8 367.5C190.7 364.7 187.7 347.3 185.9 343Z" stroke="#1D1D1D" stroke-width="4" stroke-miterlimit="10" stroke-linecap="round" stroke-linejoin="round"/>
<path opacity="0.9116" fill-rule="evenodd" clip-rule="evenodd" d="M287.6 214.8C286.5 218.1 297.9 226.7 299.6 228.4C311.7 240.8 310.8 248.5 326.3 241.5C331.1 239.3 337.4 238.2 341.6 235C345.9 231.7 320.4 209.2 317.7 203" fill="black"/>
<path d="M287.6 214.8C286.5 218.1 297.9 226.7 299.6 228.4C311.7 240.8 310.8 248.5 326.3 241.5C331.1 239.3 337.4 238.2 341.6 235C345.9 231.7 320.4 209.2 317.7 203" stroke="#1D1D1D" stroke-width="4" stroke-miterlimit="10" stroke-linecap="round" stroke-linejoin="round"/>
<path opacity="0.9116" fill-rule="evenodd" clip-rule="evenodd" d="M345.9 191.8C345.2 189.8 361.1 219.1 371.2 224.1C373.2 225.1 396.2 218.8 397.5 216.5C399.5 212.9 378.4 184.1 375.8 180.4" fill="black"/>
<path d="M345.9 191.8C345.2 189.8 361.1 219.1 371.2 224.1C373.2 225.1 396.2 218.8 397.5 216.5C399.5 212.9 378.4 184.1 375.8 180.4" stroke="#1D1D1D" stroke-width="4" stroke-miterlimit="10" stroke-linecap="round" stroke-linejoin="round"/>
<path opacity="0.9116" fill-rule="evenodd" clip-rule="evenodd" d="M402.9 169.9C409.6 176.1 430.7 202.6 433.6 202C463.5 196.1 442.7 173.7 428.4 161.2" fill="black"/>
<path d="M402.9 169.9C409.6 176.1 430.7 202.6 433.6 202C463.5 196.1 442.7 173.7 428.4 161.2" stroke="#1D1D1D" stroke-width="4" stroke-miterlimit="10" stroke-linecap="round" stroke-linejoin="round"/>
<path fill-rule="evenodd" clip-rule="evenodd" d="M343.1 346C343.7 345.2 342.4 348 342.3 349C341.5 353.7 340.9 358.5 340.3 363.2C338.7 376.6 336.6 390 335 403.4C335 403.8 334.6 405.6 335 405.9C341.1 410 401.5 380.1 405.9 372.8C406.9 371.1 401.6 368.6 400.8 368.1C391.6 362.8 356.1 348.9 343.1 346Z" fill="#F7F2EE"/>
<path d="M343.1 346C343.7 345.2 342.4 348 342.3 349C341.5 353.7 340.9 358.5 340.3 363.2C338.7 376.6 336.6 390 335 403.4C335 403.8 334.6 405.6 335 405.9C341.1 410 401.5 380.1 405.9 372.8C406.9 371.1 401.6 368.6 400.8 368.1C391.6 362.8 356.1 348.9 343.1 346Z" stroke="#F7F2EE" stroke-width="8" stroke-miterlimit="10" stroke-linecap="round" stroke-linejoin="round"/>
<path d="M258.5 227.3C258.6 227.4 258.4 228.4 258.4 228.4C256.1 242.5 256.3 257 254.2 271.1" stroke="#1D1D1D" stroke-width="8" stroke-miterlimit="10" stroke-linecap="round" stroke-linejoin="round"/>
<path d="M152.8 74.1C148.2 98.7 168.2 103.2 165.1 111.9C164.2 114.4 150.9 122.7 149.9 125.2C147 132.6 160.5 141.3 160.8 146.8C161.3 154.8 147.3 157.4 146.8 167C146.5 173.6 156.5 174.6 155.3 181C153.4 191 137.8 192.9 140.2 206.2C141.3 212.3 149.5 216.9 147.8 223.8C145.7 232.2 133.7 234 134.3 244.5C134.8 253.3 146.4 258.1 143.1 267.8C140 276.7 128.7 279.6 126.5 289.8C124.6 298.7 136.2 304.9 134.2 311.7C131.6 320.4 119.5 323.2 117.8 333.3C116.1 343.2 128.9 344.9 129.6 353.3C130.3 361 114 365.3 112.4 374.1C110.5 384.3 123.9 387.3 123.5 395.3C123.2 401.3 108.9 410 105.7 416C104.9 417.5 104.3 419 103.8 420.6C101 430.9 111.9 429 112.5 434.9C113.3 442.8 103.6 449.5 105.2 458.6C105.5 460.5 106.3 462.3 107.3 463.9C127.8 496.5 138.9 462.7 157.3 468.2C166.4 470.9 160.6 486.6 174.8 485.3C183.2 484.5 195.1 463.5 203.7 471.4C210.3 477.5 207.2 497.3 221.4 495.9C231.7 494.9 231.1 472 242 474.7C252.7 477.3 246.6 496.9 263.4 495.3C274.4 494.3 274.4 472.6 287.9 478.2C297.9 482.3 291.2 498.9 304.6 499.9C318.3 501 315.6 478.9 331.3 484.4C341.9 488.1 339.7 507.6 353.5 507.5C367.1 507.4 365.3 485.5 379.5 487.1C393.2 488.7 393.3 513.1 405.7 512.7C417 512.4 414.6 493.6 426.1 494C440.6 494.5 442.9 518.1 457.1 516.1C470.2 514.3 467 495.5 477.4 493.4C494.1 490 484.6 519.8 508.4 518.3C519.5 517.6 514.5 505.7 520.6 502.5C535 494.9 535.4 521.8 546.6 525.4C555.8 528.3 565.7 497.7 573.8 495C578.9 493.3 582.7 544.3 620.2 505.4C634 491.1 591.3 480.6 603 468.5C610.5 460.7 628.5 468.8 629.6 451.7C630.4 439.3 607.3 443.7 610.7 429.3C612.5 421.7 625.4 420 626.8 409.7C627.8 402.4 612.7 398.9 618 388.9C621.9 381.7 633.9 378.6 635.8 369.9C637.8 360.9 626.4 352.5 628.7 341.8C630.6 332.9 645.3 328.6 645.3 319.1C645.3 312 634.4 309.2 636.3 300.2C638.1 291.7 647.7 288.4 649 280.1C650.1 273.2 641 266.7 644.4 259.7C647.9 252.7 658.8 252.5 662.4 244.6C666.4 236.1 657.6 230.4 654.7 223.1C648 206.1 669 209.5 669.7 197C670.2 188.2 652.6 187.2 654.5 178.2C656.9 167.1 675.8 159.8 661.8 147.7C640.6 129.4 630 147.6 619.2 143.5C610.5 140.2 612.7 127 602.1 125.4C589.9 123.6 585.5 139.2 573.7 134.4C565.3 131 568 118 557 117.4C544.8 116.8 542.2 133.2 531.9 131.5C523.7 130.2 525.3 116.2 514.7 115C499.5 113.3 493.8 130.7 483.7 127.3C473.1 123.7 480.2 105.2 466 103C450.2 100.6 453.3 119.6 442.8 123.2C432.9 126.6 427.1 104 416.5 102.6C406.2 101.3 404.9 121.9 391.5 119C387.9 118.2 383.5 89.9 374.5 89.6C359.9 89.1 361.5 114.1 345.5 113.5C343.7 113.4 344.2 100.4 343.9 98.8C342.6 92.8 336.1 89.5 330.9 87.2C317.8 81.3 317.1 107.2 307.7 106.4C293.3 105.1 303.5 81.8 287.2 82C272.6 82.2 274.7 101.6 259.2 102.8C247.2 103.7 255 80.6 243.7 78.2C229.9 75.2 227.7 101 216.4 101C204.6 101.1 215.8 81.7 208.6 78.2C186.1 67.3 183.4 94.2 181.4 82.1C178.4 63.8 153.9 68.6 152.8 74.1Z" stroke="#1D1D1D" stroke-width="8" stroke-miterlimit="10" stroke-linecap="round" stroke-linejoin="round"/>
<path fill-rule="evenodd" clip-rule="evenodd" d="M496.7 1189C498.4 1187 490.2 1188.8 486.9 1188.9C466.2 1189.6 445.4 1190.5 424.7 1191.6C395.1 1193.1 262.1 1195.5 263.6 1248.7C263.9 1258.3 264.8 1282.1 280.2 1285.6C320.7 1295 393.9 1285.5 463.7 1272.7C529.7 1260.5 589.6 1250.1 610.5 1238.7C622.4 1232.2 629.9 1223.4 632.1 1213C633.7 1205.7 632 1197.4 623.4 1192.7C595.9 1177.6 543.2 1184.6 512 1188.6" fill="#00A54D"/>
<path d="M496.7 1189C498.4 1187 490.2 1188.8 486.9 1188.9C466.2 1189.6 445.4 1190.5 424.7 1191.6C395.1 1193.1 262.1 1195.5 263.6 1248.7C263.9 1258.3 264.8 1282.1 280.2 1285.6C320.7 1295 393.9 1285.5 463.7 1272.7C529.7 1260.5 589.6 1250.1 610.5 1238.7C622.4 1232.2 629.9 1223.4 632.1 1213C633.7 1205.7 632 1197.4 623.4 1192.7C595.9 1177.6 543.2 1184.6 512 1188.6" stroke="#1D1D1D" stroke-width="4" stroke-miterlimit="10" stroke-linecap="round" stroke-linejoin="round"/>
<path d="M532 866.8C534 880.1 529.8 896.3 523.4 908.8C522 911.4 528.5 911 530.8 912.3C536 915.1 539.8 921.6 542.9 926.2C543.5 927.1 549.1 939 549.3 939C549.4 939 549.4 934.4 549.5 934.2C550 923.9 552.1 913.8 555.8 904.1C556.9 901.1 563.4 896.8 560.3 895.5C548.2 890.5 534.1 891.5 533.3 874.1" stroke="#1D1D1D" stroke-width="4" stroke-miterlimit="10" stroke-linecap="round" stroke-linejoin="round"/>
<path fill-rule="evenodd" clip-rule="evenodd" d="M441.9 1279.2C349.9 1296 332.6 1282.5 325.9 1274.8C269.3 1208.7 293.2 1028.2 321.5 1018.7C322.9 1018.2 324.2 1019.9 325 1020.8C339.7 1035.3 366.2 1051.5 385.6 1058.7C481.9 1094.2 573.1 1095.4 586.3 1193.1C595.9 1263.9 591.8 1255.8 480.3 1273.8" fill="#F7F2EE"/>
<path d="M441.9 1279.2C349.9 1296 332.6 1282.5 325.9 1274.8C269.3 1208.7 293.2 1028.2 321.5 1018.7C322.9 1018.2 324.2 1019.9 325 1020.8C339.7 1035.3 366.2 1051.5 385.6 1058.7C481.9 1094.2 573.1 1095.4 586.3 1193.1C595.9 1263.9 591.8 1255.8 480.3 1273.8" stroke="#1D1D1D" stroke-width="8" stroke-miterlimit="10" stroke-linecap="round" stroke-linejoin="round"/>
<path d="M514.9 1105.1C515.2 1103.7 510.9 1107.8 510.7 1108.4C509.2 1111.6 508.3 1115.1 507.8 1118.7C506.3 1129.7 507.5 1141.2 510.8 1151.7C520.7 1183.6 547.4 1218.6 584 1216.2" stroke="#161616" stroke-width="4" stroke-miterlimit="10" stroke-linecap="round" stroke-linejoin="round"/>
<path fill-rule="evenodd" clip-rule="evenodd" d="M295.7 1102.6C296.1 1101.5 298 1102.5 299.2 1102.4C313.4 1100.7 327.7 1099.2 342 1097.2C350.2 1096 360.6 1092.3 369 1094.1C369.8 1094.3 371.1 1094.7 370.8 1095.8C367.5 1109 307 1109.4 302.3 1123.2C301.7 1124.8 303.4 1125.6 304.7 1125.9C317.4 1128.9 332.5 1121.7 345.5 1121.7C346.3 1121.7 348.2 1121.5 348.8 1122.2C349.9 1123.4 338.8 1127.5 338.1 1127.8C334 1129.4 306.2 1140.9 308.2 1146.8C310.1 1152.4 346.4 1142.1 346.9 1147.4C347.6 1155.6 295.4 1151.6 291.7 1165.7" fill="#1D1D1D"/>
<path d="M295.7 1102.6C296.1 1101.5 298 1102.5 299.2 1102.4C313.4 1100.7 327.7 1099.2 342 1097.2C350.2 1096 360.6 1092.3 369 1094.1C369.8 1094.3 371.1 1094.7 370.8 1095.8C367.5 1109 307 1109.4 302.3 1123.2C301.7 1124.8 303.4 1125.6 304.7 1125.9C317.4 1128.9 332.5 1121.7 345.5 1121.7C346.3 1121.7 348.2 1121.5 348.8 1122.2C349.9 1123.4 338.8 1127.5 338.1 1127.8C334 1129.4 306.2 1140.9 308.2 1146.8C310.1 1152.4 346.4 1142.1 346.9 1147.4C347.6 1155.6 295.4 1151.6 291.7 1165.7" stroke="#1D1D1D" stroke-width="4" stroke-miterlimit="10" stroke-linecap="round" stroke-linejoin="round"/>
<path d="M335.6 911.8C333.8 910.6 346 912.3 348.1 912.5C395.6 917.4 383.1 870.9 394 887.8C425 935.6 483 942.5 507.6 931.3C517.1 926.9 508.9 953.5 509.2 962.8C510.3 997.7 572.3 1019.1 535.8 1055.1C493.7 1096.6 376.7 1061.5 349.1 1040.6C285.8 992.7 268.9 923.6 335.6 911.8Z" stroke="#1D1D1D" stroke-width="8" stroke-miterlimit="10" stroke-linecap="round" stroke-linejoin="round"/>
<path fill-rule="evenodd" clip-rule="evenodd" d="M367.4 937.5C368.7 938.2 365.5 939.5 364.8 940.7C362.6 944.4 358.2 949.9 357.1 953.6C354.5 962.8 358.9 976.1 368.4 980.9C372.9 983.2 401.5 990.4 406.3 987.3C409.8 985 411.5 979.2 413.3 975.9C414 974.6 419.5 966.8 418.7 965.4C409.4 948.8 388.3 944.7 370.6 939.5" fill="#1D1D1D"/>
<path d="M367.4 937.5C368.7 938.2 365.5 939.5 364.8 940.7C362.6 944.4 358.2 949.9 357.1 953.6C354.5 962.8 358.9 976.1 368.4 980.9C372.9 983.2 401.5 990.4 406.3 987.3C409.8 985 411.5 979.2 413.3 975.9C414 974.6 419.5 966.8 418.7 965.4C409.4 948.8 388.3 944.7 370.6 939.5" stroke="#1D1D1D" stroke-width="4" stroke-miterlimit="10" stroke-linecap="round" stroke-linejoin="round"/>
<path fill-rule="evenodd" clip-rule="evenodd" d="M421.7 971.7C421.7 971.7 422.1 971.9 422.7 972.1C424 972.4 431.1 974.5 431.1 975C431.1 976.3 423.1 988.6 425.9 992.3C432.2 1000.5 467.2 1014.1 478.2 1009.2C494.5 1002 501 980.2 481.4 972.8C470.8 968.8 456.2 971.9 445.3 973.9" fill="#1D1D1D"/>
<path d="M421.7 971.7C421.7 971.7 422.1 971.9 422.7 972.1C424 972.4 431.1 974.5 431.1 975C431.1 976.3 423.1 988.6 425.9 992.3C432.2 1000.5 467.2 1014.1 478.2 1009.2C494.5 1002 501 980.2 481.4 972.8C470.8 968.8 456.2 971.9 445.3 973.9" stroke="#1D1D1D" stroke-width="4" stroke-miterlimit="10" stroke-linecap="round" stroke-linejoin="round"/>
<path d="M484.6 980.2C488.8 983.7 502.2 980.5 508.7 978.4" stroke="#1D1D1D" stroke-width="4" stroke-miterlimit="10" stroke-linecap="round" stroke-linejoin="round"/>
<path d="M361.6 913.8C359.8 917.7 362.4 925.5 364.1 928.8" stroke="#1D1D1D" stroke-width="4" stroke-miterlimit="10" stroke-linecap="round" stroke-linejoin="round"/>
<path d="M413.5 996.1C401.9 1013.8 381.8 1020.5 370.4 1014.7C363.3 1011.1 360.3 1001.5 368.6 997.4" stroke="#1D1D1D" stroke-width="4" stroke-miterlimit="10" stroke-linecap="round" stroke-linejoin="round"/>
<path d="M414.3 992.2C414.2 992.1 409.2 1006.6 409.2 1006.7C408.5 1009.3 408 1017.7 408.4 1020.4C409.4 1027.1 415.9 1029.8 421.2 1034C430.2 1041.2 458.2 1043 452.6 1025.5" stroke="#1D1D1D" stroke-width="4" stroke-miterlimit="10" stroke-linecap="round" stroke-linejoin="round"/>
<path fill-rule="evenodd" clip-rule="evenodd" d="M442.8 1276.4C442.4 1269.8 423.3 1251.9 396.3 1213.5C376.2 1184.9 390.4 1114 427.2 1111.1C432.8 1110.7 451.2 1109.3 462.3 1126.2C466.4 1132.5 472.5 1143.7 458.5 1151.7C431.1 1167.4 428.8 1144.5 433.5 1134.8C434 1133.8 400.3 1145.6 411.2 1189.9C422.7 1236.6 473.1 1254.6 477.8 1271.4" fill="#F7F2EE"/>
<path d="M442.8 1276.4C442.4 1269.8 423.3 1251.9 396.3 1213.5C376.2 1184.9 390.4 1114 427.2 1111.1C432.8 1110.7 451.2 1109.3 462.3 1126.2C466.4 1132.5 472.5 1143.7 458.5 1151.7C431.1 1167.4 428.8 1144.5 433.5 1134.8C434 1133.8 400.3 1145.6 411.2 1189.9C422.7 1236.6 473.1 1254.6 477.8 1271.4" stroke="#1D1D1D" stroke-width="8" stroke-miterlimit="10" stroke-linecap="round" stroke-linejoin="round"/>
<path d="M448.9 928.1C448.1 927.6 496.7 825.2 377.7 803.8" stroke="#1D1D1D" stroke-width="4" stroke-miterlimit="10" stroke-linecap="round" stroke-linejoin="round"/>
<path opacity="0.9116" fill-rule="evenodd" clip-rule="evenodd" d="M350.5 773.1C345.3 771.7 341.5 757.9 330.8 755.9C326.3 755.1 321.3 755.1 317.4 757.8C282.4 782.1 350.3 799.5 362.1 802.7C369.3 804.6 369.9 797.8 370.8 791.9C376.5 753.2 339.8 726.4 345.1 762.6" fill="black"/>
<path d="M350.5 773.1C345.3 771.7 341.5 757.9 330.8 755.9C326.3 755.1 321.3 755.1 317.4 757.8C282.4 782.1 350.3 799.5 362.1 802.7C369.3 804.6 369.9 797.8 370.8 791.9C376.5 753.2 339.8 726.4 345.1 762.6" stroke="#161616" stroke-width="4" stroke-miterlimit="10" stroke-linecap="round" stroke-linejoin="round"/>
<path opacity="0.9116" fill-rule="evenodd" clip-rule="evenodd" d="M373.4 799.2C374.8 800.7 373 795 372.9 793C372.7 788.9 372.6 784.7 372.8 780.6C373.1 770.6 373.6 736.9 391.7 740.5C400.1 742.1 397.5 753.7 395.3 759.1C395.2 759.4 392.8 764.8 392.2 764.4C389.7 762.5 407.1 751 408.8 750.5C411.9 749.6 415.6 749.3 418.8 750.2C448.8 758.8 401.7 795.1 391.3 800" fill="black"/>
<path d="M373.4 799.2C374.8 800.7 373 795 372.9 793C372.7 788.9 372.6 784.7 372.8 780.6C373.1 770.6 373.6 736.9 391.7 740.5C400.1 742.1 397.5 753.7 395.3 759.1C395.2 759.4 392.8 764.8 392.2 764.4C389.7 762.5 407.1 751 408.8 750.5C411.9 749.6 415.6 749.3 418.8 750.2C448.8 758.8 401.7 795.1 391.3 800" stroke="#1D1D1D" stroke-width="4" stroke-miterlimit="10" stroke-linecap="round" stroke-linejoin="round"/>
<path d="M388.6 769.1C389 768.2 388.1 771 387.8 771.9C387.3 773.8 386.9 775.7 386.4 777.6C385 783.3 383.8 789 383 794.8" stroke="#F7F2EE" stroke-width="4" stroke-miterlimit="10" stroke-linecap="round" stroke-linejoin="round"/>
<path d="M352.3 776.6C352.2 778 358.3 786.8 359.2 788.3" stroke="#F7F2EE" stroke-width="4" stroke-miterlimit="10" stroke-linecap="round" stroke-linejoin="round"/>
<path d="M347.4 829.8C347.4 829.9 348.7 828.7 348.8 828.5C349.9 827.4 351.1 826.3 352.2 825.2C355.4 822.1 358.9 819.2 362.4 816.4" stroke="#F7F2EE" stroke-width="4" stroke-miterlimit="10" stroke-linecap="round" stroke-linejoin="round"/>
<path opacity="0.9116" fill-rule="evenodd" clip-rule="evenodd" d="M363.5 806.3C363.4 805.4 340.5 807.3 339.4 807.6C335.6 808.6 331.8 810.6 329.4 813.8C323.6 821.9 324.5 838.9 338.1 834.6C338.9 834.3 347.4 829.5 347.2 829.4C346.8 829.1 343.8 832.9 343.6 833.1C339 839.3 332.2 854.9 342.2 859.7C370 873.3 381.4 824.3 369.3 807" fill="black"/>
<path d="M363.5 806.3C363.4 805.4 340.5 807.3 339.4 807.6C335.6 808.6 331.8 810.6 329.4 813.8C323.6 821.9 324.5 838.9 338.1 834.6C338.9 834.3 347.4 829.5 347.2 829.4C346.8 829.1 343.8 832.9 343.6 833.1C339 839.3 332.2 854.9 342.2 859.7C370 873.3 381.4 824.3 369.3 807" stroke="#1D1D1D" stroke-width="4" stroke-miterlimit="10" stroke-linecap="round" stroke-linejoin="round"/>
<path d="M346.2 831.7C346.9 831.5 349.5 827.6 350.3 826.7C354.3 822.3 358.5 817.7 363.4 814.2" stroke="#F7F2EE" stroke-width="4" stroke-miterlimit="10" stroke-linecap="round" stroke-linejoin="round"/>
<path d="M307.7 1220.7C307.2 1221.9 321.2 1217.4 322.4 1217C328.7 1214.8 345.4 1205.5 352.2 1209.3C354.8 1210.7 330.5 1226 333.8 1229.4C339.7 1235.5 372.7 1214.4 383.1 1221.4C387.8 1224.6 381.6 1230.7 379.3 1233.2C371.9 1240.9 362.2 1246.6 355.3 1254.8C342.4 1270.2 369.2 1264.3 375.8 1266.5" stroke="#1D1D1D" stroke-width="4" stroke-miterlimit="10" stroke-linecap="round" stroke-linejoin="round"/>
<path d="M492.7 1012.2C492.7 1011.5 503.2 1006.8 509.9 1004.6C528.7 998.3 548.9 996 568.6 996.2" stroke="#1D1D1D" stroke-width="4" stroke-miterlimit="10" stroke-linecap="round" stroke-linejoin="round"/>
<path d="M505.9 1022C527.7 1019.6 547.9 1019.3 569.5 1024.3" stroke="#1D1D1D" stroke-width="4" stroke-miterlimit="10" stroke-linecap="round" stroke-linejoin="round"/>
<path d="M500.6 1037.6C503.9 1038.4 508.2 1037.6 511.7 1038.4C525.7 1041.3 538.5 1048 550 1056.4" stroke="#1D1D1D" stroke-width="4" stroke-miterlimit="10" stroke-linecap="round" stroke-linejoin="round"/>
<path d="M346.7 948.6C346.8 948.6 346.5 946.9 346.5 946.6C346.1 944 345.7 941.5 345.1 939C343.7 933.1 341.8 927.4 339.4 921.8C332.6 905.4 323.3 891.2 311.6 877.9" stroke="#1D1D1D" stroke-width="4" stroke-miterlimit="10" stroke-linecap="round" stroke-linejoin="round"/>
<path d="M324 948.4C324.9 948.6 322.8 946.9 322.3 946.1C321.5 944.9 320.7 943.7 319.8 942.5C317.2 938.8 314.1 935.3 311 931.9C303.4 923.7 289.8 907.7 277.3 907.7" stroke="#1D1D1D" stroke-width="4" stroke-miterlimit="10" stroke-linecap="round" stroke-linejoin="round"/>
<path d="M318.5 975.1C318.5 975.2 314.9 974.4 314.7 974.4C311.2 974 307.6 974.1 304.1 974.4C293.1 975.4 282 978 271.5 981.1" stroke="#1D1D1D" stroke-width="4" stroke-miterlimit="10" stroke-linecap="round" stroke-linejoin="round"/>
<path d="M147.9 745.3C148.2 745.2 147.3 745.3 147.1 745.4C142.2 746 138.4 753.3 136.4 757.1C130.9 767.8 126.1 781.8 132 793.3C136.5 802.2 155.6 803.6 154.6 815.8C153.8 825.6 123.4 830.3 131.1 854C137.2 873 162.8 858.4 164 872.2C165 884 134.3 891.6 145.7 912.6C151.9 924 171.2 914.7 173.4 930.4C175.4 944.5 147.5 943 154.9 962.1C160 975 180.4 974.5 180.9 982.7C181.6 993 159.9 993.7 162.9 1007C166.9 1024.7 196 1020.1 196.3 1024.5C196.8 1032.6 176.6 1041 178.4 1057.1C179.8 1069.7 201.6 1070.3 200.4 1077.1C198.4 1088.5 178.8 1090 182.2 1105C185.9 1121.3 208.9 1110.2 211.6 1123.2C214.5 1137.3 186.3 1144.1 195.4 1160.7C200.8 1170.6 220.8 1164.6 222.7 1177.3C223.5 1183.1 201.4 1193.4 203.8 1210.1C205.9 1224.7 227.3 1220.3 228.4 1227.7C229.7 1236.8 206 1242.8 216.1 1259.8C220.4 1267 235.8 1258.6 237.8 1268.1C240.5 1281.3 216.5 1284.9 228.1 1305.8C232.1 1313 242.6 1302.1 247.3 1308.8C252.4 1316.1 242.5 1363.1 281.9 1355.2C296.7 1352.2 294.4 1327.7 307.6 1324.9C316.9 1322.9 324.2 1339.6 334.9 1337.8C345.6 1335.9 346 1318.8 354.7 1317.6C361.1 1316.7 368.5 1331.5 380.6 1330.5C391.4 1329.6 393.9 1312 403.7 1311.6C415.2 1311.1 420.1 1331.2 435 1323.2C443.8 1318.5 443.5 1300.9 453.1 1298C465.3 1294.4 472.7 1317.2 487 1314.8C501.2 1312.3 492.8 1293.9 502.2 1289C513.1 1283.3 521.7 1304.4 532.3 1302.5C546.7 1299.9 541.3 1283.2 550.6 1279.2C562.1 1274.4 569.9 1291.1 581.7 1289.7C597.9 1287.7 589.4 1268.5 601.9 1265.3C611.6 1262.9 618.7 1277.6 628 1278.2C638.8 1279 633.3 1264.1 641.6 1259.7C650.8 1254.8 663.5 1263.2 671.5 1255.2C700.3 1226.3 657.1 1217.8 654 1204.4C651.3 1192.7 667.9 1185.8 662.4 1171.6C659.1 1163.1 641 1170.8 643.7 1155.7C645.6 1145 661.9 1148.2 655.1 1128.3C652.2 1119.7 633.6 1123.1 633.6 1111.3C633.6 1103.4 653 1101.1 647 1077.6C644.7 1068.5 630.9 1071.6 629.6 1062.1C629.2 1059.4 645.3 1047 639.2 1025.8C636.8 1017.4 622.7 1025.7 618.2 1007.3C614.6 992.8 639 986.6 631.9 965C630.7 961.5 608.6 970.7 605.3 958.2C602.7 948.2 615.5 941.4 616.2 931.2C617.4 915.2 600.1 923.2 599.4 909.3C598.8 898.8 613.3 890.9 613 878.4C612.7 863.6 592.1 869.8 589 858.6C585.4 845.6 604.1 842.9 604.4 830.5C604.8 815.6 598.5 816.4 587.9 811.4C572.3 804.1 592.1 789.9 595.2 783.5C608 757.2 575 761.9 573.2 747.3C571.6 733.4 590.2 734.7 591.4 721.3C592.8 705.7 573.3 717.7 568.4 707C565.2 700.1 583.6 673 555.3 662.3C521.7 649.7 527.7 681.9 508.3 683.4C498.5 684.2 493.3 661.9 472 671.5C460.8 676.5 467.5 694.8 452.2 696.6C444.3 697.5 435.1 681.9 419 684.2C405.6 686.1 406.3 708.1 395.1 711.1C381.3 714.9 375.7 694.1 363.7 695.3C336.9 698 351.7 720 335.1 724.3C324 727.2 321.6 713.5 312 713.1C295.8 712.4 297.5 731.2 283.2 733.3C271.1 735.1 264.6 720.5 251 722.8C227.1 726.8 223.5 745.5 217.2 748C217 748.1 216.7 748.1 216.5 748.2C205.9 748.9 205 728.8 192.9 729.9C177.3 731.3 184.9 755.6 174.2 761.9C171.4 762.8 153.3 745.4 147.9 745.3Z" stroke="#1D1D1D" stroke-width="8" stroke-miterlimit="10" stroke-linecap="round" stroke-linejoin="round"/>
<path fill-rule="evenodd" clip-rule="evenodd" d="M1077.5 874.8C1094 873.1 788.2 904 731.3 904.8C712.4 905.1 789.7 842 805.6 831.8C888.2 778.8 912.2 841.4 958.6 815.2C976.9 804.9 979.4 805.1 995.5 792.1C1040.4 755.7 1091.9 727.8 1149.3 746.5C1178.3 756 1204.9 792 1234.6 780.7C1281.4 762.9 1313.6 724 1337.4 740.4C1343.3 744.4 1348.6 783.1 1349.5 811.6C1350 827.9 1360.7 832.8 1339.9 846.3C1322.8 857.4 1011.3 881.5 1077.5 874.8Z" fill="#00A54D"/>
<path d="M1077.5 874.8C1094 873.1 788.2 904 731.3 904.8C712.4 905.1 789.7 842 805.6 831.8C888.2 778.8 912.2 841.4 958.6 815.2C976.9 804.9 979.4 805.1 995.5 792.1C1040.4 755.7 1091.9 727.8 1149.3 746.5C1178.3 756 1204.9 792 1234.6 780.7C1281.4 762.9 1313.6 724 1337.4 740.4C1343.3 744.4 1348.6 783.1 1349.5 811.6C1350 827.9 1360.7 832.8 1339.9 846.3C1322.8 857.4 1011.3 881.5 1077.5 874.8Z" stroke="#161616" stroke-width="8" stroke-miterlimit="10" stroke-linecap="round" stroke-linejoin="round"/>
<path d="M781.1 883.2C811.3 860.2 834.2 849.5 848.3 845.3C890.5 832.8 951.6 848.1 1012.8 848C1032.2 848 1060 832.1 1074.7 847.8C1077.6 850.9 1073.8 857 1070.3 858.9C1055.4 867 1017.6 866.1 987 859.8C966.5 855.6 943 855.2 922.3 858.6C914.4 859.9 892 866.1 908.6 872.1C929.2 879.5 954.1 862.1 972.7 871.8" stroke="#F7F2EE" stroke-width="4" stroke-miterlimit="10" stroke-linecap="round" stroke-linejoin="round"/>
<path d="M974.2 830.3C1018.2 795.3 1082.7 757.6 1111.8 766C1188.2 788.1 1180.1 792.8 1240.4 793.5C1274.1 793.9 1294.4 769.6 1328.2 778.6C1331.2 779.4 1333.8 780.8 1335.6 783C1343.2 792.2 1320.3 803.3 1312.5 805.5C1239.9 825.7 1171 777.6 1099 793C1094.7 793.9 1079.8 796.6 1080.2 802.3C1081.4 818.7 1176.7 800.4 1180 810.8C1180.7 813 1176.1 814.6 1174.4 815.2C1163.1 818.9 1072.3 813 1083.5 835.4C1090.7 849.8 1183 826.9 1197.4 824.1C1226 818.7 1257.1 815.1 1286.5 817.8C1304.4 819.5 1314.7 831.4 1333.8 826.8" stroke="#F7F2EE" stroke-width="4" stroke-miterlimit="10" stroke-linecap="round" stroke-linejoin="round"/>
<path d="M1181 896.9C1181.2 896.3 1182.3 896.3 1182.8 896.2C1193.7 894.9 1198.9 918.7 1209.5 912.3C1215.2 908.8 1213.6 899.6 1219.6 896.2C1234.2 888 1233.5 915.7 1247.1 912.5C1259 909.7 1255.7 890.6 1269.2 891.1C1278.7 891.5 1281.7 906.1 1290.3 905.2C1299.9 904.2 1299.1 887.7 1308.6 887.2C1318.5 886.6 1320.2 903.5 1331 900.7C1341.9 897.8 1336.8 881.9 1344.4 878.6C1349 876.6 1363.9 902.8 1381.5 884.2C1404.3 860.1 1379.3 852.4 1383.1 834.1C1384.6 826.5 1394.9 824.6 1396.6 815.9C1397 813.8 1397 811.6 1396.3 809.5C1393.2 799.8 1377.1 802.9 1375.1 791.8C1373.2 781.5 1391.7 780.1 1389.6 768.6C1387.7 757.7 1372.9 762.5 1369.9 752.8C1366 740.3 1390.2 734.2 1387.4 718.2C1384.9 703.8 1361.7 712.2 1360 698.7C1358.3 685.2 1378.7 676.5 1374 661.6C1370.8 651.3 1345.4 658 1347.4 643.5C1349.4 628.8 1374.7 628.8 1371.3 613.1C1368.1 598.2 1343.3 609.1 1341 597.9C1337.8 582.3 1362.9 573.5 1351.5 554C1331.7 520.1 1317.1 566 1293.3 560.6C1282.3 558.1 1286.1 540.4 1269.9 543.1C1258.6 544.9 1253.9 568 1239.8 561.8C1228.9 557 1234.6 536.6 1212.5 541.3C1201 543.7 1199.5 569.6 1182.9 568.3C1175.5 567.7 1172.9 542.8 1155.2 548.2C1145.2 551.2 1141.3 570 1124.8 571.8C1117.7 572.6 1112.5 553.7 1097.6 556.5C1085.9 558.7 1085.4 576.3 1072 577.8C1062.1 578.9 1057 557.8 1043.3 559.9C1030.9 561.8 1035.7 584.2 1020.8 585.5C1012.1 586.2 1006.8 566.8 997 564.9C986.5 562.8 983.1 586.8 969.7 588.1C961.4 588.9 963.8 569.7 946.3 569.7C933.9 569.7 937.3 590.3 926.9 593.9C918.4 596.8 906 575.9 892.3 575.9C878.5 575.9 883.2 596.1 870.2 596.1C869.9 596.1 870.3 599.8 869 599.9C867.8 600 865.1 599.6 864.5 598.4C863.8 597.1 866.4 596.3 864.5 596.3C862 596.3 859.4 596.4 856.9 596.2C856 596.1 856.4 596.2 855.5 596C846.5 594.8 841.9 586.8 834.1 582.8L824 578.2C804.2 571.4 812.2 601.6 799.9 605.1C794.3 606.7 790 578.6 778.8 578.6C770.7 578.6 775.1 602.8 760.7 605.8C746.4 608.8 747.2 569.8 729.1 574.3C713.1 578.3 721.8 599.1 712.7 602.8C708.3 604.6 704.1 603.8 700.2 601.7C698.4 600.7 692.1 593.8 687 592.2C680.9 590.3 667.5 588.5 663.8 590.3C651.9 596 654.4 597.9 655.2 610.6C656.2 624.9 681.6 635.2 681 648.7C680.5 659.2 659.4 662.7 659.1 676C658.8 687.9 678 689.9 681.2 700.1C684.9 711.9 663.1 720 664.8 732.3C666.6 744.7 682.5 742 684 753.7C685.5 765.7 670.3 771.9 669.4 784.3C668 802.5 682.8 798.2 684.1 807.1C685.9 819.2 667.2 827.3 667 840.5C666.8 854.8 681.9 849.5 685.2 859.8C687.2 866.3 675.1 874.7 674.1 882.1C672.1 896.4 685.5 890.2 687 898.8C689.3 912.4 670.9 929.7 684.9 943.2C702.9 960.6 712.3 935.8 730 935.1C737.3 934.8 740.7 946.2 748.2 947.7C761.5 950.4 766.5 934.7 777.8 934.7C785.7 934.7 787.8 947.7 797 947.9C808.2 948.3 810.2 931.6 820.6 932.9C829.5 934 830.9 950.1 843 949.5C852.4 949.1 855.9 929.2 868.3 931.6C876 933.1 878.6 949 893.5 947.1C901.1 946.1 902.9 926.7 922.9 926C935.1 925.6 941.3 943.1 953.7 940.4C964.5 938.1 963.5 924.2 971 921.5C975.5 919.8 989.1 933.2 999.9 932.2C1015.5 930.7 1009.4 916.9 1016.7 916.4C1029.4 915.5 1036.8 931.4 1049.8 931C1060 930.7 1063 911.9 1073.9 910.2C1085 908.5 1090.1 926.8 1103.3 926.3C1111.9 926 1113.1 909.5 1122.2 906.4C1137.3 901.2 1140.5 919.6 1155.5 918C1161.2 917.4 1161.9 903 1178.7 897.2" stroke="#1D1D1D" stroke-width="8" stroke-miterlimit="10" stroke-linecap="round" stroke-linejoin="round"/>
<path fill-rule="evenodd" clip-rule="evenodd" d="M1131.1 650.1C1128 639.4 1125.4 631.2 1137 632.7C1143.1 633.5 1142.5 639.4 1141.6 647.6C1140.7 655.7 1142.3 656.2 1148 651.2C1170.9 630.8 1168.4 615.4 1177.2 611.5C1178.6 610.9 1183.4 613.2 1178.9 618.4C1176.1 621.6 1170.5 633.7 1164.6 642C1155.8 654.5 1144.8 664.6 1144.2 669.9C1143.9 672.5 1143.4 678.9 1144.1 683.1C1147.7 704.9 1163.9 741 1168.3 753.4C1169.5 756.7 1164.9 753 1162 754.2C1153.8 757.6 1156.2 748.5 1145.2 718.4C1140.9 706.6 1138.9 695 1136.5 693.9C1131 691.4 1122.6 709.9 1122.4 710.9C1120.4 722.1 1128.8 755.4 1118.2 759.1C1113.3 760.8 1111.3 753.6 1111.8 751.8C1114.3 742.1 1110.3 720.1 1114.3 706.2C1118 693 1129.5 687.8 1128.5 677.4C1128 672.8 1128.8 669.8 1127.6 667.3C1123.9 659.8 1115.5 655.8 1109.1 645.8C1098.6 629.6 1085 619.1 1089.3 615.5C1094.7 611 1111.8 637.9 1125.1 654.1C1128 657.7 1129.6 652.4 1131.1 650.1Z" fill="#1D1D1D"/>
<path d="M1131.1 650.1C1128 639.4 1125.4 631.2 1137 632.7C1143.1 633.5 1142.5 639.4 1141.6 647.6C1140.7 655.7 1142.3 656.2 1148 651.2C1170.9 630.8 1168.4 615.4 1177.2 611.5C1178.6 610.9 1183.4 613.2 1178.9 618.4C1176.1 621.6 1170.5 633.7 1164.6 642C1155.8 654.5 1144.8 664.6 1144.2 669.9C1143.9 672.5 1143.4 678.9 1144.1 683.1C1147.7 704.9 1163.9 741 1168.3 753.4C1169.5 756.7 1164.9 753 1162 754.2C1153.8 757.6 1156.2 748.5 1145.2 718.4C1140.9 706.6 1138.9 695 1136.5 693.9C1131 691.4 1122.6 709.9 1122.4 710.9C1120.4 722.1 1128.8 755.4 1118.2 759.1C1113.3 760.8 1111.3 753.6 1111.8 751.8C1114.3 742.1 1110.3 720.1 1114.3 706.2C1118 693 1129.5 687.8 1128.5 677.4C1128 672.8 1128.8 669.8 1127.6 667.3C1123.9 659.8 1115.5 655.8 1109.1 645.8C1098.6 629.6 1085 619.1 1089.3 615.5C1094.7 611 1111.8 637.9 1125.1 654.1C1128 657.7 1129.6 652.4 1131.1 650.1Z" stroke="#161616" stroke-width="4" stroke-miterlimit="10" stroke-linecap="round" stroke-linejoin="round"/>
<path d="M1059.4 639.6C1060 639.1 1059.6 641.1 1059.6 641.9C1061.2 656.8 1061.6 671.9 1062.5 686.8C1064.4 717.8 1065 718.1 1066.5 749" stroke="#161616" stroke-width="4" stroke-miterlimit="10" stroke-linecap="round" stroke-linejoin="round"/>
<path d="M1057.6 639.1C1058.1 641.4 1053.2 637.3 1051 636.8C1043.5 635.1 1035.5 635 1028.2 637.5C1013 642.6 1006.3 658.4 992.4 664.6C986.1 667.4 973 665.5 968 670C966.2 671.6 970.8 707.2 970.8 713C970.8 713.2 970.7 714 970.8 714.1C976.5 719.8 992.7 717.7 999 715.4C1014.8 709.5 1043.8 670.9 1059.7 681.5" stroke="#161616" stroke-width="4" stroke-miterlimit="10" stroke-linecap="round" stroke-linejoin="round"/>
<path d="M971.1 690.3C970.9 690.3 975.3 690.7 976.6 690.4C977.5 690.2 978.4 690 979.3 689.8C985.1 688.4 990.6 686.8 995.7 683.9C1009.7 675.9 1020.1 659.6 1035.7 654.8" stroke="#1D1D1D" stroke-width="4" stroke-miterlimit="10" stroke-linecap="round" stroke-linejoin="round"/>
<path d="M991.2 700.5C991.4 700.1 995.1 699.3 995.7 699C999.9 696.9 1003.8 694.3 1007.6 691.7C1019.3 683.7 1028.8 672.7 1041.9 666.8C1046.2 664.8 1053.2 661.8 1058.1 663.4" stroke="#1D1D1D" stroke-width="4" stroke-miterlimit="10" stroke-linecap="round" stroke-linejoin="round"/>
<path d="M1215.4 659.1C1216.8 661.1 1216.3 676.6 1216.4 679.9" stroke="#1D1D1D" stroke-width="4" stroke-miterlimit="10" stroke-linecap="round" stroke-linejoin="round"/>
<path d="M1205.8 669.2C1211.4 671.4 1225 668.4 1231 667.5" stroke="#1D1D1D" stroke-width="4" stroke-miterlimit="10" stroke-linecap="round" stroke-linejoin="round"/>
<path d="M1224.5 660.5C1225.1 659.7 1223.3 662.2 1222.7 662.9C1221.4 664.4 1220 665.9 1218.7 667.4C1214.8 672 1210.8 676.7 1206.5 680.9" stroke="#1D1D1D" stroke-width="4" stroke-miterlimit="10" stroke-linecap="round" stroke-linejoin="round"/>
<path d="M1206.7 660.8C1213.9 665.1 1220.9 672.3 1227.5 677.6" stroke="#1D1D1D" stroke-width="4" stroke-miterlimit="10" stroke-linecap="round" stroke-linejoin="round"/>
<path d="M923.6 617.8C923 618.3 924.2 623.7 924.3 624.4C925 631.1 925.6 637.8 926.5 644.5" stroke="#1D1D1D" stroke-width="4" stroke-miterlimit="10" stroke-linecap="round" stroke-linejoin="round"/>
<path d="M909.9 633.6C908.9 633.6 911.8 633.3 912.8 633.1C914.9 632.8 917 632.5 919.1 632.3C925.3 631.7 931.4 630.5 937.5 629.5" stroke="#1D1D1D" stroke-width="4" stroke-miterlimit="10" stroke-linecap="round" stroke-linejoin="round"/>
<path d="M933.7 618.8C934.7 618.8 932.6 620.4 932 621.2C930.9 622.8 930 624.4 929 626C925.8 631 922.6 636.1 919.1 640.9" stroke="#1D1D1D" stroke-width="4" stroke-miterlimit="10" stroke-linecap="round" stroke-linejoin="round"/>
<path d="M913.6 622.9C913.4 622.9 916.1 625.1 916.3 625.3C918.2 626.6 920.2 627.8 922.2 629C928.3 632.7 934 637.2 940.2 640.7" stroke="#1D1D1D" stroke-width="4" stroke-miterlimit="10" stroke-linecap="round" stroke-linejoin="round"/>
<path d="M952.3 736.3C952.3 736.3 937.5 746.3 936.3 747.2" stroke="#1D1D1D" stroke-width="4" stroke-miterlimit="10" stroke-linecap="round" stroke-linejoin="round"/>
<path d="M931.1 711.4C931.7 710.9 926.2 712.2 925.9 712.3C919 713.9 912.2 716.1 905.4 717.9C892.8 721.4 880.1 724.7 867.4 728" stroke="#1D1D1D" stroke-width="4" stroke-miterlimit="10" stroke-linecap="round" stroke-linejoin="round"/>
<path d="M835.7 744.5C835.9 744.4 834.9 744.5 834.9 744.5C821.4 746.8 807.9 751.7 794.6 755.3C768.4 762.4 741.8 770.3 715 775" stroke="#1D1D1D" stroke-width="4" stroke-miterlimit="10" stroke-linecap="round" stroke-linejoin="round"/>
<path d="M925.9 679C929.8 678.4 918.1 679.5 914.2 679.9" stroke="#1D1D1D" stroke-width="4" stroke-miterlimit="10" stroke-linecap="round" stroke-linejoin="round"/>
<path d="M869 679C869.4 678.9 868.5 679 868.5 679C862.6 679 856.8 678.9 850.9 678.5C834.5 677.6 817.8 674.8 801.3 674.8" stroke="#1D1D1D" stroke-width="4" stroke-miterlimit="10" stroke-linecap="round" stroke-linejoin="round"/>
<path d="M763.9 672C758.5 667.1 730.4 669.3 722.7 668.4" stroke="#1D1D1D" stroke-width="4" stroke-miterlimit="10" stroke-linecap="round" stroke-linejoin="round"/>
<path d="M776.8 627.7C777 628.1 777.8 627.9 778.2 628C796.4 628.9 814.9 633.4 832.9 633.4" stroke="#1D1D1D" stroke-width="4" stroke-miterlimit="10" stroke-linecap="round" stroke-linejoin="round"/>
<path d="M870.7 633.4C869.3 633.5 873.5 633.7 874.9 633.9" stroke="#1D1D1D" stroke-width="4" stroke-miterlimit="10" stroke-linecap="round" stroke-linejoin="round"/>
<path d="M969.1 633C966.4 636.2 977.4 634.5 981.5 635.4" stroke="#1D1D1D" stroke-width="4" stroke-miterlimit="10" stroke-linecap="round" stroke-linejoin="round"/>
<path d="M1250.1 639.3C1250.2 639.4 1252.3 638.8 1255.3 637.5" stroke="#1D1D1D" stroke-width="4" stroke-miterlimit="10" stroke-linecap="round" stroke-linejoin="round"/>
<path d="M1284.1 628.8C1282.8 630.1 1287.3 627.2 1289 626.4C1292.1 624.9 1295.3 623.5 1298.4 622C1309 616.7 1319.5 611 1330 605.5" stroke="#1D1D1D" stroke-width="4" stroke-miterlimit="10" stroke-linecap="round" stroke-linejoin="round"/>
<path d="M1258.1 671.5C1257.7 671.9 1258.8 671.9 1259.1 672C1271.9 673.9 1285.2 674 1298.1 675" stroke="#1D1D1D" stroke-width="4" stroke-miterlimit="10" stroke-linecap="round" stroke-linejoin="round"/>
<path d="M1335.3 679.9C1336.6 680.7 1337.7 681.2 1339.4 681.4" stroke="#1D1D1D" stroke-width="4" stroke-miterlimit="10" stroke-linecap="round" stroke-linejoin="round"/>
<path d="M1234.7 700.4C1238.2 703.9 1242.9 706.2 1247.4 708.1" stroke="#1D1D1D" stroke-width="4" stroke-miterlimit="10" stroke-linecap="round" stroke-linejoin="round"/>
<path d="M1279.1 722C1281 723.9 1286.2 725.1 1289.1 726.2" stroke="#1D1D1D" stroke-width="4" stroke-miterlimit="10" stroke-linecap="round" stroke-linejoin="round"/>
<path d="M1204.5 717.2C1205.9 717.6 1207.3 719 1208.6 719.8" stroke="#1D1D1D" stroke-width="4" stroke-miterlimit="10" stroke-linecap="round" stroke-linejoin="round"/>
<path d="M1229.7 745.6C1229.8 745.4 1233.7 748.5 1234.7 749.5" stroke="#1D1D1D" stroke-width="4" stroke-miterlimit="10" stroke-linecap="round" stroke-linejoin="round"/>
<path d="M970.9 765.5C954.4 769.4 934.7 791.1 920.2 800.1" stroke="#1D1D1D" stroke-width="4" stroke-miterlimit="10" stroke-linecap="round" stroke-linejoin="round"/>
<path d="M899.9 765.1C901.8 764.7 896.8 767.5 895.2 768.6C890.7 771.7 886 774.4 881.3 777.1C869.5 784.1 857.7 791.2 845.6 797.6" stroke="#1D1D1D" stroke-width="4" stroke-miterlimit="10" stroke-linecap="round" stroke-linejoin="round"/>
<path d="M1243 600.4C1258.7 590.6 1274.2 576.4 1288.8 564.6" stroke="#1D1D1D" stroke-width="4" stroke-miterlimit="10" stroke-linecap="round" stroke-linejoin="round"/>
<path fill-rule="evenodd" clip-rule="evenodd" d="M811.7 1385.9C824.6 1363 832.9 1325.1 813.5 1290.2C810.5 1284.8 855.9 1286.5 876.1 1285C910.8 1282.4 945 1282 979.7 1281.4C1038.4 1280.4 1082.8 1256.7 1095.4 1309.9C1097.1 1317.2 1095.6 1385.9 1072.9 1388.9C1033.5 1394.1 943.3 1396.1 856.8 1394.9C836.1 1394.6 806.3 1395.4 811.7 1385.9Z" fill="#1D1D1D"/>
<path d="M811.7 1385.9C824.6 1363 832.9 1325.1 813.5 1290.2C810.5 1284.8 855.9 1286.5 876.1 1285C910.8 1282.4 945 1282 979.7 1281.4C1038.4 1280.4 1082.8 1256.7 1095.4 1309.9C1097.1 1317.2 1095.6 1385.9 1072.9 1388.9C1033.5 1394.1 943.3 1396.1 856.8 1394.9C836.1 1394.6 806.3 1395.4 811.7 1385.9Z" stroke="#161616" stroke-width="4" stroke-miterlimit="10" stroke-linecap="round" stroke-linejoin="round"/>
<path fill-rule="evenodd" clip-rule="evenodd" d="M1077.8 1273.5C1076.9 1272.9 1062.5 1254.8 1061.6 1251C1055.8 1227.8 1065.8 1191 1065.3 1190.6C1064.6 1190 845.1 1197.5 829.2 1202.5C804.6 1210.1 804.7 1264.4 819.1 1281.2" fill="#FF8524"/>
<path d="M1077.8 1273.5C1076.9 1272.9 1062.5 1254.8 1061.6 1251C1055.8 1227.8 1065.8 1191 1065.3 1190.6C1064.6 1190 845.1 1197.5 829.2 1202.5C804.6 1210.1 804.7 1264.4 819.1 1281.2" stroke="#161616" stroke-width="4" stroke-miterlimit="10" stroke-linecap="round" stroke-linejoin="round"/>
<path opacity="0.9116" fill-rule="evenodd" clip-rule="evenodd" d="M853 1197.3C862.9 1180.1 873.7 1165.7 863.7 1143.6C862.4 1140.7 852.7 1127.5 852.7 1127.5C852.7 1127.5 888.1 1127.9 902 1125.3C918 1122.3 936.4 1118.2 954.1 1115.8C996.1 1110.1 1034.3 1114.4 1028.1 1167.4C1027 1176.9 1024.1 1181.3 1017 1187.1" fill="black"/>
<path d="M853 1197.3C862.9 1180.1 873.7 1165.7 863.7 1143.6C862.4 1140.7 852.7 1127.5 852.7 1127.5C852.7 1127.5 888.1 1127.9 902 1125.3C918 1122.3 936.4 1118.2 954.1 1115.8C996.1 1110.1 1034.3 1114.4 1028.1 1167.4C1027 1176.9 1024.1 1181.3 1017 1187.1" stroke="#1D1D1D" stroke-width="4" stroke-miterlimit="10" stroke-linecap="round" stroke-linejoin="round"/>
<path fill-rule="evenodd" clip-rule="evenodd" d="M818.5 1295C826.4 1292.9 847.5 1293.4 850.3 1293.3C879.3 1291.7 900.5 1289.9 929.2 1289.1C948.1 1288.6 1003.9 1287.3 1050.8 1285.3C1065.9 1284.7 1066.4 1282.9 1072.2 1287.4C1082.2 1295.1 1084.5 1317.5 1082.9 1342.2C1082.3 1352.1 1077.6 1377.8 1065.5 1378.2C1019.8 1379.9 924.4 1398.7 811.5 1383.6C820.6 1362.7 825.1 1350.7 825.1 1343.5C825 1317.1 823.4 1310.1 818.5 1295Z" fill="#F7F2EE"/>
<path d="M818.5 1295C826.4 1292.9 847.5 1293.4 850.3 1293.3C879.3 1291.7 900.5 1289.9 929.2 1289.1C948.1 1288.6 1003.9 1287.3 1050.8 1285.3C1065.9 1284.7 1066.4 1282.9 1072.2 1287.4C1082.2 1295.1 1084.5 1317.5 1082.9 1342.2C1082.3 1352.1 1077.6 1377.8 1065.5 1378.2C1019.8 1379.9 924.4 1398.7 811.5 1383.6C820.6 1362.7 825.1 1350.7 825.1 1343.5C825 1317.1 823.4 1310.1 818.5 1295Z" stroke="#161616" stroke-width="4" stroke-miterlimit="10" stroke-linecap="round" stroke-linejoin="round"/>
<path d="M839.4 1313.7C851.9 1313.4 874.9 1312.8 887.4 1312.2C922.1 1310.5 956.8 1307.5 991.5 1306.2C1001.3 1305.8 1014.8 1306.5 1024.6 1306.3C1040.3 1305.8 1043.7 1305.3 1043.4 1306.7C1042.2 1311.9 995 1317.4 990 1317.4C950 1317.6 886.2 1328.2 865.5 1323.4C861.6 1322.5 838.1 1322.8 836.4 1326.3C833.3 1332.4 849.1 1329 849.9 1329C860.8 1329.2 874 1328.1 884.9 1328.1C923.6 1327.8 962.3 1327.4 1001 1327C1012.1 1326.9 1023.8 1325.6 1034.8 1327.3C1035.4 1327.4 1037.2 1327.5 1037.4 1328.5C1037.5 1329.2 1036.6 1329.6 1036.2 1329.8C1023 1335.9 1003.4 1337.8 989.6 1337.8C951.8 1337.8 912.2 1336.5 874.5 1340.2C869 1340.7 841.7 1339 838.6 1345C837.5 1347.1 839.5 1353.4 840.1 1353.4C855 1355.3 871.3 1350.2 886.2 1350.1C922.8 1349.8 962 1348.7 998.6 1349.7C1007.1 1349.9 1033.6 1350.9 1034 1352.3C1034.2 1352.9 1031.8 1353.4 1031.7 1353.4C1018.8 1356.4 1002.6 1360.1 989.6 1360.8C962.9 1362.1 934.2 1367.1 907.6 1368.8C880.9 1370.5 850.4 1360.4 824.6 1368.2" stroke="#161616" stroke-width="4" stroke-miterlimit="10" stroke-linecap="round" stroke-linejoin="round"/>
<path d="M871.7 1146.9C871.7 1147 871.6 1147 871.7 1146.9" stroke="#161616" stroke-width="4" stroke-miterlimit="10" stroke-linecap="round" stroke-linejoin="round"/>
<path fill-rule="evenodd" clip-rule="evenodd" d="M1052.8 1214.7C1051.6 1214.6 1022.1 1213.3 1020.9 1213.2C1017.3 1213.1 986.6 1213.5 975.9 1214.8C947.4 1218.4 915.7 1219.3 887.1 1220.3C874.8 1220.7 848.3 1223.1 835.9 1223.1C833.6 1223.1 835.4 1257.2 836 1262.2C836.6 1266.6 843.9 1267.1 846.8 1267.4C858 1268.6 870.6 1269.1 881.8 1268.5C919 1266.5 1045.5 1257 1057.7 1254.6" fill="#F7F2EE"/>
<path d="M1052.8 1214.7C1051.6 1214.6 1022.1 1213.3 1020.9 1213.2C1017.3 1213.1 986.6 1213.5 975.9 1214.8C947.4 1218.4 915.7 1219.3 887.1 1220.3C874.8 1220.7 848.3 1223.1 835.9 1223.1C833.6 1223.1 835.4 1257.2 836 1262.2C836.6 1266.6 843.9 1267.1 846.8 1267.4C858 1268.6 870.6 1269.1 881.8 1268.5C919 1266.5 1045.5 1257 1057.7 1254.6" stroke="#161616" stroke-width="4" stroke-miterlimit="10" stroke-linecap="round" stroke-linejoin="round"/>
<path fill-rule="evenodd" clip-rule="evenodd" d="M861.3 1135.7C869.3 1135 916.3 1131.5 924.3 1130.9C952.3 1128.9 977.9 1127.1 986.4 1128.2C993.7 1129.2 1011.8 1129 1012.6 1141.2C1014.6 1168.7 1015.7 1176.6 1003.9 1178.5C972.6 1183.5 889.2 1187.3 858.2 1188.2C862.4 1185.1 868.6 1168.4 869.1 1159.6C869.7 1151.1 860.7 1133.1 861.3 1135.7Z" fill="#F7F2EE"/>
<path d="M861.3 1135.7C869.3 1135 916.3 1131.5 924.3 1130.9C952.3 1128.9 977.9 1127.1 986.4 1128.2C993.7 1129.2 1011.8 1129 1012.6 1141.2C1014.6 1168.7 1015.7 1176.6 1003.9 1178.5C972.6 1183.5 889.2 1187.3 858.2 1188.2C862.4 1185.1 868.6 1168.4 869.1 1159.6C869.7 1151.1 860.7 1133.1 861.3 1135.7Z" stroke="#1D1D1D" stroke-width="4" stroke-miterlimit="10" stroke-linecap="round" stroke-linejoin="round"/>
<path d="M1054.7 1229.8C1038.1 1227.4 1019.2 1230.4 1002.6 1230.7C962.1 1231.4 921.5 1231.7 881.1 1234.6" stroke="#161616" stroke-width="4" stroke-miterlimit="10" stroke-linecap="round" stroke-linejoin="round"/>
<path d="M860.9 1247.7C860.7 1247.6 864.2 1247.7 864.8 1247.7C868.8 1247.8 872.8 1247.9 876.9 1248C887.7 1248.4 898.4 1248.8 909.2 1248.5C941.6 1247.6 973.8 1241.2 1006.2 1240.2" stroke="#161616" stroke-width="4" stroke-miterlimit="10" stroke-linecap="round" stroke-linejoin="round"/>
<path d="M870.3 1154.5C869.4 1155.4 872.9 1154.4 874.2 1154.3C876.6 1154 879 1153.8 881.3 1153.5C888.2 1152.8 895.1 1151.9 902 1150.9C922.9 1148 944 1144.7 965.1 1143.6C970.8 1143.3 982.4 1142.1 986.3 1148C989.3 1152.6 968.9 1153 967.2 1153.2C948.7 1155.1 930.2 1157.8 911.9 1161.4C908.9 1162 895.3 1163.1 894.2 1167.1C893.9 1168 895.8 1168.3 896.3 1168.4C903.6 1169.6 911.7 1167.8 919 1166.8C933.7 1164.9 948.1 1165.5 962.8 1165.2" stroke="#1D1D1D" stroke-width="4" stroke-miterlimit="10" stroke-linecap="round" stroke-linejoin="round"/>
<path d="M754.2 1071.2C752.7 1066.4 765.7 1085 760.7 1096.3C756.6 1105.6 745.4 1105.8 747.2 1118.6C748.8 1129.7 762 1128.2 758.9 1141.7C756.8 1150.6 733.7 1164.6 747.2 1177.2C750.7 1180.4 756.5 1179.9 759.7 1183.5C774.7 1200.3 737.5 1198.2 743.3 1215.6C746.3 1224.5 761.4 1226.1 761.7 1235.8C762 1247.4 740.2 1251.1 744.4 1266.6C746.9 1276 761.6 1274.1 760.8 1290.6C760.3 1300.7 742.1 1294.5 742.9 1306.7C743.6 1317.7 763.6 1314.5 758.4 1329.2C754.9 1339.1 737.7 1338.7 739.5 1352.3C740.9 1363.2 757.5 1367.1 759 1374.4C762 1388.7 729.2 1387.3 745.2 1410.4C766.3 1440.8 774.5 1409.3 795.2 1411.1C805.6 1412 803.6 1428.6 817.2 1426.4C826.2 1424.9 831.2 1407.3 840.6 1410.2C849.6 1412.9 850.3 1425.7 858.8 1427.6C869.6 1430 874.9 1411.9 887.4 1414C896.2 1415.4 897 1428.4 907.4 1429.7C918.6 1431.1 921.5 1416.4 933.4 1417.5C942 1418.2 942.3 1429.6 952.4 1430.7C965.7 1432.1 965.8 1417.9 977.4 1417.6C986.9 1417.4 987.6 1428.8 996.4 1429.9C1007 1431.3 1008.2 1418.1 1017.1 1416.5C1026.8 1414.8 1032.2 1430.3 1042.3 1430.6C1049.2 1430.8 1052.4 1418.1 1060.2 1416.3C1071.4 1413.7 1069.5 1426 1077.8 1427.1C1084.9 1428 1087.5 1417 1094.5 1415.3C1107.6 1412.3 1111.2 1434.5 1138.5 1414C1138.7 1413.8 1138.9 1413.7 1139.1 1413.5C1139.2 1413.4 1139.3 1413.4 1139.4 1413.3C1139.5 1413.2 1139.6 1413.2 1139.7 1413.1C1139.8 1413 1139.9 1413 1140 1412.9C1150 1404.1 1134.5 1394.6 1136.8 1385.6C1138.4 1379.2 1157.3 1375.8 1152.8 1361.8C1150.6 1354.9 1138.4 1352.2 1139.6 1343.3C1140.5 1336.2 1153.7 1333.6 1155.1 1325.3C1157 1314.1 1139.5 1313 1139.9 1302.3C1140.2 1293.4 1152.2 1288 1151.7 1276.9C1151.4 1268.8 1139.2 1266 1141.3 1256.8C1143.1 1248.6 1154.1 1245.6 1154.5 1235.4C1154.8 1226.1 1140.7 1223.1 1142.4 1211C1143.6 1202.4 1156 1199.8 1156.6 1190.5C1157.4 1178.2 1144.8 1179.8 1142.5 1171.4C1139.8 1161.4 1155.9 1158.9 1157.5 1150.1C1158.1 1146.6 1156.4 1144 1154.2 1141.3C1150.7 1137.1 1143.8 1134 1142.2 1128.7C1140.5 1122.9 1153.3 1121.2 1156.5 1117.9C1171.1 1102.7 1143.3 1100.2 1145 1084.9C1145.3 1082.3 1177.9 1068.5 1150.4 1047.9C1132.2 1034.3 1122.8 1063.1 1105.7 1059.5C1095.4 1057.3 1097 1044.5 1085.7 1042.8C1069.3 1040.4 1068 1059.6 1051.4 1060.4C1039 1061 1031.7 1046 1018.6 1045.5C999.6 1044.8 997.5 1064.1 992.7 1064.7C986 1065.5 980.1 1048.2 970.8 1047.2C962.1 1046.2 958.3 1060.2 949.5 1061.6C939 1063.4 938.2 1045.9 927.7 1046.3C914.5 1046.9 914.3 1061.7 903.5 1062.6C893.1 1063.4 892.1 1053 884.2 1050.6C870.7 1046.6 869.4 1062.4 859.4 1062.2C846.5 1061.9 837.7 1047.2 825.5 1048.7C814.5 1050.1 812.5 1070.3 804.2 1065.4C791.9 1058 749.4 1035.8 754.2 1071.2Z" stroke="#1D1D1D" stroke-width="8" stroke-miterlimit="10" stroke-linecap="round" stroke-linejoin="round"/>
<path d="M1068.4 1082.9C1067.7 1082.3 1068.1 1082.9 1068.1 1084.2C1068.1 1097.3 1069.6 1110.6 1068.7 1123.6" stroke="#1D1D1D" stroke-width="4" stroke-miterlimit="10" stroke-linecap="round" stroke-linejoin="round"/>
<path d="M1056.5 1104.1C1053.7 1104.8 1080.9 1100.3 1087.9 1099.5" stroke="#1D1D1D" stroke-width="4" stroke-miterlimit="10" stroke-linecap="round" stroke-linejoin="round"/>
<path d="M1080.3 1089.7C1080.5 1092.6 1061.9 1108.7 1058 1112.5" stroke="#1D1D1D" stroke-width="4" stroke-miterlimit="10" stroke-linecap="round" stroke-linejoin="round"/>
<path d="M1057.6 1089.4C1057.4 1089.1 1057.3 1089.4 1057.5 1089.6C1060 1092.8 1063.5 1095.5 1066.6 1098C1072.9 1103.1 1081.3 1107.5 1086.3 1114" stroke="#1D1D1D" stroke-width="4" stroke-miterlimit="10" stroke-linecap="round" stroke-linejoin="round"/>
<path d="M796.1 1160.7C796.4 1160.8 796.3 1162.8 796.3 1163.1C796.7 1172.1 798.5 1181.3 798.5 1190.3" stroke="#1D1D1D" stroke-width="4" stroke-miterlimit="10" stroke-linecap="round" stroke-linejoin="round"/>
<path d="M785.4 1177.7C792.1 1177.3 800.2 1173.6 807.1 1172.5" stroke="#1D1D1D" stroke-width="4" stroke-miterlimit="10" stroke-linecap="round" stroke-linejoin="round"/>
<path d="M807.1 1161.3C807.1 1161.3 801.2 1168 800.7 1168.6C796.8 1173.8 793.4 1179.6 789.8 1185" stroke="#1D1D1D" stroke-width="4" stroke-miterlimit="10" stroke-linecap="round" stroke-linejoin="round"/>
<path d="M786.4 1166C786.1 1165.9 787.6 1167.3 787.8 1167.4C789.8 1168.9 791.7 1170.4 793.8 1171.7C799.2 1175.3 804.6 1178.8 809.8 1182.8" stroke="#1D1D1D" stroke-width="4" stroke-miterlimit="10" stroke-linecap="round" stroke-linejoin="round"/>
<path d="M753.8 249.5C753.6 251.7 750.2 243 749.9 242.1C746.6 233.3 749.2 224.6 758.7 221.5C766.2 219.1 772.9 228.3 779.7 225.3C791 220.2 779.5 203.4 791.5 199.7C800.1 197 806.7 207.3 814.8 204.7C815.6 204.4 816.3 203.9 817 203.4C825.7 195.9 818.9 181.4 830.9 175.5C844.5 168.8 842.3 185 852 185.4C864.4 186 864.2 168.8 873.6 163.9C881.7 159.6 887.5 173.1 895.8 169.8C905.2 166.1 899.4 151.2 908.1 146.4C918.1 140.9 924.3 153.7 932.9 149.9C939.6 147 939.1 138.8 944.9 134.8C954.4 128.4 959.7 140.4 965.7 138.1C974.3 134.8 972.8 122.4 983.9 119.9C992.3 118 994.2 130.9 1002.6 128.3C1011.7 125.5 1012.3 115.1 1024.5 115.5C1042.4 116.2 1029.4 133.3 1036.6 140.2C1045.4 148.7 1060.6 137.6 1064.1 155.6C1066.3 166.9 1054.3 172.4 1063.6 183.5C1068.9 189.8 1078.8 186.6 1082.9 193.4C1089.8 204.7 1073.9 218.6 1083.6 229.3C1090 236.5 1103.9 228.7 1107 239.9C1110.2 251.3 1099.3 261.5 1105.9 272.9C1110.1 280.2 1122.7 275.2 1126.1 284.5C1129.2 292.9 1113.8 299.3 1118.8 307.7C1123.5 315.5 1138.2 309.2 1140.6 319.7C1142.5 327.9 1132.6 330.8 1133.3 338.3C1134.4 351.7 1159.1 356.2 1153.8 372.7C1153.3 374.3 1152.6 375.7 1151.8 377.2C1138.8 400.7 1127.7 382.4 1113 390.6C1104.6 395.3 1115.4 407.3 1104.7 412.8C1097.1 416.7 1076.6 405.4 1073.4 415.2C1072.3 418.5 1075.4 421.4 1074.4 424.8C1073.5 427.9 1070.5 430.2 1067.5 431.5C1058.1 435.5 1047.7 427.1 1038.5 431.3C1034.2 433.3 1037.9 446.4 1027.9 452.7C1019.2 458.2 1010.6 445.9 1002.4 449.6C996.4 452.3 999.4 469.2 992.4 474C977.5 484.2 972.1 467.8 965.7 469.5C958 471.5 960.7 487 953.5 491.8C939.7 500.9 935 482.2 925.9 484.2C921.3 485.2 922.7 496.3 919.2 499.7C910.5 508.4 906.2 488.1 898.7 489C894.3 489.5 882.2 501.4 874.2 506.5C867 511.1 864.5 506.3 857.6 503.6C833.3 494.2 856.7 478.4 849.3 469.1C845 463.8 822.5 469 823.5 451.1C823.8 444.9 833.8 446.2 835.9 441.3C837.6 437.4 836.3 433 833.6 429.7C825.6 420 810.7 430.3 806.9 412.6C804.7 402.3 820 399.5 816.6 388.6C813.2 377.6 794.4 391.4 788.8 380.6C778.2 360.2 803.9 358.5 799.8 345.4C796 333.4 776.3 343.5 769.7 329.5C765.6 320.8 785.8 312.4 780.7 300.9C773.8 285.3 761 305.2 752.2 291.9C747.5 284.8 765 274.3 761.2 271.2C760.4 270.5 752.1 275.2 750.5 275.4C738 276.8 732.7 265.9 733.2 255.6C733.6 247.7 744 249.3 750 247.6" stroke="#1D1D1D" stroke-width="8" stroke-miterlimit="10" stroke-linecap="round" stroke-linejoin="round"/>
<path fill-rule="evenodd" clip-rule="evenodd" d="M976.9 436.7C1039.6 407.6 1119.3 359.1 1119.3 359.1C1119.3 359.1 1078.7 262.1 1045.3 196.3C1034.1 180.7 994.2 195 977.2 200.2C949.4 208.7 910.2 238.3 899.8 256.8C856.5 333.4 896.7 422.3 976.9 436.7Z" fill="#1D1D1D"/>
<path d="M976.9 436.7C1039.6 407.6 1119.3 359.1 1119.3 359.1C1119.3 359.1 1078.7 262.1 1045.3 196.3C1034.1 180.7 994.2 195 977.2 200.2C949.4 208.7 910.2 238.3 899.8 256.8C856.5 333.4 896.7 422.3 976.9 436.7Z" stroke="#1D1D1D" stroke-width="4" stroke-miterlimit="10" stroke-linecap="round" stroke-linejoin="round"/>
<path d="M1036.8 280C1039.5 281.8 1030.5 277.7 1027.3 278.1C997.3 281.6 970.6 324 997.1 347.5C1034.2 380.5 1093.7 324.8 1054.3 291.6" stroke="#F7F2EE" stroke-width="4" stroke-miterlimit="10" stroke-linecap="round" stroke-linejoin="round"/>
<path d="M1025.5 308.2C1022.9 306.5 1011.2 321.2 1021.2 329C1029.8 335.7 1044.4 323.7 1035 315.6" stroke="#F7F2EE" stroke-width="4" stroke-miterlimit="10" stroke-linecap="round" stroke-linejoin="round"/>
<path d="M915.9 355.2C910.7 351.2 909.9 332.3 909.1 326.5C903.9 287.9 931.9 251.2 965.9 234.8" stroke="#F7F2EE" stroke-width="4" stroke-miterlimit="10" stroke-linecap="round" stroke-linejoin="round"/>
<path d="M948.2 336.8C947.9 337.1 946.4 331.8 946.4 331.6C945.4 326 944.9 320.2 945.5 314.5C947 299.8 957.2 284.8 969.7 277.3" stroke="#F7F2EE" stroke-width="4" stroke-miterlimit="10" stroke-linecap="round" stroke-linejoin="round"/>
<path d="M1093 323.6C1092 322.3 1093.2 327.2 1093.1 328.9C1092.8 332.3 1092.3 335.8 1091.5 339.1C1089.1 348.7 1085.1 359.9 1078.7 366.9" stroke="#F7F2EE" stroke-width="4" stroke-miterlimit="10" stroke-linecap="round" stroke-linejoin="round"/>
<path d="M839 249.3C839.1 249 838.6 248.8 838.4 248.7C826.9 243.6 818.9 276.2 836.6 271.4C852.3 267.1 843 218.1 841.4 206.9C841.3 206.1 842 208.4 842.3 209.2C842.8 210.4 843.3 211.6 843.9 212.7C846.1 217 848.5 221.2 851.5 225C855.7 230.2 891.4 263.7 861.4 261.4" stroke="#1D1D1D" stroke-width="8" stroke-miterlimit="10" stroke-linecap="round" stroke-linejoin="round"/>
<path d="M820 315.3C821.7 316.2 825.5 324 827.4 325.9C832.2 330.7 877.3 366.4 854.1 374.8C839 380.3 833 355.7 851 351.5" stroke="#1D1D1D" stroke-width="8" stroke-miterlimit="10" stroke-linecap="round" stroke-linejoin="round"/>
<path d="M1101.9 192.7C1101.8 192.7 1105.1 186 1105.4 185.6C1108.2 181.2 1111.2 177 1114.7 173.2C1125.5 161.3 1140.3 153 1155.1 147.6C1220.3 124 1233.8 144.5 1273.8 86.3" stroke="#1D1D1D" stroke-width="4" stroke-miterlimit="10" stroke-linecap="round" stroke-linejoin="round"/>
<path d="M1120.3 224.9C1120.2 225.1 1120.4 224.3 1120.4 224.3C1122.3 218.6 1128.5 212.8 1132.7 208.9C1142.3 200 1154.6 192.9 1166.9 188.4C1200.4 176.2 1244.8 185.7 1268.5 154" stroke="#1D1D1D" stroke-width="4" stroke-miterlimit="10" stroke-linecap="round" stroke-linejoin="round"/>
<path d="M1142.7 264.2C1140.8 263.3 1149.8 251.8 1150.2 251.4C1154.1 247.1 1158.4 243.3 1163.1 239.8C1163.8 239.3 1164.6 238.8 1165.3 238.2C1194.4 214.2 1207 222.4 1233.6 222.8C1242.5 222.9 1257.4 218.2 1263.2 208.7" stroke="#1D1D1D" stroke-width="4" stroke-miterlimit="10" stroke-linecap="round" stroke-linejoin="round"/>
</svg>
