<svg width="1500" height="1500" viewBox="0 0 1500 1500" fill="none" xmlns="http://www.w3.org/2000/svg">
<rect width="1500" height="1500" fill="#F7F2EE"/>
<path fill-rule="evenodd" clip-rule="evenodd" d="M396.9 828.8C426.3 829.4 336.9 714.9 367.1 715.6C370.7 715.7 400.7 703.8 399.3 696.6C395.5 678 340.7 618.1 345.1 607.2C351 592.5 405.2 640.4 399.1 614.7C397.2 606.5 389.2 592.9 379.9 578.2C376.9 573.5 373.8 568.7 370.6 564C360.1 548.1 349.6 532.7 344.5 523C337.3 509.2 336.6 482 355.5 475C372.9 468.5 395.9 489.5 405.1 478.2C419.4 460.7 381.3 424.1 407.7 409.5C434.3 394.8 436.5 435.7 449.2 429.9C467.4 421.5 455.7 366.5 517.3 375.5C529.7 377.3 540.1 385.1 549.1 393.3C587.3 428.2 560.2 458.5 584.1 495.9C595.1 513.1 630.5 512 626.7 538.1C622.5 567 577.8 552.6 573.5 576.7C569.5 598.5 638.7 579.9 608.8 648.9C601.5 665.8 656.9 653.9 666.8 677.3C677.7 703.1 647.4 744.7 644.5 746.9" fill="#F7F2EE"/>
<path d="M396.9 828.8C426.3 829.4 336.9 714.9 367.1 715.6C370.7 715.7 400.7 703.8 399.3 696.6C395.5 678 340.7 618.1 345.1 607.2C351 592.5 405.2 640.4 399.1 614.7C397.2 606.5 389.2 592.9 379.9 578.2C376.9 573.5 373.8 568.7 370.6 564C360.1 548.1 349.6 532.7 344.5 523C337.3 509.2 336.6 482 355.5 475C372.9 468.5 395.9 489.5 405.1 478.2C419.4 460.7 381.3 424.1 407.7 409.5C434.3 394.8 436.5 435.7 449.2 429.9C467.4 421.5 455.7 366.5 517.3 375.5C529.7 377.3 540.1 385.1 549.1 393.3C587.3 428.2 560.2 458.5 584.1 495.9C595.1 513.1 630.5 512 626.7 538.1C622.5 567 577.8 552.6 573.5 576.7C569.5 598.5 638.7 579.9 608.8 648.9C601.5 665.8 656.9 653.9 666.8 677.3C677.7 703.1 647.4 744.7 644.5 746.9" stroke="#161616" stroke-width="8" stroke-miterlimit="10" stroke-linecap="round" stroke-linejoin="round"/>
<path d="M701.3 688.8C683.3 668.3 640 650.1 614.8 676.4C567.7 725.5 637.7 868.2 702.9 866.5C765.6 864.9 840.3 737.4 816.5 682.7C812.7 673.8 800.4 665.3 791 663.9C740.2 656.4 754.6 693.9 729.1 700.7C719.3 703.2 709 693.6 701.3 688.8Z" stroke="#161616" stroke-width="8" stroke-miterlimit="10" stroke-linecap="round" stroke-linejoin="round"/>
<path opacity="0.9116" fill-rule="evenodd" clip-rule="evenodd" d="M654.4 108.9C644.5 117.7 632.6 141.5 624.2 168.9C616.1 195.5 606 222.3 598.5 238.8C580.3 279.1 459.1 242 402.2 292.7C381.4 311.2 421 327.8 489.4 339.2C500.8 341.1 513 342.9 525.8 344.4C705.8 366.7 1013.9 357.6 1045.8 274.9C1058.9 241 846.9 265 833.6 243C821 222.2 790.5 118.8 763 119.9C748.6 120.5 729.9 133.5 715.8 135.2C697.5 137.5 672.7 92.8 654.4 108.9Z" fill="#6A308E"/>
<path d="M654.4 108.9C644.5 117.7 632.6 141.5 624.2 168.9C616.1 195.5 606 222.3 598.5 238.8C580.3 279.1 459.1 242 402.2 292.7C381.4 311.2 421 327.8 489.4 339.2C500.8 341.1 513 342.9 525.8 344.4C705.8 366.7 1013.9 357.6 1045.8 274.9C1058.9 241 846.9 265 833.6 243C821 222.2 790.5 118.8 763 119.9C748.6 120.5 729.9 133.5 715.8 135.2C697.5 137.5 672.7 92.8 654.4 108.9Z" stroke="#161616" stroke-width="8" stroke-miterlimit="10" stroke-linecap="round" stroke-linejoin="round"/>
<path fill-rule="evenodd" clip-rule="evenodd" d="M596.5 252.2C595.9 253.5 643.8 264 655.8 266C706.9 274.3 757.2 271 805.1 251.3C809.8 249.4 819.1 248.2 822.8 244.4C826.5 240.7 803 220.6 792.4 218.9C791.7 218.8 780.2 227.4 778.5 228.2C763.5 234.6 747.8 237.5 731.5 237.9C691.5 239 676.6 239.5 641 225.9C636.9 224.3 627.2 213.7 615.5 212.2C606.8 211.1 602.8 236.4 598.5 243.8" fill="#F7F2EE"/>
<path d="M596.5 252.2C595.9 253.5 643.8 264 655.8 266C706.9 274.3 757.2 271 805.1 251.3C809.8 249.4 819.1 248.2 822.8 244.4C826.5 240.7 803 220.6 792.4 218.9C791.7 218.8 780.2 227.4 778.5 228.2C763.5 234.6 747.8 237.5 731.5 237.9C691.5 239 676.6 239.5 641 225.9C636.9 224.3 627.2 213.7 615.5 212.2C606.8 211.1 602.8 236.4 598.5 243.8" stroke="#161616" stroke-width="8" stroke-miterlimit="10" stroke-linecap="round" stroke-linejoin="round"/>
<path d="M632.3 352.6C632.2 352.5 639.2 383.1 645.5 395.3C658.7 421.1 680 449.7 710 456.3C766.9 468.8 799.7 403.1 806.9 357.3" stroke="#161616" stroke-width="8" stroke-miterlimit="10" stroke-linecap="round" stroke-linejoin="round"/>
<path d="M695.2 404.9C695.2 404.9 695.2 405.4 695.3 405.4C695.6 409.2 697.7 413.5 699.6 416.7C703.8 423.9 711.7 433.3 720.4 434.9C741.7 438.9 748.9 415.4 753.2 400.5" stroke="#161616" stroke-width="8" stroke-miterlimit="10" stroke-linecap="round" stroke-linejoin="round"/>
<path d="M730.3 356.6C729.4 356.8 732.8 365 733 365.9C734.7 371.6 732.6 373.9 728.1 377" stroke="#161616" stroke-width="8" stroke-miterlimit="10" stroke-linecap="round" stroke-linejoin="round"/>
<path d="M683.8 447.5C687.1 452.6 685 470 681.9 481.9C675.3 507.2 651 534.1 618.8 551.1" stroke="#161616" stroke-width="8" stroke-miterlimit="10" stroke-linecap="round" stroke-linejoin="round"/>
<path d="M760.4 449.5C760.3 451.7 760.2 473.3 766.4 486.9C779.2 514.6 796.4 533.5 822.7 546.7" stroke="#161616" stroke-width="8" stroke-miterlimit="10" stroke-linecap="round" stroke-linejoin="round"/>
<path fill-rule="evenodd" clip-rule="evenodd" d="M855.8 108.8C855.6 109 832.4 85.6 821 91.6C807.2 98.9 775.2 130.2 772.7 152.6C768.3 193.1 811 239.9 862.1 263.4C906.9 283.9 958.9 285.4 978.2 262.4C997.8 238.9 1001.4 225.3 996.5 213.2C990.1 197.6 971.5 192.3 971.8 189.3C972.7 180 983.4 159.1 976.1 149.7C967.2 138.4 951.8 166.9 937.9 156.7C931.8 152.2 890.2 125.6 887.5 118.1C885 111.1 905.2 77.2999 884.1 89.1999C875.9 93.5999 863.3 103.8 855.8 108.8Z" fill="#F7F2EE"/>
<path d="M855.8 108.8C855.6 109 832.4 85.6 821 91.6C807.2 98.9 775.2 130.2 772.7 152.6C768.3 193.1 811 239.9 862.1 263.4C906.9 283.9 958.9 285.4 978.2 262.4C997.8 238.9 1001.4 225.3 996.5 213.2C990.1 197.6 971.5 192.3 971.8 189.3C972.7 180 983.4 159.1 976.1 149.7C967.2 138.4 951.8 166.9 937.9 156.7C931.8 152.2 890.2 125.6 887.5 118.1C885 111.1 905.2 77.2999 884.1 89.1999C875.9 93.5999 863.3 103.8 855.8 108.8Z" stroke="#161616" stroke-width="8" stroke-miterlimit="10" stroke-linecap="round" stroke-linejoin="round"/>
<path d="M844.9 154.8C844.3 154.8 848.1 154.3 848.7 154.3C851.7 154 854.8 153.4 857.7 154.3C864.4 156.4 865.3 164.4 865.3 170.4" stroke="#161616" stroke-width="4" stroke-miterlimit="10" stroke-linecap="round" stroke-linejoin="round"/>
<path d="M901.2 195.1C900.3 196.4 902.3 194.6 903.1 194.3C907.5 192.3 912.4 190.6 917.3 191.1C927 192 929.2 200.5 931 208.5" stroke="#161616" stroke-width="4" stroke-miterlimit="10" stroke-linecap="round" stroke-linejoin="round"/>
<path d="M877.1 190.1C866.6 191.5 876.3 207.1 879.3 198.4C880 196.4 879.2 194.1 878.1 192.4" stroke="#161616" stroke-width="4" stroke-miterlimit="10" stroke-linecap="round" stroke-linejoin="round"/>
<path d="M873.1 199.9C872.7 199.7 870.8 202.9 870.6 203.2C865.2 210.1 861.3 219.9 851.3 217.6C838.2 214.7 832.8 189.5 843.7 190.7" stroke="#161616" stroke-width="4" stroke-miterlimit="10" stroke-linecap="round" stroke-linejoin="round"/>
<path d="M860.3 216.8C856.5 235 900.1 240.5 890 222C889.1 220.3 887.9 219.4 886 219.2" stroke="#161616" stroke-width="4" stroke-miterlimit="10" stroke-linecap="round" stroke-linejoin="round"/>
<path fill-rule="evenodd" clip-rule="evenodd" d="M729.1 129.8C730.6 137.8 738.9 149.7 744.8 151.5C764.5 157.6 787.3 127.5 781.4 115.4C767.3 86.2001 725 107.9 729.1 129.8Z" fill="#F7F2EE"/>
<path d="M729.1 129.8C730.6 137.8 738.9 149.7 744.8 151.5C764.5 157.6 787.3 127.5 781.4 115.4C767.3 86.2001 725 107.9 729.1 129.8Z" stroke="#161616" stroke-width="8" stroke-miterlimit="10" stroke-linecap="round" stroke-linejoin="round"/>
<path fill-rule="evenodd" clip-rule="evenodd" d="M1013.1 240.5C984.1 237.9 987.3 276.3 995.6 280.4C1039.4 302.1 1037.5 242.7 1013.1 240.5Z" fill="#F7F2EE"/>
<path d="M1013.1 240.5C984.1 237.9 987.3 276.3 995.6 280.4C1039.4 302.1 1037.5 242.7 1013.1 240.5Z" stroke="#161616" stroke-width="8" stroke-miterlimit="10" stroke-linecap="round" stroke-linejoin="round"/>
<path d="M948.9 227C947.7 227.2 951 225.8 952.1 225.3C953.8 224.4 955.6 223.6 957.3 222.8C963.6 219.9 970.1 218.4 977 217.8C996.3 216.3 1016.2 218.8 1036.7 226.4" stroke="#161616" stroke-width="4" stroke-miterlimit="10" stroke-linecap="round" stroke-linejoin="round"/>
<path d="M826.7 148.5C826.2 149.3 826.1 146.7 825.8 145.8C825.3 143.9 824.8 141.9 824.2 140C822.6 134.2 820.8 128.3 818.7 122.6C812.8 106.1 805.5 88.1 794.6 74.2" stroke="#161616" stroke-width="4" stroke-miterlimit="10" stroke-linecap="round" stroke-linejoin="round"/>
<path d="M807.9 154.2C809 155.9 805.7 150.9 804.6 149.3C801.8 145.2 799.3 141 796.1 137.2C786.9 126.4 765.8 122.4 751.4 119.5" stroke="#161616" stroke-width="4" stroke-miterlimit="10" stroke-linecap="round" stroke-linejoin="round"/>
<path d="M799.1 168.9C793.6 165.4 785 161.1 779.8 160.3C760.6 157.4 747.3 158.3 734.8 167" stroke="#161616" stroke-width="4" stroke-miterlimit="10" stroke-linecap="round" stroke-linejoin="round"/>
<path d="M943.2 242.4C942.1 241.3 948.5 242.9 949.2 243.1C955.5 244.8 968.5 245 974.5 247.5C989.4 253.7 999.1 256.8 1006.5 272.4" stroke="#161616" stroke-width="4" stroke-miterlimit="10" stroke-linecap="round" stroke-linejoin="round"/>
<path d="M934.1 257.6C934.1 257.4 942 261.6 947.5 265.9C957.7 274.1 961.3 280.3 966.5 292.3" stroke="#161616" stroke-width="4" stroke-miterlimit="10" stroke-linecap="round" stroke-linejoin="round"/>
<path opacity="0.9116" fill-rule="evenodd" clip-rule="evenodd" d="M934.3 154.5C936.2 153.8 907.7 138.8 900.3 130.4C897.4 127 892.7 123.5 893.1 125.8C894.6 135 885.2 142.8 885.9 144.1C888 148.1 893.7 141.1 895.2 143C897.1 145.5 893.3 149.6 895.5 152.4C897.4 154.9 904 150 906.8 151.7C909.6 153.3 907.8 157.7 910.4 159.1C912.6 160.3 916.2 157.2 917.9 159C919.1 160.3 917.1 166.3 919.6 166.6C923.7 167.1 930.7 155.9 934.3 154.5Z" fill="black"/>
<path d="M934.3 154.5C936.2 153.8 907.7 138.8 900.3 130.4C897.4 127 892.7 123.5 893.1 125.8C894.6 135 885.2 142.8 885.9 144.1C888 148.1 893.7 141.1 895.2 143C897.1 145.5 893.3 149.6 895.5 152.4C897.4 154.9 904 150 906.8 151.7C909.6 153.3 907.8 157.7 910.4 159.1C912.6 160.3 916.2 157.2 917.9 159C919.1 160.3 917.1 166.3 919.6 166.6C923.7 167.1 930.7 155.9 934.3 154.5Z" stroke="#161616" stroke-width="4" stroke-miterlimit="10" stroke-linecap="round" stroke-linejoin="round"/>
<path d="M919.7 141.6C921.2 122.4 943.2 89.5999 973.6 81.4999C994.2 75.9999 1025.4 91.2999 1031 93.6999" stroke="#161616" stroke-width="8" stroke-miterlimit="10" stroke-linecap="round" stroke-linejoin="round"/>
<path d="M1037.5 93.0999C1037.8 92.9999 1036.7 93.1 1036.7 92.8C1036.2 90.4 1036.5 87.6999 1037.4 85.4999C1039.1 80.7999 1044.5 77.6 1048.9 75.9C1084.3 61.3 1086.5 124.6 1095.9 143.4C1099 149.7 1105 156.4 1112.7 156.1C1115.8 156 1118.9 155 1121.9 154C1122.4 153.8 1126.9 151.6 1126 153C1120.9 161.3 1107 164.5 1098.4 166C1072.2 170.5 1042.6 164.9 1028.3 140.2C1025.8 135.9 1023.7 131.4 1022.8 126.5C1021.7 120.3 1022.5 99.4999 1031.6 97.4999" stroke="#161616" stroke-width="8" stroke-miterlimit="10" stroke-linecap="round" stroke-linejoin="round"/>
<path d="M1038.4 95.8999C1038.4 95.8999 1038.5 97.8999 1038.5 98.0999C1038.6 99.7999 1038.8 101.4 1039.1 103.1C1039.9 107.4 1041.1 111.5 1042.8 115.6C1047.8 128 1058.8 144.6 1076.1 140.8" stroke="#161616" stroke-width="8" stroke-miterlimit="10" stroke-linecap="round" stroke-linejoin="round"/>
<path d="M487.9 260.5C475.2 254 471.6 239.3 468.8 234.2C428.3 160.2 478.9 128.7 494.8 148.6C504.9 161.3 464.7 151.4 472.8 176.9C479.4 197.4 518.5 196.9 530 179.8C542.1 162 525.5 126.9 487 120.1C410.1 106.4 420.1 231.4 445.9 268.2" stroke="#161616" stroke-width="8" stroke-miterlimit="10" stroke-linecap="round" stroke-linejoin="round"/>
<path d="M542 254.4C541.4 254.8 551.5 231.7 554.9 227.4C568.2 210.3 586.4 199.7 607.9 199.7" stroke="#161616" stroke-width="8" stroke-miterlimit="10" stroke-linecap="round" stroke-linejoin="round"/>
<path d="M429.7 193.2C429.7 193.2 434.6 195.8 435.6 198.1C436.8 200.9 459.1 267.2 440.3 253.7" stroke="#161616" stroke-width="8" stroke-miterlimit="10" stroke-linecap="round" stroke-linejoin="round"/>
<path d="M433 203.1C433.1 202.9 433.1 203.1 433 203.1C433.1 206.7 433.9 210.4 434.6 214C436.7 225.5 438.8 237.6 442.4 248.8C442.4 248.9 443.1 250.7 443.2 250.6" stroke="#161616" stroke-width="8" stroke-miterlimit="10" stroke-linecap="round" stroke-linejoin="round"/>
<path fill-rule="evenodd" clip-rule="evenodd" d="M490.8 772.7C488.4 774.3 495.9 769.9 497.2 768.6C502.7 763 507.8 757 513.4 751.6C531.1 734.2 533.5 756.9 548.9 752.5C554.1 751 560.7 740.9 566.3 743.9C573.7 747.8 576.3 759.9 585.4 761.2C592 762.1 601.4 748.5 605.5 750.4C612.3 753.5 609.5 773.8 615.7 779.3C620.9 783.9 627.1 769.5 630.9 772.7C634.3 775.6 634.1 792.4 635.5 797.2C640.5 814.2 653.3 811.1 646.2 826.5C641.3 837.2 636.2 847.8 631.2 858.4" fill="#F7F2EE"/>
<path d="M490.8 772.7C488.4 774.3 495.9 769.9 497.2 768.6C502.7 763 507.8 757 513.4 751.6C531.1 734.2 533.5 756.9 548.9 752.5C554.1 751 560.7 740.9 566.3 743.9C573.7 747.8 576.3 759.9 585.4 761.2C592 762.1 601.4 748.5 605.5 750.4C612.3 753.5 609.5 773.8 615.7 779.3C620.9 783.9 627.1 769.5 630.9 772.7C634.3 775.6 634.1 792.4 635.5 797.2C640.5 814.2 653.3 811.1 646.2 826.5C641.3 837.2 636.2 847.8 631.2 858.4" stroke="#161616" stroke-width="8" stroke-miterlimit="10" stroke-linecap="round" stroke-linejoin="round"/>
<path d="M453.5 945.6C454.1 943.2 451.8 950.4 451.1 952.8C450.3 955.5 446.5 963 448.8 965.5C453.5 970.5 465.4 951.6 468.7 953.3C472.4 955.2 464 972 471.6 974.1C480.1 976.4 481.8 956.9 488.1 956.4C490.9 956.1 490.6 970.6 494.7 971.2C497.6 971.6 499 964.1 500.9 962.6C503.6 960.5 507.1 965.4 510.1 965.1C516.4 964.5 519.9 956.6 521.8 951.5" stroke="#161616" stroke-width="4" stroke-miterlimit="10" stroke-linecap="round" stroke-linejoin="round"/>
<path d="M506.2 1016.5C504.9 1017.1 512.7 1034.6 517.6 1032.8C523.2 1030.8 520.5 1020.9 525.2 1018.6C528.3 1017.1 533.6 1029.3 537.1 1030C540.1 1030.6 541.3 1021.9 543.2 1020.3C545.8 1018.1 553.4 1020.4 557.1 1018.5" stroke="#161616" stroke-width="4" stroke-miterlimit="10" stroke-linecap="round" stroke-linejoin="round"/>
<path fill-rule="evenodd" clip-rule="evenodd" d="M408.8 880.8C408.8 880.8 405.2 868 404.7 865.5C403.3 859.2 395.5 838.2 401.1 832.6C404.2 829.5 413.4 840.1 415.3 834.7C419.4 823.3 401.5 800.9 412.1 791.2C419.4 784.5 433.6 800.3 438.4 795.1C443.6 789.5 437.9 770.5 446.6 767.9C455.4 765.2 461.9 787.5 469.1 783.9C474.5 781.2 472.3 760.1 477.1 760.1C481.8 760.1 488.9 787.9 496.9 788.2C504.8 788.6 504.5 770 511.3 770C516.7 770 515.1 787.5 522.1 787.7C528.1 787.8 530.8 775.2 535.9 776.3C542 777.6 541.4 792.6 549.9 794.6C560.1 797 565 783.8 573.1 784.3C578 784.6 575.1 803.2 579 806.7C585.4 812.3 600.3 787.4 600.5 810.2C600.5 813 600.3 815.8 600 818.6C599.6 822.6 598.8 826.6 597.9 830.6" fill="#F7F2EE"/>
<path d="M408.8 880.8C408.8 880.8 405.2 868 404.7 865.5C403.3 859.2 395.5 838.2 401.1 832.6C404.2 829.5 413.4 840.1 415.3 834.7C419.4 823.3 401.5 800.9 412.1 791.2C419.4 784.5 433.6 800.3 438.4 795.1C443.6 789.5 437.9 770.5 446.6 767.9C455.4 765.2 461.9 787.5 469.1 783.9C474.5 781.2 472.3 760.1 477.1 760.1C481.8 760.1 488.9 787.9 496.9 788.2C504.8 788.6 504.5 770 511.3 770C516.7 770 515.1 787.5 522.1 787.7C528.1 787.8 530.8 775.2 535.9 776.3C542 777.6 541.4 792.6 549.9 794.6C560.1 797 565 783.8 573.1 784.3C578 784.6 575.1 803.2 579 806.7C585.4 812.3 600.3 787.4 600.5 810.2C600.5 813 600.3 815.8 600 818.6C599.6 822.6 598.8 826.6 597.9 830.6" stroke="#161616" stroke-width="8" stroke-miterlimit="10" stroke-linecap="round" stroke-linejoin="round"/>
<path opacity="0.9116" fill-rule="evenodd" clip-rule="evenodd" d="M451.1 864.5C452.2 866.2 451.1 860.4 451.2 858.3C451.3 855.1 451.6 851.9 452 848.7C452.8 842.3 457.2 808 465 807.5C477.4 806.7 485.4 826 498 826.7C507.8 827.2 516.6 806.7 526 811.4C534.7 815.8 531.3 834.5 541 837.6C550.9 840.8 554.8 820.9 563.3 821.1C566.1 821.2 571.5 840.4 579 843.6C592.2 849.3 610.2 837.1 617.4 840.3C623.3 842.9 615.3 862.5 619.4 868.1C624.4 875 642.1 864.6 643 865.9C650.6 877.2 583.5 953.7 570.5 962.3" fill="black"/>
<path d="M451.1 864.5C452.2 866.2 451.1 860.4 451.2 858.3C451.3 855.1 451.6 851.9 452 848.7C452.8 842.3 457.2 808 465 807.5C477.4 806.7 485.4 826 498 826.7C507.8 827.2 516.6 806.7 526 811.4C534.7 815.8 531.3 834.5 541 837.6C550.9 840.8 554.8 820.9 563.3 821.1C566.1 821.2 571.5 840.4 579 843.6C592.2 849.3 610.2 837.1 617.4 840.3C623.3 842.9 615.3 862.5 619.4 868.1C624.4 875 642.1 864.6 643 865.9C650.6 877.2 583.5 953.7 570.5 962.3" stroke="#161616" stroke-width="8" stroke-miterlimit="10" stroke-linecap="round" stroke-linejoin="round"/>
<path fill-rule="evenodd" clip-rule="evenodd" d="M410.3 929.2C410.7 931.3 408.3 925.4 407.2 923.5C405.4 920.4 403.5 917.3 401.8 914.1C398.1 907.1 384.9 887.9 388 879.3C388.3 878.4 389.6 878.4 390.4 878.6C398.7 880.4 415.5 895.9 424 891.4C430.1 888.1 427.7 852.8 433.1 851.3C437.1 850.2 449.8 873.1 458.4 872.8C472.7 872.2 473.3 846 485.3 844.7C491.7 844 494.5 866.7 505.2 869C516.4 871.3 533.3 853.1 536.5 854.8C543.8 858.6 537.1 875.4 546.1 880.1C556 885.4 586.5 868.3 589 872.9C591.3 877.1 557.7 939.3 553.6 947.6" fill="#F7F2EE"/>
<path d="M410.3 929.2C410.7 931.3 408.3 925.4 407.2 923.5C405.4 920.4 403.5 917.3 401.8 914.1C398.1 907.1 384.9 887.9 388 879.3C388.3 878.4 389.6 878.4 390.4 878.6C398.7 880.4 415.5 895.9 424 891.4C430.1 888.1 427.7 852.8 433.1 851.3C437.1 850.2 449.8 873.1 458.4 872.8C472.7 872.2 473.3 846 485.3 844.7C491.7 844 494.5 866.7 505.2 869C516.4 871.3 533.3 853.1 536.5 854.8C543.8 858.6 537.1 875.4 546.1 880.1C556 885.4 586.5 868.3 589 872.9C591.3 877.1 557.7 939.3 553.6 947.6" stroke="#161616" stroke-width="8" stroke-miterlimit="10" stroke-linecap="round" stroke-linejoin="round"/>
<path d="M385.3 986.2C386.6 984.6 410.9 978.1 410 974.3C409.3 971.1 382.7 970.7 385.6 964.4C390.5 953.6 415 956.3 420.9 948.1C421.2 947.7 416.8 947.4 416.5 947.3C411.5 946.7 405.2 944.5 408.2 939C413.6 929.3 431.5 927.2 441.8 923.9C454 919.9 466.2 913 479.5 912.6C520.7 911.4 566.3 956.2 578.6 987.7C582.9 998.7 576.7 998.6 563.9 997.1C563.5 997 560.9 996.6 561.3 997.6C564.3 1006.1 602 1027.3 598.2 1038.8C596.7 1043.2 568.7 1038.2 569.4 1041.3C570.2 1045 582.6 1049.7 585.6 1053C599.2 1067.8 619.6 1120.4 613.4 1136.7C611.9 1140.5 586.1 1126.4 585.3 1133.4C584.4 1142.3 609.4 1179.3 596.8 1189.1C591.7 1193.1 577.9 1178.7 573.6 1182.9C573.5 1183 577.1 1222.9 574.7 1230.9C571.1 1243.1 555.8 1221.4 550.7 1225.2C549.3 1226.3 549.9 1272.7 536.6 1268.7C528.9 1266.4 524.9 1254.5 518 1253.3C517.4 1253.2 517 1253.8 516.9 1254.2C513 1266.3 505.4 1289.8 489.8 1294.3C481.5 1296.7 479.2 1274.1 471.3 1275.6C460.7 1277.6 454.8 1299.8 443.4 1303.4C433.3 1306.6 429.6 1284.2 422.7 1283.6C412.5 1282.7 412 1301.6 402.5 1303.2C389.7 1305.3 391.6 1285.7 385.8 1281.8C382 1279.3 382.4 1289.9 378.7 1292.5C368.4 1299.6 358.2 1269.8 356.7 1265" stroke="#161616" stroke-width="8" stroke-miterlimit="10" stroke-linecap="round" stroke-linejoin="round"/>
<path d="M410.2 1037.5C411.7 1042.6 408.9 1055.2 416 1057.3C423.2 1059.4 426.4 1043.6 432.8 1044.5C438 1045.2 432.1 1060.1 436.7 1061.7C440 1062.9 442.8 1051.2 446.7 1051.3C451.3 1051.4 446.5 1067.1 450.8 1068.9C454.9 1070.6 459.9 1057.6 464 1056.7C469.7 1055.5 468.2 1070.4 477.6 1063.4" stroke="#161616" stroke-width="4" stroke-miterlimit="10" stroke-linecap="round" stroke-linejoin="round"/>
<path d="M516.3 1100.4C516.2 1100.3 518.5 1106.6 519.3 1108C521.9 1112.8 525.1 1119.3 530.4 1121.8C537.9 1125.2 535.3 1109.8 540.5 1108.6C546.7 1107.2 549.3 1119.3 554.7 1118.7C560.9 1118 556.5 1100.4 560.7 1097.4C561.3 1097 561.9 1097.4 562.3 1097.8C566.5 1101.7 574.2 1118.9 580.6 1118.5C589.6 1117.9 585.5 1093.2 592.3 1089.8" stroke="#161616" stroke-width="4" stroke-miterlimit="10" stroke-linecap="round" stroke-linejoin="round"/>
<path d="M393.5 1155.9C394.6 1154.8 402 1169.8 408.8 1167.2C415.9 1164.5 419.9 1154.4 424.2 1148.7C424.5 1148.3 425.8 1146.2 426.6 1146.6C431.5 1149.6 422.4 1173.7 430 1175.9C432.6 1176.6 440.9 1155.9 447 1150.8C452.3 1146.4 454 1170.9 460.5 1171.4C462.8 1171.6 470.9 1155.3 479.3 1149.9C488.7 1143.9 490.9 1191.3 509.5 1157.2" stroke="#161616" stroke-width="4" stroke-miterlimit="10" stroke-linecap="round" stroke-linejoin="round"/>
<path d="M489 1195.2C488.3 1193.6 489.2 1198.6 489.7 1200.3C490.6 1203.6 494.6 1219.9 499.9 1218.4C507.3 1216.4 504.9 1200.7 512.4 1198.7C519.7 1196.8 520.9 1216 527.3 1217.1C533.4 1218.2 531.6 1195.7 537.6 1194.1C547 1191.7 546.1 1222.3 558 1205C561.5 1200 564.4 1194.7 567.7 1189.5" stroke="#161616" stroke-width="4" stroke-miterlimit="10" stroke-linecap="round" stroke-linejoin="round"/>
<path d="M386.7 1205C384.9 1203.4 388.2 1210.3 388.3 1210.7C390.9 1216.1 395.8 1223.6 402.7 1219.3C404.8 1218 406.4 1216 407.7 1214C409.1 1212 410.2 1209.8 411.7 1207.8C416.7 1201.1 419 1220.1 424.1 1221.6C430.6 1223.6 431.6 1210.1 436.8 1211C442.9 1212 439.9 1239.1 455.4 1222C460.3 1216.6 463.7 1210.1 468.5 1204.6" stroke="#161616" stroke-width="4" stroke-miterlimit="10" stroke-linecap="round" stroke-linejoin="round"/>
<path d="M436 1256.6C434.9 1255.8 437.5 1261.5 437.7 1261.8C440.4 1266.6 445.5 1268.4 450.4 1265.4C455.7 1262.2 458.6 1253.8 464.3 1251.8C471 1249.5 469.7 1267.7 478.5 1258C480.7 1255.6 482.4 1252.8 484.4 1250.3C485.3 1249.2 486.7 1247.3 488.4 1247.5C496.1 1248.3 490.6 1267.8 504.4 1259.3" stroke="#161616" stroke-width="4" stroke-miterlimit="10" stroke-linecap="round" stroke-linejoin="round"/>
<path fill-rule="evenodd" clip-rule="evenodd" d="M1092.7 1034C1098.3 1028.2 1116.3 1008 1120.9 1001.4C1133.3 983.2 1142.9 962.7 1149.5 941.7C1169.5 878.4 1177.9 811.5 1187.5 746C1190.3 726.7 1193.5 705 1198.2 683C1209.5 630.2 1229.9 576 1276.7 551.4C1290.8 544 1315.8 539.4 1327.8 553.1C1332.5 558.4 1332.4 567.6 1333.4 574.3C1333.6 575.9 1331.4 586.6 1331.5 586.6C1351.1 567 1329 531.8 1311 520.7C1261.3 489.9 1197.5 544.7 1171.3 583.3C1107.3 677.7 1119.1 791.7 1084.1 895.4C1079.5 909.1 1080.7 916.3 1071.1 927.6C1068.1 931.1 1046.2 942.9 1044.4 946.6" fill="#F7F2EE"/>
<path d="M1092.7 1034C1098.3 1028.2 1116.3 1008 1120.9 1001.4C1133.3 983.2 1142.9 962.7 1149.5 941.7C1169.5 878.4 1177.9 811.5 1187.5 746C1190.3 726.7 1193.5 705 1198.2 683C1209.5 630.2 1229.9 576 1276.7 551.4C1290.8 544 1315.8 539.4 1327.8 553.1C1332.5 558.4 1332.4 567.6 1333.4 574.3C1333.6 575.9 1331.4 586.6 1331.5 586.6C1351.1 567 1329 531.8 1311 520.7C1261.3 489.9 1197.5 544.7 1171.3 583.3C1107.3 677.7 1119.1 791.7 1084.1 895.4C1079.5 909.1 1080.7 916.3 1071.1 927.6C1068.1 931.1 1046.2 942.9 1044.4 946.6" stroke="#161616" stroke-width="8" stroke-miterlimit="10" stroke-linecap="round" stroke-linejoin="round"/>
<path fill-rule="evenodd" clip-rule="evenodd" d="M1002.6 949.6C1002.2 949.9 1034.8 948.7 1057.6 937C1077.8 926.6 1088.8 905.9 1083.1 902.6C1078.7 900.1 1074.5 896.8 1070.5 893C1045.4 869.5 1027.1 824.8 1019.1 794.5C994 699.5 1019.1 631.1 1008.7 535.3C1006.4 514 972.7 430.7 946.1 429.9C946 429.9 946.6 430.9 946.6 430.9C947.3 432.2 951.5 435.6 956.5 442.5C967.7 457.9 983.3 491.2 974.5 560.4C959.7 677 907.3 802.9 956 910.8" fill="#F7F2EE"/>
<path d="M1002.6 949.6C1002.2 949.9 1034.8 948.7 1057.6 937C1077.8 926.6 1088.8 905.9 1083.1 902.6C1078.7 900.1 1074.5 896.8 1070.5 893C1045.4 869.5 1027.1 824.8 1019.1 794.5C994 699.5 1019.1 631.1 1008.7 535.3C1006.4 514 972.7 430.7 946.1 429.9C946 429.9 946.6 430.9 946.6 430.9C947.3 432.2 951.5 435.6 956.5 442.5C967.7 457.9 983.3 491.2 974.5 560.4C959.7 677 907.3 802.9 956 910.8" stroke="#161616" stroke-width="8" stroke-miterlimit="10" stroke-linecap="round" stroke-linejoin="round"/>
<path d="M981.4 480.9C978 485.5 984.3 505.6 985 510.6C988.4 537.5 990.2 565.1 987.8 592.1C979.9 680 919.1 806.7 960.9 891.8" stroke="#161616" stroke-width="4" stroke-miterlimit="10" stroke-linecap="round" stroke-linejoin="round"/>
<path d="M1008.6 591.2C1008.8 591 1008.4 591.7 1008.4 591.9" stroke="#161616" stroke-width="4" stroke-miterlimit="10" stroke-linecap="round" stroke-linejoin="round"/>
<path d="M1009.5 592.5C1006.3 598.2 997.9 669.1 996 679.8C980.3 764.6 959 875 1037.7 937" stroke="#161616" stroke-width="4" stroke-miterlimit="10" stroke-linecap="round" stroke-linejoin="round"/>
<path d="M1009.9 767.9C1010.5 768.4 1014.1 821.4 1014.7 825.9C1020.7 864.7 1036.6 902.5 1067.6 927.9" stroke="#161616" stroke-width="4" stroke-miterlimit="10" stroke-linecap="round" stroke-linejoin="round"/>
<path d="M1067.8 934.5C1066.9 935.1 1069 932.7 1069.7 931.9C1072.2 929.1 1078.3 919.4 1080.4 916.3C1085.6 908.7 1086.3 907.6 1091 899.6C1105.9 874.4 1117.3 846.7 1126.9 819.1C1154 741.3 1171.1 655.1 1185.9 573.9" stroke="#161616" stroke-width="4" stroke-miterlimit="10" stroke-linecap="round" stroke-linejoin="round"/>
<path d="M1322.4 544.8C1321.6 545.8 1320.7 542.9 1319.7 542.1C1314 538.1 1305.5 537.2 1298.8 536.5C1278.7 534.3 1258.4 539.6 1241.8 551.1C1187.5 588.4 1178.1 692.8 1167.5 752.1C1156 816.4 1146.4 882.5 1124.4 944.4C1120.4 955.7 1099.5 994.9 1080.8 986.4" stroke="#161616" stroke-width="4" stroke-miterlimit="10" stroke-linecap="round" stroke-linejoin="round"/>
<path d="M1008.6 521.9C1021.3 480.8 1068.5 339.4 1119.8 328.2C1184.3 314.1 1183.6 470.8 1184 506.3C1184.2 524.6 1190.2 553.4 1181.6 570.6" stroke="#161616" stroke-width="8" stroke-miterlimit="10" stroke-linecap="round" stroke-linejoin="round"/>
<path d="M1132 324.4C1131.7 325.2 1132.2 322.8 1132.3 322C1132.6 320 1132.8 318 1132.8 316C1132.8 311.5 1132.5 307 1131 302.8C1126.6 290 1115.9 279.2 1101.5 282.2C1063.3 290.3 1087.1 341.2 1068.3 362.9C1050.8 383.1 1032.1 348.6 1013.6 359.1" stroke="#161616" stroke-width="4" stroke-miterlimit="10" stroke-linecap="round" stroke-linejoin="round"/>
<path d="M1142.8 324.2C1141.2 326.4 1145.3 316.1 1145.7 315.3C1149.4 309 1157.3 299.8 1165.5 300C1179.2 300.4 1168.7 325.2 1174.8 331.8C1180.8 338.2 1193.3 326.6 1196.6 331C1203.8 340.5 1191.8 365.5 1192 376.7C1192.3 388.5 1206.6 386.9 1208.8 397.1C1211.1 407.9 1204.1 419.7 1202.9 430.3C1202.1 437.5 1205.4 444.4 1206.5 451.5" stroke="#161616" stroke-width="4" stroke-miterlimit="10" stroke-linecap="round" stroke-linejoin="round"/>
<path d="M1132.5 322.9C1132.4 323 1132.2 323.2 1132.3 322.7C1133.8 317.4 1135 311.2 1132.5 306C1128.8 298.2 1117 296.2 1109.5 298.8C1101.9 301.4 1098.4 309.5 1091.3 313C1082.3 317.5 1070.3 316.1 1062.5 323C1053.5 331 1057.5 343.5 1053.6 353.5C1047.6 368.9 1031.1 375.2 1026.9 392.6" stroke="#161616" stroke-width="4" stroke-miterlimit="10" stroke-linecap="round" stroke-linejoin="round"/>
<path d="M1136.1 322.2C1124.1 312 1146.6 280.8 1158.8 278.1C1166.1 276.5 1173.3 279.3 1180.2 281.3C1183.1 282.1 1186.3 283.1 1189.2 281.7C1198.1 277.2 1202.2 260.3 1214 261.7C1229.1 263.5 1224.9 286.7 1235.3 293.9" stroke="#161616" stroke-width="4" stroke-miterlimit="10" stroke-linecap="round" stroke-linejoin="round"/>
<path d="M1141.7 319.8C1133.7 323.1 1147.2 304.5 1148.6 303.2C1159.1 294.1 1172.7 287.9 1186.1 294.9C1202.2 303.2 1191.9 321 1201 330.9C1206.8 337.2 1219.5 326.6 1226.7 330.1C1237.9 335.7 1228.1 359.2 1228.1 368C1228.1 374.3 1230.3 380.3 1230.2 386.6" stroke="#161616" stroke-width="4" stroke-miterlimit="10" stroke-linecap="round" stroke-linejoin="round"/>
<path d="M1096.4 341C1091 343.7 1096.1 358.3 1104.4 356.9C1108.2 356.3 1110.8 352.5 1111.2 349C1111.3 348.5 1111.4 344.2 1110.2 344.2C1109.8 344.2 1110.5 345 1110.6 345.4C1111.1 346.7 1111.4 348.1 1111.9 349.4C1113.5 353.5 1116.1 359 1121.6 357.9C1129 356.4 1124.7 342.3 1127.6 349.2C1128 350.2 1128.5 351.3 1129 352.3C1129.9 354.2 1131.1 356.1 1133 357.1C1137.7 359.5 1141.7 354.5 1142.7 350.6C1142.8 350.2 1143.1 345 1143 345C1141.5 346 1144.1 353.7 1144.8 354.7C1150.8 363.5 1161.1 363.1 1164.7 353.5" stroke="#161616" stroke-width="4" stroke-miterlimit="10" stroke-linecap="round" stroke-linejoin="round"/>
<path d="M1073.2 371.8C1070.9 373.7 1074.3 379.7 1075.5 381.1C1082.6 389.2 1096.8 380.3 1095.1 373.1C1094.9 372.1 1094.4 375 1094.3 376C1094.1 378 1094.3 380 1094.8 381.9C1096 387.4 1100.2 393.3 1106.5 392.8C1117.3 391.9 1115.6 380.5 1119.2 378.4C1119.7 378.1 1119.3 379.5 1119.3 380.1C1119.3 381.1 1119.4 382.2 1119.5 383.2C1119.9 386.4 1121.6 390 1125.1 390.9C1133.5 392.9 1136.2 382.3 1139.8 377.5C1139.8 377.5 1139.8 377.6 1139.8 377.7C1139.8 379.4 1139.7 381 1139.9 382.7C1140.2 386.2 1141.6 388.8 1144.8 390.7C1152.7 395.4 1162.2 392.5 1167.2 385.1" stroke="#161616" stroke-width="4" stroke-miterlimit="10" stroke-linecap="round" stroke-linejoin="round"/>
<path d="M1060.4 399.5C1059.5 400.4 1064.8 404.1 1065.3 404.4C1069.9 407.5 1082.3 407.6 1082.3 399.3C1082.3 398.4 1082.1 401 1082 401.8C1081.8 403.7 1081.8 405.7 1082.1 407.6C1082.9 413.5 1086.8 419.8 1093.4 419.7C1098 419.7 1101.5 415.9 1103.4 412C1104 410.8 1104.4 409.6 1104.8 408.4C1105 407.7 1105.2 405.7 1105.4 406.4C1107.8 411.9 1106 423.5 1118.5 419.5C1121.8 418.4 1124.2 416 1126.1 413.2C1126.7 412.3 1127.2 411.4 1127.7 410.5C1127.7 410.4 1128.3 409.2 1128.4 409.2C1131.2 411.6 1125.8 420.8 1138.5 418.9C1141.7 418.4 1144.4 416.5 1146.4 414C1147.2 413 1147.9 411.9 1148.5 410.8C1148.5 410.7 1149.1 409.5 1149.2 409.5C1149.9 410 1149.6 415 1150.3 416.2C1153.8 421.8 1164.2 420.6 1169.2 418.3" stroke="#161616" stroke-width="4" stroke-miterlimit="10" stroke-linecap="round" stroke-linejoin="round"/>
<path d="M1045.5 429.4C1045.3 429.4 1046.2 430.5 1046.2 430.5C1047.3 431.4 1048.8 431.9 1050.2 432C1053.7 432.3 1057 430.5 1059.7 428.4C1060 428.2 1064.6 424.2 1063.9 423.8C1063.6 423.6 1061.9 428.4 1061.9 428.6C1060.8 432.6 1060.9 437.3 1063.2 440.9C1067.8 448 1076.7 447.1 1082.6 442.4C1084 441.3 1085.3 439.9 1086.4 438.4C1086.4 438.3 1087.1 437.1 1087.2 437.2C1087.7 437.5 1088.2 441.9 1088.7 442.7C1091.7 447.6 1097.8 449 1103.1 447.8C1106.5 447 1109.3 444.3 1111.3 441.6C1112.2 440.4 1112.9 439 1113.4 437.6C1113.5 437.4 1113.6 436.9 1113.7 437.1C1116.2 442 1113.5 452.9 1125.4 450C1129.9 448.9 1133.2 445.5 1135.8 441.8C1136.1 441.4 1138.6 436.9 1138.9 437C1139.1 437 1139.2 438.3 1139.2 438.4C1139.8 442 1141.6 444.9 1145.1 446.3C1148.5 447.6 1152.3 446.3 1155 444.2C1156 443.4 1156.9 442.5 1157.8 441.5C1158.2 441 1158.7 439.4 1159.1 440C1159.7 440.8 1158.9 443.8 1159.6 445C1161.9 449.4 1168.7 448.9 1172.7 448.3" stroke="#161616" stroke-width="4" stroke-miterlimit="10" stroke-linecap="round" stroke-linejoin="round"/>
<path d="M1037.4 454C1033.9 455.3 1035.6 461.1 1037.6 462.8C1042.5 467.1 1057.6 463.7 1058 456.7C1058 456.5 1057.9 456.7 1057.8 456.7C1056.7 458.2 1058.1 460.7 1058.9 462C1061.3 465.7 1064.5 468.7 1068.6 470.4C1076.8 473.9 1088.7 467.8 1092.6 460.2C1093.1 459.2 1092.9 465.1 1093.7 467.4C1095.6 472.6 1099.2 477.4 1105.2 477.5C1111.6 477.5 1116.7 474.2 1121.1 469.9C1121.9 469.2 1125.8 463.2 1126.7 463.2C1126.8 463.2 1126.7 463.9 1126.7 463.9C1126.5 465.9 1126.6 468.4 1127.8 470.1C1130.2 473.4 1135.5 475.9 1139.5 475.3C1143.8 474.7 1146.6 470.6 1148.6 467.1C1149.8 464.8 1151.3 461.2 1151.4 461.4C1151.9 464.1 1151.2 466.8 1152 469.5C1154.4 477.4 1164.8 475.8 1170.4 473.1" stroke="#161616" stroke-width="4" stroke-miterlimit="10" stroke-linecap="round" stroke-linejoin="round"/>
<path d="M1025.2 486.3C1025.6 486 1028.5 486.2 1029.3 485.9C1030.5 485.5 1035.1 481.9 1036.1 482.1C1036.7 482.2 1038.5 488.8 1039 489.5C1042.6 494.6 1049.4 497.1 1055.5 496.2C1058.3 495.8 1061.1 494.9 1063.5 493.4C1063.8 493.2 1066.8 490.4 1066.8 490.4C1067.5 490.7 1068.9 494.6 1069.7 495.4C1073.3 498.9 1079.3 500.4 1084.2 500.7C1088 500.9 1092.2 500.4 1095.8 499C1096.6 498.7 1100.1 495.9 1100.8 496.1C1101.2 496.2 1102.4 500.9 1102.7 501.4C1104.8 504.8 1108.4 506.2 1112.3 506.2C1119 506.2 1124.4 502.7 1128.9 498C1129.7 497.2 1134.1 490.4 1135.2 490.6C1135.2 490.6 1136.1 495.3 1136.3 495.7C1137.4 498.4 1139.9 500.4 1142.5 501.4C1151.8 505 1152.4 496.2 1158.2 494.8C1158.4 494.7 1158.5 496.3 1158.5 496.4C1158.7 498.3 1160 500.3 1161.6 501.2C1165.7 503.6 1171.7 502.4 1175.8 500.8" stroke="#161616" stroke-width="4" stroke-miterlimit="10" stroke-linecap="round" stroke-linejoin="round"/>
<path d="M1016 511C1019.5 516.5 1024.6 519.6 1031.3 518C1034.1 517.3 1036.9 516 1038.9 513.9C1039 513.8 1039.7 512.9 1039.9 513C1043.3 516.4 1039.6 527.7 1053.3 527.8C1058.7 527.9 1063.7 526.4 1068 523.1C1068.8 522.5 1071.2 519.4 1072.4 519.8C1073.7 520.2 1076.8 531.8 1086.2 533.9C1091.2 535 1096.8 534.2 1100.8 530.9C1102 529.9 1106 524.2 1107.8 524.5C1107.9 524.5 1111.7 533.9 1117.7 535.3C1123.7 536.7 1129.8 536.6 1135.2 533.5C1136.8 532.6 1139.8 527.7 1141.3 527.7C1141.6 527.7 1142.1 531 1142.4 531.5C1143.4 533.5 1145.6 534.7 1147.7 535.2C1160.1 538.2 1158.2 530.1 1163.5 528.6C1165.2 528.1 1164.5 532.4 1166.1 533.2C1169.2 534.9 1174.7 534.3 1178 533.2" stroke="#161616" stroke-width="4" stroke-miterlimit="10" stroke-linecap="round" stroke-linejoin="round"/>
<path d="M1023.4 538.3C1023 538.1 1024.2 544.2 1024.4 544.6C1026.5 548.6 1030.1 551 1034.6 551.6C1040 552.4 1047.9 545 1048.2 545C1048.9 545.1 1051.6 550.4 1052.5 551.2C1056.4 554.8 1062.3 556.8 1067.5 556.3C1071.3 556 1074.5 553.9 1077.2 551.4C1077.4 551.2 1078.2 550.3 1078.5 550.5C1079.1 550.8 1079.5 553.4 1079.9 554C1082.9 558.6 1091.1 561.5 1096.3 561.3C1100.3 561.1 1112.9 553.5 1113.1 553.6C1113.6 553.7 1115.4 558.5 1116 559.2C1118.5 562.4 1122.9 564 1126.8 564.1C1133.8 564.2 1137.9 556.1 1142.2 555.9C1142.5 555.9 1142.6 556.1 1142.8 556.3C1145 558.9 1146.5 560.3 1149.8 561.8C1156.1 564.6 1165.9 563.7 1171.9 560.7" stroke="#161616" stroke-width="4" stroke-miterlimit="10" stroke-linecap="round" stroke-linejoin="round"/>
<path d="M1012.1 573.3C1015.2 577.5 1021.6 578.1 1026 575.2C1027.6 574.1 1029 572.7 1030.2 571.1C1030.3 571 1030.9 569.7 1031.2 569.9C1034 571.9 1034 581.9 1045 583.9C1049.6 584.7 1054.3 582.3 1057 578.7C1057.2 578.4 1057.7 577.6 1058.1 577.8C1063 579.8 1064.1 590.3 1076.6 590.8C1081.7 591 1085 588.4 1087.9 584.5C1088 584.3 1088.6 583.3 1088.9 583.4C1089.1 583.5 1089.2 584 1089.2 584.2C1090.8 589 1092.7 592.6 1098 594.1C1111.9 598.1 1113.4 587.9 1119 586.5C1119.6 586.4 1120 587.1 1120.2 587.5C1122.6 591.3 1125.8 594.3 1130.5 594.7C1137.3 595.3 1139.1 588.1 1142.9 587.3C1143 587.3 1144.9 591.7 1145.1 592C1147.2 594.8 1150.2 596.6 1153.5 597.7" stroke="#161616" stroke-width="4" stroke-miterlimit="10" stroke-linecap="round" stroke-linejoin="round"/>
<path d="M1015 603.6C1016.2 603.3 1015.7 605.9 1016.5 606.9C1018.1 609.1 1020.4 610.9 1023.1 611.5C1027.2 612.4 1030.5 610.4 1033.2 607.4C1034.1 606.4 1035 605.2 1035.6 604C1035.8 603.6 1036.7 602.7 1036.2 602.7C1034.6 602.7 1037.6 608.9 1037.7 609.1C1040.2 613 1043.8 615.8 1048.5 616.4C1052.6 617 1056.8 615.7 1060 613.1C1060.3 612.8 1064 608.6 1064.1 608.6C1064.6 608.8 1065.4 611.2 1065.9 611.7C1070 615.7 1076.6 617.8 1082.2 618.2C1088.5 618.7 1091.3 616.2 1096.1 613.5C1096.2 613.5 1096.3 613.4 1096.4 613.5C1098.2 614.1 1099.7 622.2 1106.4 623.1C1111.3 623.8 1115.8 622 1119.6 619C1120.2 618.6 1124.2 614.3 1124.9 614.6C1126.6 615.4 1126.9 621.9 1134.4 624.5" stroke="#161616" stroke-width="4" stroke-miterlimit="10" stroke-linecap="round" stroke-linejoin="round"/>
<path d="M1023.1 636.2C1022.4 636.3 1025 640.6 1025.2 640.8C1027.7 643.9 1031.7 646.9 1035.8 646.7C1036.8 646.6 1037.8 646.4 1038.8 646C1040.4 645.4 1042 644.4 1043.2 643.3C1043.5 643.1 1046.7 639.2 1046 638.9C1046 638.9 1046.4 640.2 1046.5 640.3C1047.4 641.7 1048.6 642.8 1049.8 643.8C1053.1 646.7 1057.4 649.4 1061.9 649.5C1068.9 649.6 1071.8 639.8 1073.4 639.6C1073.5 639.6 1073.7 640.8 1073.7 640.9C1074 642.3 1074.4 643.5 1075.1 644.7C1077.1 647.9 1080.3 650.4 1083.8 651.6C1089.2 653.4 1095.9 652.5 1101 650.2C1102 649.7 1107 645.7 1108 646.1C1108.4 646.3 1111.8 653.7 1118.5 655.6" stroke="#161616" stroke-width="4" stroke-miterlimit="10" stroke-linecap="round" stroke-linejoin="round"/>
<path d="M1012.3 671.5C1012.9 671.6 1016.7 676 1018.3 676.6C1025.8 679.8 1031.7 673.3 1034.8 667.3C1035.2 666.6 1034.9 668.9 1035.1 669.6C1035.4 670.9 1035.9 672.2 1036.5 673.3C1038.5 676.8 1041.8 679.9 1045.5 681.3C1050.2 683.1 1055.5 680.8 1059.3 678.1C1061.2 676.7 1062.9 674.9 1064.2 672.9C1064.3 672.8 1064.5 672.6 1064.4 672.6C1064.2 672.7 1064.3 673.1 1064.4 673.2C1065.5 676.8 1070.3 680 1073.3 681.7C1073.6 681.9 1073.9 682 1074.2 682.2C1075.9 683.1 1077.7 683.7 1079.6 684C1083.9 684.5 1087.3 682 1090 678.9C1091.2 677.5 1091.2 673.7 1092.9 674.3C1093.2 674.4 1095.7 680.5 1096.4 681.3C1100.2 685.7 1106.1 686.3 1111.6 685.8" stroke="#161616" stroke-width="4" stroke-miterlimit="10" stroke-linecap="round" stroke-linejoin="round"/>
<path d="M1020.2 707.8C1019.9 707.6 1021.2 711.4 1021.6 711.8C1022.5 712.9 1023.7 713.9 1024.9 714.8C1029.6 718.3 1034.8 717 1038.9 713.2C1041.5 710.8 1042.1 707.1 1043 710.5C1043.9 713.5 1046 716.1 1048.4 717.9C1051.6 720.3 1055.7 721.8 1059.7 722.3C1064.8 723 1070.2 722 1074.6 719.2C1075.6 718.5 1078.9 713.4 1079.7 713.4C1080.8 713.4 1084.6 719.8 1087.4 721C1096.1 724.8 1103.6 717.1 1109.6 712" stroke="#161616" stroke-width="4" stroke-miterlimit="10" stroke-linecap="round" stroke-linejoin="round"/>
<path d="M1017.4 747C1017.3 747 1017.8 748 1018 748.1C1019 748.7 1020.2 748.5 1021.2 748C1025.8 745.6 1026.7 743.1 1027 743.3C1027.2 743.4 1027.6 745.7 1027.9 746.2C1031.6 751.4 1038.7 752.2 1043.9 748.9C1047.4 746.7 1050 743.7 1052.4 740.5C1052.5 740.4 1053.1 739.4 1053.3 739.5C1053.3 739.5 1053.6 741 1053.6 741.2C1054.1 742.9 1054.9 744.6 1056 745.9C1059 749.6 1064.1 752.6 1068.9 752.7C1077.5 753 1081.8 744.7 1084.1 744.3C1086.4 744 1086 748.6 1087.7 750.1C1090.9 753.2 1095.3 753.6 1099.5 753.7" stroke="#161616" stroke-width="4" stroke-miterlimit="10" stroke-linecap="round" stroke-linejoin="round"/>
<path d="M1034.8 769.4C1033.3 769.4 1038.9 776.8 1039.2 777.1C1043.6 781.4 1049.2 782.6 1054.8 779.9C1058.6 778.1 1061.9 773 1065.6 771.7C1067.1 771.2 1066.6 774.7 1067.4 776C1069.2 778.6 1072 781 1075 782.1C1084.8 785.6 1085.8 777.3 1090.4 776.2C1090.8 776.1 1091.3 777.1 1091.5 777.4C1093.7 780.7 1098 781.7 1101.8 781.8" stroke="#161616" stroke-width="4" stroke-miterlimit="10" stroke-linecap="round" stroke-linejoin="round"/>
<path d="M1029.1 810.8C1032.5 810.2 1040.9 813.7 1048.6 806.1C1048.9 805.8 1050.7 803.4 1051.1 803.4C1052.4 803.4 1051.3 806.1 1051.8 807.3C1052.9 809.9 1055.2 811.6 1057.9 812.4C1064.7 814.3 1073.2 808 1074.3 808.3C1075.5 808.6 1077.7 813.1 1078.7 814C1081.8 816.6 1086.3 817.1 1090.2 817" stroke="#161616" stroke-width="4" stroke-miterlimit="10" stroke-linecap="round" stroke-linejoin="round"/>
<path d="M1050 837.4C1054.3 843.9 1060.2 845.2 1063.6 845.5C1070.8 846.1 1079.2 841.2 1083.9 836" stroke="#161616" stroke-width="4" stroke-miterlimit="10" stroke-linecap="round" stroke-linejoin="round"/>
<path d="M948.9 1053.2C949.2 1053 948.1 1052.7 948 1052.7C939.8 1050.8 929.7 1056.1 923.2 1060.4C908.7 1070.1 900.5 1088.4 899.1 1105.3C897.8 1121.2 902.3 1139.2 909.7 1153.3C919.2 1171.5 940.1 1185.2 952.1 1202.6C961.7 1216.6 965.9 1233.5 975.9 1247.5C977.4 1249.6 979.7 1251.4 982.4 1251.4C991.4 1251.4 997 1237.9 1005 1234.7C1015.3 1230.5 1027.1 1240.2 1036.4 1233.1C1067.7 1209.2 1043.6 1092.7 1028.6 1062.2C1012.9 1030.1 975.9 1007.8 952.5 1047.9C942.6 1064.8 952.3 1079.7 947.1 1095.4" stroke="#161616" stroke-width="8" stroke-miterlimit="10" stroke-linecap="round" stroke-linejoin="round"/>
<path d="M923.6 1121.7C923.2 1122.3 924.4 1121.6 924.6 1121.5" stroke="#161616" stroke-width="4" stroke-miterlimit="10" stroke-linecap="round" stroke-linejoin="round"/>
<path d="M952.1 1114.5C952.1 1114.7 952.5 1114.4 952.6 1114.3" stroke="#161616" stroke-width="4" stroke-miterlimit="10" stroke-linecap="round" stroke-linejoin="round"/>
<path d="M982.6 1105.7C982.9 1105.6 983.1 1105.4 983.4 1105.3" stroke="#161616" stroke-width="4" stroke-miterlimit="10" stroke-linecap="round" stroke-linejoin="round"/>
<path d="M970 1072.5C969.8 1072.7 970.8 1072.3 970.9 1072.3" stroke="#161616" stroke-width="4" stroke-miterlimit="10" stroke-linecap="round" stroke-linejoin="round"/>
<path d="M942.1 1143.1C942 1143.3 942.5 1142.8 942.7 1142.7" stroke="#161616" stroke-width="4" stroke-miterlimit="10" stroke-linecap="round" stroke-linejoin="round"/>
<path d="M976.8 1142.6C977 1142.9 977.3 1142.1 977.6 1141.9" stroke="#161616" stroke-width="4" stroke-miterlimit="10" stroke-linecap="round" stroke-linejoin="round"/>
<path d="M968.8 1168.1C968.7 1167.8 969.4 1167.9 969.6 1167.7" stroke="#161616" stroke-width="4" stroke-miterlimit="10" stroke-linecap="round" stroke-linejoin="round"/>
<path d="M1004.9 1168.6C1004.8 1168.7 1005.3 1168.6 1005.5 1168.6" stroke="#161616" stroke-width="4" stroke-miterlimit="10" stroke-linecap="round" stroke-linejoin="round"/>
<path d="M991.4 1198.7C990.9 1198.5 992.3 1198.1 992.8 1197.8" stroke="#161616" stroke-width="4" stroke-miterlimit="10" stroke-linecap="round" stroke-linejoin="round"/>
<path d="M981.8 1228.7C981.8 1228.7 983.1 1228.3 983.6 1228.1" stroke="#161616" stroke-width="4" stroke-miterlimit="10" stroke-linecap="round" stroke-linejoin="round"/>
<path d="M1021.2 1219.6C1021.2 1219.5 1021.6 1219.6 1021.7 1219.6" stroke="#161616" stroke-width="4" stroke-miterlimit="10" stroke-linecap="round" stroke-linejoin="round"/>
<path d="M920.6 1082.9C920.6 1083 920 1083.2 920.8 1082.9" stroke="#161616" stroke-width="4" stroke-miterlimit="10" stroke-linecap="round" stroke-linejoin="round"/>
<path d="M1012.8 1075C1012.6 1075.1 1012.9 1075.1 1013 1075" stroke="#161616" stroke-width="4" stroke-miterlimit="10" stroke-linecap="round" stroke-linejoin="round"/>
<path d="M1025.3 1121L1026 1120.8" stroke="#161616" stroke-width="4" stroke-miterlimit="10" stroke-linecap="round" stroke-linejoin="round"/>
<path d="M1039.2 1178.1C1039 1178.2 1038.9 1178.5 1039.2 1178.5" stroke="#161616" stroke-width="4" stroke-miterlimit="10" stroke-linecap="round" stroke-linejoin="round"/>
<path d="M949.2 1042.9C953.6 1028.2 957.2 1012.2 959.3 996.7C961.3 981.3 957.3 924.7 939.9 916C939.8 915.9 930.7 924.6 930 925.6C908.4 955.1 886.7 1034.9 936.7 1057.3C938.3 1058 934.2 1050.5 935.8 1049.6C936 1049.5 934 1042.8 933.9 1042.3C929.7 1026.2 925.2 1006.5 926.4 989.9C927.1 979.6 931.4 968.2 939.5 961.4C939.6 961.3 940.7 960.3 940.3 960.9" stroke="#161616" stroke-width="8" stroke-miterlimit="10" stroke-linecap="round" stroke-linejoin="round"/>
<path d="M572.9 582.2C575.3 573.5 568 563.3 558.7 557.2C551.9 552.7 544 550.4 538.4 552.7C520.8 559.7 527.7 592.3 509.1 593.7C492.5 595 460 531.6 436.4 579.5C423.8 605.1 449.2 616.8 450.7 639.4C451.8 656.3 422.3 657.2 421.2 681.2C419.2 722.3 465.1 706.1 486.8 720C491.5 723 494.2 727.5 496.4 732.2C499.2 738.3 501.3 744.9 505.9 750" stroke="#161616" stroke-width="8" stroke-miterlimit="10" stroke-linecap="round" stroke-linejoin="round"/>
<path d="M428.2 662.8C389 549.3 465.4 507.7 500.6 442C501.4 440.6 502.3 439.4 503.1 438.1C511.6 424.2 523.9 404.8 521 387.4C520.8 386.1 519.5 380.6 517.9 380.2" stroke="#161616" stroke-width="4" stroke-miterlimit="10" stroke-linecap="round" stroke-linejoin="round"/>
<path d="M450 455.1C456.1 468.5 454.9 489.7 456.6 501.5" stroke="#161616" stroke-width="4" stroke-miterlimit="10" stroke-linecap="round" stroke-linejoin="round"/>
<path d="M408.9 413.7C419.4 420.1 426.7 443.5 438.9 451C461.4 464.8 470.6 410.9 470.6 398.3" stroke="#161616" stroke-width="4" stroke-miterlimit="10" stroke-linecap="round" stroke-linejoin="round"/>
<path d="M495.5 450.6C495.2 450.5 501.2 450.3 501.5 450.1C507.3 447.1 513.5 444.9 519.6 442.4C537.1 435.2 551.7 425.9 564.1 411.4" stroke="#161616" stroke-width="4" stroke-miterlimit="10" stroke-linecap="round" stroke-linejoin="round"/>
<path d="M425.8 557.2C424.2 553.1 450.5 535.3 453.9 533.6C474.8 523.6 497.9 516.1 520.7 512.2C524.4 511.6 531.6 512 534.6 509.5C539.8 505.2 543 495 546.6 489.3C551.8 481 557.9 473.3 564.6 466.2C564.8 466 571 459.7 570.9 459.7C570.7 459.5 567.9 462.4 567.8 462.6C560.3 470.7 553.7 480.1 548.3 489.8C545.8 494.3 535.2 507.1 535.2 511.8C535.2 512.8 549.9 512 551.1 511.9C556.5 511.3 561.8 509.7 566.8 507.8C573.4 505.4 579.6 500.6 584.1 495.3" stroke="#161616" stroke-width="4" stroke-miterlimit="10" stroke-linecap="round" stroke-linejoin="round"/>
<path d="M359.3 482.1C361.5 487.3 375.8 500.9 380.2 510.9C389 530.7 390.2 552.2 400.7 571.6C404 577.8 415.5 584.3 417.5 590.1" stroke="#161616" stroke-width="4" stroke-miterlimit="10" stroke-linecap="round" stroke-linejoin="round"/>
<path d="M348.8 525.5C352.6 522.8 383.5 533.4 386.7 539" stroke="#161616" stroke-width="4" stroke-miterlimit="10" stroke-linecap="round" stroke-linejoin="round"/>
<path d="M466.4 594.7C469.8 606.5 495.2 620.2 503.3 633.7C523.1 666.7 520.4 720.1 557.1 740.7" stroke="#161616" stroke-width="4" stroke-miterlimit="10" stroke-linecap="round" stroke-linejoin="round"/>
<path d="M459.3 620.4C464.9 627.6 476.7 644.9 472.9 654.4C472.6 655.1 472.3 655.7 471.7 656.1C470.9 656.6 469.8 656.9 469 657.3C463.2 660.3 458.1 665.5 455.4 671.4C455.2 671.9 454.5 673.4 455.1 673.9C455.7 674.4 457.6 670.3 457.8 669.9C459.4 665.5 461 660.5 465.6 658.3C472.5 655.1 507.7 656.4 513.5 662.3" stroke="#161616" stroke-width="4" stroke-miterlimit="10" stroke-linecap="round" stroke-linejoin="round"/>
<path d="M505.8 631.5C505.5 633.6 506.3 627.1 507.5 625.4C510.2 621.5 513.7 618.1 517.3 614.9C520.8 611.8 548.2 593.6 547.7 590.5C547.4 588.8 540 584 538.7 582.4C537.4 580.8 536.2 579.1 535 577.5C527.2 567.1 540.3 588.3 545.4 590.8C549.4 592.7 555.8 591.7 559.7 589.8" stroke="#161616" stroke-width="4" stroke-miterlimit="10" stroke-linecap="round" stroke-linejoin="round"/>
<path d="M531.2 709.2C531.5 706.1 531.8 697.8 532.8 694.9C535.8 686.8 540.2 678.6 546.4 672.5C548.1 670.9 549.9 669.4 551.7 667.8C552.9 666.7 556.6 663.5 555.5 664.7" stroke="#161616" stroke-width="4" stroke-miterlimit="10" stroke-linecap="round" stroke-linejoin="round"/>
<path d="M578.4 627.2C578.4 627.2 587.9 610.5 585.8 608.4" stroke="#161616" stroke-width="4" stroke-miterlimit="10" stroke-linecap="round" stroke-linejoin="round"/>
<path fill-rule="evenodd" clip-rule="evenodd" d="M278.6 699.1C266.1 689.2 249.9 627.5 244.7 610.6C239 592 234 573.3 228.4 554.6C221.2 530.7 197.2 483.3 238.9 481.7C247.4 481.4 253.1 490.4 256.7 496.9C278.9 537.3 280.6 591.7 291.2 636.1C295.3 653.1 313 703.3 278.4 703.3" fill="#F7F2EE"/>
<path d="M278.6 699.1C266.1 689.2 249.9 627.5 244.7 610.6C239 592 234 573.3 228.4 554.6C221.2 530.7 197.2 483.3 238.9 481.7C247.4 481.4 253.1 490.4 256.7 496.9C278.9 537.3 280.6 591.7 291.2 636.1C295.3 653.1 313 703.3 278.4 703.3" stroke="#161616" stroke-width="8" stroke-miterlimit="10" stroke-linecap="round" stroke-linejoin="round"/>
<path opacity="0.9116" fill-rule="evenodd" clip-rule="evenodd" d="M264.1 704.7C261.1 697.3 225.8 657.6 218 645.9C207.3 629.8 197.1 613.3 187.1 596.8C171 570.2 213.8 557.3 234.4 565.2C256.1 573.4 293.3 687.1 274.4 705.9" fill="black"/>
<path d="M264.1 704.7C261.1 697.3 225.8 657.6 218 645.9C207.3 629.8 197.1 613.3 187.1 596.8C171 570.2 213.8 557.3 234.4 565.2C256.1 573.4 293.3 687.1 274.4 705.9" stroke="#161616" stroke-width="8" stroke-miterlimit="10" stroke-linecap="round" stroke-linejoin="round"/>
<path opacity="0.9116" fill-rule="evenodd" clip-rule="evenodd" d="M299.9 665.8C309 642 265.7 481.2 335.7 505.5C360 513.9 335.5 665.7 324.2 691.4C314.2 714.4 301.5 699.5 300.3 682.4" fill="black"/>
<path d="M299.9 665.8C309 642 265.7 481.2 335.7 505.5C360 513.9 335.5 665.7 324.2 691.4C314.2 714.4 301.5 699.5 300.3 682.4" stroke="#161616" stroke-width="8" stroke-miterlimit="10" stroke-linecap="round" stroke-linejoin="round"/>
<path fill-rule="evenodd" clip-rule="evenodd" d="M330 689.7C327.3 689.8 337.1 658.6 338.1 656C341.9 645.3 355.5 589.5 373.1 597.8C392.8 607 380.1 718.8 339.3 706.3" fill="#F7F2EE"/>
<path d="M330 689.7C327.3 689.8 337.1 658.6 338.1 656C341.9 645.3 355.5 589.5 373.1 597.8C392.8 607 380.1 718.8 339.3 706.3" stroke="#161616" stroke-width="8" stroke-miterlimit="10" stroke-linecap="round" stroke-linejoin="round"/>
<path fill-rule="evenodd" clip-rule="evenodd" d="M248.6 703.9C242.8 706.2 237.4 714.9 235.1 718.3C208.1 759.4 207.3 805.8 208.5 853.5C209.4 891.2 237.1 915.1 244.9 949.6C251 976.4 245.8 1008.9 248.1 1036.7C251.6 1078.5 277 1110.1 285.2 1149C294.7 1194.5 288.5 1245.1 303.6 1289.2C307.6 1301 318.4 1330.6 335.7 1327.7C371.4 1321.8 407.9 1073.7 406.4 1024.5C405.3 986.7 390.8 949.2 392.3 911.3C393.7 875.9 418.5 779 410.5 755.3C391.6 700.6 272.9 666.3 248.6 703.9Z" fill="#F7F2EE"/>
<path d="M248.6 703.9C242.8 706.2 237.4 714.9 235.1 718.3C208.1 759.4 207.3 805.8 208.5 853.5C209.4 891.2 237.1 915.1 244.9 949.6C251 976.4 245.8 1008.9 248.1 1036.7C251.6 1078.5 277 1110.1 285.2 1149C294.7 1194.5 288.5 1245.1 303.6 1289.2C307.6 1301 318.4 1330.6 335.7 1327.7C371.4 1321.8 407.9 1073.7 406.4 1024.5C405.3 986.7 390.8 949.2 392.3 911.3C393.7 875.9 418.5 779 410.5 755.3C391.6 700.6 272.9 666.3 248.6 703.9Z" stroke="#161616" stroke-width="8" stroke-miterlimit="10" stroke-linecap="round" stroke-linejoin="round"/>
<path d="M222 755.1C221.3 755 223.8 757.4 223.9 757.5C226.9 760 230.5 761.6 234.1 763.1C237 764.3 239.9 765.3 242.9 766C258.3 769.5 273.4 766.4 288.8 766.4" stroke="#161616" stroke-width="4" stroke-miterlimit="10" stroke-linecap="round" stroke-linejoin="round"/>
<path d="M329.5 790.7C328.8 792.1 336.2 792.4 337 792.5C364.2 796.3 382.8 784.8 407.7 781.6" stroke="#161616" stroke-width="4" stroke-miterlimit="10" stroke-linecap="round" stroke-linejoin="round"/>
<path d="M260.2 811C258.7 811.9 277.4 816.8 279.1 817.1C294.5 820.1 309.8 820.8 325.5 820.1" stroke="#161616" stroke-width="4" stroke-miterlimit="10" stroke-linecap="round" stroke-linejoin="round"/>
<path d="M220.1 875.4C217.3 876.5 222.5 877.9 223.3 878.2C242.4 884.3 265.2 882.7 284.9 880.6" stroke="#161616" stroke-width="4" stroke-miterlimit="10" stroke-linecap="round" stroke-linejoin="round"/>
<path d="M316.2 909.1C314.9 906.7 321.7 910.2 324.4 910.2C330.2 910.1 336 909.6 341.7 908.6C359.9 905.4 378.1 899.3 394.6 891.1" stroke="#161616" stroke-width="4" stroke-miterlimit="10" stroke-linecap="round" stroke-linejoin="round"/>
<path d="M253.6 950.9C249.1 955.7 289.5 950.1 294.7 949.6" stroke="#161616" stroke-width="4" stroke-miterlimit="10" stroke-linecap="round" stroke-linejoin="round"/>
<path d="M400.2 970.9C400 968.8 396.9 973.6 395.1 974.7C391.3 977.2 387.4 979.3 383.3 981.4C368.9 988.7 354 994.3 338.8 999.5" stroke="#161616" stroke-width="4" stroke-miterlimit="10" stroke-linecap="round" stroke-linejoin="round"/>
<path d="M256.1 1018.8C255.3 1018.4 253.8 1019.4 255.8 1019.4C269.5 1019.1 282.5 1013.5 295.6 1010.4" stroke="#161616" stroke-width="4" stroke-miterlimit="10" stroke-linecap="round" stroke-linejoin="round"/>
<path d="M315 1062.3C315.1 1062.4 314.8 1062.6 316 1062C333 1053.1 352 1047.5 369.2 1038.9" stroke="#161616" stroke-width="4" stroke-miterlimit="10" stroke-linecap="round" stroke-linejoin="round"/>
<path d="M403.5 1070.4C398.2 1084 366.6 1093.3 354.6 1097.8" stroke="#161616" stroke-width="4" stroke-miterlimit="10" stroke-linecap="round" stroke-linejoin="round"/>
<path d="M292.6 1190.7C300 1194.4 325.3 1187.3 336.4 1184.3" stroke="#161616" stroke-width="4" stroke-miterlimit="10" stroke-linecap="round" stroke-linejoin="round"/>
<path d="M379.4 1195.6C374.2 1200.8 358.9 1206.7 350.5 1210.6" stroke="#161616" stroke-width="4" stroke-miterlimit="10" stroke-linecap="round" stroke-linejoin="round"/>
<path d="M322.4 1239.6C324.1 1240.9 339 1234.2 341.4 1233.3" stroke="#161616" stroke-width="4" stroke-miterlimit="10" stroke-linecap="round" stroke-linejoin="round"/>
<path d="M312.1 1281.1C312.1 1281.2 312.1 1281.3 312.2 1281.3C318.7 1284.8 341.7 1268.5 348 1265.6" stroke="#161616" stroke-width="4" stroke-miterlimit="10" stroke-linecap="round" stroke-linejoin="round"/>
<path d="M353.2 1294.2C350.4 1293.7 344.7 1297.4 342.3 1298.3" stroke="#161616" stroke-width="4" stroke-miterlimit="10" stroke-linecap="round" stroke-linejoin="round"/>
<path fill-rule="evenodd" clip-rule="evenodd" d="M958.9 574C957.9 574.8 964.3 571 965.4 570C970.1 565.5 973.1 560.4 975.3 554.2C981.4 537.4 988.1 513.4 980.6 496C964 457.6 904.8 456.8 870.4 465.8C796.9 485.2 791.1 554 820.7 583.3C842.3 604.8 912.2 590.1 958.9 574Z" fill="#F7F2EE"/>
<path d="M958.9 574C957.9 574.8 964.3 571 965.4 570C970.1 565.5 973.1 560.4 975.3 554.2C981.4 537.4 988.1 513.4 980.6 496C964 457.6 904.8 456.8 870.4 465.8C796.9 485.2 791.1 554 820.7 583.3C842.3 604.8 912.2 590.1 958.9 574Z" stroke="#161616" stroke-width="8" stroke-miterlimit="10" stroke-linecap="round" stroke-linejoin="round"/>
<path d="M900.4 594.8C896.2 600.1 860.5 595.9 863.3 580.8C869.8 545.9 954.5 541.9 964.8 554.3C980 572.7 912.8 592.6 897.6 594" stroke="#161616" stroke-width="8" stroke-miterlimit="10" stroke-linecap="round" stroke-linejoin="round"/>
<path fill-rule="evenodd" clip-rule="evenodd" d="M872.9 568.1C874.9 565.9 876.9 572.6 878.9 574.9C885.3 582.3 891.4 589.9 898 597.2C911.3 611.9 943.2 645 961.1 615.1C965.9 607 966.8 598.6 964.8 590.8C957.2 561.4 909.3 539 877.6 564.9" fill="#F7F2EE"/>
<path d="M872.9 568.1C874.9 565.9 876.9 572.6 878.9 574.9C885.3 582.3 891.4 589.9 898 597.2C911.3 611.9 943.2 645 961.1 615.1C965.9 607 966.8 598.6 964.8 590.8C957.2 561.4 909.3 539 877.6 564.9" stroke="#161616" stroke-width="8" stroke-miterlimit="10" stroke-linecap="round" stroke-linejoin="round"/>
<path d="M837.6 553C837.5 551 835.5 556.5 835.3 558.4C834.8 563.3 836.6 570.7 842.9 568.7C851.4 566.1 859.2 552.2 867.1 547C879.3 538.8 892.3 536.1 905.8 531.2C910.4 529.6 918.5 525.2 916.3 518.9C910.6 502.7 851.3 539.2 841.6 550" stroke="#161616" stroke-width="4" stroke-miterlimit="10" stroke-linecap="round" stroke-linejoin="round"/>
<path opacity="0.9116" fill-rule="evenodd" clip-rule="evenodd" d="M935.5 484.7C934.9 485.4 896.6 476.6 890.5 487.3C886.9 493.6 906.5 494.7 909 495C919.9 496.4 945.8 505.2 955.3 503.1C970.5 499.7 951.4 487.1 942.2 486.4" fill="black"/>
<path d="M935.5 484.7C934.9 485.4 896.6 476.6 890.5 487.3C886.9 493.6 906.5 494.7 909 495C919.9 496.4 945.8 505.2 955.3 503.1C970.5 499.7 951.4 487.1 942.2 486.4" stroke="#161616" stroke-width="4" stroke-miterlimit="10" stroke-linecap="round" stroke-linejoin="round"/>
<path fill-rule="evenodd" clip-rule="evenodd" d="M914.4 603.7C902.8 590.2 852.1 604.6 840.5 611.8C785.5 645.6 760.6 710.1 818.2 750.1C830.2 758.5 843.5 759 857 763.2C882.6 771.1 902.3 786.5 931.8 771.4C985.1 744.2 1006.1 658.8 953.6 619.8C945.6 613.8 935.9 613.4 926.9 609.9" fill="#F7F2EE"/>
<path d="M914.4 603.7C902.8 590.2 852.1 604.6 840.5 611.8C785.5 645.6 760.6 710.1 818.2 750.1C830.2 758.5 843.5 759 857 763.2C882.6 771.1 902.3 786.5 931.8 771.4C985.1 744.2 1006.1 658.8 953.6 619.8C945.6 613.8 935.9 613.4 926.9 609.9" stroke="#161616" stroke-width="8" stroke-miterlimit="10" stroke-linecap="round" stroke-linejoin="round"/>
<path opacity="0.9116" fill-rule="evenodd" clip-rule="evenodd" d="M905.9 630.2C905.7 630.3 904.7 622.6 904.5 622.3C902 617.9 895.1 613 889.8 615.4C884.9 617.7 896.5 632.5 894.3 633.1C891.4 633.9 866.1 613.7 863.5 629.1C862.3 636.4 885.2 634.4 883.3 640.3C881.8 645.1 853.3 649.2 864.2 657.9C872.8 664.7 885 646.9 892 652.2C898.2 656.8 876.1 676.3 888.3 678.2C897.5 679.7 897.5 666.5 905.6 668C914.7 669.7 907.4 690.9 920.8 688.1C930.8 686.1 915.9 666.4 923.2 661.7C932 656 941.1 683.4 950.3 680.3C952.4 679.6 947.7 659.9 934.8 650.8C929.9 647.3 948.3 651.8 949.3 647.6C953 633.4 925.1 640.2 924 634.7C921.7 621.8 923.5 626.4 905.9 630.2Z" fill="#F7F2EE"/>
<path d="M905.9 630.2C905.7 630.3 904.7 622.6 904.5 622.3C902 617.9 895.1 613 889.8 615.4C884.9 617.7 896.5 632.5 894.3 633.1C891.4 633.9 866.1 613.7 863.5 629.1C862.3 636.4 885.2 634.4 883.3 640.3C881.8 645.1 853.3 649.2 864.2 657.9C872.8 664.7 885 646.9 892 652.2C898.2 656.8 876.1 676.3 888.3 678.2C897.5 679.7 897.5 666.5 905.6 668C914.7 669.7 907.4 690.9 920.8 688.1C930.8 686.1 915.9 666.4 923.2 661.7C932 656 941.1 683.4 950.3 680.3C952.4 679.6 947.7 659.9 934.8 650.8C929.9 647.3 948.3 651.8 949.3 647.6C953 633.4 925.1 640.2 924 634.7C921.7 621.8 923.5 626.4 905.9 630.2Z" stroke="#161616" stroke-width="4" stroke-miterlimit="10" stroke-linecap="round" stroke-linejoin="round"/>
<path fill-rule="evenodd" clip-rule="evenodd" d="M587.5 1216.4C587.6 1216.1 588.2 1218.7 588.2 1218.9C590.2 1232.3 590 1246.6 587.6 1259.9C580.5 1299.6 546.2 1320.2 532.2 1356.3C524 1377.5 519.9 1399.1 520.8 1422C520.8 1422.2 521 1425.5 521.2 1425.4C529.7 1418.9 548.7 1365.2 552.4 1353.1C566.3 1307.5 600.9 1316.1 610.9 1234.6C611.8 1227.1 612.9 1206.4 619.1 1201.3C626.6 1195.1 667.9 1198.5 685.5 1187.9C736.3 1157.1 768.1 1048.4 707.4 1011.2C663.3 984.2 593 1009.6 553.6 1054.5C515.7 1097.7 506.5 1158.9 577.1 1208.9" fill="#F7F2EE"/>
<path d="M587.5 1216.4C587.6 1216.1 588.2 1218.7 588.2 1218.9C590.2 1232.3 590 1246.6 587.6 1259.9C580.5 1299.6 546.2 1320.2 532.2 1356.3C524 1377.5 519.9 1399.1 520.8 1422C520.8 1422.2 521 1425.5 521.2 1425.4C529.7 1418.9 548.7 1365.2 552.4 1353.1C566.3 1307.5 600.9 1316.1 610.9 1234.6C611.8 1227.1 612.9 1206.4 619.1 1201.3C626.6 1195.1 667.9 1198.5 685.5 1187.9C736.3 1157.1 768.1 1048.4 707.4 1011.2C663.3 984.2 593 1009.6 553.6 1054.5C515.7 1097.7 506.5 1158.9 577.1 1208.9" stroke="#161616" stroke-width="8" stroke-miterlimit="10" stroke-linecap="round" stroke-linejoin="round"/>
<path d="M557.3 1172.5C555.9 1170.9 561.2 1174.3 563.1 1175.3" stroke="#161616" stroke-width="4" stroke-miterlimit="10" stroke-linecap="round" stroke-linejoin="round"/>
<path d="M592.3 1185.7C592.5 1185.7 592.2 1185.7 592.3 1185.7" stroke="#161616" stroke-width="4" stroke-miterlimit="10" stroke-linecap="round" stroke-linejoin="round"/>
<path d="M612.5 1186.3C613 1187.8 620 1186.9 621.1 1186.9" stroke="#161616" stroke-width="4" stroke-miterlimit="10" stroke-linecap="round" stroke-linejoin="round"/>
<path d="M537.4 1144.6C535.4 1146.6 543.8 1149.1 544.3 1149.3" stroke="#161616" stroke-width="4" stroke-miterlimit="10" stroke-linecap="round" stroke-linejoin="round"/>
<path d="M572.9 1157.7C572.8 1157.8 572.8 1157.9 572.8 1158" stroke="#161616" stroke-width="4" stroke-miterlimit="10" stroke-linecap="round" stroke-linejoin="round"/>
<path d="M597 1162.5C595.9 1160.7 600.4 1165.1 602.4 1165.7C608.3 1167.3 614.5 1167.7 620.6 1168.5" stroke="#161616" stroke-width="4" stroke-miterlimit="10" stroke-linecap="round" stroke-linejoin="round"/>
<path d="M651.2 1173.8C651.1 1173.8 651.1 1174.4 651.1 1174.5" stroke="#161616" stroke-width="4" stroke-miterlimit="10" stroke-linecap="round" stroke-linejoin="round"/>
<path d="M537 1122.1C537.1 1121.9 536.8 1122.1 536.8 1122.2" stroke="#161616" stroke-width="4" stroke-miterlimit="10" stroke-linecap="round" stroke-linejoin="round"/>
<path d="M550.4 1132.7C551.4 1131.7 552.6 1134.6 553.9 1135.3C557.7 1137.3 561.8 1138.9 565.9 1140.4" stroke="#161616" stroke-width="4" stroke-miterlimit="10" stroke-linecap="round" stroke-linejoin="round"/>
<path d="M603 1148.6C603.1 1148.6 603.1 1148.7 603.2 1148.6" stroke="#161616" stroke-width="4" stroke-miterlimit="10" stroke-linecap="round" stroke-linejoin="round"/>
<path d="M635.5 1150C635.3 1150.2 635.9 1150 635.9 1150" stroke="#161616" stroke-width="4" stroke-miterlimit="10" stroke-linecap="round" stroke-linejoin="round"/>
<path d="M667.7 1154.8C669.6 1152.7 673.3 1154 676 1153.3" stroke="#161616" stroke-width="4" stroke-miterlimit="10" stroke-linecap="round" stroke-linejoin="round"/>
<path fill-rule="evenodd" clip-rule="evenodd" d="M744.6 911C756.4 872.2 795.8 876.1 802.8 872.3C808.2 869.4 839.7 841.9 844.3 845.1C873.3 865.3 798.7 901.1 790.6 914.4C767.7 951.9 775.9 1007.8 720.2 1006.7" fill="#F7F2EE"/>
<path d="M744.6 911C756.4 872.2 795.8 876.1 802.8 872.3C808.2 869.4 839.7 841.9 844.3 845.1C873.3 865.3 798.7 901.1 790.6 914.4C767.7 951.9 775.9 1007.8 720.2 1006.7" stroke="#161616" stroke-width="8" stroke-miterlimit="10" stroke-linecap="round" stroke-linejoin="round"/>
<path fill-rule="evenodd" clip-rule="evenodd" d="M693.9 995.8C693.4 996.4 682.8 999.1 682 998.9C679.5 998.5 688.2 994.4 691.4 993.6C728 984.8 734.8 958 740.7 924C742.5 913.9 744.9 905.4 747.8 898C762.9 860.4 791.4 853.2 812.6 816.3C821.7 800.5 816.9 782.7 819.3 765.6C822 746.8 851.4 733.3 841.7 711.8C822.2 668.4 778.4 774.7 777.9 775.4C769.2 788.8 758.1 801.7 744.2 809.6C730.6 817.3 636.3 990.8 630.7 1001.1" fill="#F7F2EE"/>
<path d="M693.9 995.8C693.4 996.4 682.8 999.1 682 998.9C679.5 998.5 688.2 994.4 691.4 993.6C728 984.8 734.8 958 740.7 924C742.5 913.9 744.9 905.4 747.8 898C762.9 860.4 791.4 853.2 812.6 816.3C821.7 800.5 816.9 782.7 819.3 765.6C822 746.8 851.4 733.3 841.7 711.8C822.2 668.4 778.4 774.7 777.9 775.4C769.2 788.8 758.1 801.7 744.2 809.6C730.6 817.3 636.3 990.8 630.7 1001.1" stroke="#161616" stroke-width="8" stroke-miterlimit="10" stroke-linecap="round" stroke-linejoin="round"/>
<path fill-rule="evenodd" clip-rule="evenodd" d="M670.7 916C668.9 908 682.6 767.9 686.5 757.9C697.9 728.8 690.4 698 699.2 668.9C704.8 650.5 722.8 643.1 726.4 623C727 619.8 727.8 610.1 733.5 612.3C765.2 624.5 734.7 695 732.5 715.6C729.7 742.2 736 768.6 733.8 795.1C731.7 819.8 719.9 842.3 717.5 866.8C715.9 883.5 723.4 902.5 717.5 918.5C713.8 928.5 704.3 934.2 699 943.1C693.7 952 693.8 962.8 688.7 971.7C680.5 985.9 659.6 988.7 647.5 998.5" fill="#F7F2EE"/>
<path d="M670.7 916C668.9 908 682.6 767.9 686.5 757.9C697.9 728.8 690.4 698 699.2 668.9C704.8 650.5 722.8 643.1 726.4 623C727 619.8 727.8 610.1 733.5 612.3C765.2 624.5 734.7 695 732.5 715.6C729.7 742.2 736 768.6 733.8 795.1C731.7 819.8 719.9 842.3 717.5 866.8C715.9 883.5 723.4 902.5 717.5 918.5C713.8 928.5 704.3 934.2 699 943.1C693.7 952 693.8 962.8 688.7 971.7C680.5 985.9 659.6 988.7 647.5 998.5" stroke="#161616" stroke-width="8" stroke-miterlimit="10" stroke-linecap="round" stroke-linejoin="round"/>
<path fill-rule="evenodd" clip-rule="evenodd" d="M610.5 1009.7C610.1 1008.6 610.6 1007.4 610.8 1006.3C613.2 984.9 628 966.2 631.4 944.6C635.2 920.8 613.1 887.8 606.7 866.8C599.8 844.1 608.7 786.7 599.3 773.7C591.3 762.7 574.1 763.8 564.8 754C538.2 725.9 577.5 702.7 564.9 677.5C558.6 664.9 519.2 643.9 525.3 629.3C534.3 608 564.8 626.5 576.6 634C605.5 652.3 600.2 695 632.8 728.2C663.6 759.5 642.3 793.7 656.2 830.1C673 874 683.6 928.6 655.5 972.3C648.6 983 634.1 988.2 629.4 1000.6" fill="#F7F2EE"/>
<path d="M610.5 1009.7C610.1 1008.6 610.6 1007.4 610.8 1006.3C613.2 984.9 628 966.2 631.4 944.6C635.2 920.8 613.1 887.8 606.7 866.8C599.8 844.1 608.7 786.7 599.3 773.7C591.3 762.7 574.1 763.8 564.8 754C538.2 725.9 577.5 702.7 564.9 677.5C558.6 664.9 519.2 643.9 525.3 629.3C534.3 608 564.8 626.5 576.6 634C605.5 652.3 600.2 695 632.8 728.2C663.6 759.5 642.3 793.7 656.2 830.1C673 874 683.6 928.6 655.5 972.3C648.6 983 634.1 988.2 629.4 1000.6" stroke="#161616" stroke-width="8" stroke-miterlimit="10" stroke-linecap="round" stroke-linejoin="round"/>
<path d="M543.7 622.1C542.4 622.5 549.6 629.1 550 629.4C556 634.8 561.3 640.7 566.4 646.9C582.1 666.3 594.9 688.6 602.3 712.5C605.6 723.1 605.3 734.9 609.6 745.1C614.2 756 624.5 762.7 627.3 774.9C631.6 794.2 627.4 814.7 631.6 834.2C640 872.7 654.4 902.6 651.4 937.2C650.3 949.5 635.5 984.7 628.9 998.8" stroke="#161616" stroke-width="4" stroke-miterlimit="10" stroke-linecap="round" stroke-linejoin="round"/>
<path d="M637.4 993.4C641.5 986.9 679.8 962.1 682.3 942.5C687.7 900.2 695.1 876.3 698.6 837C699.9 822.7 706.3 809.9 708.2 795.9C711.6 771.5 709.9 745.7 712.8 720.8C714.5 706.3 712.6 689.9 719 676.4C721.6 670.9 724.9 665.5 728.1 660.3" stroke="#161616" stroke-width="4" stroke-miterlimit="10" stroke-linecap="round" stroke-linejoin="round"/>
<path d="M719.7 917.2C720.2 919.6 721.4 912.7 722.2 910.4C723.9 905.7 725.8 901.1 727.8 896.5C733.3 883.8 738.8 871.1 744.8 858.6C756.6 833.9 808.9 813.4 804.5 783.1" stroke="#161616" stroke-width="4" stroke-miterlimit="10" stroke-linecap="round" stroke-linejoin="round"/>
<path d="M690.5 997.5C689.3 999.2 710.5 992.1 712.9 991.2C720.6 988.4 728 984.5 734.7 979.7C766.2 957.1 755.5 929.4 773.1 902.5" stroke="#161616" stroke-width="4" stroke-miterlimit="10" stroke-linecap="round" stroke-linejoin="round"/>
<path d="M778.4 949.1C780.6 949.9 774.5 951.8 773 953.5C755.3 972.5 748.8 987.2 748 1012.7C747.1 1042.1 751.7 1061.8 747.2 1081.1C737.3 1122.9 708.4 1163.1 723.8 1202C763.9 1302.9 873.5 1327.5 968.7 1298.5C988.2 1292.5 1010 1287 1026.4 1274.1C1195.4 1141.4 1033.4 866.8 832.7 933.4C814.3 939.5 791.2 944.8 776.2 957.7" stroke="#161616" stroke-width="8" stroke-miterlimit="10" stroke-linecap="round" stroke-linejoin="round"/>
<path opacity="0.9116" fill-rule="evenodd" clip-rule="evenodd" d="M734.6 979.4C734.3 979.8 760.8 1062.5 761 1063.1C769.2 1085.6 780.3 1155.5 818.9 1206.7C831.1 1222.9 817 1236.4 823.7 1252C837.6 1284.5 866.2 1314.1 881.5 1310.6C883.9 1310 903 1298.3 895.4 1281.9C893.2 1277.1 862.7 1274.4 861.1 1268.3C853.5 1239.8 878.3 1225.3 856.5 1216.6C843 1211.2 837.3 1202.5 835.2 1198.2C810.1 1148.2 793.4 1110.5 775.5 1058.2C771.9 1047.7 740.1 983.1 755.9 987.1C767.2 989.9 802.5 1059.3 826.9 1107.4C831.2 1115.8 860.8 1122 859.7 1132.1C857.9 1148.5 845.9 1170.3 875.9 1197.6C885.5 1206.4 898.7 1209.5 907.1 1220.4C916.4 1232.4 933.6 1264.5 940.3 1278.4C951.5 1301.8 923.5 1307.7 943.9 1305.4C950.4 1304.6 986.2 1304.3 982.2 1285.5C976.4 1258 933 1247.9 932.7 1232.6C932.1 1198.2 894.5 1187 877.6 1168.9C867 1157.6 898.7 1139.4 864.8 1111.9C809.2 1066.9 817.8 1040.1 756.8 987C754.7 985.2 750.8 978.9 748.5 978.4" fill="black"/>
<path d="M734.6 979.4C734.3 979.8 760.8 1062.5 761 1063.1C769.2 1085.6 780.3 1155.5 818.9 1206.7C831.1 1222.9 817 1236.4 823.7 1252C837.6 1284.5 866.2 1314.1 881.5 1310.6C883.9 1310 903 1298.3 895.4 1281.9C893.2 1277.1 862.7 1274.4 861.1 1268.3C853.5 1239.8 878.3 1225.3 856.5 1216.6C843 1211.2 837.3 1202.5 835.2 1198.2C810.1 1148.2 793.4 1110.5 775.5 1058.2C771.9 1047.7 740.1 983.1 755.9 987.1C767.2 989.9 802.5 1059.3 826.9 1107.4C831.2 1115.8 860.8 1122 859.7 1132.1C857.9 1148.5 845.9 1170.3 875.9 1197.6C885.5 1206.4 898.7 1209.5 907.1 1220.4C916.4 1232.4 933.6 1264.5 940.3 1278.4C951.5 1301.8 923.5 1307.7 943.9 1305.4C950.4 1304.6 986.2 1304.3 982.2 1285.5C976.4 1258 933 1247.9 932.7 1232.6C932.1 1198.2 894.5 1187 877.6 1168.9C867 1157.6 898.7 1139.4 864.8 1111.9C809.2 1066.9 817.8 1040.1 756.8 987C754.7 985.2 750.8 978.9 748.5 978.4" stroke="#161616" stroke-width="8" stroke-miterlimit="10" stroke-linecap="round" stroke-linejoin="round"/>
<path d="M673.2 730.5C673.2 730.7 673 730.9 672.9 731.1" stroke="#161616" stroke-width="8" stroke-miterlimit="10" stroke-linecap="round" stroke-linejoin="round"/>
<path d="M745.9 724.9C745.8 725 745.8 725.2 745.8 725.3" stroke="#161616" stroke-width="8" stroke-miterlimit="10" stroke-linecap="round" stroke-linejoin="round"/>
<path d="M764.2 742.6C764.2 742.7 764.1 742.7 764 742.8" stroke="#161616" stroke-width="8" stroke-miterlimit="10" stroke-linecap="round" stroke-linejoin="round"/>
<path d="M755.9 774.4C755.9 774.4 755.8 774.4 755.9 774.4" stroke="#161616" stroke-width="8" stroke-miterlimit="10" stroke-linecap="round" stroke-linejoin="round"/>
<path d="M668.8 761.2C668.8 761.2 668.8 761.3 668.8 761.2" stroke="#161616" stroke-width="8" stroke-miterlimit="10" stroke-linecap="round" stroke-linejoin="round"/>
<path d="M665.5 799.7C665.5 799.7 665.5 799.8 665.5 799.7" stroke="#161616" stroke-width="8" stroke-miterlimit="10" stroke-linecap="round" stroke-linejoin="round"/>
<path d="M785.6 732.6C785.6 732.6 785.6 732.7 785.6 732.6" stroke="#161616" stroke-width="8" stroke-miterlimit="10" stroke-linecap="round" stroke-linejoin="round"/>
<path fill-rule="evenodd" clip-rule="evenodd" d="M949.3 894.1C954.8 910.5 980.5 944.4 979 960.5C977 981.6 966.5 1009.6 975.7 1029.7C1004.6 1092.4 1037.8 1150.3 1045.9 1219.9C1048.8 1245.1 1039.7 1276.5 1031.6 1303.2C1025.7 1322.5 982.8 1399.2 1037.8 1390C1046.7 1388.5 1055.5 1380.7 1062.3 1375.2C1068.4 1370.4 1076 1367.5 1081.6 1362.1C1107.8 1337.2 1133.8 1283.7 1136.5 1248.6C1139.9 1204.3 1135.9 1167.9 1124.3 1124.6C1117.3 1098.5 1077.7 972.4 1054.3 954.1C1039.4 942.4 1018.4 951 1001.8 946.1C982.3 940.5 967.3 884.7 949.3 894.1Z" fill="#F7F2EE"/>
<path d="M949.3 894.1C954.8 910.5 980.5 944.4 979 960.5C977 981.6 966.5 1009.6 975.7 1029.7C1004.6 1092.4 1037.8 1150.3 1045.9 1219.9C1048.8 1245.1 1039.7 1276.5 1031.6 1303.2C1025.7 1322.5 982.8 1399.2 1037.8 1390C1046.7 1388.5 1055.5 1380.7 1062.3 1375.2C1068.4 1370.4 1076 1367.5 1081.6 1362.1C1107.8 1337.2 1133.8 1283.7 1136.5 1248.6C1139.9 1204.3 1135.9 1167.9 1124.3 1124.6C1117.3 1098.5 1077.7 972.4 1054.3 954.1C1039.4 942.4 1018.4 951 1001.8 946.1C982.3 940.5 967.3 884.7 949.3 894.1Z" stroke="#161616" stroke-width="8" stroke-miterlimit="10" stroke-linecap="round" stroke-linejoin="round"/>
<path d="M1035.6 983.6C1054 1002.5 1061.1 1044.2 1068.1 1068.7C1089.7 1144.3 1113.9 1227 1085.8 1304.6C1079 1323.4 1062.7 1337.8 1057 1351.9" stroke="#161616" stroke-width="4" stroke-miterlimit="10" stroke-linecap="round" stroke-linejoin="round"/>
<path fill-rule="evenodd" clip-rule="evenodd" d="M830.9 804.1C813.5 795 789.5 816.8 790.7 834C792.3 857.2 811.7 875.9 820 896.4C826.7 912.9 823.6 931.9 830.5 948.5C834.5 958.1 843.1 970.4 854.4 971C862.2 971.5 869.4 967.8 876.2 964.4C906.9 949.1 886.6 909.7 879.2 884.7C874.4 868.5 871.8 850.8 862.9 836.1C859.3 830.2 837.7 808.8 837.1 805.2C835.9 797.2 850 791.8 855.9 790.8C877.3 786.9 895.2 811.6 903.6 827.7C917.9 855 932.7 887.2 925.9 918.6C924.9 923.4 898.9 917.3 890.9 922.6C889.4 923.6 889.6 946.6 897.2 963.3C900.1 969.8 922.9 965.8 926.4 964.7C987.6 944.9 961.6 851.1 946 809C939.7 792.1 924.6 756.5 901.2 760.8C875.1 765.5 883.7 785.1 874.5 794.3" fill="#F7F2EE"/>
<path d="M830.9 804.1C813.5 795 789.5 816.8 790.7 834C792.3 857.2 811.7 875.9 820 896.4C826.7 912.9 823.6 931.9 830.5 948.5C834.5 958.1 843.1 970.4 854.4 971C862.2 971.5 869.4 967.8 876.2 964.4C906.9 949.1 886.6 909.7 879.2 884.7C874.4 868.5 871.8 850.8 862.9 836.1C859.3 830.2 837.7 808.8 837.1 805.2C835.9 797.2 850 791.8 855.9 790.8C877.3 786.9 895.2 811.6 903.6 827.7C917.9 855 932.7 887.2 925.9 918.6C924.9 923.4 898.9 917.3 890.9 922.6C889.4 923.6 889.6 946.6 897.2 963.3C900.1 969.8 922.9 965.8 926.4 964.7C987.6 944.9 961.6 851.1 946 809C939.7 792.1 924.6 756.5 901.2 760.8C875.1 765.5 883.7 785.1 874.5 794.3" stroke="#161616" stroke-width="8" stroke-miterlimit="10" stroke-linecap="round" stroke-linejoin="round"/>
<path fill-rule="evenodd" clip-rule="evenodd" d="M248.5 988.4C247.8 1007.5 247.5 1034.5 266.7 1092.8C280.9 1135.9 337.9 1232 416.7 1240.9C554.4 1256.4 732.1 1161.1 743.7 1093.7C757.6 1013.5 715.8 950.3 762.3 944.2C783.1 941.5 765 1000.3 787.3 1001.9C808.9 1003.4 812.6 907.9 830.4 907.9C850.5 907.9 818 1027.7 825.3 1014.1C832.8 1000.2 845.4 923.3 859.9 915.5C903.1 892.1 826.5 1066.4 857.7 1027C865.3 1017.4 871.1 957.1 880.8 949.6C912.5 925.2 888.2 1040 872.4 1056.5C870.9 1058 869.2 1059.5 868.3 1061.5C867.1 1064.2 923 995 927.9 1029.4C932.9 1064.1 809.7 1119.1 766.9 1152.5C745.3 1169.4 678.3 1226.2 635.5 1252.2C514.3 1325.9 401.5 1333.9 314.4 1280.2C240.8 1234.8 199.2 1179.5 180 1109.7C168.8 1069 164.3 1027.7 164.1 988.4H248.5Z" fill="#87B607"/>
<path d="M248.5 988.4C247.8 1007.5 247.5 1034.5 266.7 1092.8C280.9 1135.9 337.9 1232 416.7 1240.9C554.4 1256.4 732.1 1161.1 743.7 1093.7C757.6 1013.5 715.8 950.3 762.3 944.2C783.1 941.5 765 1000.3 787.3 1001.9C808.9 1003.4 812.6 907.9 830.4 907.9C850.5 907.9 818 1027.7 825.3 1014.1C832.8 1000.2 845.4 923.3 859.9 915.5C903.1 892.1 826.5 1066.4 857.7 1027C865.3 1017.4 871.1 957.1 880.8 949.6C912.5 925.2 888.2 1040 872.4 1056.5C870.9 1058 869.2 1059.5 868.3 1061.5C867.1 1064.2 923 995 927.9 1029.4C932.9 1064.1 809.7 1119.1 766.9 1152.5C745.3 1169.4 678.3 1226.2 635.5 1252.2C514.3 1325.9 401.5 1333.9 314.4 1280.2C240.8 1234.8 199.2 1179.5 180 1109.7C168.8 1069 164.3 1027.7 164.1 988.4H248.5V988.4Z" stroke="#161616" stroke-width="8" stroke-miterlimit="10" stroke-linecap="round" stroke-linejoin="round"/>
<path fill-rule="evenodd" clip-rule="evenodd" d="M164.3 988.4V981.1C165.4 873.8 198.2 783 213.7 762.6C225.5 747 199.1 845.6 206.6 837.6C205.4 838.2 204.4 862.8 243 942.8C248.1 953.3 249.3 966 248.7 983.7L248.5 988.4C248.5 988.4 224.6 1002.3 201.2 1000.3C188.9 999.2 164.3 988.4 164.3 988.4Z" fill="#F7F2EE"/>
<path fill-rule="evenodd" clip-rule="evenodd" d="M212.9 770.2C212.8 770.8 212.8 771.4 212.7 772C210.5 788.2 204 817.1 202.3 830.4C201.8 834.4 201.8 837.2 202.2 838.4C202.4 839 202.6 839.4 202.9 839.8C202.9 840.1 202.9 840.5 202.9 840.9C203 845.5 204.4 854.9 209.7 871.3C215 887.7 224.2 911.3 240.1 944.2C242.3 948.7 243.7 953.6 244.5 959.2C245.6 966.2 245.8 974.1 245.4 983.5L245.3 986.3C242.1 988 234.4 991.7 224.8 994.3C217.7 996.2 209.6 997.5 201.5 996.9C197.6 996.6 192.4 995.2 187.1 993.5C179.3 991 171.6 987.9 167.9 986.3V981.1C168.3 940.6 173.2 902.4 180.1 869.5C189.9 822.7 203.3 786.7 212.9 770.2ZM209.7 839C209.7 839.5 209.6 841 209.8 842.7C210.5 849.8 213.6 864.4 223.6 890.2C228.9 903.9 236.2 920.8 246.1 941.3C248.5 946.4 250.2 951.9 251.1 958.2C252.2 965.5 252.5 973.9 252.1 983.8L251.9 988.5C251.9 989.7 251.2 990.7 250.2 991.3C250.2 991.3 240.1 997.2 226.5 1000.8C218.7 1002.9 209.8 1004.3 200.9 1003.5C196.6 1003.1 190.8 1001.6 185.1 999.8C174 996.2 163 991.4 163 991.4H162.9C161.6 990.9 160.7 989.7 160.7 988.3V981C161.1 940 166.2 901.3 173.1 868.1C184.5 813.5 201.1 773.3 210.8 760.4C214.3 755.8 217.5 757.2 218.8 758.9C219.2 759.4 219.6 760.2 219.9 761.2C220.1 762.3 220.2 764 220.1 766.1C219.4 779.8 210.6 817.1 208.8 832.1C208.7 833 208.6 834 208.6 834.8C208.8 835 209 835.2 209.2 835.4C210.2 836.5 210.3 837.9 209.7 839Z" fill="#161616"/>
<path fill-rule="evenodd" clip-rule="evenodd" d="M1247.3 994C1247.9 1011.7 1247.7 1028.5 1246.9 1044.6C1240 1170.9 1189.6 1246 1115.9 1258.3C1073.6 1265.4 969.4 1243 844 1233.6C810 1231.1 774 1377.6 748.1 1373.8C739.9 1372.6 757.7 1319.9 758.9 1315.8C762.4 1302.8 641.1 1398 653.7 1373C663.8 1352.9 742.9 1306.8 735.2 1300.1C726.9 1293 638.8 1362.5 616.1 1344.1C607.9 1337.4 724.9 1278.7 722.8 1277.3C722 1276.8 569.6 1332.7 596.2 1311.4C642.6 1274.3 734.3 1241 731.9 1225C730.2 1213.4 722.9 1206 687.2 1226.4C682 1229.4 678.9 1230.5 674 1232.2C667.4 1234.6 660 1235.2 663.1 1216C667.3 1189.9 736.3 1163.9 785.9 1174.8C854.8 1190 1017 1192.3 1045.1 1177.9C1100 1149.9 1146.2 1128.1 1131.3 993.9H1247.3V994Z" fill="#87B607"/>
<path d="M1247.3 994C1247.9 1011.7 1247.7 1028.5 1246.9 1044.6C1240 1170.9 1189.6 1246 1115.9 1258.3C1073.6 1265.4 969.4 1243 844 1233.6C810 1231.1 774 1377.6 748.1 1373.8C739.9 1372.6 757.7 1319.9 758.9 1315.8C762.4 1302.8 641.1 1398 653.7 1373C663.8 1352.9 742.9 1306.8 735.2 1300.1C726.9 1293 638.8 1362.5 616.1 1344.1C607.9 1337.4 724.9 1278.7 722.8 1277.3C722 1276.8 569.6 1332.7 596.2 1311.4C642.6 1274.3 734.3 1241 731.9 1225C730.2 1213.4 722.9 1206 687.2 1226.4C682 1229.4 678.9 1230.5 674 1232.2C667.4 1234.6 660 1235.2 663.1 1216C667.3 1189.9 736.3 1163.9 785.9 1174.8C854.8 1190 1017 1192.3 1045.1 1177.9C1100 1149.9 1146.2 1128.1 1131.3 993.9H1247.3V994Z" stroke="#161616" stroke-width="8" stroke-miterlimit="10" stroke-linecap="round" stroke-linejoin="round"/>
<path fill-rule="evenodd" clip-rule="evenodd" d="M1131.2 994L1129.8 982.2C1129.8 982.2 1144.6 961.5 1159.9 908.6C1168.5 878.9 1180.4 816.4 1180.1 779.2C1179.9 761 1225.8 823.8 1237 891.7C1243 928.3 1246.4 962.5 1247.5 994.1C1247.5 994.1 1218.4 1013.1 1185.9 1015.1C1151.5 1017.1 1131.2 994 1131.2 994Z" fill="#F7F2EE"/>
<path fill-rule="evenodd" clip-rule="evenodd" d="M1183.5 780.7C1184.4 781.5 1185.4 782.5 1186.5 783.8C1193.7 791.8 1204.2 808.3 1213.6 829C1222.1 847.6 1229.7 869.6 1233.4 892.2C1236.3 909.7 1238.6 926.6 1240.3 943C1242.1 960 1243.2 976.4 1243.8 992.2C1240 994.5 1229.8 1000.3 1216.6 1005C1207.4 1008.3 1196.7 1011 1185.5 1011.7C1174.6 1012.4 1165.1 1010.4 1157.3 1007.4C1145.1 1002.7 1137.2 995.6 1134.5 992.9L1133.3 983.2C1135.2 980.2 1140.6 971.4 1147.3 955.3C1152.1 944 1157.5 928.9 1163.1 909.7C1167.5 894.3 1172.9 870.1 1177 845.1C1180.8 822.2 1183.5 798.7 1183.5 780.7ZM1127.6 994.4C1127.7 995.1 1128 995.7 1128.5 996.2H1128.7C1128.7 996.2 1138.1 1007 1155 1013.5C1163.5 1016.8 1173.9 1019.1 1186 1018.3C1197.8 1017.6 1209.2 1014.7 1218.9 1011.2C1236.7 1004.9 1249.2 996.8 1249.2 996.8C1250.2 996.2 1250.8 995 1250.7 993.9C1250.2 977.4 1249 960.2 1247.1 942.3C1245.4 925.8 1243.1 908.7 1240.2 891.1C1234.6 857 1220.3 824.1 1207.4 801.9C1200.9 790.7 1194.7 782.2 1190.1 777.5C1186.6 773.9 1183.4 772.5 1181.6 772.5C1179 772.6 1176.4 774.2 1176.5 779.2C1176.6 797.1 1173.9 820.8 1170.2 843.9C1166.1 868.5 1160.9 892.4 1156.5 907.6C1151 926.5 1145.6 941.3 1140.9 952.4C1132.7 971.8 1126.8 980.1 1126.8 980.1C1126.3 980.8 1126 981.7 1126.2 982.6L1127.6 994.4Z" fill="#161616"/>
</svg>
