<svg width="1500" height="1500" viewBox="0 0 1500 1500" fill="none" xmlns="http://www.w3.org/2000/svg">
<rect width="1500" height="1500" fill="#F7F2EE"/>
<path d="M995.511 1240C1002.02 1239.3 1039.19 1148.5 1055.52 1162.3C1063.23 1168.8 1009.34 1096.1 995.612 1069.8C978.582 1036.9 941.116 968 896.237 930C876.402 913.2 832.625 890.8 795.26 873.9C762.402 859.1 739.462 849.5 737.659 854.8C731.047 874.5 748.578 870 761.701 883.7C771.318 893.8 771.218 905.5 766.109 913.7C755.19 931.2 708.908 910.1 701.395 893.1C695.084 878.6 720.128 852.1 704.701 857.6C689.574 863 676.852 884 685.768 901.5C690.676 911.1 694.583 915.5 702.898 921.6C703.799 922.2 715.62 931.2 713.316 932.5C702.297 938.4 653.11 892.6 637.884 872.7C635.479 869.6 618.65 855.1 613.942 860.3C609.734 864.9 630.871 893.5 633.276 896.3C649.103 914.4 660.022 924.2 678.555 939.3C681.761 941.9 702.998 952.1 702.898 957.2C702.898 958.5 674.448 945.6 674.047 945.4C669.339 943.4 606.028 899.2 610.335 911.9C624.16 952.3 703.699 975.2 705.402 978.4C705.703 979 682.462 982.8 640.288 985.3C638.585 985.4 636.782 987.1 637.383 989.2C640.889 1001.3 689.274 1003.2 699.091 1002.9C756.692 1001.3 828.318 942.4 885.719 976C914.369 992.8 930.497 1097.5 953.938 1193.6C973.673 1274.7 965.459 1350 1007.33 1360.9C1023.06 1365 1056.62 1305.4 1065.03 1260C1073.85 1211.5 977.38 1241.9 995.511 1240Z" stroke="#161616" stroke-width="8" stroke-miterlimit="10" stroke-linecap="round" stroke-linejoin="round"/>
<path d="M762.803 486.5C760.099 505.1 765.207 508.9 766.009 528.8C766.81 548.7 780.434 568 777.529 587.9C774.424 608.8 745.773 622.4 742.968 637.5C740.264 652.5 760.199 657.3 762.503 670.2C763.905 678.4 755.791 684.5 757.093 691.6C758.396 698.6 769.415 697.2 770.817 701.7C771.619 704.5 763.004 709.7 764.807 715.5C767.311 723.8 779.533 726 784.141 733C793.557 747.3 785.042 765 801.171 777.5C832.926 802 873.998 763.2 897.44 757.6C976.278 738.7 1027.77 807.7 1038.39 881.3C1046.6 938.4 1045.1 1006.2 1022.96 1080.4" stroke="#161616" stroke-width="8" stroke-miterlimit="10" stroke-linecap="round" stroke-linejoin="round"/>
<path fill-rule="evenodd" clip-rule="evenodd" d="M1118.43 925.2C1090.18 1007.3 955.942 1164.9 941.216 1186.5C852.661 1315.7 926.891 1371.5 1077.66 1367.4C1034.78 1359.7 977.48 1322.8 1029.17 1206.5C1092.38 1064.2 1362.86 881 1376.38 733.5C1388.7 599.8 1213.49 624.7 1194.56 558.2C1179.53 505.2 1284.42 458.3 1236.53 365.7C1211.19 316.7 1155.69 274.2 1098.69 280.5C1067.64 283.9 1038.39 304.6 1006.73 292.8C954.439 273.2 907.858 206.9 844.446 195C777.329 182.4 712.515 228.8 676.852 287.1C624.16 373.2 634.778 485.5 794.358 473.4C850.257 469.2 839.938 352.5 871.694 356.7C903.35 360.9 846.049 483.6 984.492 498.5C1018.45 502.2 943.12 576.1 916.072 627.8C900.745 657 900.445 674.4 917.775 691.5C931.199 704.8 983.791 678.4 1019.55 682.5C1094.18 691.1 1160.6 802.9 1118.43 925.2Z" fill="#5026D9"/>
<path d="M1118.43 925.2C1090.18 1007.3 955.942 1164.9 941.216 1186.5C852.661 1315.7 926.891 1371.5 1077.66 1367.4C1034.78 1359.7 977.48 1322.8 1029.17 1206.5C1092.38 1064.2 1362.86 881 1376.38 733.5C1388.7 599.8 1213.49 624.7 1194.56 558.2C1179.53 505.2 1284.42 458.3 1236.53 365.7C1211.19 316.7 1155.69 274.2 1098.69 280.5C1067.64 283.9 1038.39 304.6 1006.73 292.8C954.439 273.2 907.858 206.9 844.446 195C777.329 182.4 712.515 228.8 676.852 287.1C624.16 373.2 634.778 485.5 794.358 473.4C850.257 469.2 839.938 352.5 871.694 356.7C903.35 360.9 846.049 483.6 984.492 498.5C1018.45 502.2 943.12 576.1 916.072 627.8C900.745 657 900.445 674.4 917.775 691.5C931.199 704.8 983.791 678.4 1019.55 682.5C1094.18 691.1 1160.6 802.9 1118.43 925.2Z" stroke="#161616" stroke-width="8" stroke-miterlimit="10" stroke-linecap="round" stroke-linejoin="round"/>
<path d="M1031.27 1315.5C1050.11 1330.2 1069.04 1266.8 1009.34 1249C975.476 1238.9 1058.82 1080.5 1093.18 1028.6C1149.68 943.3 1415.75 798 1325.79 681.4C1268.19 606.7 1089.48 703.2 1089.48 513.3C1089.48 499.8 1091.68 485.8 1096.99 473.3C1103.5 457.8 1114.62 443.9 1129.55 435.9C1145.37 427.4 1165.21 426.3 1180.64 436.4C1241.74 476.6 1106.41 534.1 1123.64 461.9C1126.04 451.7 1132.25 443.3 1141.67 438.8C1167.41 426.4 1138.16 474.8 1118.33 454.1C1104.1 439.2 1100.5 417.5 1102.2 397.7C1110.11 305 1213.09 360.6 1183.34 389.8C1143.07 429.2 1045 358.9 1096.49 330.4C1102.5 327.1 1112.02 325.9 1117.83 330.4C1131.85 341.4 1110.71 355.8 1100.9 357.5C1035.28 368.7 952.035 259.5 858.17 233.8C836.332 227.8 813.993 226.4 791.153 232C749.78 242.2 723.334 301.7 768.613 326.5C795.46 341.2 841.942 303.8 809.986 284.3C793.657 274.3 767.812 287 776.126 308C790.251 343.6 871.494 388.4 787.346 444.3C698.39 503.5 658.42 347.7 742.768 356.8C792.856 362.2 700.694 426.7 700.594 375.2C700.594 364 705.703 354.7 714.318 347.9C750.381 319.7 815.295 372.6 869.691 338C879.107 332 905.053 300.8 879.508 296.7C867.286 294.8 855.967 305.2 859.773 317.6C875.301 368.2 978.281 369.7 1018.25 389C1021.36 390.5 1026.27 393 1029.27 394.7C1034.28 397.4 1039.29 400.3 1044.1 403.6C1046.9 405.5 1049.71 407.6 1052.21 409.9C1057.62 414.8 1062.23 420.9 1064.43 428C1092.08 515.6 912.566 433.5 981.787 413C999.018 407.9 1019.65 416.9 1033.08 427.5C1122.84 498.4 953.939 567.8 991.304 622.9C1009.64 650 1060.53 649.1 1086.97 638.9C1090.28 637.6 1120.73 612 1109.91 612.4C1105.5 612.5 1106.21 623.9 1106.41 626.3C1109.31 654.1 1143.07 659.9 1165.71 657.9C1178.63 656.7 1213.69 645.9 1206.98 625.8C1206.18 623.5 1204.38 622 1202.07 621.3C1195.76 619.5 1189.25 624.4 1185.44 629C1145.37 677.7 1298.34 840.6 1194.36 865.1C1132.65 879.6 1151.89 752.7 1204.08 782.7C1263.38 816.8 1126.34 881.6 1155.69 820.6C1173.32 784 1238.64 781.5 1252.26 822.3C1280.01 905.5 1116.62 1032.9 1070.74 1073.2C1004.63 1131.4 954.439 1201.1 976.077 1252.5C993.107 1292.7 1042.39 1237.8 1076.15 1201.9C1112.62 1163.2 1000.72 1265 1010.24 1317.2" stroke="#F7F2EE" stroke-width="4" stroke-miterlimit="10" stroke-linecap="round" stroke-linejoin="round"/>
<path d="M806.38 588.9C817.299 574.6 827.817 564.3 840.139 565.1C867.086 566.9 873.698 574.1 881.612 556.7" stroke="#161616" stroke-width="8" stroke-miterlimit="10" stroke-linecap="round" stroke-linejoin="round"/>
<path d="M327.539 251C318.824 256.6 326.738 377.4 300.291 361.2C294.581 357.7 292.578 346.7 291.476 341.2C279.455 275.4 328.04 270.5 343.167 227.1C344.87 222.3 345.771 216.9 345.37 211.3C342.666 171.3 304.599 208.6 322.53 220C333.049 226.7 329.242 211.1 329.543 213.2" stroke="#161616" stroke-width="8" stroke-miterlimit="10" stroke-linecap="round" stroke-linejoin="round"/>
<path fill-rule="evenodd" clip-rule="evenodd" d="M324.835 271.3C331.647 291.5 396.761 348.5 400.668 392.3C402.872 417.4 394.857 439.8 387.945 462C387.845 462.4 384.038 472.5 383.537 472C383.037 471.4 385.441 466.9 385.641 466.4C390.249 454.9 394.056 439.9 385.742 426.1C379.33 415.4 369.713 408.2 359.495 403.1C268.135 357.6 324.234 310.5 324.835 271.3Z" fill="#F7F2EE"/>
<path d="M324.835 271.3C331.647 291.5 396.761 348.5 400.668 392.3C402.872 417.4 394.857 439.8 387.945 462C387.845 462.4 384.038 472.5 383.537 472C383.037 471.4 385.441 466.9 385.641 466.4C390.249 454.9 394.056 439.9 385.742 426.1C379.33 415.4 369.713 408.2 359.495 403.1C268.135 357.6 324.234 310.5 324.835 271.3Z" stroke="#161616" stroke-width="8" stroke-miterlimit="10" stroke-linecap="round" stroke-linejoin="round"/>
<path fill-rule="evenodd" clip-rule="evenodd" d="M324.433 269.5C322.73 267.3 327.739 258.1 328.841 255.8C348.976 215.7 378.929 227.5 418.899 226.2C430.52 225.8 441.238 224.6 450.555 218.8C453.46 217 455.864 208.6 458.168 212.1C459.27 213.7 450.054 231.2 449.653 233.7C445.947 258.8 448.451 287.5 434.527 307.3C410.184 341.7 336.254 339.4 324.233 278.4" fill="#F7F2EE"/>
<path d="M324.433 269.5C322.73 267.3 327.739 258.1 328.841 255.8C348.976 215.7 378.929 227.5 418.899 226.2C430.52 225.8 441.238 224.6 450.555 218.8C453.46 217 455.864 208.6 458.168 212.1C459.27 213.7 450.054 231.2 449.653 233.7C445.947 258.8 448.451 287.5 434.527 307.3C410.184 341.7 336.254 339.4 324.233 278.4" stroke="#161616" stroke-width="8" stroke-miterlimit="10" stroke-linecap="round" stroke-linejoin="round"/>
<path fill-rule="evenodd" clip-rule="evenodd" d="M329.442 271.2C329.442 271.2 331.145 239.7 404.874 249.2C409.483 249.8 420.001 247.8 420.201 248.3C420.903 249.9 414.391 268.9 413.69 270.9C409.382 283.5 403.172 294.4 391.752 300.5C376.926 308.3 359.695 305.1 346.172 290.9C343.868 288.3 330.844 274.5 329.442 271.2Z" fill="#F2AF0D"/>
<path d="M329.442 271.2C329.442 271.2 331.145 239.7 404.874 249.2C409.483 249.8 420.001 247.8 420.201 248.3C420.903 249.9 414.391 268.9 413.69 270.9C409.382 283.5 403.172 294.4 391.752 300.5C376.926 308.3 359.695 305.1 346.172 290.9C343.868 288.3 330.844 274.5 329.442 271.2Z" stroke="#161616" stroke-width="4" stroke-miterlimit="10" stroke-linecap="round" stroke-linejoin="round"/>
<path fill-rule="evenodd" clip-rule="evenodd" d="M326.538 291.8C344.068 340.1 381.234 379.6 386.242 385.4C386.543 385.8 352.383 385.1 335.453 363.6C307.404 328.2 315.919 303.5 326.538 291.8Z" fill="#F2AF0D"/>
<path d="M326.538 291.8C344.068 340.1 381.234 379.6 386.242 385.4C386.543 385.8 352.383 385.1 335.453 363.6C307.404 328.2 315.919 303.5 326.538 291.8Z" stroke="#161616" stroke-width="4" stroke-miterlimit="10" stroke-linecap="round" stroke-linejoin="round"/>
<path d="M523.683 865.9C524.685 864.4 520.277 865.2 518.474 864.9C513.666 864.2 508.857 864.2 504.149 864.3C481.71 864.8 460.673 870.7 441.038 881.6C396.059 906.7 359.094 992.1 302.395 980.9" stroke="#161616" stroke-width="8" stroke-miterlimit="10" stroke-linecap="round" stroke-linejoin="round"/>
<path fill-rule="evenodd" clip-rule="evenodd" d="M497.438 870.2C497.237 869.9 495.734 889.8 495.233 894.8C494.031 905.9 484.214 945.2 468.787 938.9C427.014 921.9 490.626 879 497.438 870.2Z" fill="#F2AF0D"/>
<path d="M497.438 870.2C497.237 869.9 495.734 889.8 495.233 894.8C494.031 905.9 484.214 945.2 468.787 938.9C427.014 921.9 490.626 879 497.438 870.2Z" stroke="#161616" stroke-width="4" stroke-miterlimit="10" stroke-linecap="round" stroke-linejoin="round"/>
<path fill-rule="evenodd" clip-rule="evenodd" d="M455.363 873.8C457.868 872.9 449.854 872.7 447.049 871.9C444.444 871.2 427.815 865.4 412.087 856.4C387.945 842.5 374.722 844.1 371.115 856.1C359.896 892.8 440.036 873.9 447.149 872" fill="#F2AF0D"/>
<path d="M455.363 873.8C457.868 872.9 449.854 872.7 447.049 871.9C444.444 871.2 427.815 865.4 412.087 856.4C387.945 842.5 374.722 844.1 371.115 856.1C359.896 892.8 440.036 873.9 447.149 872" stroke="#161616" stroke-width="4" stroke-miterlimit="10" stroke-linecap="round" stroke-linejoin="round"/>
<path fill-rule="evenodd" clip-rule="evenodd" d="M407.479 918.3C409.082 916.9 407.479 923.5 407.379 926.1C407.179 934.1 414.792 971.9 414.291 979.8C413.59 992.4 407.579 1027.2 392.052 1026.8C358.293 1026.2 402.571 966.4 407.479 918.3Z" fill="#F2AF0D"/>
<path d="M407.479 918.3C409.082 916.9 407.479 923.5 407.379 926.1C407.179 934.1 414.792 971.9 414.291 979.8C413.59 992.4 407.579 1027.2 392.052 1026.8C358.293 1026.2 402.571 966.4 407.479 918.3Z" stroke="#161616" stroke-width="4" stroke-miterlimit="10" stroke-linecap="round" stroke-linejoin="round"/>
<path fill-rule="evenodd" clip-rule="evenodd" d="M253.108 970.9C245.795 912.2 293.078 942.8 296.785 963.5C301.293 988.7 265.83 996.3 256.514 972.7C251.706 960.4 266.231 977.6 277.35 960.3" fill="#F2AF0D"/>
<path d="M253.108 970.9C245.795 912.2 293.078 942.8 296.785 963.5C301.293 988.7 265.83 996.3 256.514 972.7C251.706 960.4 266.231 977.6 277.35 960.3" stroke="#161616" stroke-width="8" stroke-miterlimit="10" stroke-linecap="round" stroke-linejoin="round"/>
<path d="M248.5 961.7C248.801 960.9 246.096 958.9 245.695 958.6C235.277 949.7 218.548 944.3 207.228 948.5C203.722 949.8 200.316 952.2 198.412 955.9C185.89 981 232.672 990 247.198 964.9" stroke="#161616" stroke-width="4" stroke-miterlimit="10" stroke-linecap="round" stroke-linejoin="round"/>
<path d="M251.305 951.3C253.208 951.1 247.598 949.1 245.795 948C242.289 945.8 238.983 943.4 235.778 940.6C226.962 933 216.544 918.1 226.662 908.7C243.291 893.3 258.618 928.8 255.012 944.5" stroke="#161616" stroke-width="4" stroke-miterlimit="10" stroke-linecap="round" stroke-linejoin="round"/>
<path d="M270.338 941.7C267.333 941.2 258.818 905.9 272.242 899.5C291.175 890.4 291.376 930.2 276.95 939.5" stroke="#161616" stroke-width="4" stroke-miterlimit="10" stroke-linecap="round" stroke-linejoin="round"/>
<path d="M288.771 946.5C288.07 945.9 291.576 941.2 291.877 940.9C298.488 932.4 312.312 920 323.933 922.7C343.667 927.3 316.32 951.5 300.091 949.8" stroke="#161616" stroke-width="4" stroke-miterlimit="10" stroke-linecap="round" stroke-linejoin="round"/>
<path d="M295.583 981.8C295.382 981.4 297.887 983 297.987 983.1C302.194 986.9 304.899 992.6 306.602 998.1C310.609 1010.4 313.514 1031 301.493 1036.6C280.957 1046.1 283.762 1004 287.368 994" stroke="#161616" stroke-width="4" stroke-miterlimit="10" stroke-linecap="round" stroke-linejoin="round"/>
<path d="M258.718 983.1C260.421 983.3 255.312 982.7 253.609 982.7C249.101 982.8 244.894 983.7 240.586 984.8C231.27 987.1 206.026 997.6 213.839 1014.4C215.843 1018.6 219.65 1021.1 223.556 1021.5C242.49 1023.8 249.803 1002.8 256.014 987.6" stroke="#161616" stroke-width="4" stroke-miterlimit="10" stroke-linecap="round" stroke-linejoin="round"/>
<path d="M271.34 990.2C271.641 990.2 271.24 989.8 270.739 990C266.332 992.2 263.026 997.1 260.021 1001.1C254.411 1008.8 241.087 1030.3 252.107 1041.7C268.435 1058.5 277.952 1014.5 277.251 1003.9" stroke="#161616" stroke-width="4" stroke-miterlimit="10" stroke-linecap="round" stroke-linejoin="round"/>
<path fill-rule="evenodd" clip-rule="evenodd" d="M383.137 774.9C384.339 772 368.311 762.5 365.606 761C320.627 737 266.332 754.2 219.65 733C188.796 719 162.349 691.9 148.024 658C141.312 642.1 141.512 625.8 138.908 608.9C138.808 608.3 137.906 602.1 136.904 602.2C136.704 602.2 140.811 609 141.112 609.4C146.521 616.8 153.033 623.1 160.145 628.3C175.672 639.8 192.803 645.8 210.934 649.2C253.409 657.2 284.063 662.1 307.905 706.6C314.316 718.6 319.625 733.5 329.743 742.4" fill="#F2AF0D"/>
<path d="M383.137 774.9C384.339 772 368.311 762.5 365.606 761C320.627 737 266.332 754.2 219.65 733C188.796 719 162.349 691.9 148.024 658C141.312 642.1 141.512 625.8 138.908 608.9C138.808 608.3 137.906 602.1 136.904 602.2C136.704 602.2 140.811 609 141.112 609.4C146.521 616.8 153.033 623.1 160.145 628.3C175.672 639.8 192.803 645.8 210.934 649.2C253.409 657.2 284.063 662.1 307.905 706.6C314.316 718.6 319.625 733.5 329.743 742.4" stroke="#161616" stroke-width="8" stroke-miterlimit="10" stroke-linecap="round" stroke-linejoin="round"/>
<path d="M323.632 743.9C323.432 744.1 320.427 742.1 320.026 741.8C308.806 735 297.587 728.3 285.666 722.9C284.964 722.6 284.363 722.3 283.662 722C282.961 721.7 282.26 721.4 281.559 721.1C280.857 720.8 280.156 720.5 279.455 720.2C242.39 704.1 178.077 700.4 151.731 660.3" stroke="#161616" stroke-width="4" stroke-miterlimit="10" stroke-linecap="round" stroke-linejoin="round"/>
<path fill-rule="evenodd" clip-rule="evenodd" d="M294.08 727.3C294.481 727.9 292.978 726.3 292.478 725.7C291.776 724.6 291.075 723.5 290.574 722.3C288.771 718.6 287.168 714.6 286.066 710.6C282.961 699.4 283.963 686 278.954 675.5" fill="#26D9B9"/>
<path d="M294.08 727.3C294.481 727.9 292.978 726.3 292.478 725.7C291.776 724.6 291.075 723.5 290.574 722.3C288.771 718.6 287.168 714.6 286.066 710.6C282.961 699.4 283.963 686 278.954 675.5" stroke="#161616" stroke-width="4" stroke-miterlimit="10" stroke-linecap="round" stroke-linejoin="round"/>
<path fill-rule="evenodd" clip-rule="evenodd" d="M277.852 721.3C271.942 723.6 266.031 723.6 260.221 727.1C255.513 730 251.506 735.7 246.497 737.8" fill="#26D9B9"/>
<path d="M277.852 721.3C271.942 723.6 266.031 723.6 260.221 727.1C255.513 730 251.506 735.7 246.497 737.8" stroke="#161616" stroke-width="4" stroke-miterlimit="10" stroke-linecap="round" stroke-linejoin="round"/>
<path d="M252.607 711.7C253.209 712.2 251.205 711 250.704 710.5C249.402 709.3 248.2 708 247.098 706.6C243.792 702.5 241.087 698.1 238.883 693.1C234.275 682.5 233.273 675.1 230.769 668.6C228.565 662.9 225.26 657.9 217.346 652.1" stroke="#161616" stroke-width="4" stroke-miterlimit="10" stroke-linecap="round" stroke-linejoin="round"/>
<path fill-rule="evenodd" clip-rule="evenodd" d="M245.194 709.6C245.194 709.8 243.792 709.5 243.592 709.4C242.189 709.2 240.686 709 239.284 708.8C235.277 708.3 231.37 708.2 227.363 708.9C216.143 710.9 205.124 717.6 193.504 713.6" fill="#26D9B9"/>
<path d="M245.194 709.6C245.194 709.8 243.792 709.5 243.592 709.4C242.189 709.2 240.686 709 239.284 708.8C235.277 708.3 231.37 708.2 227.363 708.9C216.143 710.9 205.124 717.6 193.504 713.6" stroke="#161616" stroke-width="4" stroke-miterlimit="10" stroke-linecap="round" stroke-linejoin="round"/>
<path d="M214.541 700.6C214.741 700.9 213.94 700.4 213.639 700.3C211.636 699.3 209.732 697.8 207.929 696.5C203.321 693.2 199.214 689.4 195.407 685C184.288 671.8 183.386 656.5 176.374 641.6" stroke="#161616" stroke-width="4" stroke-miterlimit="10" stroke-linecap="round" stroke-linejoin="round"/>
<path d="M725.136 892.1C727.741 821.2 685.968 785.6 650.205 762.3C604.725 732.7 571.367 716.6 547.124 667.8" stroke="#161616" stroke-width="8" stroke-miterlimit="10" stroke-linecap="round" stroke-linejoin="round"/>
<path d="M614.543 689.7C615.344 690.3 612.64 689.1 611.638 688.8C609.735 688.2 607.831 687.6 605.928 687C600.117 685.1 594.207 683 588.798 679.9" stroke="#161616" stroke-width="4" stroke-miterlimit="10" stroke-linecap="round" stroke-linejoin="round"/>
<path d="M614.643 677.5C615.044 677.6 614.342 677.6 614.242 677.6C613.04 677.7 611.938 678.2 610.836 678.7C608.132 680.1 605.327 681.8 603.724 684.5C599.717 691.4 603.423 697 609.935 699" stroke="#161616" stroke-width="4" stroke-miterlimit="10" stroke-linecap="round" stroke-linejoin="round"/>
<path d="M615.344 642.8C616.045 643.5 613.441 642.9 612.539 642.9C610.636 642.9 608.632 643 606.729 643.1C600.819 643.3 594.708 643.4 588.898 644.5" stroke="#161616" stroke-width="4" stroke-miterlimit="10" stroke-linecap="round" stroke-linejoin="round"/>
<path d="M616.246 653.1C617.247 653.4 611.738 653.2 610.836 652.9C607.13 651.7 603.223 649.2 601.32 645.6C597.713 638.5 604.425 630.1 610.836 628.1" stroke="#161616" stroke-width="4" stroke-miterlimit="10" stroke-linecap="round" stroke-linejoin="round"/>
<path d="M594.407 589.5C594.007 588.9 593.506 590.7 593.005 591.3C591.903 592.7 590.701 594.1 589.599 595.5C586.193 599.6 582.687 603.8 578.78 607.4" stroke="#161616" stroke-width="4" stroke-miterlimit="10" stroke-linecap="round" stroke-linejoin="round"/>
<path d="M603.323 595.6C593.806 607.9 576.275 595.5 578.379 581.2" stroke="#161616" stroke-width="4" stroke-miterlimit="10" stroke-linecap="round" stroke-linejoin="round"/>
<path d="M537.708 561.1C538.91 564.2 541.415 570.5 542.016 588.4" stroke="#161616" stroke-width="4" stroke-miterlimit="10" stroke-linecap="round" stroke-linejoin="round"/>
<path d="M547.525 555.9C547.425 557 549.228 565 548.827 568.2C548.326 571.8 544.119 574.8 540.613 575.8C533.099 578 526.889 569.4 523.883 563.3" stroke="#161616" stroke-width="4" stroke-miterlimit="10" stroke-linecap="round" stroke-linejoin="round"/>
<path d="M552.934 719.6C553.035 719.6 553.536 724 553.536 724.2C553.736 726.7 553.536 732.2 553.235 737.5C553.035 742.3 552.734 747 552.934 749.3" stroke="#161616" stroke-width="4" stroke-miterlimit="10" stroke-linecap="round" stroke-linejoin="round"/>
<path d="M563.954 750.3C565.657 736.5 544.119 728.7 541.615 748" stroke="#161616" stroke-width="4" stroke-miterlimit="10" stroke-linecap="round" stroke-linejoin="round"/>
<path d="M518.574 711.5C516.771 711.3 516.771 714.9 515.769 716.5C512.764 721.8 509.859 727.2 507.254 732.7" stroke="#161616" stroke-width="4" stroke-miterlimit="10" stroke-linecap="round" stroke-linejoin="round"/>
<path d="M513.666 739.5C512.965 739 514.067 737.8 514.167 736.9C514.267 734.8 513.666 732.5 512.865 730.6C508.757 720.8 499.541 723.9 494.733 731.1" stroke="#161616" stroke-width="4" stroke-miterlimit="10" stroke-linecap="round" stroke-linejoin="round"/>
<path d="M451.657 564.9C424.91 554.9 422.406 533 420.703 515.3" stroke="#161616" stroke-width="4" stroke-miterlimit="10" stroke-linecap="round" stroke-linejoin="round"/>
<path d="M435.428 516.6C436.23 517.9 446.448 541.9 430.32 543.2C407.78 545.1 408.581 519.5 405.276 514" stroke="#161616" stroke-width="4" stroke-miterlimit="10" stroke-linecap="round" stroke-linejoin="round"/>
<path d="M329.743 551.4C323.432 541.5 309.407 526.6 290.674 523" stroke="#161616" stroke-width="4" stroke-miterlimit="10" stroke-linecap="round" stroke-linejoin="round"/>
<path d="M298.889 510.6C298.488 509.2 307.704 514.4 308.005 514.7C311.511 518.1 313.915 523.5 313.114 528.5C311.611 538 299.49 540.2 292.177 537.1" stroke="#161616" stroke-width="4" stroke-miterlimit="10" stroke-linecap="round" stroke-linejoin="round"/>
<path d="M297.787 450.7C287.168 446.6 267.534 443.2 250.203 451.8" stroke="#161616" stroke-width="4" stroke-miterlimit="10" stroke-linecap="round" stroke-linejoin="round"/>
<path d="M250.003 436.8C248.901 435.9 259.219 434.5 259.72 434.5C264.429 435.1 269.437 438 271.541 442.5C275.648 451.1 267.033 460.3 259.42 462.3" stroke="#161616" stroke-width="4" stroke-miterlimit="10" stroke-linecap="round" stroke-linejoin="round"/>
<path d="M168.059 181.9C170.563 170.2 178.778 150.6 196.008 139.1" stroke="#161616" stroke-width="4" stroke-miterlimit="10" stroke-linecap="round" stroke-linejoin="round"/>
<path d="M183.086 131.5C182.885 130.1 175.873 138.8 175.673 139.2C173.469 143.8 173.168 149.7 175.873 153.9C180.982 161.8 193.805 158.5 199.915 152.4" stroke="#161616" stroke-width="4" stroke-miterlimit="10" stroke-linecap="round" stroke-linejoin="round"/>
<path d="M218.848 542.3C215.442 543.4 207.929 537.7 205.224 536.1C190.799 527.4 180.982 512.8 176.373 496.3" stroke="#161616" stroke-width="4" stroke-miterlimit="10" stroke-linecap="round" stroke-linejoin="round"/>
<path d="M182.585 486.1C185.29 485.4 187.393 498.4 187.393 499.9C187.393 508 183.186 516.3 174.27 515.8C170.363 515.6 158.042 509.2 158.042 503.7" stroke="#161616" stroke-width="4" stroke-miterlimit="10" stroke-linecap="round" stroke-linejoin="round"/>
<path d="M182.685 380.2C186.491 362.9 146.121 320.7 132.998 312.2" stroke="#161616" stroke-width="4" stroke-miterlimit="10" stroke-linecap="round" stroke-linejoin="round"/>
<path d="M141.412 297C149.627 296.5 153.233 347.2 123.281 326.1" stroke="#161616" stroke-width="4" stroke-miterlimit="10" stroke-linecap="round" stroke-linejoin="round"/>
<path d="M498.238 687.1C498.439 686.1 496.636 688.3 495.834 688.9C494.031 690.3 492.228 691.6 490.425 692.8C484.615 696.7 478.804 700.9 472.694 704.3" stroke="#161616" stroke-width="4" stroke-miterlimit="10" stroke-linecap="round" stroke-linejoin="round"/>
<path d="M466.483 699.5C466.382 699.6 467.084 697.9 467.484 697.6C468.486 696.8 469.688 696.2 470.99 695.8C474.597 694.8 479.105 695.5 482.11 697.9C488.321 702.9 482.01 711.6 477.001 714.5" stroke="#161616" stroke-width="4" stroke-miterlimit="10" stroke-linecap="round" stroke-linejoin="round"/>
<path d="M474.296 655.6C474.296 655.6 471.291 656.6 470.991 656.7C468.686 657.4 466.282 658.1 463.878 658.8C456.666 660.9 449.052 662.9 442.14 666.1" stroke="#161616" stroke-width="4" stroke-miterlimit="10" stroke-linecap="round" stroke-linejoin="round"/>
<path d="M437.932 658C437.632 657.2 443.342 656.7 443.642 656.7C448.25 656.6 455.163 657 457.567 661.9C461.073 668.8 451.857 674.5 446.848 676.5" stroke="#161616" stroke-width="4" stroke-miterlimit="10" stroke-linecap="round" stroke-linejoin="round"/>
<path d="M568.562 513.1C567.761 512.4 568.262 515.2 568.061 516.2C567.661 518.1 567.26 519.9 566.859 521.8C565.557 527.9 564.154 533.9 562.652 539.9" stroke="#161616" stroke-width="4" stroke-miterlimit="10" stroke-linecap="round" stroke-linejoin="round"/>
<path d="M578.58 518.2C578.68 518 578.58 518.7 578.58 518.9C578.279 520.6 577.177 522.2 576.175 523.5C573.771 526.4 570.065 529 566.258 528.8C558.544 528.5 557.142 517.7 557.042 511.5" stroke="#161616" stroke-width="4" stroke-miterlimit="10" stroke-linecap="round" stroke-linejoin="round"/>
<path fill-rule="evenodd" clip-rule="evenodd" d="M1224.41 1209.3C1252.36 1203.8 1274.8 1233.8 1275.7 1257.3C1276.71 1281.9 1280.01 1339.6 1230.12 1357.1C1193.66 1369.9 1087.57 1373.7 1048.6 1359.4C992.707 1338.9 1007.33 1247.7 1011.64 1240.4C1023.46 1220.7 1039.69 1214.2 1059.52 1211.3C1064.83 1210.5 1061.43 1171 1084.37 1177C1091.28 1178.8 1099.59 1199.9 1105.81 1203.2C1117.53 1209.4 1155.79 1204.1 1168.62 1204.1C1184.04 1204.1 1190.05 1180.6 1201.87 1176.6C1213.89 1172.5 1223.71 1209.4 1224.41 1209.3Z" fill="#F7F2EE"/>
<path d="M1224.41 1209.3C1252.36 1203.8 1274.8 1233.8 1275.7 1257.3C1276.71 1281.9 1280.01 1339.6 1230.12 1357.1C1193.66 1369.9 1087.57 1373.7 1048.6 1359.4C992.707 1338.9 1007.33 1247.7 1011.64 1240.4C1023.46 1220.7 1039.69 1214.2 1059.52 1211.3C1064.83 1210.5 1061.43 1171 1084.37 1177C1091.28 1178.8 1099.59 1199.9 1105.81 1203.2C1117.53 1209.4 1155.79 1204.1 1168.62 1204.1C1184.04 1204.1 1190.05 1180.6 1201.87 1176.6C1213.89 1172.5 1223.71 1209.4 1224.41 1209.3Z" stroke="#161616" stroke-width="8" stroke-miterlimit="10" stroke-linecap="round" stroke-linejoin="round"/>
<path d="M1193.76 1256.4C1193.86 1256.5 1192.66 1251.8 1192.06 1250.8C1189.85 1247.2 1187.05 1243.9 1183.04 1242.4C1174.73 1239.2 1166.41 1247.2 1163.01 1254.4" stroke="#161616" stroke-width="4" stroke-miterlimit="10" stroke-linecap="round" stroke-linejoin="round"/>
<path d="M1122.23 1257.7C1123.14 1258.7 1121.33 1255.2 1120.73 1254C1119.93 1252.5 1118.93 1251.1 1117.93 1249.8C1115.12 1246.2 1111.41 1242.5 1107.11 1241C1096.09 1237.1 1090.88 1249.3 1086.67 1257.6" stroke="#161616" stroke-width="4" stroke-miterlimit="10" stroke-linecap="round" stroke-linejoin="round"/>
<path d="M1141.57 1268.2C1140.47 1266.7 1144.87 1270 1145.88 1271.6C1148.38 1275.8 1147.38 1282.1 1141.97 1283C1132.05 1284.5 1133.05 1269.9 1141.57 1270.6" stroke="#161616" stroke-width="4" stroke-miterlimit="10" stroke-linecap="round" stroke-linejoin="round"/>
<path d="M1140.87 1285.3C1146.28 1304.7 1143.07 1311.4 1166.51 1314.5C1184.94 1317 1193.36 1299.9 1184.94 1297.7" stroke="#161616" stroke-width="4" stroke-miterlimit="10" stroke-linecap="round" stroke-linejoin="round"/>
<path d="M1146.18 1305.2C1145.07 1303.1 1143.57 1309.4 1141.67 1310.8C1136.56 1314.7 1130.55 1317.2 1124.24 1317.8C1117.93 1318.4 1095.69 1309.7 1105.3 1299.4" stroke="#161616" stroke-width="4" stroke-miterlimit="10" stroke-linecap="round" stroke-linejoin="round"/>
<path d="M1053.21 1309C1051.01 1310.3 1037.69 1306.9 1034.48 1307.2C1017.25 1308.5 1000.32 1313.2 983.491 1316.8" stroke="#161616" stroke-width="4" stroke-miterlimit="10" stroke-linecap="round" stroke-linejoin="round"/>
<path d="M1061.83 1326.5C1063.03 1323.2 1055.32 1328.7 1052.21 1330.2C1042.19 1335 1033.08 1341.9 1023.86 1348.1" stroke="#161616" stroke-width="4" stroke-miterlimit="10" stroke-linecap="round" stroke-linejoin="round"/>
<path d="M1233.13 1266C1233.23 1266.2 1237.94 1261.4 1238.14 1261.2C1242.24 1257.3 1246.95 1254.1 1251.56 1251C1272.3 1237.3 1297.14 1228.8 1320.08 1219.8" stroke="#161616" stroke-width="4" stroke-miterlimit="10" stroke-linecap="round" stroke-linejoin="round"/>
<path d="M1249.66 1277.9C1250.36 1279 1256.97 1275.8 1257.67 1275.7C1278.51 1270.7 1303.05 1278 1323.99 1280.1" stroke="#161616" stroke-width="4" stroke-miterlimit="10" stroke-linecap="round" stroke-linejoin="round"/>
<path d="M1241.24 1311.1C1241.34 1311.7 1256.87 1316.1 1257.77 1316.6C1270.89 1323 1282.62 1333 1294.74 1341.4" stroke="#161616" stroke-width="4" stroke-miterlimit="10" stroke-linecap="round" stroke-linejoin="round"/>
<path d="M1056.72 1283.7C1046.2 1271.4 967.362 1268 950.733 1266.9" stroke="#161616" stroke-width="4" stroke-miterlimit="10" stroke-linecap="round" stroke-linejoin="round"/>
<path d="M613.341 539.8C613.441 540.2 605.126 551.9 604.325 553" stroke="#161616" stroke-width="4" stroke-miterlimit="10" stroke-linecap="round" stroke-linejoin="round"/>
<path d="M622.957 543.5C623.158 543.4 622.556 544.3 622.456 544.4C621.354 545.4 620.152 546.2 618.85 546.8C615.645 548.1 612.138 548.3 608.933 546.9C602.321 544.1 603.022 534.9 606.528 529.7" stroke="#161616" stroke-width="4" stroke-miterlimit="10" stroke-linecap="round" stroke-linejoin="round"/>
<path d="M651.908 564.5C650.606 564.5 640.388 572.1 638.585 573.1" stroke="#161616" stroke-width="4" stroke-miterlimit="10" stroke-linecap="round" stroke-linejoin="round"/>
<path d="M662.026 577.6C662.126 577.6 658.921 578 657.919 577.9C655.414 577.8 652.91 576.9 650.706 575.7C643.794 572.1 639.587 564.8 643.594 557.1" stroke="#161616" stroke-width="4" stroke-miterlimit="10" stroke-linecap="round" stroke-linejoin="round"/>
<path d="M678.956 624.2C669.239 631.3 657.318 625.8 647.3 634.3" stroke="#161616" stroke-width="4" stroke-miterlimit="10" stroke-linecap="round" stroke-linejoin="round"/>
<path d="M679.958 636.6C653.211 631.3 667.135 617 668.337 615.6" stroke="#161616" stroke-width="4" stroke-miterlimit="10" stroke-linecap="round" stroke-linejoin="round"/>
<path d="M675.049 688.6C673.046 687.8 663.729 679.9 662.126 678.4C658.019 674.7 651.207 674.6 646.399 674.9" stroke="#161616" stroke-width="4" stroke-miterlimit="10" stroke-linecap="round" stroke-linejoin="round"/>
<path d="M674.849 676.2C667.736 673.7 650.606 686.4 668.838 697.4" stroke="#161616" stroke-width="4" stroke-miterlimit="10" stroke-linecap="round" stroke-linejoin="round"/>
<path d="M655.415 731.5C655.415 731.5 628.668 722.5 623.759 720.6" stroke="#161616" stroke-width="4" stroke-miterlimit="10" stroke-linecap="round" stroke-linejoin="round"/>
<path d="M654.914 719.1C636.581 712.1 622.857 735 647.2 745.6" stroke="#161616" stroke-width="4" stroke-miterlimit="10" stroke-linecap="round" stroke-linejoin="round"/>
<path d="M593.506 765.5C597.112 770.8 609.334 780.9 611.337 794.2" stroke="#161616" stroke-width="4" stroke-miterlimit="10" stroke-linecap="round" stroke-linejoin="round"/>
<path d="M624.961 787.8C613.741 770.8 607.431 774.3 602.322 778.6C596.511 783.5 593.005 791.4 598.715 802.4" stroke="#161616" stroke-width="4" stroke-miterlimit="10" stroke-linecap="round" stroke-linejoin="round"/>
<path d="M543.618 775.1C544.219 774.5 543.418 776.8 543.318 777.7C543.017 780.3 542.517 782.8 542.016 785.3C540.613 792.4 538.71 799.5 537.207 806.6" stroke="#161616" stroke-width="4" stroke-miterlimit="10" stroke-linecap="round" stroke-linejoin="round"/>
<path d="M547.525 811.6C547.626 811.7 547.625 811.5 547.726 811.4C548.427 809.5 548.527 807.2 548.327 805.2C547.926 800.9 546.524 796.6 543.017 793.9C535.905 788.4 529.293 795.4 525.186 801.2" stroke="#161616" stroke-width="4" stroke-miterlimit="10" stroke-linecap="round" stroke-linejoin="round"/>
<path d="M507.655 761.4C507.856 761 506.954 762 506.754 762.1C504.65 764 502.546 765.9 500.342 767.7C495.434 771.9 490.725 776.2 485.717 780.3" stroke="#161616" stroke-width="4" stroke-miterlimit="10" stroke-linecap="round" stroke-linejoin="round"/>
<path d="M493.631 786.8C494.933 789 495.634 780.7 493.531 775.7C490.726 769.1 484.515 767.7 478.304 769.7" stroke="#161616" stroke-width="4" stroke-miterlimit="10" stroke-linecap="round" stroke-linejoin="round"/>
<path d="M463.277 730.9C464.78 736.1 462.476 738.1 460.572 739.9C455.363 744.8 434.727 745.8 431.321 758.3" stroke="#161616" stroke-width="4" stroke-miterlimit="10" stroke-linecap="round" stroke-linejoin="round"/>
<path d="M445.946 760.7C460.873 735.3 434.026 737.4 427.715 742.2" stroke="#161616" stroke-width="4" stroke-miterlimit="10" stroke-linecap="round" stroke-linejoin="round"/>
<path d="M431.021 692.1C428.717 694.6 402.771 700.1 397.562 701.8" stroke="#161616" stroke-width="4" stroke-miterlimit="10" stroke-linecap="round" stroke-linejoin="round"/>
<path d="M405.676 712.7C407.479 714.2 410.885 704.8 410.986 703.9C411.487 701.6 411.386 699.1 410.585 696.9C408.181 690 400.367 690.1 394.657 691.5" stroke="#161616" stroke-width="4" stroke-miterlimit="10" stroke-linecap="round" stroke-linejoin="round"/>
<path d="M455.163 625.3C455.263 625.5 452.759 624.8 452.559 624.7C450.655 624.2 448.652 623.8 446.748 623.6C440.838 622.7 422.105 625.7 416.195 625" stroke="#161616" stroke-width="4" stroke-miterlimit="10" stroke-linecap="round" stroke-linejoin="round"/>
<path d="M418.699 609.5C425.911 609.5 435.228 614.8 436.63 617.3C442.44 627.6 434.526 640.9 423.006 639.3" stroke="#161616" stroke-width="4" stroke-miterlimit="10" stroke-linecap="round" stroke-linejoin="round"/>
<path fill-rule="evenodd" clip-rule="evenodd" d="M867.386 1349C979.583 1396.7 995.111 1342.1 960.049 1324.3C933.102 1310.7 920.88 1313.4 877.504 1336.6C865.784 1342.8 831.023 1355.4 796.462 1360.8C769.715 1365 727.241 1362.4 709.209 1356.7C669.639 1344.4 668.537 1308 670.641 1278.8C675.85 1205.3 780.033 1125.9 920.179 1213.2" fill="#F7F2EE"/>
<path d="M867.386 1349C979.583 1396.7 995.111 1342.1 960.049 1324.3C933.102 1310.7 920.88 1313.4 877.504 1336.6C865.784 1342.8 831.023 1355.4 796.462 1360.8C769.715 1365 727.241 1362.4 709.209 1356.7C669.639 1344.4 668.537 1308 670.641 1278.8C675.85 1205.3 780.033 1125.9 920.179 1213.2" stroke="#161616" stroke-width="8" stroke-miterlimit="10" stroke-linecap="round" stroke-linejoin="round"/>
<path opacity="0.9116" fill-rule="evenodd" clip-rule="evenodd" d="M795.06 1173.2C794.959 1173.2 796.863 1178.7 797.063 1179.1C800.068 1184.6 803.575 1189.8 806.88 1195.1C813.292 1205.3 837.935 1232.9 834.128 1246C832.726 1250.6 826.114 1245.5 824.311 1244C816.597 1237.7 783.84 1193.1 777.729 1196.9C776.226 1197.9 777.328 1200.5 777.729 1201.8C784.441 1220.8 800.77 1235.2 806.48 1254.6C806.981 1256.1 807.782 1259.4 805.678 1260C795.26 1263.1 770.917 1214.4 760.198 1207.2C753.587 1202.8 764.907 1233.8 758.095 1232.3C753.787 1231.4 750.481 1222.7 748.979 1219.1C746.975 1214.3 740.864 1206.9 740.564 1201.6C739.662 1185.7 768.112 1177.6 779.432 1176.6" fill="black"/>
<path d="M795.06 1173.2C794.959 1173.2 796.863 1178.7 797.063 1179.1C800.068 1184.6 803.575 1189.8 806.88 1195.1C813.292 1205.3 837.935 1232.9 834.128 1246C832.726 1250.6 826.114 1245.5 824.311 1244C816.597 1237.7 783.84 1193.1 777.729 1196.9C776.226 1197.9 777.328 1200.5 777.729 1201.8C784.441 1220.8 800.77 1235.2 806.48 1254.6C806.981 1256.1 807.782 1259.4 805.678 1260C795.26 1263.1 770.917 1214.4 760.198 1207.2C753.587 1202.8 764.907 1233.8 758.095 1232.3C753.787 1231.4 750.481 1222.7 748.979 1219.1C746.975 1214.3 740.864 1206.9 740.564 1201.6C739.662 1185.7 768.112 1177.6 779.432 1176.6" stroke="#161616" stroke-width="4" stroke-miterlimit="10" stroke-linecap="round" stroke-linejoin="round"/>
<path d="M1134.76 1206.5C1128.85 1084.2 1218.9 1014.2 1263.08 1062.6" stroke="#161616" stroke-width="8" stroke-miterlimit="10" stroke-linecap="round" stroke-linejoin="round"/>
<path opacity="0.9116" fill-rule="evenodd" clip-rule="evenodd" d="M1265.49 1056.2C1265.29 1056.2 1265.79 1049.3 1265.89 1048.6C1267.79 1034.4 1280.41 1022.7 1295.04 1023.1C1307.36 1023.4 1349.73 1062.6 1355.64 1073.3C1357.15 1076 1338.71 1076.4 1337.31 1076.4C1321.18 1076.3 1296.24 1072.8 1282.42 1063.9C1281.51 1063.3 1277.01 1055.8 1276.71 1056.8C1275.9 1059 1281.21 1062.9 1282.42 1063.9C1293.84 1072.8 1350.53 1129.1 1340.02 1142.4C1335.01 1148.6 1264.28 1113.1 1267.39 1070C1267.39 1069.7 1267.59 1068.9 1267.39 1068.6C1266.99 1068 1267.19 1070 1267.29 1070.8C1267.69 1078.1 1268.49 1085.4 1268.99 1092.7C1269.39 1099.3 1273.9 1145.7 1264.78 1145.6C1259.37 1145.6 1245.95 1129.6 1242.34 1126.1C1217.7 1102.9 1243.65 1079.2 1265.99 1062.6" fill="black"/>
<path d="M1265.49 1056.2C1265.29 1056.2 1265.79 1049.3 1265.89 1048.6C1267.79 1034.4 1280.41 1022.7 1295.04 1023.1C1307.36 1023.4 1349.73 1062.6 1355.64 1073.3C1357.15 1076 1338.71 1076.4 1337.31 1076.4C1321.18 1076.3 1296.24 1072.8 1282.42 1063.9C1281.51 1063.3 1277.01 1055.8 1276.71 1056.8C1275.9 1059 1281.21 1062.9 1282.42 1063.9C1293.84 1072.8 1350.53 1129.1 1340.02 1142.4C1335.01 1148.6 1264.28 1113.1 1267.39 1070C1267.39 1069.7 1267.59 1068.9 1267.39 1068.6C1266.99 1068 1267.19 1070 1267.29 1070.8C1267.69 1078.1 1268.49 1085.4 1268.99 1092.7C1269.39 1099.3 1273.9 1145.7 1264.78 1145.6C1259.37 1145.6 1245.95 1129.6 1242.34 1126.1C1217.7 1102.9 1243.65 1079.2 1265.99 1062.6" stroke="#161616" stroke-width="8" stroke-miterlimit="10" stroke-linecap="round" stroke-linejoin="round"/>
<path d="M693.081 1226.7C692.479 1226.5 693.982 1227.7 694.483 1228.1C698.19 1230.9 702.297 1233 706.204 1235.4C710.611 1238.2 739.963 1258.6 738.06 1263.9C735.355 1271.4 701.095 1249.1 697.689 1256.8C694.583 1263.8 736.657 1273.9 737.158 1284.3C737.759 1295.1 698.39 1279.5 696.587 1288.1C694.383 1298.3 745.673 1307.1 748.678 1318C750.682 1325.2 731.448 1323.2 728.643 1323C723.233 1322.6 717.924 1322.5 712.615 1323.3" stroke="#161616" stroke-width="4" stroke-miterlimit="10" stroke-linecap="round" stroke-linejoin="round"/>
<path opacity="0.9116" fill-rule="evenodd" clip-rule="evenodd" d="M1164.91 1206.2C1165.31 1205.7 1164.31 1207.3 1164.11 1207.9C1163.71 1209.2 1163.51 1210.5 1163.21 1211.7C1162.5 1214.4 1159.5 1223.2 1155.89 1222.9C1150.08 1222.5 1152.69 1211 1148.68 1210.2C1145.67 1209.6 1148.58 1221.9 1144.17 1223.1C1139.16 1224.4 1139.36 1213.4 1135.76 1213C1132.95 1212.7 1128.95 1234.3 1122.03 1221.5C1110.61 1200.5 1146.48 1204.6 1156.49 1206" fill="black"/>
<path d="M1164.91 1206.2C1165.31 1205.7 1164.31 1207.3 1164.11 1207.9C1163.71 1209.2 1163.51 1210.5 1163.21 1211.7C1162.5 1214.4 1159.5 1223.2 1155.89 1222.9C1150.08 1222.5 1152.69 1211 1148.68 1210.2C1145.67 1209.6 1148.58 1221.9 1144.17 1223.1C1139.16 1224.4 1139.36 1213.4 1135.76 1213C1132.95 1212.7 1128.95 1234.3 1122.03 1221.5C1110.61 1200.5 1146.48 1204.6 1156.49 1206" stroke="#161616" stroke-width="4" stroke-miterlimit="10" stroke-linecap="round" stroke-linejoin="round"/>
<path opacity="0.9116" fill-rule="evenodd" clip-rule="evenodd" d="M551.131 620.3C550.731 613.9 551.232 676.2 551.232 676.2C551.232 676.2 443.242 611.4 551.131 620.3Z" fill="#F2AF0D"/>
<path d="M551.131 620.3C550.731 613.9 551.232 676.2 551.232 676.2C551.232 676.2 443.242 611.4 551.131 620.3Z" stroke="black" stroke-width="8" stroke-miterlimit="10" stroke-linecap="round" stroke-linejoin="round"/>
</svg>
