<svg width="1500" height="1500" viewBox="0 0 1500 1500" fill="none" xmlns="http://www.w3.org/2000/svg">
<g clip-path="url(#clip0_101_11862)">
<rect width="1500" height="1500" fill="#F7F2EE"/>
<path d="M294 1367.62C401.3 1311.42 787.9 1300.12 865 1309.32C923.5 1316.32 982.9 1333.52 1041.1 1340.92C1055.4 1342.72 1122.3 1358.02 1176.5 1346.22" stroke="black" stroke-width="8" stroke-miterlimit="10" stroke-linecap="round" stroke-linejoin="round"/>
<path fill-rule="evenodd" clip-rule="evenodd" d="M596 965.616C596.2 966.016 584.5 982.616 584.2 983.216C582.5 986.216 580.2 989.816 577.4 993.716C569.2 1005.72 557.7 1021.32 551.7 1034.72C526.3 1091.72 511 1163.92 526.3 1207.82C541.5 1251.32 582 1299.72 632.2 1302.22C662.9 1303.72 694.2 1294.12 724.3 1289.32C753.1 1284.72 835 1264.22 857.8 1243.32C899.4 1205.22 882.9 1156.52 870.5 1081.62C864.8 1047.22 822.4 986.816 800.9 969.216C767 941.516 739.3 946.316 697.5 946.116C665.3 946.016 621.5 943.716 596 965.616Z" fill="#F7F2EE"/>
<path d="M596 965.616C596.2 966.016 584.5 982.616 584.2 983.216C582.5 986.216 580.2 989.816 577.4 993.716C569.2 1005.72 557.7 1021.32 551.7 1034.72C526.3 1091.72 511 1163.92 526.3 1207.82C541.5 1251.32 582 1299.72 632.2 1302.22C662.9 1303.72 694.2 1294.12 724.3 1289.32C753.1 1284.72 835 1264.22 857.8 1243.32C899.4 1205.22 882.9 1156.52 870.5 1081.62C864.8 1047.22 822.4 986.816 800.9 969.216C767 941.516 739.3 946.316 697.5 946.116C665.3 946.016 621.5 943.716 596 965.616Z" stroke="#161616" stroke-width="8" stroke-miterlimit="10" stroke-linecap="round" stroke-linejoin="round"/>
<path fill-rule="evenodd" clip-rule="evenodd" d="M566.2 857.816C577.6 851.016 596.5 854.116 606 849.516C616.5 844.516 619.1 826.416 630.1 824.516C645.6 821.916 658.6 848.916 671.9 848.816C687 848.716 711.5 849.916 733.1 847.816C744.6 846.716 757.2 817.716 769.3 816.816C777.7 816.216 785.9 841.816 792.7 846.016C816.8 861.016 852.4 852.116 859.6 871.916C866.8 891.716 861 941.716 836.1 964.716C809.3 989.516 778.6 993.816 746.3 999.216C679.8 1010.42 608.9 996.316 569.4 965.016C538.3 940.316 527.6 880.816 566.2 857.816Z" fill="#F7F2EE"/>
<path d="M566.2 857.816C577.6 851.016 596.5 854.116 606 849.516C616.5 844.516 619.1 826.416 630.1 824.516C645.6 821.916 658.6 848.916 671.9 848.816C687 848.716 711.5 849.916 733.1 847.816C744.6 846.716 757.2 817.716 769.3 816.816C777.7 816.216 785.9 841.816 792.7 846.016C816.8 861.016 852.4 852.116 859.6 871.916C866.8 891.716 861 941.716 836.1 964.716C809.3 989.516 778.6 993.816 746.3 999.216C679.8 1010.42 608.9 996.316 569.4 965.016C538.3 940.316 527.6 880.816 566.2 857.816Z" stroke="#161616" stroke-width="8" stroke-miterlimit="10" stroke-linecap="round" stroke-linejoin="round"/>
<path d="M445.1 1161.52C440.9 1164.22 444 1162.72 445.1 1161.52C456.9 1148.92 488.2 1130.72 517.2 1111.82" stroke="#161616" stroke-width="8" stroke-miterlimit="10" stroke-linecap="round" stroke-linejoin="round"/>
<path d="M879 1098.82C897.7 1098.72 905.2 1100.32 923.8 1099.12" stroke="#161616" stroke-width="8" stroke-miterlimit="10" stroke-linecap="round" stroke-linejoin="round"/>
<path fill-rule="evenodd" clip-rule="evenodd" d="M873.201 1074.52C872.401 1075.12 875.001 1071.82 875.401 1071.42C877.601 1069.22 880.101 1067.12 882.901 1065.62C890.301 1061.82 902.201 1062.62 907.401 1069.82C916.701 1082.92 905.101 1122.62 889.501 1128.12C878.701 1131.92 872.001 1086.02 872.301 1077.22" fill="#F7F2EE"/>
<path d="M873.201 1074.52C872.401 1075.12 875.001 1071.82 875.401 1071.42C877.601 1069.22 880.101 1067.12 882.901 1065.62C890.301 1061.82 902.201 1062.62 907.401 1069.82C916.701 1082.92 905.101 1122.62 889.501 1128.12C878.701 1131.92 872.001 1086.02 872.301 1077.22" stroke="#161616" stroke-width="8" stroke-miterlimit="10" stroke-linecap="round" stroke-linejoin="round"/>
<path fill-rule="evenodd" clip-rule="evenodd" d="M672.5 854.216C672.3 854.416 673 854.116 673.2 854.216C676 855.216 677.1 859.716 677.8 862.116C678.7 865.616 680.2 878.516 685.3 878.616C691.3 878.716 686.7 864.616 690.9 863.116C694.3 861.916 693.2 878.416 698.8 878.716C704.6 879.016 701.601 866.116 705.101 865.216C705.601 865.116 705.901 865.716 706.101 866.116C707.901 868.916 715.2 886.716 720 878.616C722.4 874.516 722.301 868.517 722.601 863.917C724.101 845.917 712.8 848.916 698.5 849.516C693.1 849.716 680.6 849.216 677.5 855.016" fill="black"/>
<path d="M672.5 854.216C672.3 854.416 673 854.116 673.2 854.216C676 855.216 677.1 859.716 677.8 862.116C678.7 865.616 680.2 878.516 685.3 878.616C691.3 878.716 686.7 864.616 690.9 863.116C694.3 861.916 693.2 878.416 698.8 878.716C704.6 879.016 701.601 866.116 705.101 865.216C705.601 865.116 705.901 865.716 706.101 866.116C707.901 868.916 715.2 886.716 720 878.616C722.4 874.516 722.301 868.517 722.601 863.917C724.101 845.917 712.8 848.916 698.5 849.516C693.1 849.716 680.6 849.216 677.5 855.016" stroke="black" stroke-width="4" stroke-miterlimit="10" stroke-linecap="round" stroke-linejoin="round"/>
<path d="M865.9 894.616C865.9 895.016 866 894.616 866.2 894.516C870.4 891.616 874.6 889.416 879.4 887.516C889.4 883.616 900.7 881.316 911.4 880.816" stroke="black" stroke-width="4" stroke-miterlimit="10" stroke-linecap="round" stroke-linejoin="round"/>
<path d="M861.099 923.016C859.899 924.116 864.099 922.116 865.699 921.716C868.099 921.116 870.599 920.716 873.099 920.316C881.299 919.316 889.899 919.616 898.099 920.816" stroke="black" stroke-width="4" stroke-miterlimit="10" stroke-linecap="round" stroke-linejoin="round"/>
<path d="M852.6 953.116C866.4 953.316 877.7 953.716 891.3 959.516" stroke="black" stroke-width="4" stroke-miterlimit="10" stroke-linecap="round" stroke-linejoin="round"/>
<path d="M546.301 888.716C542.401 888.416 537.601 884.117 534.101 882.517C518.001 875.417 500.6 874.117 483.9 880.117" stroke="black" stroke-width="4" stroke-miterlimit="10" stroke-linecap="round" stroke-linejoin="round"/>
<path d="M544.6 924.316C526.8 915.316 504.5 924.616 489 934.016" stroke="black" stroke-width="4" stroke-miterlimit="10" stroke-linecap="round" stroke-linejoin="round"/>
<path d="M550.9 955.916C553.1 955.516 546.6 956.916 544.5 957.616C540.4 959.116 536.401 961.316 532.801 963.716C522.101 970.816 511.7 980.116 503.9 990.416" stroke="black" stroke-width="4" stroke-miterlimit="10" stroke-linecap="round" stroke-linejoin="round"/>
<path d="M911.199 1084.42C911.199 1084.62 913.199 1082.62 913.299 1082.42C928.099 1066.32 940.099 1048.02 949.499 1028.72C954.799 1017.92 959.999 1005.22 960.599 993.517" stroke="black" stroke-width="4" stroke-miterlimit="10" stroke-linecap="round" stroke-linejoin="round"/>
<path d="M957.301 984.716C957.101 984.716 958.201 985.716 958.601 985.816C959.801 986.016 961.001 986.216 962.201 986.216C965.701 986.316 969.401 985.516 973.001 984.716C983.801 982.116 998.001 976.016 1003.7 965.416C1015.2 944.016 993.6 914.416 972.9 912.116C951.7 909.816 925.101 941.716 932.501 961.416C935.501 969.416 944.001 977.116 951.101 981.716C953.101 983.016 957.401 982.816 958.801 984.416" stroke="black" stroke-width="4" stroke-miterlimit="10" stroke-linecap="round" stroke-linejoin="round"/>
<path d="M958 984.016C958.2 982.616 971.8 975.916 973.1 975.216C984.2 969.716 1004.2 957.616 1002.5 942.816" stroke="black" stroke-width="4" stroke-miterlimit="10" stroke-linecap="round" stroke-linejoin="round"/>
<path d="M991.5 960.117C991.9 961.817 990.9 956.317 990.8 955.817C990.1 952.517 989.799 949.217 989.699 945.717C989.399 935.317 989.8 923.817 981.6 917.017" stroke="black" stroke-width="4" stroke-miterlimit="10" stroke-linecap="round" stroke-linejoin="round"/>
<path d="M966.999 977.616C967.699 977.616 965.799 976.817 965.299 976.417C964.099 975.517 962.999 974.516 961.899 973.516C958.899 970.716 955.999 967.817 953.699 964.417C946.499 954.017 941.899 940.017 946.699 926.417" stroke="black" stroke-width="4" stroke-miterlimit="10" stroke-linecap="round" stroke-linejoin="round"/>
<path d="M950.2 957.217C945 942.917 969.6 915.317 984.1 925.517" stroke="black" stroke-width="4" stroke-miterlimit="10" stroke-linecap="round" stroke-linejoin="round"/>
<path d="M950.801 955.116C951.501 955.216 956.801 959.317 958.601 959.917C968.901 963.017 982.701 961.416 989.601 950.816" stroke="black" stroke-width="4" stroke-miterlimit="10" stroke-linecap="round" stroke-linejoin="round"/>
<path d="M971.399 959.116C971.299 961.716 965.299 951.616 965.099 951.116C962.099 944.916 960.199 936.316 964.499 929.316" stroke="black" stroke-width="4" stroke-miterlimit="10" stroke-linecap="round" stroke-linejoin="round"/>
<path d="M970.4 956.816C971.8 958.516 977.301 949.816 977.801 949.016C981.901 942.016 985.7 932.916 981.2 926.216" stroke="black" stroke-width="4" stroke-miterlimit="10" stroke-linecap="round" stroke-linejoin="round"/>
<path d="M980.301 940.516C980.801 940.616 979.401 940.016 978.901 939.916C977.901 939.616 976.901 939.516 975.901 939.416C972.701 939.216 967.401 939.916 966.301 944.016" stroke="black" stroke-width="4" stroke-miterlimit="10" stroke-linecap="round" stroke-linejoin="round"/>
<path d="M977 948.316C977.1 948.316 976.9 948.417 976.9 948.417C975.9 948.517 975 947.416 974.5 946.816" stroke="black" stroke-width="4" stroke-miterlimit="10" stroke-linecap="round" stroke-linejoin="round"/>
<path fill-rule="evenodd" clip-rule="evenodd" d="M940.5 1048.62C941.3 1045.42 948.3 1041.12 950.6 1039.52C959.2 1033.52 968.9 1029.82 978.9 1028.92C980.6 1028.82 1000.2 1027.32 999.9 1030.52C999 1040.02 949.2 1070.32 942.2 1051.62" fill="black"/>
<path d="M940.5 1048.62C941.3 1045.42 948.3 1041.12 950.6 1039.52C959.2 1033.52 968.9 1029.82 978.9 1028.92C980.6 1028.82 1000.2 1027.32 999.9 1030.52C999 1040.02 949.2 1070.32 942.2 1051.62" stroke="black" stroke-width="4" stroke-miterlimit="10" stroke-linecap="round" stroke-linejoin="round"/>
<path fill-rule="evenodd" clip-rule="evenodd" d="M648.7 1040.62C648.8 1040.72 650 1052.52 649.9 1052.42C635.7 1049.12 628.9 1043.72 628 1038.82C627.1 1034.22 638.2 1033.62 645.6 1032.62C657.5 1031.02 739.3 1032.52 740.7 1039.42C742.3 1047.72 662.4 1039.62 648.7 1040.62C646.2 1040.82 658.2 1042.92 660.1 1044.82C667.3 1052.02 690.9 1053.92 736.2 1051.92C741.7 1051.72 770.1 1049.22 770.5 1055.32C771.4 1067.42 725.4 1055.22 726 1060.72C726.8 1068.32 779.2 1070.52 784.1 1074.82C788.4 1078.62 709.8 1078.02 706.1 1077.72C559 1069.62 644.9 1059.92 693.6 1065.42C713.5 1067.72 649.3 1052.82 649.9 1052.32" fill="#1D1D1D"/>
<path d="M648.7 1040.62C648.8 1040.72 650 1052.52 649.9 1052.42C635.7 1049.12 628.9 1043.72 628 1038.82C627.1 1034.22 638.2 1033.62 645.6 1032.62C657.5 1031.02 739.3 1032.52 740.7 1039.42C742.3 1047.72 662.4 1039.62 648.7 1040.62ZM648.7 1040.62C646.2 1040.82 658.2 1042.92 660.1 1044.82C667.3 1052.02 690.9 1053.92 736.2 1051.92C741.7 1051.72 770.1 1049.22 770.5 1055.32C771.4 1067.42 725.4 1055.22 726 1060.72C726.8 1068.32 779.2 1070.52 784.1 1074.82C788.4 1078.62 709.8 1078.02 706.1 1077.72C559 1069.62 644.9 1059.92 693.6 1065.42C713.5 1067.72 649.3 1052.82 649.9 1052.32" stroke="#1D1D1D" stroke-width="4" stroke-miterlimit="10" stroke-linecap="round" stroke-linejoin="round"/>
<path fill-rule="evenodd" clip-rule="evenodd" d="M672.4 1160.32C681.4 1161.32 685.4 1132.52 685.2 1127.32C684.2 1106.82 655.5 1109.52 665.3 1109.52C674.9 1109.52 668.8 1119.52 660.1 1118.32C643.9 1116.12 645.3 1097.92 657.7 1092.92C709.3 1072.22 720.8 1137.32 717.4 1161.32" fill="#F7F2EE"/>
<path d="M672.4 1160.32C681.4 1161.32 685.4 1132.52 685.2 1127.32C684.2 1106.82 655.5 1109.52 665.3 1109.52C674.9 1109.52 668.8 1119.52 660.1 1118.32C643.9 1116.12 645.3 1097.92 657.7 1092.92C709.3 1072.22 720.8 1137.32 717.4 1161.32" stroke="black" stroke-width="8" stroke-miterlimit="10" stroke-linecap="round" stroke-linejoin="round"/>
<path d="M631.199 573.117C632.999 570.417 626.799 578.117 625.499 581.117C622.899 587.017 621.799 593.917 621.699 600.417C621.099 633.217 643.399 636.317 668.599 636.417C671.099 636.417 677.599 639.516 679.699 638.016C682.899 635.716 683.199 627.317 684.799 623.817C702.499 584.717 676.099 545.217 636.899 569.117" stroke="#161616" stroke-width="8" stroke-miterlimit="10" stroke-linecap="round" stroke-linejoin="round"/>
<path d="M626.6 583.716C626.5 583.616 626.8 584.216 626.9 584.216C629.4 589.416 631.1 595.016 633.1 600.516C635.6 607.116 652.2 641.316 663.7 634.116C665.4 633.116 662.4 629.316 661.8 628.416C656 618.316 633.7 577.316 637.9 574.716C648.3 568.416 667.2 615.516 670.9 622.016C671.6 623.216 673.4 626.516 675.1 624.616C682.1 616.616 670.6 583.116 666 575.016C665.5 574.116 659.2 565.716 659.6 565.116C659.7 564.916 662.6 565.916 662.8 566.016" stroke="black" stroke-width="4" stroke-miterlimit="10" stroke-linecap="round" stroke-linejoin="round"/>
<path fill-rule="evenodd" clip-rule="evenodd" d="M631.6 560.717C635.9 561.117 624.6 555.517 621.5 552.417C615.8 546.617 610.7 540.217 605.4 534.017C589.6 515.217 573.9 496.417 559.1 476.717C520.9 425.817 428.1 307.217 464.7 237.917C470.1 227.617 478.6 216.917 490.4 213.617C558.4 194.817 554.6 300.617 559.2 336.917C563 366.817 568.7 397.117 575.7 426.417C587.1 473.917 609.2 531.417 643.9 567.417" fill="#ED712E"/>
<path d="M631.6 560.717C635.9 561.117 624.6 555.517 621.5 552.417C615.8 546.617 610.7 540.217 605.4 534.017C589.6 515.217 573.9 496.417 559.1 476.717C520.9 425.817 428.1 307.217 464.7 237.917C470.1 227.617 478.6 216.917 490.4 213.617C558.4 194.817 554.6 300.617 559.2 336.917C563 366.817 568.7 397.117 575.7 426.417C587.1 473.917 609.2 531.417 643.9 567.417" stroke="#161616" stroke-width="8" stroke-miterlimit="10" stroke-linecap="round" stroke-linejoin="round"/>
<path fill-rule="evenodd" clip-rule="evenodd" d="M633.001 563.916C633.001 564.416 628.501 555.816 625.301 549.616C620.601 540.316 615.901 531.016 611.201 521.816C596.801 493.316 581.801 465.916 562.001 440.816C544.201 418.216 527.101 394.616 505.101 375.816C454.001 332.116 346.601 277.216 298.101 352.216C283.901 374.216 284.1 410.816 309.9 424.316C340.1 440.016 422.801 422.616 473.501 440.616C521.001 457.516 563.201 494.016 595.601 531.916C606.101 544.316 615.101 561.416 628.001 571.616" fill="#ED712E"/>
<path d="M633.001 563.916C633.001 564.416 628.501 555.816 625.301 549.616C620.601 540.316 615.901 531.016 611.201 521.816C596.801 493.316 581.801 465.916 562.001 440.816C544.201 418.216 527.101 394.616 505.101 375.816C454.001 332.116 346.601 277.216 298.101 352.216C283.901 374.216 284.1 410.816 309.9 424.316C340.1 440.016 422.801 422.616 473.501 440.616C521.001 457.516 563.201 494.016 595.601 531.916C606.101 544.316 615.101 561.416 628.001 571.616" stroke="#161616" stroke-width="8" stroke-miterlimit="10" stroke-linecap="round" stroke-linejoin="round"/>
<path d="M585.7 506.117C586.3 503.617 551.2 463.116 548.2 460.016C516 426.816 474.8 394.617 433.6 373.217C417.8 365.017 400.3 355.916 381.9 357.416C379 357.616 364.6 357.916 365.9 363.416C367.9 372.016 417.4 385.017 426.5 388.117C444.7 394.317 463.6 399.917 480 410.217" stroke="#F7F2EE" stroke-width="4" stroke-miterlimit="10" stroke-linecap="round" stroke-linejoin="round"/>
<path d="M527.2 383.416C527.3 383.316 527 382.817 527 382.717C524.4 376.017 521.6 369.417 519.3 362.617C512.1 341.617 507.4 319.217 504.8 297.217C504.6 295.817 504.6 295.617 504.5 294.317C503.5 284.117 502.8 272.516 505.4 262.516C505.5 262.016 506.4 257.816 507.5 258.516" stroke="#F7F2EE" stroke-width="4" stroke-miterlimit="10" stroke-linecap="round" stroke-linejoin="round"/>
<path d="M589.901 2.61646C606.901 89.0165 613.201 217.616 604.901 305.816C600.201 355.816 584.701 418.216 591.401 468.516" stroke="black" stroke-width="4" stroke-miterlimit="10" stroke-linecap="round" stroke-linejoin="round"/>
<path fill-rule="evenodd" clip-rule="evenodd" d="M874.9 295.116C867.9 289.916 811.5 375.016 718 518.516C721.1 515.016 730.9 535.616 737.9 525.716C821.3 408.916 885.9 314.616 891.5 306.316C894.9 301.216 881.3 299.816 874.9 295.116Z" fill="#F7F2EE"/>
<path d="M874.9 295.116C867.9 289.916 811.5 375.016 718 518.516C721.1 515.016 730.9 535.616 737.9 525.716C821.3 408.916 885.9 314.616 891.5 306.316C894.9 301.216 881.3 299.816 874.9 295.116Z" stroke="#161616" stroke-width="8" stroke-miterlimit="10" stroke-linecap="round" stroke-linejoin="round"/>
<path fill-rule="evenodd" clip-rule="evenodd" d="M842.7 259.916C852 276.216 869.9 294.716 872.9 295.416C880.7 297.416 901.4 309.816 910 310.916C938.4 314.616 965.7 309.116 991.9 296.016C1040.1 272.016 1072.6 229.916 1019 148.816C1015.8 144.016 1011.3 140.016 1006.6 136.116C926.601 70.2165 781.6 153.016 842.7 259.916Z" fill="#ED712E"/>
<path d="M842.7 259.916C852 276.216 869.9 294.716 872.9 295.416C880.7 297.416 901.4 309.816 910 310.916C938.4 314.616 965.7 309.116 991.9 296.016C1040.1 272.016 1072.6 229.916 1019 148.816C1015.8 144.016 1011.3 140.016 1006.6 136.116C926.601 70.2165 781.6 153.016 842.7 259.916Z" stroke="black" stroke-width="8" stroke-miterlimit="10" stroke-linecap="round" stroke-linejoin="round"/>
<path fill-rule="evenodd" clip-rule="evenodd" d="M854.401 168.416C849.601 170.016 843.201 213.316 865.901 255.116C893.101 305.316 1009.5 293.616 1023.5 223.916C1039.7 143.316 902.601 99.0162 883.701 176.416C872.001 224.416 934.701 273.416 978.901 230.216C994.901 214.616 990.901 199.116 976.001 190.216C969.001 186.016 964.501 179.816 951.201 183.616C947.901 184.616 941.801 182.516 939.901 185.416C923.301 209.016 954.501 196.116 962.801 214.016C967.801 224.916 934.101 228.716 925.001 223.116C913.701 216.216 889.301 183.316 925.201 168.516C975.701 147.716 1042 205.416 989.301 247.816C977.601 257.216 964.001 263.716 948.701 263.316C837.301 261.116 882.101 191.516 854.401 168.416Z" fill="#D96526"/>
<path d="M854.401 168.416C849.601 170.016 843.201 213.316 865.901 255.116C893.101 305.316 1009.5 293.616 1023.5 223.916C1039.7 143.316 902.601 99.0162 883.701 176.416C872.001 224.416 934.701 273.416 978.901 230.216C994.901 214.616 990.901 199.116 976.001 190.216C969.001 186.016 964.501 179.816 951.201 183.616C947.901 184.616 941.801 182.516 939.901 185.416C923.301 209.016 954.501 196.116 962.801 214.016C967.801 224.916 934.101 228.716 925.001 223.116C913.701 216.216 889.301 183.316 925.201 168.516C975.701 147.716 1042 205.416 989.301 247.816C977.601 257.216 964.001 263.716 948.701 263.316C837.301 261.116 882.101 191.516 854.401 168.416Z" stroke="#F7F2EE" stroke-width="8" stroke-miterlimit="10" stroke-linecap="round" stroke-linejoin="round"/>
<path d="M737.7 2.81641C737.5 3.11641 740.2 11.7164 740.4 12.5164C769.7 127.416 740.2 245.716 752.8 361.616C755.5 386.816 762.6 417.916 774.2 441.216C787.3 467.516 813 430.516 786.2 419.816" stroke="black" stroke-width="4" stroke-miterlimit="10" stroke-linecap="round" stroke-linejoin="round"/>
<path fill-rule="evenodd" clip-rule="evenodd" d="M890.6 654.216C904.4 677.816 1143.3 801.017 1162.6 742.517C1187.2 668.017 1024.3 667.817 982.699 660.617C959.299 656.517 921.799 635.917 898.199 646.817C896.999 647.417 892.3 649.517 893.6 651.417" fill="#F7F2EE"/>
<path d="M890.6 654.216C904.4 677.816 1143.3 801.017 1162.6 742.517C1187.2 668.017 1024.3 667.817 982.699 660.617C959.299 656.517 921.799 635.917 898.199 646.817C896.999 647.417 892.3 649.517 893.6 651.417" stroke="#161616" stroke-width="8" stroke-miterlimit="10" stroke-linecap="round" stroke-linejoin="round"/>
<path fill-rule="evenodd" clip-rule="evenodd" d="M1107.8 490.016C1106.6 491.316 1106.5 476.416 1106.8 475.416C1109.7 463.916 1122.8 455.016 1134.1 453.116C1160 448.716 1175.1 476.116 1185.2 495.616C1195.6 515.716 1203.4 539.216 1206.9 561.616C1213.2 602.216 1217.4 737.816 1162.7 748.116C1138.2 752.716 1132.4 721.116 1132 703.816C1130.9 661.416 1150.1 620.816 1142.9 577.916C1136.5 539.816 1107.2 525.116 1107.5 483.316" fill="#F7F2EE"/>
<path d="M1107.8 490.016C1106.6 491.316 1106.5 476.416 1106.8 475.416C1109.7 463.916 1122.8 455.016 1134.1 453.116C1160 448.716 1175.1 476.116 1185.2 495.616C1195.6 515.716 1203.4 539.216 1206.9 561.616C1213.2 602.216 1217.4 737.816 1162.7 748.116C1138.2 752.716 1132.4 721.116 1132 703.816C1130.9 661.416 1150.1 620.816 1142.9 577.916C1136.5 539.816 1107.2 525.116 1107.5 483.316" stroke="#161616" stroke-width="8" stroke-miterlimit="10" stroke-linecap="round" stroke-linejoin="round"/>
<path fill-rule="evenodd" clip-rule="evenodd" d="M893.599 638.617C893.499 638.917 896.299 637.017 896.599 636.817C899.599 634.517 902.399 632.117 905.299 629.717C912.499 623.717 919.799 617.917 927.199 612.117C950.599 593.717 974.399 576.217 998.599 559.017C1023.4 541.317 1047.6 522.717 1073 505.917C1103.8 485.517 1111.9 482.217 1133.1 513.317C1146.8 533.417 1158.7 555.517 1163.8 579.417C1169.7 607.217 1175.2 715.217 1136.8 723.317C1083.9 734.417 1024.6 691.617 975.499 677.217C962.799 673.517 950.499 668.517 937.699 665.117C934.199 664.217 871.499 657.617 894.299 638.917" fill="#ED712E"/>
<path d="M893.599 638.617C893.499 638.917 896.299 637.017 896.599 636.817C899.599 634.517 902.399 632.117 905.299 629.717C912.499 623.717 919.799 617.917 927.199 612.117C950.599 593.717 974.399 576.217 998.599 559.017C1023.4 541.317 1047.6 522.717 1073 505.917C1103.8 485.517 1111.9 482.217 1133.1 513.317C1146.8 533.417 1158.7 555.517 1163.8 579.417C1169.7 607.217 1175.2 715.217 1136.8 723.317C1083.9 734.417 1024.6 691.617 975.499 677.217C962.799 673.517 950.499 668.517 937.699 665.117C934.199 664.217 871.499 657.617 894.299 638.917" stroke="#161616" stroke-width="8" stroke-miterlimit="10" stroke-linecap="round" stroke-linejoin="round"/>
<path d="M1110.4 527.617C1109.4 522.817 1091.2 527.417 1089.1 528.617C1070.1 538.717 1072.7 565.116 1091.1 574.216C1121 589.016 1141.2 552.417 1112.7 530.517" stroke="#F7F2EE" stroke-width="4" stroke-miterlimit="10" stroke-linecap="round" stroke-linejoin="round"/>
<path d="M1012.5 580.417C1011.2 572.717 1032 562.716 1037 560.416C1038 559.916 1045.8 555.616 1046.8 556.816C1048.1 558.416 1042.1 566.616 1041.3 567.816C1034.7 577.916 1024.4 586.016 1012.1 582.716" stroke="#F7F2EE" stroke-width="4" stroke-miterlimit="10" stroke-linecap="round" stroke-linejoin="round"/>
<path fill-rule="evenodd" clip-rule="evenodd" d="M1069.3 585.516C1060.7 581.616 1057.1 596.916 1061 602.116C1068.4 612.116 1080 602.416 1073 591.316" fill="#F7F2EE"/>
<path d="M1069.3 585.516C1060.7 581.616 1057.1 596.916 1061 602.116C1068.4 612.116 1080 602.416 1073 591.316" stroke="#F7F2EE" stroke-width="4" stroke-miterlimit="10" stroke-linecap="round" stroke-linejoin="round"/>
<path d="M1040.7 601.716C1041 602.616 1038.9 601.116 1038 601.216C1036 601.516 1034 602.516 1032.5 603.916C1028.9 607.316 1028.2 612.616 1030.7 616.916C1037.2 628.316 1052.2 618.316 1042.8 604.916" stroke="#F7F2EE" stroke-width="4" stroke-miterlimit="10" stroke-linecap="round" stroke-linejoin="round"/>
<path d="M945.1 655.416C941.6 622.016 964.1 610.416 980.4 611.816C1002.1 613.616 1006 640.816 1000.3 657.516C998.5 662.616 995.4 665.516 990.6 670.616" stroke="#F7F2EE" stroke-width="4" stroke-miterlimit="10" stroke-linecap="round" stroke-linejoin="round"/>
<path fill-rule="evenodd" clip-rule="evenodd" d="M1077.8 642.716C1076.9 637.816 1063.8 642.016 1064.9 650.516C1066.4 662.416 1079.7 655.716 1078.8 645.916" fill="#F7F2EE"/>
<path d="M1077.8 642.716C1076.9 637.816 1063.8 642.016 1064.9 650.516C1066.4 662.416 1079.7 655.716 1078.8 645.916" stroke="#F7F2EE" stroke-width="4" stroke-miterlimit="10" stroke-linecap="round" stroke-linejoin="round"/>
<path d="M1035.4 664.516C1034.1 663.716 1047.7 668.916 1056.9 675.516C1063.6 680.316 1067.5 686.516 1062.9 686.016C1043.8 683.916 1019.6 660.616 1035.4 664.516Z" stroke="#F7F2EE" stroke-width="4" stroke-miterlimit="10" stroke-linecap="round" stroke-linejoin="round"/>
<path d="M1111.8 610.216C1103.5 604.016 1092 620.217 1096.3 629.417C1103 643.917 1120.1 631.517 1115.9 617.317" stroke="#F7F2EE" stroke-width="4" stroke-miterlimit="10" stroke-linecap="round" stroke-linejoin="round"/>
<path d="M1142.7 671.516C1142.8 666.516 1128.3 663.016 1125.4 662.516C1108 659.416 1084.1 672.217 1092.6 692.617C1105.7 724.017 1151.4 700.417 1141.3 671.617" stroke="#F7F2EE" stroke-width="4" stroke-miterlimit="10" stroke-linecap="round" stroke-linejoin="round"/>
<path d="M1147.5 636.816C1147.4 635.516 1141.7 638.516 1141.3 640.116C1140.3 644.416 1146.4 646.116 1147.9 642.216" stroke="#F7F2EE" stroke-width="4" stroke-miterlimit="10" stroke-linecap="round" stroke-linejoin="round"/>
<path d="M1140.6 574.917C1135.5 572.517 1130.3 587.216 1135.7 592.316C1144.1 600.216 1156.7 589.317 1148.6 580.417" stroke="#F7F2EE" stroke-width="4" stroke-miterlimit="10" stroke-linecap="round" stroke-linejoin="round"/>
<path d="M1127.9 500.717C1127.5 500.717 1134.8 492.917 1135.6 492.317C1143.1 486.517 1151.9 483.017 1161.2 485.517" stroke="black" stroke-width="4" stroke-miterlimit="10" stroke-linecap="round" stroke-linejoin="round"/>
<path d="M1148.9 535.117C1146 534.717 1154.4 528.717 1154.9 528.517C1161.4 525.017 1172.9 521.417 1179.9 525.817" stroke="black" stroke-width="4" stroke-miterlimit="10" stroke-linecap="round" stroke-linejoin="round"/>
<path d="M1164.1 568.316C1166.1 561.116 1185 561.516 1191.8 565.016" stroke="black" stroke-width="4" stroke-miterlimit="10" stroke-linecap="round" stroke-linejoin="round"/>
<path d="M1169.6 613.217C1169.5 614.017 1169.9 611.617 1170.4 611.117C1171.9 609.717 1173.8 608.717 1175.7 608.117C1182.6 605.917 1190.9 608.017 1196.7 612.117" stroke="black" stroke-width="4" stroke-miterlimit="10" stroke-linecap="round" stroke-linejoin="round"/>
<path d="M1169.6 641.716C1169.2 641.116 1182.4 642.916 1184.2 643.616C1187.6 644.916 1191.3 647.016 1193.7 649.816" stroke="black" stroke-width="4" stroke-miterlimit="10" stroke-linecap="round" stroke-linejoin="round"/>
<path d="M1170.4 682.017C1168.2 680.817 1175.7 682.417 1177.8 683.817C1182.5 686.817 1185.8 691.417 1187.8 696.617" stroke="black" stroke-width="4" stroke-miterlimit="10" stroke-linecap="round" stroke-linejoin="round"/>
<path d="M1159.6 708.816C1159.2 709.416 1161.1 709.116 1161.7 709.616C1165.5 712.116 1178.4 722.916 1175.7 728.616" stroke="black" stroke-width="4" stroke-miterlimit="10" stroke-linecap="round" stroke-linejoin="round"/>
<path d="M1042.2 0.0165071C1038.3 -0.483493 1043.9 10.5166 1044.8 13.8166C1059.3 66.0166 1071.2 118.217 1079 171.817C1095.4 284.517 1039.1 347.817 1050.2 523.117" stroke="black" stroke-width="4" stroke-miterlimit="10" stroke-linecap="round" stroke-linejoin="round"/>
<path fill-rule="evenodd" clip-rule="evenodd" d="M441.3 1164.32C435.1 1175.52 444.4 1244.42 445 1258.92C446.1 1289.52 445.6 1320.12 446.1 1350.82C446.8 1385.82 458.5 1382.12 494.3 1382.82C558.6 1384.02 622.6 1382.42 686.8 1381.92C706.1 1381.72 855.9 1389.62 854.8 1379.62C851.9 1354.62 864 1190.42 860.9 1170.32C824.3 1165.82 672.2 1159.22 581.5 1161.02C540.9 1161.82 500.1 1163.42 459.6 1167.12C455.4 1167.52 445.1 1170.02 447.1 1166.32" fill="#26B9D9"/>
<path d="M441.3 1164.32C435.1 1175.52 444.4 1244.42 445 1258.92C446.1 1289.52 445.6 1320.12 446.1 1350.82C446.8 1385.82 458.5 1382.12 494.3 1382.82C558.6 1384.02 622.6 1382.42 686.8 1381.92C706.1 1381.72 855.9 1389.62 854.8 1379.62C851.9 1354.62 864 1190.42 860.9 1170.32C824.3 1165.82 672.2 1159.22 581.5 1161.02C540.9 1161.82 500.1 1163.42 459.6 1167.12C455.4 1167.52 445.1 1170.02 447.1 1166.32" stroke="#161616" stroke-width="8" stroke-miterlimit="10" stroke-linecap="round" stroke-linejoin="round"/>
<path d="M444.9 1212.12C444.5 1212.12 448.3 1208.02 448.7 1207.62C452.9 1203.32 457.6 1199.62 462.3 1195.82C469.6 1190.02 496.8 1162.72 508 1172.02C517.7 1180.02 471.1 1209.12 464.7 1216.42C463.7 1217.52 460.8 1220.82 462.7 1222.32C469.8 1227.92 520.3 1177.82 534.8 1169.62C537 1168.32 544.1 1163.82 546 1167.52C556.5 1187.32 460.8 1229.22 464.7 1250.02C466.7 1260.42 496.6 1231.22 501 1228.82C501.9 1228.32 505.1 1227.12 504.8 1229.32C504.6 1230.42 503.9 1231.42 503.3 1232.32C503 1232.72 502.1 1233.92 501.7 1234.32C501.4 1234.72 501.1 1235.02 500.7 1235.42C500.3 1235.82 500 1236.12 499.6 1236.52C499.2 1236.92 498.8 1237.32 498.4 1237.72C497.5 1238.52 496.7 1239.32 495.8 1240.12C495.3 1240.52 494.9 1240.92 494.4 1241.32C493.9 1241.72 493.4 1242.12 492.9 1242.62C492.4 1243.02 491.9 1243.52 491.4 1243.92C483.2 1250.82 474.6 1257.42 468.2 1266.22C466.3 1268.82 456.7 1283.12 464 1284.92C479.6 1288.82 513.2 1231.82 525.6 1220.92C539.8 1208.42 538.5 1228.62 543.8 1226.42C550.3 1223.82 555.5 1212.12 558.5 1206.52C561.5 1201.02 584.3 1156.62 595.9 1168.52C610 1183.02 500.1 1266.42 517 1279.92C517.7 1280.42 520.8 1276.72 521.1 1276.42C529.8 1267.02 537.1 1256.62 546.1 1247.52C565 1228.42 585.9 1212.62 606.6 1195.52C609.8 1192.92 636.8 1167.72 638.9 1176.02C643 1192.22 585.1 1237.72 574.5 1246.22C548.3 1267.22 521.6 1287.52 495.6 1308.82C490.9 1312.72 474.2 1331.92 467.6 1331.92C466.4 1331.92 467.5 1328.72 467.6 1328.32C470.3 1318.22 474 1307.52 479.2 1298.32C479.4 1298.02 481.7 1294.12 482.2 1294.62C482.9 1295.32 478 1301.32 477.6 1301.92C469.8 1313.22 450.5 1337.62 459.5 1352.32C473.3 1374.92 521.4 1283.02 535.7 1292.22C536.3 1292.62 536.7 1293.42 536.8 1294.22C538.1 1304.12 471.3 1376.82 490 1369.82C525.3 1356.52 605.5 1250.72 632.5 1217.22C635.6 1213.32 671.5 1164.62 679.5 1171.12C681.8 1172.92 677.3 1179.42 676.4 1181.02C659.2 1212.22 631.3 1234.82 610.5 1263.32C609.7 1264.42 602.6 1273.62 605.4 1274.92C608.1 1276.12 613 1272.32 614.9 1270.92C639.1 1253.42 657.4 1227.42 676.2 1204.52C685.6 1193.12 711.7 1162.32 710.3 1177.82C707.9 1205.92 602.1 1299.42 576.8 1321.72C574.2 1324.02 533.7 1361.62 541.9 1368.12C550.7 1375.02 611.3 1289.22 624.6 1294.42C627.5 1295.52 620.9 1303.52 620.2 1304.52C611.4 1316.62 570.9 1359.32 578.5 1375.42C590.5 1400.62 635.2 1309.72 646.5 1309.32C648.2 1309.22 642.8 1320.72 642.4 1321.42C636.2 1334.32 628.6 1347.32 625.7 1361.42C625.3 1363.32 624.2 1368.92 627.6 1369.12C638.5 1369.92 652.6 1342.62 657.3 1335.42C681.5 1298.42 707.5 1262.92 732.5 1226.42C735.8 1221.52 758.1 1186.92 749.7 1180.82C745.1 1177.52 688 1233.82 676.4 1258.62C675.5 1260.52 673.1 1265.42 675.5 1267.32C678.2 1269.42 684 1265.92 686.2 1264.52C720.5 1242.82 737.7 1201.12 771.8 1178.72C773.7 1177.52 784.3 1169.82 785.7 1175.02C789.5 1188.42 721.1 1255.92 711 1270.52C710 1272.02 703.3 1280.62 705.8 1282.72C708.4 1284.82 715.6 1277.62 717.1 1276.32C745.5 1252.62 767.1 1221.72 795.5 1198.12C796.7 1197.12 808.2 1186.82 810 1190.52C812.7 1195.92 787.2 1220.92 783.5 1224.52C753.3 1254.42 720.3 1280.72 694.3 1314.72C689.8 1320.62 666 1352.22 674.8 1359.82C686.2 1369.72 736.1 1295.62 743.1 1295.92C743.9 1295.92 741.1 1300.52 741.1 1300.62C737.9 1306.02 734.7 1311.42 731.5 1316.82C727.1 1324.12 703.4 1361.62 708.3 1369.42C710.5 1372.92 717.7 1366.22 719.2 1364.82C728.9 1356.02 770.7 1294.32 777.1 1294.62C779.3 1294.72 769.3 1314.72 768.6 1316.12C761.7 1330.12 752.9 1344.52 748.6 1359.62C748 1361.72 746.5 1367.32 750.1 1367.92C768.6 1371.02 814.5 1262.62 823.5 1245.22C825.6 1241.12 843.2 1209.52 839.4 1206.22C838.6 1205.52 836.9 1206.92 836.3 1207.22C820 1217.52 802.2 1239.32 793.4 1256.22C791.7 1259.42 788.9 1265.32 791 1268.92C796.3 1278.32 827.9 1248.62 832.9 1255.72C840.7 1266.62 792.5 1322.62 798.7 1335.32C799.5 1337.02 801.9 1335.82 803 1335.22C809.6 1331.62 836.1 1302.62 838.1 1303.22C839.7 1303.72 835.9 1311.32 835.5 1312.02C827.8 1328.12 804.4 1348.82 805.5 1367.82C806.2 1380.22 831.8 1355.32 834.5 1353.02C835 1352.62 836.7 1350.82 837.5 1351.32C840.6 1352.92 831 1369.72 833.5 1373.72" stroke="#F7F2EE" stroke-width="4" stroke-miterlimit="10" stroke-linecap="round" stroke-linejoin="round"/>
<path d="M885.399 1183.82C885.299 1183.82 885.1 1183.82 885.1 1183.82" stroke="#F7F2EE" stroke-width="4" stroke-miterlimit="10" stroke-linecap="round" stroke-linejoin="round"/>
<path fill-rule="evenodd" clip-rule="evenodd" d="M850.801 1383.82C854.301 1377.32 856.901 1177.32 862.801 1168.02C865.901 1163.22 872.901 1154.12 881.101 1144.12C895.701 1126.32 914.101 1105.82 920.401 1102.52C921.201 1102.12 937.001 1096.22 937.401 1098.42C939.601 1111.22 934.301 1308.42 931.401 1316.82C928.101 1326.52 903.301 1349.02 881.301 1365.42C868.601 1374.82 857.001 1382.12 850.801 1383.82Z" fill="#26B9D9"/>
<path d="M850.801 1383.82C854.301 1377.32 856.901 1177.32 862.801 1168.02C865.901 1163.22 872.901 1154.12 881.101 1144.12C895.701 1126.32 914.101 1105.82 920.401 1102.52C921.201 1102.12 937.001 1096.22 937.401 1098.42C939.601 1111.22 934.301 1308.42 931.401 1316.82C928.101 1326.52 903.301 1349.02 881.301 1365.42C868.601 1374.82 857.001 1382.12 850.801 1383.82Z" stroke="#161616" stroke-width="8" stroke-miterlimit="10" stroke-linecap="round" stroke-linejoin="round"/>
<path fill-rule="evenodd" clip-rule="evenodd" d="M357.7 654.216C358 655.516 355.399 655.517 354.399 656.417C339.999 670.317 332.3 695.017 336.5 714.917C341.2 737.617 361.099 760.416 384.399 761.216C419.599 762.416 467.4 721.217 458.3 681.517C447.8 635.917 389.699 622.217 359.399 653.417" fill="#ED712E"/>
<path d="M357.7 654.216C358 655.516 355.399 655.517 354.399 656.417C339.999 670.317 332.3 695.017 336.5 714.917C341.2 737.617 361.099 760.416 384.399 761.216C419.599 762.416 467.4 721.217 458.3 681.517C447.8 635.917 389.699 622.217 359.399 653.417" stroke="#161616" stroke-width="8" stroke-miterlimit="10" stroke-linecap="round" stroke-linejoin="round"/>
<path d="M316.3 751.316C316 751.416 335.1 751.316 335.8 752.716C337.6 756.216 331.9 775.717 336.1 776.917C339.8 778.017 349.5 763.416 352.6 765.616C357.8 769.116 351.4 781.016 356.9 785.816C360.7 789.116 373.5 773.516 377.9 774.116C383.7 774.816 381.2 793.216 389 790.116C394.7 787.816 396.2 775.517 401.2 772.917C407 769.917 414.8 787.217 420.4 784.417C425.5 781.917 420.3 768.216 425.4 765.016C429.8 762.216 441 772.116 446.4 769.216C450.3 767.116 442.3 755.116 445.2 752.016C448.5 748.516 462.8 756.916 466.7 754.316C470.5 751.716 458.7 739.716 461.6 737.016C465.2 733.616 478.5 737.317 481 733.917C484.1 729.817 467.5 722.016 471.8 717.616C475.6 713.716 491.9 709.416 491.1 709.116C489.9 708.616 475.4 701.517 475.5 699.917C475.6 691.917 492.9 690.617 491 682.417C490.3 679.617 474 674.617 472.1 670.417C469.5 664.717 483.8 655.616 478.6 651.716C476.2 649.916 465.5 651.416 462.6 650.216C461.9 649.916 461.9 647.916 461.8 647.316C460 636.316 468.9 622.817 458.7 631.417C458.2 631.817 445.6 639.916 445 639.316C440.6 635.016 441.6 624.116 437.7 618.716C437.4 618.316 437.1 617.916 436.6 617.616C431.5 614.716 427.4 627.917 423.7 628.417C418 629.117 418.3 612.617 411.8 611.917C411.7 611.917 400.7 624.316 394.7 625.116C388.7 625.916 383.6 614.916 379.3 617.616C375.5 620.016 371.4 630.016 367 632.216C360.2 635.716 351.1 622.916 346.1 629.216C344.5 631.216 347.3 641.416 344.6 643.716C340.2 647.316 326.8 640.716 325 648.616C323.5 655.216 333.5 665.016 331 670.316C328.5 675.516 315.2 667.017 314.2 674.417C314 675.917 315.7 678.017 317.8 680.417C321.1 684.317 325.3 689.016 323.5 693.616C321.7 698.216 307 694.516 306.9 704.116C306.8 709.016 325.1 710.016 324.7 713.616C324 719.716 301.1 727.416 307.3 730.016C316.1 733.616 339.8 728.716 316.3 751.316Z" stroke="#161616" stroke-width="4" stroke-miterlimit="10" stroke-linecap="round" stroke-linejoin="round"/>
<path d="M354.7 735.516C355.4 736.716 354.2 732.716 354.6 731.416C355.3 728.416 356.8 725.616 358.3 723.016C362.9 715.216 368.2 702.016 374.9 695.916C403.6 669.316 413.6 689.216 420.1 654.116" stroke="#F7F2EE" stroke-width="8" stroke-miterlimit="10" stroke-linecap="round" stroke-linejoin="round"/>
<path d="M377.4 747.616C383 738.116 381.7 730.416 390.4 721.316C410.1 700.716 435.901 705.716 439.301 669.716" stroke="#F7F2EE" stroke-width="8" stroke-miterlimit="10" stroke-linecap="round" stroke-linejoin="round"/>
<path d="M315.4 727.916C315.4 728.016 316.901 727.516 317.101 727.416C318.501 727.016 319.8 726.516 321.2 726.116C325 724.916 328.9 723.916 332.9 723.116" stroke="#161616" stroke-width="4" stroke-miterlimit="10" stroke-linecap="round" stroke-linejoin="round"/>
<path d="M325.2 748.716C324.8 747.616 327.2 747.416 328.2 746.816C331.8 744.416 335.5 742.016 339.2 739.816" stroke="#161616" stroke-width="4" stroke-miterlimit="10" stroke-linecap="round" stroke-linejoin="round"/>
<path d="M341 769.917C340.6 770.717 341.1 768.217 341.4 767.417C341.9 765.917 342.5 764.417 343.2 762.917C345.3 758.017 347.7 752.616 350.9 748.316" stroke="#161616" stroke-width="4" stroke-miterlimit="10" stroke-linecap="round" stroke-linejoin="round"/>
<path d="M360.1 782.616C360 782.916 360.3 780.616 360.4 780.216C360.9 778.616 361.4 777.016 361.9 775.416C363.6 770.416 365.3 765.516 367.2 760.616" stroke="#161616" stroke-width="4" stroke-miterlimit="10" stroke-linecap="round" stroke-linejoin="round"/>
<path d="M389.6 763.417C387.4 766.917 388.1 774.116 387.7 778.016" stroke="#161616" stroke-width="4" stroke-miterlimit="10" stroke-linecap="round" stroke-linejoin="round"/>
<path d="M410.8 759.716C410.7 760.616 415.6 772.616 416.1 774.216" stroke="#161616" stroke-width="4" stroke-miterlimit="10" stroke-linecap="round" stroke-linejoin="round"/>
<path d="M428.5 747.917C428.2 748.117 429.8 749.916 429.9 750.116C431.8 752.516 433.8 754.916 435.8 757.316" stroke="#161616" stroke-width="4" stroke-miterlimit="10" stroke-linecap="round" stroke-linejoin="round"/>
<path d="M443.3 734.417C443.5 735.617 446.9 737.416 447.7 738.016C451.9 741.216 456 744.516 460.1 747.816" stroke="#161616" stroke-width="4" stroke-miterlimit="10" stroke-linecap="round" stroke-linejoin="round"/>
<path d="M453.8 720.216C453.5 721.716 464 725.516 465.3 726.116" stroke="#161616" stroke-width="4" stroke-miterlimit="10" stroke-linecap="round" stroke-linejoin="round"/>
<path d="M459.9 707.917C459.3 708.617 462.5 708.716 462.6 708.716C466.2 708.916 469.8 708.916 473.4 709.016" stroke="#161616" stroke-width="4" stroke-miterlimit="10" stroke-linecap="round" stroke-linejoin="round"/>
<path d="M462.4 687.517C461.7 687.917 464 687.217 464.8 687.017C466.5 686.717 468.2 686.417 470 686.117C474.8 685.317 479.7 684.617 484.5 684.017" stroke="#161616" stroke-width="4" stroke-miterlimit="10" stroke-linecap="round" stroke-linejoin="round"/>
<path d="M454.2 664.016C454.1 664.016 455.5 663.216 455.7 663.116C456.9 662.616 458.101 662.216 459.301 661.816C462.901 660.616 466.501 659.416 470.101 658.216" stroke="#161616" stroke-width="4" stroke-miterlimit="10" stroke-linecap="round" stroke-linejoin="round"/>
<path d="M458.801 635.117C458.601 635.017 458.6 635.516 458.5 635.716C457.6 637.016 456.801 638.216 455.801 639.516C453.601 642.516 451.3 645.316 448.9 648.216" stroke="#161616" stroke-width="4" stroke-miterlimit="10" stroke-linecap="round" stroke-linejoin="round"/>
<path d="M434.9 620.017C435.4 620.017 434.6 621.017 434.5 621.417C434.2 622.517 433.8 623.717 433.5 624.817C432.5 628.517 431.4 632.117 430.2 635.717" stroke="#161616" stroke-width="4" stroke-miterlimit="10" stroke-linecap="round" stroke-linejoin="round"/>
<path d="M413.601 614.716C413.601 614.716 413 616.416 413 616.516C412.7 617.916 412.5 619.316 412.2 620.716C411.5 624.316 410.6 628.016 409.9 631.616" stroke="#161616" stroke-width="4" stroke-miterlimit="10" stroke-linecap="round" stroke-linejoin="round"/>
<path d="M380.899 620.917C380.599 621.017 381.099 623.616 381.199 623.716C381.699 626.716 382.199 629.716 382.699 632.716" stroke="#161616" stroke-width="4" stroke-miterlimit="10" stroke-linecap="round" stroke-linejoin="round"/>
<path d="M349.7 631.316C349.4 631.116 350.2 632.716 350.2 632.716C350.9 633.816 351.6 634.816 352.2 635.816C353.9 638.416 355.7 641.016 357.4 643.616" stroke="#161616" stroke-width="4" stroke-miterlimit="10" stroke-linecap="round" stroke-linejoin="round"/>
<path d="M334.9 650.916C332.9 649.016 342.1 656.216 342.8 656.716" stroke="#161616" stroke-width="4" stroke-miterlimit="10" stroke-linecap="round" stroke-linejoin="round"/>
<path d="M320.9 676.917C320.6 676.217 323.6 677.117 323.8 677.217C327.1 678.517 330.3 680.117 333.5 681.617" stroke="#161616" stroke-width="4" stroke-miterlimit="10" stroke-linecap="round" stroke-linejoin="round"/>
<path d="M313.399 701.316C313.199 701.416 313.8 701.616 314.1 701.716C314.8 701.916 315.599 702.116 316.399 702.316C318.299 702.716 320.2 702.916 322.1 703.116" stroke="#161616" stroke-width="4" stroke-miterlimit="10" stroke-linecap="round" stroke-linejoin="round"/>
<path d="M357.499 20.7163C310.799 221.616 382.999 477.316 382.999 619.416" stroke="black" stroke-width="4" stroke-miterlimit="10" stroke-linecap="round" stroke-linejoin="round"/>
<path d="M873.1 1178.22C872.2 1178.92 873.8 1177.02 874 1176.92C877.7 1172.32 881 1167.32 884.8 1162.72C888.8 1157.82 913.7 1127.02 919.7 1129.42C922.2 1130.42 920.5 1135.42 919.9 1137.02C916.7 1145.52 884.3 1190.12 884.9 1191.72C885.4 1192.92 890 1188.52 890.3 1188.32C900.8 1178.22 908.7 1165.12 920 1155.92C920.9 1155.22 923.4 1152.92 924.5 1154.52C932.4 1165.32 877.8 1216.02 870.6 1225.72C869.8 1226.72 863.2 1235.12 865.5 1236.42C870.8 1239.52 909 1194.82 921.9 1186.02C922.8 1185.42 925 1183.72 926.1 1184.82C930.6 1189.32 890.3 1234.22 893.4 1242.62C893.9 1243.82 895.8 1242.92 896.5 1242.62C898.1 1241.82 927.1 1213.22 923 1226.62C918.3 1242.02 900.4 1257.62 890.5 1269.62C887.4 1273.32 867.7 1297.12 864.6 1294.92C864.1 1294.52 864.3 1293.42 864.4 1293.02C865.3 1288.72 879.9 1260.72 884.1 1262.62C892.3 1266.42 869 1301.82 881 1299.92C882.5 1299.72 883.9 1298.82 885.1 1298.02C895.5 1290.72 902 1278.82 912.2 1271.62C912.8 1271.12 915.7 1269.32 916.3 1270.72C918.3 1274.82 894.5 1305.22 894.6 1314.72C894.7 1319.92 918.8 1302.42 918.8 1302.52C920.2 1307.92 870.9 1355.62 864.3 1363.42" stroke="#F7F2EE" stroke-width="4" stroke-miterlimit="10" stroke-linecap="round" stroke-linejoin="round"/>
<path d="M569.699 1431.72C569.699 1431.12 572.399 1429.82 576.399 1428.52C629.499 1411.22 688.799 1408.62 744.099 1410.62" stroke="black" stroke-width="4" stroke-miterlimit="10" stroke-linecap="round" stroke-linejoin="round"/>
</g>
<defs>
<clipPath id="clip0_101_11862">
<rect width="1500" height="1500" fill="white"/>
</clipPath>
</defs>
</svg>
