<svg width="1500" height="1500" viewBox="0 0 1500 1500" fill="none" xmlns="http://www.w3.org/2000/svg">
<rect width="1500" height="1500" fill="#F7F2EE"/>
<path d="M652.3 604.6C715.3 669.3 820.3 767.6 845.4 792.8" stroke="black" stroke-width="8" stroke-miterlimit="10" stroke-linecap="round" stroke-linejoin="round"/>
<path d="M623.2 547C680.5 603.2 766.3 673.6 875.8 770.8" stroke="black" stroke-width="8" stroke-miterlimit="10" stroke-linecap="round" stroke-linejoin="round"/>
<path d="M606.4 421.5C713.1 507.7 926.5 680.1 929.7 682.5" stroke="black" stroke-width="8" stroke-miterlimit="10" stroke-linecap="round" stroke-linejoin="round"/>
<path d="M624.8 462.3C720.7 544.1 912.5 707.7 915.8 710.4" stroke="black" stroke-width="8" stroke-miterlimit="10" stroke-linecap="round" stroke-linejoin="round"/>
<path opacity="0.9116" d="M1208.1 999.6C1267.3 1049.6 1287 1065.3 1346.5 1114.6" stroke="#161616" stroke-width="8" stroke-miterlimit="10" stroke-linecap="round" stroke-linejoin="round"/>
<path opacity="0.9116" d="M1214.7 915.8C1251.4 947.4 1292.4 980 1338.3 1014.8C1359.4 1030.7 1354.6 1026.3 1373.5 1041.5" stroke="#161616" stroke-width="8" stroke-miterlimit="10" stroke-linecap="round" stroke-linejoin="round"/>
<path opacity="0.9116" d="M1225.4 887.7C1243 900.6 1262.6 914 1281.8 926.7C1331.6 959.7 1378.9 988.1 1384 990.7" stroke="#161616" stroke-width="8" stroke-miterlimit="10" stroke-linecap="round" stroke-linejoin="round"/>
<path opacity="0.9116" d="M1194.3 1032.8C1231.5 1071.9 1296.2 1130.8 1327.9 1159.4" stroke="#161616" stroke-width="8" stroke-miterlimit="10" stroke-linecap="round" stroke-linejoin="round"/>
<path opacity="0.9116" d="M1168.5 1088.3C1222.3 1141.1 1329.5 1238.3 1386.2 1278.2" stroke="#161616" stroke-width="4" stroke-miterlimit="10" stroke-linecap="round" stroke-linejoin="round"/>
<path opacity="0.9116" d="M1236.8 1187.4C1271.7 1220.1 1302.8 1255.5 1338.6 1295.8C1346.9 1305.2 1356 1311.5 1363 1317.4" stroke="#161616" stroke-width="4" stroke-miterlimit="10" stroke-linecap="round" stroke-linejoin="round"/>
<path fill-rule="evenodd" clip-rule="evenodd" d="M825.5 415.9C824 415.7 826.5 422.4 826.7 422.7C829.7 427.5 836 432.3 841.9 432.2C858.6 431.9 849.1 403.1 833.2 411.4C829.9 413.1 826.5 416.6 825.4 420.2" fill="#69D2C2"/>
<path opacity="0.9116" d="M825.5 415.9C824 415.7 826.5 422.4 826.7 422.7C829.7 427.5 836 432.3 841.9 432.2C858.6 431.9 849.1 403.1 833.2 411.4C829.9 413.1 826.5 416.6 825.4 420.2" stroke="#161616" stroke-width="4" stroke-miterlimit="10" stroke-linecap="round" stroke-linejoin="round"/>
<path opacity="0.9116" d="M837.3 409.3C830.3 406.2 819.4 396.5 810.7 392.4C799.8 387.3 769.9 382.6 794.6 374.4C802.3 371.8 857.1 367.9 827.3 384.1" stroke="#161616" stroke-width="4" stroke-miterlimit="10" stroke-linecap="round" stroke-linejoin="round"/>
<path opacity="0.9116" fill-rule="evenodd" clip-rule="evenodd" d="M1090.3 223.4C1090.2 224.5 1085.9 221.9 1085.7 221.7C1082.7 218.9 1080.2 213.8 1081.1 209.6C1083.6 197.6 1102.5 208 1094.5 218.4C1092.8 220.6 1089.9 222.6 1087.2 222.9" fill="#69D2C2"/>
<path opacity="0.9116" d="M1090.3 223.4C1090.2 224.5 1085.9 221.9 1085.7 221.7C1082.7 218.9 1080.2 213.8 1081.1 209.6C1083.6 197.6 1102.5 208 1094.5 218.4C1092.8 220.6 1089.9 222.6 1087.2 222.9" stroke="#161616" stroke-width="4" stroke-miterlimit="10" stroke-linecap="round" stroke-linejoin="round"/>
<path opacity="0.9116" d="M1091.2 222.9C1092.4 228.4 1097.8 237.4 1099.5 244.2C1101.6 252.7 1100.8 274.9 1109.9 258.1C1112.7 252.8 1123 213.7 1107.5 233.3" stroke="#161616" stroke-width="4" stroke-miterlimit="10" stroke-linecap="round" stroke-linejoin="round"/>
<path opacity="0.9116" fill-rule="evenodd" clip-rule="evenodd" d="M843.7 529.8C841.2 528.9 838.4 534.2 838.2 535.9C837.1 546.4 854.5 538.8 846 532.5" fill="#69D2C2"/>
<path opacity="0.9116" d="M843.7 529.8C841.2 528.9 838.4 534.2 838.2 535.9C837.1 546.4 854.5 538.8 846 532.5" stroke="#161616" stroke-width="4" stroke-miterlimit="10" stroke-linecap="round" stroke-linejoin="round"/>
<path opacity="0.9116" fill-rule="evenodd" clip-rule="evenodd" d="M856.6 514.2C853.2 514.8 855.1 526.4 861 525.2C868.4 523.7 864.6 511.8 857.6 513.4" fill="#69D2C2"/>
<path opacity="0.9116" d="M856.6 514.2C853.2 514.8 855.1 526.4 861 525.2C868.4 523.7 864.6 511.8 857.6 513.4" stroke="#161616" stroke-width="4" stroke-miterlimit="10" stroke-linecap="round" stroke-linejoin="round"/>
<path opacity="0.9116" d="M848.2 534.6C846.1 528.7 841.8 526.7 841.2 525.9C838.2 522 835.3 518.1 831.9 514.6C829.6 512.3 842.9 495 844.9 495.7C848.8 497.1 861.4 513.5 864.5 516.2" stroke="#161616" stroke-width="4" stroke-miterlimit="10" stroke-linecap="round" stroke-linejoin="round"/>
<path opacity="0.9116" fill-rule="evenodd" clip-rule="evenodd" d="M1336.8 133.1C1336.4 131 1331.4 131.5 1330.2 132.1C1322.3 136 1335 144.2 1335.9 135.8" fill="#69D2C2"/>
<path opacity="0.9116" d="M1336.8 133.1C1336.4 131 1331.4 131.5 1330.2 132.1C1322.3 136 1335 144.2 1335.9 135.8" stroke="#161616" stroke-width="4" stroke-miterlimit="10" stroke-linecap="round" stroke-linejoin="round"/>
<path opacity="0.9116" fill-rule="evenodd" clip-rule="evenodd" d="M1353.2 134.8C1351.4 132.8 1343.9 139.2 1347.3 142.6C1351.5 146.8 1358.3 139.1 1354.2 135.2" fill="#69D2C2"/>
<path opacity="0.9116" d="M1353.2 134.8C1351.4 132.8 1343.9 139.2 1347.3 142.6C1351.5 146.8 1358.3 139.1 1354.2 135.2" stroke="#161616" stroke-width="4" stroke-miterlimit="10" stroke-linecap="round" stroke-linejoin="round"/>
<path opacity="0.9116" d="M1334.7 138.6C1338 134.6 1338.2 130.4 1338.5 129.6C1340 125.9 1341.5 122.3 1342.5 118.4C1343.2 115.9 1361 117.2 1361.3 118.8C1361.9 122 1355.7 137.6 1355.1 140.9" stroke="#161616" stroke-width="4" stroke-miterlimit="10" stroke-linecap="round" stroke-linejoin="round"/>
<path opacity="0.9116" fill-rule="evenodd" clip-rule="evenodd" d="M823.2 221.8C821.7 219.8 815.6 236.6 815.5 237.5C814.1 249.5 819.8 273.3 837.6 268.6C870.7 259.8 855.4 206.6 823.2 221.8Z" fill="#69D2C2"/>
<path opacity="0.9116" d="M823.2 221.8C821.7 219.8 815.6 236.6 815.5 237.5C814.1 249.5 819.8 273.3 837.6 268.6C870.7 259.8 855.4 206.6 823.2 221.8Z" stroke="#161616" stroke-width="4" stroke-miterlimit="10" stroke-linecap="round" stroke-linejoin="round"/>
<path opacity="0.9116" d="M816.1 249.4C813.9 252.2 823.4 266.2 824.6 268.3C836.4 289.1 850.1 308.7 862.2 329.2" stroke="#161616" stroke-width="4" stroke-miterlimit="10" stroke-linecap="round" stroke-linejoin="round"/>
<path opacity="0.9116" fill-rule="evenodd" clip-rule="evenodd" d="M923.4 200.4C928.8 222.1 949 224.6 929.5 238.5C927.4 240 922.2 243.2 922.6 246C923.3 251.4 937.1 249.6 936.6 255.8C936.4 258 906.4 294.1 914.7 298.6C914.9 298.7 916.6 294 916.7 293.7C923.1 279 940.6 268.7 946 254.9C948.3 249 936.7 244.5 938.2 241.1C940.6 235.7 959 235.5 959 228.4C958.9 224.5 927.1 204.2 923.4 200.4Z" fill="black"/>
<path opacity="0.9116" d="M923.4 200.4C928.8 222.1 949 224.6 929.5 238.5C927.4 240 922.2 243.2 922.6 246C923.3 251.4 937.1 249.6 936.6 255.8C936.4 258 906.4 294.1 914.7 298.6C914.9 298.7 916.6 294 916.7 293.7C923.1 279 940.6 268.7 946 254.9C948.3 249 936.7 244.5 938.2 241.1C940.6 235.7 959 235.5 959 228.4C958.9 224.5 927.1 204.2 923.4 200.4Z" stroke="#161616" stroke-width="4" stroke-miterlimit="10" stroke-linecap="round" stroke-linejoin="round"/>
<path fill-rule="evenodd" clip-rule="evenodd" d="M1017.5 195.8C1018.8 192.3 1011.5 201.1 1010.8 204.7C1009 214.9 1015.9 228.2 1028.2 223.6C1046.9 216.5 1031.9 194.3 1017.1 195.2" fill="#69D2C2"/>
<path opacity="0.9116" d="M1017.5 195.8C1018.8 192.3 1011.5 201.1 1010.8 204.7C1009 214.9 1015.9 228.2 1028.2 223.6C1046.9 216.5 1031.9 194.3 1017.1 195.2" stroke="#161616" stroke-width="4" stroke-miterlimit="10" stroke-linecap="round" stroke-linejoin="round"/>
<path opacity="0.9116" d="M1034.8 210.5C1035 210.4 1033.6 206.9 1033.3 206.3C1023.1 186 1009.9 167.4 993.7 151.3C993.1 150.7 987.3 146.1 987.6 145.1C987.6 145 996.9 147.7 997.6 147.9C998.1 148 999 148.2 999.5 148.3C1017.7 152.5 1042.8 150.2 1057.2 164.1C1062.3 169 1062.4 177.7 1054.9 180.1C1051.6 181.2 1047.8 181.3 1044.5 180.3" stroke="#161616" stroke-width="4" stroke-miterlimit="10" stroke-linecap="round" stroke-linejoin="round"/>
<path fill-rule="evenodd" clip-rule="evenodd" d="M964.2 541.1C965.6 540.8 967.7 547.5 968.4 548.2C1058.8 641 1044.3 762 1055.5 738C1075.4 695.6 1064.2 637.2 1062.9 606.9C1061.1 565.9 1073.7 531.9 1075.9 525C1076.3 523.9 1076.3 520.8 1077.2 521.6C1078.8 523.2 1077.3 534.4 1077.4 536.7C1078.5 553.7 1065.8 597.1 1075.3 611.1C1188.5 779.2 1156.9 769.9 1149.1 844.6C1146.7 867.8 1177 923.3 1186.4 937.6C1221.5 990.9 1173.6 987.2 1122.6 978.3C1089.2 972.5 996.9 939.1 964.6 936.7C941.8 935 915.1 945.4 893.2 952.9C872.6 960 798.1 946.8 805.8 938.3C862 876.7 915.6 839.7 939.3 786.5C965.6 727.4 969.4 555.4 960.7 542.5" fill="#FF5FA0"/>
<path d="M964.2 541.1C965.6 540.8 967.7 547.5 968.4 548.2C1058.8 641 1044.3 762 1055.5 738C1075.4 695.6 1064.2 637.2 1062.9 606.9C1061.1 565.9 1073.7 531.9 1075.9 525C1076.3 523.9 1076.3 520.8 1077.2 521.6C1078.8 523.2 1077.3 534.4 1077.4 536.7C1078.5 553.7 1065.8 597.1 1075.3 611.1C1188.5 779.2 1156.9 769.9 1149.1 844.6C1146.7 867.8 1177 923.3 1186.4 937.6C1221.5 990.9 1173.6 987.2 1122.6 978.3C1089.2 972.5 996.9 939.1 964.6 936.7C941.8 935 915.1 945.4 893.2 952.9C872.6 960 798.1 946.8 805.8 938.3C862 876.7 915.6 839.7 939.3 786.5C965.6 727.4 969.4 555.4 960.7 542.5" stroke="black" stroke-width="8" stroke-miterlimit="10" stroke-linecap="round" stroke-linejoin="round"/>
<path opacity="0.9116" d="M978.2 858.6C977.9 858.7 979.2 858.8 979.4 858.8C982 859.2 984.7 859.4 987.3 859.7C993.6 860.3 1000 860.8 1006.3 859.5C1018.1 857 1039 848.5 1056.8 819.2" stroke="#161616" stroke-width="8" stroke-miterlimit="10" stroke-linecap="round" stroke-linejoin="round"/>
<path fill-rule="evenodd" clip-rule="evenodd" d="M930.9 461.4C923.8 437.4 931.8 404.1 938.2 386.6C965.5 312.1 1090.3 301.9 1107.5 416.2C1114.5 462.6 1099 515.5 1079 560.5C1054 616.8 990.6 617.7 951.3 544.3C939.1 521.6 930.9 484.5 930.9 461.4Z" fill="#F7F2EE"/>
<path d="M930.9 461.4C923.8 437.4 931.8 404.1 938.2 386.6C965.5 312.1 1090.3 301.9 1107.5 416.2C1114.5 462.6 1099 515.5 1079 560.5C1054 616.8 990.6 617.7 951.3 544.3C939.1 521.6 930.9 484.5 930.9 461.4Z" stroke="black" stroke-width="8" stroke-miterlimit="10" stroke-linecap="round" stroke-linejoin="round"/>
<path fill-rule="evenodd" clip-rule="evenodd" d="M912.3 442.7C904.4 445.9 898.2 468.9 903.1 487.6C908.1 506.9 916.4 526.9 926 543.1C946.7 578.1 946.1 583.6 961.4 613.8C980.9 652.3 986.3 689.8 986.9 693C990.9 713.2 1009.3 753.1 1007 670.9C1005.5 617.8 948.6 545.8 941.3 527C915.4 459.9 930.2 435.5 912.3 442.7Z" fill="#F7F2EE"/>
<path d="M912.3 442.7C904.4 445.9 898.2 468.9 903.1 487.6C908.1 506.9 916.4 526.9 926 543.1C946.7 578.1 946.1 583.6 961.4 613.8C980.9 652.3 986.3 689.8 986.9 693C990.9 713.2 1009.3 753.1 1007 670.9C1005.5 617.8 948.6 545.8 941.3 527C915.4 459.9 930.2 435.5 912.3 442.7Z" stroke="black" stroke-width="8" stroke-miterlimit="10" stroke-linecap="round" stroke-linejoin="round"/>
<path fill-rule="evenodd" clip-rule="evenodd" d="M945.8 577.8C937.3 559.3 966.2 666 952.3 699C938.6 731.6 926.9 765.9 903.2 792.7C871.3 828.8 833.2 842.8 854.7 879.9C913 980.5 996.9 841.4 1000 767.5C1002.3 712.9 989.7 672.6 945.8 577.8Z" fill="#FF5FA0"/>
<path d="M945.8 577.8C937.3 559.3 966.2 666 952.3 699C938.6 731.6 926.9 765.9 903.2 792.7C871.3 828.8 833.2 842.8 854.7 879.9C913 980.5 996.9 841.4 1000 767.5C1002.3 712.9 989.7 672.6 945.8 577.8Z" stroke="black" stroke-width="8" stroke-miterlimit="10" stroke-linecap="round" stroke-linejoin="round"/>
<path fill-rule="evenodd" clip-rule="evenodd" d="M1078.2 610.4C1079 607.6 1070.6 593.7 1070 590.6C1068.1 580.6 1085.9 555.5 1096.7 518.4C1108.4 478.4 1103 421.1 1130.9 427.8C1155.2 433.6 1117.7 523.4 1095.5 582.5C1089.4 598.7 1141.8 709.9 1132.1 719.8C1113 739.2 1079.2 623.6 1078.2 610.4Z" fill="#F7F2EE"/>
<path d="M1078.2 610.4C1079 607.6 1070.6 593.7 1070 590.6C1068.1 580.6 1085.9 555.5 1096.7 518.4C1108.4 478.4 1103 421.1 1130.9 427.8C1155.2 433.6 1117.7 523.4 1095.5 582.5C1089.4 598.7 1141.8 709.9 1132.1 719.8C1113 739.2 1079.2 623.6 1078.2 610.4Z" stroke="black" stroke-width="8" stroke-miterlimit="10" stroke-linecap="round" stroke-linejoin="round"/>
<path fill-rule="evenodd" clip-rule="evenodd" d="M1063.8 587.9C1064.2 587.9 1102.4 651.8 1134.4 687.2C1170.8 727.4 1204.6 791.8 1209 805.2C1232.7 876.6 1197.1 901.1 1170.6 906.6C1163.1 908.2 1175.4 913.3 1155.5 881.9C1133.7 847.4 1105 755.3 1100.8 706.9C1097.6 669.5 1055.3 575.1 1063.8 587.9Z" fill="#FF5FA0"/>
<path d="M1063.8 587.9C1064.2 587.9 1102.4 651.8 1134.4 687.2C1170.8 727.4 1204.6 791.8 1209 805.2C1232.7 876.6 1197.1 901.1 1170.6 906.6C1163.1 908.2 1175.4 913.3 1155.5 881.9C1133.7 847.4 1105 755.3 1100.8 706.9C1097.6 669.5 1055.3 575.1 1063.8 587.9Z" stroke="black" stroke-width="8" stroke-miterlimit="10" stroke-linecap="round" stroke-linejoin="round"/>
<path d="M991 441C988.1 432.6 981.4 429.8 974.5 429.6C969.4 429.4 963.2 433.2 957.8 436.9" stroke="black" stroke-width="8" stroke-miterlimit="10" stroke-linecap="round" stroke-linejoin="round"/>
<path d="M967 430.3C966.9 430.3 966.5 429.4 966.5 429.3C966 428.1 965.8 426.8 965.7 425.5C965.3 421.2 966.4 416.9 968.6 413.1" stroke="#161616" stroke-width="4" stroke-miterlimit="10" stroke-linecap="round" stroke-linejoin="round"/>
<path d="M959.3 432.7C958.6 432 957.9 431.1 957.4 430.3C955.8 427.9 954.7 425.1 954.5 422.3" stroke="#161616" stroke-width="4" stroke-miterlimit="10" stroke-linecap="round" stroke-linejoin="round"/>
<path d="M1025 440.3C1031.6 419.2 1054.2 426.5 1065.3 437.1" stroke="black" stroke-width="8" stroke-miterlimit="10" stroke-linecap="round" stroke-linejoin="round"/>
<path d="M1056.5 427.9C1057 426.9 1060.7 424.1 1059.7 415.8" stroke="#161616" stroke-width="4" stroke-miterlimit="10" stroke-linecap="round" stroke-linejoin="round"/>
<path d="M1062.6 433.4C1062.6 433.4 1067.8 427.4 1070.2 423.8" stroke="#161616" stroke-width="4" stroke-miterlimit="10" stroke-linecap="round" stroke-linejoin="round"/>
<path d="M1021 509.7C1005.9 496.7 1001.5 516 1001.2 517.5C998.9 529.5 1000 546.6 1009 556.7C1011.4 559.4 1014.9 561.6 1019.1 561.1C1041.9 558.8 1028.3 519.9 1021 509.7Z" stroke="black" stroke-width="8" stroke-miterlimit="10" stroke-linecap="round" stroke-linejoin="round"/>
<path d="M243.6 556.2C245.6 575.6 246.5 499.3 246.8 497.5C252.7 466.2 239.1 443.8 209.1 430.8C188.6 422 138.4 432 149.6 457.5C161.7 485.1 208.7 436.9 219.1 463.4C230.1 491.2 205.2 534.3 243.6 556.2Z" stroke="black" stroke-width="8" stroke-miterlimit="10" stroke-linecap="round" stroke-linejoin="round"/>
<path fill-rule="evenodd" clip-rule="evenodd" d="M301 420.3C303.1 421.7 296.2 421.5 294 422.7C290.4 424.6 287.3 427.2 284.2 429.9C274.6 438.3 266.4 448.5 260.8 459.9C244 493.8 238.6 543.8 252.5 580.1C270.1 626.1 395.5 618.2 430.4 595.9C497.5 552.9 429.1 378.1 312.8 412.1" fill="#F7F2EE"/>
<path d="M301 420.3C303.1 421.7 296.2 421.5 294 422.7C290.4 424.6 287.3 427.2 284.2 429.9C274.6 438.3 266.4 448.5 260.8 459.9C244 493.8 238.6 543.8 252.5 580.1C270.1 626.1 395.5 618.2 430.4 595.9C497.5 552.9 429.1 378.1 312.8 412.1" stroke="black" stroke-width="8" stroke-miterlimit="10" stroke-linecap="round" stroke-linejoin="round"/>
<path fill-rule="evenodd" clip-rule="evenodd" d="M291.7 320.8C291.9 320.8 296.5 320.9 291.7 320.8C281.9 320.6 265.1 316.3 257.5 322.7C237.4 339.8 233.3 385.6 250.5 405.1C285.9 445.3 413.4 463.4 437.2 445.3C456.1 431 459.6 397.3 455.3 385C449.8 369.4 427 365.5 430 353.4C431.2 348.6 426.5 326.9 413.9 325.2C405.9 324.1 403.7 339.7 385.3 334.9C375.7 332.4 350.4 322.1 338.8 319C325.2 315.3 328.6 309.8 319.3 303.6C308.1 296.1 293.9 313.9 291.7 320.8Z" fill="#F7F2EE"/>
<path d="M291.7 320.8C291.9 320.8 296.5 320.9 291.7 320.8C281.9 320.6 265.1 316.3 257.5 322.7C237.4 339.8 233.3 385.6 250.5 405.1C285.9 445.3 413.4 463.4 437.2 445.3C456.1 431 459.6 397.3 455.3 385C449.8 369.4 427 365.5 430 353.4C431.2 348.6 426.5 326.9 413.9 325.2C405.9 324.1 403.7 339.7 385.3 334.9C375.7 332.4 350.4 322.1 338.8 319C325.2 315.3 328.6 309.8 319.3 303.6C308.1 296.1 293.9 313.9 291.7 320.8Z" stroke="black" stroke-width="8" stroke-miterlimit="10" stroke-linecap="round" stroke-linejoin="round"/>
<path d="M322.2 339.4C322 339.5 324.4 338.2 324.9 337.9C326.6 337.1 328.5 336.5 330.3 336.3C335.7 335.9 340.5 339.9 343.4 344.1" stroke="black" stroke-width="4" stroke-miterlimit="10" stroke-linecap="round" stroke-linejoin="round"/>
<path d="M372.6 355.3C373.5 356 373.6 353.3 374.4 352.6C381.7 345.5 390.2 354.8 393.6 361.3" stroke="black" stroke-width="4" stroke-miterlimit="10" stroke-linecap="round" stroke-linejoin="round"/>
<path d="M351 358.6C350.7 359 343.9 358.6 342.3 360.5C340.8 362.3 342.4 365.5 343.4 367.2C345.8 371.3 354 376 358.6 372.7C363.7 369.1 359.4 357.6 352.9 358.6" stroke="black" stroke-width="4" stroke-miterlimit="10" stroke-linecap="round" stroke-linejoin="round"/>
<path d="M344.2 718.2C356.9 729.2 368.1 741.5 379.5 754.4" stroke="#161616" stroke-width="4" stroke-miterlimit="10" stroke-linecap="round" stroke-linejoin="round"/>
<path d="M385.9 808.3C383.8 810.6 401.6 833.2 403 835.2" stroke="#161616" stroke-width="4" stroke-miterlimit="10" stroke-linecap="round" stroke-linejoin="round"/>
<path d="M302.2 847.2C299.3 855 323.7 889.3 327.2 895.9" stroke="#161616" stroke-width="4" stroke-miterlimit="10" stroke-linecap="round" stroke-linejoin="round"/>
<path d="M143.9 634.7C142.7 636.1 149.1 645.9 149.7 647.1" stroke="#161616" stroke-width="4" stroke-miterlimit="10" stroke-linecap="round" stroke-linejoin="round"/>
<path d="M170.2 744C171.7 765.2 188.8 791.3 196.6 810.7" stroke="#161616" stroke-width="4" stroke-miterlimit="10" stroke-linecap="round" stroke-linejoin="round"/>
<path d="M153 524.7C152.1 531.9 208.9 608.1 217.2 621" stroke="#161616" stroke-width="4" stroke-miterlimit="10" stroke-linecap="round" stroke-linejoin="round"/>
<path fill-rule="evenodd" clip-rule="evenodd" d="M486.9 570.7C402 596.1 189 651.1 193.6 661C198.8 672.3 227.1 830.5 237.8 833C246.1 835 330.8 785.6 339.2 781.6C403.5 750.6 470.4 724.8 537.8 701.6C553.2 696.3 636.9 677.3 636.5 655.9C636.1 640.2 583 554 571.6 547.5C562.6 542.4 497.5 567.5 486.9 570.7Z" fill="#F7F2EE"/>
<path d="M486.9 570.7C402 596.1 189 651.1 193.6 661C198.8 672.3 227.1 830.5 237.8 833C246.1 835 330.8 785.6 339.2 781.6C403.5 750.6 470.4 724.8 537.8 701.6C553.2 696.3 636.9 677.3 636.5 655.9C636.1 640.2 583 554 571.6 547.5C562.6 542.4 497.5 567.5 486.9 570.7Z" stroke="#161616" stroke-width="8" stroke-miterlimit="10" stroke-linecap="round" stroke-linejoin="round"/>
<path fill-rule="evenodd" clip-rule="evenodd" d="M216 753C306.6 709.7 572.9 624.5 606.2 605.7C617.6 608.4 647.7 650.2 646.5 665.8C624.9 681.4 306.2 791.2 235.3 832.9C220.9 792.1 221.9 757.5 216 753Z" fill="#69D2C2"/>
<path d="M216 753C306.6 709.7 572.9 624.5 606.2 605.7C617.6 608.4 647.7 650.2 646.5 665.8C624.9 681.4 306.2 791.2 235.3 832.9C220.9 792.1 221.9 757.5 216 753Z" stroke="#161616" stroke-width="8" stroke-miterlimit="10" stroke-linecap="round" stroke-linejoin="round"/>
<path opacity="0.9116" d="M237.1 767.3C236.7 768.1 238.5 766.3 239.3 765.9C242.1 764.5 244.8 763.1 247.6 761.8C254.8 758.4 262 755 269.3 751.6C292.9 740.7 316.5 729.6 341 721C343.8 720 361.1 712.1 363.9 715.2C364.5 715.9 362.2 717.5 361.9 717.8C352.3 725.2 340.5 730.4 329.7 735.7C320.7 740.2 311.7 744.6 302.8 749.2C297.1 752.1 226.1 791.2 272.4 778.8" stroke="#161616" stroke-width="4" stroke-miterlimit="10" stroke-linecap="round" stroke-linejoin="round"/>
<path opacity="0.9116" d="M299.8 772C299.6 771.7 309.7 766.5 310.5 766.2C317.7 762.5 325.1 759 332.4 755.5" stroke="#161616" stroke-width="4" stroke-miterlimit="10" stroke-linecap="round" stroke-linejoin="round"/>
<path opacity="0.9116" d="M264.3 802.8C264.1 802.3 266.5 800.9 266.8 800.8" stroke="#161616" stroke-width="4" stroke-miterlimit="10" stroke-linecap="round" stroke-linejoin="round"/>
<path opacity="0.9116" d="M342.2 764C340.8 764.5 345 762.9 346.5 762.3C349.2 761.2 351.8 760.1 354.4 758.9C363.1 755.1 371.9 751.3 380.5 747.3C395.7 740.3 456 715.9 461.3 700.3C462.1 697.8 459.6 696.9 457.6 696.7C451.5 696.1 444.8 697.1 437.9 698.9C424.8 702.4 411.2 708.9 400.5 713" stroke="#161616" stroke-width="4" stroke-miterlimit="10" stroke-linecap="round" stroke-linejoin="round"/>
<path opacity="0.9116" d="M369.7 725.3C369.2 726.4 371.8 724.3 372.8 723.8C374.9 722.8 377.1 721.9 379.2 720.9" stroke="#161616" stroke-width="4" stroke-miterlimit="10" stroke-linecap="round" stroke-linejoin="round"/>
<path opacity="0.9116" d="M462 680.6C464.7 676.6 498.7 665.9 504.3 663.8" stroke="#161616" stroke-width="4" stroke-miterlimit="10" stroke-linecap="round" stroke-linejoin="round"/>
<path opacity="0.9116" d="M490.6 686.8C510 683.8 528.8 668.9 547.9 663.5C555.7 661.3 578.4 657.9 561.7 669.2C556.6 672.6 551.1 675.2 545.5 677.5" stroke="#161616" stroke-width="4" stroke-miterlimit="10" stroke-linecap="round" stroke-linejoin="round"/>
<path opacity="0.9116" d="M524 694.2C525.2 693.1 520.9 694.9 519.5 695.4C515.7 696.7 511.9 698.1 508.1 699.4" stroke="#161616" stroke-width="4" stroke-miterlimit="10" stroke-linecap="round" stroke-linejoin="round"/>
<path opacity="0.9116" d="M481.8 712.8C480.6 712.7 479.2 713.6 478.2 714" stroke="#161616" stroke-width="4" stroke-miterlimit="10" stroke-linecap="round" stroke-linejoin="round"/>
<path opacity="0.9116" d="M566.7 646.3C564.5 646.7 570.6 644 572.7 643C578.7 640 585 637.3 591.3 634.9" stroke="#161616" stroke-width="4" stroke-miterlimit="10" stroke-linecap="round" stroke-linejoin="round"/>
<path opacity="0.9116" d="M618.6 643.3C620.5 643.4 615.2 644.9 613.5 645.8C610.1 647.7 606.7 649.6 603.4 651.7C597.1 655.7 579.7 669.6 597.9 667.9" stroke="#161616" stroke-width="4" stroke-miterlimit="10" stroke-linecap="round" stroke-linejoin="round"/>
<path d="M223.7 651.7C223.7 650.4 227.2 669.6 228.6 673C231.4 680 230.2 678.3 232.9 685.3" stroke="#161616" stroke-width="8" stroke-miterlimit="10" stroke-linecap="round" stroke-linejoin="round"/>
<path d="M257 646C258 644.9 257.8 648.8 258.4 650.2C259.6 653.1 260.7 656 261.8 658.9C264.9 667.1 282.2 711.6 285.6 719.7" stroke="#161616" stroke-width="8" stroke-miterlimit="10" stroke-linecap="round" stroke-linejoin="round"/>
<path d="M287.4 638.3C294.2 649.9 293.2 647.6 298.1 660.1" stroke="#161616" stroke-width="8" stroke-miterlimit="10" stroke-linecap="round" stroke-linejoin="round"/>
<path d="M329.4 620.3C329.2 619.3 334.6 631.4 337.6 639.1" stroke="#161616" stroke-width="8" stroke-miterlimit="10" stroke-linecap="round" stroke-linejoin="round"/>
<path d="M390.8 600.4C391.1 600.4 399.1 621 402.7 630.4" stroke="#161616" stroke-width="8" stroke-miterlimit="10" stroke-linecap="round" stroke-linejoin="round"/>
<path d="M431.4 589.1C438.4 606.3 454.3 640.8 457 650" stroke="#161616" stroke-width="8" stroke-miterlimit="10" stroke-linecap="round" stroke-linejoin="round"/>
<path d="M473.4 575.9C473.9 576.2 485.7 593.4 486.7 596.4" stroke="#161616" stroke-width="8" stroke-miterlimit="10" stroke-linecap="round" stroke-linejoin="round"/>
<path d="M515 561.9C517.8 571 525.7 570.9 528.1 579.9" stroke="#161616" stroke-width="8" stroke-miterlimit="10" stroke-linecap="round" stroke-linejoin="round"/>
<path d="M551.6 553.3C553.7 562.7 576.6 596.7 578.7 606.2" stroke="#161616" stroke-width="8" stroke-miterlimit="10" stroke-linecap="round" stroke-linejoin="round"/>
<path opacity="0.9116" fill-rule="evenodd" clip-rule="evenodd" d="M306 709.2C303.2 699.2 286.9 674.4 287.1 666.5C287.1 664.3 310.2 653.5 313 654.7C318.6 657 335.2 699.1 332 703.2C329.6 706.3 319.1 706.5 315.5 707.4" fill="black"/>
<path d="M306 709.2C303.2 699.2 286.9 674.4 287.1 666.5C287.1 664.3 310.2 653.5 313 654.7C318.6 657 335.2 699.1 332 703.2C329.6 706.3 319.1 706.5 315.5 707.4" stroke="#161616" stroke-width="8" stroke-miterlimit="10" stroke-linecap="round" stroke-linejoin="round"/>
<path opacity="0.9116" fill-rule="evenodd" clip-rule="evenodd" d="M240.8 737.3C238 727.3 221.7 702.5 221.9 694.6C221.9 692.4 245 681.6 247.8 682.8C253.4 685.1 270 727.2 266.8 731.3C264.4 734.4 253.9 734.6 250.3 735.5" fill="black"/>
<path d="M240.8 737.3C238 727.3 221.7 702.5 221.9 694.6C221.9 692.4 245 681.6 247.8 682.8C253.4 685.1 270 727.2 266.8 731.3C264.4 734.4 253.9 734.6 250.3 735.5" stroke="#161616" stroke-width="8" stroke-miterlimit="10" stroke-linecap="round" stroke-linejoin="round"/>
<path opacity="0.9116" fill-rule="evenodd" clip-rule="evenodd" d="M351.2 692.9C351.1 693 348.1 687.1 348 686.8C345.8 682.4 343.6 678.1 341.4 673.8C332 654.7 319.3 644.3 345.9 637.7C351.9 636.2 355.1 642.9 357.3 647.3C359.1 651.1 374.8 684.6 373.4 687.3C372.3 689.3 368.2 690.1 366.3 690.7" fill="black"/>
<path d="M351.2 692.9C351.1 693 348.1 687.1 348 686.8C345.8 682.4 343.6 678.1 341.4 673.8C332 654.7 319.3 644.3 345.9 637.7C351.9 636.2 355.1 642.9 357.3 647.3C359.1 651.1 374.8 684.6 373.4 687.3C372.3 689.3 368.2 690.1 366.3 690.7" stroke="#161616" stroke-width="8" stroke-miterlimit="10" stroke-linecap="round" stroke-linejoin="round"/>
<path opacity="0.9116" fill-rule="evenodd" clip-rule="evenodd" d="M421.6 667.5C421.6 667.5 407.3 667.5 407.1 667.2C404.7 663.7 402.4 660.1 400 656.6C397.4 652.8 378.5 627.6 383.5 624.4C389.4 620.6 407.8 614.1 413.9 618.7C420.3 623.5 431.2 653.6 428.5 661.3C427.5 664.3 424.3 666.2 421.6 667.5Z" fill="black"/>
<path d="M421.6 667.5C421.6 667.5 407.3 667.5 407.1 667.2C404.7 663.7 402.4 660.1 400 656.6C397.4 652.8 378.5 627.6 383.5 624.4C389.4 620.6 407.8 614.1 413.9 618.7C420.3 623.5 431.2 653.6 428.5 661.3C427.5 664.3 424.3 666.2 421.6 667.5Z" stroke="#161616" stroke-width="8" stroke-miterlimit="10" stroke-linecap="round" stroke-linejoin="round"/>
<path opacity="0.9116" fill-rule="evenodd" clip-rule="evenodd" d="M508.6 634.1C507.6 637.1 493.9 636.4 492.1 639.4C490 643 481.4 637.7 484.6 635.1C487.5 632.7 478.2 618 477.6 608C477.2 601.7 491.8 592.6 497.5 597.2C503.5 602 511.1 626.3 508.6 634.1Z" fill="black"/>
<path d="M508.6 634.1C507.6 637.1 493.9 636.4 492.1 639.4C490 643 481.4 637.7 484.6 635.1C487.5 632.7 478.2 618 477.6 608C477.2 601.7 491.8 592.6 497.5 597.2C503.5 602 511.1 626.3 508.6 634.1Z" stroke="#161616" stroke-width="8" stroke-miterlimit="10" stroke-linecap="round" stroke-linejoin="round"/>
<path opacity="0.9116" fill-rule="evenodd" clip-rule="evenodd" d="M550.1 618.9C549.1 621.9 535.4 621.2 533.6 624.2C531.5 627.8 522.9 622.5 526.1 619.9C529 617.5 519.7 602.8 519.1 592.8C518.7 586.5 533.3 577.4 539 582C545 586.8 552.6 611.2 550.1 618.9Z" fill="black"/>
<path d="M550.1 618.9C549.1 621.9 535.4 621.2 533.6 624.2C531.5 627.8 522.9 622.5 526.1 619.9C529 617.5 519.7 602.8 519.1 592.8C518.7 586.5 533.3 577.4 539 582C545 586.8 552.6 611.2 550.1 618.9Z" stroke="#161616" stroke-width="8" stroke-miterlimit="10" stroke-linecap="round" stroke-linejoin="round"/>
<path d="M351.8 374.2C342.6 374.4 331 364.9 328.3 363.5C315.6 356.9 300.4 359 293.8 376.1C288.8 389.2 298.1 402.7 308.2 410.4C324.2 422.6 345.5 420.6 364.4 425.6C394.1 433.3 407.3 409.6 406.3 396.5C405.1 380.2 376.4 373.8 351.8 374.2Z" stroke="black" stroke-width="4" stroke-miterlimit="10" stroke-linecap="round" stroke-linejoin="round"/>
<path d="M311.9 412C311.7 412.3 312.1 411.3 312.3 411C312.6 410.4 313.1 409.9 313.5 409.4C314.9 407.6 316.7 406.1 318.4 404.8C323.9 400.6 330.5 397.6 337.5 397.5C347.8 397.3 359.3 403.7 364.2 412.9C365.4 415.2 367.7 423.5 364.9 425.7" stroke="black" stroke-width="4" stroke-miterlimit="10" stroke-linecap="round" stroke-linejoin="round"/>
<path fill-rule="evenodd" clip-rule="evenodd" d="M295.5 590C302.7 597 310.1 646.7 331.9 630.6C349.9 617.3 340.4 569 327.2 553.9" fill="#F7F2EE"/>
<path d="M295.5 590C302.7 597 310.1 646.7 331.9 630.6C349.9 617.3 340.4 569 327.2 553.9" stroke="black" stroke-width="8" stroke-miterlimit="10" stroke-linecap="round" stroke-linejoin="round"/>
<path fill-rule="evenodd" clip-rule="evenodd" d="M374.6 549C370.3 561.5 361.5 617.3 381.5 625.1C400.6 632.6 401.5 602 414.9 585.2" fill="#F7F2EE"/>
<path d="M374.6 549C370.3 561.5 361.5 617.3 381.5 625.1C400.6 632.6 401.5 602 414.9 585.2" stroke="black" stroke-width="8" stroke-miterlimit="10" stroke-linecap="round" stroke-linejoin="round"/>
<path d="M318.1 524.8C293.6 465.6 392.6 458.6 378.2 529.3" stroke="#161616" stroke-width="4" stroke-miterlimit="10" stroke-linecap="round" stroke-linejoin="round"/>
<path opacity="0.9116" fill-rule="evenodd" clip-rule="evenodd" d="M253.9 479.3C253.1 478.6 255.7 480.4 256.5 481.1C257.8 482.2 259 483.4 260.4 484.5C262.7 486.4 277.7 497.1 280.1 494.9C283.8 491.5 263.7 472 265.1 469.7C266.7 467 285.2 483.2 287.2 480.8C290.1 477.2 271.2 463 271.6 458.2C271.7 457.3 273.7 458.1 274 458.3C278.7 459.9 295.9 468.3 287.2 457.1C286.2 455.8 285 454.5 283.8 453.3C282.2 451.6 272.7 443 271.1 441.3" fill="black"/>
<path d="M253.9 479.3C253.1 478.6 255.7 480.4 256.5 481.1C257.8 482.2 259 483.4 260.4 484.5C262.7 486.4 277.7 497.1 280.1 494.9C283.8 491.5 263.7 472 265.1 469.7C266.7 467 285.2 483.2 287.2 480.8C290.1 477.2 271.2 463 271.6 458.2C271.7 457.3 273.7 458.1 274 458.3C278.7 459.9 295.9 468.3 287.2 457.1C286.2 455.8 285 454.5 283.8 453.3C282.2 451.6 272.7 443 271.1 441.3" stroke="#161616" stroke-width="4" stroke-miterlimit="10" stroke-linecap="round" stroke-linejoin="round"/>
<path opacity="0.9116" fill-rule="evenodd" clip-rule="evenodd" d="M430.1 460.9C428.8 465.5 405.7 472.4 407.3 481C408.2 485.6 429.8 473.3 431.7 476.3C433.1 478.5 421.1 491.8 421.6 496.4C421.8 498.4 433.7 492.4 435.2 493.1C435.3 493.2 435.4 493.3 435.4 493.4C435.7 495.2 427.6 510.5 434.1 508.4C436.9 507.5 447.8 496.4 450.2 494.9" fill="black"/>
<path d="M430.1 460.9C428.8 465.5 405.7 472.4 407.3 481C408.2 485.6 429.8 473.3 431.7 476.3C433.1 478.5 421.1 491.8 421.6 496.4C421.8 498.4 433.7 492.4 435.2 493.1C435.3 493.2 435.4 493.3 435.4 493.4C435.7 495.2 427.6 510.5 434.1 508.4C436.9 507.5 447.8 496.4 450.2 494.9" stroke="#161616" stroke-width="4" stroke-miterlimit="10" stroke-linecap="round" stroke-linejoin="round"/>
<path d="M876.6 958.4C761.8 1087.4 850.2 1287.5 766.8 1368.8" stroke="black" stroke-width="8" stroke-miterlimit="10" stroke-linecap="round" stroke-linejoin="round"/>
<path d="M1120.4 979.9C1120.1 981.7 1110.8 1067.7 1130 1108.9C1161.5 1176.4 1293.8 1289 1316.8 1353.2" stroke="black" stroke-width="8" stroke-miterlimit="10" stroke-linecap="round" stroke-linejoin="round"/>
<path d="M911.1 517.9C913.8 519.5 903.4 545.3 902.1 548.6C893.6 570.4 880.9 607.4 900.3 627C913.1 640 926 626.4 931 613.9C938.2 595.7 942.1 564.8 926.8 548C926.4 547.5 926 551.6 926 551.9C925.8 555.1 925.6 558.3 925.5 561.5C925.2 567 923.9 599.2 912.9 595.9C898.3 591.5 913.7 538.8 913.7 525.8" stroke="#161616" stroke-width="4" stroke-miterlimit="10" stroke-linecap="round" stroke-linejoin="round"/>
<path d="M1111.3 545.5C1111 544.1 1111.9 548.3 1112.3 549.8C1112.9 552.5 1113.6 555.2 1114.4 557.8C1117 565.7 1120.4 573.4 1124.4 580.6C1134.8 599.5 1162.9 617.1 1180.7 596C1186.6 589.1 1188.3 579 1186.6 570.3C1180.8 540.8 1152.8 529.4 1125.9 526.6C1124.1 526.4 1117.3 524.7 1115.7 525.8C1113.2 527.5 1120.4 543.2 1121 544.8C1130.3 566.5 1160.7 554.9 1142.1 540.7C1136.6 536.5 1130.7 534 1124.1 531.8" stroke="#161616" stroke-width="4" stroke-miterlimit="10" stroke-linecap="round" stroke-linejoin="round"/>
<path opacity="0.9116" d="M1122.6 550.4C1122.6 550.3 1122.7 550.7 1122.7 550.7C1122.7 552 1122.4 553.2 1122.3 554.5C1121.9 557.2 1121.7 560 1121.4 562.7" stroke="#161616" stroke-width="4" stroke-miterlimit="10" stroke-linecap="round" stroke-linejoin="round"/>
<path d="M1123.5 553.2C1123.6 553.1 1123.2 554.1 1123.2 554.4C1123 555.6 1122.8 556.9 1122.7 558.1C1122.2 561.7 1121.7 565.3 1121.4 569" stroke="#161616" stroke-width="4" stroke-miterlimit="10" stroke-linecap="round" stroke-linejoin="round"/>
<path d="M1130.3 557.5C1130.3 564.8 1132.5 588.8 1135.3 595" stroke="#161616" stroke-width="4" stroke-miterlimit="10" stroke-linecap="round" stroke-linejoin="round"/>
<path d="M1137.5 559.4C1137.3 559.5 1139.1 563.4 1139.3 563.6C1140.5 566.3 1141.6 569 1142.7 571.7C1147.3 582.5 1152.2 598.1 1162.2 605.3" stroke="#161616" stroke-width="4" stroke-miterlimit="10" stroke-linecap="round" stroke-linejoin="round"/>
<path d="M1143.8 556.9C1143.5 557.6 1149.9 564.6 1151.8 567.2C1157.7 574.9 1163.9 582.4 1170.6 589.4C1173 591.9 1176.9 595.9 1180.9 595.2" stroke="#161616" stroke-width="4" stroke-miterlimit="10" stroke-linecap="round" stroke-linejoin="round"/>
<path d="M1150.3 552.8C1150 552.9 1154.6 554.7 1155.1 554.9C1158.2 556.3 1161.1 557.9 1164 559.6C1173.2 565.1 1181.2 571.8 1186.1 581.5" stroke="#161616" stroke-width="4" stroke-miterlimit="10" stroke-linecap="round" stroke-linejoin="round"/>
<path d="M1144.7 543.7C1144.4 544.4 1146.2 543.3 1146.9 543.2C1148.6 542.9 1150.4 542.7 1152.1 542.6C1157.2 542.3 1164.9 541.3 1169.4 544.2" stroke="#161616" stroke-width="4" stroke-miterlimit="10" stroke-linecap="round" stroke-linejoin="round"/>
<path d="M1138.2 535.8C1137.3 535.9 1139.8 535.2 1140.1 535.1C1141.7 534.5 1143.4 534 1145.1 533.6" stroke="#161616" stroke-width="4" stroke-miterlimit="10" stroke-linecap="round" stroke-linejoin="round"/>
<path d="M906.4 557.2C902.4 559.6 898.2 566.1 895.5 569.8" stroke="#161616" stroke-width="4" stroke-miterlimit="10" stroke-linecap="round" stroke-linejoin="round"/>
<path d="M906 574.1C906.6 573.3 904.8 575.7 904.2 576.5C903.2 577.8 902.3 579.1 901.4 580.4C898.4 584.8 895.6 589.4 893 594" stroke="#161616" stroke-width="4" stroke-miterlimit="10" stroke-linecap="round" stroke-linejoin="round"/>
<path d="M906.2 591.3C905.9 591.1 905.2 592.6 905.2 592.7C901.6 600 898.7 607.8 896.5 615.6" stroke="#161616" stroke-width="4" stroke-miterlimit="10" stroke-linecap="round" stroke-linejoin="round"/>
<path d="M910.6 597.3C910.5 597.3 910.5 597.6 910.5 597.7C909.4 606 910.3 622.6 909.3 630.9" stroke="#161616" stroke-width="4" stroke-miterlimit="10" stroke-linecap="round" stroke-linejoin="round"/>
<path d="M916.5 597.3C917 596.9 916.9 598.6 917.1 599.2C917.7 601.1 918.1 603.2 918.4 605.2C919.3 610.8 919.4 621.2 919.2 626.9" stroke="#161616" stroke-width="4" stroke-miterlimit="10" stroke-linecap="round" stroke-linejoin="round"/>
<path d="M924 585.5L924.1 585.7C926.2 590.8 929 605.5 930.3 610.8" stroke="#161616" stroke-width="4" stroke-miterlimit="10" stroke-linecap="round" stroke-linejoin="round"/>
<path d="M925.8 573C925.8 573 929.5 574.7 929.8 574.9C932.7 576.5 934.9 578.1 936.5 581" stroke="#161616" stroke-width="4" stroke-miterlimit="10" stroke-linecap="round" stroke-linejoin="round"/>
<path d="M1004.8 547.4C1003.1 551 1009.2 557.2 1012 558.1C1021.2 561.2 1024.2 564.1 1029.7 552.9C1038.7 535 1004.8 531.8 1004.8 547.4Z" stroke="black" stroke-width="4" stroke-miterlimit="10" stroke-linecap="round" stroke-linejoin="round"/>
<path d="M1009.3 461.5C1004.1 467.7 994.9 479.8 1007.9 481.1" stroke="#161616" stroke-width="4" stroke-miterlimit="10" stroke-linecap="round" stroke-linejoin="round"/>
<path d="M495.9 799.1C495.6 796.5 486.2 797.5 523.8 848.5C601.7 954.4 685.5 1054.6 768.6 1156.3" stroke="#161616" stroke-width="4" stroke-miterlimit="10" stroke-linecap="round" stroke-linejoin="round"/>
<path d="M523.1 949.5C522.6 948.7 528.1 952.9 528.6 953.5C535.3 961 541.4 969.2 547.7 977C561.1 993.8 573.7 1011 586.4 1028.4C636.6 1097.4 686.2 1167.2 730.9 1239.9" stroke="#161616" stroke-width="4" stroke-miterlimit="10" stroke-linecap="round" stroke-linejoin="round"/>
<path d="M383.5 882.5C466.3 1011.6 621.8 1246.5 700 1378.6" stroke="#161616" stroke-width="4" stroke-miterlimit="10" stroke-linecap="round" stroke-linejoin="round"/>
<path d="M351.5 936.9C380.1 987.9 414.4 1037.8 444.7 1088.1" stroke="#161616" stroke-width="4" stroke-miterlimit="10" stroke-linecap="round" stroke-linejoin="round"/>
<path d="M305 986C304.6 983.9 307.2 988.1 307.4 988.4C327.7 1018.7 345.8 1050.8 364.2 1082.2C366.2 1085.6 368.1 1089 370.1 1092.3C408.7 1157.9 448.9 1222.6 487.2 1288.5" stroke="#161616" stroke-width="4" stroke-miterlimit="10" stroke-linecap="round" stroke-linejoin="round"/>
<path d="M517.4 1230.8C516.4 1231.2 531.1 1257.9 531.8 1259.3C543.1 1280.3 555.3 1300.8 567.4 1321.4" stroke="#161616" stroke-width="4" stroke-miterlimit="10" stroke-linecap="round" stroke-linejoin="round"/>
<path d="M113 727.9C149.6 822.2 247.1 997 282.7 1077.3" stroke="#161616" stroke-width="4" stroke-miterlimit="10" stroke-linecap="round" stroke-linejoin="round"/>
<path d="M320.8 1131.8C320.2 1132 326.6 1143.5 326.8 1144C340.4 1167.4 352.6 1191.7 365.5 1215.5" stroke="#161616" stroke-width="4" stroke-miterlimit="10" stroke-linecap="round" stroke-linejoin="round"/>
<path d="M405.4 1293.1C406.1 1289.3 408.6 1300.2 410.4 1303.6C422.2 1326.6 434.8 1349.3 446.9 1372.1" stroke="#161616" stroke-width="4" stroke-miterlimit="10" stroke-linecap="round" stroke-linejoin="round"/>
<path d="M152.2 1004.2C138.8 982.2 189.5 1078.8 190.4 1080.4" stroke="#161616" stroke-width="4" stroke-miterlimit="10" stroke-linecap="round" stroke-linejoin="round"/>
<path d="M251.1 1183.6C265.9 1213.4 294.2 1267.7 309.8 1297.1" stroke="#161616" stroke-width="4" stroke-miterlimit="10" stroke-linecap="round" stroke-linejoin="round"/>
<path fill-rule="evenodd" clip-rule="evenodd" d="M1191.9 317.8C1191.7 317 1189 317.7 1188.6 317.9C1183.3 319.5 1172 332.6 1180.4 336.6C1192 342 1200.1 324.8 1193.6 317" fill="#69D2C2"/>
<path d="M1191.9 317.8C1191.7 317 1189 317.7 1188.6 317.9C1183.3 319.5 1172 332.6 1180.4 336.6C1192 342 1200.1 324.8 1193.6 317" stroke="#161616" stroke-width="4" stroke-miterlimit="10" stroke-linecap="round" stroke-linejoin="round"/>
<path d="M1205.7 274.4C1204.6 272.9 1205.5 278.2 1205.3 280C1204.8 283.9 1204.3 287.7 1203.6 291.5C1201.8 302.9 1199.6 314.4 1196.2 325.5" stroke="#161616" stroke-width="4" stroke-miterlimit="10" stroke-linecap="round" stroke-linejoin="round"/>
<path d="M1281.9 265.8C1281.6 266 1283.8 254.7 1284 253.6C1284.6 250.6 1290.5 223.2 1290.1 222.8C1288.8 221.2 1288.1 226.6 1286.8 228.2C1282.3 233.8 1274.6 238.3 1267.9 234.8C1260.2 230.7 1272.1 218.9 1272.5 228.6C1272.6 231.4 1271.5 234.7 1268.7 235.2" stroke="#161616" stroke-width="4" stroke-miterlimit="10" stroke-linecap="round" stroke-linejoin="round"/>
<path d="M548.6 770.5C550.5 780.1 584.7 820.6 592.9 828.8" stroke="black" stroke-width="4" stroke-miterlimit="10" stroke-linecap="round" stroke-linejoin="round"/>
<path d="M640.9 900.3C651 913.4 726.7 1007.1 732.3 1007.1" stroke="black" stroke-width="4" stroke-miterlimit="10" stroke-linecap="round" stroke-linejoin="round"/>
<path d="M596.4 735.5C596.7 733.6 598.9 735.8 600.4 736.8C609.4 742.8 618.2 757.4 625.5 765.7C654.2 798.5 682.6 831.1 709.7 864.9C717.8 875 741.2 906.5 741.1 906.3" stroke="black" stroke-width="4" stroke-miterlimit="10" stroke-linecap="round" stroke-linejoin="round"/>
<path d="M688.2 740.4C686 738 659.4 710.5 659.4 710.5C659.4 710.5 740.8 796.6 764.6 819.8C771.7 826.8 792.5 843.5 786 843.6" stroke="black" stroke-width="4" stroke-miterlimit="10" stroke-linecap="round" stroke-linejoin="round"/>
<path d="M268.8 346.7C268.7 346.7 268.5 345.1 268.5 345C266.7 338.8 263.7 333.2 260.6 327.6C251.3 311.4 239.5 297 226.9 283.3" stroke="black" stroke-width="4" stroke-miterlimit="10" stroke-linecap="round" stroke-linejoin="round"/>
<path d="M258.5 364.2C243.8 344.9 215.4 337.2 198.9 333.1" stroke="black" stroke-width="4" stroke-miterlimit="10" stroke-linecap="round" stroke-linejoin="round"/>
<path d="M256.9 380.8C249.4 374.3 228.9 380.4 220.7 381.8" stroke="black" stroke-width="4" stroke-miterlimit="10" stroke-linecap="round" stroke-linejoin="round"/>
<path d="M430.8 383.4C430.8 383.5 436.4 380.6 439.2 379.2C445 376.4 451 374.3 457.2 372.5C475.6 367.1 498.4 362.6 516.7 370.5" stroke="black" stroke-width="4" stroke-miterlimit="10" stroke-linecap="round" stroke-linejoin="round"/>
<path d="M437.4 400.3C436.5 400.9 442.6 400.4 443.2 400.4C447.5 400.3 451.8 400.6 456.1 401.3C468 403.3 479.8 407.9 490.6 413.3" stroke="black" stroke-width="4" stroke-miterlimit="10" stroke-linecap="round" stroke-linejoin="round"/>
<path d="M430.3 417.9C429.7 419.4 433.5 418.7 435 419.3C439.3 421.3 442.9 424.3 446.2 427.6C457.2 438.4 468.4 450.2 475.3 464.1" stroke="black" stroke-width="4" stroke-miterlimit="10" stroke-linecap="round" stroke-linejoin="round"/>
<path opacity="0.9116" fill-rule="evenodd" clip-rule="evenodd" d="M907.8 963.9C899.3 962.5 886.8 986 885.8 987.7C875.7 1005.1 868.5 1025.3 862.4 1044.4C842.7 1106.1 839.5 1166.7 832.9 1230.9C832.4 1236.1 825.7 1255.5 833.3 1256C866 1257.8 855.1 1118.2 867.5 1069.6C876.8 1033 876.7 1025.4 907.8 963.9Z" fill="black"/>
<path d="M907.8 963.9C899.3 962.5 886.8 986 885.8 987.7C875.7 1005.1 868.5 1025.3 862.4 1044.4C842.7 1106.1 839.5 1166.7 832.9 1230.9C832.4 1236.1 825.7 1255.5 833.3 1256C866 1257.8 855.1 1118.2 867.5 1069.6C876.8 1033 876.7 1025.4 907.8 963.9Z" stroke="#161616" stroke-width="4" stroke-miterlimit="10" stroke-linecap="round" stroke-linejoin="round"/>
<path opacity="0.9116" fill-rule="evenodd" clip-rule="evenodd" d="M923.2 973.9C919.1 974.7 901.9 1038.8 873.8 1231.8C873.4 1234.8 867.5 1260.1 862.6 1270.8C846.9 1305.3 820.5 1347.4 838.3 1353.4C899.4 1373.8 908.7 1096.7 914.2 1057.2C917.6 1031.8 931.9 972.3 923.2 973.9Z" fill="black"/>
<path d="M923.2 973.9C919.1 974.7 901.9 1038.8 873.8 1231.8C873.4 1234.8 867.5 1260.1 862.6 1270.8C846.9 1305.3 820.5 1347.4 838.3 1353.4C899.4 1373.8 908.7 1096.7 914.2 1057.2C917.6 1031.8 931.9 972.3 923.2 973.9Z" stroke="#161616" stroke-width="4" stroke-miterlimit="10" stroke-linecap="round" stroke-linejoin="round"/>
<path opacity="0.9116" fill-rule="evenodd" clip-rule="evenodd" d="M950.2 965.5C948.5 966.5 949.3 983.8 949.2 985.7C945.9 1036.2 919.1 1160.7 926 1185.5C930.2 1200.4 952.9 1090.5 955.7 1058.6C957.1 1044 958.3 961.1 950.2 965.5Z" fill="black"/>
<path d="M950.2 965.5C948.5 966.5 949.3 983.8 949.2 985.7C945.9 1036.2 919.1 1160.7 926 1185.5C930.2 1200.4 952.9 1090.5 955.7 1058.6C957.1 1044 958.3 961.1 950.2 965.5Z" stroke="#161616" stroke-width="4" stroke-miterlimit="10" stroke-linecap="round" stroke-linejoin="round"/>
<path opacity="0.9116" fill-rule="evenodd" clip-rule="evenodd" d="M985.2 965C982 965.6 982.2 982.2 981.8 985.5C980.3 998.6 977.3 1083.1 969.7 1121.1C961.9 1160.8 892.1 1358.7 919.1 1363C974 1371.8 991.1 1100.9 992.1 1054.4C992.3 1049.5 999.6 958.3 985.2 965Z" fill="black"/>
<path d="M985.2 965C982 965.6 982.2 982.2 981.8 985.5C980.3 998.6 977.3 1083.1 969.7 1121.1C961.9 1160.8 892.1 1358.7 919.1 1363C974 1371.8 991.1 1100.9 992.1 1054.4C992.3 1049.5 999.6 958.3 985.2 965Z" stroke="#161616" stroke-width="4" stroke-miterlimit="10" stroke-linecap="round" stroke-linejoin="round"/>
<path opacity="0.9116" fill-rule="evenodd" clip-rule="evenodd" d="M1016.1 971.3C1013.2 972.6 1012.7 1012.4 1012 1033.9C1010.4 1082.7 1006.2 1131.3 1001.6 1179.9C1000.2 1194.9 996.2 1323.3 1017.1 1270.4C1020.4 1262 1021.9 1253 1023.3 1244.1C1027.2 1219 1027.7 1193.5 1027.7 1168.2C1027.7 1144.5 1027.2 1017.3 1025.6 993.7C1022.8 951.8 1017.8 959.9 1016.1 971.3Z" fill="black"/>
<path d="M1016.1 971.3C1013.2 972.6 1012.7 1012.4 1012 1033.9C1010.4 1082.7 1006.2 1131.3 1001.6 1179.9C1000.2 1194.9 996.2 1323.3 1017.1 1270.4C1020.4 1262 1021.9 1253 1023.3 1244.1C1027.2 1219 1027.7 1193.5 1027.7 1168.2C1027.7 1144.5 1027.2 1017.3 1025.6 993.7C1022.8 951.8 1017.8 959.9 1016.1 971.3Z" stroke="#161616" stroke-width="4" stroke-miterlimit="10" stroke-linecap="round" stroke-linejoin="round"/>
<path opacity="0.9116" fill-rule="evenodd" clip-rule="evenodd" d="M1049.6 973.4C1046.7 970 1047 975.6 1048.3 989.7C1057.7 1091 1020.8 1238 1065.4 1354.9C1068.1 1362 1076.8 1387.5 1087.3 1383.5C1115.6 1372.8 1078.7 1253.1 1068.6 1206.1C1059.9 1165.5 1072.6 1000.1 1049.6 973.4Z" fill="black"/>
<path d="M1049.6 973.4C1046.7 970 1047 975.6 1048.3 989.7C1057.7 1091 1020.8 1238 1065.4 1354.9C1068.1 1362 1076.8 1387.5 1087.3 1383.5C1115.6 1372.8 1078.7 1253.1 1068.6 1206.1C1059.9 1165.5 1072.6 1000.1 1049.6 973.4Z" stroke="#161616" stroke-width="4" stroke-miterlimit="10" stroke-linecap="round" stroke-linejoin="round"/>
<path opacity="0.9116" fill-rule="evenodd" clip-rule="evenodd" d="M1087.8 984.2C1086.6 985.1 1080.7 1021.1 1082.1 1063.4C1086.1 1185.8 1143.4 1381.2 1179.5 1345.2C1202.9 1321.9 1137 1234.1 1134.4 1230.1C1072.6 1137 1108.9 1028.1 1087.8 984.2Z" fill="black"/>
<path d="M1087.8 984.2C1086.6 985.1 1080.7 1021.1 1082.1 1063.4C1086.1 1185.8 1143.4 1381.2 1179.5 1345.2C1202.9 1321.9 1137 1234.1 1134.4 1230.1C1072.6 1137 1108.9 1028.1 1087.8 984.2Z" stroke="#161616" stroke-width="4" stroke-miterlimit="10" stroke-linecap="round" stroke-linejoin="round"/>
<path opacity="0.9116" d="M365.7 329.4C368.1 275.2 401.4 256.2 450.2 266.6" stroke="#161616" stroke-width="4" stroke-miterlimit="10" stroke-linecap="round" stroke-linejoin="round"/>
<path opacity="0.9116" d="M453.8 271.6C454.1 271.9 453.5 270.7 453.1 270.6C440.6 268.3 434.6 283 437.1 288.6C439.5 294.1 450.9 291.7 454.6 289.8C459.9 287 463.9 278.7 469.8 276.9C472 276.2 477.5 278.3 476.7 276.2C474 269.3 452 276 449.6 269.2C446 259.3 445.7 247.1 456 245.2C467.5 243.1 469.2 270 477.7 276.1" stroke="#161616" stroke-width="4" stroke-miterlimit="10" stroke-linecap="round" stroke-linejoin="round"/>
<path opacity="0.9116" d="M451.6 280.2C435 275.1 427.7 299 438.6 303.6C455.5 310.8 469.2 287.4 479.8 278.7" stroke="#161616" stroke-width="4" stroke-miterlimit="10" stroke-linecap="round" stroke-linejoin="round"/>
<path opacity="0.9116" d="M458.3 260.2C447 257.6 443.8 234.5 463.2 235.2C479.3 235.8 480.4 263.8 481.8 276.3" stroke="#161616" stroke-width="4" stroke-miterlimit="10" stroke-linecap="round" stroke-linejoin="round"/>
<path opacity="0.9116" fill-rule="evenodd" clip-rule="evenodd" d="M1160.8 1203C1135.3 1179.4 1162.5 1216.1 1163.6 1217.7C1179.5 1241.6 1235.3 1355.1 1252.1 1347.1C1260.5 1343.1 1246 1310.2 1243 1304.8C1225.8 1273.8 1192.9 1224.4 1162.4 1204.1" fill="black"/>
<path d="M1160.8 1203C1135.3 1179.4 1162.5 1216.1 1163.6 1217.7C1179.5 1241.6 1235.3 1355.1 1252.1 1347.1C1260.5 1343.1 1246 1310.2 1243 1304.8C1225.8 1273.8 1192.9 1224.4 1162.4 1204.1" stroke="#161616" stroke-width="4" stroke-miterlimit="10" stroke-linecap="round" stroke-linejoin="round"/>
</svg>
