<svg width="1500" height="1500" viewBox="0 0 1500 1500" fill="none" xmlns="http://www.w3.org/2000/svg">
<rect width="1500" height="1500" fill="#F7F2EE"/>
<path fill-rule="evenodd" clip-rule="evenodd" d="M758.401 382.7C754.501 379.2 683.701 380.2 679.601 381.1C554.901 410 470.401 499.8 403.501 599.6C322.101 721.1 263.001 949.8 383.301 1066.7C440.001 1121.8 521.701 1149.9 596.101 1178.6C692.301 1215.7 812.701 1245.5 918.001 1228.2C948.901 1223.1 958.101 1332 982.401 1314.2C1167.2 1178.8 1185.3 934.3 1171.8 773.2C1161.9 655.8 1088.3 530.3 989.401 453.4C920.301 399.8 839.001 369.9 758.401 382.7Z" fill="#00B497"/>
<path opacity="0.9116" d="M758.401 382.7C754.501 379.2 683.701 380.2 679.601 381.1C554.901 410 470.401 499.8 403.501 599.6C322.101 721.1 263.001 949.8 383.301 1066.7C440.001 1121.8 521.701 1149.9 596.101 1178.6C692.301 1215.7 812.701 1245.5 918.001 1228.2C948.901 1223.1 958.101 1332 982.401 1314.2C1167.2 1178.8 1185.3 934.3 1171.8 773.2C1161.9 655.8 1088.3 530.3 989.401 453.4C920.301 399.8 839.001 369.9 758.401 382.7Z" stroke="#161616" stroke-width="8" stroke-miterlimit="10" stroke-linecap="round" stroke-linejoin="round"/>
<path fill-rule="evenodd" clip-rule="evenodd" d="M858.901 166.5C858.701 167.7 851.201 167.8 850.501 167.9C833.601 169.2 815.101 171.4 801.001 181.3C769.501 203.2 749.401 250.3 736.901 285C721.801 327 705.201 389.8 731.401 430.7C743.101 448.9 763.001 460.9 781.501 471.4C923.401 551.7 1095 265 972.901 184.7C947.301 167.8 914.601 157.7 883.801 162.7" fill="#F7F2EE"/>
<path opacity="0.9116" d="M858.901 166.5C858.701 167.7 851.201 167.8 850.501 167.9C833.601 169.2 815.101 171.4 801.001 181.3C769.501 203.2 749.401 250.3 736.901 285C721.801 327 705.201 389.8 731.401 430.7C743.101 448.9 763.001 460.9 781.501 471.4C923.401 551.7 1095 265 972.901 184.7C947.301 167.8 914.601 157.7 883.801 162.7" stroke="#161616" stroke-width="8" stroke-miterlimit="10" stroke-linecap="round" stroke-linejoin="round"/>
<path fill-rule="evenodd" clip-rule="evenodd" d="M1034.9 170C1029.4 165.6 1027 126.3 977.7 98.3999C940.4 77.2999 896.6 83.3001 868.5 93.3001C840.9 103 824.2 119.8 813.8 124.5C774.1 142.2 754 64.4001 749.5 87.8001C730.5 188.5 809 254.3 921.9 248.7C943.8 247.6 959.2 250.3 976.2 250.3C988.4 250.3 983.6 351 1006.4 343.1C1098.7 311.2 1097.3 175.2 1034.9 170Z" fill="#161616"/>
<path opacity="0.9116" d="M1034.9 170C1029.4 165.6 1027 126.3 977.7 98.3999C940.4 77.2999 896.6 83.3001 868.5 93.3001C840.9 103 824.2 119.8 813.8 124.5C774.1 142.2 754 64.4001 749.5 87.8001C730.5 188.5 809 254.3 921.9 248.7C943.8 247.6 959.2 250.3 976.2 250.3C988.4 250.3 983.6 351 1006.4 343.1C1098.7 311.2 1097.3 175.2 1034.9 170Z" stroke="#161616" stroke-width="8" stroke-miterlimit="10" stroke-linecap="round" stroke-linejoin="round"/>
<path opacity="0.9116" d="M1019.6 173.1C1017.2 158.3 1006.1 142.8 996 132.2C949.7 83.8998 895.8 126.1 844.4 136.8C821.4 141.6 775.9 143.6 768 114" stroke="#F7F2EE" stroke-width="4" stroke-miterlimit="10" stroke-linecap="round" stroke-linejoin="round"/>
<path opacity="0.9116" d="M1009.4 195.7C1009.3 195.7 1007.5 190.5 1007.4 190.2C998.8 169.6 984.501 147.2 961.301 141C905.401 126 863.201 181.8 796.801 144.8C783.901 137.6 771.601 126.4 766.601 112.3" stroke="#F7F2EE" stroke-width="4" stroke-miterlimit="10" stroke-linecap="round" stroke-linejoin="round"/>
<path opacity="0.9116" d="M990.4 215.9C990.4 216.4 989.6 215 989.5 214.9C984.9 208.7 978.5 204.3 971.7 200.7C956.5 192.5 940.5 186.7 922.9 186.3C901.5 185.8 880.4 190.4 859 189.8C813.4 188.6 772.5 156.1 763.4 111.3" stroke="#F7F2EE" stroke-width="4" stroke-miterlimit="10" stroke-linecap="round" stroke-linejoin="round"/>
<path opacity="0.9116" d="M968.4 226.4C970.5 223.8 962.201 224 959.001 222.9C951.401 220.4 943.3 219.2 935.4 218C913.1 214.4 890.4 213.5 867.9 211.7C812.3 207.4 748.901 160.6 756.101 99.3" stroke="#F7F2EE" stroke-width="4" stroke-miterlimit="10" stroke-linecap="round" stroke-linejoin="round"/>
<path opacity="0.9116" d="M990.4 234.4C990.3 231.9 994.2 237.6 995.8 239.5C1001.5 245.7 1005.6 253.4 1008.9 261.1C1017.8 281.5 1014.8 305.6 1004.5 325" stroke="#F7F2EE" stroke-width="4" stroke-miterlimit="10" stroke-linecap="round" stroke-linejoin="round"/>
<path opacity="0.9116" d="M1009.6 216.1C1038.4 255.3 1046.8 277.1 1015.7 320.9" stroke="#F7F2EE" stroke-width="4" stroke-miterlimit="10" stroke-linecap="round" stroke-linejoin="round"/>
<path opacity="0.9116" d="M1033.4 200C1032.9 200.3 1035.4 201.2 1035.7 201.4C1046.7 208.4 1052.4 223.9 1055.4 235.6C1062.4 262.4 1052.6 284.1 1034.8 304.2" stroke="#F7F2EE" stroke-width="4" stroke-miterlimit="10" stroke-linecap="round" stroke-linejoin="round"/>
<path opacity="0.9116" d="M786.9 320.3C785.4 319.8 790.4 310.2 790.7 309.6C796.7 298.7 813.8 276.4 823.3 296.4C825.8 301.8 826.3 307.3 826 313.1C825.7 318.3 824.6 323.9 822.2 328.7" stroke="#161616" stroke-width="8" stroke-miterlimit="10" stroke-linecap="round" stroke-linejoin="round"/>
<path opacity="0.9116" d="M879.801 353.7C879.201 354.4 880.501 349.7 880.601 349.4C881.901 346.1 883.701 343.1 885.801 340.3C891.901 331.9 902.901 319.1 914.801 321.8C934.301 326.2 922.901 359.3 918.001 370.7" stroke="#161616" stroke-width="8" stroke-miterlimit="10" stroke-linecap="round" stroke-linejoin="round"/>
<path opacity="0.9116" d="M843.2 359C844.1 362.7 840 366.6 837.5 368.7" stroke="#161616" stroke-width="8" stroke-miterlimit="10" stroke-linecap="round" stroke-linejoin="round"/>
<path opacity="0.9116" d="M798.1 391.4C774.9 443.6 824.7 444.1 839.1 409.5" stroke="#161616" stroke-width="8" stroke-miterlimit="10" stroke-linecap="round" stroke-linejoin="round"/>
<path opacity="0.9116" d="M777.001 263.7C776.901 263.6 774.901 267.8 774.501 268.7C772.401 273.2 770.501 277.8 768.701 282.3C764.201 293.7 757.501 309 760.601 321.4C764.901 338.9 810.401 353.1 826.201 346.7C840.501 340.9 856.5 298.7 849.9 282.1C846.3 273.1 800.801 262.9 781.201 260.6C778.801 260.5 778.901 264 777.001 263.7Z" stroke="#161616" stroke-width="8" stroke-miterlimit="10" stroke-linecap="round" stroke-linejoin="round"/>
<path opacity="0.9116" d="M850.901 313C850.001 313.4 852.801 313.2 853.701 313.4C855.201 313.8 856.801 314.3 858.301 314.7C863.101 316 868.101 317.5 872.801 319" stroke="#161616" stroke-width="4" stroke-miterlimit="10" stroke-linecap="round" stroke-linejoin="round"/>
<path opacity="0.9116" d="M902.7 292.1C902.8 292 902.401 292 902.301 292C899.501 291.7 897.1 293.7 895.2 295.5C891.2 299.2 887.9 303.5 884.7 307.9C876.1 319.9 863.4 341.5 864 357C864.5 369.6 926.9 395.5 939.4 392C956.2 387.2 975.3 342 964.9 327.1C953 310.1 922 297.1 902.7 292.1Z" stroke="#161616" stroke-width="8" stroke-miterlimit="10" stroke-linecap="round" stroke-linejoin="round"/>
<path opacity="0.9116" d="M967.9 353.4C972.5 358.1 987.9 363 992.2 363" stroke="#161616" stroke-width="4" stroke-miterlimit="10" stroke-linecap="round" stroke-linejoin="round"/>
<path opacity="0.9116" d="M751.5 265.2C751 268.5 765.1 276.4 768.2 278.2" stroke="#161616" stroke-width="4" stroke-miterlimit="10" stroke-linecap="round" stroke-linejoin="round"/>
<path opacity="0.9116" d="M861.901 392.9C861.701 402.2 865.301 417 865.601 427.8" stroke="#161616" stroke-width="4" stroke-miterlimit="10" stroke-linecap="round" stroke-linejoin="round"/>
<path opacity="0.9116" d="M746.2 394.6C745.8 394.7 745.9 394.5 746.2 394.2C749.3 390.4 753.3 387.4 757.2 384.4C765.2 378.3 773.7 372.6 782.9 368.5" stroke="#161616" stroke-width="4" stroke-miterlimit="10" stroke-linecap="round" stroke-linejoin="round"/>
<path opacity="0.9116" d="M862 264.7C861.9 264.7 862.3 264.7 862.3 264.7C865.2 265.3 868.1 266.1 871 266.8C876.8 268.1 882.5 269.7 888.2 271.3C905.3 276.1 922.1 282.1 937.8 290.5" stroke="#161616" stroke-width="4" stroke-miterlimit="10" stroke-linecap="round" stroke-linejoin="round"/>
<path opacity="0.9116" d="M899.701 253.4C898.201 252.8 902.501 254.9 904.001 255.6C907.201 256.9 910.501 258.3 913.701 259.5C923.501 263.1 933.401 266.5 943.201 269.7" stroke="#161616" stroke-width="4" stroke-miterlimit="10" stroke-linecap="round" stroke-linejoin="round"/>
<path opacity="0.9116" d="M745.001 257.7C745.901 259 745.601 254.6 745.801 253.1C746.301 248.5 746.401 243.9 746.001 239.3C745.101 227.5 737.501 204.8 721.101 214.5C702.201 225.7 697.401 298.8 726.001 301.4" stroke="#161616" stroke-width="8" stroke-miterlimit="10" stroke-linecap="round" stroke-linejoin="round"/>
<path opacity="0.9116" d="M996.6 350.1C1007 341.4 1039.9 331.2 1045.4 347.7C1054.2 374.4 1009 407.5 974.7 399.6" stroke="#161616" stroke-width="8" stroke-miterlimit="10" stroke-linecap="round" stroke-linejoin="round"/>
<path fill-rule="evenodd" clip-rule="evenodd" d="M358.801 356.3C359.701 359.7 351.801 354.9 348.301 354.5C340.101 353.6 283.801 306 251.401 388.1C240.401 415.9 281.001 460.2 269.901 487.1C257.801 516.4 215.7 506.5 214.1 551.7C213.1 579.9 247.3 600.9 241.6 628.1C238.2 644.2 209.601 655.8 199.501 667.4C172.601 698.4 265.601 738.5 243 768C146.5 893.9 277.8 936.1 330.1 948.1C363.1 955.7 398.301 851.7 432.801 858.7C469.401 866.2 493.5 832.8 525.1 822.4C557 811.9 584.801 837.5 616.101 829.3C671.401 814.8 673.101 739.4 700.301 700.3C725.601 664.1 822.201 604.4 823.301 550.5C824.101 512 729.1 557.1 715 526.1C702.4 498.4 739.2 467.9 717.2 440.4C691.8 408.7 653.9 434.9 625.2 415.7C600 398.8 621.301 355.4 593.101 341.6C568.901 329.7 524.2 363.1 502.6 348.6C489 339.5 477.701 302.8 466.5 291.5C416.5 241.1 356.401 309.9 358.801 356.3Z" fill="#161616"/>
<path opacity="0.9116" d="M358.801 356.3C359.701 359.7 351.801 354.9 348.301 354.5C340.101 353.6 283.801 306 251.401 388.1C240.401 415.9 281.001 460.2 269.901 487.1C257.801 516.4 215.7 506.5 214.1 551.7C213.1 579.9 247.3 600.9 241.6 628.1C238.2 644.2 209.601 655.8 199.501 667.4C172.601 698.4 265.601 738.5 243 768C146.5 893.9 277.8 936.1 330.1 948.1C363.1 955.7 398.301 851.7 432.801 858.7C469.401 866.2 493.5 832.8 525.1 822.4C557 811.9 584.801 837.5 616.101 829.3C671.401 814.8 673.101 739.4 700.301 700.3C725.601 664.1 822.201 604.4 823.301 550.5C824.101 512 729.1 557.1 715 526.1C702.4 498.4 739.2 467.9 717.2 440.4C691.8 408.7 653.9 434.9 625.2 415.7C600 398.8 621.301 355.4 593.101 341.6C568.901 329.7 524.2 363.1 502.6 348.6C489 339.5 477.7 302.8 466.5 291.5C416.5 241.1 356.401 309.9 358.801 356.3Z" stroke="#161616" stroke-width="8" stroke-miterlimit="10" stroke-linecap="round" stroke-linejoin="round"/>
<path opacity="0.9116" d="M368.8 376.7C366.3 380 369.1 368.5 369.9 364.5C371.5 356.6 373.8 348.9 376.7 341.4C385.8 317.8 407.4 281.8 437.6 301.3C465.7 319.5 456.7 365.8 487.6 381.7C520.5 398.6 545.6 361.3 576.2 367.1C602.1 372 600.2 423.6 618.2 439.6C639.4 458.5 678.6 437.9 694.7 462.9C713 491.3 675.9 529.8 686.6 549.3" stroke="#F7F2EE" stroke-width="4" stroke-miterlimit="10" stroke-linecap="round" stroke-linejoin="round"/>
<path opacity="0.9116" d="M417.101 398.9C412.101 399.9 400.001 356.6 413.801 357.2C434.201 358.2 450.501 394.2 470.801 402C499.501 413 528.701 389.6 555.301 400.1C582.501 410.7 581.701 445.9 593.301 467.7C605.401 490.4 645.001 477.3 633.701 514.2C629.301 528.6 618.9 539.7 606.9 548.5" stroke="#F7F2EE" stroke-width="4" stroke-miterlimit="10" stroke-linecap="round" stroke-linejoin="round"/>
<path opacity="0.9116" d="M348.8 649.4C348.3 647.1 349.1 654.2 349.6 656.5C350.7 660.8 352.1 665.1 353.7 669.3C358.4 681.2 362.9 694.4 370.2 705" stroke="#F7F2EE" stroke-width="4" stroke-miterlimit="10" stroke-linecap="round" stroke-linejoin="round"/>
<path opacity="0.9116" d="M360.601 383.4C355.201 383.2 349.801 378 343.001 378.4C275.001 382.3 304.801 455.4 298.601 495.2C294.301 522.7 250.401 521.3 244.701 548.3C240.201 569.7 266.601 598.6 266.201 620.3C265.701 642.1 243.301 666.4 247.701 688C251.701 707.9 291.501 724.3 287.201 744.6C275.201 801.5 204.301 833 296.401 898.3" stroke="#F7F2EE" stroke-width="4" stroke-miterlimit="10" stroke-linecap="round" stroke-linejoin="round"/>
<path opacity="0.9116" d="M376.6 407.1C373.3 407.2 370.2 405.5 366.4 406.2C344.4 410.3 327.4 435.5 325.1 456.1C323.2 472.6 328.2 488.9 323.1 505.2C314.5 533.2 284.5 540.2 277.5 563.8C271.4 584.5 304.3 613.1 309.2 631.8C316.4 659.3 297.8 675.5 309.2 700.8C316.3 716.6 353.8 729.2 313.2 859.8" stroke="#F7F2EE" stroke-width="4" stroke-miterlimit="10" stroke-linecap="round" stroke-linejoin="round"/>
<path opacity="0.9116" d="M379.801 407.8C407.101 419.7 398.501 456.5 396.001 466.1" stroke="#F7F2EE" stroke-width="4" stroke-miterlimit="10" stroke-linecap="round" stroke-linejoin="round"/>
<path opacity="0.9116" d="M345.8 517.8C346.6 518.1 343.9 526.7 343.7 527.4C340.7 537.4 337 548.5 330.9 557" stroke="#161616" stroke-width="4" stroke-miterlimit="10" stroke-linecap="round" stroke-linejoin="round"/>
<path opacity="0.9116" d="M342.2 652.9C342.4 653.1 342.3 654.2 342.3 654.4C343.2 666.9 349.1 678.6 354.7 689.5" stroke="#161616" stroke-width="4" stroke-miterlimit="10" stroke-linecap="round" stroke-linejoin="round"/>
<path fill-rule="evenodd" clip-rule="evenodd" d="M548.101 568.8C498.301 592.5 395.9 683 389 691.9C340.3 755.1 323.301 822.5 313.801 855.2C284.601 956.3 310.501 1064.9 349.401 1148C381.401 1216.3 469 1311 495.1 1326.9C524.6 1344.8 701.4 1193.8 792.5 1126.6C864.701 1073.4 916.2 996.7 936.4 911.8C967 782.9 916.501 590.4 753.801 559.7C658.801 541.9 591.901 547.9 548.101 568.8Z" fill="#F7F2EE"/>
<path opacity="0.9116" d="M548.101 568.8C498.301 592.5 395.9 683 389 691.9C340.3 755.1 323.301 822.5 313.801 855.2C284.601 956.3 310.501 1064.9 349.401 1148C381.401 1216.3 469 1311 495.1 1326.9C524.6 1344.8 701.4 1193.8 792.5 1126.6C864.7 1073.4 916.2 996.7 936.4 911.8C967 782.9 916.501 590.4 753.801 559.7C658.801 541.9 591.901 547.9 548.101 568.8Z" stroke="#161616" stroke-width="8" stroke-miterlimit="10" stroke-linecap="round" stroke-linejoin="round"/>
<path opacity="0.9116" d="M416.8 695.2C416.1 694.3 406.5 709.2 406 710C395.5 727 385.2 744.2 375.6 761.8C367.7 776.3 297.3 906.6 319.7 915.3C334.6 921.1 384.9 805.9 409.8 753.3C415.6 740.9 421.7 728.6 427 715.9C427.8 714.1 435.3 698.2 435.4 698.6C441.2 715.7 368.9 923.5 362 965.3C360.1 977.1 354.2 1047.8 373 1050.5C389.1 1052.8 405.2 990.5 407.5 980.8C419.9 930.1 427.6 877.5 433.6 825.7C437.4 792.5 436 752.4 449.8 721.1C450.2 720.2 450.9 718.2 452 717.8C455.8 716.6 457.4 742.3 457.5 744.1C459.5 770.4 457.5 935.1 489.4 936.1C533.6 937.5 484.1 726.4 487.1 723.6C490.2 720.7 501.3 750.2 502 752C507.2 764.7 549.201 874.6 571.601 856.3C594.901 837.3 541.3 746.7 526.3 728.5C525.2 727.1 516.3 718.6 518.1 716.4C520.9 712.8 538.1 726.7 540 728.1C561.2 743.8 661.601 811.2 684.601 779.2C704.001 752.2 597.001 713 579.101 707.1C578.601 706.9 571.8 704.9 573.2 703.4C574.6 701.8 578.6 701.7 580.5 701.5C643.5 695.5 755.701 738.8 808.301 694.5C812.501 691 816.901 685.2 814.801 679.5C803.001 647 609.001 676.5 565.101 676.5C563.801 676.5 557.8 677.1 557 675.8C556.8 675.4 569.3 673.9 570 673.8C584 672.6 598 671.9 612 671.3C618.1 671 617.8 671.1 624 670.7C647.4 669.4 812.8 657.8 808 625.1C803 591 631.1 640.2 597.7 640.5C596.6 640.5 591.3 641.1 590.7 639.5C589.6 636.5 613.8 631.8 615.4 631.5C639.5 626.7 785.6 612.7 785.4 590.2C785.1 558.9 591.101 596.5 585.801 588.4C585.101 587.4 589.8 585.7 590.2 585.4C596.3 582.5 626.901 572.1 626.101 564.2" stroke="#161616" stroke-width="4" stroke-miterlimit="10" stroke-linecap="round" stroke-linejoin="round"/>
<path fill-rule="evenodd" clip-rule="evenodd" d="M522.301 434.3C523.201 435 522.301 432.1 522.401 431C523.201 420 532.101 405.8 545.001 411.3C561.401 418.3 577.901 464.3 561.401 478.3" fill="#F7F2EE"/>
<path opacity="0.9116" d="M522.301 434.3C523.201 435 522.301 432.1 522.401 431C523.201 420 532.101 405.8 545.001 411.3C561.401 418.3 577.901 464.3 561.401 478.3" stroke="#161616" stroke-width="8" stroke-miterlimit="10" stroke-linecap="round" stroke-linejoin="round"/>
<path fill-rule="evenodd" clip-rule="evenodd" d="M323.2 614.6C315.3 615.8 304.901 607.2 296.401 610.8C261.701 625.6 304.501 671.2 346.801 650.4" fill="#F7F2EE"/>
<path opacity="0.9116" d="M323.2 614.6C315.3 615.8 304.901 607.2 296.401 610.8C261.701 625.6 304.501 671.2 346.801 650.4" stroke="#161616" stroke-width="8" stroke-miterlimit="10" stroke-linecap="round" stroke-linejoin="round"/>
<path fill-rule="evenodd" clip-rule="evenodd" d="M408.1 395.6C428.3 409.4 440.8 477.8 411.4 476.8C359.2 475.2 362.5 529.2 351.6 560.3C345.4 578 314.3 561.5 312.6 575.7C309.5 601.7 335.3 635.5 346.3 646.2C366.1 665.5 399.5 680.5 415.8 689.6C480.3 725.3 523.4 700.3 539.3 692.1C599.8 660.9 602.7 507.3 517.4 434.2C493.5 413.6 418.2 395.4 408.1 395.6Z" fill="#F7F2EE"/>
<path opacity="0.9116" d="M408.1 395.6C428.3 409.4 440.8 477.8 411.4 476.8C359.2 475.2 362.5 529.2 351.6 560.3C345.4 578 314.3 561.5 312.6 575.7C309.5 601.7 335.3 635.5 346.3 646.2C366.1 665.5 399.5 680.5 415.8 689.6C480.3 725.3 523.4 700.3 539.3 692.1C599.8 660.9 602.7 507.3 517.4 434.2C493.5 413.6 418.2 395.4 408.1 395.6Z" stroke="#161616" stroke-width="8" stroke-miterlimit="10" stroke-linecap="round" stroke-linejoin="round"/>
<path fill-rule="evenodd" clip-rule="evenodd" d="M730.9 737.3C648.4 731.6 551.301 766.6 493.201 818.5C366.101 931.9 268.601 1124.1 432.501 1323.2C487.901 1390.5 619.401 1434.8 739.501 1409.4C916.201 1372.1 996.701 1307 1020.5 1276.9C1162.5 1097.6 1078 887.9 907.601 796C849.001 764.3 799.3 742 730.9 737.3Z" fill="#FF7276"/>
<path opacity="0.9116" d="M730.9 737.3C648.4 731.6 551.301 766.6 493.201 818.5C366.101 931.9 268.601 1124.1 432.501 1323.2C487.901 1390.5 619.401 1434.8 739.501 1409.4C916.201 1372.1 996.701 1307 1020.5 1276.9C1162.5 1097.6 1078 887.9 907.601 796C849.001 764.3 799.3 742 730.9 737.3Z" stroke="#161616" stroke-width="8" stroke-miterlimit="10" stroke-linecap="round" stroke-linejoin="round"/>
<path opacity="0.9116" d="M427.2 1306C427.5 1306.7 430.7 1305.9 431.1 1305.8C456.5 1300.1 482.8 1289.4 505.3 1276.7" stroke="#F7F2EE" stroke-width="8" stroke-miterlimit="10" stroke-linecap="round" stroke-linejoin="round"/>
<path opacity="0.9116" d="M387.601 1243.4C387.601 1244.7 420.301 1240.1 422.301 1239.8C441.901 1236.5 463.001 1233.8 481.501 1226.6" stroke="#F7F2EE" stroke-width="8" stroke-miterlimit="10" stroke-linecap="round" stroke-linejoin="round"/>
<path opacity="0.9116" d="M360 1171.4C362.3 1169.9 381.8 1175.1 385.2 1175.5C416.6 1178.9 446.1 1179.3 477 1173.2" stroke="#F7F2EE" stroke-width="8" stroke-miterlimit="10" stroke-linecap="round" stroke-linejoin="round"/>
<path opacity="0.9116" d="M354.101 1104.8C354.001 1104.6 354.101 1105 354.301 1105.1C357.901 1107.7 363.001 1108.9 367.101 1110.5C375.601 1113.7 384.301 1116.5 393.101 1119.2C420.501 1127.6 446.801 1132.6 475.401 1132.6" stroke="#F7F2EE" stroke-width="8" stroke-miterlimit="10" stroke-linecap="round" stroke-linejoin="round"/>
<path opacity="0.9116" d="M363.4 1029.3C362.9 1029.8 392.1 1045.9 394 1046.8C421.5 1060.3 451.5 1076.2 482.3 1080.2" stroke="#F7F2EE" stroke-width="8" stroke-miterlimit="10" stroke-linecap="round" stroke-linejoin="round"/>
<path opacity="0.9116" d="M445.8 993.6C444 991.5 449.4 997.8 451.3 999.7C454.9 1003.2 458.5 1006.6 462.2 1009.9C473.2 1019.8 485 1029.8 499.9 1033.1" stroke="#F7F2EE" stroke-width="8" stroke-miterlimit="10" stroke-linecap="round" stroke-linejoin="round"/>
<path opacity="0.9116" d="M482.7 835C483.2 832.8 490.9 844.6 494.2 848.5C504.5 861 515.1 873.2 526.2 885C559.6 920.7 595.5 957.6 641 978.3" stroke="#F7F2EE" stroke-width="8" stroke-miterlimit="10" stroke-linecap="round" stroke-linejoin="round"/>
<path opacity="0.9116" d="M594.9 762.3C595.5 761.8 609.901 784.8 619.801 796.3C621.301 798.1 621.301 798 622.801 799.8C647.501 828 672.901 855.9 699.801 882C776.501 956.3 878.501 982.5 984.301 995.7" stroke="#F7F2EE" stroke-width="8" stroke-miterlimit="10" stroke-linecap="round" stroke-linejoin="round"/>
<path opacity="0.9116" d="M888.601 1064.6C886.501 1065 892.801 1065.8 894.801 1066.4C899.801 1067.7 904.901 1068.6 910.001 1069.6C924.201 1072.4 938.5 1074.7 952.9 1076.1C995.5 1080.4 1043.3 1080.5 1084.7 1067.4" stroke="#F7F2EE" stroke-width="8" stroke-miterlimit="10" stroke-linecap="round" stroke-linejoin="round"/>
<path opacity="0.9116" d="M508.9 1038.4C508.6 1038.6 526.2 1046.1 527.5 1046.4" stroke="#F7F2EE" stroke-width="8" stroke-miterlimit="10" stroke-linecap="round" stroke-linejoin="round"/>
<path opacity="0.9116" d="M480.601 1122.8C480.501 1122.9 496.701 1133.3 497.701 1133.9C517.901 1144.9 543.2 1160.9 566.4 1163.7" stroke="#F7F2EE" stroke-width="8" stroke-miterlimit="10" stroke-linecap="round" stroke-linejoin="round"/>
<path opacity="0.9116" d="M1041.1 1147.4C1041.7 1145.7 1044.6 1148 1046.4 1148.1C1052.6 1148.4 1058.9 1148.3 1065.1 1147.7" stroke="#F7F2EE" stroke-width="8" stroke-miterlimit="10" stroke-linecap="round" stroke-linejoin="round"/>
<path opacity="0.9116" d="M1020.6 1189.9C1020 1195.5 1048.5 1205.4 1052.4 1206.8" stroke="#F7F2EE" stroke-width="8" stroke-miterlimit="10" stroke-linecap="round" stroke-linejoin="round"/>
<path opacity="0.9116" d="M984.101 1228.1V1228.2C985.501 1236.7 1010.6 1250 1017.1 1254.9" stroke="#F7F2EE" stroke-width="8" stroke-miterlimit="10" stroke-linecap="round" stroke-linejoin="round"/>
<path opacity="0.9116" d="M875.801 1129.9C883.201 1138.6 907.201 1142.7 918.001 1144.2" stroke="#F7F2EE" stroke-width="8" stroke-miterlimit="10" stroke-linecap="round" stroke-linejoin="round"/>
<path opacity="0.9116" d="M521.2 1291.2C524.7 1292.9 516.7 1285 514.7 1281.8C510.8 1275.3 507.8 1268.4 504.9 1261.4C498 1245.1 492.2 1228.4 487.5 1211.3C472.1 1155.5 471 1089.1 504.3 1039" stroke="#161616" stroke-width="8" stroke-miterlimit="10" stroke-linecap="round" stroke-linejoin="round"/>
<path fill-rule="evenodd" clip-rule="evenodd" d="M984.501 628C919.701 524.1 700.401 683.4 750.001 855.1C755.801 875.1 767.301 898.3 783.701 916.9C790.001 924 811.801 936.1 822.601 938.1C883.701 949.5 999.701 887.2 1031.3 844.5C1093.1 760.8 1086.3 690.9 984.501 628Z" fill="#F7F2EE"/>
<path opacity="0.9116" d="M984.501 628C919.701 524.1 700.401 683.4 750.001 855.1C755.801 875.1 767.301 898.3 783.701 916.9C790.001 924 811.801 936.1 822.601 938.1C883.701 949.5 999.701 887.2 1031.3 844.5C1093.1 760.8 1086.3 690.9 984.501 628Z" stroke="#161616" stroke-width="8" stroke-miterlimit="10" stroke-linecap="round" stroke-linejoin="round"/>
<path opacity="0.9116" d="M913.3 790.8C913.2 790.9 917.7 786.2 919.5 785.1C924.9 781.8 934 777 940.7 779.3C954 784.1 948.001 802.3 944.101 810.7" stroke="#161616" stroke-width="8" stroke-miterlimit="10" stroke-linecap="round" stroke-linejoin="round"/>
<path opacity="0.9116" d="M881.001 792.3C883.101 789.6 876.501 797.5 874.901 800.5C872.701 804.7 868.201 822.6 862.801 820.8" stroke="#161616" stroke-width="8" stroke-miterlimit="10" stroke-linecap="round" stroke-linejoin="round"/>
<path opacity="0.9116" d="M823 753.8C821.9 756.3 825.701 749 827.801 747.2C831.701 743.6 838.3 738.5 844 739.2C856.5 740.7 857.201 757.3 854.601 766.3" stroke="#161616" stroke-width="8" stroke-miterlimit="10" stroke-linecap="round" stroke-linejoin="round"/>
<path fill-rule="evenodd" clip-rule="evenodd" d="M898.3 900C929.7 924.3 931.3 863.6 935.2 853.7C955.8 802.3 982.6 827.7 997.2 809.5C1032.7 765.5 992.3 705.1 991.9 704.8C981 695.9 958.2 714 926.5 715.4C865.2 718.2 826.9 690.6 826.5 669.9C826.1 648.5 850.7 649.1 850.7 649.1C850.7 649.1 777.1 625.9 796.6 709.5C814.9 788 758.2 840.5 729.8 840.3C708.7 840.2 683.8 832.9 681.8 807.4C680.9 796.7 680.7 790.3 685 780C687.9 773 701.8 770.1 698.5 777.1C684.2 807.4 725.2 817.3 722.1 748.8C719.6 692.6 713.7 654.6 738.7 620C778.5 564.9 866.8 533.8 941.3 559.8C1012.8 584.7 1033.8 630.3 1035.8 671.2C1036.6 686.9 1042 668.6 1070.4 709.8C1096.8 748.1 1076.5 806.1 1049 852.3C1022.6 896.8 1000.2 909.1 962.3 924.6C926 939.5 874.7 930.8 872.3 902.4C870.9 886.7 884.9 874.4 894.9 871.5C905.2 868.5 914.4 876.9 911.7 877.7C900.2 880.9 889.6 893.3 898.3 900Z" fill="#161616"/>
<path opacity="0.9116" d="M898.3 900C929.7 924.3 931.3 863.6 935.2 853.7C955.8 802.3 982.6 827.7 997.2 809.5C1032.7 765.5 992.3 705.1 991.9 704.8C981 695.9 958.2 714 926.5 715.4C865.2 718.2 826.9 690.6 826.5 669.9C826.1 648.5 850.7 649.1 850.7 649.1C850.7 649.1 777.1 625.9 796.6 709.5C814.9 788 758.2 840.5 729.8 840.3C708.7 840.2 683.8 832.9 681.8 807.4C680.9 796.7 680.7 790.3 685 780C687.9 773 701.8 770.1 698.5 777.1C684.2 807.4 725.2 817.3 722.1 748.8C719.6 692.6 713.7 654.6 738.7 620C778.5 564.9 866.8 533.8 941.3 559.8C1012.8 584.7 1033.8 630.3 1035.8 671.2C1036.6 686.9 1042 668.6 1070.4 709.8C1096.8 748.1 1076.5 806.1 1049 852.3C1022.6 896.8 1000.2 909.1 962.3 924.6C926 939.5 874.7 930.8 872.3 902.4C870.9 886.7 884.9 874.4 894.9 871.5C905.2 868.5 914.4 876.9 911.7 877.7C900.2 880.9 889.6 893.3 898.3 900Z" stroke="#161616" stroke-width="8" stroke-miterlimit="10" stroke-linecap="round" stroke-linejoin="round"/>
<path opacity="0.9116" d="M817.801 825.4C845.501 862.2 874.501 855 875.001 855.4C875.201 855.6 874.901 856.2 874.801 856.4C872.901 860.4 851.9 893.2 831.9 893.4C796 893.8 810.601 848.9 817.801 825.4Z" stroke="#161616" stroke-width="8" stroke-miterlimit="10" stroke-linecap="round" stroke-linejoin="round"/>
<path opacity="0.9116" d="M1003.1 683.2C1001.1 675.7 1004.2 649.5 996.6 635.4C988.9 621 980.7 607.9 972.3 601C930.6 567 854.7 555.9 808.3 583.4C763.1 610.2 756.7 665.9 761.8 715.5C763.7 733.7 767.7 753.7 761.9 771.6C755.2 792.2 723.6 821.7 701.7 803.7" stroke="#F7F2EE" stroke-width="4" stroke-miterlimit="10" stroke-linecap="round" stroke-linejoin="round"/>
<path opacity="0.9116" d="M983.9 696.4C983.6 696.4 983.6 695.2 983.6 695C976.9 650.7 924.1 628.6 885.2 637.8" stroke="#F7F2EE" stroke-width="4" stroke-miterlimit="10" stroke-linecap="round" stroke-linejoin="round"/>
<path opacity="0.9116" d="M985.101 693C985.201 695.1 985.801 688.8 985.601 686.7C985.101 682.8 983.7 678.8 982.4 675.1C978.2 663.4 973.001 652.1 964.801 642.7C939.201 613.6 904.9 605.3 868 614.2" stroke="#F7F2EE" stroke-width="4" stroke-miterlimit="10" stroke-linecap="round" stroke-linejoin="round"/>
<path opacity="0.9116" d="M811.5 634.4C811.9 633.4 790.4 644.6 786.9 660.1C778.1 698.5 800 769.2 778.5 804.9C759.9 835.7 690.5 848.2 691.7 797.3" stroke="#F7F2EE" stroke-width="4" stroke-miterlimit="10" stroke-linecap="round" stroke-linejoin="round"/>
<path opacity="0.9116" d="M999.801 701.1C1006.1 704.2 1014.2 708 1019.6 712.4C1036.1 725.7 1042.9 750.4 1041.4 772C1037.3 829.3 975.3 809.3 951.9 838.4C932.5 862.5 989.901 921.2 913.601 916.9" stroke="#F7F2EE" stroke-width="4" stroke-miterlimit="10" stroke-linecap="round" stroke-linejoin="round"/>
<path opacity="0.9116" d="M1000.2 700C1044.8 693.3 1067.5 744.8 1065.9 779C1063.2 834.6 991.7 840.9 990.4 866.7C990 875.7 996 882.9 998.7 891" stroke="#F7F2EE" stroke-width="4" stroke-miterlimit="10" stroke-linecap="round" stroke-linejoin="round"/>
<path fill-rule="evenodd" clip-rule="evenodd" d="M807.101 1081.9C800.901 1078.7 633.301 1096.5 624.001 1103.2C562.301 1147.3 534.301 1216.8 524.001 1275.9C508.001 1367.4 562.501 1399.6 625.301 1410.4C715.901 1426 921.901 1393.1 935.701 1297.4C944.601 1235.4 885.301 1122.4 807.101 1081.9Z" fill="#F7F2EE"/>
<path opacity="0.9116" d="M807.101 1081.9C800.901 1078.7 633.301 1096.5 624.001 1103.2C562.301 1147.3 534.301 1216.8 524.001 1275.9C508.001 1367.4 562.501 1399.6 625.301 1410.4C715.901 1426 921.901 1393.1 935.701 1297.4C944.601 1235.4 885.301 1122.4 807.101 1081.9Z" stroke="#161616" stroke-width="8" stroke-miterlimit="10" stroke-linecap="round" stroke-linejoin="round"/>
<path opacity="0.9116" fill-rule="evenodd" clip-rule="evenodd" d="M868.1 1138.2C865.3 1135.2 851.9 1147.9 861.1 1156C864.3 1158.8 870.1 1160.3 872.3 1164.1C874.3 1167.6 871 1174.1 874.2 1176.9C876.4 1178.9 882.4 1177.2 883.2 1180.8C884.5 1186.6 877.2 1195.2 880.3 1200.4C882.5 1204.2 891 1199.6 894.4 1200.2C898.1 1200.8 904.5 1207.8 907.6 1206.4C918.4 1201.5 882 1147.2 873.8 1141.9" fill="#F7F2EE"/>
<path opacity="0.9116" d="M868.1 1138.2C865.3 1135.2 851.9 1147.9 861.1 1156C864.3 1158.8 870.1 1160.3 872.3 1164.1C874.3 1167.6 871 1174.1 874.2 1176.9C876.4 1178.9 882.4 1177.2 883.2 1180.8C884.5 1186.6 877.2 1195.2 880.3 1200.4C882.5 1204.2 891 1199.6 894.4 1200.2C898.1 1200.8 904.5 1207.8 907.6 1206.4C918.4 1201.5 882 1147.2 873.8 1141.9" stroke="#161616" stroke-width="4" stroke-miterlimit="10" stroke-linecap="round" stroke-linejoin="round"/>
<path fill-rule="evenodd" clip-rule="evenodd" d="M840.7 1016.6C839.9 1016.3 912.2 1079.5 895 1095.7C887.7 1102.6 863.1 1094.7 854.7 1083.7" fill="#F7F2EE"/>
<path opacity="0.9116" d="M840.7 1016.6C839.9 1016.3 912.2 1079.5 895 1095.7C887.7 1102.6 863.1 1094.7 854.7 1083.7" stroke="#161616" stroke-width="8" stroke-miterlimit="10" stroke-linecap="round" stroke-linejoin="round"/>
<path fill-rule="evenodd" clip-rule="evenodd" d="M572.1 1024.5C514.8 1070.2 510 1096.3 520.7 1108.7C524.7 1113.3 544 1111.3 566.9 1094.8" fill="#F7F2EE"/>
<path opacity="0.9116" d="M572.1 1024.5C514.8 1070.2 510 1096.3 520.7 1108.7C524.7 1113.3 544 1111.3 566.9 1094.8" stroke="#161616" stroke-width="8" stroke-miterlimit="10" stroke-linecap="round" stroke-linejoin="round"/>
<path fill-rule="evenodd" clip-rule="evenodd" d="M680.701 958.7C681.001 957.1 671.401 958.5 670.801 958.6C649.701 961.2 629.101 970.6 610.501 979.4C552.601 1006.7 573.801 1103.1 574.301 1103.1C575.201 1103.1 579.001 1116.1 579.201 1117.2C594.601 1202.7 812.501 1168.4 836.501 1122.8C854.901 1087.9 854.601 1051.5 846.801 1023.3C846.501 1022.3 814.901 959.5 751.601 952.7C736.101 951.1 712.301 948.1 680.701 958.7Z" fill="#F7F2EE"/>
<path opacity="0.9116" d="M680.701 958.7C681.001 957.1 671.401 958.5 670.801 958.6C649.701 961.2 629.101 970.6 610.501 979.4C552.601 1006.7 573.801 1103.1 574.301 1103.1C575.201 1103.1 579.001 1116.1 579.201 1117.2C594.601 1202.7 812.501 1168.4 836.501 1122.8C854.901 1087.9 854.601 1051.5 846.801 1023.3C846.501 1022.3 814.901 959.5 751.601 952.7C736.101 951.1 712.301 948.1 680.701 958.7Z" stroke="#161616" stroke-width="8" stroke-miterlimit="10" stroke-linecap="round" stroke-linejoin="round"/>
<path opacity="0.9116" d="M644.1 982C616.4 957.1 543.7 985.8 518.2 1003.9" stroke="#161616" stroke-width="4" stroke-miterlimit="10" stroke-linecap="round" stroke-linejoin="round"/>
<path opacity="0.9116" d="M617.601 1011.4C617.801 1011.3 616.101 1010.5 616.101 1010.5C613.701 1009.9 611.201 1009.8 608.801 1009.9C602.401 1010.1 596 1010.9 589.7 1012C570.3 1015.4 551.401 1021.7 534.101 1031.1" stroke="#161616" stroke-width="4" stroke-miterlimit="10" stroke-linecap="round" stroke-linejoin="round"/>
<path opacity="0.9116" d="M756.701 983.5C756.601 983.5 758.701 981.1 758.901 980.9C761.401 978.5 764.501 976.6 767.501 974.7C775.101 970 783.501 966.6 791.901 963.6C818.701 953.9 848.901 948.1 875.901 960.5" stroke="#161616" stroke-width="4" stroke-miterlimit="10" stroke-linecap="round" stroke-linejoin="round"/>
<path fill-rule="evenodd" clip-rule="evenodd" d="M706.3 942.3C702.5 937.8 688.901 948.9 687.101 951.1C675.501 965.3 687.9 985.9 704.8 987.9C734.3 991.3 735.201 948.9 709.101 944.9" fill="#F7F2EE"/>
<path opacity="0.9116" d="M706.3 942.3C702.5 937.8 688.901 948.9 687.101 951.1C675.501 965.3 687.9 985.9 704.8 987.9C734.3 991.3 735.201 948.9 709.101 944.9" stroke="#161616" stroke-width="8" stroke-miterlimit="10" stroke-linecap="round" stroke-linejoin="round"/>
<path fill-rule="evenodd" clip-rule="evenodd" d="M607.7 1036.9C607.4 1036.7 610.1 1044.6 610.4 1045.3C613.2 1050.5 617.301 1055.4 622.601 1058.2C637.301 1066.1 658.601 1065.6 673.601 1058.7C690.001 1051.3 701 1032.4 706.4 1016.1C708.6 1009.5 709.701 1003 709.801 996C709.801 994.6 709.9 991.9 709.9 991.9C709.9 991.9 709.8 994.4 709.9 995.7C709.9 1002.1 710.301 1008.8 711.601 1015.1C714.901 1030.1 726.001 1044.7 740.801 1050.3C763.301 1058.8 798.2 1036.7 786.9 1010.8" fill="#F7F2EE"/>
<path opacity="0.9116" d="M607.7 1036.9C607.4 1036.7 610.1 1044.6 610.4 1045.3C613.2 1050.5 617.301 1055.4 622.601 1058.2C637.301 1066.1 658.601 1065.6 673.601 1058.7C690.001 1051.3 701 1032.4 706.4 1016.1C708.6 1009.5 709.701 1003 709.801 996C709.801 994.6 709.9 991.9 709.9 991.9C709.9 991.9 709.8 994.4 709.9 995.7C709.9 1002.1 710.301 1008.8 711.601 1015.1C714.901 1030.1 726.001 1044.7 740.801 1050.3C763.301 1058.8 798.2 1036.7 786.9 1010.8" stroke="#161616" stroke-width="8" stroke-miterlimit="10" stroke-linecap="round" stroke-linejoin="round"/>
<path fill-rule="evenodd" clip-rule="evenodd" d="M643.9 1005.2C643.9 1005.2 643.8 1005.7 643.7 1005.7L643.9 1005.2Z" fill="#F7F2EE"/>
<path opacity="0.9116" d="M643.9 1005.2C643.9 1005.2 643.8 1005.7 643.7 1005.7" stroke="#161616" stroke-width="4" stroke-miterlimit="10" stroke-linecap="round" stroke-linejoin="round"/>
<path opacity="0.9116" d="M664.101 1014.8C664.101 1014.8 664.201 1014.8 664.101 1014.8" stroke="#161616" stroke-width="4" stroke-miterlimit="10" stroke-linecap="round" stroke-linejoin="round"/>
<path fill-rule="evenodd" clip-rule="evenodd" d="M738.401 991.2C738.401 991.1 738.401 991.3 738.301 991.4L738.401 991.2Z" fill="#F7F2EE"/>
<path opacity="0.9116" d="M738.401 991.2C738.401 991.1 738.401 991.3 738.301 991.4" stroke="#161616" stroke-width="4" stroke-miterlimit="10" stroke-linecap="round" stroke-linejoin="round"/>
<path fill-rule="evenodd" clip-rule="evenodd" d="M762.101 1004.2L762.2 1004.3L762.101 1004.2Z" fill="#F7F2EE"/>
<path opacity="0.9116" d="M762.101 1004.2L762.2 1004.3" stroke="#161616" stroke-width="4" stroke-miterlimit="10" stroke-linecap="round" stroke-linejoin="round"/>
<path fill-rule="evenodd" clip-rule="evenodd" d="M690.001 1050.7C689.201 1060 697.001 1092.7 708.701 1093.8C736.201 1096.4 732.901 1061.5 732.201 1051.8" fill="#F7F2EE"/>
<path opacity="0.9116" d="M690.001 1050.7C689.201 1060 697.001 1092.7 708.701 1093.8C736.201 1096.4 732.901 1061.5 732.201 1051.8" stroke="#161616" stroke-width="8" stroke-miterlimit="10" stroke-linecap="round" stroke-linejoin="round"/>
<path fill-rule="evenodd" clip-rule="evenodd" d="M930 1227C929.8 1228.3 948.701 1219.3 957.801 1213.2C958.401 1212.8 959.001 1212.4 959.601 1212C983.601 1194.8 1012.2 1156 997.5 1129.4C987.8 1111.8 944.8 1117.3 949.5 1141.4C950 1143.8 951.401 1145.9 953.601 1147.2C955.501 1148.3 958 1148.6 960.4 1148.2C974 1146 955.2 1134.1 967.9 1127.3C971.7 1125.3 975.501 1124.4 979.301 1125.8C982.601 1127 985.5 1132.8 986.4 1136C994 1162.5 955.6 1170.2 937 1158.5C898.8 1134.4 943.4 1080.6 983.2 1086.2C1001.2 1088.8 1015.8 1099.9 1024.9 1113.6C1061.4 1168.5 991.8 1230.9 934 1254.7" fill="#F7F2EE"/>
<path opacity="0.9116" d="M930 1227C929.8 1228.3 948.701 1219.3 957.801 1213.2C958.401 1212.8 959.001 1212.4 959.601 1212C983.601 1194.8 1012.2 1156 997.5 1129.4C987.8 1111.8 944.8 1117.3 949.5 1141.4C950 1143.8 951.401 1145.9 953.601 1147.2C955.501 1148.3 958 1148.6 960.4 1148.2C974 1146 955.2 1134.1 967.9 1127.3C971.7 1125.3 975.501 1124.4 979.301 1125.8C982.601 1127 985.5 1132.8 986.4 1136C994 1162.5 955.6 1170.2 937 1158.5C898.8 1134.4 943.4 1080.6 983.2 1086.2C1001.2 1088.8 1015.8 1099.9 1024.9 1113.6C1061.4 1168.5 991.8 1230.9 934 1254.7" stroke="#161616" stroke-width="8" stroke-miterlimit="10" stroke-linecap="round" stroke-linejoin="round"/>
<path fill-rule="evenodd" clip-rule="evenodd" d="M623.3 1251.1C621.1 1254.6 654.701 1258.2 664.601 1263.5C730.101 1298.1 724.5 1214.1 630 1202.7" fill="#F7F2EE"/>
<path opacity="0.9116" d="M623.3 1251.1C621.1 1254.6 654.701 1258.2 664.601 1263.5C730.101 1298.1 724.5 1214.1 630 1202.7" stroke="#161616" stroke-width="8" stroke-miterlimit="10" stroke-linecap="round" stroke-linejoin="round"/>
<path fill-rule="evenodd" clip-rule="evenodd" d="M815.101 1184.5C818.601 1183.3 792.801 1193.3 789.201 1194.2C782.201 1196.1 775.301 1198.5 768.601 1201.5C751.601 1209.2 729.3 1226.6 734.9 1248.2C742.5 1277.2 769.401 1248.4 809.001 1240.4" fill="#F7F2EE"/>
<path opacity="0.9116" d="M815.101 1184.5C818.601 1183.3 792.801 1193.3 789.201 1194.2C782.201 1196.1 775.301 1198.5 768.601 1201.5C751.601 1209.2 729.3 1226.6 734.9 1248.2C742.5 1277.2 769.401 1248.4 809.001 1240.4" stroke="#161616" stroke-width="8" stroke-miterlimit="10" stroke-linecap="round" stroke-linejoin="round"/>
<path fill-rule="evenodd" clip-rule="evenodd" d="M535.9 1304.5C535.1 1305.8 547.8 1316.9 548.7 1315.7C581.9 1270.7 607.8 1292.7 599.2 1297.5C571.8 1313 572.201 1335.1 568.601 1344.6C556.501 1376 620.3 1307.2 635.7 1301C656.1 1292.8 607.1 1360.4 602.8 1363.4C602.7 1363.5 601.901 1364 602.101 1364.2C603.401 1365.9 659.1 1301.3 664.3 1303.9C673.2 1308.5 636.5 1362.8 632.5 1364.8C631.5 1365.3 620.3 1370.5 621.2 1372.1C622 1373.5 629.6 1369.9 630.5 1369.6C635.2 1367.7 682.601 1317 683.101 1323.7C684.401 1339.7 655.401 1379 644.101 1380.4C636.101 1381.4 690.401 1372 689.601 1375.6C688.101 1382.5 654.101 1412.4 626.601 1410.7C617.401 1410.1 556.9 1406.9 510.4 1379.4C505.4 1376.4 503.2 1362.5 505.8 1349.3C506.8 1344.1 513.6 1295.8 520.2 1289.5C524.3 1285.7 525.2 1289 535.9 1304.5Z" fill="#F7F2EE"/>
<path opacity="0.9116" d="M535.9 1304.5C535.1 1305.8 547.8 1316.9 548.7 1315.7C581.9 1270.7 607.8 1292.7 599.2 1297.5C571.8 1313 572.201 1335.1 568.601 1344.6C556.501 1376 620.3 1307.2 635.7 1301C656.1 1292.8 607.1 1360.4 602.8 1363.4C602.7 1363.5 601.901 1364 602.101 1364.2C603.401 1365.9 659.1 1301.3 664.3 1303.9C673.2 1308.5 636.5 1362.8 632.5 1364.8C631.5 1365.3 620.3 1370.5 621.2 1372.1C622 1373.5 629.6 1369.9 630.5 1369.6C635.2 1367.7 682.601 1317 683.101 1323.7C684.401 1339.7 655.401 1379 644.101 1380.4C636.101 1381.4 690.401 1372 689.601 1375.6C688.101 1382.5 654.101 1412.4 626.601 1410.7C617.401 1410.1 556.9 1406.9 510.4 1379.4C505.4 1376.4 503.2 1362.5 505.8 1349.3C506.8 1344.1 513.6 1295.8 520.2 1289.5C524.3 1285.7 525.2 1289 535.9 1304.5Z" stroke="#161616" stroke-width="8" stroke-miterlimit="10" stroke-linecap="round" stroke-linejoin="round"/>
<path fill-rule="evenodd" clip-rule="evenodd" d="M903.001 1279.3C903.801 1280.6 872.901 1294.8 872.001 1293.6C838.701 1248.9 821.401 1269 828.501 1275.4C846.801 1291.8 851.001 1312.9 854.901 1322.2C867.801 1353.3 814.201 1281.3 799.501 1275.1C780.001 1267 819.701 1337.8 823.901 1340.8C824.001 1340.9 824.801 1341.4 824.601 1341.6C823.401 1343.3 772.901 1282.4 768.201 1285C760.101 1289.5 792.401 1340.1 796.101 1342.2C797.001 1342.7 807.801 1347.9 807.001 1349.4C806.301 1350.7 799.001 1347.2 798.101 1346.9C793.701 1345 746.901 1294.8 746.701 1301.4C746.301 1317.2 774.101 1362.3 784.701 1363.7C792.201 1364.7 738.901 1361.8 739.901 1365.4C741.601 1372.3 784.401 1393.5 810.101 1391.8C818.601 1391.2 888.601 1369.2 925.801 1347.1C934.801 1341.8 919.801 1353.5 935.001 1342.1C956.501 1325.9 937.401 1270.4 933.001 1261.3C930.701 1256.2 926.401 1263.4 903.001 1279.3Z" fill="#F7F2EE"/>
<path opacity="0.9116" d="M903.001 1279.3C903.801 1280.6 872.901 1294.8 872.001 1293.6C838.701 1248.9 821.401 1269 828.501 1275.4C846.801 1291.8 851.001 1312.9 854.901 1322.2C867.801 1353.3 814.201 1281.3 799.501 1275.1C780.001 1267 819.701 1337.8 823.901 1340.8C824.001 1340.9 824.801 1341.4 824.601 1341.6C823.401 1343.3 772.901 1282.4 768.201 1285C760.101 1289.5 792.401 1340.1 796.101 1342.2C797.001 1342.7 807.801 1347.9 807.001 1349.4C806.301 1350.7 799.001 1347.2 798.101 1346.9C793.701 1345 746.901 1294.8 746.701 1301.4C746.301 1317.2 774.101 1362.3 784.701 1363.7C792.201 1364.7 738.901 1361.8 739.901 1365.4C741.601 1372.3 784.401 1393.5 810.101 1391.8C818.601 1391.2 888.601 1369.2 925.801 1347.1C934.801 1341.8 919.801 1353.5 935.001 1342.1C956.501 1325.9 937.401 1270.4 933.001 1261.3C930.701 1256.2 926.401 1263.4 903.001 1279.3Z" stroke="#161616" stroke-width="8" stroke-miterlimit="10" stroke-linecap="round" stroke-linejoin="round"/>
<path fill-rule="evenodd" clip-rule="evenodd" d="M353.7 969.3C358.6 976.7 384.3 1030.8 392 1036.3C406.7 1046.8 400.3 1005.1 389 991.3C376.7 976.4 387.3 974.6 391.2 983.2C405.8 1015.5 417.7 1022.9 420.2 1021.4C433.4 1013.7 394.5 958.3 408.2 965.7C411.1 967.3 436.3 1023.1 442 1003.6C443.1 999.7 440.2 974.5 427.5 953.5C421.4 943.4 450.4 989.2 458.5 990.3C466.3 991.4 476.6 980 459.9 960.5C447.6 946.1 411.4 912.9 412.3 910.4C418.8 893 466 920.3 458.2 896C456.5 890.6 451.6 888.2 449.3 883.9C428.3 844.9 335.2 914.7 353.7 969.3Z" fill="#F7F2EE"/>
<path opacity="0.9116" d="M353.7 969.3C358.6 976.7 384.3 1030.8 392 1036.3C406.7 1046.8 400.3 1005.1 389 991.3C376.7 976.4 387.3 974.6 391.2 983.2C405.8 1015.5 417.7 1022.9 420.2 1021.4C433.4 1013.7 394.5 958.3 408.2 965.7C411.1 967.3 436.3 1023.1 442 1003.6C443.1 999.7 440.2 974.5 427.5 953.5C421.4 943.4 450.4 989.2 458.5 990.3C466.3 991.4 476.6 980 459.9 960.5C447.6 946.1 411.4 912.9 412.3 910.4C418.8 893 466 920.3 458.2 896C456.5 890.6 451.6 888.2 449.3 883.9C428.3 844.9 335.2 914.7 353.7 969.3Z" stroke="#161616" stroke-width="8" stroke-miterlimit="10" stroke-linecap="round" stroke-linejoin="round"/>
<path fill-rule="evenodd" clip-rule="evenodd" d="M1064 1039.3C1055.2 1049 1024 1073.5 1015.9 1075.6C1000.5 1079.5 1014 1053.8 1028.4 1045.9C1043.9 1037.4 1036.8 1032 1030.2 1038.1C1005.6 1060.9 993.501 1063 992.301 1060.9C985.801 1049.5 1038.4 1015.3 1025 1016.8C1022.1 1017.1 979.501 1056.6 983.601 1037.7C984.401 1033.9 997.401 1013.1 1015.8 999.4C1024.6 992.8 983.501 1022.2 977.001 1020.3C970.801 1018.5 967.901 1004.9 988.601 994C1003.9 985.9 1045.1 970 1045.5 967.5C1048.1 950.1 992.601 959.7 1008.8 941.3C1012.4 937.2 1014.5 930.1 1023.6 928.7C1065.2 922.6 1101.1 998.5 1064 1039.3Z" fill="#F7F2EE"/>
<path opacity="0.9116" d="M1064 1039.3C1055.2 1049 1024 1073.5 1015.9 1075.6C1000.5 1079.5 1014 1053.8 1028.4 1045.9C1043.9 1037.4 1036.8 1032 1030.2 1038.1C1005.6 1060.9 993.501 1063 992.301 1060.9C985.801 1049.5 1038.4 1015.3 1025 1016.8C1022.1 1017.1 979.501 1056.6 983.601 1037.7C984.401 1033.9 997.401 1013.1 1015.8 999.4C1024.6 992.8 983.501 1022.2 977.001 1020.3C970.801 1018.5 967.901 1004.9 988.601 994C1003.9 985.9 1045.1 970 1045.5 967.5C1048.1 950.1 992.601 959.7 1008.8 941.3C1012.4 937.2 1014.5 930.1 1023.6 928.7C1065.2 922.6 1101.1 998.5 1064 1039.3Z" stroke="#161616" stroke-width="8" stroke-miterlimit="10" stroke-linecap="round" stroke-linejoin="round"/>
<path opacity="0.9116" d="M466.201 546.9C467.601 546.9 464.001 545.1 463.101 544C461.201 541.5 459.401 539 457.801 536.2C453.601 529.1 444.801 516.2 450.501 508C460.801 493 481.401 518.4 488.701 526.1" stroke="#161616" stroke-width="8" stroke-miterlimit="10" stroke-linecap="round" stroke-linejoin="round"/>
<path opacity="0.9116" d="M426.4 564.9C426.1 565.2 422.6 562.4 422.4 562.2C416.8 558.2 391 537.8 388.5 555C387.7 560.6 390.5 567.3 392.5 572.5C394.1 576.6 396.2 580.6 398.1 584.7" stroke="#161616" stroke-width="8" stroke-miterlimit="10" stroke-linecap="round" stroke-linejoin="round"/>
<path opacity="0.9116" d="M457.301 574.5C456.201 574.3 458.901 576.1 459.701 576.9C461.701 578.8 463.901 580.5 466.101 582.1C473.801 587.5 483.501 589.8 473.201 597.8" stroke="#161616" stroke-width="8" stroke-miterlimit="10" stroke-linecap="round" stroke-linejoin="round"/>
<path opacity="0.9116" d="M474.601 637.1C476.501 639.5 494.901 653.8 505.701 653.1C527.601 651.7 519.101 619.7 507.901 610.2" stroke="#161616" stroke-width="8" stroke-miterlimit="10" stroke-linecap="round" stroke-linejoin="round"/>
<path opacity="0.9116" d="M433.9 604.8C430.7 625.3 435 650 439.2 670" stroke="#161616" stroke-width="4" stroke-miterlimit="10" stroke-linecap="round" stroke-linejoin="round"/>
<path opacity="0.9116" d="M492.701 562.3C492.001 560.4 496.901 562.8 498.901 563.1C503.701 563.7 508.301 565 512.901 566.3C526.601 570.3 539.101 575.7 551.001 583.5" stroke="#161616" stroke-width="4" stroke-miterlimit="10" stroke-linecap="round" stroke-linejoin="round"/>
<path opacity="0.9116" d="M381 518.6C380.6 519.1 418.4 495.3 426 475.2" stroke="#161616" stroke-width="4" stroke-miterlimit="10" stroke-linecap="round" stroke-linejoin="round"/>
<path opacity="0.9116" d="M477.8 514.7C477 515.3 479.2 513.4 479.8 512.6C481.1 511 482.2 509.3 483.1 507.5C486 502.1 487.5 496.5 488.3 490.4" stroke="#161616" stroke-width="4" stroke-miterlimit="10" stroke-linecap="round" stroke-linejoin="round"/>
<path opacity="0.9116" d="M493.6 527.7C493.2 528.8 495 525.6 496.1 525.2C498 524.4 505.9 510.7 506.6 507.7" stroke="#161616" stroke-width="4" stroke-miterlimit="10" stroke-linecap="round" stroke-linejoin="round"/>
<path opacity="0.9116" d="M389 573C382.6 575.5 376.7 577.8 369.7 578.9" stroke="#161616" stroke-width="4" stroke-miterlimit="10" stroke-linecap="round" stroke-linejoin="round"/>
<path opacity="0.9116" d="M398.901 588.1C393.701 592.7 387.401 594.6 383.801 595.4" stroke="#161616" stroke-width="4" stroke-miterlimit="10" stroke-linecap="round" stroke-linejoin="round"/>
<path opacity="0.9116" d="M766.4 996.4C768.4 997.7 837 975.7 868.5 998.1" stroke="#161616" stroke-width="4" stroke-miterlimit="10" stroke-linecap="round" stroke-linejoin="round"/>
<path opacity="0.9116" fill-rule="evenodd" clip-rule="evenodd" d="M533.601 1248.8C537.201 1248.7 557.501 1255.7 558.001 1247C558.301 1241.7 548.8 1231.7 553.4 1227.1C558.2 1222.2 573.101 1232.2 573.501 1227.8C574.001 1220.4 560.7 1215.2 562.9 1207C565 1199.4 576.201 1203.5 580.601 1199.1C583.201 1196.4 574.7 1187.8 574.9 1184.1C575.3 1177.4 591 1178.5 580.9 1171.6C560.2 1157.3 539.9 1211.1 535.2 1223.7C533.1 1229.2 529.401 1237.7 531.901 1243.6" fill="black"/>
<path opacity="0.9116" d="M533.601 1248.8C537.201 1248.7 557.501 1255.7 558.001 1247C558.301 1241.7 548.8 1231.7 553.4 1227.1C558.2 1222.2 573.101 1232.2 573.501 1227.8C574.001 1220.4 560.7 1215.2 562.9 1207C565 1199.4 576.201 1203.5 580.601 1199.1C583.201 1196.4 574.7 1187.8 574.9 1184.1C575.3 1177.4 591 1178.5 580.9 1171.6C560.2 1157.3 539.9 1211.1 535.2 1223.7C533.1 1229.2 529.401 1237.7 531.901 1243.6" stroke="#161616" stroke-width="4" stroke-miterlimit="10" stroke-linecap="round" stroke-linejoin="round"/>
<path opacity="0.9116" d="M946 1164.8C988.9 1162 923.7 1114.1 971.2 1119.2C980.2 1120.2 1005.3 1118 1014.3 1116.8C1041.4 1113.2 1068.7 1106.9 1094.6 1098.5C1186.9 1068.4 1220.5 1032.2 1260.5 953C1261.6 950.9 1255.2 947.9 1254.3 947.3C1234.2 932.7 1208.9 887.7 1234.9 867.1C1247.2 857.4 1286.6 939.7 1271.2 945.4C1269.6 946 1267.5 945.2 1266.3 944.2C1245.6 926.7 1296.6 864.6 1301.4 866.5C1308.8 869.4 1307.6 954.1 1265.5 930.6C1227.1 909.1 1275.6 856.1 1281.1 829.8C1281.3 829 1282.7 816.7 1283.1 816.7C1283.9 816.7 1284.7 824.9 1284.8 825.5C1286.1 835.9 1286.6 876.4 1268.6 874.8C1230.1 871.3 1251.6 766.3 1268.1 828.7C1270.2 836.7 1272.4 844.3 1273.2 852.6" stroke="#161616" stroke-width="4" stroke-miterlimit="10" stroke-linecap="round" stroke-linejoin="round"/>
<path opacity="0.9116" d="M1079.7 1006.4C1078.4 1005.8 1093.9 977.4 1099.7 963.2C1112.4 931.8 1116.9 899.5 1116.9 865.4" stroke="#161616" stroke-width="8" stroke-miterlimit="10" stroke-linecap="round" stroke-linejoin="round"/>
<path fill-rule="evenodd" clip-rule="evenodd" d="M858.4 632.9C859.9 632.8 856.9 635.5 856.7 637C855.8 643.8 862.7 652.9 870.3 649.8C881.4 645.3 874.4 630 863.5 632" fill="#F7F2EE"/>
<path opacity="0.9116" d="M858.4 632.9C859.9 632.8 856.9 635.5 856.7 637C855.8 643.8 862.7 652.9 870.3 649.8C881.4 645.3 874.4 630 863.5 632" stroke="#F7F2EE" stroke-width="4" stroke-miterlimit="10" stroke-linecap="round" stroke-linejoin="round"/>
<path fill-rule="evenodd" clip-rule="evenodd" d="M857.501 635.1C858.901 635.8 854.401 636.1 852.801 636.4C849.801 636.9 846.801 637 843.701 637C835.301 636.9 821.601 637 816.201 629.2C809.601 619.7 831.001 598.6 839.301 595.1C854.201 588.7 862.201 627 856.801 635.3" fill="#F7F2EE"/>
<path d="M857.501 635.1C858.901 635.8 854.401 636.1 852.801 636.4C849.801 636.9 846.801 637 843.701 637C835.301 636.9 821.601 637 816.201 629.2C809.601 619.7 831.001 598.6 839.301 595.1C854.201 588.7 862.201 627 856.801 635.3" stroke="#F7F2EE" stroke-width="4" stroke-miterlimit="10" stroke-linecap="round" stroke-linejoin="round"/>
<path fill-rule="evenodd" clip-rule="evenodd" d="M873.101 644.3C872.001 643.6 875.401 643.7 876.601 643.6C878.801 643.4 881.101 643.5 883.401 643.8C889.701 644.6 900.001 645.5 904.001 652.7C908.901 661.4 892.601 677.9 886.301 680.3C875.001 684.6 869.301 651 873.501 644.3" fill="#F7F2EE"/>
<path d="M873.101 644.3C872.001 643.6 875.401 643.7 876.601 643.6C878.801 643.4 881.101 643.5 883.401 643.8C889.701 644.6 900.001 645.5 904.001 652.7C908.901 661.4 892.601 677.9 886.301 680.3C875.001 684.6 869.301 651 873.501 644.3" stroke="#F7F2EE" stroke-width="4" stroke-miterlimit="10" stroke-linecap="round" stroke-linejoin="round"/>
</svg>
