<svg width="1500" height="1500" viewBox="0 0 1500 1500" fill="none" xmlns="http://www.w3.org/2000/svg">
<rect width="1500" height="1500" fill="#F7F2EE"/>
<path fill-rule="evenodd" clip-rule="evenodd" d="M743.3 764.787C684.7 768.687 617.3 797.487 543.8 802.587C467 807.987 384.9 789.088 358.9 765.388C283.2 696.388 405.2 679.287 425.8 662.287C440.4 650.287 242.4 617.587 207.6 533.887C180.8 469.487 213.4 338.187 373.1 365.087C436.4 375.687 345 273.287 393 180.387C415.7 136.387 514.1 75.7874 583.9 97.5874C649.2 117.987 727.3 230.487 856.9 199.087C909 186.387 1017 114.287 1108.4 169.787C1186.7 217.287 1164.9 281.088 1109.9 378.488C1078.5 433.988 1254.6 397.187 1292.9 467.787C1308.6 496.587 1311.1 562.587 1227.8 594.887C1139.3 629.188 1299.8 606.387 1263.5 690.087C1238.9 746.887 1105.8 721.987 1084.4 720.287C1019.2 715.087 1079 780.988 1007.8 805.188C904.3 840.188 791.1 772.087 743.3 764.787Z" fill="#35AD73"/>
<path opacity="0.9116" d="M743.3 764.787C684.7 768.687 617.3 797.487 543.8 802.587C467 807.987 384.9 789.088 358.9 765.388C283.2 696.388 405.2 679.287 425.8 662.287C440.4 650.287 242.4 617.587 207.6 533.887C180.8 469.487 213.4 338.187 373.1 365.087C436.4 375.687 345 273.287 393 180.387C415.7 136.387 514.1 75.7874 583.9 97.5874C649.2 117.987 727.3 230.487 856.9 199.087C909 186.387 1017 114.287 1108.4 169.787C1186.7 217.287 1164.9 281.088 1109.9 378.488C1078.5 433.988 1254.6 397.187 1292.9 467.787C1308.6 496.587 1311.1 562.587 1227.8 594.887C1139.3 629.187 1299.8 606.387 1263.5 690.087C1238.9 746.887 1105.8 721.987 1084.4 720.287C1019.2 715.087 1079 780.988 1007.8 805.188C904.3 840.188 791.1 772.087 743.3 764.787Z" stroke="#161616" stroke-width="8" stroke-miterlimit="10" stroke-linecap="round" stroke-linejoin="round"/>
<path d="M662.2 729.388C662.4 729.388 662.6 729.087 662.2 729.287C659.6 730.487 657.1 731.888 654.5 733.088C649.2 735.488 643.8 737.588 638.4 739.688C629.9 742.988 573 764.588 569.8 749.888C567.9 741.288 584 733.288 589.7 730.688C604.8 723.688 648.9 718.088 664.3 728.888" stroke="#F7F2EE" stroke-width="4" stroke-miterlimit="10" stroke-linecap="round" stroke-linejoin="round"/>
<path opacity="0.9116" d="M910 651.887C909.9 654.287 905.3 659.687 904.4 662.287C901.3 670.987 900 680.087 899.2 689.287C898.5 696.587 897.9 703.887 897.5 711.087C896.4 728.987 912.3 730.687 915.7 713.087C919.8 691.787 918.3 672.688 911.6 652.488" stroke="#F7F2EE" stroke-width="4" stroke-miterlimit="10" stroke-linecap="round" stroke-linejoin="round"/>
<path opacity="0.9116" d="M926.5 648.887C927.9 650.987 927.6 657.788 928.6 660.488C931.6 669.488 936.7 677.488 942.1 685.188C946.9 691.988 951.7 698.787 956.8 705.287C1011 773.487 963.9 641.987 925.7 645.387" stroke="#F7F2EE" stroke-width="4" stroke-miterlimit="10" stroke-linecap="round" stroke-linejoin="round"/>
<path opacity="0.9116" d="M1109.5 626.688C1109.5 626.688 1109.5 626.987 1109.5 627.087C1108.7 640.087 1127.6 654.588 1136.3 661.188C1141.9 665.387 1147.5 669.588 1153.2 673.488C1171.5 685.888 1184.9 673.687 1170.3 657.087C1157 641.987 1139.3 630.888 1119.5 626.988" stroke="#F7F2EE" stroke-width="4" stroke-miterlimit="10" stroke-linecap="round" stroke-linejoin="round"/>
<path opacity="0.9116" d="M1128.4 611.287C1128.3 611.187 1129 610.287 1129.3 609.887C1133.8 604.387 1139.1 599.387 1144.8 595.087C1151.1 590.187 1157.9 585.887 1164.7 581.787C1167.3 580.187 1212.3 553.287 1203.5 574.587C1200.5 581.887 1194.8 587.587 1188.9 592.587C1183.2 597.387 1177.1 601.787 1170.3 604.887C1160.2 609.487 1149.6 610.087 1138.7 610.587" stroke="#F7F2EE" stroke-width="4" stroke-miterlimit="10" stroke-linecap="round" stroke-linejoin="round"/>
<path d="M541.2 631.287C541.1 631.187 541.1 638.488 541.1 639.188C541 645.488 540.3 651.788 539.2 657.988C535.5 678.888 529.1 701.287 518.5 719.787C517.3 721.787 509.4 737.088 505.9 736.188C497.9 734.088 500.5 713.588 501.1 708.688C504.6 680.888 520.8 658.887 537.9 637.787" stroke="#F7F2EE" stroke-width="4" stroke-miterlimit="10" stroke-linecap="round" stroke-linejoin="round"/>
<path d="M522.2 630.687C522.2 630.687 521.7 630.187 521.5 630.187C515.1 627.887 505.5 630.487 499.2 631.887C491.3 633.687 437.5 651.987 442.8 664.087C445.7 670.587 461.7 667.987 466.7 667.287C490.8 663.787 508.6 651.587 521.6 631.387" stroke="#F7F2EE" stroke-width="4" stroke-miterlimit="10" stroke-linecap="round" stroke-linejoin="round"/>
<path d="M764.6 606.087C758.7 635.287 745.8 664.987 736.8 693.387" stroke="#F7F2EE" stroke-width="4" stroke-miterlimit="10" stroke-linecap="round" stroke-linejoin="round"/>
<path d="M398.9 509.487C400.9 511.687 393.8 506.187 391.7 503.987C386.1 498.187 381.4 491.387 377.5 484.387C371.6 473.987 338.4 406.787 353.2 399.587C369.3 391.787 399 455.187 401.5 466.187C404.5 479.687 404.3 494.887 401.7 508.587" stroke="#F7F2EE" stroke-width="4" stroke-miterlimit="10" stroke-linecap="round" stroke-linejoin="round"/>
<path d="M366.2 504.887C366.7 504.887 362 501.787 357.6 499.187C351.4 495.387 345.3 491.687 338.6 488.887C327.2 484.087 251 465.987 249.2 479.887C247.9 489.987 317.4 510.387 328.4 511.687C339.6 513.087 350.5 511.687 361.5 510.087" stroke="#F7F2EE" stroke-width="4" stroke-miterlimit="10" stroke-linecap="round" stroke-linejoin="round"/>
<path d="M398.8 546.687C401.3 547.287 393.7 546.087 391.2 545.887C386.3 545.487 381.2 545.588 376.3 545.988C368.8 546.588 316.4 555.788 317.2 565.488C318 575.288 366 568.787 372.1 566.587C382 562.787 389.8 556.687 397.5 549.687" stroke="#F7F2EE" stroke-width="4" stroke-miterlimit="10" stroke-linecap="round" stroke-linejoin="round"/>
<path d="M505.2 406.687C504.9 406.787 503.8 404.287 503.7 403.987C500 397.287 494.6 391.587 489.2 386.187C479.4 376.387 452.8 365.587 438.5 370.287C432.9 372.187 450.9 387.687 452.6 389.087C465.8 400.187 483.7 409.587 501.5 405.887" stroke="#F7F2EE" stroke-width="4" stroke-miterlimit="10" stroke-linecap="round" stroke-linejoin="round"/>
<path d="M518.7 390.787C519 390.587 518.1 390.288 517.9 389.988C516.6 388.188 515.3 386.388 514.1 384.488C511.3 379.688 509.1 374.487 507.1 369.287C499.9 350.087 496.3 327.488 502.2 307.388C503.5 302.988 506.2 290.687 512.1 289.787C521.8 288.387 527.6 305.588 530.1 311.988C540 338.288 538.1 363.188 523.3 386.988" stroke="#F7F2EE" stroke-width="4" stroke-miterlimit="10" stroke-linecap="round" stroke-linejoin="round"/>
<path d="M545 394.087C545.1 394.587 544.7 393.087 544.7 392.587C544.7 390.187 545.1 387.788 545.8 385.488C547.5 379.788 550.1 374.188 553 368.988C562.5 351.888 574.9 335.287 590.6 323.387C593.7 321.087 604.1 312.787 608.5 316.287C613.8 320.587 608 341.488 606.3 346.488C597 373.388 575.4 395.788 546.2 397.688" stroke="#F7F2EE" stroke-width="4" stroke-miterlimit="10" stroke-linecap="round" stroke-linejoin="round"/>
<path d="M705.3 300.488C693.6 298.288 680.4 182.188 703.9 198.688C713.3 205.288 718.1 217.988 721.1 228.588C723.4 236.688 724.8 245.188 724.8 253.588C724.7 266.388 722.2 278.887 716.2 290.287" stroke="#F7F2EE" stroke-width="4" stroke-miterlimit="10" stroke-linecap="round" stroke-linejoin="round"/>
<path d="M719.1 306.588C718.8 306.788 719.5 304.087 719.6 303.787C720.3 301.987 721.1 300.288 722 298.688C724.9 293.588 728.6 288.988 732.6 284.688C744.5 272.188 758.8 260.088 774.5 252.588C777.5 251.188 788 245.288 791.3 247.988C795.8 251.688 785.8 265.988 783.7 268.888C770.7 287.288 752.7 302.688 730.3 307.488" stroke="#F7F2EE" stroke-width="4" stroke-miterlimit="10" stroke-linecap="round" stroke-linejoin="round"/>
<path d="M680.4 314.488C680.3 314.588 680.2 314.187 680.2 314.087C679.2 311.287 678.4 308.487 677.1 305.787C674.4 299.987 671.4 294.288 668.2 288.888C659.4 274.088 646.8 262.088 630.1 256.888C626.3 255.688 616.5 252.587 612.9 255.787C608.4 259.787 617.7 271.687 619.8 274.787C631.5 291.487 649.1 307.488 668.8 313.988" stroke="#F7F2EE" stroke-width="4" stroke-miterlimit="10" stroke-linecap="round" stroke-linejoin="round"/>
<path d="M819.6 408.787C819.9 412.487 812 410.688 802.6 407.188C793.6 403.788 763.5 390.488 759.3 381.988C756.8 376.888 778.2 380.788 780.1 381.088C793.9 383.388 810.2 387.688 818 400.488" stroke="#F7F2EE" stroke-width="4" stroke-miterlimit="10" stroke-linecap="round" stroke-linejoin="round"/>
<path d="M847.4 389.688C847.5 389.488 847 389.888 846.8 389.888C844.8 389.288 843.3 386.488 842.2 384.888C839.2 380.088 837.2 374.688 835.8 369.188C832.2 354.788 830.9 315.087 843.6 303.787C845.1 302.487 847.2 307.088 848 308.088C851.6 312.888 854.3 318.688 856.2 324.388C856.3 324.788 856.5 325.188 856.6 325.588C856.7 325.988 856.8 326.387 857 326.787C862.5 345.987 865.6 374.688 852.2 391.588" stroke="#F7F2EE" stroke-width="4" stroke-miterlimit="10" stroke-linecap="round" stroke-linejoin="round"/>
<path d="M870.6 402.688C869.1 401.188 877.2 389.988 883.1 384.188C893.7 373.788 907.1 362.787 919.8 357.387C942.3 347.787 929.4 371.387 921.6 381.287C917.7 386.287 913.2 390.588 908.6 394.488C901.7 400.488 878.8 400.588 870.6 402.688Z" stroke="#F7F2EE" stroke-width="4" stroke-miterlimit="10" stroke-linecap="round" stroke-linejoin="round"/>
<path d="M872.7 434.488C872.3 434.688 873 436.187 873 436.387C874.9 441.787 879.8 446.288 884.4 449.488C897.2 458.488 916.4 468.287 932.5 467.087C947.6 465.987 931.5 453.588 926.2 449.988C913.2 440.888 897.5 433.687 881.3 434.087" stroke="#F7F2EE" stroke-width="4" stroke-miterlimit="10" stroke-linecap="round" stroke-linejoin="round"/>
<path d="M888.3 594.287C888.4 594.387 888.4 594.488 888.8 593.988C893.1 588.488 895.8 581.387 897.7 574.687C900 566.887 906.8 532.487 898.2 526.387C894.6 523.787 890.1 532.587 889 534.687C883.3 545.187 880 558.287 879.6 570.287C879.5 574.787 880 579.387 881.5 583.587C881.6 583.987 884.2 590.087 883.9 590.187C883.7 590.187 883.3 589.687 883.2 589.587C879.2 584.787 876.4 578.987 872.6 574.087C863.1 562.087 849 550.287 833.8 546.387C830.4 545.487 822.3 543.087 819.1 545.687C814.8 549.187 824.2 561.488 826.1 563.988C837.8 579.288 853 589.987 871.9 594.187" stroke="#F7F2EE" stroke-width="4" stroke-miterlimit="10" stroke-linecap="round" stroke-linejoin="round"/>
<path fill-rule="evenodd" clip-rule="evenodd" d="M886.8 1380.59C821.2 1425.09 632.8 1371.59 652.1 1340.59C678.9 1297.69 690.1 1214.39 693.6 1163.89C705.8 989.887 768.5 907.487 688.3 742.887C679.3 724.387 660.6 696.487 636.7 676.187C609.3 652.987 490.3 597.287 433 567.487C413.5 557.387 406.4 532.087 416.8 533.587C514.7 547.887 585.7 639.187 651.9 610.187C673.5 600.787 547.2 509.987 522.6 465.687C507.1 437.687 498.1 413.587 521.8 397.587C546.5 380.887 544.4 486.287 656 540.987C666.3 545.987 668.1 517.987 668 499.987C667.5 444.187 668.1 407.187 677.4 346.987C679.8 331.187 700.7 311.987 705.7 315.087C726.7 328.387 701.7 414.287 701.1 459.387C700.2 533.887 721.9 545.087 739.3 540.187C750.9 536.987 781.1 471.887 800 449.887C825.5 420.087 851.1 389.487 862.4 415.987C869.7 433.287 836.9 447.287 808.9 488.887C760.3 560.887 764.9 599.987 799 608.087C836.8 617.087 885 604.387 944.1 594.087C1054.2 574.887 1130.7 566.687 1123.4 596.887C1114 635.887 875.7 596.387 835.6 689.887C791.4 792.987 811.8 971.587 858.5 1215.29C871.4 1283.29 942.6 1342.79 886.8 1380.59Z" fill="#F7F2EE"/>
<path opacity="0.9116" d="M886.8 1380.59C821.2 1425.09 632.8 1371.59 652.1 1340.59C678.9 1297.69 690.1 1214.39 693.6 1163.89C705.8 989.887 768.5 907.487 688.3 742.887C679.3 724.387 660.6 696.487 636.7 676.187C609.3 652.987 490.3 597.287 433 567.487C413.5 557.387 406.4 532.087 416.8 533.587C514.7 547.887 585.7 639.187 651.9 610.187C673.5 600.787 547.2 509.987 522.6 465.687C507.1 437.687 498.1 413.587 521.8 397.587C546.5 380.887 544.4 486.287 656 540.987C666.3 545.987 668.1 517.987 668 499.987C667.5 444.187 668.1 407.187 677.4 346.987C679.8 331.187 700.7 311.987 705.7 315.087C726.7 328.387 701.7 414.287 701.1 459.387C700.2 533.887 721.9 545.087 739.3 540.187C750.9 536.987 781.1 471.887 800 449.887C825.5 420.087 851.1 389.487 862.4 415.987C869.7 433.287 836.9 447.287 808.9 488.887C760.3 560.887 764.9 599.987 799 608.087C836.8 617.087 885 604.387 944.1 594.087C1054.2 574.887 1130.7 566.687 1123.4 596.887C1114 635.887 875.7 596.387 835.6 689.887C791.4 792.987 811.8 971.587 858.5 1215.29C871.4 1283.29 942.6 1342.79 886.8 1380.59Z" stroke="#161616" stroke-width="8" stroke-miterlimit="10" stroke-linecap="round" stroke-linejoin="round"/>
<path opacity="0.9116" d="M729.3 1046.29C727.2 1046.79 733.3 1048.19 734.9 1049.59C739.5 1053.59 743.2 1058.19 746.5 1063.39C754.7 1076.29 756.5 1090.29 757 1105.29C758.2 1140.29 757.7 1175.19 760.5 1210.19C762.5 1234.49 768.7 1258.99 768.4 1283.39C767.8 1344.39 690.6 1341.59 685.6 1284.89" stroke="#161616" stroke-width="4" stroke-miterlimit="10" stroke-linecap="round" stroke-linejoin="round"/>
<path opacity="0.9116" d="M699.9 1259.89C694.8 1268.19 720.6 1318.09 739 1291.09C763.2 1255.49 737.2 1163.79 730.5 1122.59C730.1 1120.39 728.5 1105.09 724.8 1105.09C720.1 1105.09 718.7 1117.59 718.6 1120.49C717.9 1144.39 717.4 1169.09 721.2 1192.69C725.1 1216.99 739.7 1245.09 734.4 1269.89C732.7 1277.99 726.1 1282.19 721.8 1273.19" stroke="#161616" stroke-width="4" stroke-miterlimit="10" stroke-linecap="round" stroke-linejoin="round"/>
<path opacity="0.9116" d="M677.6 1338.19C720.6 1387.59 784.7 1369.89 793.9 1303.69C802.1 1244.39 795.6 1140.39 782.3 1081.99C777.1 1059.19 757.7 1036.69 757.7 1012.89" stroke="#161616" stroke-width="4" stroke-miterlimit="10" stroke-linecap="round" stroke-linejoin="round"/>
<path opacity="0.9116" d="M806.7 822.488C795.5 824.288 791.4 954.287 797.6 985.387" stroke="#161616" stroke-width="4" stroke-miterlimit="10" stroke-linecap="round" stroke-linejoin="round"/>
<path opacity="0.9116" d="M799.9 1024.09C800.1 1023.59 800.3 1023.99 800.6 1024.59C804 1031.09 805.2 1039.59 806.9 1046.69C811.9 1068.09 816.4 1089.49 818.9 1111.39C824 1155.09 815.5 1223.39 845.8 1259.49C853.4 1268.59 864.5 1273.19 873.5 1280.69" stroke="#161616" stroke-width="4" stroke-miterlimit="10" stroke-linecap="round" stroke-linejoin="round"/>
<path opacity="0.9116" d="M900.7 1325.79C900.5 1325.89 899 1323.99 898.8 1323.89C884 1309.19 856.2 1302.49 838.7 1316.49C794.2 1352.09 847.4 1411.39 902.5 1365.39" stroke="#161616" stroke-width="4" stroke-miterlimit="10" stroke-linecap="round" stroke-linejoin="round"/>
<path opacity="0.9116" d="M904.5 1343.19C904.1 1344.09 887.6 1336.69 885.8 1336.19C881 1334.89 857.6 1329.39 860.2 1340.69C864 1356.99 889.9 1352.79 900.2 1360.79" stroke="#161616" stroke-width="4" stroke-miterlimit="10" stroke-linecap="round" stroke-linejoin="round"/>
<path opacity="0.9116" d="M444.6 537.688C445 542.688 457.7 552.087 460.9 555.087C524.3 614.187 631 587.387 651.9 676.188" stroke="#161616" stroke-width="4" stroke-miterlimit="10" stroke-linecap="round" stroke-linejoin="round"/>
<path opacity="0.9116" d="M655.4 601.988C655.2 601.788 655.8 601.387 655.8 601.087C659.4 586.287 651.8 568.487 642 557.787C617.8 531.187 514.9 485.087 547.1 435.587" stroke="#161616" stroke-width="4" stroke-miterlimit="10" stroke-linecap="round" stroke-linejoin="round"/>
<path opacity="0.9116" d="M690 326.787C690.3 325.687 689.5 325.587 689 326.587C683.3 338.387 681.2 353.287 678.6 365.987C672.9 393.687 669.4 422.087 669 450.287C668.3 493.987 679.1 560.387 729.2 573.787C743.3 577.587 759.9 577.387 771.2 587.787" stroke="#161616" stroke-width="4" stroke-miterlimit="10" stroke-linecap="round" stroke-linejoin="round"/>
<path opacity="0.9116" d="M774.4 538.787C776.6 538.387 773.9 534.288 774 531.988C774.4 524.488 775.8 517.087 777.3 509.787C782.4 484.887 794.7 460.887 812.4 442.587" stroke="#161616" stroke-width="4" stroke-miterlimit="10" stroke-linecap="round" stroke-linejoin="round"/>
<path opacity="0.9116" d="M847.4 669.387C844.8 671.187 849.6 663.487 851.3 660.787C855.2 654.587 860.2 649.188 865.4 643.988C881.1 628.288 900 618.688 921.4 613.188C962 602.688 1070.1 611.888 1095.4 594.988" stroke="#161616" stroke-width="4" stroke-miterlimit="10" stroke-linecap="round" stroke-linejoin="round"/>
<path opacity="0.9116" d="M890 1365.39C837.6 1375.09 823.6 1319.89 870.7 1320.89" stroke="#161616" stroke-width="4" stroke-miterlimit="10" stroke-linecap="round" stroke-linejoin="round"/>
<path fill-rule="evenodd" clip-rule="evenodd" d="M990.9 523.187C983.9 525.287 964 526.887 956.1 538.087C947.2 550.687 943.2 574.387 965.9 585.387C986.3 595.187 1041.2 571.787 1057.3 579.987C1073.4 588.287 1073.8 559.587 1068.5 549.287C1057.3 527.587 1028.1 512.087 990.9 523.187Z" fill="#F7F2EE"/>
<path opacity="0.9116" d="M990.9 523.187C983.9 525.287 964 526.887 956.1 538.087C947.2 550.687 943.2 574.387 965.9 585.387C986.3 595.187 1041.2 571.787 1057.3 579.987C1073.4 588.287 1073.8 559.587 1068.5 549.287C1057.3 527.587 1028.1 512.087 990.9 523.187Z" stroke="#161616" stroke-width="8" stroke-miterlimit="10" stroke-linecap="round" stroke-linejoin="round"/>
<path fill-rule="evenodd" clip-rule="evenodd" d="M1027.7 515.688C1023.3 518.888 1007 514.188 998.7 528.488C988.7 545.488 990.6 570.587 1015.2 578.287C1043.2 587.087 1084 600.588 1111.3 590.188C1130.2 582.988 1143.3 547.888 1127.9 533.188C1121.3 526.988 1110.1 528.188 1106 523.488C1102 518.888 1105.1 506.187 1097.9 506.087C1085.4 505.887 1088 520.487 1075.4 519.587C1071.2 519.287 1067.8 518.587 1065 517.787C1048.5 512.587 1055.4 499.287 1045.1 498.087C1031.6 496.587 1038.8 513.488 1027.7 515.688Z" fill="#F7F2EE"/>
<path opacity="0.9116" d="M1027.7 515.688C1023.3 518.888 1007 514.188 998.7 528.488C988.7 545.488 990.6 570.587 1015.2 578.287C1043.2 587.087 1084 600.588 1111.3 590.188C1130.2 582.988 1143.3 547.888 1127.9 533.188C1121.3 526.988 1110.1 528.188 1106 523.488C1102 518.888 1105.1 506.187 1097.9 506.087C1085.4 505.887 1088 520.487 1075.4 519.587C1071.2 519.287 1067.8 518.587 1065 517.787C1048.5 512.587 1055.4 499.287 1045.1 498.087C1031.6 496.587 1038.8 513.488 1027.7 515.688Z" stroke="#161616" stroke-width="8" stroke-miterlimit="10" stroke-linecap="round" stroke-linejoin="round"/>
<path opacity="0.9116" d="M1060.7 517.087C1060.8 517.187 1060.6 518.788 1060.6 518.988C1060.5 520.288 1060.2 522.887 1061.4 523.887C1062.4 524.687 1064 520.187 1065 520.387C1066.3 520.687 1065.9 523.287 1067.1 523.887C1068 524.287 1068.8 522.087 1069.5 522.887C1070.1 523.587 1070.3 526.488 1071.4 526.488C1072 526.488 1072.6 525.388 1072.9 524.988C1073.7 523.788 1074.8 519.988 1076.2 519.488C1076.6 519.288 1075.3 519.387 1074.8 519.287C1073.8 518.987 1072.9 518.787 1071.9 518.587C1068.9 517.987 1065.9 517.387 1062.9 517.287" stroke="#161616" stroke-width="4" stroke-miterlimit="10" stroke-linecap="round" stroke-linejoin="round"/>
<path opacity="0.9116" d="M1038.4 540.188C1039.1 540.788 1045.2 539.987 1045.8 539.787C1049.8 538.387 1052.2 536.688 1053.7 533.488" stroke="#161616" stroke-width="4" stroke-miterlimit="10" stroke-linecap="round" stroke-linejoin="round"/>
<path opacity="0.9116" d="M1077.5 534.188C1079 542.088 1086.4 541.987 1091.2 542.787" stroke="#161616" stroke-width="4" stroke-miterlimit="10" stroke-linecap="round" stroke-linejoin="round"/>
<path opacity="0.9116" d="M1063.3 542.887C1059.9 543.487 1062.8 549.387 1064.7 550.287C1069.2 552.287 1071.3 545.587 1067.4 543.387" stroke="#161616" stroke-width="4" stroke-miterlimit="10" stroke-linecap="round" stroke-linejoin="round"/>
<path opacity="0.9116" d="M1063.9 552.688C1063.9 552.688 1063.6 554.388 1063.6 554.488C1063.2 555.688 1062.5 556.888 1061.7 557.988C1059.4 561.288 1056.3 563.888 1052.7 565.688C1045 569.388 1031.6 567.488 1033.9 556.188" stroke="#161616" stroke-width="4" stroke-miterlimit="10" stroke-linecap="round" stroke-linejoin="round"/>
<path opacity="0.9116" d="M1064.1 552.488C1064.2 552.688 1063.8 556.987 1063.9 557.787C1065 562.887 1067.8 568.787 1072.5 571.587C1079.2 575.587 1092.3 568.988 1088.8 560.188" stroke="#161616" stroke-width="4" stroke-miterlimit="10" stroke-linecap="round" stroke-linejoin="round"/>
<path opacity="0.9116" d="M1105.6 551.387C1105.1 551.387 1106.4 550.787 1106.8 550.687C1108.1 550.087 1109.4 549.587 1110.8 549.187C1114.4 547.987 1118.1 546.888 1121.8 545.988C1133.5 543.088 1144.8 541.687 1156.7 544.287" stroke="#161616" stroke-width="4" stroke-miterlimit="10" stroke-linecap="round" stroke-linejoin="round"/>
<path opacity="0.9116" d="M1106.7 563.287C1107.8 561.987 1116.2 562.887 1117.8 562.887C1129.1 562.987 1141.7 563.788 1152.2 568.188" stroke="#161616" stroke-width="4" stroke-miterlimit="10" stroke-linecap="round" stroke-linejoin="round"/>
<path opacity="0.9116" d="M1105.3 575.287C1104.6 576.287 1107.7 575.087 1108.9 575.287C1111.2 575.587 1113.4 576.387 1115.6 577.087C1122.4 579.487 1129.1 582.487 1135.7 585.387" stroke="#161616" stroke-width="4" stroke-miterlimit="10" stroke-linecap="round" stroke-linejoin="round"/>
<path opacity="0.9116" d="M1020.8 535.787C1021.3 535.787 1020.3 534.987 1020.1 534.587C1019.2 533.387 1018.3 532.187 1017.3 531.087C1014.8 528.287 1012.1 525.687 1009.4 523.087C1001.5 515.487 993.2 507.588 983.1 502.988" stroke="#161616" stroke-width="4" stroke-miterlimit="10" stroke-linecap="round" stroke-linejoin="round"/>
<path opacity="0.9116" d="M1011.7 543.787C1012.5 543.087 1009.7 542.787 1008.7 542.387C1006.6 541.587 1004.5 540.788 1002.3 540.188C995.7 538.487 988.7 537.788 981.9 536.988" stroke="#161616" stroke-width="4" stroke-miterlimit="10" stroke-linecap="round" stroke-linejoin="round"/>
<path opacity="0.9116" d="M1014.3 556.488C1014.7 556.788 1013.4 556.488 1012.9 556.488C1012 556.588 1011.2 556.787 1010.3 557.087C1007.4 557.887 1004.5 558.788 1001.7 559.988C993.1 563.488 984.8 567.987 976.9 572.887" stroke="#161616" stroke-width="4" stroke-miterlimit="10" stroke-linecap="round" stroke-linejoin="round"/>
<path opacity="0.9116" d="M739.8 657.087C747.3 668.487 762.6 668.587 770.8 665.287" stroke="#161616" stroke-width="8" stroke-miterlimit="10" stroke-linecap="round" stroke-linejoin="round"/>
<path opacity="0.9116" d="M712.3 662.488C709 674.888 705.2 682.187 693.3 682.887" stroke="#161616" stroke-width="8" stroke-miterlimit="10" stroke-linecap="round" stroke-linejoin="round"/>
<path opacity="0.9116" d="M715.4 704.688C720.9 724.087 734.4 729.188 742 727.188C752.7 724.388 754.4 709.887 752.7 698.387" stroke="#161616" stroke-width="8" stroke-miterlimit="10" stroke-linecap="round" stroke-linejoin="round"/>
<path fill-rule="evenodd" clip-rule="evenodd" d="M726.3 824.087C728.2 822.087 717.2 824.487 716 825.188C709 830.088 704.2 837.888 700.5 845.488C688.7 869.988 678.8 908.687 716.8 930.087C740.9 943.687 768.2 915.688 768.4 888.188C768.6 862.188 755.6 833.288 733.8 823.188" fill="#F7F2EE"/>
<path opacity="0.9116" d="M726.3 824.087C728.2 822.087 717.2 824.488 716 825.188C709 830.088 704.2 837.888 700.5 845.488C688.7 869.988 678.8 908.687 716.8 930.087C740.9 943.687 768.2 915.688 768.4 888.188C768.6 862.188 755.6 833.288 733.8 823.188" stroke="#161616" stroke-width="8" stroke-miterlimit="10" stroke-linecap="round" stroke-linejoin="round"/>
<path fill-rule="evenodd" clip-rule="evenodd" d="M708.9 852.787C706.7 857.487 724.8 857.987 743.3 838.387C744.7 836.987 755.7 856.287 762.1 852.887C772.2 847.487 759.9 823.387 754.6 816.487C752.4 813.587 749.5 811.087 746.3 808.987C737.1 802.887 713.7 786.987 672.5 819.887C637.3 847.887 600.5 812.887 580.7 844.187C536.2 914.387 523.7 856.987 484.4 869.087C471 873.187 541.7 951.187 590.1 914.587C641.8 875.487 665.2 923.987 686.5 920.887C713 916.887 725.2 889.987 708.9 852.787Z" fill="#161616"/>
<path opacity="0.9116" d="M708.9 852.787C706.7 857.487 724.8 857.987 743.3 838.387C744.7 836.987 755.7 856.287 762.1 852.887C772.2 847.487 759.9 823.387 754.6 816.487C752.4 813.587 749.5 811.087 746.3 808.987C737.1 802.887 713.7 786.987 672.5 819.887C637.3 847.887 600.5 812.887 580.7 844.187C536.2 914.387 523.7 856.987 484.4 869.087C471 873.187 541.7 951.187 590.1 914.587C641.8 875.487 665.2 923.987 686.5 920.887C713 916.887 725.2 889.987 708.9 852.787Z" stroke="#161616" stroke-width="8" stroke-miterlimit="10" stroke-linecap="round" stroke-linejoin="round"/>
<path fill-rule="evenodd" clip-rule="evenodd" d="M737.3 951.687C745.5 991.687 735.7 1026.39 727.7 1054.09C690.5 1183.59 743.8 1255.19 727.9 1261.19C681.8 1278.59 655.3 1198.29 483.6 1190.69C422.7 1187.99 367.4 1043.39 397.5 1059.99C473.2 1101.69 576.1 1086.49 624 1022.69C691.1 933.387 672.9 938.587 702.6 932.487C721.9 928.687 737.6 951.487 737.3 951.687Z" fill="#FF69CB"/>
<path opacity="0.9116" d="M737.3 951.687C745.5 991.687 735.7 1026.39 727.7 1054.09C690.5 1183.59 743.8 1255.19 727.9 1261.19C681.8 1278.59 655.3 1198.29 483.6 1190.69C422.7 1187.99 367.4 1043.39 397.5 1059.99C473.2 1101.69 576.1 1086.49 624 1022.69C691.1 933.387 672.9 938.587 702.6 932.487C721.9 928.687 737.6 951.487 737.3 951.687Z" stroke="#161616" stroke-width="8" stroke-miterlimit="10" stroke-linecap="round" stroke-linejoin="round"/>
<path opacity="0.9116" d="M404.3 1103.19C404.5 1102.79 405 1103.59 405.4 1103.79C409 1105.29 412.4 1106.89 416.1 1108.19C424.2 1111.09 432.6 1113.39 441 1115.19C466 1120.79 492.1 1121.59 517 1114.99C591.2 1095.09 645.6 1035.19 684.7 971.787" stroke="#161616" stroke-width="4" stroke-miterlimit="10" stroke-linecap="round" stroke-linejoin="round"/>
<path opacity="0.9116" d="M440.1 1157.09C439.7 1159.69 445.4 1157.09 448.1 1156.99C453.5 1156.69 458.9 1155.59 464.3 1154.69C491.3 1149.79 517.6 1143.59 543 1133.09C621 1100.69 656.5 1054.09 690.9 981.387" stroke="#161616" stroke-width="4" stroke-miterlimit="10" stroke-linecap="round" stroke-linejoin="round"/>
<path opacity="0.9116" d="M523.3 1190.59C528.8 1183.39 558.6 1174.29 567.2 1169.59C582.4 1161.29 597 1151.69 610.8 1141.09C661.8 1102.09 685.3 1046.09 699.1 985.188" stroke="#161616" stroke-width="4" stroke-miterlimit="10" stroke-linecap="round" stroke-linejoin="round"/>
<path opacity="0.9116" d="M606.7 1207.49C606.7 1207.49 608.1 1206.59 608.4 1206.39C610 1204.99 611.7 1203.59 613.3 1202.09C617.9 1197.99 622.4 1193.79 626.7 1189.39C639.4 1176.49 650.4 1161.89 660.5 1146.89C689.6 1103.79 713.6 1047.79 713.6 994.587" stroke="#161616" stroke-width="4" stroke-miterlimit="10" stroke-linecap="round" stroke-linejoin="round"/>
<path opacity="0.9116" d="M726 999.688C725.3 999.388 726.2 1001.29 726.1 1002.19C726 1004.39 725.8 1006.59 725.5 1008.79C724.8 1014.69 724 1020.49 723 1026.39C719.9 1044.79 715.4 1063.09 709.6 1080.79C691.6 1136.09 669.9 1192.89 691.3 1250.99" stroke="#161616" stroke-width="4" stroke-miterlimit="10" stroke-linecap="round" stroke-linejoin="round"/>
<path fill-rule="evenodd" clip-rule="evenodd" d="M699.5 932.888C689.3 929.488 676.9 943.088 678 948.188C680.4 958.588 689 965.888 696.2 974.388C711.3 992.188 802.2 1025.19 817.4 1022.09C833.3 1018.79 834.3 983.687 814.1 993.087C813 993.587 759.6 978.987 749.2 974.787C732.1 967.887 717 951.087 710.4 939.587C707.4 934.487 700 932.988 699.5 932.888Z" fill="#F7F2EE"/>
<path opacity="0.9116" d="M699.5 932.888C689.3 929.488 676.9 943.088 678 948.188C680.4 958.588 689 965.888 696.2 974.388C711.3 992.188 802.2 1025.19 817.4 1022.09C833.3 1018.79 834.3 983.687 814.1 993.087C813 993.587 759.6 978.987 749.2 974.787C732.1 967.887 717 951.087 710.4 939.587C707.4 934.487 700 932.988 699.5 932.888Z" stroke="#161616" stroke-width="8" stroke-miterlimit="10" stroke-linecap="round" stroke-linejoin="round"/>
<path fill-rule="evenodd" clip-rule="evenodd" d="M682.9 1254.49C681.8 1253.69 680.8 1262.69 680.7 1264.09C680.5 1266.99 680.2 1269.99 679.9 1272.89C679.1 1280.29 678.3 1287.69 677.6 1295.19C676 1312.89 673.3 1338.89 674.1 1354.99C674.9 1369.79 694.8 1370.59 696.9 1386.49C697.4 1389.79 680.8 1396.59 677.2 1397.29C669.7 1398.89 660.1 1393.39 654.8 1388.69C632.7 1369.09 640.1 1274.59 644.3 1233.29C645 1226.79 653.6 1237.09 682.9 1254.49Z" fill="#F7F2EE"/>
<path opacity="0.9116" d="M682.9 1254.49C681.8 1253.69 680.8 1262.69 680.7 1264.09C680.5 1266.99 680.2 1269.99 679.9 1272.89C679.1 1280.29 678.3 1287.69 677.6 1295.19C676 1312.89 673.3 1338.89 674.1 1354.99C674.9 1369.79 694.8 1370.59 696.9 1386.49C697.4 1389.79 680.8 1396.59 677.2 1397.29C669.7 1398.89 660.1 1393.39 654.8 1388.69C632.7 1369.09 640.1 1274.59 644.3 1233.29C645 1226.79 653.6 1237.09 682.9 1254.49Z" stroke="#161616" stroke-width="8" stroke-miterlimit="10" stroke-linecap="round" stroke-linejoin="round"/>
<path opacity="0.9116" d="M534.9 1203.59C518.6 1212.89 501.8 1228.19 478.1 1252.79C458.8 1272.89 496.4 1297.09 457.8 1297.39C450.1 1297.49 424.3 1255.89 443.6 1239.29C471.8 1215.19 488.6 1200.89 493.3 1196.59" stroke="#161616" stroke-width="8" stroke-miterlimit="10" stroke-linecap="round" stroke-linejoin="round"/>
<path opacity="0.9116" d="M728.4 878.488C728.2 878.088 728.5 877.287 728.6 876.887C729.2 875.287 730.3 873.787 731.7 872.787C735.5 869.687 740.7 869.687 744.1 873.087" stroke="#161616" stroke-width="4" stroke-miterlimit="10" stroke-linecap="round" stroke-linejoin="round"/>
<path opacity="0.9116" d="M734.5 901.787C734.7 902.387 734.4 903.187 734.5 903.787C734.8 905.887 735.7 908.187 737.1 909.887C737.7 910.587 738.4 911.188 739.1 911.688C745.5 915.487 750.5 907.587 752.4 903.087" stroke="#161616" stroke-width="4" stroke-miterlimit="10" stroke-linecap="round" stroke-linejoin="round"/>
<path opacity="0.9116" d="M949.5 544.387C949.6 547.287 934.8 536.087 934.1 535.287C931.8 532.687 929.9 529.887 928.3 526.787C920.3 510.787 925.9 493.387 936.4 479.887C958.1 451.887 995.9 455.787 1021.7 433.887C1032.7 424.587 1053.4 385.788 1025.1 382.988" stroke="#161616" stroke-width="4" stroke-miterlimit="10" stroke-linecap="round" stroke-linejoin="round"/>
<path opacity="0.9116" d="M1020.1 381.387C1018.6 382.687 1023.6 379.587 1025.2 378.287C1026.6 377.087 1036.9 366.087 1032.3 364.687C1021.6 361.587 1012.8 389.387 1019.4 396.787C1023.9 401.887 1027 385.887 1019.4 382.587C1018.7 382.287 1017.9 382.487 1017.4 382.987C1016.7 383.587 996.4 407.787 994.8 396.087C993 382.787 1038.6 369.787 1029.9 352.287C1022.8 338.187 1013 369.287 1012.1 372.387C1011.9 373.087 1011.7 373.787 1011.1 374.187C1004.3 379.087 991.9 372.187 986 380.787C985.7 381.187 985.3 381.987 985.8 382.387C996.6 390.787 1020.6 364.987 1012.3 351.487C1005.6 340.587 998.4 361.587 1000.1 367.487C1000.2 367.887 1001.7 372.087 1002.4 371.687C1003.1 371.287 1001.6 368.187 1001.4 367.787C998.6 361.587 981 342.487 973.9 353.287C967.7 362.787 997.6 371.287 1003.2 373.387" stroke="#161616" stroke-width="4" stroke-miterlimit="10" stroke-linecap="round" stroke-linejoin="round"/>
<path opacity="0.9116" d="M1199.5 1381.19C1205.9 1373.59 1220.3 1356.39 1219.4 1343.99C1219.2 1341.59 1217.1 1342.49 1216 1343.09C1206 1348.19 1198.2 1359.89 1190.5 1368.89C1189.8 1369.69 1187.7 1372.69 1186.5 1371.49C1182.6 1367.49 1207.3 1328.49 1200.7 1324.19C1193.5 1319.49 1172.4 1357.09 1168.5 1356.69C1162.4 1355.99 1168.5 1314.49 1157.9 1316.49C1144.9 1318.99 1157.1 1354.99 1152.8 1358.99C1151.9 1359.79 1150.2 1357.59 1149.6 1356.99C1144.2 1351.09 1121.7 1313.39 1117.8 1315.59C1115.2 1317.09 1118.2 1324.89 1118.9 1326.79C1122.8 1337.99 1130 1353.69 1126.9 1357.49C1124.1 1361.09 1111.4 1353.29 1102.5 1349.99C1093.1 1346.59 1094.3 1356.59 1099.8 1361.19C1107.3 1367.39 1113.5 1378.49 1116.8 1381.59" stroke="#161616" stroke-width="4" stroke-miterlimit="10" stroke-linecap="round" stroke-linejoin="round"/>
<path opacity="0.9116" d="M308.6 1385.09C301.3 1379.19 284.9 1365.79 285.3 1355.59C285.4 1353.59 287.7 1354.29 289 1354.69C300.1 1358.39 309.1 1367.69 317.9 1374.59C318.7 1375.19 321.1 1377.59 322.3 1376.59C326.4 1373.19 297.9 1342.39 304.8 1338.59C312.5 1334.39 337 1364.19 341.2 1363.69C347.8 1362.89 339.4 1329.19 351 1330.39C365.2 1331.89 353.6 1361.79 358.4 1364.79C359.4 1365.39 361.2 1363.59 361.8 1363.09C367.4 1358.09 390.3 1326.29 394.6 1327.89C397.5 1328.99 394.5 1335.49 393.9 1337.09C390.2 1346.39 383 1359.49 386.5 1362.49C389.8 1365.29 403.2 1358.39 412.7 1355.29C422.7 1352.09 421.9 1360.39 416.1 1364.39C408.3 1369.79 401.9 1379.09 398.5 1381.79" stroke="#161616" stroke-width="4" stroke-miterlimit="10" stroke-linecap="round" stroke-linejoin="round"/>
<path fill-rule="evenodd" clip-rule="evenodd" d="M776.6 774.487C774.8 766.587 752.7 760.887 751.6 772.287C750.4 784.187 782.2 797.487 788.1 786.987C790.5 782.787 792.7 766.287 791.3 760.587C787.9 746.887 765.4 749.387 775.7 775.187" fill="#FF69CB"/>
<path opacity="0.9116" d="M776.6 774.487C774.8 766.587 752.7 760.887 751.6 772.287C750.4 784.187 782.2 797.487 788.1 786.987C790.5 782.787 792.7 766.287 791.3 760.587C787.9 746.887 765.4 749.387 775.7 775.187" stroke="#161616" stroke-width="4" stroke-miterlimit="10" stroke-linecap="round" stroke-linejoin="round"/>
<path opacity="0.9116" d="M975.8 1406.59C952.2 1355.39 928.3 1084.89 968.7 1081.29C972.3 1080.99 974.9 1088.19 975.8 1090.59C1002.3 1157.09 993.1 1247.39 990.4 1317.29C989.4 1343.99 988.4 1370.99 985.4 1397.49C985.2 1398.89 985.1 1403.29 985.1 1401.89C985.1 1313.49 981.5 1210.99 1009.9 1126.39C1011.3 1122.29 1015.5 1106.09 1022.8 1110.39C1057.4 1130.79 1000.8 1358.69 985.3 1402.09C981 1414.19 977.2 1372.69 976.6 1369.29C973 1348.39 970 1327.39 967 1306.39C963.2 1279.69 961.1 1252.59 959.5 1225.69C957 1185.19 955.5 1143.09 961.1 1102.69" stroke="#161616" stroke-width="4" stroke-miterlimit="10" stroke-linecap="round" stroke-linejoin="round"/>
<path opacity="0.9116" d="M994.8 1401.49C995.5 1404.99 997.3 1394.79 998.7 1391.49C1001.7 1384.49 1004.9 1377.79 1008.5 1371.19C1014.1 1360.99 1053.2 1295.79 1064.8 1301.69C1087.1 1313.19 1013.9 1387.69 1000.5 1398.59" stroke="#161616" stroke-width="4" stroke-miterlimit="10" stroke-linecap="round" stroke-linejoin="round"/>
</svg>
