<svg width="1500" height="1500" viewBox="0 0 1500 1500" fill="none" xmlns="http://www.w3.org/2000/svg">
<rect width="1500" height="1500" fill="#F7F2EE"/>
<path fill-rule="evenodd" clip-rule="evenodd" d="M295.3 823C283.3 828 275.8 842 272.9 854.9C268.5 874.7 272.5 890.1 278.3 901.4C304.4 952.4 339.4 928.1 369.9 970.8C378.2 982.5 374 1011 367.8 1021.7C347 1057.5 283.1 1050.4 276.7 1112.8C274.5 1134.4 293 1166 312.2 1174.4C359.3 1195.2 438.4 1197.3 486.4 1167.1C514 1149.7 514.6 1139.6 516.7 1121.9C527.3 1033.6 436.8 1059.1 408.6 1019.6C402 1010.4 397.6 1006.8 398.3 988.1C398.9 969.6 392.6 969.7 451.6 928.9C467 918.3 488.6 893.5 488.1 872.1C487.5 850.2 477.9 826 457.9 806.8C426.8 777.1 315.7 814.5 295.3 823Z" fill="#F7F2EE"/>
<path opacity="0.9116" d="M295.3 823C283.3 828 275.8 842 272.9 854.9C268.5 874.7 272.5 890.1 278.3 901.4C304.4 952.4 339.4 928.1 369.9 970.8C378.2 982.5 374 1011 367.8 1021.7C347 1057.5 283.1 1050.4 276.7 1112.8C274.5 1134.4 293 1166 312.2 1174.4C359.3 1195.2 438.4 1197.3 486.4 1167.1C514 1149.7 514.6 1139.6 516.7 1121.9C527.3 1033.6 436.8 1059.1 408.6 1019.6C402 1010.4 397.6 1006.8 398.3 988.1C398.9 969.6 392.6 969.7 451.6 928.9C467 918.3 488.6 893.5 488.1 872.1C487.5 850.2 477.9 826 457.9 806.8C426.8 777.1 315.7 814.5 295.3 823Z" stroke="#161616" stroke-width="8" stroke-miterlimit="10" stroke-linecap="round" stroke-linejoin="round"/>
<path opacity="0.9116" d="M299.2 924.6C298.9 924.7 299.9 923.9 300 923.9C301 923.1 302.1 922.4 303.1 921.7C305.8 920.1 308.6 918.7 311.5 917.5C320.3 913.8 329.8 911.3 339.3 910.1C358.9 907.7 377.7 912.4 397.1 913.3C409.6 913.9 421.5 911.7 433.8 909.4C440 908.2 457.4 904.3 458.3 914.8C459.3 926.1 429.7 925.6 423.2 925.9C395.4 927.3 367.3 920.3 339.5 922.4C334.3 922.8 327.9 925.2 321.6 926.9C314.2 928.9 307 930 301.7 925.8" stroke="#161616" stroke-width="4" stroke-miterlimit="10" stroke-linecap="round" stroke-linejoin="round"/>
<path d="M401 1062.5C400.9 1061.4 399.9 1064.5 399.3 1065.4" stroke="#161616" stroke-width="4" stroke-miterlimit="10" stroke-linecap="round" stroke-linejoin="round"/>
<path d="M382.6 1091.5C382.9 1091.7 383.3 1092 383.6 1092.3" stroke="#161616" stroke-width="4" stroke-miterlimit="10" stroke-linecap="round" stroke-linejoin="round"/>
<path d="M388.4 1110.6C387.9 1110.5 388.5 1111.6 388.5 1112.1" stroke="#161616" stroke-width="4" stroke-miterlimit="10" stroke-linecap="round" stroke-linejoin="round"/>
<path d="M348 934C348.3 933.8 348.7 934.2 349.1 934.3" stroke="#161616" stroke-width="4" stroke-miterlimit="10" stroke-linecap="round" stroke-linejoin="round"/>
<path d="M364.7 947.4C364.7 947.6 365.2 947.8 365.4 947.8" stroke="#161616" stroke-width="4" stroke-miterlimit="10" stroke-linecap="round" stroke-linejoin="round"/>
<path d="M436.7 917.4C436.6 917.4 437.1 917.3 437.2 917.3" stroke="#161616" stroke-width="4" stroke-miterlimit="10" stroke-linecap="round" stroke-linejoin="round"/>
<path d="M342 916.1H342.6" stroke="#161616" stroke-width="4" stroke-miterlimit="10" stroke-linecap="round" stroke-linejoin="round"/>
<path d="M344.4 1157.5C344.4 1157.6 344.9 1157.7 345 1157.8" stroke="#161616" stroke-width="4" stroke-miterlimit="10" stroke-linecap="round" stroke-linejoin="round"/>
<path opacity="0.9116" d="M376.8 939.7C376.4 940 377.7 939.5 378.1 939.4" stroke="#161616" stroke-width="4" stroke-miterlimit="10" stroke-linecap="round" stroke-linejoin="round"/>
<path opacity="0.9116" d="M397.5 939.3C397.7 939.5 399 939.3 399.2 939.3" stroke="#161616" stroke-width="4" stroke-miterlimit="10" stroke-linecap="round" stroke-linejoin="round"/>
<path opacity="0.9116" d="M412.4 944.5H412.5" stroke="#161616" stroke-width="4" stroke-miterlimit="10" stroke-linecap="round" stroke-linejoin="round"/>
<path opacity="0.9116" d="M386.2 957.1C385.6 957.2 387.3 957 387.9 957" stroke="#161616" stroke-width="4" stroke-miterlimit="10" stroke-linecap="round" stroke-linejoin="round"/>
<path opacity="0.9116" d="M383.7 972.6C383 972.5 385.2 972.6 385.9 972.5" stroke="#161616" stroke-width="4" stroke-miterlimit="10" stroke-linecap="round" stroke-linejoin="round"/>
<path opacity="0.9116" d="M385.9 992.5C385.9 993 386.8 992.3 387.2 992.2" stroke="#161616" stroke-width="4" stroke-miterlimit="10" stroke-linecap="round" stroke-linejoin="round"/>
<path opacity="0.9116" d="M373.2 1020.5C373.4 1020.3 374.2 1020.3 374.4 1020.2" stroke="#161616" stroke-width="4" stroke-miterlimit="10" stroke-linecap="round" stroke-linejoin="round"/>
<path opacity="0.9116" d="M397.8 1022.3C395.4 1023.4 392 1024.1 389.1 1024.6" stroke="#161616" stroke-width="4" stroke-miterlimit="10" stroke-linecap="round" stroke-linejoin="round"/>
<path opacity="0.9116" d="M381.1 1041.8C381 1042.1 383.9 1042.1 384.1 1042.1" stroke="#161616" stroke-width="4" stroke-miterlimit="10" stroke-linecap="round" stroke-linejoin="round"/>
<path opacity="0.9116" d="M376 1067.4C376.6 1066.9 378.5 1067.1 379.2 1067.1" stroke="#161616" stroke-width="4" stroke-miterlimit="10" stroke-linecap="round" stroke-linejoin="round"/>
<path opacity="0.9116" d="M303 1159.4C301.8 1158.4 303.9 1155.1 304.5 1154.3C313.5 1141.9 330.2 1139.2 344.2 1137.2C367.8 1133.8 404.9 1108.1 426.6 1127.7" stroke="#161616" stroke-width="4" stroke-miterlimit="10" stroke-linecap="round" stroke-linejoin="round"/>
<path fill-rule="evenodd" clip-rule="evenodd" d="M272.8 800.1C262.4 840.7 266.8 835 283.8 832.6C297.3 830.7 344.9 817 388.6 817.6C473.3 818.7 486.4 837.4 484.5 819.1C483.8 812.5 487.8 798.3 477.3 792.7C460.4 783.7 395.9 777.5 378.5 778.2C335.2 779.9 276.3 786.6 272.8 800.1Z" fill="#F7F2EE"/>
<path opacity="0.9116" d="M272.8 800.1C262.4 840.7 266.8 835 283.8 832.6C297.3 830.7 344.9 817 388.6 817.6C473.3 818.7 486.4 837.4 484.5 819.1C483.8 812.5 487.8 798.3 477.3 792.7C460.4 783.7 395.9 777.5 378.5 778.2C335.2 779.9 276.3 786.6 272.8 800.1Z" stroke="#161616" stroke-width="8" stroke-miterlimit="10" stroke-linecap="round" stroke-linejoin="round"/>
<path fill-rule="evenodd" clip-rule="evenodd" d="M489 1185.3C489.7 1143.4 491.5 1157.6 474.5 1160.2C461.1 1162.2 417 1173.3 373.3 1173.3C368.4 1173.3 363.7 1173.2 359.3 1173.1C287.1 1170.8 275.1 1151.8 277.1 1169C277.9 1175.6 271.9 1181.7 282.4 1187.2C299.5 1196 365.2 1200.1 382.5 1199.3C425.7 1197.1 488.9 1190.4 489 1185.3Z" fill="#F7F2EE"/>
<path opacity="0.9116" d="M489 1185.3C489.7 1143.4 491.5 1157.6 474.5 1160.2C461.1 1162.2 417 1173.3 373.3 1173.3C368.4 1173.3 363.7 1173.2 359.3 1173.1C287.1 1170.8 275.1 1151.8 277.1 1169C277.9 1175.6 271.9 1181.7 282.4 1187.2C299.5 1196 365.2 1200.1 382.5 1199.3C425.7 1197.1 488.9 1190.4 489 1185.3Z" stroke="#161616" stroke-width="8" stroke-miterlimit="10" stroke-linecap="round" stroke-linejoin="round"/>
<path fill-rule="evenodd" clip-rule="evenodd" d="M291 698.4C281.3 701 246.3 709.1 238.3 732.4C225.5 769.8 238.7 796.5 271.5 807.3C307 818.9 397.6 785.1 418.6 798.7C439.6 812.3 442.5 764 436.4 748.2C423.7 714.9 342.6 684.9 291 698.4Z" fill="#F7F2EE"/>
<path opacity="0.9116" d="M291 698.4C281.3 701 246.3 709.1 238.3 732.4C225.5 769.8 238.7 796.5 271.5 807.3C307 818.9 397.6 785.1 418.6 798.7C439.6 812.3 442.5 764 436.4 748.2C423.7 714.9 342.6 684.9 291 698.4Z" stroke="#161616" stroke-width="8" stroke-miterlimit="10" stroke-linecap="round" stroke-linejoin="round"/>
<path d="M239 741C238.1 740.6 240.9 740.5 241.8 740.4C243.7 740.1 245.6 739.8 247.5 739.6C251.9 739.1 260.7 737.1 264.7 739.5C266.9 740.7 253.5 746.499 255.4 748.699C259.3 753.299 282.2 751.1 283.4 753.6C283.8 754.5 281.4 755.4 280.9 755.6C276.2 757.6 259.4 760.5 257.2 764.5C254.4 769.7 279.3 767.1 273.1 771.5C271.5 772.6 269.7 773.3 267.9 774.1C266.4 774.7 264.9 775.3 263.4 775.9C261.2 776.8 259 777.6 256.8 778.4" stroke="#161616" stroke-width="4" stroke-miterlimit="10" stroke-linecap="round" stroke-linejoin="round"/>
<path fill-rule="evenodd" clip-rule="evenodd" d="M378.5 712.6C373.1 717.8 350.5 715 341.8 736C331.4 761 338.4 794.3 372.7 799.5C411.9 805.3 469.1 814.9 504 795.1C528.1 781.4 539.6 731.4 516.2 715.1C506.3 708.2 491.4 712.2 485.1 706.7C479 701.4 480.8 683.7 471.1 685.1C454.2 687.5 464.9 706.9 447.8 708.3C442 708.8 426.1 709.2 422.2 708.6C399.2 705.1 412.8 685 398.6 685.6C380.3 686.1 393 707.2 378.5 712.6Z" fill="#F7F2EE"/>
<path opacity="0.9116" d="M378.5 712.6C373.1 717.8 350.5 715 341.8 736C331.4 761 338.4 794.3 372.7 799.5C411.9 805.3 469.1 814.9 504 795.1C528.1 781.4 539.6 731.4 516.2 715.1C506.3 708.2 491.4 712.2 485.1 706.7C479 701.4 480.8 683.7 471.1 685.1C454.2 687.5 464.9 706.9 447.8 708.3C442 708.8 426.1 709.2 422.2 708.6C399.2 705.1 412.8 685 398.6 685.6C380.3 686.1 393 707.2 378.5 712.6Z" stroke="#161616" stroke-width="8" stroke-miterlimit="10" stroke-linecap="round" stroke-linejoin="round"/>
<path opacity="0.9116" fill-rule="evenodd" clip-rule="evenodd" d="M423.3 708.5C417.8 707.7 419.7 710.6 419.7 710.8C419.8 712.6 418.8 718.7 425 717.6C426.8 717.3 428.1 712.3 429.5 712.5C431.3 712.8 430.9 719.9 432.5 720.6C433.7 721.1 434.7 714.4 435.8 715.3C436.7 716.1 438.2 721.3 438.8 719.9C439.7 717.8 444.4 709.3 444.3 712.2C443.6 725 450.9 716.8 452 709C452.3 707.1 442.7 710.7 444.6 709.8C445.2 709.5 443.3 709.8 442.7 709.7C441.4 709.5 440 709.2 438.7 709.1C434.6 708.6 430.5 708.2 426.4 708.4" fill="black"/>
<path opacity="0.9116" d="M423.3 708.5C417.8 707.7 419.7 710.6 419.7 710.8C419.8 712.6 418.8 718.7 425 717.6C426.8 717.3 428.1 712.3 429.5 712.5C431.3 712.8 430.9 719.9 432.5 720.6C433.7 721.1 434.7 714.4 435.8 715.3C436.7 716.1 438.2 721.3 438.8 719.9C439.7 717.8 444.4 709.3 444.3 712.2C443.6 725 450.9 716.8 452 709C452.3 707.1 442.7 710.7 444.6 709.8C445.2 709.5 443.3 709.8 442.7 709.7C441.4 709.5 440 709.2 438.7 709.1C434.6 708.6 430.5 708.2 426.4 708.4" stroke="#161616" stroke-width="4" stroke-miterlimit="10" stroke-linecap="round" stroke-linejoin="round"/>
<path opacity="0.9116" d="M414.8 736.6C414.3 733.1 413.3 728.5 407.7 726.5C402 724.5 397.2 728 394.7 733.2" stroke="#161616" stroke-width="4" stroke-miterlimit="10" stroke-linecap="round" stroke-linejoin="round"/>
<path opacity="0.9116" d="M467.2 739.9C466.1 736.5 464.3 732.2 458.5 731.3C452.6 730.4 448.4 734.8 446.9 740.3" stroke="#161616" stroke-width="4" stroke-miterlimit="10" stroke-linecap="round" stroke-linejoin="round"/>
<path opacity="0.9116" d="M427.1 740.7C422.6 741.2 420.3 752.4 426.7 753.7C439.9 756.5 442.9 738.9 427.1 740.7Z" stroke="#161616" stroke-width="4" stroke-miterlimit="10" stroke-linecap="round" stroke-linejoin="round"/>
<path opacity="0.9116" d="M427.6 755.6C427.7 755.6 426.8 773.1 412.7 775.9C401.4 778.2 387.1 768.6 395.1 757" stroke="#161616" stroke-width="4" stroke-miterlimit="10" stroke-linecap="round" stroke-linejoin="round"/>
<path opacity="0.9116" d="M427.8 756.9C428.5 763.9 433.1 772.6 438.9 777C447.4 783.5 466.1 776.3 462.6 763.9" stroke="#161616" stroke-width="4" stroke-miterlimit="10" stroke-linecap="round" stroke-linejoin="round"/>
<path opacity="0.9116" d="M499.8 741.7C499.2 741.7 500.8 740.9 501.3 740.5C503 739.5 504.7 738.7 506.5 737.9C511.3 735.8 516.1 733.9 521 732.1C536.5 726.7 551.6 723.5 567.9 725.6" stroke="#161616" stroke-width="4" stroke-miterlimit="10" stroke-linecap="round" stroke-linejoin="round"/>
<path opacity="0.9116" d="M502.4 757.8C503.8 755.9 515.2 756 517.3 755.9C532.6 754.6 549.6 754.1 564.2 758.9" stroke="#161616" stroke-width="4" stroke-miterlimit="10" stroke-linecap="round" stroke-linejoin="round"/>
<path opacity="0.9116" d="M501.6 774.2C500.7 775.6 504.8 773.6 506.4 773.7C509.5 773.9 512.6 774.6 515.7 775.4C525.1 777.8 534.4 781.1 543.6 784.2" stroke="#161616" stroke-width="4" stroke-miterlimit="10" stroke-linecap="round" stroke-linejoin="round"/>
<path opacity="0.9116" d="M360.2 729.1C360.8 728.9 359.4 728.3 358.9 728C357.5 726.9 355.9 725.9 354.3 724.9C350.4 722.5 346.2 720.4 342.1 718.3C330.1 712.2 317.4 705.9 303.6 704.2" stroke="#161616" stroke-width="4" stroke-miterlimit="10" stroke-linecap="round" stroke-linejoin="round"/>
<path opacity="0.9116" d="M351.6 742C352.4 740.8 348.9 741.6 347.5 741.5C344.7 741.3 341.8 741.2 339 741.3C330.4 741.7 321.6 743.5 313.1 745" stroke="#161616" stroke-width="4" stroke-miterlimit="10" stroke-linecap="round" stroke-linejoin="round"/>
<path opacity="0.9116" d="M358.8 756.1C359.4 756.3 357.6 756.4 357.1 756.7C356.1 757.2 355.1 757.8 354.1 758.3C350.8 760.3 347.6 762.5 344.6 764.9C335.2 772.2 326.5 780.7 318.4 789.5" stroke="#161616" stroke-width="4" stroke-miterlimit="10" stroke-linecap="round" stroke-linejoin="round"/>
<path opacity="0.9116" d="M246.9 712.8C240 691.8 258.9 677.6 312.4 664C325.4 660.7 373.3 640.6 352.2 590.9" stroke="#161616" stroke-width="4" stroke-miterlimit="10" stroke-linecap="round" stroke-linejoin="round"/>
<path fill-rule="evenodd" clip-rule="evenodd" d="M317.7 544C313.9 539 314.4 533.8 314.4 532C314.2 528 314.4 523.5 315.1 523.2C315.7 523 317 523.8 317.5 524.1C319.5 525.2 333 537.7 332.7 540.4" fill="#F1598E"/>
<path opacity="0.9116" d="M317.7 544C313.9 539 314.4 533.8 314.4 532C314.2 528 314.4 523.5 315.1 523.2C315.7 523 317 523.8 317.5 524.1C319.5 525.2 333 537.7 332.7 540.4" stroke="black" stroke-width="4" stroke-miterlimit="10" stroke-linecap="round" stroke-linejoin="round"/>
<path fill-rule="evenodd" clip-rule="evenodd" d="M326.9 545.9C325.9 534.8 328.2 516.9 328.4 516.8C329.3 516.4 336.5 521.7 345.3 534.1C348.8 539.1 338.7 558.5 338.9 559.5" fill="#F1598E"/>
<path opacity="0.9116" d="M326.9 545.9C325.9 534.8 328.2 516.9 328.4 516.8C329.3 516.4 336.5 521.7 345.3 534.1C348.8 539.1 338.7 558.5 338.9 559.5" stroke="black" stroke-width="4" stroke-miterlimit="10" stroke-linecap="round" stroke-linejoin="round"/>
<path fill-rule="evenodd" clip-rule="evenodd" d="M378.7 535.8C378.1 535.8 383.5 525.8 383.9 525.4C384.7 524.6 385.4 523.8 386.3 523C388.4 521.2 390.8 518.3 393.9 518.5C396.9 518.7 393.4 542.7 393 544.6" fill="#F1598E"/>
<path opacity="0.9116" d="M378.7 535.8C378.1 535.8 383.5 525.8 383.9 525.4C384.7 524.6 385.4 523.8 386.3 523C388.4 521.2 390.8 518.3 393.9 518.5C396.9 518.7 393.4 542.7 393 544.6" stroke="black" stroke-width="4" stroke-miterlimit="10" stroke-linecap="round" stroke-linejoin="round"/>
<path fill-rule="evenodd" clip-rule="evenodd" d="M365.6 543.8C366 542.9 367.9 534.8 369.8 529.3C372.5 521.6 375.5 515.9 377.4 516C378.9 516.1 381.8 522.5 383 530.5C384.3 539 383.7 549.1 383.4 550.7" fill="#F1598E"/>
<path opacity="0.9116" d="M365.6 543.8C366 542.9 367.9 534.8 369.8 529.3C372.5 521.6 375.5 515.9 377.4 516C378.9 516.1 381.8 522.5 383 530.5C384.3 539 383.7 549.1 383.4 550.7" stroke="black" stroke-width="4" stroke-miterlimit="10" stroke-linecap="round" stroke-linejoin="round"/>
<path fill-rule="evenodd" clip-rule="evenodd" d="M335.3 552.6C335.1 552.7 333.2 550.2 333 550C329.4 546.2 310.7 533.1 307.1 533.4C304.7 533.6 303.1 550.9 305.1 555.4C311.9 570.6 325.8 579.8 342.8 585.8" fill="#F1598E"/>
<path opacity="0.9116" d="M335.3 552.6C335.1 552.7 333.2 550.2 333 550C329.4 546.2 310.7 533.1 307.1 533.4C304.7 533.6 303.1 550.9 305.1 555.4C311.9 570.6 325.8 579.8 342.8 585.8" stroke="black" stroke-width="4" stroke-miterlimit="10" stroke-linecap="round" stroke-linejoin="round"/>
<path fill-rule="evenodd" clip-rule="evenodd" d="M374.9 549C374.9 549 379 543.7 381.1 541.9C384.2 539.3 402.4 524.9 405.2 531.4C406.8 535.2 403.5 548.3 402.6 552.1C397.1 575.9 377.3 584 353.8 586.7" fill="#F1598E"/>
<path opacity="0.9116" d="M374.9 549C374.9 549 379 543.7 381.1 541.9C384.2 539.3 402.4 524.9 405.2 531.4C406.8 535.2 403.5 548.3 402.6 552.1C397.1 575.9 377.3 584 353.8 586.7" stroke="black" stroke-width="4" stroke-miterlimit="10" stroke-linecap="round" stroke-linejoin="round"/>
<path fill-rule="evenodd" clip-rule="evenodd" d="M349.5 588.4C347.6 588 352.1 591.3 353.8 592.4C357.3 594.7 375.8 603.1 386.2 601.8C388.9 601.5 415.3 596.3 410.8 591.8C394.9 576.3 354.1 585.6 349.5 588.4Z" fill="#F1598E"/>
<path opacity="0.9116" d="M349.5 588.4C347.6 588 352.1 591.3 353.8 592.4C357.3 594.7 375.8 603.1 386.2 601.8C388.9 601.5 415.3 596.3 410.8 591.8C394.9 576.3 354.1 585.6 349.5 588.4Z" stroke="black" stroke-width="4" stroke-miterlimit="10" stroke-linecap="round" stroke-linejoin="round"/>
<path fill-rule="evenodd" clip-rule="evenodd" d="M346.2 585.8C344.7 585.6 342.9 580.9 342.3 579.8C331.4 558.8 337.7 543.9 348.4 524.9C349.6 522.7 352.1 515.6 354.9 515C357.8 514.3 370 537.6 371.1 540.6C378.5 561.5 367 579.4 347.5 586.9" fill="#F1598E"/>
<path opacity="0.9116" d="M346.2 585.8C344.7 585.6 342.9 580.9 342.3 579.8C331.4 558.8 337.7 543.9 348.4 524.9C349.6 522.7 352.1 515.6 354.9 515C357.8 514.3 370 537.6 371.1 540.6C378.5 561.5 367 579.4 347.5 586.9" stroke="black" stroke-width="4" stroke-miterlimit="10" stroke-linecap="round" stroke-linejoin="round"/>
<path fill-rule="evenodd" clip-rule="evenodd" d="M343.9 588.1C314.7 565.9 287.1 578.699 286 586.699C285.6 589.499 304.3 592.799 307.8 594.699C319.4 601.199 336.7 588.5 343.9 588.1Z" fill="#F1598E"/>
<path opacity="0.9116" d="M343.9 588.1C314.7 565.9 287.1 578.699 286 586.699C285.6 589.499 304.3 592.799 307.8 594.699C319.4 601.199 336.7 588.5 343.9 588.1Z" stroke="black" stroke-width="4" stroke-miterlimit="10" stroke-linecap="round" stroke-linejoin="round"/>
<path fill-rule="evenodd" clip-rule="evenodd" d="M344.6 587C344.6 586.9 341.1 588.7 341 588.8C331.6 594.4 326.6 604.5 321.6 613.7C321.4 614 320.4 615.2 320.9 615.6C327.7 621.1 348.6 615.1 355.3 605.8C358.7 601 360.5 595.3 351 590" fill="#F1598E"/>
<path opacity="0.9116" d="M344.6 587C344.6 586.9 341.1 588.7 341 588.8C331.6 594.4 326.6 604.5 321.6 613.7C321.4 614 320.4 615.2 320.9 615.6C327.7 621.1 348.6 615.1 355.3 605.8C358.7 601 360.5 595.3 351 590" stroke="black" stroke-width="4" stroke-miterlimit="10" stroke-linecap="round" stroke-linejoin="round"/>
<path opacity="0.9116" d="M328 1155.5C327.7 1155.3 328.5 1155.3 328.7 1155.3" stroke="#161616" stroke-width="4" stroke-miterlimit="10" stroke-linecap="round" stroke-linejoin="round"/>
<path opacity="0.9116" d="M357.2 1146.2C357.6 1145.9 359.1 1146 359.6 1145.9" stroke="#161616" stroke-width="4" stroke-miterlimit="10" stroke-linecap="round" stroke-linejoin="round"/>
<path opacity="0.9116" d="M363.2 1157.1C362.9 1157.5 364.2 1157.2 364.7 1157.3" stroke="#161616" stroke-width="4" stroke-miterlimit="10" stroke-linecap="round" stroke-linejoin="round"/>
<path opacity="0.9116" d="M403.2 1131.3C403.8 1131.5 404.7 1131.4 405.3 1131.5" stroke="#161616" stroke-width="4" stroke-miterlimit="10" stroke-linecap="round" stroke-linejoin="round"/>
<path opacity="0.9116" d="M383 1145.4C382.6 1145.4 384 1145.5 384.1 1145.5" stroke="#161616" stroke-width="4" stroke-miterlimit="10" stroke-linecap="round" stroke-linejoin="round"/>
<path opacity="0.9116" d="M415.3 1152.9C415.1 1152.8 415.8 1152.8 415.8 1152.8" stroke="#161616" stroke-width="4" stroke-miterlimit="10" stroke-linecap="round" stroke-linejoin="round"/>
<path opacity="0.9116" d="M390.4 1158.1C390.3 1158.2 391.1 1158.2 391.2 1158.2" stroke="#161616" stroke-width="4" stroke-miterlimit="10" stroke-linecap="round" stroke-linejoin="round"/>
<path fill-rule="evenodd" clip-rule="evenodd" d="M688.3 1132.6C687.1 1131 683.8 1107.4 686.1 1105.2C733.3 1061 758.8 1018.4 767 1002.7C775.2 987.2 810.8 1021.6 832.6 1025.6C900.4 1038.1 924.5 970.1 933.4 991.6C945.4 1020.5 988 1079.4 1017.8 1097.9C1036.9 1109.8 1004.3 1251 921.6 1257.9C847.5 1264.1 751.6 1237.9 703.6 1178.3" fill="#F1598E"/>
<path opacity="0.9116" d="M688.3 1132.6C687.1 1131 683.8 1107.4 686.1 1105.2C733.3 1061 758.8 1018.4 767 1002.7C775.2 987.2 810.8 1021.6 832.6 1025.6C900.4 1038.1 924.5 970.1 933.4 991.6C945.4 1020.5 988 1079.4 1017.8 1097.9C1036.9 1109.8 1004.3 1251 921.6 1257.9C847.5 1264.1 751.6 1237.9 703.6 1178.3" stroke="#161616" stroke-width="8" stroke-miterlimit="10" stroke-linecap="round" stroke-linejoin="round"/>
<path fill-rule="evenodd" clip-rule="evenodd" d="M780.8 1154.9C780.2 1156.2 778.5 1153 777.2 1152C774.5 1149.9 771.9 1147.7 769.2 1145.6C761.2 1139.7 752.4 1134.7 743.7 1129.7C715.4 1113.7 690 1102 656 1100.5C571.5 1096.7 473.3 1104.9 415.1 1168.1C402.2 1182.1 390.5 1200.8 390.5 1219.6C390.5 1264.3 463.2 1297.4 500.6 1305.5C525.2 1310.9 550.1 1311.3 575.3 1308.8C632.3 1303.2 690.5 1282.5 748.8 1270C775.1 1264.4 799.9 1258.7 822.4 1254.1" fill="#F1598E"/>
<path opacity="0.9116" d="M780.8 1154.9C780.2 1156.2 778.5 1153 777.2 1152C774.5 1149.9 771.9 1147.7 769.2 1145.6C761.2 1139.7 752.4 1134.7 743.7 1129.7C715.4 1113.7 690 1102 656 1100.5C571.5 1096.7 473.3 1104.9 415.1 1168.1C402.2 1182.1 390.5 1200.8 390.5 1219.6C390.5 1264.3 463.2 1297.4 500.6 1305.5C525.2 1310.9 550.1 1311.3 575.3 1308.8C632.3 1303.2 690.5 1282.5 748.8 1270C775.1 1264.4 799.9 1258.7 822.4 1254.1" stroke="#161616" stroke-width="8" stroke-miterlimit="10" stroke-linecap="round" stroke-linejoin="round"/>
<path fill-rule="evenodd" clip-rule="evenodd" d="M872.3 1174.3C882.9 1162.9 917.1 1138.4 930.8 1130.4C956 1115.7 973.9 1110.9 1001.8 1101.7C1052.7 1084.9 1163.9 1089.7 1214.5 1103.4C1256.1 1114.7 1294.3 1125.1 1314.8 1181.5C1323.4 1205.2 1312.4 1228.3 1297.1 1248.1C1245.6 1314.5 982.9 1313.9 842.7 1277.5C789.7 1263.8 740.7 1245.4 691 1223.6C683.8 1220.4 682.1 1217.4 689.5 1214.1C702.3 1208.3 703.5 1182 705.1 1181.4C709.5 1179.6 791.2 1204.8 816 1208.1C890.4 1217.7 983.9 1196.6 995.8 1195.9C1094.2 1190.2 1119.1 1208.4 1176.8 1216" fill="#F1598E"/>
<path opacity="0.9116" d="M872.3 1174.3C882.9 1162.9 917.1 1138.4 930.8 1130.4C956 1115.7 973.9 1110.9 1001.8 1101.7C1052.7 1084.9 1163.9 1089.7 1214.5 1103.4C1256.1 1114.7 1294.3 1125.1 1314.8 1181.5C1323.4 1205.2 1312.4 1228.3 1297.1 1248.1C1245.6 1314.5 982.9 1313.9 842.7 1277.5C789.7 1263.8 740.7 1245.4 691 1223.6C683.8 1220.4 682.1 1217.4 689.5 1214.1C702.3 1208.3 703.5 1182 705.1 1181.4C709.5 1179.6 791.2 1204.8 816 1208.1C890.4 1217.7 983.9 1196.6 995.8 1195.9C1094.2 1190.2 1119.1 1208.4 1176.8 1216" stroke="#161616" stroke-width="8" stroke-miterlimit="10" stroke-linecap="round" stroke-linejoin="round"/>
<path fill-rule="evenodd" clip-rule="evenodd" d="M683.4 1219.4C583.7 1192.5 509.6 1148.2 518.3 1130.5C524.2 1118.6 547.9 1128.8 556 1132C571.8 1138.3 587.6 1143.3 604.7 1144C633.4 1145.1 662.4 1131.3 687.3 1150.6C692.1 1154.3 700.7 1167.6 703.2 1176.3C708.9 1195.6 702.4 1215.3 683.4 1219.4Z" fill="#F7F2EE"/>
<path opacity="0.9116" d="M683.4 1219.4C583.7 1192.5 509.6 1148.2 518.3 1130.5C524.2 1118.6 547.9 1128.8 556 1132C571.8 1138.3 587.6 1143.3 604.7 1144C633.4 1145.1 662.4 1131.3 687.3 1150.6C692.1 1154.3 700.7 1167.6 703.2 1176.3C708.9 1195.6 702.4 1215.3 683.4 1219.4Z" stroke="#161616" stroke-width="8" stroke-miterlimit="10" stroke-linecap="round" stroke-linejoin="round"/>
<path fill-rule="evenodd" clip-rule="evenodd" d="M1072.1 1195.9C1139.7 1185.8 1177.9 1139.9 1171.7 1120.3C1167.5 1107.1 1127.8 1130.1 1122.1 1133.7C1110.9 1140.7 1085.6 1137.2 1073.4 1137.9C1053.1 1139.1 1049.7 1135.6 1027.6 1152.5C1015.6 1161.7 1015.9 1168.3 1014.1 1178C1010.1 1199.4 1035.8 1191.5 1072.1 1195.9Z" fill="#F7F2EE"/>
<path opacity="0.9116" d="M1072.1 1195.9C1139.7 1185.8 1177.9 1139.9 1171.7 1120.3C1167.5 1107.1 1127.8 1130.1 1122.1 1133.7C1110.9 1140.7 1085.6 1137.2 1073.4 1137.9C1053.1 1139.1 1049.7 1135.6 1027.6 1152.5C1015.6 1161.7 1015.9 1168.3 1014.1 1178C1010.1 1199.4 1035.8 1191.5 1072.1 1195.9Z" stroke="#161616" stroke-width="8" stroke-miterlimit="10" stroke-linecap="round" stroke-linejoin="round"/>
<path fill-rule="evenodd" clip-rule="evenodd" d="M794.5 518.1C796.8 523.7 791.2 535 789.3 539.9C776.4 573.7 792.2 590.3 770.8 603.7C750 616.7 692 626.8 678.9 649.3C669 666.2 663.3 688.4 658.3 707.6C621.6 849.7 665.9 933.5 539.7 1044.8C477.3 1099.9 348.5 1128.5 376.8 1224.6C381.4 1240.2 398.9 1161.6 407.2 1166.2C412.6 1169.2 379 1226.7 389.1 1224.7C397.2 1223.1 415.6 1198 428.2 1175.8C435 1163.7 443 1157 445.8 1154.6C454 1147.4 457.6 1185.4 469.4 1177.8C486.9 1166.4 466.1 1140.9 485.2 1128.1C496.8 1120.3 523.6 1112.2 536.5 1107.3C588.4 1087.3 620.5 1060.8 651.8 1014.2C677.5 976.1 699.8 927.1 710.6 882.4C715 864.2 718.3 845.4 720.5 826.9C721.1 821.8 721.2 811.6 721.2 811.6C721.2 811.6 721.3 821.5 722.3 826.4C727.7 853.1 738.8 869.6 748.8 894.3C759 919.6 763.8 971.1 769.5 997.5C774.4 1020.3 840.6 1032.5 851.2 1032.2C871.8 1031.6 924 1016.4 928.9 989.6C932.2 971.7 940.5 928.7 945 898.5C949.3 869.8 954.1 841.7 961.6 813.6C961.7 813.1 963.7 807.3 963.7 807.3C967.4 803.8 950.4 865.2 1007.3 984.8C1028.6 1029.5 1093.4 1058.2 1136.5 1076.2C1161.3 1086.6 1171.9 1090.7 1181 1099.3C1188.1 1106 1222.6 1149.6 1232 1147C1247.5 1142.7 1220.8 1112.2 1233.3 1108.4C1235.5 1107.7 1251 1122 1263.1 1138.3C1271.7 1150 1286.9 1163.3 1290.1 1158.5C1298.2 1146.3 1259.6 1114.5 1263.6 1109.6C1265.7 1107.1 1291.8 1159.9 1303.3 1150.4C1308.5 1146.1 1305.1 1136 1284.1 1111.2C1237.4 1056.2 1190.5 1058.1 1169.5 1040.9C1134.3 1012.1 1046.4 958.7 1030.5 799.7C1028.3 778 1014.4 700 1006.3 675.3C1001.7 661.2 991.7 648.5 976.5 634.8C960.9 620.7 897.6 603.6 886.9 600.5C874.4 596.9 866.9 587.6 862.6 576.6C859.1 567.7 857.8 557.6 857.8 548.2C857.7 538.2 861.5 516.6 854.4 509.1C840.2 494 810 503 800.8 519.4" fill="#F7F2EE"/>
<path opacity="0.9116" d="M794.5 518.1C796.8 523.7 791.2 535 789.3 539.9C776.4 573.7 792.2 590.3 770.8 603.7C750 616.7 692 626.8 678.9 649.3C669 666.2 663.3 688.4 658.3 707.6C621.6 849.7 665.9 933.5 539.7 1044.8C477.3 1099.9 348.5 1128.5 376.8 1224.6C381.4 1240.2 398.9 1161.6 407.2 1166.2C412.6 1169.2 379 1226.7 389.1 1224.7C397.2 1223.1 415.6 1198 428.2 1175.8C435 1163.7 443 1157 445.8 1154.6C454 1147.4 457.6 1185.4 469.4 1177.8C486.9 1166.4 466.1 1140.9 485.2 1128.1C496.8 1120.3 523.6 1112.2 536.5 1107.3C588.4 1087.3 620.5 1060.8 651.8 1014.2C677.5 976.1 699.8 927.1 710.6 882.4C715 864.2 718.3 845.4 720.5 826.9C721.1 821.8 721.2 811.6 721.2 811.6C721.2 811.6 721.3 821.5 722.3 826.4C727.7 853.1 738.8 869.6 748.8 894.3C759 919.6 763.8 971.1 769.5 997.5C774.4 1020.3 840.6 1032.5 851.2 1032.2C871.8 1031.6 924 1016.4 928.9 989.6C932.2 971.7 940.5 928.7 945 898.5C949.3 869.8 954.1 841.7 961.6 813.6C961.7 813.1 963.7 807.3 963.7 807.3C967.4 803.8 950.4 865.2 1007.3 984.8C1028.6 1029.5 1093.4 1058.2 1136.5 1076.2C1161.3 1086.6 1171.9 1090.7 1181 1099.3C1188.1 1106 1222.6 1149.6 1232 1147C1247.5 1142.7 1220.8 1112.2 1233.3 1108.4C1235.5 1107.7 1251 1122 1263.1 1138.3C1271.7 1150 1286.9 1163.3 1290.1 1158.5C1298.2 1146.3 1259.6 1114.5 1263.6 1109.6C1265.7 1107.1 1291.8 1159.9 1303.3 1150.4C1308.5 1146.1 1305.1 1136 1284.1 1111.2C1237.4 1056.2 1190.5 1058.1 1169.5 1040.9C1134.3 1012.1 1046.4 958.7 1030.5 799.7C1028.3 778 1014.4 700 1006.3 675.3C1001.7 661.2 991.7 648.5 976.5 634.8C960.9 620.7 897.6 603.6 886.9 600.5C874.4 596.9 866.9 587.6 862.6 576.6C859.1 567.7 857.8 557.6 857.8 548.2C857.7 538.2 861.5 516.6 854.4 509.1C840.2 494 810 503 800.8 519.4" stroke="#161616" stroke-width="8" stroke-miterlimit="10" stroke-linecap="round" stroke-linejoin="round"/>
<path fill-rule="evenodd" clip-rule="evenodd" d="M710.2 670.7C709.2 670.5 709.3 684.2 709.3 684.8C709.4 693.4 710.1 701.9 711 710.4C714.2 741.8 716.6 806.9 729.6 847.1C733.7 859.8 737.5 865.6 744.4 872.8C749.7 878.4 760.7 885.3 773.3 888.2C822.6 899.4 915.6 894.7 951 872.7C951.1 872.7 962.4 809.2 966.9 748.2C968.2 730.8 965 714.4 965 697.4C965 695.9 965.2 700.3 965.3 701.8C965.5 704.7 965.8 707.6 965.9 710.5C966.4 718.3 966.7 726.1 966.9 734C967.4 751.2 959.9 789.8 963.9 804.5C964.3 805.8 968.7 805 969.7 804.9C984.8 804 1027.5 798.7 1039.8 789.8C1040.7 789.1 1048.1 682.8 985.4 638.6C970 627.7 911.5 688.3 833 691.7C772.5 694.3 684 634.3 669.1 653.2C642.9 686.4 630.8 768.1 635.6 784.7C638.3 794.1 725.6 826.5 719.4 798.7" fill="#69BAC9"/>
<path opacity="0.9116" d="M710.2 670.7C709.2 670.5 709.3 684.2 709.3 684.8C709.4 693.4 710.1 701.9 711 710.4C714.2 741.8 716.6 806.9 729.6 847.1C733.7 859.8 737.5 865.6 744.4 872.8C749.7 878.4 760.7 885.3 773.3 888.2C822.6 899.4 915.6 894.7 951 872.7C951.1 872.7 962.4 809.2 966.9 748.2C968.2 730.8 965 714.4 965 697.4C965 695.9 965.2 700.3 965.3 701.8C965.5 704.7 965.8 707.6 965.9 710.5C966.4 718.3 966.7 726.1 966.9 734C967.4 751.2 959.9 789.8 963.9 804.5C964.3 805.8 968.7 805 969.7 804.9C984.8 804 1027.5 798.7 1039.8 789.8C1040.7 789.1 1048.1 682.8 985.4 638.6C970 627.7 911.5 688.3 833 691.7C772.5 694.3 684 634.3 669.1 653.2C642.9 686.4 630.8 768.1 635.6 784.7C638.3 794.1 725.6 826.5 719.4 798.7" stroke="#161616" stroke-width="8" stroke-miterlimit="10" stroke-linecap="round" stroke-linejoin="round"/>
<path fill-rule="evenodd" clip-rule="evenodd" d="M764.3 309.5C748.3 333.5 742.2 334.8 745 407.3C746.7 450.2 782.6 534.5 827.7 532.2C883.7 529.4 914.7 462.2 916.7 396.4C918.2 346.8 898.3 296.9 852.7 279.9C809 263.6 775.2 293.1 764.3 309.5Z" fill="#F7F2EE"/>
<path opacity="0.9116" d="M764.3 309.5C748.3 333.5 742.2 334.8 745 407.3C746.7 450.2 782.6 534.5 827.7 532.2C883.7 529.4 914.7 462.2 916.7 396.4C918.2 346.8 898.3 296.9 852.7 279.9C809 263.6 775.2 293.1 764.3 309.5Z" stroke="#161616" stroke-width="8" stroke-miterlimit="10" stroke-linecap="round" stroke-linejoin="round"/>
<path opacity="0.9116" d="M854 416.2C871.7 420.2 879.8 413.3 884.5 403.5" stroke="#161616" stroke-width="8" stroke-miterlimit="10" stroke-linecap="round" stroke-linejoin="round"/>
<path opacity="0.9116" d="M825.9 426.9C820.6 429.1 837.3 451 822.3 451.3" stroke="#161616" stroke-width="8" stroke-miterlimit="10" stroke-linecap="round" stroke-linejoin="round"/>
<path opacity="0.9116" d="M808.6 479.2C808.9 492.6 815.6 498.8 823.9 497.7C831.4 496.7 835.6 491.1 837.1 486.1C837.6 484.5 837.4 481.2 837.6 479.3" stroke="#161616" stroke-width="8" stroke-miterlimit="10" stroke-linecap="round" stroke-linejoin="round"/>
<path fill-rule="evenodd" clip-rule="evenodd" d="M915.9 385.6C920.2 386.9 933.4 352.3 930.7 325.5C927.6 294.6 914.4 282.8 904.2 270.4C885.7 247.9 847.6 234.9 797.7 244.4C778.4 248.1 745.8 273.1 734.4 284.7C626.8 394.9 681.6 615.1 688.6 647.1C702.8 712.5 702.5 761.5 699.4 819.1C698.2 840.8 692.2 858.8 672.2 892.5C669.9 896.3 793.1 928.7 794.5 924.6C863.3 722.4 804.4 584.7 783.1 472C778 444.9 778.9 420.1 793.7 392.4C807.4 366.8 824.3 344 844.3 343.7C854.7 343.5 862.8 347.9 871.8 359.5C883.1 374.1 893.6 356.2 899.1 354.6C908.7 351.9 917.1 374.9 915.9 385.6Z" fill="#161616"/>
<path d="M915.9 385.6C920.2 386.9 933.4 352.3 930.7 325.5C927.6 294.6 914.4 282.8 904.2 270.4C885.7 247.9 847.6 234.9 797.7 244.4C778.4 248.1 745.8 273.1 734.4 284.7C626.8 394.9 681.6 615.1 688.6 647.1C702.8 712.5 702.5 761.5 699.4 819.1C698.2 840.8 692.2 858.8 672.2 892.5C669.9 896.3 793.1 928.7 794.5 924.6C863.3 722.4 804.4 584.7 783.1 472C778 444.9 778.9 420.1 793.7 392.4C807.4 366.8 824.3 344 844.3 343.7C854.7 343.5 862.8 347.9 871.8 359.5C883.1 374.1 893.6 356.2 899.1 354.6C908.7 351.9 917.1 374.9 915.9 385.6Z" stroke="black" stroke-width="8" stroke-miterlimit="10" stroke-linecap="round" stroke-linejoin="round"/>
<path d="M875.9 346.5C876 346.5 871.5 331.3 866.9 325.1C863.1 320 856.7 317.9 851 315.7C836.3 310.1 819.8 313.2 807.4 322.9C782.1 342.5 786.8 401 765.8 402.3" stroke="#F7F2EE" stroke-width="4" stroke-miterlimit="10" stroke-linecap="round" stroke-linejoin="round"/>
<path d="M920.1 339.7C913.8 329.6 906.7 315.9 885.8 331.3C881.3 334.6 882.8 322.6 878.7 315.3C872.1 303.3 852 294.8 847.9 293.7C821 286.6 790.2 302.4 775.2 323.6C759.1 346.1 750.6 378.1 748.2 404.9C744.1 450.1 765 489.8 776.2 532.5C803.3 635.8 821.1 750.1 793.6 854.7C788.8 873.1 785.8 904.9 773.3 920" stroke="#F7F2EE" stroke-width="4" stroke-miterlimit="10" stroke-linecap="round" stroke-linejoin="round"/>
<path d="M919.6 314.7C904 303.7 900.9 309.1 891.9 311.8C890.7 312.2 885.9 300.2 881.9 296.4C862.5 277.7 826 266.3 797.1 278.4C748.3 298.8 726.9 344.5 722.4 394.4C708.7 549.8 806.6 668.2 764.1 835C757.7 860.2 750.9 889.8 738.3 912.6" stroke="#F7F2EE" stroke-width="4" stroke-miterlimit="10" stroke-linecap="round" stroke-linejoin="round"/>
<path d="M914.2 297.1C912.1 296.1 903.7 290.3 896.7 295C894.5 296.5 891.1 278.4 875.7 268.5C855.7 255.7 821.2 250.3 799.8 256.6C731.3 276.8 709.5 346.6 700.5 400.1C687.3 478.4 704.9 543.8 718 619.4C725.7 664 732 685.3 734.7 711.9C736.6 730.9 742.8 848.2 697.3 901.8" stroke="#F7F2EE" stroke-width="4" stroke-miterlimit="10" stroke-linecap="round" stroke-linejoin="round"/>
<path opacity="0.9116" d="M915.1 401.1C916.2 400.9 921.4 384.1 931.1 384.6C933.4 384.7 935.1 386.3 936.2 388.1C953.2 415.7 912.3 480.9 912.3 419.5C912.3 413 912.6 406.2 914.8 400.1" stroke="#161616" stroke-width="4" stroke-miterlimit="10" stroke-linecap="round" stroke-linejoin="round"/>
<path opacity="0.9116" d="M916.3 447.7C916.2 447.5 915.7 450.8 915.9 451.4C916.8 454.6 920.4 456.8 923.7 455.8C929.2 454.2 929.7 445.8 923.9 444.5" stroke="#161616" stroke-width="4" stroke-miterlimit="10" stroke-linecap="round" stroke-linejoin="round"/>
<path opacity="0.9116" d="M920.2 456.3C920.3 456.3 920.1 458.1 920 458.2C919.7 466.5 921 474.9 921.6 483.1C922.5 495.4 923.6 508.6 923.5 521.8C923.4 535.1 908 578.3 901.1 577.4C900.9 577.4 914.4 580.6 919.6 580.5C929.9 580.3 935.4 571.5 937.3 562.5C945.1 527.2 937.7 492.4 922.8 460.4" stroke="#161616" stroke-width="4" stroke-miterlimit="10" stroke-linecap="round" stroke-linejoin="round"/>
<path d="M935.4 500.6C935.1 500.9 935.4 504.4 935.3 504.8C934.9 508.6 934.2 512.4 933.2 516.1C931.3 522.6 928.5 528.9 925 534.6C923.3 537.3 921.1 539.7 919.6 542.5" stroke="#161616" stroke-width="4" stroke-miterlimit="10" stroke-linecap="round" stroke-linejoin="round"/>
<path d="M906.3 575.2C906.9 575.3 908.4 574 908.8 573.7C911.2 572.2 913.7 570.9 916.1 569.4C925.7 563.2 936.4 554.3 938.7 542" stroke="#161616" stroke-width="4" stroke-miterlimit="10" stroke-linecap="round" stroke-linejoin="round"/>
<path d="M958.2 498.2C961.8 507.6 959.9 517.9 957.7 527.3C956.8 531.2 956 535.3 954.3 538.9" stroke="#161616" stroke-width="4" stroke-miterlimit="10" stroke-linecap="round" stroke-linejoin="round"/>
<path d="M960.4 455.5C961.1 457.7 962.5 459.9 963.3 462C965.4 467.8 967 473.8 966.8 480" stroke="#161616" stroke-width="4" stroke-miterlimit="10" stroke-linecap="round" stroke-linejoin="round"/>
<path opacity="0.9116" d="M923.1 459.6C923.1 459.6 929.1 467.9 929.3 468.3C934.6 478.4 939.1 489 942.8 499.8C946 508.8 948.5 518.1 950.2 527.5C952.2 538.2 956.3 556.2 956.5 556.4C958 558 969.3 545.9 969.4 534.2C969.6 515 948.8 463.1 926.1 458.2" stroke="#161616" stroke-width="4" stroke-miterlimit="10" stroke-linecap="round" stroke-linejoin="round"/>
<path opacity="0.9116" d="M926.3 457.3C925.7 457.6 928.6 457.8 929 457.8C931.2 458.2 933.4 459.1 935.4 460C941.2 462.5 946.9 465.6 952 469.2C961.4 475.8 968.2 485.8 973.5 495.8C973.7 496.2 974.9 499.5 975.5 499.5C975.9 499.5 975.8 496.5 975.9 496.2C976.2 487.9 979.7 476.4 977.1 468.4C972.5 454 947 450 934.5 452.7" stroke="#161616" stroke-width="4" stroke-miterlimit="10" stroke-linecap="round" stroke-linejoin="round"/>
<path opacity="0.9116" d="M602.8 558.9C600.9 559.2 598.1 560.7 595.9 561.8C591.3 564.2 576.2 568.4 572 571.2C569.6 572.9 543.4 597.4 524.1 606C522.4 606.8 501.4 614.4 503.2 616.3C506.5 619.8 518.5 617.2 522.7 617.3C583.5 619.2 585.4 590.7 602.8 558.9Z" stroke="#161616" stroke-width="4" stroke-miterlimit="10" stroke-linecap="round" stroke-linejoin="round"/>
<path d="M513.3 615.8C513.1 615.4 524.3 611.8 525 611.5C532.9 608.8 540.9 606.3 548.6 603.3C571.2 594.1 581.6 581.4 595.3 565.2" stroke="#161616" stroke-width="4" stroke-miterlimit="10" stroke-linecap="round" stroke-linejoin="round"/>
<path d="M1253.3 301.6C1237.6 317.3 1232.5 322.9 1219.5 328.5C1209 333 1186.1 334.6 1183.6 336.1" stroke="#161616" stroke-width="4" stroke-miterlimit="10" stroke-linecap="round" stroke-linejoin="round"/>
<path opacity="0.9116" d="M1259.7 292C1250.3 301 1232.2 301.5 1224.5 306C1221.9 307.5 1199.3 325.9 1185.1 335.1C1184.7 335.3 1182.8 336.3 1183.3 337C1185.3 339.7 1196.2 341.7 1198.9 342.6C1214.5 347.9 1223.6 340.6 1231.3 334.4C1244.2 324.2 1250.9 308 1259.7 292Z" stroke="#161616" stroke-width="4" stroke-miterlimit="10" stroke-linecap="round" stroke-linejoin="round"/>
<path d="M241.2 1237.8C237.3 1237.6 205.7 1263.2 187.3 1262.6" stroke="#161616" stroke-width="4" stroke-miterlimit="10" stroke-linecap="round" stroke-linejoin="round"/>
<path opacity="0.9116" d="M253.4 1231.9C241.4 1237.3 225.6 1241.5 216.7 1243.2C195.7 1247.3 186.7 1243.2 167.1 1247.9C166.7 1248 164.5 1248.3 164.7 1249.1C165.7 1252.3 175.4 1258 177.7 1259.8C212.8 1287.5 231.2 1251.7 253.4 1231.9Z" stroke="#161616" stroke-width="4" stroke-miterlimit="10" stroke-linecap="round" stroke-linejoin="round"/>
<path d="M1294.3 177.3C1292.3 178.1 1288.8 202.7 1275.1 202.9C1267.7 203 1257.6 209.5 1262.7 212.9" stroke="#161616" stroke-width="4" stroke-miterlimit="10" stroke-linecap="round" stroke-linejoin="round"/>
<path opacity="0.9116" d="M1301.4 169C1294.3 176.9 1280.7 183 1274.9 185.6C1258.6 192.6 1256.2 198.8 1243.4 208.6C1243.1 208.8 1241.6 209.7 1242 210.2C1243.8 212.3 1252.7 213.3 1255 213.9C1289.6 222.9 1291.5 190.7 1301.4 169Z" stroke="#161616" stroke-width="4" stroke-miterlimit="10" stroke-linecap="round" stroke-linejoin="round"/>
<path d="M299.4 1307.7C325.7 1322.2 366.6 1341.9 424.1 1321.7C452.6 1311.7 488.8 1305.4 519 1308.9" stroke="#161616" stroke-width="8" stroke-miterlimit="10" stroke-linecap="round" stroke-linejoin="round"/>
<path d="M1258.9 1279.5C1286.4 1281.9 1318.1 1291.5 1345.7 1293" stroke="#161616" stroke-width="8" stroke-miterlimit="10" stroke-linecap="round" stroke-linejoin="round"/>
<path d="M155 1179.7C184.5 1171.4 212.6 1175.3 242.2 1181.4C249 1182.8 255.8 1184.6 262.6 1186C264.7 1186.4 271.6 1188 274.5 1187.5" stroke="#161616" stroke-width="8" stroke-miterlimit="10" stroke-linecap="round" stroke-linejoin="round"/>
<path d="M1016.8 1301.1C1016.2 1300.5 1015.6 1299.9 1014.9 1299.2" stroke="#161616" stroke-width="4" stroke-miterlimit="10" stroke-linecap="round" stroke-linejoin="round"/>
</svg>
