<svg width="1500" height="1500" viewBox="0 0 1500 1500" fill="none" xmlns="http://www.w3.org/2000/svg">
<rect width="1500" height="1500" fill="#F7F2EE"/>
<path fill-rule="evenodd" clip-rule="evenodd" d="M690.519 517.172C685.819 505.472 608.819 534.072 602.219 536.872C406.219 619.972 409.62 934.472 597.92 1026.87C675.52 1064.97 833.42 1063.47 892.62 1044.37C1120.12 970.972 1150.42 456.271 690.519 517.172Z" fill="#FF8E6C"/>
<path d="M690.519 517.172C685.819 505.472 608.819 534.072 602.219 536.872C406.219 619.972 409.62 934.472 597.92 1026.87C675.52 1064.97 833.42 1063.47 892.62 1044.37C1120.12 970.972 1150.42 456.272 690.519 517.172Z" stroke="#161616" stroke-width="8" stroke-miterlimit="10" stroke-linecap="round" stroke-linejoin="round"/>
<path d="M844.92 732.972C871.92 767.972 935.619 759.972 960.719 728.072" stroke="#161616" stroke-width="8" stroke-miterlimit="10" stroke-linecap="round" stroke-linejoin="round"/>
<path d="M547.919 728.072C575.219 762.872 638.82 754.371 663.62 722.171" stroke="#161616" stroke-width="8" stroke-miterlimit="10" stroke-linecap="round" stroke-linejoin="round"/>
<path fill-rule="evenodd" clip-rule="evenodd" d="M1205.52 1346.07C1131.32 1378.67 1119.02 1219.27 1059.22 1198.47C1001.92 1178.57 1010.32 1128.77 989.92 1099.17C969.72 1069.97 960.519 1075.87 933.019 1053.77C917.919 1041.67 920.619 1000.27 911.019 985.472C897.219 964.072 879.719 960.172 860.319 944.972C842.119 930.672 827.619 911.872 811.719 897.972C792.719 881.372 782.62 853.372 750.92 866.572C750.82 863.872 722.719 896.872 720.219 901.372C713.219 914.072 705.819 926.772 697.019 938.272C679.719 960.772 648.12 980.672 639.42 1008.77C634.42 1024.77 640.919 1042.67 628.12 1055.97C607.82 1076.97 576.019 1083.17 554.519 1103.37C534.419 1122.27 537.319 1150.37 520.819 1171.37C503.919 1192.97 467.819 1208.97 448.219 1227.77C431.719 1243.57 411.019 1380.77 351.319 1365.07" fill="#F7F2EE"/>
<path d="M1205.52 1346.07C1131.32 1378.67 1119.02 1219.27 1059.22 1198.47C1001.92 1178.57 1010.32 1128.77 989.92 1099.17C969.72 1069.97 960.519 1075.87 933.019 1053.77C917.919 1041.67 920.619 1000.27 911.019 985.472C897.219 964.072 879.719 960.172 860.319 944.972C842.119 930.672 827.619 911.872 811.719 897.972C792.719 881.372 782.62 853.372 750.92 866.572C750.82 863.872 722.719 896.872 720.219 901.372C713.219 914.072 705.819 926.772 697.019 938.272C679.719 960.772 648.12 980.672 639.42 1008.77C634.42 1024.77 640.92 1042.67 628.12 1055.97C607.82 1076.97 576.019 1083.17 554.519 1103.37C534.419 1122.27 537.319 1150.37 520.819 1171.37C503.919 1192.97 467.819 1208.97 448.219 1227.77C431.719 1243.57 411.019 1380.77 351.319 1365.07" stroke="#161616" stroke-width="8" stroke-miterlimit="10" stroke-linecap="round" stroke-linejoin="round"/>
<path d="M748.42 884.171C745.92 878.971 746.319 909.471 744.219 914.871C739.419 927.471 732.02 938.371 723.12 948.371C706.52 966.971 681.519 984.271 673.819 1008.97C667.919 1027.67 672.72 1047.07 661.42 1064.57C645.72 1088.97 615.119 1098.97 595.219 1119.27C578.619 1136.27 578.119 1159.47 566.519 1179.07C553.419 1201.47 531.419 1215.57 520.219 1239.77C497.119 1289.97 509.519 1260.57 486.519 1310.67" stroke="#161616" stroke-width="4" stroke-miterlimit="10" stroke-linecap="round" stroke-linejoin="round"/>
<path d="M752.92 907.771C751.42 946.971 700.219 987.471 689.719 1011.67C680.219 1033.47 683.42 1055.27 667.42 1075.17C647.72 1099.67 616.619 1113.47 599.219 1139.77C582.419 1165.27 535.919 1267.67 536.519 1294.07C537.219 1325.17 549.619 1354.57 547.919 1386.07" stroke="#161616" stroke-width="4" stroke-miterlimit="10" stroke-linecap="round" stroke-linejoin="round"/>
<path d="M766.519 877.671C765.219 893.571 773.019 934.171 774.219 941.771C777.719 964.071 774.419 987.372 766.519 1008.37C746.319 1061.77 699.919 1102.37 693.319 1161.57C688.619 1204.07 721.019 1223.07 730.019 1260.47C740.819 1305.67 707.319 1309.97 693.319 1351.27" stroke="#161616" stroke-width="4" stroke-miterlimit="10" stroke-linecap="round" stroke-linejoin="round"/>
<path d="M775.019 896.671C774.719 895.671 780.32 916.571 782.42 921.171C786.92 931.071 787.22 956.372 786.92 968.972C786.02 1000.27 780.519 1005.57 771.819 1036.67C762.519 1069.87 722.419 1118.17 718.119 1152.77C708.619 1229.87 803.719 1259.37 769.719 1386.27" stroke="#161616" stroke-width="4" stroke-miterlimit="10" stroke-linecap="round" stroke-linejoin="round"/>
<path d="M785.819 892.171C791.719 900.571 810.219 913.971 816.319 922.171C837.819 950.971 859.32 990.672 861.92 1019.37C863.92 1041.57 856.92 1095.77 870.42 1114.57C885.52 1135.57 932.519 1133.47 945.019 1156.87C959.519 1183.97 942.12 1223.57 964.42 1245.47C1022.32 1302.27 1011.22 1346.27 1017.62 1367.47" stroke="#161616" stroke-width="4" stroke-miterlimit="10" stroke-linecap="round" stroke-linejoin="round"/>
<path d="M791.319 912.472C802.819 926.372 811.619 940.672 817.019 950.972C834.719 984.372 834.519 1016.27 834.019 1054.27C833.519 1084.87 829.619 1116.27 843.319 1144.87C857.219 1173.77 913.22 1161.07 921.12 1193.17C929.32 1226.87 913.919 1238.87 949.819 1289.37C962.119 1306.67 934.62 1358.67 922.42 1391.67" stroke="#161616" stroke-width="4" stroke-miterlimit="10" stroke-linecap="round" stroke-linejoin="round"/>
<path fill-rule="evenodd" clip-rule="evenodd" d="M1092.72 1259.57C1096.02 1278.07 1089.02 1248.67 1078.02 1257.87C1069.42 1265.07 1054.02 1278.27 1051.02 1307.87C1050.92 1308.97 1041.12 1300.07 1035.12 1279.27C1030.22 1262.47 1053.72 1253.37 1074.42 1257.47C1082.72 1259.07 1088.62 1246.77 1092.72 1259.57Z" fill="#F7F2EE"/>
<path d="M1092.72 1259.57C1096.02 1278.07 1089.02 1248.67 1078.02 1257.87C1069.42 1265.07 1054.02 1278.27 1051.02 1307.87C1050.92 1308.97 1041.12 1300.07 1035.12 1279.27C1030.22 1262.47 1053.72 1253.37 1074.42 1257.47C1082.72 1259.07 1088.62 1246.77 1092.72 1259.57Z" stroke="#161616" stroke-width="4" stroke-miterlimit="10" stroke-linecap="round" stroke-linejoin="round"/>
<path fill-rule="evenodd" clip-rule="evenodd" d="M1129.62 1258.17C1134.12 1256.27 1146.82 1244.87 1152.12 1242.37C1171.42 1233.27 1189.42 1257.27 1203.22 1266.57C1209.02 1270.47 1215.22 1272.67 1221.82 1274.37C1222.22 1274.47 1224.32 1274.87 1224.22 1275.57V1275.67C1223.72 1276.97 1201.12 1284.17 1198.72 1284.97C1171.02 1294.17 1114.12 1288.87 1090.92 1268.47" fill="#F7F2EE"/>
<path d="M1129.62 1258.17C1134.12 1256.27 1146.82 1244.87 1152.12 1242.37C1171.42 1233.27 1189.42 1257.27 1203.22 1266.57C1209.02 1270.47 1215.22 1272.67 1221.82 1274.37C1222.22 1274.47 1224.32 1274.87 1224.22 1275.57V1275.67C1223.72 1276.97 1201.12 1284.17 1198.72 1284.97C1171.02 1294.17 1114.12 1288.87 1090.92 1268.47" stroke="#161616" stroke-width="4" stroke-miterlimit="10" stroke-linecap="round" stroke-linejoin="round"/>
<path fill-rule="evenodd" clip-rule="evenodd" d="M1087.62 1268.27C1143.02 1278.87 1153.82 1209.87 1133.72 1211.37C1128.72 1211.77 1129.92 1206.77 1125.72 1206.17C1123.92 1205.87 1128.32 1213.97 1124.82 1220.67C1122.82 1224.47 1126.12 1234.07 1124.72 1236.07C1118.42 1245.97 1105.02 1245.77 1106.42 1229.87C1107.42 1219.07 1111.62 1207.67 1108.52 1196.97C1102.72 1176.77 1086.92 1160.77 1080.82 1138.97C1078.22 1129.47 1077.42 1119.67 1075.52 1109.97C1075.42 1109.47 1075.12 1106.77 1074.12 1107.37C1070.52 1109.47 1065.32 1143.57 1064.62 1149.17C1059.72 1186.07 1050.02 1261.07 1087.62 1268.27Z" fill="#F7F2EE"/>
<path d="M1087.62 1268.27C1143.02 1278.87 1153.82 1209.87 1133.72 1211.37C1128.72 1211.77 1129.92 1206.77 1125.72 1206.17C1123.92 1205.87 1128.32 1213.97 1124.82 1220.67C1122.82 1224.47 1126.12 1234.07 1124.72 1236.07C1118.42 1245.97 1105.02 1245.77 1106.42 1229.87C1107.42 1219.07 1111.62 1207.67 1108.52 1196.97C1102.72 1176.77 1086.92 1160.77 1080.82 1138.97C1078.22 1129.47 1077.42 1119.67 1075.52 1109.97C1075.42 1109.47 1075.12 1106.77 1074.12 1107.37C1070.52 1109.47 1065.32 1143.57 1064.62 1149.17C1059.72 1186.07 1050.02 1261.07 1087.62 1268.27Z" stroke="#161616" stroke-width="4" stroke-miterlimit="10" stroke-linecap="round" stroke-linejoin="round"/>
<path fill-rule="evenodd" clip-rule="evenodd" d="M377.519 1240.37C372.119 1236.87 349.519 1231.67 352.919 1243.67C355.519 1252.67 373.919 1253.87 381.419 1257.67C382.019 1257.97 385.319 1258.87 385.019 1259.77C384.819 1260.57 374.119 1261.07 372.219 1265.87C367.619 1277.77 372.119 1291.87 366.419 1303.97C363.619 1309.87 349.819 1320.77 351.519 1322.07C357.119 1326.17 367.82 1326.37 374.12 1326.17C423.42 1324.97 396.82 1275.87 416.12 1263.37C432.42 1252.77 462.42 1291.47 477.12 1280.77C483.82 1275.87 463.219 1267.27 469.719 1259.27C473.119 1254.97 487.719 1251.27 486.719 1244.87C486.32 1242.17 482.419 1240.27 480.019 1239.37C457.219 1230.27 427.52 1259.47 414.72 1249.27C408.319 1244.17 422.319 1223.17 420.319 1214.17C416.119 1194.87 394.419 1182.67 380.719 1168.67C380.019 1167.97 376.219 1162.77 374.919 1163.17C373.919 1163.47 373.92 1165.57 373.719 1166.47C372.619 1171.37 375.519 1175.67 375.219 1180.57C374.619 1189.97 370.719 1198.77 371.519 1208.37C371.619 1209.87 371.919 1211.37 372.319 1212.87C374.219 1219.17 406.119 1247.27 382.419 1243.37" fill="#F7F2EE"/>
<path d="M377.519 1240.37C372.119 1236.87 349.519 1231.67 352.919 1243.67C355.519 1252.67 373.919 1253.87 381.419 1257.67C382.019 1257.97 385.319 1258.87 385.019 1259.77C384.819 1260.57 374.119 1261.07 372.219 1265.87C367.619 1277.77 372.119 1291.87 366.419 1303.97C363.619 1309.87 349.819 1320.77 351.519 1322.07C357.119 1326.17 367.82 1326.37 374.12 1326.17C423.42 1324.97 396.82 1275.87 416.12 1263.37C432.42 1252.77 462.42 1291.47 477.12 1280.77C483.82 1275.87 463.219 1267.27 469.719 1259.27C473.119 1254.97 487.719 1251.27 486.719 1244.87C486.319 1242.17 482.419 1240.27 480.019 1239.37C457.219 1230.27 427.52 1259.47 414.72 1249.27C408.32 1244.17 422.319 1223.17 420.319 1214.17C416.119 1194.87 394.419 1182.67 380.719 1168.67C380.019 1167.97 376.219 1162.77 374.919 1163.17C373.919 1163.47 373.919 1165.57 373.719 1166.47C372.619 1171.37 375.519 1175.67 375.219 1180.57C374.619 1189.97 370.719 1198.77 371.519 1208.37C371.619 1209.87 371.919 1211.37 372.319 1212.87C374.219 1219.17 406.119 1247.27 382.419 1243.37" stroke="#161616" stroke-width="4" stroke-miterlimit="10" stroke-linecap="round" stroke-linejoin="round"/>
<path fill-rule="evenodd" clip-rule="evenodd" d="M640.62 1363.87C635.82 1367.87 623.919 1387.27 635.819 1387.37C644.719 1387.47 651.619 1370.77 657.519 1364.87C657.919 1364.47 659.819 1361.67 660.519 1362.07C661.219 1362.47 658.319 1372.47 662.019 1375.47C671.319 1382.97 685.52 1382.57 694.62 1391.07C699.12 1395.27 704.619 1410.87 706.219 1409.67C711.719 1405.57 715.219 1395.77 717.019 1389.97C731.519 1344.27 678.62 1355.57 673.42 1334.47C669.02 1316.57 713.52 1299.47 708.42 1282.97C706.12 1275.47 691.82 1292.07 686.62 1283.97C683.82 1279.67 685.02 1265.27 678.92 1264.37C676.32 1264.07 673.419 1267.07 671.819 1269.07C656.419 1287.57 673.42 1322.77 660.12 1331.87C653.52 1336.37 638.919 1317.87 630.219 1317.27C611.419 1315.97 593.519 1332.57 576.519 1341.47C575.619 1341.97 569.719 1344.07 569.719 1345.37C569.719 1346.37 571.619 1346.97 572.319 1347.37C576.419 1349.77 581.219 1348.17 585.519 1349.77C593.819 1352.77 600.619 1358.77 609.519 1360.67C610.919 1360.97 612.319 1361.07 613.819 1361.07C620.019 1361.07 655.62 1339.27 644.62 1360.07" fill="#F7F2EE"/>
<path d="M640.62 1363.87C635.82 1367.87 623.919 1387.27 635.819 1387.37C644.719 1387.47 651.619 1370.77 657.519 1364.87C657.919 1364.47 659.819 1361.67 660.519 1362.07C661.219 1362.47 658.319 1372.47 662.019 1375.47C671.319 1382.97 685.52 1382.57 694.62 1391.07C699.12 1395.27 704.619 1410.87 706.219 1409.67C711.719 1405.57 715.219 1395.77 717.019 1389.97C731.519 1344.27 678.62 1355.57 673.42 1334.47C669.02 1316.57 713.52 1299.47 708.42 1282.97C706.12 1275.47 691.82 1292.07 686.62 1283.97C683.82 1279.67 685.02 1265.27 678.92 1264.37C676.32 1264.07 673.419 1267.07 671.819 1269.07C656.419 1287.57 673.42 1322.77 660.12 1331.87C653.52 1336.37 638.919 1317.87 630.219 1317.27C611.419 1315.97 593.519 1332.57 576.519 1341.47C575.619 1341.97 569.719 1344.07 569.719 1345.37C569.719 1346.37 571.619 1346.97 572.319 1347.37C576.419 1349.77 581.219 1348.17 585.519 1349.77C593.819 1352.77 600.619 1358.77 609.519 1360.67C610.919 1360.97 612.319 1361.07 613.819 1361.07C620.019 1361.07 655.62 1339.27 644.62 1360.07" stroke="#161616" stroke-width="4" stroke-miterlimit="10" stroke-linecap="round" stroke-linejoin="round"/>
<path fill-rule="evenodd" clip-rule="evenodd" d="M876.32 1260.37C876.52 1265.77 883.62 1284.17 890.12 1276.07C894.92 1269.97 887.12 1256.47 886.12 1249.37C886.02 1248.87 885.12 1246.07 885.82 1245.87C886.52 1245.67 891.82 1252.87 895.92 1251.87C906.12 1249.37 913.419 1239.47 924.219 1237.67C929.519 1236.77 943.32 1241.27 943.42 1239.47C943.52 1233.57 938.62 1225.97 935.62 1221.67C911.72 1187.67 891.119 1229.97 873.719 1222.37C858.919 1215.97 870.919 1176.37 856.719 1171.17C850.219 1168.77 854.219 1187.37 845.719 1186.67C841.219 1186.27 831.819 1177.87 828.019 1181.67C826.419 1183.27 827.02 1186.87 827.42 1189.07C832.02 1209.37 865.619 1216.27 864.719 1230.17C864.319 1237.07 843.619 1237.37 838.519 1243.07C827.519 1255.27 829.519 1276.37 826.519 1292.77C826.319 1293.67 824.619 1298.77 825.519 1299.47C826.219 1299.97 827.62 1298.97 828.32 1298.77C832.12 1297.17 833.72 1293.07 837.12 1290.97C843.72 1286.87 851.519 1285.37 857.519 1280.17C858.419 1279.37 859.32 1278.47 860.12 1277.47C863.42 1273.17 867.32 1237.27 875.92 1255.77" fill="#F7F2EE"/>
<path d="M876.32 1260.37C876.52 1265.77 883.62 1284.17 890.12 1276.07C894.92 1269.97 887.12 1256.47 886.12 1249.37C886.02 1248.87 885.12 1246.07 885.82 1245.87C886.52 1245.67 891.82 1252.87 895.92 1251.87C906.12 1249.37 913.419 1239.47 924.219 1237.67C929.519 1236.77 943.32 1241.27 943.42 1239.47C943.52 1233.57 938.62 1225.97 935.62 1221.67C911.72 1187.67 891.119 1229.97 873.719 1222.37C858.919 1215.97 870.919 1176.37 856.719 1171.17C850.219 1168.77 854.219 1187.37 845.719 1186.67C841.219 1186.27 831.819 1177.87 828.019 1181.67C826.419 1183.27 827.02 1186.87 827.42 1189.07C832.02 1209.37 865.619 1216.27 864.719 1230.17C864.319 1237.07 843.619 1237.37 838.519 1243.07C827.519 1255.27 829.519 1276.37 826.519 1292.77C826.319 1293.67 824.619 1298.77 825.519 1299.47C826.219 1299.97 827.62 1298.97 828.32 1298.77C832.12 1297.17 833.72 1293.07 837.12 1290.97C843.72 1286.87 851.519 1285.37 857.519 1280.17C858.419 1279.37 859.32 1278.47 860.12 1277.47C863.42 1273.17 867.32 1237.27 875.92 1255.77" stroke="#161616" stroke-width="4" stroke-miterlimit="10" stroke-linecap="round" stroke-linejoin="round"/>
<path fill-rule="evenodd" clip-rule="evenodd" d="M632.719 1189.67C635.019 1194.87 629.219 1210.47 635.019 1208.17C639.419 1206.47 649.819 1191.87 652.019 1192.67C657.619 1194.67 670.019 1200.67 669.019 1192.67C668.519 1188.87 657.619 1180.67 652.019 1171.07C647.319 1162.87 665.019 1145.07 660.119 1137.77C657.919 1134.37 641.219 1136.97 638.119 1137.77C636.819 1138.07 635.819 1140.17 635.319 1141.57C630.519 1153.87 643.219 1161.27 638.119 1168.37C635.519 1171.97 622.72 1169.67 618.42 1171.07C609.12 1174.07 630.019 1183.47 632.719 1189.67Z" fill="#F7F2EE"/>
<path d="M632.719 1189.67C635.019 1194.87 629.219 1210.47 635.019 1208.17C639.419 1206.47 649.819 1191.87 652.019 1192.67C657.619 1194.67 670.019 1200.67 669.019 1192.67C668.519 1188.87 657.619 1180.67 652.019 1171.07C647.319 1162.87 665.019 1145.07 660.119 1137.77C657.919 1134.37 641.219 1136.97 638.119 1137.77C636.819 1138.07 635.819 1140.17 635.319 1141.57C630.519 1153.87 643.219 1161.27 638.119 1168.37C635.519 1171.97 622.72 1169.67 618.42 1171.07C609.12 1174.07 630.019 1183.47 632.719 1189.67Z" stroke="#161616" stroke-width="4" stroke-miterlimit="10" stroke-linecap="round" stroke-linejoin="round"/>
<path fill-rule="evenodd" clip-rule="evenodd" d="M223.519 323.171C237.519 322.871 508.62 340.671 672.62 342.471C796.22 343.871 905.019 347.171 907.719 333.771C912.219 311.971 430.919 317.371 365.019 292.671C342.219 284.071 342.319 254.571 387.519 253.271C425.219 252.271 522.919 254.471 591.319 255.371C623.119 255.771 631.619 255.271 633.719 253.871C641.519 248.871 645.02 226.271 603.42 226.271C540.12 226.171 500.22 216.271 511.62 198.871C517.02 190.471 531.019 180.971 631.019 183.271C697.919 184.771 758.32 174.871 802.12 165.771C810.32 164.071 814.419 147.371 801.32 145.271C785.52 142.671 658.82 153.771 663.92 124.871C669.42 93.8714 788.619 97.3712 934.219 90.1712C1012.02 86.3712 1018.72 146.971 986.32 158.971C901.62 190.271 892.82 178.971 847.12 183.771C799.82 188.771 764.62 196.571 761.82 213.671C759.82 226.171 776.619 222.171 793.019 219.671C796.319 219.171 800.019 219.571 804.019 219.371C858.219 216.371 972.12 193.171 999.42 212.471C1015.42 223.771 999.419 240.171 989.32 241.471C956.919 245.571 766.32 247.071 744.32 249.971C702.12 255.571 698.82 255.971 697.42 267.971C695.22 286.971 759.619 286.571 877.019 292.871C916.119 294.971 951.42 300.771 1002.62 298.971C1139.12 294.371 1221.12 314.971 1224.82 358.471C1229.62 414.671 1114.42 418.572 1006.82 413.072C743.82 399.872 758.22 395.671 756.92 401.271C750.52 427.971 764.22 479.771 857.92 475.771C945.72 472.071 1101.92 463.572 1133.42 489.072C1152.02 504.072 1145.92 503.271 1144.92 509.371C1138.82 545.571 1064.72 534.872 964.719 537.572C875.619 539.972 622.119 531.371 602.719 550.171C591.619 560.871 833.919 575.571 839.519 579.371C893.219 616.271 782.02 640.571 774.12 664.371C767.82 683.371 800.819 691.271 804.219 710.471C809.419 739.672 787.82 748.071 774.12 767.471C764.72 780.771 800.319 812.371 792.519 828.671C781.619 851.571 752.12 857.471 736.42 830.771C726.72 814.171 747.42 781.071 768.62 736.271C799.32 671.171 664.72 715.571 704.12 656.271C710.42 646.771 803.22 627.471 793.42 617.271C777.72 600.871 746.219 603.471 702.019 602.271C599.219 599.371 489.419 580.971 479.519 565.871C453.119 525.771 573.919 523.472 651.819 513.572C757.819 500.072 843.62 514.871 833.92 500.171C812.22 467.571 576.719 483.371 434.019 491.471C379.619 494.571 366.32 484.071 371.32 463.371C374.52 450.071 385.319 435.571 419.419 434.771C489.519 433.171 621.919 438.672 627.819 427.072C638.619 405.772 626.119 392.271 519.019 396.171C327.919 403.071 178.419 405.271 172.419 397.271C143.819 359.271 151.819 324.871 223.519 323.171Z" fill="#00CCC5"/>
<path d="M223.519 323.171C237.519 322.871 508.62 340.671 672.62 342.471C796.22 343.871 905.019 347.171 907.719 333.771C912.219 311.971 430.919 317.371 365.019 292.671C342.219 284.071 342.319 254.571 387.519 253.271C425.219 252.271 522.919 254.471 591.319 255.371C623.119 255.771 631.619 255.271 633.719 253.871C641.519 248.871 645.02 226.271 603.42 226.271C540.12 226.171 500.22 216.271 511.62 198.871C517.02 190.471 531.019 180.971 631.019 183.271C697.919 184.771 758.32 174.871 802.12 165.771C810.32 164.071 814.42 147.371 801.32 145.271C785.52 142.671 658.82 153.771 663.92 124.871C669.42 93.8714 788.619 97.3712 934.219 90.1712C1012.02 86.3712 1018.72 146.971 986.32 158.971C901.62 190.271 892.82 178.971 847.12 183.771C799.82 188.771 764.62 196.571 761.82 213.671C759.82 226.171 776.619 222.171 793.019 219.671C796.319 219.171 800.019 219.571 804.019 219.371C858.219 216.371 972.12 193.171 999.42 212.471C1015.42 223.771 999.42 240.171 989.32 241.471C956.92 245.571 766.32 247.071 744.32 249.971C702.12 255.571 698.82 255.971 697.42 267.971C695.22 286.971 759.619 286.571 877.019 292.871C916.119 294.971 951.42 300.771 1002.62 298.971C1139.12 294.371 1221.12 314.971 1224.82 358.471C1229.62 414.671 1114.42 418.572 1006.82 413.072C743.82 399.872 758.22 395.671 756.92 401.271C750.52 427.971 764.22 479.771 857.92 475.771C945.72 472.071 1101.92 463.572 1133.42 489.072C1152.02 504.072 1145.92 503.271 1144.92 509.371C1138.82 545.571 1064.72 534.872 964.719 537.572C875.619 539.972 622.119 531.371 602.719 550.171C591.619 560.871 833.919 575.571 839.519 579.371C893.219 616.271 782.02 640.571 774.12 664.371C767.82 683.371 800.819 691.271 804.219 710.471C809.419 739.671 787.82 748.071 774.12 767.471C764.72 780.771 800.319 812.371 792.519 828.671C781.619 851.571 752.12 857.471 736.42 830.771C726.72 814.171 747.42 781.071 768.62 736.271C799.32 671.171 664.72 715.571 704.12 656.271C710.42 646.771 803.22 627.471 793.42 617.271C777.72 600.871 746.219 603.471 702.019 602.271C599.219 599.371 489.419 580.971 479.519 565.871C453.119 525.771 573.919 523.472 651.819 513.572C757.819 500.072 843.62 514.871 833.92 500.171C812.22 467.571 576.719 483.371 434.019 491.471C379.619 494.571 366.32 484.071 371.32 463.371C374.52 450.071 385.319 435.571 419.419 434.771C489.519 433.171 621.919 438.672 627.819 427.072C638.619 405.772 626.119 392.271 519.019 396.171C327.919 403.071 178.419 405.271 172.419 397.271C143.819 359.271 151.819 324.871 223.519 323.171Z" stroke="#161616" stroke-width="8" stroke-miterlimit="10" stroke-linecap="round" stroke-linejoin="round"/>
<path fill-rule="evenodd" clip-rule="evenodd" d="M300.22 327.472C302.72 325.072 293.12 328.372 290.22 330.272C283.62 334.472 278.619 340.972 274.919 347.772C264.619 366.972 263.819 390.172 266.519 411.372C271.219 448.072 293.819 478.872 293.819 516.872C293.719 562.572 266.02 609.872 286.12 654.572C297.22 679.372 314.719 672.272 320.419 648.572C326.919 621.272 320.92 523.472 372.62 529.672C379.12 530.472 387.62 530.372 393.12 534.472C406.22 544.372 387.119 568.772 364.819 567.472C356.419 566.972 352.92 565.072 350.62 583.572C346.02 621.472 363.12 694.172 304.12 696.072C277.42 696.872 254.52 680.572 248.62 654.172C237.72 605.872 276.419 565.372 273.919 519.372C271.419 472.772 230.72 438.372 234.72 388.972C235.82 375.272 241.819 363.272 247.519 350.972C272.319 297.772 312.419 312.172 295.819 327.472" fill="#F7F2EE"/>
<path opacity="0.9116" d="M300.22 327.472C302.72 325.072 293.12 328.372 290.22 330.272C283.62 334.472 278.619 340.972 274.919 347.772C264.619 366.972 263.819 390.172 266.519 411.372C271.219 448.072 293.819 478.872 293.819 516.872C293.719 562.572 266.02 609.872 286.12 654.572C297.22 679.372 314.719 672.272 320.419 648.572C326.919 621.272 320.92 523.472 372.62 529.672C379.12 530.472 387.62 530.372 393.12 534.472C406.22 544.372 387.119 568.772 364.819 567.472C356.419 566.972 352.92 565.072 350.62 583.572C346.02 621.472 363.12 694.172 304.12 696.072C277.42 696.872 254.52 680.572 248.62 654.172C237.72 605.872 276.419 565.372 273.919 519.372C271.419 472.772 230.72 438.372 234.72 388.972C235.82 375.272 241.819 363.272 247.519 350.972C272.319 297.772 312.419 312.172 295.819 327.472" stroke="#161616" stroke-width="8" stroke-miterlimit="10" stroke-linecap="round" stroke-linejoin="round"/>
<path opacity="0.9116" d="M399.319 537.572C405.419 542.472 430.619 530.772 434.819 524.472" stroke="#161616" stroke-width="4" stroke-miterlimit="10" stroke-linecap="round" stroke-linejoin="round"/>
<path opacity="0.9116" d="M401.719 538.972C401.719 538.872 402.219 538.972 402.219 538.972C406.019 539.172 409.92 539.371 413.62 540.171C422.42 542.071 427.32 548.672 427.62 557.572" stroke="#161616" stroke-width="4" stroke-miterlimit="10" stroke-linecap="round" stroke-linejoin="round"/>
<path fill-rule="evenodd" clip-rule="evenodd" d="M310.319 327.171C311.019 326.671 309.319 328.672 308.819 329.372C307.919 330.972 307.119 332.671 306.319 334.271C304.019 338.771 301.719 343.272 299.719 347.972C296.219 356.272 277.619 413.672 295.019 410.472C307.219 408.272 311.719 387.571 318.919 364.771C327.119 338.871 330.819 313.971 317.319 322.171" fill="#F7F2EE"/>
<path opacity="0.9116" d="M310.319 327.171C311.019 326.671 309.319 328.672 308.819 329.372C307.919 330.972 307.119 332.671 306.319 334.271C304.019 338.771 301.719 343.272 299.719 347.972C296.219 356.272 277.619 413.672 295.019 410.472C307.219 408.272 311.719 387.571 318.919 364.771C327.119 338.871 330.819 313.971 317.319 322.171" stroke="#161616" stroke-width="8" stroke-miterlimit="10" stroke-linecap="round" stroke-linejoin="round"/>
<path fill-rule="evenodd" clip-rule="evenodd" d="M361.219 322.372C361.919 321.872 354.319 322.871 348.819 328.771C347.619 330.171 341.819 343.071 339.819 347.771C336.319 356.071 321.419 414.072 338.819 410.572C350.819 408.172 349.819 386.071 357.019 363.271C365.319 337.371 374.619 314.072 361.219 322.372Z" fill="#F7F2EE"/>
<path opacity="0.9116" d="M361.219 322.372C361.919 321.872 354.319 322.871 348.819 328.771C347.619 330.171 341.819 343.071 339.819 347.771C336.319 356.071 321.419 414.072 338.819 410.572C350.819 408.172 349.819 386.071 357.019 363.271C365.319 337.371 374.619 314.072 361.219 322.372Z" stroke="#161616" stroke-width="8" stroke-miterlimit="10" stroke-linecap="round" stroke-linejoin="round"/>
<path fill-rule="evenodd" clip-rule="evenodd" d="M385.62 327.972C385.32 328.072 383.62 337.971 383.62 338.171C384.62 345.771 387.719 355.072 392.319 360.972C405.519 377.972 431.619 375.471 451.719 376.171C453.219 376.171 470.319 377.072 471.019 375.472C476.319 362.072 460.219 362.272 459.219 362.072C447.519 359.172 432.319 361.772 422.219 354.872C418.419 352.272 413.719 354.171 412.019 349.771C408.819 341.371 411.019 335.771 408.819 327.171C404.919 312.171 389.12 318.272 385.62 327.972Z" fill="#F7F2EE"/>
<path opacity="0.9116" d="M385.62 327.972C385.32 328.072 383.62 337.971 383.62 338.171C384.62 345.771 387.719 355.072 392.319 360.972C405.519 377.972 431.619 375.471 451.719 376.171C453.219 376.171 470.319 377.072 471.019 375.472C476.319 362.072 460.219 362.272 459.219 362.072C447.519 359.172 432.319 361.772 422.219 354.872C418.419 352.272 413.719 354.171 412.019 349.771C408.819 341.371 411.019 335.771 408.819 327.171C404.919 312.171 389.12 318.272 385.62 327.972Z" stroke="#161616" stroke-width="8" stroke-miterlimit="10" stroke-linecap="round" stroke-linejoin="round"/>
<path opacity="0.9116" d="M389.719 349.572C391.519 351.272 405.62 347.272 407.62 345.072" stroke="#161616" stroke-width="4" stroke-miterlimit="10" stroke-linecap="round" stroke-linejoin="round"/>
<path opacity="0.9116" d="M400.719 364.872C401.419 365.772 404.519 364.171 405.319 363.771C409.119 361.871 413.02 358.871 414.62 354.671" stroke="#161616" stroke-width="4" stroke-miterlimit="10" stroke-linecap="round" stroke-linejoin="round"/>
<path opacity="0.9116" d="M419.019 374.271C418.619 374.771 420.519 373.871 420.619 373.771C421.619 372.971 422.619 371.972 423.419 370.872C426.019 367.872 428.019 364.272 429.019 360.472" stroke="#161616" stroke-width="4" stroke-miterlimit="10" stroke-linecap="round" stroke-linejoin="round"/>
<path fill-rule="evenodd" clip-rule="evenodd" d="M794.719 364.372C794.919 364.272 781.319 358.572 780.519 358.372C770.719 356.072 760.519 356.072 750.319 357.072C719.919 360.272 690.519 376.772 668.319 399.172C629.119 438.872 621.519 496.872 653.319 538.772C661.519 549.472 676.119 565.672 689.619 566.172C727.119 567.572 743.719 572.872 768.119 572.272C782.719 571.872 784.719 575.072 798.819 571.172C856.519 555.172 878.119 476.472 860.019 427.972C852.119 406.772 832.919 382.372 813.619 371.072C806.719 367.072 798.319 365.772 791.119 362.272" fill="#F7F2EE"/>
<path d="M794.719 364.372C794.919 364.272 781.319 358.572 780.519 358.372C770.719 356.072 760.519 356.072 750.319 357.072C719.919 360.272 690.519 376.772 668.319 399.172C629.119 438.872 621.519 496.872 653.319 538.772C661.519 549.472 676.119 565.672 689.619 566.172C727.119 567.572 743.719 572.872 768.119 572.272C782.719 571.872 784.719 575.072 798.819 571.172C856.519 555.172 878.119 476.472 860.019 427.972C852.119 406.772 832.919 382.372 813.619 371.072C806.719 367.072 798.319 365.772 791.119 362.272" stroke="#161616" stroke-width="8" stroke-miterlimit="10" stroke-linecap="round" stroke-linejoin="round"/>
<path fill-rule="evenodd" clip-rule="evenodd" d="M656.119 426.872C655.419 426.472 657.719 426.272 658.419 425.972C676.419 418.472 704.419 416.272 722.619 417.972C823.419 426.872 849.419 522.372 848.219 524.972C846.419 529.072 693.819 561.772 656.119 426.872Z" fill="#F7F2EE"/>
<path d="M656.119 426.872C655.419 426.472 657.719 426.272 658.419 425.972C676.419 418.472 704.419 416.272 722.619 417.972C823.419 426.872 849.419 522.372 848.219 524.972C846.419 529.072 693.819 561.772 656.119 426.872Z" stroke="#161616" stroke-width="8" stroke-miterlimit="10" stroke-linecap="round" stroke-linejoin="round"/>
<path fill-rule="evenodd" clip-rule="evenodd" d="M774.62 433.072C755.92 421.472 718.62 426.971 711.12 463.171C708.12 477.471 712.62 489.471 719.52 498.871C759.619 552.871 837.62 472.272 774.62 433.072Z" fill="black"/>
<path d="M774.62 433.072C755.92 421.472 718.62 426.971 711.12 463.171C708.12 477.471 712.62 489.471 719.52 498.871C759.619 552.871 837.62 472.272 774.62 433.072Z" stroke="#161616" stroke-width="8" stroke-miterlimit="10" stroke-linecap="round" stroke-linejoin="round"/>
<path fill-rule="evenodd" clip-rule="evenodd" d="M994.519 392.072C995.519 393.072 995.719 389.572 996.319 388.372C997.919 384.872 1002.22 373.472 1007.32 374.372C1014.02 375.472 1013.82 394.772 1028.02 396.572C1037.22 397.672 1056.12 397.672 1064.52 392.872C1070.72 389.372 1071.52 376.572 1080.12 376.772C1089.52 376.972 1088.62 396.472 1091.92 402.672C1100.32 418.672 1129.42 405.172 1126.12 434.072C1124.62 446.972 1113.52 475.872 1099.62 480.972C1066.42 493.272 998.62 481.172 973.42 464.872C955.52 453.272 958.72 424.272 974.42 403.772C979.22 397.472 986.719 398.172 992.319 393.772" fill="#F7F2EE"/>
<path d="M994.519 392.072C995.519 393.072 995.719 389.572 996.319 388.372C997.919 384.872 1002.22 373.472 1007.32 374.372C1014.02 375.472 1013.82 394.772 1028.02 396.572C1037.22 397.672 1056.12 397.672 1064.52 392.872C1070.72 389.372 1071.52 376.572 1080.12 376.772C1089.52 376.972 1088.62 396.472 1091.92 402.672C1100.32 418.672 1129.42 405.172 1126.12 434.072C1124.62 446.972 1113.52 475.872 1099.62 480.972C1066.42 493.272 998.62 481.172 973.42 464.872C955.52 453.272 958.72 424.272 974.42 403.772C979.22 397.472 986.719 398.172 992.319 393.772" stroke="#161616" stroke-width="8" stroke-miterlimit="10" stroke-linecap="round" stroke-linejoin="round"/>
<path fill-rule="evenodd" clip-rule="evenodd" d="M1081.42 489.171C1072.02 500.971 1079.72 532.671 1098.62 524.271C1121.72 513.971 1115.52 483.372 1090.92 484.972" fill="#F7F2EE"/>
<path d="M1081.42 489.171C1072.02 500.971 1079.72 532.671 1098.62 524.271C1121.72 513.971 1115.52 483.372 1090.92 484.972" stroke="#161616" stroke-width="8" stroke-miterlimit="10" stroke-linecap="round" stroke-linejoin="round"/>
<path fill-rule="evenodd" clip-rule="evenodd" d="M958.62 468.871C949.22 480.671 956.919 512.372 975.819 503.972C998.919 493.672 992.72 463.071 968.12 464.671" fill="#F7F2EE"/>
<path d="M958.62 468.871C949.22 480.671 956.919 512.372 975.819 503.972C998.919 493.672 992.72 463.071 968.12 464.671" stroke="#161616" stroke-width="8" stroke-miterlimit="10" stroke-linecap="round" stroke-linejoin="round"/>
<path fill-rule="evenodd" clip-rule="evenodd" d="M1064.92 314.372C1062.02 311.772 1053.42 317.872 1051.52 319.572C1043.52 327.172 1043.52 348.372 1056.82 350.872C1082.22 355.672 1089.92 317.772 1065.22 312.072" fill="#F7F2EE"/>
<path d="M1064.92 314.372C1062.02 311.772 1053.42 317.872 1051.52 319.572C1043.52 327.172 1043.52 348.372 1056.82 350.872C1082.22 355.672 1089.92 317.772 1065.22 312.072" stroke="#161616" stroke-width="4" stroke-miterlimit="10" stroke-linecap="round" stroke-linejoin="round"/>
<path opacity="0.9116" fill-rule="evenodd" clip-rule="evenodd" d="M1059.82 314.772C1051.42 309.572 1045.62 287.972 1045.12 278.372C1044.82 273.272 1045.52 267.272 1050.42 264.672C1059.92 259.672 1066.02 270.872 1074.22 272.272C1083.52 273.872 1092.92 267.972 1102.12 272.672C1111.82 277.572 1109.52 290.072 1104.32 297.272C1096.52 308.172 1077.12 318.872 1063.12 316.572" fill="black"/>
<path d="M1059.82 314.772C1051.42 309.572 1045.62 287.972 1045.12 278.372C1044.82 273.272 1045.52 267.272 1050.42 264.672C1059.92 259.672 1066.02 270.872 1074.22 272.272C1083.52 273.872 1092.92 267.972 1102.12 272.672C1111.82 277.572 1109.52 290.072 1104.32 297.272C1096.52 308.172 1077.12 318.872 1063.12 316.572" stroke="black" stroke-width="4" stroke-miterlimit="10" stroke-linecap="round" stroke-linejoin="round"/>
<path fill-rule="evenodd" clip-rule="evenodd" d="M1074.42 284.572C1073.62 283.772 1073.42 286.572 1072.92 287.472C1071.82 289.472 1070.92 291.472 1069.92 293.572C1066.92 299.772 1064.02 306.372 1064.62 313.472" fill="#F7F2EE"/>
<path opacity="0.9116" d="M1074.42 284.572C1073.62 283.772 1073.42 286.572 1072.92 287.472C1071.82 289.472 1070.92 291.472 1069.92 293.572C1066.92 299.772 1064.02 306.372 1064.62 313.472" stroke="#F7F2EE" stroke-width="4" stroke-miterlimit="10" stroke-linecap="round" stroke-linejoin="round"/>
<path opacity="0.9116" fill-rule="evenodd" clip-rule="evenodd" d="M1045.52 327.771C1045.72 328.471 1046.12 326.371 1046.42 325.671C1047.02 324.271 1047.62 322.771 1048.02 321.271C1049.32 316.571 1049.32 312.072 1048.02 307.372C1044.72 296.072 1031.92 278.372 1017.82 286.972C1007.92 292.972 1015.62 301.672 1013.22 309.972C1011.32 316.672 1006.02 321.371 1005.72 328.671C1005.42 337.071 1012.22 342.371 1020.32 341.171C1027.62 340.171 1034.02 335.272 1040.22 331.572" fill="black"/>
<path d="M1045.52 327.771C1045.72 328.471 1046.12 326.371 1046.42 325.671C1047.02 324.271 1047.62 322.771 1048.02 321.271C1049.32 316.571 1049.32 312.072 1048.02 307.372C1044.72 296.072 1031.92 278.372 1017.82 286.972C1007.92 292.972 1015.62 301.672 1013.22 309.972C1011.32 316.672 1006.02 321.371 1005.72 328.671C1005.42 337.071 1012.22 342.371 1020.32 341.171C1027.62 340.171 1034.02 335.272 1040.22 331.572" stroke="black" stroke-width="4" stroke-miterlimit="10" stroke-linecap="round" stroke-linejoin="round"/>
<path opacity="0.9116" fill-rule="evenodd" clip-rule="evenodd" d="M1079.42 334.671C1079.32 335.171 1079.72 333.571 1079.92 333.171C1080.52 332.071 1081.22 331.072 1081.82 330.072C1083.62 327.072 1085.62 324.272 1087.72 321.372C1093.12 313.772 1106.22 296.772 1115.72 310.472C1120.72 317.572 1112.52 323.271 1111.32 329.671C1110.62 333.671 1114.72 336.771 1116.02 340.271C1118.82 348.071 1114.72 355.772 1108.42 360.372C1097.02 368.772 1077.12 363.272 1078.22 347.072" fill="black"/>
<path d="M1079.42 334.671C1079.32 335.171 1079.72 333.571 1079.92 333.171C1080.52 332.071 1081.22 331.072 1081.82 330.072C1083.62 327.072 1085.62 324.272 1087.72 321.372C1093.12 313.772 1106.22 296.772 1115.72 310.472C1120.72 317.572 1112.52 323.271 1111.32 329.671C1110.62 333.671 1114.72 336.771 1116.02 340.271C1118.82 348.071 1114.72 355.772 1108.42 360.372C1097.02 368.772 1077.12 363.272 1078.22 347.072" stroke="black" stroke-width="4" stroke-miterlimit="10" stroke-linecap="round" stroke-linejoin="round"/>
<path opacity="0.9116" d="M1054.72 351.271C1054.72 351.271 1051.82 353.771 1051.52 354.171C1049.02 357.471 1046.82 361.272 1044.92 364.972C1039.32 376.172 1039.42 382.871 1043.32 395.271" stroke="#161616" stroke-width="4" stroke-miterlimit="10" stroke-linecap="round" stroke-linejoin="round"/>
<path fill-rule="evenodd" clip-rule="evenodd" d="M1021.92 313.972C1021.22 314.472 1023.62 314.071 1024.42 314.171C1026.22 314.371 1028.02 314.871 1029.82 315.271C1035.42 316.771 1038.62 319.572 1042.12 323.872" fill="#F7F2EE"/>
<path opacity="0.9116" d="M1021.92 313.972C1021.22 314.472 1023.62 314.071 1024.42 314.171C1026.22 314.371 1028.02 314.871 1029.82 315.271C1035.42 316.771 1038.62 319.572 1042.12 323.872" stroke="#F7F2EE" stroke-width="4" stroke-miterlimit="10" stroke-linecap="round" stroke-linejoin="round"/>
<path fill-rule="evenodd" clip-rule="evenodd" d="M1101.62 338.172C1102.32 337.972 1100.42 339.072 1099.72 339.472C1098.32 340.172 1096.92 340.672 1095.42 340.972C1090.32 342.172 1086.92 341.372 1082.42 339.272" fill="#F7F2EE"/>
<path opacity="0.9116" d="M1101.62 338.172C1102.32 337.972 1100.42 339.072 1099.72 339.472C1098.32 340.172 1096.92 340.672 1095.42 340.972C1090.32 342.172 1086.92 341.372 1082.42 339.272" stroke="#F7F2EE" stroke-width="4" stroke-miterlimit="10" stroke-linecap="round" stroke-linejoin="round"/>
<path fill-rule="evenodd" clip-rule="evenodd" d="M1057.42 428.671C1069.42 429.671 1061.82 428.872 1069.22 429.372L1057.42 428.671Z" fill="#F7F2EE"/>
<path d="M1057.42 428.671C1069.42 429.671 1061.82 428.872 1069.22 429.372" stroke="#161616" stroke-width="4" stroke-miterlimit="10" stroke-linecap="round" stroke-linejoin="round"/>
<path fill-rule="evenodd" clip-rule="evenodd" d="M1010.42 424.271C1022.42 425.271 1014.82 424.572 1022.22 424.972L1010.42 424.271Z" fill="#F7F2EE"/>
<path d="M1010.42 424.271C1022.42 425.271 1014.82 424.572 1022.22 424.972" stroke="#161616" stroke-width="4" stroke-miterlimit="10" stroke-linecap="round" stroke-linejoin="round"/>
<path fill-rule="evenodd" clip-rule="evenodd" d="M1032.42 439.671C1028.22 446.471 1045.92 450.471 1046.02 443.371C1046.02 440.771 1043.32 425.771 1032.42 439.671Z" fill="#F7F2EE"/>
<path d="M1032.42 439.671C1028.22 446.471 1045.92 450.471 1046.02 443.371C1046.02 440.771 1043.32 425.771 1032.42 439.671Z" stroke="#161616" stroke-width="4" stroke-miterlimit="10" stroke-linecap="round" stroke-linejoin="round"/>
<path fill-rule="evenodd" clip-rule="evenodd" d="M1038.62 449.072C1039.92 447.972 1036.72 451.972 1035.42 453.072C1033.42 454.872 1028.02 459.372 1025.42 460.072C1020.82 461.272 1001.72 457.571 1005.82 447.271" fill="#F7F2EE"/>
<path d="M1038.62 449.072C1039.92 447.972 1036.72 451.972 1035.42 453.072C1033.42 454.872 1028.02 459.372 1025.42 460.072C1020.82 461.272 1001.72 457.571 1005.82 447.271" stroke="#161616" stroke-width="4" stroke-miterlimit="10" stroke-linecap="round" stroke-linejoin="round"/>
<path fill-rule="evenodd" clip-rule="evenodd" d="M1039.62 450.372C1035.52 456.772 1047.22 464.272 1059.92 467.872C1065.42 469.472 1071.12 461.771 1073.22 459.271" fill="#F7F2EE"/>
<path d="M1039.62 450.372C1035.52 456.772 1047.22 464.272 1059.92 467.872C1065.42 469.472 1071.12 461.771 1073.22 459.271" stroke="#161616" stroke-width="4" stroke-miterlimit="10" stroke-linecap="round" stroke-linejoin="round"/>
<path opacity="0.9116" fill-rule="evenodd" clip-rule="evenodd" d="M794.32 1069.87C793.32 1068.77 793.119 1079.47 790.719 1080.07C788.119 1080.67 767.02 1094.07 776.62 1098.17C780.72 1099.87 789.92 1102.27 793.12 1108.07C798.12 1116.97 796.72 1129.77 800.92 1129.87C801.92 1129.87 802.82 1129.27 803.42 1128.47C804.92 1126.77 801.82 1112.77 806.92 1105.77C811.72 1099.27 824.619 1099.87 825.219 1094.67C826.119 1086.67 806.32 1084.97 803.42 1080.17C798.72 1072.27 802.82 1067.47 800.92 1063.87C798.82 1059.67 794.62 1069.37 794.32 1069.87Z" fill="#F7F2EE"/>
<path d="M794.32 1069.87C793.32 1068.77 793.119 1079.47 790.719 1080.07C788.119 1080.67 767.02 1094.07 776.62 1098.17C780.72 1099.87 789.92 1102.27 793.12 1108.07C798.12 1116.97 796.72 1129.77 800.92 1129.87C801.92 1129.87 802.82 1129.27 803.42 1128.47C804.92 1126.77 801.82 1112.77 806.92 1105.77C811.72 1099.27 824.619 1099.87 825.219 1094.67C826.119 1086.67 806.32 1084.97 803.42 1080.17C798.72 1072.27 802.82 1067.47 800.92 1063.87C798.82 1059.67 794.62 1069.37 794.32 1069.87Z" stroke="#161616" stroke-width="4" stroke-miterlimit="10" stroke-linecap="round" stroke-linejoin="round"/>
<path opacity="0.9116" fill-rule="evenodd" clip-rule="evenodd" d="M890.519 1048.17C890.419 1048.27 920.52 1120.07 930.62 1106.47C938.92 1095.27 912.92 1074.37 908.62 1069.27C907.02 1067.37 900.119 1041.37 890.519 1048.17Z" fill="#F7F2EE"/>
<path d="M890.519 1048.17C890.419 1048.27 920.52 1120.07 930.62 1106.47C938.92 1095.27 912.92 1074.37 908.62 1069.27C907.02 1067.37 900.119 1041.37 890.519 1048.17Z" stroke="#161616" stroke-width="4" stroke-miterlimit="10" stroke-linecap="round" stroke-linejoin="round"/>
<path opacity="0.9116" fill-rule="evenodd" clip-rule="evenodd" d="M751.119 949.972C758.319 951.172 756.519 958.972 755.919 962.872C753.919 974.672 740.519 1011.27 717.819 1007.17C715.019 1006.67 713.419 1004.97 714.719 1002.17C718.319 994.871 727.919 988.672 733.019 981.872C739.819 972.772 742.319 963.472 747.119 954.072C747.819 952.672 749.119 950.572 751.119 949.972Z" fill="#F7F2EE"/>
<path d="M751.119 949.972C758.319 951.172 756.519 958.972 755.919 962.872C753.919 974.672 740.519 1011.27 717.819 1007.17C715.019 1006.67 713.419 1004.97 714.719 1002.17C718.319 994.871 727.919 988.672 733.019 981.872C739.819 972.772 742.319 963.472 747.119 954.072C747.819 952.672 749.119 950.572 751.119 949.972Z" stroke="#161616" stroke-width="4" stroke-miterlimit="10" stroke-linecap="round" stroke-linejoin="round"/>
<path fill-rule="evenodd" clip-rule="evenodd" d="M333.019 113.572C331.219 113.772 336.719 114.771 337.919 116.471C341.519 121.571 340.219 122.971 334.819 126.471C327.919 130.971 292.919 126.271 290.919 130.971C289.019 135.671 315.519 140.871 316.019 153.171C316.419 162.271 225.119 165.272 222.519 155.572C220.119 146.372 255.919 144.271 265.019 140.371C265.619 140.071 267.119 139.572 267.019 138.572C266.719 134.272 242.019 129.671 241.119 121.771C240.019 110.971 312.619 111.272 333.019 113.572Z" fill="#00CCC5"/>
<path d="M333.019 113.572C331.219 113.772 336.719 114.771 337.919 116.471C341.519 121.571 340.219 122.971 334.819 126.471C327.919 130.971 292.919 126.271 290.919 130.971C289.019 135.671 315.519 140.871 316.019 153.171C316.419 162.271 225.119 165.272 222.519 155.572C220.119 146.372 255.919 144.271 265.019 140.371C265.619 140.071 267.119 139.572 267.019 138.572C266.719 134.272 242.019 129.671 241.119 121.771C240.019 110.971 312.619 111.272 333.019 113.572Z" stroke="#161616" stroke-width="8" stroke-miterlimit="10" stroke-linecap="round" stroke-linejoin="round"/>
<path fill-rule="evenodd" clip-rule="evenodd" d="M1224.62 170.671C1227.02 177.371 1221.52 183.872 1242.52 180.472C1258.92 177.872 1341.72 173.471 1342.82 190.271C1344.22 211.871 1253.82 192.171 1243.32 202.171C1231.32 213.671 1288.32 213.072 1298.72 217.072C1300.02 217.572 1304.42 219.272 1302.92 221.572C1301.52 223.672 1298.02 224.472 1295.92 225.072C1285.12 228.072 1157.72 237.672 1149.82 222.472C1141.32 205.972 1187.72 208.072 1196.72 195.472C1202.62 187.272 1166.62 166.771 1174.62 154.371C1181.02 144.471 1209.82 143.372 1232.72 142.472C1268.82 141.072 1279.52 155.172 1276.42 156.972C1266.52 162.972 1220.22 158.671 1224.62 170.671Z" fill="#00CCC5"/>
<path opacity="0.9116" d="M1224.62 170.671C1227.02 177.371 1221.52 183.872 1242.52 180.472C1258.92 177.872 1341.72 173.471 1342.82 190.271C1344.22 211.871 1253.82 192.171 1243.32 202.171C1231.32 213.671 1288.32 213.072 1298.72 217.072C1300.02 217.572 1304.42 219.272 1302.92 221.572C1301.52 223.672 1298.02 224.472 1295.92 225.072C1285.12 228.072 1157.72 237.672 1149.82 222.472C1141.32 205.972 1187.72 208.072 1196.72 195.472C1202.62 187.272 1166.62 166.771 1174.62 154.371C1181.02 144.471 1209.82 143.372 1232.72 142.472C1268.82 141.072 1279.52 155.172 1276.42 156.972C1266.52 162.972 1220.22 158.671 1224.62 170.671Z" stroke="#161616" stroke-width="8" stroke-miterlimit="10" stroke-linecap="round" stroke-linejoin="round"/>
<path fill-rule="evenodd" clip-rule="evenodd" d="M876.019 141.372C873.319 140.472 890.919 105.971 892.819 106.271C898.619 107.371 900.62 135.671 905.42 139.271C911.02 143.571 937.42 130.872 941.62 137.972C944.22 142.372 916.319 163.372 916.519 166.972C916.719 173.472 935.519 200.372 928.319 207.072C923.519 211.672 894.52 188.172 887.12 187.072C878.42 185.672 858.82 209.572 851.42 206.472C850.22 205.972 851.02 203.671 851.42 202.671C854.22 195.071 868.02 180.272 865.62 171.972C862.72 161.972 833.22 155.571 833.12 152.671C832.42 138.571 873.619 147.872 876.019 141.372Z" fill="#F7F2EE"/>
<path opacity="0.9116" d="M876.019 141.372C873.319 140.472 890.919 105.971 892.819 106.271C898.619 107.371 900.62 135.671 905.42 139.271C911.02 143.571 937.42 130.872 941.62 137.972C944.22 142.372 916.319 163.372 916.519 166.972C916.719 173.472 935.519 200.372 928.319 207.072C923.519 211.672 894.52 188.172 887.12 187.072C878.42 185.672 858.82 209.572 851.42 206.472C850.22 205.972 851.02 203.671 851.42 202.671C854.22 195.071 868.02 180.272 865.62 171.972C862.72 161.972 833.22 155.571 833.12 152.671C832.42 138.571 873.619 147.872 876.019 141.372Z" stroke="#161616" stroke-width="8" stroke-miterlimit="10" stroke-linecap="round" stroke-linejoin="round"/>
<path fill-rule="evenodd" clip-rule="evenodd" d="M497.819 252.671C492.319 255.371 472.419 216.472 470.219 209.772C452.519 156.072 511.119 143.071 549.019 162.671C566.319 171.571 574.819 188.672 581.419 206.072C585.619 217.172 588.819 228.872 595.819 238.572C597.119 240.472 602.82 244.972 602.42 247.472C601.52 253.272 583.519 254.471 579.519 254.671C554.419 256.071 527.019 257.772 502.519 251.272" fill="#161616"/>
<path opacity="0.9116" d="M497.819 252.671C492.319 255.371 472.419 216.472 470.219 209.772C452.519 156.072 511.119 143.071 549.019 162.671C566.319 171.571 574.819 188.672 581.419 206.072C585.619 217.172 588.819 228.872 595.819 238.572C597.119 240.472 602.82 244.972 602.42 247.472C601.52 253.272 583.519 254.471 579.519 254.671C554.419 256.071 527.019 257.772 502.519 251.272" stroke="black" stroke-width="8" stroke-miterlimit="10" stroke-linecap="round" stroke-linejoin="round"/>
<path opacity="0.9116" d="M516.32 252.171C516.22 252.771 509.62 245.372 509.32 245.072C505.22 239.472 501.92 233.471 499.32 226.971C491.02 206.371 494.12 185.372 518.82 181.072C541.42 177.072 558.819 190.971 564.419 212.271C566.219 219.071 568.72 229.071 563.22 234.871C550.12 248.771 518.92 237.971 519.72 217.871C520.22 204.671 540.42 198.671 546.12 211.771C549.32 219.371 538.52 227.072 532.72 221.072C528.42 216.672 537.02 211.371 539.12 214.671" stroke="#F7F2EE" stroke-width="4" stroke-miterlimit="10" stroke-linecap="round" stroke-linejoin="round"/>
<path opacity="0.9116" d="M479.019 232.572C479.819 234.572 476.519 228.972 475.019 227.472C471.819 224.472 467.919 222.072 463.919 220.572C453.819 216.972 435.919 217.972 435.919 232.572C435.819 254.372 469.119 252.272 483.519 249.972C485.019 249.772 488.219 249.472 488.319 247.372C488.319 244.472 482.519 240.272 481.019 237.672" stroke="black" stroke-width="8" stroke-miterlimit="10" stroke-linecap="round" stroke-linejoin="round"/>
<path opacity="0.9116" d="M439.619 222.572C429.019 221.272 411.219 198.972 427.219 192.572C435.119 189.472 444.119 201.171 436.019 205.171" stroke="#161616" stroke-width="4" stroke-miterlimit="10" stroke-linecap="round" stroke-linejoin="round"/>
</svg>
