<svg width="1500" height="1500" viewBox="0 0 1500 1500" fill="none" xmlns="http://www.w3.org/2000/svg">
<rect width="1500" height="1500" fill="#F7F2EE"/>
<path opacity="0.9116" d="M842.6 605.45C846.7 600.95 858.5 678.549 860.9 703.149C869 784.149 881 868.649 884 941.249C884.1 943.449 882.7 973.75 884.9 974.95C885.1 975.05 891.5 968.449 891.9 968.149C911.3 953.149 939.4 945.149 963.3 946.749C994.1 948.949 1008.3 981.35 1031.2 986.05C1034 986.65 1054 953.45 1070.2 954.95C1091.2 956.95 1100.5 981.85 1119 985.95C1133.2 989.05 1146.7 972.649 1161.8 974.749C1183.5 977.749 1191.4 1001.55 1209.5 1007.15C1222.4 1011.15 1233.4 992.649 1247.5 1000.75C1261.5 1008.85 1265 1038.65 1276.4 1043.35C1287.3 1047.85 1306.2 1011.65 1325 1019.05C1338.5 1024.35 1319.5 1006.15 1325 1019.05C1336.8 1046.55 1375.5 1086.35 1394.7 1032.15" stroke="#161616" stroke-width="4" stroke-miterlimit="10" stroke-linecap="round" stroke-linejoin="round"/>
<path opacity="0.9116" d="M631.5 603.45C631.6 599.25 629.4 611.65 628.2 615.65C597.3 726.95 571.7 839.25 560.7 954.65C560.4 957.95 561.4 977.65 558.2 979.85C557.3 980.45 555.6 977.95 555.2 977.45C544.7 964.75 537.6 952.75 520.9 947.25C515.8 945.55 510.6 944.55 505.2 944.45C473.6 943.95 468.7 985.35 448.3 987.25C437.3 988.25 419.1 960.35 405 957.25C392.6 954.55 372.5 977.55 372.5 977.55C372.5 977.55 365.8 974.65 362.3 973.45C343.6 966.75 320.8 967.95 302.5 975.25C285.5 981.95 260.4 1027.05 248.3 1027.55C238.8 1027.95 199.9 993.95 187.4 1001.75C170.9 1012.05 171.9 1024.15 167.9 1037.65C157.4 1073.75 132.4 1071.25 120.8 1081.75" stroke="#161616" stroke-width="4" stroke-miterlimit="10" stroke-linecap="round" stroke-linejoin="round"/>
<path opacity="0.9116" d="M238.2 972.35C159.3 904.95 151.2 1026.15 105 1022.55" stroke="#161616" stroke-width="4" stroke-miterlimit="10" stroke-linecap="round" stroke-linejoin="round"/>
<path opacity="0.9116" d="M864.1 580.95C866.3 577.55 878.3 625.75 877.3 629.65C875.8 634.95 892.3 701.35 897.5 724.95C900.5 738.55 935.6 909.75 937.4 911.45C940.1 913.95 962.5 903.25 974.2 909.95" stroke="#161616" stroke-width="4" stroke-miterlimit="10" stroke-linecap="round" stroke-linejoin="round"/>
<path fill-rule="evenodd" clip-rule="evenodd" d="M300.4 923.649C252.4 940.049 221.6 1012.15 212.8 1034.05C172.9 1133.05 214.9 1296.75 360.4 1286.75C539.4 1274.45 540.9 1059.85 445.6 973.35C413.8 944.45 363.4 902.149 300.4 923.649Z" fill="#F7F2EE"/>
<path opacity="0.9116" d="M300.4 923.649C252.4 940.049 221.6 1012.15 212.8 1034.05C172.9 1133.05 214.9 1296.75 360.4 1286.75C539.4 1274.45 540.9 1059.85 445.6 973.35C413.8 944.45 363.4 902.149 300.4 923.649Z" stroke="#161616" stroke-width="8" stroke-miterlimit="10" stroke-linecap="round" stroke-linejoin="round"/>
<path opacity="0.9116" d="M200 1113.95C200.3 1113.15 205 1111.45 205.8 1111.15C223 1103.95 223.1 1111.25 238.1 1114.15C247.2 1115.95 255.8 1103.45 265.1 1102.55C274.5 1101.55 281.7 1111.35 291.2 1110.05C300.1 1108.75 305.1 1099.55 313.6 1097.85C323.8 1095.75 330.2 1106.25 339.1 1104.75C347.1 1103.35 352.1 1093.95 359.8 1091.45C367.9 1088.85 375.3 1096.35 382.6 1093.75C390.2 1091.05 392.9 1082.15 399.3 1077.55C405.6 1072.95 412.5 1077.15 418.3 1073.95C423 1071.35 428.6 1060.05 435.9 1055.35C445 1049.45 457.1 1053.85 465.9 1047.65C470.3 1044.55 473.5 1038.25 477.1 1034.15" stroke="#161616" stroke-width="4" stroke-miterlimit="10" stroke-linecap="round" stroke-linejoin="round"/>
<path opacity="0.9116" d="M204.5 1079.65C204.1 1079.95 206.7 1079.35 207.4 1079.35C210.6 1079.15 214.1 1079.75 217 1080.75C225.3 1083.75 232.2 1089.85 241.4 1089.95C255.5 1090.05 264.6 1075.45 278.4 1074.85" stroke="#161616" stroke-width="4" stroke-miterlimit="10" stroke-linecap="round" stroke-linejoin="round"/>
<path opacity="0.9116" d="M391.9 1061.35C402.6 1060.85 415.1 1037.95 423.7 1031.05C439.2 1018.65 457.1 1033.35 469 1010.15" stroke="#161616" stroke-width="4" stroke-miterlimit="10" stroke-linecap="round" stroke-linejoin="round"/>
<path opacity="0.9116" d="M210.5 1052.25C210.3 1052.45 213.1 1054.25 213.3 1054.35C220 1058.75 227.5 1063.55 235.5 1064.95C248.3 1067.15 253.2 1054.75 263.6 1050.85" stroke="#161616" stroke-width="4" stroke-miterlimit="10" stroke-linecap="round" stroke-linejoin="round"/>
<path opacity="0.9116" d="M407.1 1013.15C406.5 1014.65 409.1 1010.45 410.4 1009.55C413.4 1007.55 416.7 1006.05 420.3 1005.55C432.7 1003.75 445 1005.65 452.2 992.45" stroke="#161616" stroke-width="4" stroke-miterlimit="10" stroke-linecap="round" stroke-linejoin="round"/>
<path opacity="0.9116" d="M219.2 1034.75C218.9 1036.95 227.8 1038.95 229.1 1039.25C242.3 1042.15 249 1033.35 260.1 1029.35" stroke="#161616" stroke-width="4" stroke-miterlimit="10" stroke-linecap="round" stroke-linejoin="round"/>
<path opacity="0.9116" d="M397 990.05C396.5 988.25 409.3 984.849 410.2 984.649C419.6 982.449 428.8 980.75 433.6 970.95" stroke="#161616" stroke-width="4" stroke-miterlimit="10" stroke-linecap="round" stroke-linejoin="round"/>
<path opacity="0.9116" d="M228.7 1007.25C228.5 1007.85 238.1 1010.95 238.7 1011.15C248.7 1013.75 257.7 1009.85 266.7 1005.75" stroke="#161616" stroke-width="4" stroke-miterlimit="10" stroke-linecap="round" stroke-linejoin="round"/>
<path opacity="0.9116" d="M383.9 972.95C386.4 968.75 405.8 968.75 410.9 951.55" stroke="#161616" stroke-width="4" stroke-miterlimit="10" stroke-linecap="round" stroke-linejoin="round"/>
<path opacity="0.9116" d="M243.1 985.45C241.9 984.45 246.2 986.15 247.8 986.35C251 986.75 254.1 986.65 257.3 986.45C266.2 985.95 275.8 982.35 284.1 978.85" stroke="#161616" stroke-width="4" stroke-miterlimit="10" stroke-linecap="round" stroke-linejoin="round"/>
<path opacity="0.9116" d="M362.6 960.35C361.7 961.35 365 959.45 366.2 958.95C368.3 958.05 370.4 956.95 372.5 955.75C378.9 952.05 386.1 948.05 391.1 942.35" stroke="#161616" stroke-width="4" stroke-miterlimit="10" stroke-linecap="round" stroke-linejoin="round"/>
<path opacity="0.9116" d="M257.6 962.55C260.3 964.65 279.1 960.85 282.7 959.75C294 956.05 302.3 946.75 313.8 943.25C331.2 937.85 347.6 954.05 358.6 929.75" stroke="#161616" stroke-width="4" stroke-miterlimit="10" stroke-linecap="round" stroke-linejoin="round"/>
<path opacity="0.9116" d="M289.9 935.149C300.1 938.849 321.3 934.15 328 924.75" stroke="#161616" stroke-width="4" stroke-miterlimit="10" stroke-linecap="round" stroke-linejoin="round"/>
<path opacity="0.9116" d="M203.1 1155.85C206.5 1154.05 227.2 1146.65 232 1147.55C239.6 1148.85 245.7 1155.15 253.7 1154.55C261.2 1153.95 266 1145.15 273.5 1145.85C280.2 1146.45 285 1153.25 292.1 1152.75C301.6 1152.05 307.1 1143.35 315.7 1140.65C324.4 1137.95 331.9 1144.95 340.5 1144.15C348.3 1143.55 354.5 1136.05 362.4 1136.55" stroke="#161616" stroke-width="4" stroke-miterlimit="10" stroke-linecap="round" stroke-linejoin="round"/>
<path opacity="0.9116" d="M203.6 1135.75C203.1 1136.35 204.9 1135.05 205.7 1134.75C207.2 1134.25 208.6 1133.85 210.1 1133.45C214.7 1132.35 219.3 1131.55 223.9 1130.95C232.6 1129.75 241.2 1132.95 249.6 1131.85C255 1131.15 259.1 1126.55 264.4 1125.65C273.1 1124.15 280.7 1130.55 289.4 1129.75C298.5 1128.95 306.6 1123.35 315.7 1121.95C322.4 1120.85 329.8 1125.75 337.1 1125.15C345.3 1124.55 352.1 1119.35 359.9 1117.35C367.1 1115.55 373.5 1117.05 380.4 1116.15" stroke="#161616" stroke-width="4" stroke-miterlimit="10" stroke-linecap="round" stroke-linejoin="round"/>
<path opacity="0.9116" d="M442.6 1085.35C442.6 1085.35 442.8 1085.05 442.9 1084.95C446.1 1080.95 449 1076.95 453.3 1074.35C465.4 1067.05 481.2 1068.45 490.9 1057.25" stroke="#161616" stroke-width="4" stroke-miterlimit="10" stroke-linecap="round" stroke-linejoin="round"/>
<path opacity="0.9116" d="M211.6 1181.65C210.5 1176.95 226.9 1170.15 231.1 1170.95C240.2 1172.65 247.5 1178.75 257.2 1177.35C265.3 1176.15 271.2 1168.15 279.3 1167.95C287 1167.75 293 1173.75 300.9 1172.85C317.1 1171.05 315.8 1159.95 335.3 1165.45" stroke="#161616" stroke-width="4" stroke-miterlimit="10" stroke-linecap="round" stroke-linejoin="round"/>
<path opacity="0.9116" d="M222.5 1205.75C220.5 1203.75 229.5 1194.85 241.4 1195.85C249.1 1196.45 256.8 1199.45 264.5 1196.85C271.5 1194.45 277.3 1186.95 285 1186.75C295.9 1186.45 305 1194.85 316.4 1193.85" stroke="#161616" stroke-width="4" stroke-miterlimit="10" stroke-linecap="round" stroke-linejoin="round"/>
<path opacity="0.9116" d="M236.2 1227.55C235.2 1227.95 237.7 1226.05 238.6 1225.45C239.9 1224.55 241.3 1223.75 242.7 1223.05C247.6 1220.75 253.1 1219.95 258.4 1220.15C264.4 1220.35 270.7 1221.25 276.6 1219.55C289.8 1215.65 295.3 1208.75 309.5 1213.45" stroke="#161616" stroke-width="4" stroke-miterlimit="10" stroke-linecap="round" stroke-linejoin="round"/>
<path opacity="0.9116" d="M253.4 1249.95C253.3 1249.95 253.4 1249.65 253.4 1249.65C253.8 1247.75 255.7 1246.35 257.2 1245.45C260.9 1243.25 264.7 1242.05 269 1241.75C275.6 1241.35 281.9 1242.15 288.4 1240.05C295.1 1237.75 300.6 1232.25 307.9 1231.85" stroke="#161616" stroke-width="4" stroke-miterlimit="10" stroke-linecap="round" stroke-linejoin="round"/>
<path opacity="0.9116" d="M281.2 1270.85C286.3 1265.85 292.2 1263.45 299.1 1261.55" stroke="#161616" stroke-width="4" stroke-miterlimit="10" stroke-linecap="round" stroke-linejoin="round"/>
<path opacity="0.9116" d="M293.3 971.15C292 973.75 287.7 976.45 285.6 978.95C276 990.15 268.6 1004.85 265.5 1019.05C262.4 1033.65 265.7 1047.75 272.6 1060.35C279.1 1072.15 288 1083.15 301.5 1087.15C330.7 1095.95 395.6 1071.25 405.9 1039.35C412.2 1019.85 400.9 993.55 389.7 978.65C380.8 966.95 366.3 960.15 352.2 956.25C331.8 950.65 308.8 961.75 293.3 971.15Z" stroke="#161616" stroke-width="4" stroke-miterlimit="10" stroke-linecap="round" stroke-linejoin="round"/>
<path fill-rule="evenodd" clip-rule="evenodd" d="M365.1 1066.55C366.2 1064.55 375.4 1060.75 377.1 1058.85C384.8 1050.35 391.7 1040.95 394.5 1029.75C397.3 1018.15 392.4 1007.45 387.5 996.95C382.9 987.15 365 973.45 354.7 969.35C332.5 960.65 289.3 980.35 280.4 1005.45C275 1020.75 276.9 1043.45 285.1 1056.05C291.6 1065.95 300 1071.65 310.8 1075.65C326.3 1081.35 352.9 1073.35 365.1 1066.55Z" fill="#FFAB4D"/>
<path opacity="0.9116" d="M365.1 1066.55C366.2 1064.55 375.4 1060.75 377.1 1058.85C384.8 1050.35 391.7 1040.95 394.5 1029.75C397.3 1018.15 392.4 1007.45 387.5 996.95C382.9 987.15 365 973.45 354.7 969.35C332.5 960.65 289.3 980.35 280.4 1005.45C275 1020.75 276.9 1043.45 285.1 1056.05C291.6 1065.95 300 1071.65 310.8 1075.65C326.3 1081.35 352.9 1073.35 365.1 1066.55Z" stroke="#161616" stroke-width="4" stroke-miterlimit="10" stroke-linecap="round" stroke-linejoin="round"/>
<path opacity="0.9116" d="M368.1 1003.05C368.1 1002.95 366.6 1004.55 366.4 1005.75C366.1 1008.35 365.3 1011.45 366.7 1013.55C369.9 1018.25 370.2 1021.15 370.7 1024.15C371.3 1028.35 369.5 1032.35 369.2 1039.15C369.1 1041.25 369.5 1044.35 372.2 1044.05C375.9 1043.65 378.5 1039.25 379.5 1035.95C381.9 1027.75 381.6 1017.65 379 1009.55C377.7 1005.55 374.4 999.149 369.2 1001.25" stroke="#161616" stroke-width="4" stroke-miterlimit="10" stroke-linecap="round" stroke-linejoin="round"/>
<path fill-rule="evenodd" clip-rule="evenodd" d="M732.8 453.249C731 449.749 726.8 456.249 725.3 458.149C705.3 483.749 691.2 516.05 679 546.05C650.5 616.35 634 689.149 625.2 764.649C617.5 830.949 611.4 921.349 626.6 1009.65C641.9 1098.45 678.5 1184.95 683.4 1186.75C687 1188.05 688.3 1164.55 688.4 1162.45C689.5 1147.85 691.2 1133.25 692.2 1118.55C692.3 1117.35 694.1 1099.75 695 1100.35C704.4 1106.45 733.2 1313.95 734 1311.15C747.9 1261.95 749.2 1119.95 754.4 1117.85C756.6 1116.95 760.1 1141.15 760.3 1142.85C763.4 1164.65 772.4 1170.05 778.4 1191.15C778.7 1192.35 786.4 1119.65 794.8 1075.25C795 1074.15 795.5 1068.85 797 1068.55C797.2 1068.55 797.4 1068.65 797.5 1068.85C806.9 1083.05 791.9 1151.75 803.1 1148.35C829.2 1140.45 845.4 910.749 847.9 869.249C855.1 746.749 789.3 445.35 741.8 460.05" fill="#F25E0D"/>
<path opacity="0.9116" d="M732.8 453.249C731 449.749 726.8 456.249 725.3 458.149C705.3 483.749 691.2 516.05 679 546.05C650.5 616.35 634 689.149 625.2 764.649C617.5 830.949 611.4 921.349 626.6 1009.65C641.9 1098.45 678.5 1184.95 683.4 1186.75C687 1188.05 688.3 1164.55 688.4 1162.45C689.5 1147.85 691.2 1133.25 692.2 1118.55C692.3 1117.35 694.1 1099.75 695 1100.35C704.4 1106.45 733.2 1313.95 734 1311.15C747.9 1261.95 749.2 1119.95 754.4 1117.85C756.6 1116.95 760.1 1141.15 760.3 1142.85C763.4 1164.65 772.4 1170.05 778.4 1191.15C778.7 1192.35 786.4 1119.65 794.8 1075.25C795 1074.15 795.5 1068.85 797 1068.55C797.2 1068.55 797.4 1068.65 797.5 1068.85C806.9 1083.05 791.9 1151.75 803.1 1148.35C829.2 1140.45 845.4 910.749 847.9 869.249C855.1 746.749 789.3 445.35 741.8 460.05" stroke="#161616" stroke-width="8" stroke-miterlimit="10" stroke-linecap="round" stroke-linejoin="round"/>
<path fill-rule="evenodd" clip-rule="evenodd" d="M718.3 532.849C719.1 532.649 717 533.85 716.5 534.55C706.4 549.05 702.4 570.65 698.8 588.05C689.9 630.85 687.2 675.049 683.9 718.749C682.2 740.949 677.9 967.449 694.2 976.649C695.6 977.449 696.8 971.049 697 970.249C698.4 964.449 707.6 909.049 710.9 911.249C723.8 920.049 726.8 1029.85 739 1030.55C741.7 1030.65 742.9 1024.05 743.4 1022.05C748.7 999.25 744.9 916.75 755.3 902.05C756.3 900.65 759.9 916.55 760.1 917.55C761.2 923.05 771.1 980.349 780.9 964.449C810.7 916.449 789.6 543.449 742.9 521.149C736.7 518.149 728.6 526.949 723.8 530.649" fill="#FFAB4D"/>
<path opacity="0.9116" d="M718.3 532.849C719.1 532.649 717 533.85 716.5 534.55C706.4 549.05 702.4 570.65 698.8 588.05C689.9 630.85 687.2 675.049 683.9 718.749C682.2 740.949 677.9 967.449 694.2 976.649C695.6 977.449 696.8 971.049 697 970.249C698.4 964.449 707.6 909.049 710.9 911.249C723.8 920.049 726.8 1029.85 739 1030.55C741.7 1030.65 742.9 1024.05 743.4 1022.05C748.7 999.25 744.9 916.75 755.3 902.05C756.3 900.65 759.9 916.55 760.1 917.55C761.2 923.05 771.1 980.349 780.9 964.449C810.7 916.449 789.6 543.449 742.9 521.149C736.7 518.149 728.6 526.949 723.8 530.649" stroke="#161616" stroke-width="8" stroke-miterlimit="10" stroke-linecap="round" stroke-linejoin="round"/>
<path fill-rule="evenodd" clip-rule="evenodd" d="M704.3 99.6494C628.2 110.449 562.7 194.25 543.2 227.35C506.6 289.85 487.1 400.25 493.8 481.55C497.5 525.75 509 568.349 528.5 605.649C538.2 624.349 549.8 589.75 575.3 568.25C587.7 557.75 596.8 610.95 614.9 614.95C626.4 617.55 645 580.75 657.4 582.75C671.4 585.049 676.9 622.15 691 625.05C705.5 628.15 721.1 578.35 735.8 579.95C747.4 581.15 754.8 626.85 765.7 628.95C777.6 631.25 791 591.25 802.4 590.95C809.5 590.75 813.8 617.15 832.2 630.45C844.1 639.05 853.9 585.05 866.1 581.45C871.9 579.75 888.3 620.95 892.9 625.75C906.8 640.349 920.6 609.05 928.8 591.85C947.8 552.05 958.6 506.45 961.6 459.75C966.9 378.049 947.2 285.549 905.5 223.149C866.4 164.849 804.3 85.5494 704.3 99.6494Z" fill="#F7F2EE"/>
<path opacity="0.9116" d="M704.3 99.6494C628.2 110.449 562.7 194.25 543.2 227.35C506.6 289.85 487.1 400.25 493.8 481.55C497.5 525.75 509 568.349 528.5 605.649C538.2 624.349 549.8 589.75 575.3 568.25C587.7 557.75 596.8 610.95 614.9 614.95C626.4 617.55 645 580.75 657.4 582.75C671.4 585.05 676.9 622.15 691 625.05C705.5 628.15 721.1 578.35 735.8 579.95C747.4 581.15 754.8 626.85 765.7 628.95C777.6 631.25 791 591.25 802.4 590.95C809.5 590.75 813.8 617.15 832.2 630.45C844.1 639.05 853.9 585.05 866.1 581.45C871.9 579.75 888.3 620.95 892.9 625.75C906.8 640.35 920.6 609.05 928.8 591.85C947.8 552.05 958.6 506.45 961.6 459.75C966.9 378.05 947.2 285.549 905.5 223.149C866.4 164.849 804.3 85.5494 704.3 99.6494Z" stroke="#161616" stroke-width="8" stroke-miterlimit="10" stroke-linecap="round" stroke-linejoin="round"/>
<path opacity="0.9116" d="M698.7 144.45C695.4 147.55 688 149.15 683.7 151.55C664.1 162.55 645.9 180.15 634 199.75C621.7 219.95 618.9 243.349 621.9 266.649C624.7 288.449 631.4 310.55 648.4 325.05C685 356.35 789.6 359.049 821.3 317.149C840.6 291.549 838.8 244.85 830.9 215.35C824.7 192.15 807.8 172.95 789.9 158.35C764 137.25 725.6 139.75 698.7 144.45Z" stroke="#161616" stroke-width="8" stroke-miterlimit="10" stroke-linecap="round" stroke-linejoin="round"/>
<path fill-rule="evenodd" clip-rule="evenodd" d="M749 333.05C751.7 330.65 766.7 330.549 770.1 328.849C785.5 320.749 800.3 310.85 810.2 295.55C820.4 279.75 819.2 260.45 817.9 241.55C816.6 223.85 798.8 192.049 786.4 179.649C759.7 152.849 688.2 155.85 662.3 188.45C646.5 208.35 637 243.749 641.8 267.849C645.6 286.849 654.5 300.649 667.6 313.249C686.4 331.449 728.1 335.75 749 333.05Z" fill="#FFAB4D"/>
<path opacity="0.9116" d="M749 333.05C751.7 330.65 766.7 330.549 770.1 328.849C785.5 320.749 800.3 310.85 810.2 295.55C820.4 279.75 819.2 260.45 817.9 241.55C816.6 223.85 798.8 192.049 786.4 179.649C759.7 152.849 688.2 155.85 662.3 188.45C646.5 208.35 637 243.749 641.8 267.849C645.6 286.849 654.5 300.649 667.6 313.249C686.4 331.449 728.1 335.75 749 333.05Z" stroke="#161616" stroke-width="8" stroke-miterlimit="10" stroke-linecap="round" stroke-linejoin="round"/>
<path opacity="0.9116" d="M740 315.649C739.9 315.849 741.5 315.749 741.6 315.749C750.9 314.849 761 311.149 769.2 306.649C784 298.449 815.8 261.55 798.1 243.55C788.3 233.55 779.9 276.749 773.2 284.149C766.5 291.649 729.8 302.349 734.3 310.149" stroke="#161616" stroke-width="4" stroke-miterlimit="10" stroke-linecap="round" stroke-linejoin="round"/>
<path opacity="0.9116" d="M831.2 298.25C857.1 296.75 905.4 287.35 925.7 269.75" stroke="#161616" stroke-width="4" stroke-miterlimit="10" stroke-linecap="round" stroke-linejoin="round"/>
<path opacity="0.9116" d="M504 365.05C505.1 364.95 527.2 376.95 530.4 378.35C553 388.15 573.4 395.45 598.1 398.35C634.4 402.55 670.5 410.25 707.1 411.85C789.4 415.65 874.7 394.65 948.7 357.85" stroke="#161616" stroke-width="4" stroke-miterlimit="10" stroke-linecap="round" stroke-linejoin="round"/>
<path opacity="0.9116" d="M500.1 513.55C498.3 514.05 503.6 514.75 505.4 515.25C508.9 516.25 512.4 517.45 515.8 518.55C526.6 522.05 537.8 524.35 548.8 526.85C580.8 534.15 613.2 540.25 645.5 545.85C689 553.45 731.5 550.75 775.3 548.55C833.8 545.65 893.6 543.75 949.4 523.05" stroke="#161616" stroke-width="4" stroke-miterlimit="10" stroke-linecap="round" stroke-linejoin="round"/>
<path opacity="0.9116" d="M566.9 224.45C567.6 222.55 563.2 226.05 562 227.55C559 231.25 558.8 239.45 563.8 241.45C572.7 245.05 575.8 231.75 569.2 227.35" stroke="#161616" stroke-width="4" stroke-miterlimit="10" stroke-linecap="round" stroke-linejoin="round"/>
<path opacity="0.9116" d="M603.4 231.45C603.4 231.15 601.7 231.349 601.5 231.349C597.4 231.949 592.9 237.65 595.4 241.95C598.4 247.05 609.3 244.55 606.2 238.05" stroke="#161616" stroke-width="4" stroke-miterlimit="10" stroke-linecap="round" stroke-linejoin="round"/>
<path opacity="0.9116" d="M849.7 210.649C849.9 210.349 848.5 210.649 848.4 210.649C843.3 213.649 848.2 221.05 852.5 221.45C858.7 222.15 861.9 212.75 855.8 210.05" stroke="#161616" stroke-width="4" stroke-miterlimit="10" stroke-linecap="round" stroke-linejoin="round"/>
<path opacity="0.9116" d="M875.8 192.55C875.4 191.45 871.6 198.15 871.5 198.65C869.7 206.85 875.6 213.95 883.7 211.55" stroke="#161616" stroke-width="4" stroke-miterlimit="10" stroke-linecap="round" stroke-linejoin="round"/>
<path opacity="0.9116" d="M584.7 178.349C584.6 178.249 585.4 178.649 585.5 178.749C590.5 181.549 596.2 183.55 601.7 185.05C610.6 187.55 620 188.55 628.9 191.05" stroke="#161616" stroke-width="4" stroke-miterlimit="10" stroke-linecap="round" stroke-linejoin="round"/>
<path opacity="0.9116" fill-rule="evenodd" clip-rule="evenodd" d="M612.1 150.75C611.8 151.25 617.6 157.05 618.1 157.55C624.4 164.25 632 170.55 640.5 173.75C643.3 174.85 647.3 176.95 650.3 176.75C656 176.45 671.8 158.25 677.9 154.55C687.8 148.45 702.6 148.05 713.9 146.75C732.7 144.65 755.3 143.55 773.1 151.35C779.3 154.05 787.4 157.45 792.5 161.95C794 163.35 797.1 170.15 798.9 170.35C802.9 170.75 824.9 146.05 824.7 141.35C824.6 139.25 817.4 133.65 816.1 132.15C805.5 120.85 790.4 115.75 776.3 110.35C747.9 99.4497 716 99.4497 687.2 108.35C679.5 110.75 672.6 115.05 664.9 117.55C647.1 123.25 623.1 131.95 612.7 149.05" fill="black"/>
<path opacity="0.9116" d="M612.1 150.75C611.8 151.25 617.6 157.05 618.1 157.55C624.4 164.25 632 170.55 640.5 173.75C643.3 174.85 647.3 176.95 650.3 176.75C656 176.45 671.8 158.25 677.9 154.55C687.8 148.45 702.6 148.05 713.9 146.75C732.7 144.65 755.3 143.55 773.1 151.35C779.3 154.05 787.4 157.45 792.5 161.95C794 163.35 797.1 170.15 798.9 170.35C802.9 170.75 824.9 146.05 824.7 141.35C824.6 139.25 817.4 133.65 816.1 132.15C805.5 120.85 790.4 115.75 776.3 110.35C747.9 99.4497 716 99.4497 687.2 108.35C679.5 110.75 672.6 115.05 664.9 117.55C647.1 123.25 623.1 131.95 612.7 149.05" stroke="#161616" stroke-width="4" stroke-miterlimit="10" stroke-linecap="round" stroke-linejoin="round"/>
<path opacity="0.9116" d="M810.8 184.55C810.7 184.35 811.5 184.35 811.6 184.35C815 183.75 818.4 181.45 821.4 179.95C830.4 175.25 840.5 171.15 848.3 164.45" stroke="#161616" stroke-width="4" stroke-miterlimit="10" stroke-linecap="round" stroke-linejoin="round"/>
<path opacity="0.9116" d="M573.1 188.649C572.7 188.749 578.4 190.65 579.1 190.75C582.7 191.25 586.2 192.35 589.6 193.45C601.5 197.45 612.1 199.25 624.4 200.45" stroke="#161616" stroke-width="4" stroke-miterlimit="10" stroke-linecap="round" stroke-linejoin="round"/>
<path opacity="0.9116" d="M819 194.05C818.7 193.65 819.6 193.45 821.9 192.55C832.8 188.15 853.5 180.95 861.3 170.95" stroke="#161616" stroke-width="4" stroke-miterlimit="10" stroke-linecap="round" stroke-linejoin="round"/>
<path opacity="0.9116" d="M627.8 298.05C630.6 304.05 630.4 305.85 603.7 304.45C576.2 302.95 522 291.95 519.5 286.05C517 280.45 516.7 269.549 526.2 272.249C531.1 273.749 605.7 288.149 618.4 288.149" stroke="#161616" stroke-width="4" stroke-miterlimit="10" stroke-linecap="round" stroke-linejoin="round"/>
<path opacity="0.9116" d="M835.5 284.05C835.7 284.25 909.7 268.15 919.7 246.45" stroke="#161616" stroke-width="4" stroke-miterlimit="10" stroke-linecap="round" stroke-linejoin="round"/>
<path fill-rule="evenodd" clip-rule="evenodd" d="M500.4 385.05C506.9 409.05 668.5 428.95 723.3 432.25C757 434.25 867.7 420.95 908.5 402.05C913.5 399.75 949.5 388.849 953.9 389.149C963.7 389.849 960.4 419.75 960.2 426.25C959.9 439.75 959.3 464.35 956.4 479.05C955.7 482.75 940.1 490.85 936.9 492.25C892.3 512.15 840.9 525.25 792.4 525.95C772 526.25 750.2 527.85 729.9 526.85C706.4 525.65 685.3 521.35 661.8 519.55C630.6 517.05 600.6 509.55 570 503.35C550.4 499.45 525.6 495.05 509.6 490.95L500.1 484.35" fill="#F7F2EE"/>
<path opacity="0.9116" d="M500.4 385.05C506.9 409.05 668.5 428.95 723.3 432.25C757 434.25 867.7 420.95 908.5 402.05C913.5 399.75 949.5 388.849 953.9 389.149C963.7 389.849 960.4 419.75 960.2 426.25C959.9 439.75 959.3 464.35 956.4 479.05C955.7 482.75 940.1 490.85 936.9 492.25C892.3 512.15 840.9 525.25 792.4 525.95C772 526.25 750.2 527.85 729.9 526.85C706.4 525.65 685.3 521.35 661.8 519.55C630.6 517.05 600.6 509.55 570 503.35C550.4 499.45 525.6 495.05 509.6 490.95L500.1 484.35" stroke="#161616" stroke-width="8" stroke-miterlimit="10" stroke-linecap="round" stroke-linejoin="round"/>
<path opacity="0.9116" d="M491.5 405.35C491.3 407.05 494.2 411.25 495 412.75C504.8 432.65 517 419.749 520 425.649C521.2 427.949 506.2 435.85 504.5 439.95C501.6 447.15 517.4 463.15 501.8 459.35" stroke="#161616" stroke-width="4" stroke-miterlimit="10" stroke-linecap="round" stroke-linejoin="round"/>
<path opacity="0.9116" fill-rule="evenodd" clip-rule="evenodd" d="M571.9 439.65C571.9 438.45 580.4 428.65 581.6 429.35C586.2 432.15 583.7 443.85 588.4 447.15C591 448.95 604.7 452.45 605.1 455.45C605.5 458.05 587.6 461.45 586.6 465.95C585.9 468.95 589.9 487.15 587 488.05C584.4 488.95 572.7 473.75 568.9 471.95C564.2 469.75 545.8 482.55 542.8 479.25C542.3 478.75 543.7 477.35 543.9 476.95C548.2 471.15 554.6 465.05 557.3 458.25C559.2 453.35 545.5 435.35 555.5 436.95C558 437.35 569.4 439.05 571.9 439.65Z" fill="black"/>
<path opacity="0.9116" d="M571.9 439.65C571.9 438.45 580.4 428.65 581.6 429.35C586.2 432.15 583.7 443.85 588.4 447.15C591 448.95 604.7 452.45 605.1 455.45C605.5 458.05 587.6 461.45 586.6 465.95C585.9 468.95 589.9 487.15 587 488.05C584.4 488.95 572.7 473.75 568.9 471.95C564.2 469.75 545.8 482.55 542.8 479.25C542.3 478.75 543.7 477.35 543.9 476.95C548.2 471.15 554.6 465.05 557.3 458.25C559.2 453.35 545.5 435.35 555.5 436.95C558 437.35 569.4 439.05 571.9 439.65Z" stroke="#161616" stroke-width="4" stroke-miterlimit="10" stroke-linecap="round" stroke-linejoin="round"/>
<path opacity="0.9116" d="M655.9 456.05C655.8 455.95 656 455.75 656.2 455.45C657.7 452.75 659.3 450.05 660.9 447.35C661.8 445.75 664.4 439.55 666.4 439.15C666.9 439.05 667.6 440.65 667.8 440.95C670.4 445.95 672.7 454.55 677.3 457.95C681.8 461.25 697.2 457.45 699.8 462.45C699.9 462.75 699.8 462.95 699.7 463.25C695.7 469.25 684.4 470.15 682.2 477.65C680.8 482.25 687.9 496.35 683.6 499.25C679.9 501.75 669.8 488.65 665.8 487.55C660 486.05 650.8 500.55 644.9 497.25C642.6 495.95 651.8 482.65 651.4 476.25C651.1 471.55 633.6 459.35 644 458.55C648.8 458.25 653.7 457.65 658.5 457.15" stroke="#161616" stroke-width="4" stroke-miterlimit="10" stroke-linecap="round" stroke-linejoin="round"/>
<path opacity="0.9116" fill-rule="evenodd" clip-rule="evenodd" d="M759 457.35C759.3 457.45 764.3 443.45 766.5 443.05C767.7 442.85 775.1 457.05 777.7 459.35C782.3 463.45 789.9 459.75 793.6 465.25C796.2 469.05 782.6 470.25 780.9 477.15C779.4 483.35 788.2 493.65 784.4 499.35C782.7 501.95 770.3 489.15 765.9 488.75C758.4 488.05 747.6 501.35 740.5 498.15C740.1 497.95 740 497.65 740.1 497.15C741.4 490.55 747.7 485.65 748.7 478.75C749.6 473.05 738.3 465.35 739.3 461.15C740.1 457.95 751.9 457.55 759 457.35Z" fill="black"/>
<path opacity="0.9116" d="M759 457.35C759.3 457.45 764.3 443.45 766.5 443.05C767.7 442.85 775.1 457.05 777.7 459.35C782.3 463.45 789.9 459.75 793.6 465.25C796.2 469.05 782.6 470.25 780.9 477.15C779.4 483.35 788.2 493.65 784.4 499.35C782.7 501.95 770.3 489.15 765.9 488.75C758.4 488.05 747.6 501.35 740.5 498.15C740.1 497.95 740 497.65 740.1 497.15C741.4 490.55 747.7 485.65 748.7 478.75C749.6 473.05 738.3 465.35 739.3 461.15C740.1 457.95 751.9 457.55 759 457.35Z" stroke="#161616" stroke-width="4" stroke-miterlimit="10" stroke-linecap="round" stroke-linejoin="round"/>
<path opacity="0.9116" d="M845.5 453.349C845.8 453.449 848.3 435.349 850.4 434.349C851.5 433.849 861.8 446.049 864.8 447.749C870.1 450.649 876.9 445.749 881.8 450.249C885.1 453.349 871.9 457.249 871.8 464.349C871.7 470.749 882.4 478.749 880 485.249C878.9 488.249 864.1 478.549 859.7 479.149C852.2 480.149 848.3 492.649 840.6 491.149C840.2 491.049 836.3 493.749 836.3 493.249C836.1 486.549 847.9 471.249 841.6 468.749C834.3 465.849 824.8 460.949 825.2 457.349C825.5 453.949 834.4 455.149 845.5 453.349Z" stroke="#161616" stroke-width="4" stroke-miterlimit="10" stroke-linecap="round" stroke-linejoin="round"/>
<path opacity="0.9116" fill-rule="evenodd" clip-rule="evenodd" d="M958 398.25C957.9 398.05 948.4 407.75 947.7 409.65C945.6 415.45 944 421.75 941.3 427.25C939.3 431.35 926.3 429.45 925.9 434.85C925.5 439.75 938 440.45 939.9 444.25C941 446.55 936 464.45 940.8 464.85C944.2 465.15 956.8 449.45 961.5 445.15" fill="black"/>
<path opacity="0.9116" d="M958 398.25C957.9 398.05 948.4 407.75 947.7 409.65C945.6 415.45 944 421.75 941.3 427.25C939.3 431.35 926.3 429.45 925.9 434.85C925.5 439.75 938 440.45 939.9 444.25C941 446.55 936 464.45 940.8 464.85C944.2 465.15 956.8 449.45 961.5 445.15" stroke="#161616" stroke-width="4" stroke-miterlimit="10" stroke-linecap="round" stroke-linejoin="round"/>
<path opacity="0.9116" d="M538.4 653.65C538.5 653.95 544.1 651.75 544.4 651.65C546.9 650.75 562.6 643.15 564.3 645.75C565.8 648.15 565 660.55 564.5 663.15C563.5 668.55 559.9 685.15 555.2 688.55C547.8 694.05 534.4 660.85 538.4 653.65Z" stroke="#161616" stroke-width="8" stroke-miterlimit="10" stroke-linecap="round" stroke-linejoin="round"/>
<path fill-rule="evenodd" clip-rule="evenodd" d="M926.8 761.15C926.7 761.35 896.3 730.25 896.1 729.85C894.2 723.75 893.7 779.95 899.6 782.85C909.1 787.35 931.5 766.45 926.8 761.15Z" fill="#F7F2EE"/>
<path opacity="0.9116" d="M926.8 761.15C926.7 761.35 896.3 730.25 896.1 729.85C894.2 723.75 893.7 779.95 899.6 782.85C909.1 787.35 931.5 766.45 926.8 761.15Z" stroke="#161616" stroke-width="8" stroke-miterlimit="10" stroke-linecap="round" stroke-linejoin="round"/>
<path fill-rule="evenodd" clip-rule="evenodd" d="M635.3 897.55C628.8 904.45 623.8 912.55 618.8 920.25C614 927.75 599.5 945.25 602.9 954.45C605.8 962.15 642.1 972.15 647.9 967.35C659.8 957.45 650.1 912.95 641.1 901.95" fill="#F7F2EE"/>
<path opacity="0.9116" d="M635.3 897.55C628.8 904.45 623.8 912.55 618.8 920.25C614 927.75 599.5 945.25 602.9 954.45C605.8 962.15 642.1 972.15 647.9 967.35C659.8 957.45 650.1 912.95 641.1 901.95" stroke="#161616" stroke-width="8" stroke-miterlimit="10" stroke-linecap="round" stroke-linejoin="round"/>
<path fill-rule="evenodd" clip-rule="evenodd" d="M923.6 1237.75C935.6 1220.15 920.5 1244.15 899.8 1236.65C891.8 1233.75 888.7 1186.75 877.6 1189.35C868.8 1191.45 859.8 1242.15 849.5 1243.15C839.3 1244.05 823.5 1201.85 812.6 1204.05C801.4 1206.25 793.2 1240.05 781.7 1241.85C769.2 1243.75 762.9 1186.65 750.5 1190.45C734.9 1195.25 722.2 1233.25 707.6 1239.35C699 1242.95 675.6 1201.95 667.9 1206.65C651.2 1216.75 643.7 1221.25 634.2 1229.05C621.2 1239.85 601.9 1176.25 590.1 1185.85C580 1194.05 576.2 1191.85 560.7 1212.95C556.7 1218.35 543.7 1225.25 547.9 1231.65C580.3 1282.25 632 1319.35 706.6 1328.55C755 1334.55 796.7 1328.65 831.6 1313.95C870.2 1297.85 900.8 1270.95 923.6 1237.75Z" fill="#F7F2EE"/>
<path opacity="0.9116" d="M923.6 1237.75C935.6 1220.15 920.5 1244.15 899.8 1236.65C891.8 1233.75 888.7 1186.75 877.6 1189.35C868.8 1191.45 859.8 1242.15 849.5 1243.15C839.3 1244.05 823.5 1201.85 812.6 1204.05C801.4 1206.25 793.2 1240.05 781.7 1241.85C769.2 1243.75 762.9 1186.65 750.5 1190.45C734.9 1195.25 722.2 1233.25 707.6 1239.35C699 1242.95 675.6 1201.95 667.9 1206.65C651.2 1216.75 643.7 1221.25 634.2 1229.05C621.2 1239.85 601.9 1176.25 590.1 1185.85C580 1194.05 576.2 1191.85 560.7 1212.95C556.7 1218.35 543.7 1225.25 547.9 1231.65C580.3 1282.25 632 1319.35 706.6 1328.55C755 1334.55 796.7 1328.65 831.6 1313.95C870.2 1297.85 900.8 1270.95 923.6 1237.75Z" stroke="#161616" stroke-width="8" stroke-miterlimit="10" stroke-linecap="round" stroke-linejoin="round"/>
<path opacity="0.9116" d="M602.5 1260.45C602.9 1259.95 613.4 1265.65 614.2 1266.05C638.8 1278.05 664.7 1289.45 691.2 1296.05C750.7 1310.75 802.7 1301.35 856.5 1272.45" stroke="#161616" stroke-width="4" stroke-miterlimit="10" stroke-linecap="round" stroke-linejoin="round"/>
<path opacity="0.9116" d="M608.9 1249.95C698.5 1285.25 761.2 1303.55 855.3 1259.65" stroke="#161616" stroke-width="4" stroke-miterlimit="10" stroke-linecap="round" stroke-linejoin="round"/>
<path fill-rule="evenodd" clip-rule="evenodd" d="M1139.2 798.05C1072.5 799.45 1005.9 880.75 986.3 905.65C897.9 1018.25 888 1249.75 1075.1 1297.55C1305.4 1356.25 1389.8 1076.55 1303 923.65C1274 872.45 1226.8 796.15 1139.2 798.05Z" fill="#F7F2EE"/>
<path opacity="0.9116" d="M1139.2 798.05C1072.5 799.45 1005.9 880.75 986.3 905.65C897.9 1018.25 888 1249.75 1075.1 1297.55C1305.4 1356.25 1389.8 1076.55 1303 923.65C1274 872.45 1226.8 796.15 1139.2 798.05Z" stroke="#161616" stroke-width="8" stroke-miterlimit="10" stroke-linecap="round" stroke-linejoin="round"/>
<path opacity="0.9116" d="M944.9 990.55C944 991.65 947.4 995.05 948.1 995.95C972.6 1028.95 1017.9 1047.65 1055.2 1058.95C1133 1082.65 1271 1075.75 1326.6 1000.25" stroke="#161616" stroke-width="4" stroke-miterlimit="10" stroke-linecap="round" stroke-linejoin="round"/>
<path opacity="0.9116" d="M1001.3 989.05C1001.4 989.05 1001.4 989.05 1001.3 989.05" stroke="#161616" stroke-width="4" stroke-miterlimit="10" stroke-linecap="round" stroke-linejoin="round"/>
<path opacity="0.9116" d="M995 944.45C994.9 944.45 994.8 944.45 995 944.45" stroke="#161616" stroke-width="4" stroke-miterlimit="10" stroke-linecap="round" stroke-linejoin="round"/>
<path opacity="0.9116" d="M1049.3 954.45C1049.3 954.55 1049.3 954.55 1049.3 954.55" stroke="#161616" stroke-width="4" stroke-miterlimit="10" stroke-linecap="round" stroke-linejoin="round"/>
<path opacity="0.9116" d="M1039.5 1023.95C1039.5 1024.05 1039.4 1024.15 1039.4 1024.25" stroke="#161616" stroke-width="4" stroke-miterlimit="10" stroke-linecap="round" stroke-linejoin="round"/>
<path opacity="0.9116" d="M1036.3 981.25C1036.4 981.15 1036.5 981.25 1036.6 981.25" stroke="#161616" stroke-width="4" stroke-miterlimit="10" stroke-linecap="round" stroke-linejoin="round"/>
<path opacity="0.9116" d="M1024.1 895.85C1024.2 895.85 1024.1 895.85 1024.1 895.85" stroke="#161616" stroke-width="4" stroke-miterlimit="10" stroke-linecap="round" stroke-linejoin="round"/>
<path opacity="0.9116" d="M1042.8 910.45C1042.8 910.45 1042.7 910.45 1042.7 910.55" stroke="#161616" stroke-width="4" stroke-miterlimit="10" stroke-linecap="round" stroke-linejoin="round"/>
<path opacity="0.9116" d="M1126.2 818.85H1125.9" stroke="#161616" stroke-width="4" stroke-miterlimit="10" stroke-linecap="round" stroke-linejoin="round"/>
<path opacity="0.9116" d="M1131.6 1016.15C1131.7 1016.15 1131.7 1016.45 1131.8 1016.55" stroke="#161616" stroke-width="4" stroke-miterlimit="10" stroke-linecap="round" stroke-linejoin="round"/>
<path opacity="0.9116" d="M1072.5 988.05C1072.5 988.15 1072.5 988.15 1072.5 988.05" stroke="#161616" stroke-width="4" stroke-miterlimit="10" stroke-linecap="round" stroke-linejoin="round"/>
<path opacity="0.9116" d="M1199.6 1016.35C1199.5 1016.35 1199.8 1016.55 1199.8 1016.55" stroke="#161616" stroke-width="4" stroke-miterlimit="10" stroke-linecap="round" stroke-linejoin="round"/>
<path opacity="0.9116" d="M1169.3 1027.85C1169.2 1027.85 1169.4 1027.95 1169.4 1027.95" stroke="#161616" stroke-width="4" stroke-miterlimit="10" stroke-linecap="round" stroke-linejoin="round"/>
<path opacity="0.9116" d="M1261.7 906.25C1261.5 906.35 1261.3 906.35 1261.2 906.45" stroke="#161616" stroke-width="4" stroke-miterlimit="10" stroke-linecap="round" stroke-linejoin="round"/>
<path opacity="0.9116" d="M1250.8 946.45C1250.8 946.45 1250.7 946.55 1250.8 946.55" stroke="#161616" stroke-width="4" stroke-miterlimit="10" stroke-linecap="round" stroke-linejoin="round"/>
<path opacity="0.9116" d="M1234.9 882.25C1234.9 882.25 1234.8 882.25 1234.8 882.35" stroke="#161616" stroke-width="4" stroke-miterlimit="10" stroke-linecap="round" stroke-linejoin="round"/>
<path opacity="0.9116" d="M1304.1 1001.05C1304.1 1000.95 1304 1001.05 1304.1 1001.05" stroke="#161616" stroke-width="4" stroke-miterlimit="10" stroke-linecap="round" stroke-linejoin="round"/>
<path opacity="0.9116" d="M990.1 1017.35C990.1 1017.45 990.1 1017.45 990.1 1017.45" stroke="#161616" stroke-width="4" stroke-miterlimit="10" stroke-linecap="round" stroke-linejoin="round"/>
<path opacity="0.9116" d="M928.2 1071.25C933.1 1067.95 936.8 1079.55 941.6 1083.05C956.9 1094.45 973 1105.05 990.2 1113.15C1035.3 1134.65 1090.9 1149.75 1140 1157.35" stroke="#161616" stroke-width="4" stroke-miterlimit="10" stroke-linecap="round" stroke-linejoin="round"/>
<path opacity="0.9116" d="M1286.3 1137.45C1286.4 1137.65 1289.9 1136.75 1290.5 1136.65C1301.5 1134.25 1312 1129.95 1322.9 1126.95" stroke="#161616" stroke-width="4" stroke-miterlimit="10" stroke-linecap="round" stroke-linejoin="round"/>
<path opacity="0.9116" d="M930.1 1090.55C930.2 1089.05 932.6 1092.15 933.9 1092.95C937.9 1095.45 941.7 1098.05 945.5 1100.85C961 1112.05 977.4 1121.95 994.6 1129.85C1040.3 1150.75 1086 1157.75 1133.7 1170.15" stroke="#161616" stroke-width="4" stroke-miterlimit="10" stroke-linecap="round" stroke-linejoin="round"/>
<path opacity="0.9116" d="M1288.4 1149.75C1288 1149.35 1310.6 1147.65 1314.3 1147.15" stroke="#161616" stroke-width="4" stroke-miterlimit="10" stroke-linecap="round" stroke-linejoin="round"/>
<path opacity="0.9116" d="M944.2 1103.15C943.4 1103.95 942.6 1104.85 941.7 1105.55" stroke="#161616" stroke-width="4" stroke-miterlimit="10" stroke-linecap="round" stroke-linejoin="round"/>
<path opacity="0.9116" d="M968.8 1119.05C968.8 1119.15 966.1 1120.55 965.9 1120.75" stroke="#161616" stroke-width="4" stroke-miterlimit="10" stroke-linecap="round" stroke-linejoin="round"/>
<path opacity="0.9116" d="M1027 1151.65C1026.8 1151.75 1027.8 1151.25 1027.6 1151.45" stroke="#161616" stroke-width="4" stroke-miterlimit="10" stroke-linecap="round" stroke-linejoin="round"/>
<path opacity="0.9116" d="M1065.1 1155.65C1064.5 1155.55 1046.7 1170.25 1044.1 1172.05" stroke="#161616" stroke-width="4" stroke-miterlimit="10" stroke-linecap="round" stroke-linejoin="round"/>
<path opacity="0.9116" d="M1096.8 1164.85C1093.9 1168.95 1069 1185.25 1062.4 1191.05" stroke="#161616" stroke-width="4" stroke-miterlimit="10" stroke-linecap="round" stroke-linejoin="round"/>
<path opacity="0.9116" d="M1131.2 1173.35C1130.6 1173.25 1117.3 1183.45 1116.2 1184.25C1102.4 1194.25 1088 1204.15 1075.7 1216.05" stroke="#161616" stroke-width="4" stroke-miterlimit="10" stroke-linecap="round" stroke-linejoin="round"/>
<path opacity="0.9116" d="M1117.8 1220.05C1116.1 1220.05 1090.5 1238.55 1086.9 1240.85" stroke="#161616" stroke-width="4" stroke-miterlimit="10" stroke-linecap="round" stroke-linejoin="round"/>
<path opacity="0.9116" d="M1110.8 1262.85C1111.2 1263.25 1109.9 1263.35 1109.4 1263.55C1107.5 1264.55 1105.6 1265.45 1103.7 1266.35C1099.2 1268.65 1094.6 1270.75 1090.1 1273.05" stroke="#161616" stroke-width="4" stroke-miterlimit="10" stroke-linecap="round" stroke-linejoin="round"/>
<path opacity="0.9116" d="M1089.8 1165.05C1090.2 1169.55 1108.9 1199.25 1112.3 1205.35" stroke="#161616" stroke-width="4" stroke-miterlimit="10" stroke-linecap="round" stroke-linejoin="round"/>
<path opacity="0.9116" d="M1041.6 1153.95C1065.4 1189.65 1087.2 1226.75 1107.7 1264.55" stroke="#161616" stroke-width="4" stroke-miterlimit="10" stroke-linecap="round" stroke-linejoin="round"/>
<path opacity="0.9116" d="M928.7 1103.05C927.6 1102.85 930.4 1104.65 931.2 1105.35C932.8 1106.85 934.5 1108.35 936.1 1109.85C941.3 1114.75 946.1 1119.95 950.4 1125.65" stroke="#161616" stroke-width="4" stroke-miterlimit="10" stroke-linecap="round" stroke-linejoin="round"/>
<path opacity="0.9116" d="M1125.9 831.85C1123.3 834.05 1117.6 834.949 1114.3 836.649C1099.1 844.249 1084.7 856.75 1075 871.05C1065 885.85 1062 903.35 1063.4 921.05C1064.7 937.65 1069 954.55 1081.2 966.25C1107.6 991.35 1186.6 997.549 1212 967.149C1227.5 948.649 1227.9 913.249 1223 890.649C1219.2 872.849 1207.1 857.75 1194.1 845.95C1175.5 828.95 1146.5 829.35 1125.9 831.85Z" stroke="#161616" stroke-width="4" stroke-miterlimit="10" stroke-linecap="round" stroke-linejoin="round"/>
<path fill-rule="evenodd" clip-rule="evenodd" d="M1156.9 976.25C1159 974.55 1170.4 975.05 1173 973.85C1185 968.35 1196.4 961.45 1204.5 950.25C1212.8 938.75 1212.6 924.15 1212.3 909.75C1212 896.35 1199.7 871.65 1190.8 861.75C1171.6 840.45 1117.5 839.85 1096.7 863.45C1084 877.85 1075.6 904.25 1078.3 922.65C1080.5 937.15 1086.7 947.95 1096.1 957.95C1109.7 972.55 1141.1 977.45 1156.9 976.25Z" fill="#FFAB4D"/>
<path opacity="0.9116" d="M1156.9 976.25C1159 974.55 1170.4 975.05 1173 973.85C1185 968.35 1196.4 961.45 1204.5 950.25C1212.8 938.75 1212.6 924.15 1212.3 909.75C1212 896.35 1199.7 871.65 1190.8 861.75C1171.6 840.45 1117.5 839.85 1096.7 863.45C1084 877.85 1075.6 904.25 1078.3 922.65C1080.5 937.15 1086.7 947.95 1096.1 957.95C1109.7 972.55 1141.1 977.45 1156.9 976.25Z" stroke="#161616" stroke-width="4" stroke-miterlimit="10" stroke-linecap="round" stroke-linejoin="round"/>
<path opacity="0.9116" d="M1191.2 912.649C1191.3 912.549 1188.4 913.55 1187.6 914.75C1185.8 917.45 1183 920.45 1183.6 923.55C1185 930.55 1183.8 933.95 1182.8 937.45C1181.2 942.45 1176.6 945.95 1172.4 953.35C1171.1 955.65 1169.8 959.25 1173.5 960.35C1178.5 961.95 1184.3 958.45 1187.4 955.25C1195.1 947.45 1200.4 936.049 1201.7 925.649C1202.3 920.549 1201.7 911.549 1193.8 911.149" stroke="#161616" stroke-width="4" stroke-miterlimit="10" stroke-linecap="round" stroke-linejoin="round"/>
<path fill-rule="evenodd" clip-rule="evenodd" d="M1216.3 1101.45C1216 1101.75 1212.9 1081.85 1212.9 1080.45C1213 1066.15 1217 1052.95 1224.5 1040.95C1249.9 1000.45 1300.6 975.05 1298.6 919.55C1298.4 914.95 1296.7 905.45 1292.1 903.05" fill="#F7F2EE"/>
<path opacity="0.9116" d="M1216.3 1101.45C1216 1101.75 1212.9 1081.85 1212.9 1080.45C1213 1066.15 1217 1052.95 1224.5 1040.95C1249.9 1000.45 1300.6 975.05 1298.6 919.55C1298.4 914.95 1296.7 905.45 1292.1 903.05" stroke="#161616" stroke-width="4" stroke-miterlimit="10" stroke-linecap="round" stroke-linejoin="round"/>
<path fill-rule="evenodd" clip-rule="evenodd" d="M1244.8 1012.45C1244.7 1013.85 1246 1009.95 1246.5 1008.65C1247.7 1005.75 1248.5 1002.65 1249.3 999.65C1251.1 992.65 1256.1 971.25 1245.8 968.15C1241.1 966.75 1237.7 972.25 1236.7 976.15C1234.1 985.35 1236 995.55 1240 1004.05" fill="#F7F2EE"/>
<path opacity="0.9116" d="M1244.8 1012.45C1244.7 1013.85 1246 1009.95 1246.5 1008.65C1247.7 1005.75 1248.5 1002.65 1249.3 999.65C1251.1 992.65 1256.1 971.25 1245.8 968.15C1241.1 966.75 1237.7 972.25 1236.7 976.15C1234.1 985.35 1236 995.55 1240 1004.05" stroke="#161616" stroke-width="4" stroke-miterlimit="10" stroke-linecap="round" stroke-linejoin="round"/>
<path fill-rule="evenodd" clip-rule="evenodd" d="M1259.1 996.649C1259.7 994.749 1262.2 992.55 1263.1 990.75C1266.5 984.65 1268.9 977.85 1270 970.85C1271.2 963.35 1266.8 952.75 1260.6 963.05C1256 970.75 1255.5 980.15 1254.7 988.85" fill="#F7F2EE"/>
<path opacity="0.9116" d="M1259.1 996.649C1259.7 994.749 1262.2 992.55 1263.1 990.75C1266.5 984.65 1268.9 977.85 1270 970.85C1271.2 963.35 1266.8 952.75 1260.6 963.05C1256 970.75 1255.5 980.15 1254.7 988.85" stroke="#161616" stroke-width="4" stroke-miterlimit="10" stroke-linecap="round" stroke-linejoin="round"/>
<path fill-rule="evenodd" clip-rule="evenodd" d="M1277.3 974.45C1276.3 974.85 1278.4 972.55 1278.9 971.55C1279.8 969.35 1280.4 967.15 1280.9 964.85C1281.9 960.15 1284.2 939.25 1276.9 938.55C1273.3 938.15 1271.9 943.85 1271.3 946.55C1269.3 955.55 1271.7 964.85 1272.5 973.85" fill="#F7F2EE"/>
<path opacity="0.9116" d="M1277.3 974.45C1276.3 974.85 1278.4 972.55 1278.9 971.55C1279.8 969.35 1280.4 967.15 1280.9 964.85C1281.9 960.15 1284.2 939.25 1276.9 938.55C1273.3 938.15 1271.9 943.85 1271.3 946.55C1269.3 955.55 1271.7 964.85 1272.5 973.85" stroke="#161616" stroke-width="4" stroke-miterlimit="10" stroke-linecap="round" stroke-linejoin="round"/>
<path fill-rule="evenodd" clip-rule="evenodd" d="M1284.8 959.95C1284.3 957.45 1287.1 951.349 1287.5 948.649C1288.6 939.949 1289.1 930.149 1286.9 921.649C1284 910.549 1269.7 900.65 1269.4 918.45C1269.2 930.35 1276.7 939.049 1282.7 948.25" fill="#F7F2EE"/>
<path opacity="0.9116" d="M1284.8 959.95C1284.3 957.45 1287.1 951.349 1287.5 948.649C1288.6 939.949 1289.1 930.149 1286.9 921.649C1284 910.549 1269.7 900.65 1269.4 918.45C1269.2 930.35 1276.7 939.05 1282.7 948.25" stroke="#161616" stroke-width="4" stroke-miterlimit="10" stroke-linecap="round" stroke-linejoin="round"/>
<path fill-rule="evenodd" clip-rule="evenodd" d="M1296.3 910.849C1297.2 907.849 1288.3 887.05 1283.2 893.45C1275.2 903.35 1290 928.65 1291.9 940.05" fill="#F7F2EE"/>
<path opacity="0.9116" d="M1296.3 910.849C1297.2 907.849 1288.3 887.05 1283.2 893.45C1275.2 903.35 1290 928.65 1291.9 940.05" stroke="#161616" stroke-width="4" stroke-miterlimit="10" stroke-linecap="round" stroke-linejoin="round"/>
<path fill-rule="evenodd" clip-rule="evenodd" d="M1248.8 1011.25C1248.4 1009.65 1252 1011.15 1253.5 1011.05C1256.3 1010.85 1259.1 1010.45 1261.9 1009.85C1269.3 1008.25 1285.7 1004.05 1288.4 995.35C1292.3 983.05 1268.2 993.85 1265.2 995.95" fill="#F7F2EE"/>
<path opacity="0.9116" d="M1248.8 1011.25C1248.4 1009.65 1252 1011.15 1253.5 1011.05C1256.3 1010.85 1259.1 1010.45 1261.9 1009.85C1269.3 1008.25 1285.7 1004.05 1288.4 995.35C1292.3 983.05 1268.2 993.85 1265.2 995.95" stroke="#161616" stroke-width="4" stroke-miterlimit="10" stroke-linecap="round" stroke-linejoin="round"/>
<path fill-rule="evenodd" clip-rule="evenodd" d="M1270.1 992.05C1269.7 992.35 1271 991.75 1271.4 991.55C1272.4 991.15 1273.4 990.75 1274.4 990.45C1277.3 989.35 1280.2 988.45 1283 987.25C1290.5 984.25 1301.5 978.65 1305.6 971.05C1311.9 959.35 1291.5 968.15 1289 969.95" fill="#F7F2EE"/>
<path opacity="0.9116" d="M1270.1 992.05C1269.7 992.35 1271 991.75 1271.4 991.55C1272.4 991.15 1273.4 990.75 1274.4 990.45C1277.3 989.35 1280.2 988.45 1283 987.25C1290.5 984.25 1301.5 978.65 1305.6 971.05C1311.9 959.35 1291.5 968.15 1289 969.95" stroke="#161616" stroke-width="4" stroke-miterlimit="10" stroke-linecap="round" stroke-linejoin="round"/>
<path fill-rule="evenodd" clip-rule="evenodd" d="M1285.9 970.05C1285.9 970.05 1287.8 969.15 1290.1 968.05C1292.9 966.75 1295.7 965.25 1298.3 963.55C1306.2 958.65 1315.9 950.95 1319 941.55C1324.6 924.95 1304.1 940.25 1300.9 943.85" fill="#F7F2EE"/>
<path opacity="0.9116" d="M1285.9 970.05C1285.9 970.05 1287.8 969.15 1290.1 968.05C1292.9 966.75 1295.7 965.25 1298.3 963.55C1306.2 958.65 1315.9 950.95 1319 941.55C1324.6 924.95 1304.1 940.25 1300.9 943.85" stroke="#161616" stroke-width="4" stroke-miterlimit="10" stroke-linecap="round" stroke-linejoin="round"/>
<path fill-rule="evenodd" clip-rule="evenodd" d="M1295.4 948.749C1294.3 948.749 1296.9 947.149 1297.6 946.249C1299.3 944.249 1300.9 942.249 1302.5 940.149C1307.2 933.849 1311 926.65 1314.2 919.45C1320.2 905.75 1309.9 894.049 1304.4 908.149" fill="#F7F2EE"/>
<path opacity="0.9116" d="M1295.4 948.749C1294.3 948.749 1296.9 947.149 1297.6 946.249C1299.3 944.249 1300.9 942.249 1302.5 940.149C1307.2 933.849 1311 926.65 1314.2 919.45C1320.2 905.75 1309.9 894.049 1304.4 908.149" stroke="#161616" stroke-width="4" stroke-miterlimit="10" stroke-linecap="round" stroke-linejoin="round"/>
<path fill-rule="evenodd" clip-rule="evenodd" d="M1300 913.75C1300.4 915.15 1300.9 911.049 1301.4 909.649C1302.3 907.049 1303 904.25 1303.6 901.55C1305.3 893.65 1307.1 883.95 1303.1 876.35C1296.4 863.65 1287.7 876.249 1290.1 887.649" fill="#F7F2EE"/>
<path opacity="0.9116" d="M1300 913.75C1300.4 915.15 1300.9 911.049 1301.4 909.649C1302.3 907.049 1303 904.25 1303.6 901.55C1305.3 893.65 1307.1 883.95 1303.1 876.35C1296.4 863.65 1287.7 876.249 1290.1 887.649" stroke="#161616" stroke-width="4" stroke-miterlimit="10" stroke-linecap="round" stroke-linejoin="round"/>
<path opacity="0.9116" d="M595.8 582.05C594 599.85 583.2 646.55 579.2 663.95C566.3 720.35 550.4 776.25 538.7 832.85C535.3 849.55 526.5 910.95 514.2 922.45C513.3 923.25 511.8 922.85 510.9 922.35C499.5 916.45 490.4 910.15 476.9 911.35C453.4 913.45 445 932.55 426.4 942.25" stroke="#161616" stroke-width="4" stroke-miterlimit="10" stroke-linecap="round" stroke-linejoin="round"/>
<path opacity="0.9116" d="M1332.5 987.95C1332.2 986.05 1332.9 991.949 1334 993.649C1336.4 997.249 1339.8 1000.15 1343.5 1002.15C1358.3 1010.45 1370.4 1005.05 1377.5 989.649" stroke="#161616" stroke-width="4" stroke-miterlimit="10" stroke-linecap="round" stroke-linejoin="round"/>
<path fill-rule="evenodd" clip-rule="evenodd" d="M538.6 1079.25C497 1060.35 433.8 1090.45 415 1099.85C329.8 1142.65 260.8 1281.55 363.5 1366.15C489.8 1470.35 617.9 1323.95 605.8 1204.65C601.7 1164.75 593.3 1104.05 538.6 1079.25Z" fill="#F7F2EE"/>
<path opacity="0.9116" d="M538.6 1079.25C497 1060.35 433.8 1090.45 415 1099.85C329.8 1142.65 260.8 1281.55 363.5 1366.15C489.8 1470.35 617.9 1323.95 605.8 1204.65C601.7 1164.75 593.3 1104.05 538.6 1079.25Z" stroke="#161616" stroke-width="8" stroke-miterlimit="10" stroke-linecap="round" stroke-linejoin="round"/>
<path opacity="0.9116" fill-rule="evenodd" clip-rule="evenodd" d="M360.3 1148.45C360.2 1148.55 363.1 1149.15 363.4 1149.15C365.4 1149.65 367.4 1149.95 369.4 1150.35C378.2 1151.85 386.5 1151.45 394.9 1148.35C409.3 1143.05 419 1133.45 424.8 1121.05C426.9 1116.55 441.2 1096.15 432.2 1094.85C426.3 1093.95 395.9 1112.95 396.3 1109.35" fill="black"/>
<path opacity="0.9116" d="M360.3 1148.45C360.2 1148.55 363.1 1149.15 363.4 1149.15C365.4 1149.65 367.4 1149.95 369.4 1150.35C378.2 1151.85 386.5 1151.45 394.9 1148.35C409.3 1143.05 419 1133.45 424.8 1121.05C426.9 1116.55 441.2 1096.15 432.2 1094.85C426.3 1093.95 395.9 1112.95 396.3 1109.35" stroke="#161616" stroke-width="4" stroke-miterlimit="10" stroke-linecap="round" stroke-linejoin="round"/>
<path opacity="0.9116" d="M386 1175.45C381 1175.55 375.3 1179.25 371.3 1181.75C360.5 1188.75 351.7 1199.25 349.2 1212.45C345.3 1232.95 359.3 1249.85 379.5 1248.25C401.5 1246.45 411.9 1218.45 407.4 1198.55C405.8 1191.45 399.1 1173.55 389.2 1175.45" stroke="#161616" stroke-width="4" stroke-miterlimit="10" stroke-linecap="round" stroke-linejoin="round"/>
<path opacity="0.9116" d="M449.5 1231.25C447.4 1233.85 441.8 1234.35 438.5 1240.35C435.7 1245.65 433.8 1252.45 436.9 1258.05C449.1 1280.55 483.4 1241.95 454.9 1231.15" stroke="#161616" stroke-width="4" stroke-miterlimit="10" stroke-linecap="round" stroke-linejoin="round"/>
<path opacity="0.9116" fill-rule="evenodd" clip-rule="evenodd" d="M408.7 1263.75C409.5 1263.95 407.1 1263.55 406.3 1263.85C404.7 1264.35 403.1 1265.15 401.7 1266.15C397.4 1269.25 394.1 1274.05 391.8 1278.85C386 1290.45 385.7 1309.45 401.1 1312.85C428.6 1318.85 436.1 1273.35 410.8 1265.35" fill="black"/>
<path opacity="0.9116" d="M408.7 1263.75C409.5 1263.95 407.1 1263.55 406.3 1263.85C404.7 1264.35 403.1 1265.15 401.7 1266.15C397.4 1269.25 394.1 1274.05 391.8 1278.85C386 1290.45 385.7 1309.45 401.1 1312.85C428.6 1318.85 436.1 1273.35 410.8 1265.35" stroke="#161616" stroke-width="4" stroke-miterlimit="10" stroke-linecap="round" stroke-linejoin="round"/>
<path opacity="0.9116" d="M319 1281.15C325.9 1275.55 350.2 1288.45 355 1293.65C369.1 1308.75 365.6 1337.55 352.4 1352.05" stroke="#161616" stroke-width="4" stroke-miterlimit="10" stroke-linecap="round" stroke-linejoin="round"/>
<path opacity="0.9116" d="M443 1322.35C413.4 1330.25 417.2 1397.85 459.8 1389.25C500.9 1381.05 491 1314.35 450.2 1320.05" stroke="#161616" stroke-width="4" stroke-miterlimit="10" stroke-linecap="round" stroke-linejoin="round"/>
<path opacity="0.9116" d="M465.5 1278.85C454.7 1284.35 455.8 1306.55 470.3 1305.55C483.1 1304.75 485.1 1286.45 474.1 1281.05" stroke="#161616" stroke-width="4" stroke-miterlimit="10" stroke-linecap="round" stroke-linejoin="round"/>
<path opacity="0.9116" d="M538 1247.25C538 1247.35 535.2 1247.65 535.1 1247.65C526.3 1250.15 519 1259.55 516.1 1268.15C503.7 1304.75 562.6 1305.55 562.6 1270.05C562.6 1263.85 560.7 1257.55 556.3 1253.15C552.8 1249.55 548 1247.25 543 1246.75" stroke="#161616" stroke-width="4" stroke-miterlimit="10" stroke-linecap="round" stroke-linejoin="round"/>
<path opacity="0.9116" fill-rule="evenodd" clip-rule="evenodd" d="M532.1 1368.75C532.2 1368.75 531.9 1369.05 531.8 1369.05C528.7 1368.85 527.2 1363.15 526.6 1360.95C524.7 1353.65 525.2 1345.85 528.6 1339.05C534.7 1326.45 552.7 1327.15 560 1338.55" fill="black"/>
<path opacity="0.9116" d="M532.1 1368.75C532.2 1368.75 531.9 1369.05 531.8 1369.05C528.7 1368.85 527.2 1363.15 526.6 1360.95C524.7 1353.65 525.2 1345.85 528.6 1339.05C534.7 1326.45 552.7 1327.15 560 1338.55" stroke="#161616" stroke-width="4" stroke-miterlimit="10" stroke-linecap="round" stroke-linejoin="round"/>
<path opacity="0.9116" fill-rule="evenodd" clip-rule="evenodd" d="M589.1 1209.35C589.3 1209.05 583.9 1209.05 583.5 1209.15C579.4 1210.35 575.5 1213.25 573.3 1217.05C568.8 1224.95 574.4 1233.45 581.9 1236.35C597.3 1242.25 601.8 1218.85 591.9 1210.45" fill="black"/>
<path opacity="0.9116" d="M589.1 1209.35C589.3 1209.05 583.9 1209.05 583.5 1209.15C579.4 1210.35 575.5 1213.25 573.3 1217.05C568.8 1224.95 574.4 1233.45 581.9 1236.35C597.3 1242.25 601.8 1218.85 591.9 1210.45" stroke="#161616" stroke-width="4" stroke-miterlimit="10" stroke-linecap="round" stroke-linejoin="round"/>
<path opacity="0.9116" d="M484 1109.35C482.1 1111.25 477.7 1112.15 475.1 1113.55C463.5 1120.05 452.7 1130.45 445.7 1142.05C438.4 1153.95 436.8 1167.85 438.5 1181.55C440.2 1194.45 444.1 1207.55 454.2 1216.15C475.8 1234.65 537.7 1236.25 556.4 1211.45C567.8 1196.35 566.7 1168.65 562.1 1151.25C558.4 1137.55 548.4 1126.25 537.9 1117.55C522.6 1105.05 499.9 1106.55 484 1109.35Z" stroke="#161616" stroke-width="4" stroke-miterlimit="10" stroke-linecap="round" stroke-linejoin="round"/>
<path fill-rule="evenodd" clip-rule="evenodd" d="M513.8 1220.85C515.4 1219.45 524.3 1219.35 526.3 1218.35C535.4 1213.55 544.1 1207.65 550 1198.65C556 1189.25 555.3 1177.95 554.5 1166.75C553.7 1156.25 543.2 1137.55 535.9 1130.15C520.1 1114.35 477.9 1116.15 462.5 1135.35C453.1 1147.15 447.6 1168.05 450.4 1182.35C452.7 1193.65 457.9 1201.75 465.6 1209.25C476.7 1219.85 501.4 1222.45 513.8 1220.85Z" fill="#FFAB4D"/>
<path opacity="0.9116" d="M513.8 1220.85C515.4 1219.45 524.3 1219.35 526.3 1218.35C535.4 1213.55 544.1 1207.65 550 1198.65C556 1189.25 555.3 1177.95 554.5 1166.75C553.7 1156.25 543.2 1137.55 535.9 1130.15C520.1 1114.35 477.9 1116.15 462.5 1135.35C453.1 1147.15 447.6 1168.05 450.4 1182.35C452.7 1193.65 457.9 1201.75 465.6 1209.25C476.7 1219.85 501.4 1222.45 513.8 1220.85Z" stroke="#161616" stroke-width="4" stroke-miterlimit="10" stroke-linecap="round" stroke-linejoin="round"/>
<path opacity="0.9116" d="M535.6 1181.65C535.7 1181.65 533.5 1181.25 532.5 1181.85C530.3 1183.15 527.5 1184.25 526.7 1186.75C524.9 1192.25 522.9 1194.15 520.8 1196.35C517.9 1199.35 513.7 1200.25 508.2 1204.05C506.5 1205.25 504.4 1207.35 506.2 1209.45C508.7 1212.35 513.6 1211.85 516.8 1210.75C524.6 1207.85 532.2 1201.65 537 1194.65C539.3 1191.25 542.4 1184.65 537.6 1181.55" stroke="#161616" stroke-width="4" stroke-miterlimit="10" stroke-linecap="round" stroke-linejoin="round"/>
<path opacity="0.9116" d="M571.7 1110.75C572.5 1112.35 559.7 1160.45 591.8 1156.25" stroke="#161616" stroke-width="4" stroke-miterlimit="10" stroke-linecap="round" stroke-linejoin="round"/>
<path fill-rule="evenodd" clip-rule="evenodd" d="M894.2 1154.25C867 1176.55 863.2 1229.95 862.4 1246.05C858.7 1318.75 922.3 1412.15 1013.7 1369.75C1126.2 1317.55 1079.4 1181.05 998.8 1149.75C971.7 1139.25 929.9 1124.95 894.2 1154.25Z" fill="#F7F2EE"/>
<path opacity="0.9116" d="M894.2 1154.25C867 1176.55 863.2 1229.95 862.4 1246.05C858.7 1318.75 922.3 1412.15 1013.7 1369.75C1126.2 1317.55 1079.4 1181.05 998.8 1149.75C971.7 1139.25 929.9 1124.95 894.2 1154.25Z" stroke="#161616" stroke-width="8" stroke-miterlimit="10" stroke-linecap="round" stroke-linejoin="round"/>
<path opacity="0.9116" d="M875.4 1294.65C875.3 1294.75 875.1 1294.65 875.4 1294.95C883.5 1305.15 930 1303.35 941.6 1301.15C977.8 1294.35 1064.9 1237.15 1047.5 1189.15" stroke="#161616" stroke-width="4" stroke-miterlimit="10" stroke-linecap="round" stroke-linejoin="round"/>
<path opacity="0.9116" fill-rule="evenodd" clip-rule="evenodd" d="M870.3 1297.85C869.9 1297.45 870.4 1298.95 870.6 1299.55C870.9 1300.65 871.1 1301.65 871.4 1302.65C872.3 1305.75 873.4 1308.85 874.5 1311.75C878 1320.65 882.2 1330.55 888.7 1337.55C890.2 1339.15 893.5 1344.45 896 1342.95C900.5 1340.25 903.3 1330.95 905.5 1326.45C908.1 1320.85 911 1315.35 913.6 1309.75C914.3 1308.25 916.3 1305.45 915.9 1303.65C915.5 1302.15 905.3 1302.05 903.9 1302.05C892.6 1301.75 879.7 1302.75 870 1296.25" fill="black"/>
<path opacity="0.9116" d="M870.3 1297.85C869.9 1297.45 870.4 1298.95 870.6 1299.55C870.9 1300.65 871.1 1301.65 871.4 1302.65C872.3 1305.75 873.4 1308.85 874.5 1311.75C878 1320.65 882.2 1330.55 888.7 1337.55C890.2 1339.15 893.5 1344.45 896 1342.95C900.5 1340.25 903.3 1330.95 905.5 1326.45C908.1 1320.85 911 1315.35 913.6 1309.75C914.3 1308.25 916.3 1305.45 915.9 1303.65C915.5 1302.15 905.3 1302.05 903.9 1302.05C892.6 1301.75 879.7 1302.75 870 1296.25" stroke="#161616" stroke-width="4" stroke-miterlimit="10" stroke-linecap="round" stroke-linejoin="round"/>
<path opacity="0.9116" fill-rule="evenodd" clip-rule="evenodd" d="M923.5 1303.55C923 1303.25 923.9 1304.55 924.2 1305.05C924.7 1305.95 925.2 1306.95 925.8 1307.85C927.5 1310.55 929.3 1313.15 931.2 1315.65C936.8 1323.15 943.4 1331.45 951.5 1336.25C953.3 1337.35 957.9 1341.45 959.9 1339.35C963.5 1335.45 963.9 1325.95 964.8 1320.95C965.9 1314.85 967.3 1308.85 968.3 1302.85C968.6 1301.25 969.8 1298.05 968.9 1296.45C968.2 1295.05 958.3 1297.95 956.9 1298.25C946 1301.05 934.6 1307.05 923.5 1303.55Z" fill="black"/>
<path opacity="0.9116" d="M923.5 1303.55C923 1303.25 923.9 1304.55 924.2 1305.05C924.7 1305.95 925.2 1306.95 925.8 1307.85C927.5 1310.55 929.3 1313.15 931.2 1315.65C936.8 1323.15 943.4 1331.45 951.5 1336.25C953.3 1337.35 957.9 1341.45 959.9 1339.35C963.5 1335.45 963.9 1325.95 964.8 1320.95C965.9 1314.85 967.3 1308.85 968.3 1302.85C968.6 1301.25 969.8 1298.05 968.9 1296.45C968.2 1295.05 958.3 1297.95 956.9 1298.25C946 1301.05 934.6 1307.05 923.5 1303.55Z" stroke="#161616" stroke-width="4" stroke-miterlimit="10" stroke-linecap="round" stroke-linejoin="round"/>
<path opacity="0.9116" fill-rule="evenodd" clip-rule="evenodd" d="M1016.8 1259.65C1016.2 1259.65 1018 1260.35 1018.6 1260.65C1019.8 1261.25 1020.9 1261.75 1022.1 1262.25C1025.6 1263.75 1029.2 1265.15 1032.8 1266.35C1043.5 1269.95 1055.6 1273.75 1066.2 1273.45C1068.6 1273.35 1075.7 1274.55 1075.7 1271.25C1075.7 1265.45 1068.4 1256.35 1065.3 1251.15C1061.4 1244.85 1057.8 1238.35 1053.9 1232.05C1052.9 1230.35 1051.3 1226.65 1049.3 1225.65C1047.6 1224.85 1041.5 1233.35 1040.6 1234.55C1033.8 1243.85 1028.9 1256.25 1016.8 1259.65Z" fill="black"/>
<path opacity="0.9116" d="M1016.8 1259.65C1016.2 1259.65 1018 1260.35 1018.6 1260.65C1019.8 1261.25 1020.9 1261.75 1022.1 1262.25C1025.6 1263.75 1029.2 1265.15 1032.8 1266.35C1043.5 1269.95 1055.6 1273.75 1066.2 1273.45C1068.6 1273.35 1075.7 1274.55 1075.7 1271.25C1075.7 1265.45 1068.4 1256.35 1065.3 1251.15C1061.4 1244.85 1057.8 1238.35 1053.9 1232.05C1052.9 1230.35 1051.3 1226.65 1049.3 1225.65C1047.6 1224.85 1041.5 1233.35 1040.6 1234.55C1033.8 1243.85 1028.9 1256.25 1016.8 1259.65Z" stroke="#161616" stroke-width="4" stroke-miterlimit="10" stroke-linecap="round" stroke-linejoin="round"/>
<path opacity="0.9116" fill-rule="evenodd" clip-rule="evenodd" d="M1006.8 1269.45C996.9 1274.95 978.4 1286.95 971.7 1290.85C970.8 1291.35 990.1 1308.55 1000.8 1316.95C1002.5 1318.25 1015.5 1326.35 1016.9 1323.75C1019.5 1319.15 1020 1294.65 1019.7 1289.55C1019.4 1283.35 1019.3 1277.25 1018.9 1271.05C1018.8 1269.35 1018.1 1263.15 1016.8 1261.75C1015.8 1260.65 1008 1268.85 1006.8 1269.45Z" fill="black"/>
<path opacity="0.9116" d="M1006.8 1269.45C996.9 1274.95 978.4 1286.95 971.7 1290.85C970.8 1291.35 990.1 1308.55 1000.8 1316.95C1002.5 1318.25 1015.5 1326.35 1016.9 1323.75C1019.5 1319.15 1020 1294.65 1019.7 1289.55C1019.4 1283.35 1019.3 1277.25 1018.9 1271.05C1018.8 1269.35 1018.1 1263.15 1016.8 1261.75C1015.8 1260.65 1008 1268.85 1006.8 1269.45Z" stroke="#161616" stroke-width="4" stroke-miterlimit="10" stroke-linecap="round" stroke-linejoin="round"/>
<path opacity="0.9116" d="M898.2 1344.15C901 1340.05 907.3 1347.65 912.1 1348.35C925.7 1350.25 940.8 1351.25 954.5 1349.35C999.3 1343.25 1067.7 1315.95 1081 1265.25" stroke="#161616" stroke-width="4" stroke-miterlimit="10" stroke-linecap="round" stroke-linejoin="round"/>
<path opacity="0.9116" d="M900.9 1342.05C899.7 1337.95 909.9 1323.25 911.6 1319.45C912 1318.55 918.1 1303.55 918.3 1303.65C920.8 1304.65 924 1311.05 925.8 1313.15C935.2 1323.75 945.2 1333.45 955.6 1342.85C956.1 1343.35 956.8 1343.85 957.5 1343.35C964.9 1337.75 961.5 1298.05 969.5 1293.35C971.4 1292.25 1011.7 1327.25 1015.7 1326.25C1024.1 1324.05 1018.2 1263.85 1021.1 1260.55C1021.8 1259.75 1034.5 1268.75 1036.3 1269.35C1046.9 1273.35 1058 1273.25 1068.9 1275.65C1071.1 1276.15 1074.2 1280.05 1075.2 1277.95C1076.3 1275.65 1068.2 1260.75 1067.2 1258.75C1064.7 1253.55 1062.3 1248.15 1059.8 1242.95C1055.9 1234.95 1052.2 1226.85 1048.4 1218.85" stroke="#161616" stroke-width="4" stroke-miterlimit="10" stroke-linecap="round" stroke-linejoin="round"/>
<path opacity="0.9116" d="M922.8 1331.45L922.7 1331.85" stroke="#161616" stroke-width="4" stroke-miterlimit="10" stroke-linecap="round" stroke-linejoin="round"/>
<path opacity="0.9116" d="M981.7 1322.05C981.7 1321.95 981.6 1322.05 981.6 1321.95" stroke="#161616" stroke-width="4" stroke-miterlimit="10" stroke-linecap="round" stroke-linejoin="round"/>
<path opacity="0.9116" d="M1041.9 1290.15C1042 1290.15 1042 1290.25 1042.1 1290.25" stroke="#161616" stroke-width="4" stroke-miterlimit="10" stroke-linecap="round" stroke-linejoin="round"/>
<path opacity="0.9116" d="M905.8 1172.85C904.8 1174.95 901.6 1177.45 900 1179.55C892.7 1188.95 887.4 1200.75 885.6 1211.75C883.7 1223.05 886.9 1233.25 893 1241.95C898.7 1250.05 906.3 1257.35 917.4 1258.95C941.2 1262.35 992.3 1236.95 999.2 1211.85C1003.4 1196.55 993.3 1178.05 983.7 1168.15C976.1 1160.35 964.1 1156.85 952.6 1155.45C935.9 1153.35 917.9 1164.15 905.8 1172.85Z" stroke="#161616" stroke-width="4" stroke-miterlimit="10" stroke-linecap="round" stroke-linejoin="round"/>
<path fill-rule="evenodd" clip-rule="evenodd" d="M967.5 1236.55C968.3 1234.95 975.6 1231.05 976.8 1229.45C982.6 1222.25 987.8 1214.45 989.5 1205.75C991.3 1196.75 986.9 1189.25 982.5 1181.95C978.4 1175.05 963.5 1166.75 955 1164.85C936.8 1160.75 902.9 1180.15 896.9 1199.95C893.2 1212.05 895.7 1228.75 902.8 1237.35C908.4 1244.05 915.4 1247.45 924.2 1249.25C936.9 1251.75 957.9 1242.95 967.5 1236.55Z" fill="#FFAB4D"/>
<path opacity="0.9116" d="M967.5 1236.55C968.3 1234.95 975.6 1231.05 976.8 1229.45C982.6 1222.25 987.8 1214.45 989.5 1205.75C991.3 1196.75 986.9 1189.25 982.5 1181.95C978.4 1175.05 963.5 1166.75 955 1164.85C936.8 1160.75 902.9 1180.15 896.9 1199.95C893.2 1212.05 895.7 1228.75 902.8 1237.35C908.4 1244.05 915.4 1247.45 924.2 1249.25C936.9 1251.75 957.9 1242.95 967.5 1236.55Z" stroke="#161616" stroke-width="4" stroke-miterlimit="10" stroke-linecap="round" stroke-linejoin="round"/>
<path opacity="0.9116" d="M965.1 1185.75C965.1 1185.65 964.2 1187.25 964.3 1188.15C964.5 1190.15 964.4 1192.75 965.9 1194.05C969.2 1196.95 970 1199.05 970.9 1201.25C972.1 1204.35 971.4 1207.85 972.4 1213.15C972.7 1214.75 973.5 1217.05 975.6 1216.25C978.5 1215.15 979.7 1211.15 979.9 1208.45C980.3 1201.65 978.3 1193.95 974.9 1188.35C973.2 1185.55 969.4 1181.35 965.7 1184.15" stroke="#161616" stroke-width="4" stroke-miterlimit="10" stroke-linecap="round" stroke-linejoin="round"/>
<path fill-rule="evenodd" clip-rule="evenodd" d="M1216 1105.15C1201.8 1106.45 1193.5 1109.65 1181.7 1123.15C1175 1130.85 1162.4 1092.55 1152.3 1111.45C1146.6 1122.15 1154.1 1141.85 1151.8 1145.95C1136.8 1172.35 1116.9 1214.35 1115.3 1256.15C1112.7 1322.05 1141 1388.45 1196.6 1399.65C1275.8 1415.55 1320.2 1323.85 1317 1240.65C1315.7 1206.55 1297 1173.75 1283.6 1149.75C1280.2 1143.65 1290.2 1135.95 1286.3 1114.85C1284.1 1102.85 1262.8 1128.05 1257.2 1121.95C1242.9 1106.45 1229 1103.95 1216 1105.15Z" fill="#F7F2EE"/>
<path opacity="0.9116" d="M1216 1105.15C1201.8 1106.45 1193.5 1109.65 1181.7 1123.15C1175 1130.85 1162.4 1092.55 1152.3 1111.45C1146.6 1122.15 1154.1 1141.85 1151.8 1145.95C1136.8 1172.35 1116.9 1214.35 1115.3 1256.15C1112.7 1322.05 1141 1388.45 1196.6 1399.65C1275.8 1415.55 1320.2 1323.85 1317 1240.65C1315.7 1206.55 1297 1173.75 1283.6 1149.75C1280.2 1143.65 1290.2 1135.95 1286.3 1114.85C1284.1 1102.85 1262.8 1128.05 1257.2 1121.95C1242.9 1106.45 1229 1103.95 1216 1105.15Z" stroke="#161616" stroke-width="8" stroke-miterlimit="10" stroke-linecap="round" stroke-linejoin="round"/>
<path opacity="0.9116" d="M1259.1 1170.25C1258.9 1170.45 1259.5 1169.85 1259.7 1169.65C1260.2 1169.25 1260.8 1168.75 1261.3 1168.35C1263 1167.05 1264.7 1165.85 1266.4 1164.65C1271.3 1161.25 1276.8 1157.45 1282.7 1156.25" stroke="#161616" stroke-width="4" stroke-miterlimit="10" stroke-linecap="round" stroke-linejoin="round"/>
<path opacity="0.9116" d="M1263.9 1180.35C1264 1180.75 1264.5 1180.05 1264.9 1179.85C1265.6 1179.55 1266.3 1179.25 1267.1 1178.95C1269.3 1178.05 1271.5 1177.35 1273.7 1176.55C1280 1174.25 1287.4 1171.75 1294.3 1172.15" stroke="#161616" stroke-width="4" stroke-miterlimit="10" stroke-linecap="round" stroke-linejoin="round"/>
<path opacity="0.9116" d="M1264.3 1191.55C1264.1 1191.95 1265.2 1191.45 1265.6 1191.35C1266.5 1191.15 1267.3 1191.05 1268.2 1190.95C1270.8 1190.55 1273.3 1190.35 1275.9 1190.05C1284 1189.25 1292.7 1188.15 1300.7 1190.25" stroke="#161616" stroke-width="4" stroke-miterlimit="10" stroke-linecap="round" stroke-linejoin="round"/>
<path opacity="0.9116" d="M1154.8 1150.45C1154.6 1150.55 1155.7 1150.55 1155.9 1150.55C1156.7 1150.65 1157.4 1150.75 1158.1 1150.85C1160.3 1151.25 1162.4 1151.75 1164.5 1152.45C1171 1154.45 1177 1157.55 1181.3 1162.85" stroke="#161616" stroke-width="4" stroke-miterlimit="10" stroke-linecap="round" stroke-linejoin="round"/>
<path opacity="0.9116" d="M1144.5 1167.25C1144.3 1167.35 1145 1167.15 1145.3 1167.15C1145.9 1167.15 1146.5 1167.05 1147.1 1167.05C1149 1166.95 1150.8 1167.15 1152.7 1167.35C1158.1 1167.95 1164.2 1168.85 1169 1171.65" stroke="#161616" stroke-width="4" stroke-miterlimit="10" stroke-linecap="round" stroke-linejoin="round"/>
<path opacity="0.9116" d="M1136.2 1185.65C1136.3 1185.75 1136.6 1185.45 1136.7 1185.45C1139 1184.75 1141.7 1184.55 1144.1 1184.35C1150.8 1183.85 1157.5 1183.85 1164.1 1184.95" stroke="#161616" stroke-width="4" stroke-miterlimit="10" stroke-linecap="round" stroke-linejoin="round"/>
<path opacity="0.9116" d="M1130.7 1191.95C1131.1 1191.15 1159.5 1229.95 1224.9 1228.25C1285.6 1226.65 1308 1193.35 1306.9 1189.65" stroke="#161616" stroke-width="8" stroke-miterlimit="10" stroke-linecap="round" stroke-linejoin="round"/>
<path opacity="0.9116" d="M1126.3 1319.15C1126.3 1319.15 1127.3 1319.15 1127.7 1319.05C1128.8 1318.95 1129.9 1318.85 1130.9 1318.75C1134.2 1318.45 1137.6 1318.15 1140.9 1317.95C1148.8 1317.45 1156.7 1317.15 1164.6 1317.55C1166.1 1317.65 1171.4 1317.35 1172.2 1319.25C1172.8 1320.65 1168.2 1321.85 1167.6 1322.15C1161.6 1324.15 1149.6 1327.65 1149.9 1329.15C1150.3 1331.25 1170.2 1329.15 1172.4 1332.45C1172.8 1333.05 1172.1 1333.65 1171.7 1333.95C1169.5 1335.85 1157.5 1341.25 1157.6 1343.75C1157.7 1347.35 1180.9 1343.65 1170.4 1351.75C1169.3 1352.65 1168.1 1353.35 1166.9 1354.05C1165.1 1355.05 1163.3 1355.95 1161.5 1356.95C1159.1 1358.15 1156.7 1359.35 1154.2 1360.45" stroke="#161616" stroke-width="4" stroke-miterlimit="10" stroke-linecap="round" stroke-linejoin="round"/>
<path opacity="0.9116" d="M1303.5 1315.25C1304.5 1315.65 1301.4 1315.75 1300.4 1315.95C1298.5 1316.25 1296.5 1316.55 1294.6 1316.95C1291 1317.75 1272.8 1321.55 1272.1 1325.45C1271.3 1329.75 1295.3 1326.45 1295.4 1329.35C1295.5 1331.05 1290.3 1332.55 1289.2 1333.05C1283.4 1335.45 1273.2 1337.55 1268.8 1342.55C1265.5 1346.35 1281.4 1345.45 1281.4 1347.15C1281.4 1351.65 1254.8 1354.95 1272.2 1364.35C1274 1365.35 1275.9 1366.05 1277.6 1367.25" stroke="#161616" stroke-width="4" stroke-miterlimit="10" stroke-linecap="round" stroke-linejoin="round"/>
<path opacity="0.9116" fill-rule="evenodd" clip-rule="evenodd" d="M1195.2 1114.15C1194.4 1114.95 1195.7 1116.35 1195.8 1117.55C1196.1 1120.55 1196.5 1123.65 1197.7 1126.35C1198.1 1127.15 1198.7 1129.05 1199.8 1128.65C1202.3 1127.85 1203.4 1118.75 1203.8 1116.45C1203.9 1115.65 1204.2 1112.85 1205.2 1112.55C1205.9 1112.35 1206.4 1115.75 1206.4 1116.05C1206.9 1118.95 1207.3 1121.95 1208.2 1124.75C1208.5 1125.55 1209.1 1127.35 1210.1 1127.45C1211.3 1127.45 1211.9 1125.25 1212.1 1124.45C1212.9 1121.75 1213.5 1118.95 1214 1116.15C1214.1 1115.45 1214.3 1113.65 1215.1 1113.25C1215.9 1112.85 1216.6 1115.55 1216.7 1115.95C1217.3 1118.05 1217.6 1124.65 1220 1125.45C1220.8 1125.75 1221.3 1123.95 1221.5 1123.45C1221.9 1122.45 1224.1 1115.55 1224.9 1115.45C1225.7 1115.35 1226.1 1118.15 1226.3 1118.65C1226.8 1120.55 1227.7 1131.55 1231.1 1129.95C1233.3 1128.95 1234.7 1125.85 1235.9 1123.95C1239.8 1117.45 1242.4 1110.25 1234.2 1106.45C1225.5 1102.35 1208.2 1106.15 1200.2 1111.35" fill="black"/>
<path opacity="0.9116" d="M1195.2 1114.15C1194.4 1114.95 1195.7 1116.35 1195.8 1117.55C1196.1 1120.55 1196.5 1123.65 1197.7 1126.35C1198.1 1127.15 1198.7 1129.05 1199.8 1128.65C1202.3 1127.85 1203.4 1118.75 1203.8 1116.45C1203.9 1115.65 1204.2 1112.85 1205.2 1112.55C1205.9 1112.35 1206.4 1115.75 1206.4 1116.05C1206.9 1118.95 1207.3 1121.95 1208.2 1124.75C1208.5 1125.55 1209.1 1127.35 1210.1 1127.45C1211.3 1127.45 1211.9 1125.25 1212.1 1124.45C1212.9 1121.75 1213.5 1118.95 1214 1116.15C1214.1 1115.45 1214.3 1113.65 1215.1 1113.25C1215.9 1112.85 1216.6 1115.55 1216.7 1115.95C1217.3 1118.05 1217.6 1124.65 1220 1125.45C1220.8 1125.75 1221.3 1123.95 1221.5 1123.45C1221.9 1122.45 1224.1 1115.55 1224.9 1115.45C1225.7 1115.35 1226.1 1118.15 1226.3 1118.65C1226.8 1120.55 1227.7 1131.55 1231.1 1129.95C1233.3 1128.95 1234.7 1125.85 1235.9 1123.95C1239.8 1117.45 1242.4 1110.25 1234.2 1106.45C1225.5 1102.35 1208.2 1106.15 1200.2 1111.35" stroke="#161616" stroke-width="4" stroke-miterlimit="10" stroke-linecap="round" stroke-linejoin="round"/>
<path opacity="0.9116" d="M1190.3 1147.45C1197.8 1150.75 1200.1 1153.15 1203.5 1156.55" stroke="#161616" stroke-width="4" stroke-miterlimit="10" stroke-linecap="round" stroke-linejoin="round"/>
<path opacity="0.9116" d="M1237.5 1155.95C1239.7 1148.15 1252.2 1142.75 1255.8 1155.25" stroke="#161616" stroke-width="4" stroke-miterlimit="10" stroke-linecap="round" stroke-linejoin="round"/>
<path opacity="0.9116" d="M1219.3 1170.85C1211.1 1171.05 1211.5 1185.05 1219.7 1186.35C1228.1 1187.65 1233.5 1174.85 1224.8 1171.55" stroke="#161616" stroke-width="4" stroke-miterlimit="10" stroke-linecap="round" stroke-linejoin="round"/>
<path opacity="0.9116" d="M1220 1187.85C1222.5 1192.15 1203.9 1198.85 1196.6 1193.25C1193.7 1190.95 1185.3 1183.15 1194.7 1175.95" stroke="#161616" stroke-width="4" stroke-miterlimit="10" stroke-linecap="round" stroke-linejoin="round"/>
<path opacity="0.9116" d="M1223 1187.95C1222.8 1187.35 1223.2 1189.25 1223.5 1189.75C1224.3 1190.85 1225.2 1191.75 1226.3 1192.55C1229.6 1194.85 1233.6 1196.05 1237.6 1195.85C1243.2 1195.65 1258.1 1183.55 1249.9 1176.35" stroke="#161616" stroke-width="4" stroke-miterlimit="10" stroke-linecap="round" stroke-linejoin="round"/>
<path fill-rule="evenodd" clip-rule="evenodd" d="M1204.1 1246.55C1205.5 1245.05 1205.1 1215.85 1211.8 1210.75C1221.9 1203.05 1218.2 1231.05 1220.3 1232.95C1221 1233.55 1224.1 1233.45 1227.3 1234.35C1232.6 1235.75 1238.2 1239.85 1233.9 1253.85C1229 1269.85 1204.1 1262.05 1204.1 1246.55Z" fill="#F7F2EE"/>
<path opacity="0.9116" d="M1204.1 1246.55C1205.5 1245.05 1205.1 1215.85 1211.8 1210.75C1221.9 1203.05 1218.2 1231.05 1220.3 1232.95C1221 1233.55 1224.1 1233.45 1227.3 1234.35C1232.6 1235.75 1238.2 1239.85 1233.9 1253.85C1229 1269.85 1204.1 1262.05 1204.1 1246.55Z" stroke="#161616" stroke-width="4" stroke-miterlimit="10" stroke-linecap="round" stroke-linejoin="round"/>
<path opacity="0.9116" d="M1171.1 1240.65C1177.9 1240.85 1186.6 1244.95 1188.3 1245.05C1192.8 1245.45 1197.9 1248.95 1202.2 1247.55" stroke="#161616" stroke-width="4" stroke-miterlimit="10" stroke-linecap="round" stroke-linejoin="round"/>
<path fill-rule="evenodd" clip-rule="evenodd" d="M1230.1 1253.65C1230.1 1253.65 1225.1 1251.75 1224.8 1251.75C1222.1 1252.05 1218.5 1254.05 1216 1255.15C1208.5 1258.65 1205.4 1270.25 1213.1 1278.95C1215.5 1281.65 1220.8 1283.15 1223.7 1283.55C1227 1283.95 1231.8 1281.55 1233.6 1280.65C1242.5 1276.35 1241.8 1258.05 1230.1 1253.65Z" fill="#F7F2EE"/>
<path opacity="0.9116" d="M1230.1 1253.65C1230.1 1253.65 1225.1 1251.75 1224.8 1251.75C1222.1 1252.05 1218.5 1254.05 1216 1255.15C1208.5 1258.65 1205.4 1270.25 1213.1 1278.95C1215.5 1281.65 1220.8 1283.15 1223.7 1283.55C1227 1283.95 1231.8 1281.55 1233.6 1280.65C1242.5 1276.35 1241.8 1258.05 1230.1 1253.65Z" stroke="#161616" stroke-width="4" stroke-miterlimit="10" stroke-linecap="round" stroke-linejoin="round"/>
<path opacity="0.9116" d="M1237.7 1257.25C1237.7 1257.25 1238.9 1255.85 1240.8 1255.65C1245.8 1255.15 1266.8 1248.35 1271.7 1247.65" stroke="#161616" stroke-width="4" stroke-miterlimit="10" stroke-linecap="round" stroke-linejoin="round"/>
<path opacity="0.9116" d="M1239.8 1275.95C1250 1277.85 1276.4 1285.85 1283.1 1285.15" stroke="#161616" stroke-width="4" stroke-miterlimit="10" stroke-linecap="round" stroke-linejoin="round"/>
<path opacity="0.9116" d="M1149.9 1281.25C1188.3 1286.55 1196.4 1272.85 1207.3 1268.65" stroke="#161616" stroke-width="4" stroke-miterlimit="10" stroke-linecap="round" stroke-linejoin="round"/>
<path opacity="0.9116" d="M1265.8 1382.15C1265.7 1382.45 1265.7 1382.05 1265.8 1382.05C1267.3 1379.45 1270.4 1377.05 1272.6 1375.15C1277.5 1370.95 1283 1367.55 1288.9 1364.95C1300.9 1359.65 1349.9 1353.85 1346.6 1375.65C1340.3 1417.45 1264.9 1397.85 1250 1397.35C1243.7 1397.15 1266.6 1391.65 1265.8 1382.15Z" stroke="#161616" stroke-width="8" stroke-miterlimit="10" stroke-linecap="round" stroke-linejoin="round"/>
</svg>
