<svg width="1500" height="1500" viewBox="0 0 1500 1500" fill="none" xmlns="http://www.w3.org/2000/svg">
<rect width="1500" height="1500" fill="#F7F2EE"/>
<path d="M422.239 1069.15C422.039 1069.05 421.139 1069.95 421.039 1070.05C400.839 1086.85 367.439 1093.55 342.839 1099.25C327.239 1102.85 187.339 1128.25 190.039 1147.35C190.139 1148.25 192.539 1148.65 193.139 1148.85C209.739 1154.65 218.039 1171.75 221.039 1187.95C223.739 1201.95 224.239 1216.05 223.639 1230.25C223.539 1232.15 222.339 1238.75 224.039 1240.25C225.339 1241.45 233.239 1231.15 233.939 1230.35C245.039 1218.35 257.039 1207.75 270.839 1198.85C285.639 1189.25 302.439 1181.85 319.839 1178.15C325.939 1176.85 342.939 1179.15 347.839 1175.75C350.639 1173.75 379.839 1124.15 391.539 1112.85C397.339 1107.25 434.739 1075.95 425.039 1072.05" stroke="black" stroke-width="8" stroke-miterlimit="10" stroke-linecap="round" stroke-linejoin="round"/>
<path d="M216.039 1167.05C216.639 1162.85 238.139 1151.85 241.539 1150.05C268.539 1135.85 298.939 1129.55 327.839 1120.45" stroke="black" stroke-width="4" stroke-miterlimit="10" stroke-linecap="round" stroke-linejoin="round"/>
<path d="M369.539 1132.15C369.639 1132.15 369.139 1132.55 369.139 1132.65C366.839 1134.75 363.439 1136.05 360.639 1137.15C354.539 1139.75 348.139 1141.65 341.739 1143.35C321.939 1148.75 302.039 1152.25 283.739 1161.95" stroke="black" stroke-width="4" stroke-miterlimit="10" stroke-linecap="round" stroke-linejoin="round"/>
<path fill-rule="evenodd" clip-rule="evenodd" d="M901.239 150.553C866.239 153.553 669.739 163.753 659.339 671.353C656.439 810.453 722.439 1152.75 905.739 1143.35C1122.04 1132.25 1153.04 794.054 1151.44 671.254C1148.54 435.354 1097.64 133.753 901.239 150.553Z" fill="#9AD335"/>
<path d="M901.239 150.553C866.239 153.553 669.739 163.753 659.339 671.353C656.439 810.453 722.439 1152.75 905.739 1143.35C1122.04 1132.25 1153.04 794.054 1151.44 671.254C1148.54 435.354 1097.64 133.753 901.239 150.553Z" stroke="black" stroke-width="8" stroke-miterlimit="10" stroke-linecap="round" stroke-linejoin="round"/>
<path d="M935.538 181.453C908.738 191.253 798.538 295.353 766.938 320.753" stroke="black" stroke-width="4" stroke-miterlimit="10" stroke-linecap="round" stroke-linejoin="round"/>
<path d="M970.539 211.953C969.939 211.753 967.139 214.853 966.839 215.153C953.739 226.953 939.239 237.253 925.539 248.153C913.439 257.753 901.339 267.353 889.239 276.853" stroke="black" stroke-width="4" stroke-miterlimit="10" stroke-linecap="round" stroke-linejoin="round"/>
<path d="M990.939 866.553C990.339 866.453 988.939 868.153 988.539 868.453C963.939 890.553 937.639 911.053 912.139 932.053" stroke="black" stroke-width="4" stroke-miterlimit="10" stroke-linecap="round" stroke-linejoin="round"/>
<path d="M1070.94 873.453C1066.34 874.953 885.939 1027.55 862.239 1048.35" stroke="black" stroke-width="4" stroke-miterlimit="10" stroke-linecap="round" stroke-linejoin="round"/>
<path d="M656.939 685.653C657.639 685.253 655.439 685.653 654.639 685.453C643.839 681.153 630.839 667.553 630.839 654.353C630.839 633.553 673.539 619.353 649.139 594.053C643.239 587.953 634.539 588.953 629.039 594.953C625.339 598.953 622.439 609.153 629.739 610.853C633.539 611.753 636.339 608.254 636.739 604.254C637.439 596.654 629.139 601.153 632.239 604.853C637.439 611.053 646.939 599.153 649.339 594.953C667.839 561.753 610.639 538.353 635.339 506.053C639.239 500.953 645.039 496.753 651.339 496.953C657.439 497.153 663.139 501.253 665.239 507.653C671.239 526.253 636.639 523.154 649.939 509.254C652.839 506.254 657.739 506.953 659.439 511.153C661.539 516.353 656.739 521.953 652.139 518.453C628.139 500.153 681.739 464.553 676.639 425.053C674.839 410.853 656.739 407.653 657.339 423.653C658.039 441.153 675.439 419.453 676.739 411.853C680.839 387.953 658.339 351.153 680.439 332.653C687.939 326.353 703.039 325.053 705.239 338.053C708.639 358.153 683.639 352.754 688.239 344.754C690.139 341.454 688.239 351.653 686.139 348.053C666.239 314.753 731.239 293.953 737.339 264.853C739.539 254.353 723.139 232.553 718.539 246.553C716.339 253.153 725.039 257.154 729.539 257.254C754.239 257.854 740.839 196.053 759.439 182.453C761.939 180.653 764.639 179.253 767.539 178.353C775.639 175.853 786.439 178.753 786.139 189.853C785.839 202.053 770.539 198.553 773.139 187.053C774.339 181.453 784.939 176.754 784.639 185.254C784.339 192.554 777.939 183.953 781.539 175.853C791.239 154.053 808.239 167.753 823.439 169.853" stroke="black" stroke-width="4" stroke-miterlimit="10" stroke-linecap="round" stroke-linejoin="round"/>
<path d="M827.839 167.053C826.739 166.853 829.739 165.653 830.639 164.853C832.639 163.153 834.439 161.153 836.139 159.153C840.639 153.653 849.739 139.553 842.839 132.653C835.239 125.153 825.339 140.654 833.239 147.754C850.239 163.254 875.039 129.454 860.339 124.754C851.539 121.954 862.439 144.654 875.639 141.754C890.839 138.354 898.439 102.453 916.639 110.053C932.339 116.653 921.939 145.453 913.439 133.653C912.039 131.753 910.539 125.853 913.339 124.453C915.839 123.153 914.839 131.153 915.439 127.853C916.339 123.053 919.839 119.653 923.639 117.553C942.739 106.653 941.039 142.353 960.339 143.553C991.139 145.553 987.339 115.053 975.239 120.853C961.939 127.153 976.239 145.953 984.239 148.953C998.439 154.353 1014.44 137.053 1027.74 153.153C1036.64 163.853 1009.14 174.653 1018.34 164.053C1022.04 159.753 1026.84 166.253 1025.54 170.553C1025.44 170.953 1025.44 169.853 1026.04 170.053C1027.94 170.653 1029.24 172.753 1030.34 174.553C1037.94 187.053 1039.04 201.453 1051.34 210.553C1070.04 224.453 1093.94 201.653 1078.24 192.053C1060.84 181.453 1061.94 212.653 1067.94 221.853C1075.24 233.153 1112.84 248.354 1107.04 265.654C1105.14 271.354 1094.44 273.453 1092.24 266.953C1091.24 264.053 1094.14 263.154 1095.94 264.654C1100.04 268.054 1087.04 270.854 1091.64 268.154C1102.34 261.954 1102.14 298.954 1109.24 305.754C1119.84 315.854 1133.44 314.553 1139.74 330.553C1148.44 352.853 1105.34 358.154 1122.24 346.754C1137.84 336.154 1127.34 381.854 1130.04 387.254C1138.04 403.454 1159.14 386.454 1145.74 385.754C1143.84 385.654 1141.94 386.653 1140.64 388.053C1126.24 403.253 1150.04 418.453 1157.54 427.853C1157.94 428.353 1158.44 429.053 1158.84 429.553C1161.74 433.553 1164.04 438.254 1164.94 443.254C1169.04 465.154 1140.74 469.154 1146.04 456.654" stroke="black" stroke-width="4" stroke-miterlimit="10" stroke-linecap="round" stroke-linejoin="round"/>
<path d="M1144.24 454.653C1144.14 454.553 1144.64 454.453 1144.64 454.453C1148.74 453.153 1154.24 459.853 1154.04 463.953C1153.44 473.653 1139.14 490.953 1152.44 497.953C1161.84 502.853 1160.14 478.054 1154.54 487.754C1148.04 498.954 1171.44 526.153 1172.14 541.553C1172.74 555.053 1158.64 575.554 1153.14 559.254C1149.24 547.554 1167.34 550.753 1169.24 560.553C1170.04 564.753 1165.14 571.153 1163.74 577.153C1163.44 578.553 1141.74 671.153 1176.34 659.453C1184.54 656.753 1187.54 637.753 1176.54 639.153C1162.44 640.853 1179.04 670.553 1187.74 659.353C1193.04 652.553 1177.44 653.254 1173.54 665.254C1166.74 686.654 1198.54 742.053 1172.44 751.953C1160.74 756.353 1158.94 731.653 1164.84 731.353C1178.94 730.453 1159.44 779.653 1158.64 796.153C1158.24 803.853 1168.34 832.153 1177.14 815.853C1183.34 804.453 1161.44 795.953 1157.94 811.853C1153.64 831.353 1178.44 856.053 1164.64 873.853C1147.64 895.653 1136.74 863.253 1140.74 865.353C1142.94 866.453 1143.24 868.753 1144.24 870.953" stroke="black" stroke-width="4" stroke-miterlimit="10" stroke-linecap="round" stroke-linejoin="round"/>
<path d="M1141.24 865.353C1140.94 865.753 1142.04 864.754 1142.54 864.654C1143.54 864.554 1144.44 865.354 1145.14 866.154C1147.34 868.654 1148.14 872.153 1147.24 875.453C1143.64 887.853 1123.04 900.653 1133.34 916.353C1134.14 917.653 1135.24 918.753 1136.64 919.453C1145.14 923.953 1149.04 908.253 1140.64 909.953C1138.74 910.353 1137.34 911.653 1136.64 913.553C1132.64 924.453 1145.34 934.553 1138.74 948.453C1135.94 954.353 1130.14 958.454 1123.94 957.654C1121.44 957.354 1114.44 954.053 1116.04 949.953C1117.14 947.053 1123.14 954.053 1121.24 960.853C1119.14 967.953 1091.54 988.154 1108.44 999.654C1112.44 1002.35 1119.04 998.253 1116.44 992.853C1115.74 991.353 1114.04 989.753 1112.34 989.953C1111.34 990.053 1111.54 994.154 1111.84 993.154C1112.24 991.854 1104.64 994.553 1104.24 994.953C1103.24 995.753 1102.34 996.853 1101.74 997.953C1093.94 1012.15 1111.44 1032.55 1098.64 1045.35C1090.24 1053.75 1076.54 1046.75 1078.14 1043.65C1078.34 1043.25 1078.94 1043.55 1079.24 1043.75C1082.34 1045.75 1081.64 1050.65 1078.64 1052.35C1076.94 1053.25 1075.44 1050.45 1076.64 1051.75C1086.64 1062.95 1060.04 1075.85 1055.74 1084.35C1052.54 1090.65 1058.64 1105.85 1064.14 1100.45C1079.64 1085.25 1047.34 1089.65 1033.94 1098.75C1019.24 1108.75 1012.84 1130.05 1010.64 1130.05" stroke="black" stroke-width="4" stroke-miterlimit="10" stroke-linecap="round" stroke-linejoin="round"/>
<path fill-rule="evenodd" clip-rule="evenodd" d="M841.239 382.253C828.539 382.353 800.239 392.253 800.039 393.053C799.239 395.853 777.739 477.753 788.339 501.953C798.639 525.453 818.339 520.553 831.539 528.453C834.039 529.953 837.639 533.353 838.939 536.953C839.539 538.753 839.739 542.553 840.039 544.353C844.039 577.053 840.039 611.253 829.439 633.153C825.239 641.753 830.439 640.453 823.439 646.353C822.439 647.153 872.639 648.553 870.639 645.453C865.339 637.453 860.239 634.553 857.939 622.053C854.539 603.453 851.139 564.053 858.739 532.953C861.139 523.053 893.639 527.053 903.639 500.753C910.139 483.853 903.739 414.653 897.639 393.753C896.239 389.653 869.339 382.053 841.239 382.253Z" fill="#F7F2EE"/>
<path d="M841.239 382.253C828.539 382.353 800.239 392.253 800.039 393.053C799.239 395.853 777.739 477.753 788.339 501.953C798.639 525.453 818.339 520.553 831.539 528.453C834.039 529.953 837.639 533.353 838.939 536.953C839.539 538.753 839.739 542.553 840.039 544.353C844.039 577.053 840.039 611.253 829.439 633.153C825.239 641.753 830.439 640.453 823.439 646.353C822.439 647.153 872.639 648.553 870.639 645.453C865.339 637.453 860.239 634.553 857.939 622.053C854.539 603.453 851.139 564.053 858.739 532.953C861.139 523.053 893.639 527.053 903.639 500.753C910.139 483.853 903.739 414.653 897.639 393.753C896.239 389.653 869.339 382.053 841.239 382.253Z" stroke="#161616" stroke-width="8" stroke-miterlimit="10" stroke-linecap="round" stroke-linejoin="round"/>
<path opacity="0.9116" fill-rule="evenodd" clip-rule="evenodd" d="M786.239 463.953C786.139 463.953 786.039 464.053 785.939 464.153C784.239 466.953 784.239 472.053 784.039 475.153C784.039 475.353 784.039 475.653 783.939 475.853C783.139 486.053 782.139 500.353 789.239 508.853C796.839 518.053 808.139 520.053 818.939 523.353C824.139 524.953 829.239 528.553 834.639 529.253C853.139 531.553 885.239 523.553 897.439 509.053C902.739 502.753 905.339 493.353 906.939 485.453C907.539 482.453 907.739 465.753 904.739 464.353C902.839 463.453 895.839 468.053 894.039 468.853C885.039 472.653 875.739 474.253 866.039 475.353C843.339 477.953 807.439 471.353 787.039 461.653" fill="black"/>
<path d="M786.239 463.953C786.139 463.953 786.039 464.053 785.939 464.153C784.239 466.953 784.239 472.053 784.039 475.153C784.039 475.353 784.039 475.653 783.939 475.853C783.139 486.053 782.139 500.353 789.239 508.853C796.839 518.053 808.139 520.053 818.939 523.353C824.139 524.953 829.239 528.553 834.639 529.253C853.139 531.553 885.239 523.553 897.439 509.053C902.739 502.753 905.339 493.353 906.939 485.453C907.539 482.453 907.739 465.753 904.739 464.353C902.839 463.453 895.839 468.053 894.039 468.853C885.039 472.653 875.739 474.253 866.039 475.353C843.339 477.953 807.439 471.353 787.039 461.653" stroke="black" stroke-width="4" stroke-miterlimit="10" stroke-linecap="round" stroke-linejoin="round"/>
<path d="M805.239 393.153C804.839 393.353 806.339 394.553 806.439 394.653C808.139 396.053 810.139 396.953 812.139 397.653C819.539 400.353 827.439 400.653 835.239 400.953C856.139 401.553 876.439 401.753 896.339 394.353" stroke="#161616" stroke-width="4" stroke-miterlimit="10" stroke-linecap="round" stroke-linejoin="round"/>
<path d="M788.339 461.754C788.339 461.854 794.139 464.853 794.539 465.053C801.239 468.553 808.139 471.053 815.539 472.453C829.939 475.153 845.739 475.854 861.039 475.154C866.939 474.854 872.839 474.354 878.539 473.654C882.139 473.254 885.639 472.354 889.139 471.154C891.239 470.454 893.239 469.653 895.239 468.953C920.039 459.453 874.039 460.553 869.139 460.453C859.739 460.253 850.439 460.353 841.039 460.453C826.239 460.553 811.339 460.453 796.639 461.053" stroke="#161616" stroke-width="4" stroke-miterlimit="10" stroke-linecap="round" stroke-linejoin="round"/>
<path d="M844.139 485.453C842.239 484.353 838.939 484.453 836.939 484.553C829.339 484.953 822.539 489.753 815.939 493.153C813.139 494.553 810.339 496.053 807.239 496.953C806.239 497.253 805.239 497.453 804.139 497.653C804.039 497.653 802.339 497.953 802.439 498.053C802.839 498.553 804.039 498.753 804.539 498.853C806.539 499.453 808.539 499.953 810.539 500.353C817.439 501.753 823.939 500.653 829.639 496.453C834.039 493.253 838.939 486.953 845.039 487.653" stroke="#F7F2EE" stroke-width="4" stroke-miterlimit="10" stroke-linecap="round" stroke-linejoin="round"/>
<path d="M860.438 488.753C861.238 489.253 862.738 489.053 863.538 489.153C866.238 489.353 868.938 489.353 871.638 489.253" stroke="#F7F2EE" stroke-width="4" stroke-miterlimit="10" stroke-linecap="round" stroke-linejoin="round"/>
<path d="M872.139 504.553C876.639 503.353 881.739 503.453 886.339 502.353" stroke="#F7F2EE" stroke-width="4" stroke-miterlimit="10" stroke-linecap="round" stroke-linejoin="round"/>
<path d="M890.739 487.053C891.839 487.253 893.439 486.353 894.339 486.053C897.339 484.953 900.039 483.153 903.039 481.953" stroke="#F7F2EE" stroke-width="4" stroke-miterlimit="10" stroke-linecap="round" stroke-linejoin="round"/>
<path d="M835.339 510.053C835.239 510.353 835.939 510.053 836.239 510.053C836.839 510.053 837.439 510.153 838.039 510.153C840.039 510.353 841.939 510.553 843.939 510.753" stroke="#F7F2EE" stroke-width="4" stroke-miterlimit="10" stroke-linecap="round" stroke-linejoin="round"/>
<path d="M787.939 478.653C787.839 478.553 788.339 478.753 788.439 478.853C788.839 478.953 789.239 478.953 789.639 479.053C790.839 479.253 792.039 479.553 793.239 479.853" stroke="#F7F2EE" stroke-width="4" stroke-miterlimit="10" stroke-linecap="round" stroke-linejoin="round"/>
<path opacity="0.75" fill-rule="evenodd" clip-rule="evenodd" d="M1028.14 363.753C1018.94 363.853 998.439 370.953 998.239 371.553C997.639 373.553 982.039 432.853 989.739 450.353C997.239 467.353 1011.44 463.853 1021.04 469.553C1022.84 470.653 1025.44 473.153 1026.44 475.753C1026.94 477.053 1028.44 483.153 1028.74 484.453C1030.34 491.553 1029.94 508.653 1029.74 513.253C1029.24 530.653 1026.24 548.353 1024.54 549.453C1020.64 551.953 1021.04 552.553 1026.44 558.253C1029.44 561.453 1042.34 571.953 1043.54 567.653C1043.94 566.153 1043.74 553.153 1038.44 540.753C1036.84 537.053 1045.34 537.553 1041.24 530.153C1038.44 525.053 1038.34 516.153 1038.04 505.153C1037.64 490.353 1039.74 483.653 1040.74 472.853C1041.04 469.453 1047.04 468.353 1053.34 466.253C1060.74 463.753 1069.34 459.853 1073.24 449.553C1077.94 437.353 1073.34 387.253 1068.94 372.053C1068.04 369.053 1048.54 363.553 1028.14 363.753Z" fill="#F7F2EE"/>
<path opacity="0.75" d="M1028.14 363.753C1018.94 363.853 998.439 370.953 998.239 371.553C997.639 373.553 982.039 432.853 989.739 450.353C997.239 467.353 1011.44 463.853 1021.04 469.553C1022.84 470.653 1025.44 473.153 1026.44 475.753C1026.94 477.053 1028.44 483.153 1028.74 484.453C1030.34 491.553 1029.94 508.653 1029.74 513.253C1029.24 530.653 1026.24 548.353 1024.54 549.453C1020.64 551.953 1021.04 552.553 1026.44 558.253C1029.44 561.453 1042.34 571.953 1043.54 567.653C1043.94 566.153 1043.74 553.153 1038.44 540.753C1036.84 537.053 1045.34 537.553 1041.24 530.153C1038.44 525.053 1038.34 516.153 1038.04 505.153C1037.64 490.353 1039.74 483.653 1040.74 472.853C1041.04 469.453 1047.04 468.353 1053.34 466.253C1060.74 463.753 1069.34 459.853 1073.24 449.553C1077.94 437.353 1073.34 387.253 1068.94 372.053C1068.04 369.053 1048.54 363.553 1028.14 363.753Z" stroke="#161616" stroke-width="4" stroke-miterlimit="10" stroke-linecap="round" stroke-linejoin="round"/>
<path opacity="0.75" fill-rule="evenodd" clip-rule="evenodd" d="M990.538 422.653C989.138 422.853 989.438 429.253 989.438 430.153C989.238 437.953 986.238 444.453 990.338 451.753C997.038 463.453 1019.24 466.653 1031.34 468.253C1042.74 469.753 1063.04 465.053 1070.54 455.553C1073.74 451.553 1074.44 446.353 1074.84 441.353C1074.94 439.653 1075.84 424.953 1074.84 424.253C1073.34 423.353 1069.24 425.853 1067.84 426.253C1061.84 428.253 1055.64 430.453 1049.24 430.953C1040.44 431.653 1026.44 432.853 1018.04 431.053C1008.84 429.053 1000.84 424.153 991.538 422.253" fill="#F7F2EE"/>
<path opacity="0.75" d="M990.538 422.653C989.138 422.853 989.438 429.253 989.438 430.153C989.238 437.953 986.238 444.453 990.338 451.753C997.038 463.453 1019.24 466.653 1031.34 468.253C1042.74 469.753 1063.04 465.053 1070.54 455.553C1073.74 451.553 1074.44 446.353 1074.84 441.353C1074.94 439.653 1075.84 424.953 1074.84 424.253C1073.34 423.353 1069.24 425.853 1067.84 426.253C1061.84 428.253 1055.64 430.453 1049.24 430.953C1040.44 431.653 1026.44 432.853 1018.04 431.053C1008.84 429.053 1000.84 424.153 991.538 422.253" stroke="#161616" stroke-width="4" stroke-miterlimit="10" stroke-linecap="round" stroke-linejoin="round"/>
<path fill-rule="evenodd" clip-rule="evenodd" d="M990.239 437.153C989.839 437.153 990.839 437.453 991.239 437.553C992.039 437.753 992.739 437.953 993.539 438.153C995.739 438.553 997.939 439.053 1000.24 439.053" fill="#F7F2EE"/>
<path opacity="0.7" d="M990.239 437.153C989.839 437.153 990.839 437.453 991.239 437.553C992.039 437.753 992.739 437.953 993.539 438.153C995.739 438.553 997.939 439.053 1000.24 439.053" stroke="black" stroke-width="4" stroke-miterlimit="10" stroke-linecap="round" stroke-linejoin="round"/>
<path fill-rule="evenodd" clip-rule="evenodd" d="M1008.74 452.253C1008.24 452.453 1009.74 452.453 1010.34 452.553C1011.44 452.753 1012.64 452.853 1013.74 453.053C1017.04 453.453 1020.34 453.453 1023.64 453.253" fill="#F7F2EE"/>
<path opacity="0.7" d="M1008.74 452.253C1008.24 452.453 1009.74 452.453 1010.34 452.553C1011.44 452.753 1012.64 452.853 1013.74 453.053C1017.04 453.453 1020.34 453.453 1023.64 453.253" stroke="black" stroke-width="4" stroke-miterlimit="10" stroke-linecap="round" stroke-linejoin="round"/>
<path opacity="0.75" fill-rule="evenodd" clip-rule="evenodd" d="M989.839 421.253C989.839 421.353 994.039 423.553 994.339 423.653C999.239 426.153 1004.24 428.053 1009.54 429.053C1024.04 431.753 1040.54 431.753 1055.14 429.953C1057.74 429.653 1060.34 428.953 1062.84 428.153C1064.34 427.653 1065.84 427.053 1067.24 426.553C1085.14 419.653 1051.84 420.453 1048.34 420.453C1041.54 420.353 1034.74 420.353 1028.04 420.453C1017.34 420.553 1006.54 420.453 995.839 420.953" fill="#F7F2EE"/>
<path opacity="0.75" d="M989.839 421.253C989.839 421.353 994.039 423.553 994.339 423.653C999.239 426.153 1004.24 428.053 1009.54 429.053C1024.04 431.753 1040.54 431.753 1055.14 429.953C1057.74 429.653 1060.34 428.953 1062.84 428.153C1064.34 427.653 1065.84 427.053 1067.24 426.553C1085.14 419.653 1051.84 420.453 1048.34 420.453C1041.54 420.353 1034.74 420.353 1028.04 420.453C1017.34 420.553 1006.54 420.453 995.839 420.953" stroke="black" stroke-width="4" stroke-miterlimit="10" stroke-linecap="round" stroke-linejoin="round"/>
<path fill-rule="evenodd" clip-rule="evenodd" d="M1030.74 442.053C1030.54 442.653 1033.04 438.953 1033.74 438.853C1035.74 438.553 1037.84 438.654 1039.84 439.254C1044.64 440.654 1048.24 444.654 1053.54 444.754C1055.24 444.754 1056.84 444.153 1058.44 443.653C1058.64 443.553 1060.54 442.853 1060.54 443.153C1060.24 444.653 1057.44 446.653 1056.34 447.553C1047.44 454.953 1038.14 447.953 1030.74 442.053Z" fill="#F7F2EE"/>
<path opacity="0.7" d="M1030.74 442.053C1030.54 442.653 1033.04 438.953 1033.74 438.853C1035.74 438.553 1037.84 438.654 1039.84 439.254C1044.64 440.654 1048.24 444.654 1053.54 444.754C1055.24 444.754 1056.84 444.153 1058.44 443.653C1058.64 443.553 1060.54 442.853 1060.54 443.153C1060.24 444.653 1057.44 446.653 1056.34 447.553C1047.44 454.953 1038.14 447.953 1030.74 442.053Z" stroke="black" stroke-width="4" stroke-miterlimit="10" stroke-linecap="round" stroke-linejoin="round"/>
<path opacity="0.75" d="M998.239 372.853L998.339 373.153C999.439 374.753 1026.44 379.353 1050.74 376.853C1055.54 376.353 1060.24 375.653 1064.64 374.453" stroke="black" stroke-width="4" stroke-miterlimit="10" stroke-linecap="round" stroke-linejoin="round"/>
<path opacity="0.75" fill-rule="evenodd" clip-rule="evenodd" d="M1147.54 691.853C1149.64 687.453 1098.84 824.653 1077.54 827.253C1041.34 831.653 1035.74 745.753 1031.74 726.853C1027.44 706.553 1021.44 644.053 1014.74 625.953C1012.24 619.153 1013.54 615.653 1002.94 605.953C1000.14 603.353 986.339 584.853 976.839 578.753C971.538 575.253 962.038 563.653 967.838 563.253C974.238 562.753 982.339 571.553 988.939 575.153C989.439 575.353 988.439 572.153 988.039 571.353C984.839 562.953 985.039 563.453 980.139 554.953C974.839 545.853 964.539 534.553 969.739 529.453C973.439 525.853 982.539 542.153 987.439 548.853C995.939 560.553 996.939 560.953 996.939 560.853C996.739 555.553 987.239 534.053 986.639 533.253C981.239 525.853 972.939 510.553 980.139 510.253C984.639 510.053 987.939 516.753 991.139 520.653C995.639 526.153 1000.84 537.953 1006.94 554.953C1008.04 558.153 1005.64 533.453 1009.14 523.453C1010.54 519.553 1016.64 511.053 1018.54 507.753C1023.24 499.553 1023.14 496.353 1026.14 503.553C1030.14 512.853 1026.24 516.853 1026.64 516.153C1028.34 513.153 1016.94 534.753 1021.14 547.453C1027.44 566.353 1036.84 566.953 1038.04 567.153C1042.54 567.853 1044.24 567.653 1043.64 559.053C1043.24 552.853 1037.94 543.653 1038.04 538.053C1038.14 531.553 1044.74 524.353 1046.94 531.153C1050.64 543.053 1055.54 551.653 1061.04 566.853C1063.84 574.453 1061.54 582.353 1053.34 598.653C1050.44 604.453 1046.44 612.753 1048.44 622.253C1048.74 623.853 1096.14 794.453 1068.74 769.353C1058.74 760.253 1078.74 738.253 1098.94 699.653C1115.14 668.753 1144.34 605.053 1147.34 602.353" fill="#F7F2EE"/>
<path opacity="0.75" d="M1147.54 691.853C1149.64 687.453 1098.84 824.653 1077.54 827.253C1041.34 831.653 1035.74 745.753 1031.74 726.853C1027.44 706.553 1021.44 644.053 1014.74 625.953C1012.24 619.153 1013.54 615.653 1002.94 605.953C1000.14 603.353 986.339 584.853 976.839 578.753C971.538 575.253 962.038 563.653 967.838 563.253C974.238 562.753 982.339 571.553 988.939 575.153C989.439 575.353 988.439 572.153 988.039 571.353C984.839 562.953 985.039 563.453 980.139 554.953C974.839 545.853 964.539 534.553 969.739 529.453C973.439 525.853 982.539 542.153 987.439 548.853C995.939 560.553 996.939 560.953 996.939 560.853C996.739 555.553 987.239 534.053 986.639 533.253C981.239 525.853 972.939 510.553 980.139 510.253C984.639 510.053 987.939 516.753 991.139 520.653C995.639 526.153 1000.84 537.953 1006.94 554.953C1008.04 558.153 1005.64 533.453 1009.14 523.453C1010.54 519.553 1016.64 511.053 1018.54 507.753C1023.24 499.553 1023.14 496.353 1026.14 503.553C1030.14 512.853 1026.24 516.853 1026.64 516.153C1028.34 513.153 1016.94 534.753 1021.14 547.453C1027.44 566.353 1036.84 566.953 1038.04 567.153C1042.54 567.853 1044.24 567.653 1043.64 559.053C1043.24 552.853 1037.94 543.653 1038.04 538.053C1038.14 531.553 1044.74 524.353 1046.94 531.153C1050.64 543.053 1055.54 551.653 1061.04 566.853C1063.84 574.453 1061.54 582.353 1053.34 598.653C1050.44 604.453 1046.44 612.753 1048.44 622.253C1048.74 623.853 1096.14 794.453 1068.74 769.353C1058.74 760.253 1078.74 738.253 1098.94 699.653C1115.14 668.753 1144.34 605.053 1147.34 602.353" stroke="black" stroke-width="4" stroke-miterlimit="10" stroke-linecap="round" stroke-linejoin="round"/>
<path fill-rule="evenodd" clip-rule="evenodd" d="M1053.64 635.953C1052.64 636.253 1053.54 638.154 1053.24 639.154C1052.54 642.254 1053.24 643.453 1052.24 646.353C1049.44 654.153 1046.34 660.654 1038.64 664.754C1033.04 667.754 1020.64 670.754 1019.54 662.654C1019.24 660.354 1020.24 648.354 1015.24 650.654C1005.84 655.054 1009.04 674.153 1017.04 680.553C1023.34 685.553 1037.94 678.553 1043.74 674.853C1060.24 664.253 1063.54 655.253 1066.14 640.353C1068.44 627.453 1056.34 624.154 1053.94 633.754" fill="#9AD335"/>
<path d="M1053.64 635.953C1052.64 636.253 1053.54 638.154 1053.24 639.154C1052.54 642.254 1053.24 643.453 1052.24 646.353C1049.44 654.153 1046.34 660.654 1038.64 664.754C1033.04 667.754 1020.64 670.754 1019.54 662.654C1019.24 660.354 1020.24 648.354 1015.24 650.654C1005.84 655.054 1009.04 674.153 1017.04 680.553C1023.34 685.553 1037.94 678.553 1043.74 674.853C1060.24 664.253 1063.54 655.253 1066.14 640.353C1068.44 627.453 1056.34 624.154 1053.94 633.754" stroke="#161616" stroke-width="4" stroke-miterlimit="10" stroke-linecap="round" stroke-linejoin="round"/>
<path fill-rule="evenodd" clip-rule="evenodd" d="M1058.94 672.653C1057.94 672.953 1058.84 674.853 1058.54 675.853C1057.84 678.853 1058.54 680.053 1057.54 683.053C1054.74 690.753 1051.64 697.253 1043.94 701.253C1038.34 704.153 1025.94 707.253 1024.84 699.253C1024.54 696.953 1025.54 685.053 1020.54 687.353C1011.14 691.753 1014.34 710.653 1022.34 716.953C1028.64 721.853 1043.24 714.953 1049.04 711.253C1065.54 700.753 1068.84 691.753 1071.44 677.053C1073.74 664.253 1061.64 660.953 1059.24 670.553" fill="#9AD335"/>
<path d="M1058.94 672.653C1057.94 672.953 1058.84 674.853 1058.54 675.853C1057.84 678.853 1058.54 680.053 1057.54 683.053C1054.74 690.753 1051.64 697.253 1043.94 701.253C1038.34 704.153 1025.94 707.253 1024.84 699.253C1024.54 696.953 1025.54 685.053 1020.54 687.353C1011.14 691.753 1014.34 710.653 1022.34 716.953C1028.64 721.853 1043.24 714.953 1049.04 711.253C1065.54 700.753 1068.84 691.753 1071.44 677.053C1073.74 664.253 1061.64 660.953 1059.24 670.553" stroke="#161616" stroke-width="4" stroke-miterlimit="10" stroke-linecap="round" stroke-linejoin="round"/>
<path fill-rule="evenodd" clip-rule="evenodd" d="M618.039 311.053C618.639 308.453 617.439 316.353 616.939 319.053C615.939 324.053 614.739 329.053 613.439 333.953C611.939 339.853 594.239 393.054 589.739 395.254C588.539 395.854 587.239 392.153 586.939 391.553C581.039 381.653 565.439 374.353 555.639 383.453C549.639 389.053 549.839 398.953 550.639 406.553C551.639 416.353 557.439 420.854 561.439 428.754C562.339 430.554 558.839 438.154 558.639 440.154C556.239 477.754 548.239 514.354 518.039 539.654C431.139 612.154 307.339 666.053 351.039 806.654C362.539 843.654 395.639 891.153 420.239 937.553C439.739 974.353 453.939 1010.55 447.739 1040.35C443.939 1059.05 431.239 1077.45 417.139 1089.55C397.239 1106.75 369.139 1132.25 355.739 1159.25C336.239 1198.65 338.239 1240.95 354.039 1290.65C355.439 1295.15 361.139 1313.65 366.639 1315.65C367.239 1315.85 378.539 1289.05 379.939 1287.15C398.239 1261.25 421.639 1241.45 447.939 1224.15C475.639 1205.95 509.539 1200.95 537.639 1183.85C608.039 1141.05 630.339 1136.75 667.339 1060.95C679.339 1036.45 673.639 964.554 674.239 937.254C674.439 930.654 674.239 922.653 673.939 913.853C672.439 869.953 667.039 805.453 674.239 791.053C674.339 790.853 718.239 891.753 711.639 879.853C708.339 873.853 751.439 987.954 777.439 993.254C818.139 1001.55 846.239 892.653 852.639 866.853C859.439 839.053 868.839 754.753 879.439 729.953C883.439 720.553 881.439 715.853 898.239 702.553C902.739 698.953 924.739 673.654 939.739 665.254C948.239 660.454 963.339 644.653 954.039 643.953C943.839 643.253 931.039 655.354 920.439 660.254C919.739 660.554 921.339 656.153 921.839 654.953C926.939 643.453 926.739 644.053 934.439 632.453C942.839 619.953 959.239 604.453 950.939 597.453C945.039 592.453 930.539 614.853 922.739 624.053C909.139 640.053 907.539 640.553 907.539 640.453C907.839 633.153 923.039 603.654 923.939 602.654C932.539 592.453 945.839 571.553 934.339 571.154C927.239 570.953 921.839 580.053 916.739 585.453C909.639 592.953 901.239 609.253 891.539 632.453C889.739 636.753 893.639 602.953 888.039 589.353C885.839 584.053 876.139 572.353 873.139 567.853C865.639 556.653 859.639 550.053 854.739 559.953C848.439 572.653 860.739 580.253 860.039 579.353C857.239 575.253 875.539 604.754 868.839 622.154C858.839 648.053 843.839 648.854 841.839 649.154C834.739 650.154 832.039 649.854 832.939 638.154C833.639 629.654 842.039 617.053 841.839 609.353C841.739 600.553 831.139 590.553 827.739 599.853C821.739 616.153 814.039 627.954 805.239 648.754C800.839 659.254 804.439 669.954 817.439 692.254C822.039 700.154 828.439 711.553 825.239 724.654C824.839 726.354 807.439 855.554 785.639 890.754C776.739 905.154 767.639 931.353 785.739 930.353C800.339 929.553 788.339 896.253 775.239 853.353C755.339 788.453 723.839 696.453 707.739 672.154C679.439 629.354 629.439 648.053 590.039 596.953C579.939 583.753 570.439 567.453 570.139 550.353C570.039 541.653 577.839 483.954 583.539 478.254C584.839 476.954 588.939 480.253 590.939 479.353C600.339 475.153 609.339 458.054 613.239 449.254C623.739 425.854 639.839 333.153 620.239 312.353" fill="#F7F2EE"/>
<path d="M618.039 311.053C618.639 308.453 617.439 316.353 616.939 319.053C615.939 324.053 614.739 329.053 613.439 333.953C611.939 339.853 594.239 393.054 589.739 395.254C588.539 395.854 587.239 392.153 586.939 391.553C581.039 381.653 565.439 374.353 555.639 383.453C549.639 389.053 549.839 398.953 550.639 406.553C551.639 416.353 557.439 420.854 561.439 428.754C562.339 430.554 558.839 438.154 558.639 440.154C556.239 477.754 548.239 514.354 518.039 539.654C431.139 612.154 307.339 666.053 351.039 806.654C362.539 843.654 395.639 891.153 420.239 937.553C439.739 974.353 453.939 1010.55 447.739 1040.35C443.939 1059.05 431.239 1077.45 417.139 1089.55C397.239 1106.75 369.139 1132.25 355.739 1159.25C336.239 1198.65 338.239 1240.95 354.039 1290.65C355.439 1295.15 361.139 1313.65 366.639 1315.65C367.239 1315.85 378.539 1289.05 379.939 1287.15C398.239 1261.25 421.639 1241.45 447.939 1224.15C475.639 1205.95 509.539 1200.95 537.639 1183.85C608.039 1141.05 630.339 1136.75 667.339 1060.95C679.339 1036.45 673.639 964.554 674.239 937.254C674.439 930.654 674.239 922.653 673.939 913.853C672.439 869.953 667.039 805.453 674.239 791.053C674.339 790.853 718.239 891.753 711.639 879.853C708.339 873.853 751.439 987.954 777.439 993.254C818.139 1001.55 846.239 892.653 852.639 866.853C859.439 839.053 868.839 754.753 879.439 729.953C883.439 720.553 881.439 715.853 898.239 702.553C902.739 698.953 924.739 673.654 939.739 665.254C948.239 660.454 963.339 644.653 954.039 643.953C943.839 643.253 931.039 655.354 920.439 660.254C919.739 660.554 921.339 656.153 921.839 654.953C926.939 643.453 926.739 644.053 934.439 632.453C942.839 619.953 959.239 604.453 950.939 597.453C945.039 592.453 930.539 614.853 922.739 624.053C909.139 640.053 907.539 640.553 907.539 640.453C907.839 633.153 923.039 603.654 923.939 602.654C932.539 592.454 945.839 571.554 934.339 571.154C927.239 570.954 921.839 580.053 916.739 585.453C909.639 592.953 901.239 609.253 891.539 632.453C889.739 636.753 893.639 602.953 888.039 589.353C885.839 584.053 876.139 572.353 873.139 567.853C865.639 556.653 859.639 550.053 854.739 559.953C848.439 572.653 860.739 580.253 860.039 579.353C857.239 575.253 875.539 604.754 868.839 622.154C858.839 648.054 843.839 648.854 841.839 649.154C834.739 650.154 832.039 649.854 832.939 638.154C833.639 629.654 842.039 617.053 841.839 609.353C841.739 600.553 831.139 590.553 827.739 599.853C821.739 616.153 814.039 627.954 805.239 648.754C800.839 659.254 804.439 669.954 817.439 692.254C822.039 700.154 828.439 711.554 825.239 724.654C824.839 726.354 807.439 855.554 785.639 890.754C776.739 905.154 767.639 931.353 785.739 930.353C800.339 929.553 788.339 896.253 775.239 853.353C755.339 788.453 723.839 696.454 707.739 672.154C679.439 629.354 629.439 648.053 590.039 596.953C579.939 583.753 570.439 567.453 570.139 550.353C570.039 541.653 577.839 483.954 583.539 478.254C584.839 476.954 588.939 480.253 590.939 479.353C600.339 475.153 609.339 458.054 613.239 449.254C623.739 425.854 639.839 333.153 620.239 312.353" stroke="black" stroke-width="8" stroke-miterlimit="10" stroke-linecap="round" stroke-linejoin="round"/>
<path fill-rule="evenodd" clip-rule="evenodd" d="M821.139 734.353C822.539 734.753 821.339 737.253 821.639 738.753C822.739 742.853 821.639 744.553 823.139 748.553C827.139 759.153 831.639 767.953 842.639 773.553C850.639 777.553 868.439 781.753 870.039 770.753C870.539 767.653 869.039 751.253 876.239 754.453C889.839 760.453 885.139 786.353 873.639 794.953C864.639 801.753 843.539 792.253 835.339 787.153C811.639 772.753 806.939 760.553 803.139 740.353C799.839 722.853 817.239 718.353 820.739 731.353" fill="#F7F2EE"/>
<path d="M821.139 734.353C822.539 734.753 821.339 737.253 821.639 738.753C822.739 742.853 821.639 744.553 823.139 748.553C827.139 759.153 831.639 767.953 842.639 773.553C850.639 777.553 868.439 781.753 870.039 770.753C870.539 767.653 869.039 751.253 876.239 754.453C889.839 760.453 885.139 786.353 873.639 794.953C864.639 801.753 843.539 792.253 835.339 787.153C811.639 772.753 806.939 760.553 803.139 740.353C799.839 722.853 817.239 718.353 820.739 731.353" stroke="#161616" stroke-width="8" stroke-miterlimit="10" stroke-linecap="round" stroke-linejoin="round"/>
<path fill-rule="evenodd" clip-rule="evenodd" d="M809.838 771.053C811.238 771.453 810.038 773.953 810.338 775.453C811.438 779.553 810.338 781.253 811.838 785.253C815.838 795.853 820.338 804.653 831.338 810.253C839.338 814.253 854.038 817.453 858.738 807.453C861.038 802.653 859.938 793.253 867.138 796.453C880.738 802.453 873.838 823.053 862.338 831.653C853.338 838.453 832.238 828.953 824.038 823.853C800.338 809.453 795.638 797.253 791.838 777.053C788.538 759.553 805.938 755.053 809.438 768.053" fill="#F7F2EE"/>
<path d="M809.838 771.053C811.238 771.453 810.038 773.953 810.338 775.453C811.438 779.553 810.338 781.253 811.838 785.253C815.838 795.853 820.338 804.653 831.338 810.253C839.338 814.253 854.038 817.453 858.738 807.453C861.038 802.653 859.938 793.253 867.138 796.453C880.738 802.453 873.838 823.053 862.338 831.653C853.338 838.453 832.238 828.953 824.038 823.853C800.338 809.453 795.638 797.253 791.838 777.053C788.538 759.553 805.938 755.053 809.438 768.053" stroke="#161616" stroke-width="8" stroke-miterlimit="10" stroke-linecap="round" stroke-linejoin="round"/>
<path fill-rule="evenodd" clip-rule="evenodd" d="M618.738 305.953C622.538 307.253 700.138 290.153 658.038 227.453C625.438 178.853 585.638 231.253 562.738 203.053C515.738 145.153 407.938 199.453 387.138 242.753C351.538 317.053 416.638 378.553 384.838 454.153C350.338 536.153 241.238 535.553 203.638 612.053C159.638 701.653 237.238 724.253 256.838 790.053C269.538 832.553 221.038 860.553 229.338 901.653C244.638 977.353 372.138 947.653 413.138 984.553C438.038 1006.95 426.838 1075.25 428.538 1074.35C471.838 1050.35 481.438 1000.45 483.038 988.053C488.538 943.153 450.638 912.353 435.938 894.753C386.038 835.053 348.938 767.953 368.838 690.453C387.938 616.053 492.038 602.953 540.138 541.553C557.438 519.453 575.839 445.353 569.839 421.053C566.138 406.253 546.839 408.253 554.339 386.953C561.638 366.553 579.738 375.853 586.439 390.053C586.839 390.953 587.639 392.553 588.939 392.053C590.839 391.253 608.339 373.753 615.939 351.353C622.139 333.353 618.738 310.253 618.738 305.953Z" fill="#5733CC"/>
<path d="M618.738 305.953C622.538 307.253 700.138 290.153 658.038 227.453C625.438 178.853 585.638 231.253 562.738 203.053C515.738 145.153 407.938 199.453 387.138 242.753C351.538 317.053 416.638 378.553 384.838 454.153C350.338 536.153 241.238 535.553 203.638 612.053C159.638 701.653 237.238 724.253 256.838 790.053C269.538 832.553 221.038 860.553 229.338 901.653C244.638 977.353 372.138 947.653 413.138 984.553C438.038 1006.95 426.838 1075.25 428.538 1074.35C471.838 1050.35 481.438 1000.45 483.038 988.053C488.538 943.153 450.638 912.353 435.938 894.753C386.038 835.053 348.938 767.953 368.838 690.453C387.938 616.053 492.038 602.953 540.138 541.553C557.438 519.453 575.839 445.353 569.839 421.053C566.139 406.253 546.839 408.253 554.339 386.953C561.639 366.553 579.739 375.853 586.439 390.053C586.839 390.953 587.639 392.553 588.939 392.053C590.839 391.253 608.339 373.753 615.939 351.353C622.139 333.353 618.738 310.253 618.738 305.953Z" stroke="black" stroke-width="8" stroke-miterlimit="10" stroke-linecap="round" stroke-linejoin="round"/>
<path d="M614.039 303.053C568.339 285.053 617.339 204.553 605.739 247.053C591.639 298.653 485.139 182.353 453.339 252.153C448.939 261.753 449.339 274.353 455.439 283.153C480.739 319.853 521.939 257.453 487.339 263.353C462.239 267.653 524.039 314.553 533.939 255.653C535.639 245.653 534.139 234.653 527.839 226.453C487.239 173.853 389.139 256.653 417.939 318.053C453.439 393.853 527.739 310.153 498.439 306.653C479.339 304.453 472.939 333.453 495.339 335.353C506.239 336.353 557.439 318.753 560.739 333.953C567.839 366.553 391.239 372.353 437.439 467.653C444.939 483.153 459.439 493.053 476.639 494.153C565.439 499.753 524.039 366.553 471.239 411.153C421.439 453.153 568.339 455.953 536.339 512.453C511.239 556.853 455.439 525.453 482.039 517.853C484.439 517.153 487.439 517.553 489.039 519.553C512.239 547.553 374.639 583.953 389.139 500.653C391.939 484.453 402.139 466.553 416.539 457.953C424.139 453.453 435.539 450.753 442.539 457.753C447.939 463.153 447.739 471.853 445.939 478.753C432.539 530.853 270.939 555.953 316.139 618.453C347.139 661.253 389.839 590.553 358.739 584.753C350.739 583.253 344.339 590.453 344.639 598.053C345.439 622.453 366.539 568.853 330.639 562.953C264.239 552.053 203.239 670.453 271.039 704.053C316.339 726.453 321.239 643.753 271.539 656.353C260.539 659.153 251.439 669.153 247.839 679.653C229.039 735.153 375.339 768.953 335.639 810.153C313.139 833.453 272.539 753.553 315.639 731.553C321.339 728.653 328.139 729.753 332.539 734.353C337.439 739.453 338.439 746.653 337.639 753.353C337.039 757.853 335.739 762.253 334.239 766.553C318.339 810.753 264.339 897.053 323.239 933.653C333.739 940.153 346.039 939.453 357.639 932.853C376.039 922.353 367.439 890.953 347.139 876.253C318.139 855.353 275.039 845.153 267.739 870.653C245.439 949.253 437.839 892.953 431.139 955.253M431.139 955.253C430.539 960.753 435.939 953.453 431.139 955.253ZM431.139 955.253C391.839 969.953 360.139 893.053 402.639 899.353C467.639 909.053 440.839 970.153 463.439 1004.95C464.539 1006.65 474.139 1017.55 473.239 1017.65" stroke="#F7F2EE" stroke-width="4" stroke-miterlimit="10" stroke-linecap="round" stroke-linejoin="round"/>
<path d="M493.039 757.453C490.939 781.953 493.039 791.853 494.139 801.853C496.639 824.253 506.739 845.253 514.239 866.553C535.139 926.553 562.439 1004.45 528.139 1062.25C516.039 1082.65 509.239 1079.55 497.339 1099.45" stroke="black" stroke-width="8" stroke-miterlimit="10" stroke-linecap="round" stroke-linejoin="round"/>
<path fill-rule="evenodd" clip-rule="evenodd" d="M698.539 970.053C696.739 971.753 655.639 1088.65 657.739 1090.15C662.439 1093.25 662.239 1100.55 660.439 1114.35C655.339 1153.55 681.039 1175.35 661.439 1210.85C620.739 1284.45 478.839 1260.85 483.239 1376.35C483.339 1379.75 481.339 1392.35 486.039 1391.25C495.539 1388.95 497.939 1361.85 508.039 1346.35C514.839 1335.85 532.139 1327.55 542.839 1323.25C578.439 1309.05 740.339 1363.65 808.539 1297.15C879.339 1228.05 891.039 1090.95 818.839 1024.35C788.738 996.353 736.839 979.353 698.539 970.053Z" fill="#5733CC"/>
<path d="M698.539 970.053C696.739 971.753 655.639 1088.65 657.739 1090.15C662.439 1093.25 662.239 1100.55 660.439 1114.35C655.339 1153.55 681.039 1175.35 661.439 1210.85C620.739 1284.45 478.839 1260.85 483.239 1376.35C483.339 1379.75 481.339 1392.35 486.039 1391.25C495.539 1388.95 497.939 1361.85 508.039 1346.35C514.839 1335.85 532.139 1327.55 542.839 1323.25C578.439 1309.05 740.339 1363.65 808.539 1297.15C879.339 1228.05 891.038 1090.95 818.839 1024.35C788.739 996.353 736.839 979.353 698.539 970.053Z" stroke="black" stroke-width="8" stroke-miterlimit="10" stroke-linecap="round" stroke-linejoin="round"/>
<path d="M708.539 994.254C704.839 992.654 716.039 990.953 720.039 990.553C728.439 989.553 737.039 991.653 744.539 995.553C765.539 1006.45 778.939 1028.25 779.239 1051.95C779.339 1063.05 767.339 1106.25 747.839 1090.75C732.339 1078.45 754.539 1048.05 766.339 1067.05C776.139 1082.75 747.739 1129.55 755.639 1155.65C766.839 1193.05 817.339 1184.05 836.239 1158.55C864.239 1120.65 828.339 1081.25 794.239 1116.05C749.139 1162.05 854.839 1221.45 789.539 1245.35C777.439 1249.75 763.039 1249.15 751.939 1242.05C736.839 1232.45 750.239 1211.65 756.639 1222.95C766.039 1239.55 731.239 1256.15 724.039 1238.35C708.739 1200.05 807.339 1195.55 771.339 1264.45C735.739 1332.55 637.439 1244.75 618.739 1304.05" stroke="#F7F2EE" stroke-width="4" stroke-miterlimit="10" stroke-linecap="round" stroke-linejoin="round"/>
<path fill-rule="evenodd" clip-rule="evenodd" d="M674.339 834.353C672.639 844.453 672.239 991.653 659.639 1026.25C616.639 1143.95 577.839 1165.15 509.039 1177.05C476.639 1182.65 447.239 1185.15 420.239 1207.75C406.639 1219.15 394.339 1232.05 384.939 1246.05C361.739 1280.65 362.039 1300.25 363.239 1316.45C366.139 1355.35 456.839 1386.45 485.839 1391.15C486.639 1391.25 484.439 1383.25 484.339 1382.35C481.839 1359.75 486.439 1337.35 501.439 1319.45C550.239 1261.05 571.539 1285.15 640.139 1261.65C701.439 1240.75 714.039 1164.65 720.439 1119.95C724.539 1090.95 724.439 1018.95 716.639 976.653C712.439 954.053 678.039 834.353 674.339 834.353Z" fill="#F7F2EE"/>
<path d="M674.339 834.353C672.639 844.453 672.239 991.653 659.639 1026.25C616.639 1143.95 577.839 1165.15 509.039 1177.05C476.639 1182.65 447.239 1185.15 420.239 1207.75C406.639 1219.15 394.339 1232.05 384.939 1246.05C361.739 1280.65 362.039 1300.25 363.239 1316.45C366.139 1355.35 456.839 1386.45 485.839 1391.15C486.639 1391.25 484.439 1383.25 484.339 1382.35C481.839 1359.75 486.439 1337.35 501.439 1319.45C550.239 1261.05 571.539 1285.15 640.139 1261.65C701.439 1240.75 714.039 1164.65 720.439 1119.95C724.539 1090.95 724.439 1018.95 716.639 976.653C712.439 954.053 678.039 834.353 674.339 834.353Z" stroke="black" stroke-width="8" stroke-miterlimit="10" stroke-linecap="round" stroke-linejoin="round"/>
<path d="M682.338 982.453C682.838 1048.25 665.638 1085.35 648.638 1116.15C621.738 1165.05 580.238 1191.95 526.538 1204.65C509.238 1208.75 487.138 1211.65 472.938 1223.15" stroke="black" stroke-width="4" stroke-miterlimit="10" stroke-linecap="round" stroke-linejoin="round"/>
<path d="M708.039 1058.35C707.339 1073.55 697.839 1131.75 693.739 1146.35C680.739 1192.55 655.539 1235.35 607.139 1250.45" stroke="black" stroke-width="4" stroke-miterlimit="10" stroke-linecap="round" stroke-linejoin="round"/>
<path d="M679.039 873.453C702.139 998.253 699.939 1055.85 682.339 1126.25C674.039 1159.45 617.939 1200.95 607.139 1208.75" stroke="black" stroke-width="4" stroke-miterlimit="10" stroke-linecap="round" stroke-linejoin="round"/>
<path d="M477.539 1253.35C495.139 1235.85 556.639 1246.85 580.039 1249.35" stroke="black" stroke-width="4" stroke-miterlimit="10" stroke-linecap="round" stroke-linejoin="round"/>
<path d="M434.339 1350.95C427.139 1343.45 428.139 1322.05 428.939 1312.55C431.639 1279.25 455.739 1249.55 484.939 1234.85C498.039 1228.25 512.839 1226.45 525.539 1219.05" stroke="black" stroke-width="4" stroke-miterlimit="10" stroke-linecap="round" stroke-linejoin="round"/>
<path d="M997.139 1167.75C997.239 1167.75 997.439 1167.55 997.539 1167.55C1009.84 1160.45 1035.94 1158.35 1051.14 1156.85C1092.14 1152.65 1137.04 1152.85 1177.24 1160.55C1193.54 1163.65 1211.54 1168.95 1224.44 1176.75C1273.84 1206.55 1269.54 1273.55 1226.14 1292.95C1197.14 1305.95 1128.44 1313.95 1086.24 1295.25C1053.74 1280.85 1028.24 1286.25 1009.84 1289.75C950.939 1300.85 934.739 1236.25 962.139 1199.75C968.139 1191.75 973.739 1183.15 984.239 1177.25" stroke="black" stroke-width="8" stroke-miterlimit="10" stroke-linecap="round" stroke-linejoin="round"/>
<path fill-rule="evenodd" clip-rule="evenodd" d="M1069.14 1155.15C1078.34 1167.45 1066.74 1227.15 1074.44 1225.55C1080.94 1224.25 1080.74 1198.35 1083.54 1193.25C1083.84 1192.65 1085.94 1188.65 1088.34 1189.15C1092.94 1190.15 1094.64 1219.75 1097.14 1224.45C1097.54 1225.25 1098.64 1227.55 1101.14 1226.95C1110.54 1224.85 1104.34 1171.85 1113.24 1171.15C1116.34 1170.95 1115.64 1215.65 1120.44 1223.25C1124.64 1229.85 1133.44 1201.45 1134.74 1192.95C1136.14 1183.85 1141.64 1217.75 1150.24 1225.35C1150.64 1225.75 1152.44 1200.65 1154.04 1193.55C1162.64 1154.55 1140.74 1142.65 1069.14 1155.15Z" fill="black"/>
<path d="M1069.14 1155.15C1078.34 1167.45 1066.74 1227.15 1074.44 1225.55C1080.94 1224.25 1080.74 1198.35 1083.54 1193.25C1083.84 1192.65 1085.94 1188.65 1088.34 1189.15C1092.94 1190.15 1094.64 1219.75 1097.14 1224.45C1097.54 1225.25 1098.64 1227.55 1101.14 1226.95C1110.54 1224.85 1104.34 1171.85 1113.24 1171.15C1116.34 1170.95 1115.64 1215.65 1120.44 1223.25C1124.64 1229.85 1133.44 1201.45 1134.74 1192.95C1136.14 1183.85 1141.64 1217.75 1150.24 1225.35C1150.64 1225.75 1152.44 1200.65 1154.04 1193.55C1162.64 1154.55 1140.74 1142.65 1069.14 1155.15Z" stroke="black" stroke-width="4" stroke-miterlimit="10" stroke-linecap="round" stroke-linejoin="round"/>
<path fill-rule="evenodd" clip-rule="evenodd" d="M1159.14 1177.45C1157.84 1176.35 1164.44 1195.45 1171.04 1199.65C1179.64 1205.15 1190.24 1201.35 1199.44 1205.25C1207.64 1208.65 1211.74 1217.75 1219.94 1221.05C1231.14 1225.65 1238.34 1206.15 1247.74 1202.65C1270.74 1194.05 1308.94 1213.15 1310.44 1170.65C1310.94 1157.85 1285.04 1169.55 1278.24 1167.95C1268.94 1165.75 1261.74 1157.85 1252.14 1156.85C1239.24 1155.45 1227.04 1167.25 1214.64 1169.85C1199.24 1173.05 1183.34 1169.35 1168.14 1173.85" fill="#F7F2EE"/>
<path d="M1159.14 1177.45C1157.84 1176.35 1164.44 1195.45 1171.04 1199.65C1179.64 1205.15 1190.24 1201.35 1199.44 1205.25C1207.64 1208.65 1211.74 1217.75 1219.94 1221.05C1231.14 1225.65 1238.34 1206.15 1247.74 1202.65C1270.74 1194.05 1308.94 1213.15 1310.44 1170.65C1310.94 1157.85 1285.04 1169.55 1278.24 1167.95C1268.94 1165.75 1261.74 1157.85 1252.14 1156.85C1239.24 1155.45 1227.04 1167.25 1214.64 1169.85C1199.24 1173.05 1183.34 1169.35 1168.14 1173.85" stroke="black" stroke-width="4" stroke-miterlimit="10" stroke-linecap="round" stroke-linejoin="round"/>
<path fill-rule="evenodd" clip-rule="evenodd" d="M1142.04 1176.65C1141.84 1177.25 1193.64 1177.55 1189.74 1151.85C1188.14 1141.45 1186.04 1128.25 1177.74 1121.05C1173.74 1117.55 1168.04 1115.35 1162.64 1115.25C1151.94 1115.05 1142.94 1123.15 1132.24 1123.75C1119.94 1124.35 1104.14 1111.95 1092.84 1119.25C1075.54 1130.35 1100.64 1139.85 1107.74 1147.05C1120.94 1160.65 1121.54 1171.55 1142.04 1176.65Z" fill="#F7F2EE"/>
<path d="M1142.04 1176.65C1141.84 1177.25 1193.64 1177.55 1189.74 1151.85C1188.14 1141.45 1186.04 1128.25 1177.74 1121.05C1173.74 1117.55 1168.04 1115.35 1162.64 1115.25C1151.94 1115.05 1142.94 1123.15 1132.24 1123.75C1119.94 1124.35 1104.14 1111.95 1092.84 1119.25C1075.54 1130.35 1100.64 1139.85 1107.74 1147.05C1120.94 1160.65 1121.54 1171.55 1142.04 1176.65Z" stroke="black" stroke-width="4" stroke-miterlimit="10" stroke-linecap="round" stroke-linejoin="round"/>
<path fill-rule="evenodd" clip-rule="evenodd" d="M1184.14 1129.05C1178.24 1113.15 1171.84 1101.35 1171.74 1100.75C1170.94 1092.95 1172.14 1082.85 1178.34 1077.05C1184.94 1070.85 1195.74 1074.05 1203.34 1069.75C1210.04 1065.95 1212.94 1055.85 1220.34 1053.65C1226.54 1051.75 1229.74 1068.65 1236.44 1068.25C1240.94 1067.95 1252.74 1057.15 1256.54 1058.15C1260.34 1059.25 1256.34 1077.15 1258.34 1082.35C1264.04 1097.25 1282.54 1103.85 1275.64 1122.45C1272.54 1130.75 1265.24 1137.45 1259.24 1144.05C1258.74 1144.55 1241.44 1158.65 1240.94 1157.55" fill="#F7F2EE"/>
<path d="M1184.14 1129.05C1178.24 1113.15 1171.84 1101.35 1171.74 1100.75C1170.94 1092.95 1172.14 1082.85 1178.34 1077.05C1184.94 1070.85 1195.74 1074.05 1203.34 1069.75C1210.04 1065.95 1212.94 1055.85 1220.34 1053.65C1226.54 1051.75 1229.74 1068.65 1236.44 1068.25C1240.94 1067.95 1252.74 1057.15 1256.54 1058.15C1260.34 1059.25 1256.34 1077.15 1258.34 1082.35C1264.04 1097.25 1282.54 1103.85 1275.64 1122.45C1272.54 1130.75 1265.24 1137.45 1259.24 1144.05C1258.74 1144.55 1241.44 1158.65 1240.94 1157.55" stroke="black" stroke-width="4" stroke-miterlimit="10" stroke-linecap="round" stroke-linejoin="round"/>
<path fill-rule="evenodd" clip-rule="evenodd" d="M1214.94 1138.05L1215.54 1136.55C1215.94 1135.35 1216.34 1134.15 1216.64 1132.85C1217.64 1129.05 1218.44 1125.25 1219.14 1121.35C1221.24 1110.05 1222.24 1095.85 1216.64 1085.35" fill="#F7F2EE"/>
<path d="M1214.94 1138.05L1215.54 1136.55C1215.94 1135.35 1216.34 1134.15 1216.64 1132.85C1217.64 1129.05 1218.44 1125.25 1219.14 1121.35C1221.24 1110.05 1222.24 1095.85 1216.64 1085.35" stroke="black" stroke-width="4" stroke-miterlimit="10" stroke-linecap="round" stroke-linejoin="round"/>
<path fill-rule="evenodd" clip-rule="evenodd" d="M1216.84 1131.75C1217.74 1130.35 1217.94 1127.45 1218.44 1125.75C1219.94 1121.25 1221.64 1116.75 1223.64 1112.55C1228.44 1102.45 1235.34 1095.05 1242.84 1087.05" fill="#F7F2EE"/>
<path d="M1216.84 1131.75C1217.74 1130.35 1217.94 1127.45 1218.44 1125.75C1219.94 1121.25 1221.64 1116.75 1223.64 1112.55C1228.44 1102.45 1235.34 1095.05 1242.84 1087.05" stroke="black" stroke-width="4" stroke-miterlimit="10" stroke-linecap="round" stroke-linejoin="round"/>
<path fill-rule="evenodd" clip-rule="evenodd" d="M1185.84 1157.85C1178.04 1153.85 1171.04 1149.55 1162.34 1147.35C1151.94 1144.65 1141.24 1144.75 1131.24 1140.15" fill="#F7F2EE"/>
<path d="M1185.84 1157.85C1178.04 1153.85 1171.04 1149.55 1162.34 1147.35C1151.94 1144.65 1141.24 1144.75 1131.24 1140.15" stroke="black" stroke-width="4" stroke-miterlimit="10" stroke-linecap="round" stroke-linejoin="round"/>
<path fill-rule="evenodd" clip-rule="evenodd" d="M1209.44 1172.45C1209.14 1172.75 1210.74 1174.15 1210.84 1174.35C1212.54 1176.35 1213.84 1178.75 1215.14 1180.95C1218.84 1187.35 1222.94 1194.75 1222.44 1202.45" fill="#F7F2EE"/>
<path d="M1209.44 1172.45C1209.14 1172.75 1210.74 1174.15 1210.84 1174.35C1212.54 1176.35 1213.84 1178.75 1215.14 1180.95C1218.84 1187.35 1222.94 1194.75 1222.44 1202.45" stroke="black" stroke-width="4" stroke-miterlimit="10" stroke-linecap="round" stroke-linejoin="round"/>
<path fill-rule="evenodd" clip-rule="evenodd" d="M1211.64 1173.15C1213.84 1173.35 1218.54 1171.25 1220.94 1170.95C1228.14 1170.05 1235.34 1170.05 1242.34 1171.95C1249.24 1173.85 1255.04 1177.65 1261.24 1180.95C1264.14 1182.45 1267.64 1184.65 1271.04 1184.25" fill="#F7F2EE"/>
<path d="M1211.64 1173.15C1213.84 1173.35 1218.54 1171.25 1220.94 1170.95C1228.14 1170.05 1235.34 1170.05 1242.34 1171.95C1249.24 1173.85 1255.04 1177.65 1261.24 1180.95C1264.14 1182.45 1267.64 1184.65 1271.04 1184.25" stroke="black" stroke-width="4" stroke-miterlimit="10" stroke-linecap="round" stroke-linejoin="round"/>
<path fill-rule="evenodd" clip-rule="evenodd" d="M1217.94 1165.55C1217.84 1165.55 1191.64 1170.65 1191.74 1170.55C1194.94 1160.95 1192.84 1150.85 1197.14 1141.25C1197.44 1140.65 1198.14 1138.95 1199.34 1139.05C1204.04 1139.55 1198.64 1162.55 1197.94 1166.05C1197.84 1166.25 1197.24 1168.55 1197.74 1168.65C1198.04 1168.75 1199.64 1165.15 1199.84 1164.95C1201.64 1161.45 1212.84 1139.25 1216.64 1139.25C1221.94 1139.35 1210.64 1159.85 1212.84 1161.65C1214.44 1162.95 1215.74 1158.55 1217.24 1157.05C1219.24 1155.05 1230.94 1141.75 1235.04 1143.95C1241.74 1147.75 1221.04 1163.65 1217.94 1165.55Z" fill="#F7F2EE"/>
<path d="M1217.94 1165.55C1217.84 1165.55 1191.64 1170.65 1191.74 1170.55C1194.94 1160.95 1192.84 1150.85 1197.14 1141.25C1197.44 1140.65 1198.14 1138.95 1199.34 1139.05C1204.04 1139.55 1198.64 1162.55 1197.94 1166.05C1197.84 1166.25 1197.24 1168.55 1197.74 1168.65C1198.04 1168.75 1199.64 1165.15 1199.84 1164.95C1201.64 1161.45 1212.84 1139.25 1216.64 1139.25C1221.94 1139.35 1210.64 1159.85 1212.84 1161.65C1214.44 1162.95 1215.74 1158.55 1217.24 1157.05C1219.24 1155.05 1230.94 1141.75 1235.04 1143.95C1241.74 1147.75 1221.04 1163.65 1217.94 1165.55Z" stroke="black" stroke-width="4" stroke-miterlimit="10" stroke-linecap="round" stroke-linejoin="round"/>
<path fill-rule="evenodd" clip-rule="evenodd" d="M865.038 1220.35C865.938 1219.65 862.838 1220.35 861.738 1220.55C859.838 1220.85 857.838 1221.25 855.938 1221.75C850.338 1223.45 844.938 1226.15 839.838 1229.35C824.538 1239.15 812.338 1259.85 822.038 1279.55C831.238 1298.15 874.838 1301.85 908.338 1298.55C915.538 1297.85 922.938 1296.95 928.938 1295.55C935.138 1294.05 939.838 1292.05 941.638 1288.95C970.538 1238.85 879.038 1234.65 869.038 1245.75C852.838 1263.65 865.038 1242.45 882.938 1241.25C885.938 1241.05 879.138 1239.65 880.038 1236.45C883.538 1224.05 874.038 1231.85 867.438 1226.45" fill="#F7F2EE"/>
<path d="M865.038 1220.35C865.938 1219.65 862.838 1220.35 861.738 1220.55C859.838 1220.85 857.838 1221.25 855.938 1221.75C850.338 1223.45 844.938 1226.15 839.838 1229.35C824.538 1239.15 812.338 1259.85 822.038 1279.55C831.238 1298.15 874.838 1301.85 908.338 1298.55C915.538 1297.85 922.938 1296.95 928.938 1295.55C935.138 1294.05 939.838 1292.05 941.638 1288.95C970.538 1238.85 879.038 1234.65 869.038 1245.75C852.838 1263.65 865.038 1242.45 882.938 1241.25C885.938 1241.05 879.138 1239.65 880.038 1236.45C883.538 1224.05 874.038 1231.85 867.438 1226.45" stroke="black" stroke-width="8" stroke-miterlimit="10" stroke-linecap="round" stroke-linejoin="round"/>
<path fill-rule="evenodd" clip-rule="evenodd" d="M969.239 1250.85C969.039 1250.95 948.739 1258.55 945.939 1266.65C939.539 1285.35 952.139 1299.25 961.939 1301.05C1007.74 1309.65 1006.14 1286.45 1036.94 1285.85" fill="#F7F2EE"/>
<path d="M969.239 1250.85C969.039 1250.95 948.739 1258.55 945.939 1266.65C939.539 1285.35 952.139 1299.25 961.939 1301.05C1007.74 1309.65 1006.14 1286.45 1036.94 1285.85" stroke="black" stroke-width="8" stroke-miterlimit="10" stroke-linecap="round" stroke-linejoin="round"/>
<path fill-rule="evenodd" clip-rule="evenodd" d="M885.039 1099.85C865.939 1097.95 842.539 1102.25 831.539 1119.75C774.139 1210.95 905.439 1261.65 969.839 1263.05C1017.44 1264.05 1067.44 1193.25 1018.64 1155.15C1011.64 1149.65 1003.74 1145.85 999.639 1138.85C994.739 1130.65 1002.04 1113.85 990.839 1108.05C984.839 1104.95 971.439 1123.45 948.539 1119.55C941.839 1118.45 919.339 1108.45 914.539 1103.15C909.739 1097.95 915.339 1088.05 903.339 1081.85C892.439 1076.35 885.839 1096.85 885.039 1099.85Z" fill="#F7F2EE"/>
<path d="M885.039 1099.85C865.939 1097.95 842.539 1102.25 831.539 1119.75C774.139 1210.95 905.439 1261.65 969.839 1263.05C1017.44 1264.05 1067.44 1193.25 1018.64 1155.15C1011.64 1149.65 1003.74 1145.85 999.639 1138.85C994.739 1130.65 1002.04 1113.85 990.839 1108.05C984.839 1104.95 971.439 1123.45 948.539 1119.55C941.839 1118.45 919.339 1108.45 914.539 1103.15C909.739 1097.95 915.339 1088.05 903.339 1081.85C892.439 1076.35 885.839 1096.85 885.039 1099.85Z" stroke="black" stroke-width="8" stroke-miterlimit="10" stroke-linecap="round" stroke-linejoin="round"/>
<path d="M980.939 1194.95C978.739 1195.25 985.139 1193.75 987.239 1193.35C992.839 1192.35 998.539 1191.95 1004.24 1191.95C1020.94 1191.85 1037.54 1194.55 1053.54 1199.55" stroke="black" stroke-width="4" stroke-miterlimit="10" stroke-linecap="round" stroke-linejoin="round"/>
<path d="M981.039 1210.95C978.939 1211.05 985.139 1211.75 987.139 1212.45C991.639 1214.15 995.939 1216.15 1000.14 1218.45C1012.94 1225.55 1025.44 1234.05 1036.54 1243.55" stroke="black" stroke-width="4" stroke-miterlimit="10" stroke-linecap="round" stroke-linejoin="round"/>
<path d="M975.239 1227.05C975.239 1226.45 979.639 1228.65 979.839 1228.75C990.939 1235.65 997.939 1249.25 1005.64 1259.45" stroke="black" stroke-width="4" stroke-miterlimit="10" stroke-linecap="round" stroke-linejoin="round"/>
<path d="M866.539 1146.75C867.339 1148.65 864.039 1143.35 862.839 1141.65C860.439 1138.45 857.639 1135.45 854.639 1132.75C845.239 1124.05 834.639 1116.35 823.739 1109.65" stroke="black" stroke-width="4" stroke-miterlimit="10" stroke-linecap="round" stroke-linejoin="round"/>
<path d="M852.539 1158.35C848.339 1158.55 843.039 1155.95 838.739 1155.55C827.139 1154.45 815.039 1154.35 803.339 1154.85" stroke="black" stroke-width="4" stroke-miterlimit="10" stroke-linecap="round" stroke-linejoin="round"/>
<path d="M847.639 1176.55C836.139 1173.55 819.039 1182.85 808.539 1186.55" stroke="black" stroke-width="4" stroke-miterlimit="10" stroke-linecap="round" stroke-linejoin="round"/>
<path fill-rule="evenodd" clip-rule="evenodd" d="M922.139 1112.55C922.039 1112.45 921.039 1115.75 920.839 1116.55C920.339 1118.35 918.039 1126.15 920.739 1127.15C923.839 1128.35 924.939 1119.55 927.739 1119.85C930.639 1120.15 928.139 1130.65 931.139 1131.75C933.839 1132.75 935.839 1122.45 938.939 1122.55C941.339 1122.65 941.739 1139.95 948.039 1134.45C950.039 1132.75 953.639 1126.95 952.339 1124.15C951.239 1121.65 929.439 1112.25 926.139 1112.75" fill="black"/>
<path d="M922.139 1112.55C922.039 1112.45 921.039 1115.75 920.839 1116.55C920.339 1118.35 918.039 1126.15 920.739 1127.15C923.839 1128.35 924.939 1119.55 927.739 1119.85C930.639 1120.15 928.139 1130.65 931.139 1131.75C933.839 1132.75 935.839 1122.45 938.939 1122.55C941.339 1122.65 941.739 1139.95 948.039 1134.45C950.039 1132.75 953.639 1126.95 952.339 1124.15C951.239 1121.65 929.439 1112.25 926.139 1112.75" stroke="black" stroke-width="4" stroke-miterlimit="10" stroke-linecap="round" stroke-linejoin="round"/>
<path d="M885.939 1145.45C885.739 1145.75 886.339 1144.85 886.639 1144.65C887.139 1144.15 887.739 1143.85 888.339 1143.55C890.139 1142.65 892.139 1142.05 894.139 1141.95C900.139 1141.55 904.239 1145.65 906.639 1152.05" stroke="black" stroke-width="4" stroke-miterlimit="10" stroke-linecap="round" stroke-linejoin="round"/>
<path d="M964.439 1177.25C964.339 1177.55 964.539 1176.65 964.539 1176.35C964.539 1175.75 964.439 1175.15 964.239 1174.65C963.739 1172.95 962.939 1171.45 961.939 1170.15C958.739 1166.15 953.639 1166.05 948.239 1168.25" stroke="black" stroke-width="4" stroke-miterlimit="10" stroke-linecap="round" stroke-linejoin="round"/>
<path d="M914.539 1170.15C914.739 1169.85 913.839 1170.25 913.539 1170.35C912.939 1170.55 912.439 1170.85 911.939 1171.25C910.239 1172.35 908.739 1173.85 907.939 1175.75C906.039 1179.85 908.439 1185.75 913.239 1186.45C924.039 1188.05 925.239 1167.05 914.639 1171.25" stroke="black" stroke-width="4" stroke-miterlimit="10" stroke-linecap="round" stroke-linejoin="round"/>
<path d="M910.839 1188.45C908.239 1193.55 889.339 1199.85 887.239 1200.05C871.739 1202.05 861.139 1184.95 870.039 1176.65" stroke="black" stroke-width="4" stroke-miterlimit="10" stroke-linecap="round" stroke-linejoin="round"/>
<path d="M911.839 1188.45C909.239 1197.85 912.539 1206.25 913.739 1207.95C924.339 1223.25 953.439 1230.45 956.439 1207.85" stroke="black" stroke-width="4" stroke-miterlimit="10" stroke-linecap="round" stroke-linejoin="round"/>
<path fill-rule="evenodd" clip-rule="evenodd" d="M1246.04 1232.45C1243.64 1239.55 1234.74 1259.05 1208.34 1263.85C1190.94 1267.05 1164.74 1240.35 1146.24 1267.95C1139.54 1277.95 1156.44 1302.55 1180.84 1305.45C1227.04 1310.85 1246.64 1284.35 1257.04 1255.85C1259.14 1250.05 1265.04 1209.65 1249.54 1211.55C1246.64 1212.05 1247.04 1229.55 1246.04 1232.45Z" fill="#F7F2EE"/>
<path d="M1246.04 1232.45C1243.64 1239.55 1234.74 1259.05 1208.34 1263.85C1190.94 1267.05 1164.74 1240.35 1146.24 1267.95C1139.54 1277.95 1156.44 1302.55 1180.84 1305.45C1227.04 1310.85 1246.64 1284.35 1257.04 1255.85C1259.14 1250.05 1265.04 1209.65 1249.54 1211.55C1246.64 1212.05 1247.04 1229.55 1246.04 1232.45Z" stroke="black" stroke-width="8" stroke-miterlimit="10" stroke-linecap="round" stroke-linejoin="round"/>
</svg>
