<svg width="1500" height="1500" viewBox="0 0 1500 1500" fill="none" xmlns="http://www.w3.org/2000/svg">
<rect width="1500" height="1500" fill="#F7F2EE"/>
<path d="M633 373.321C632.8 376.721 632.7 380.221 632.7 384.121C632.7 387.621 632.8 391.021 633.1 394.521C636.8 442.721 670.8 518.521 726.8 514.421C776.7 510.721 802 431.321 798.3 366.821C798 361.221 797.4 355.821 796.7 350.521C795.5 342.421 793.9 334.621 791.7 327.521" stroke="black" stroke-width="8" stroke-miterlimit="10" stroke-linecap="round" stroke-linejoin="round"/>
<path d="M798.4 360.321C802.7 357.021 803.2 349.021 809.6 345.821C818 341.721 821.2 351.821 821.9 358.121C823.7 372.621 820.9 391.821 814.7 405.121C812.8 409.121 805.8 419.921 799.9 416.521" stroke="black" stroke-width="8" stroke-miterlimit="10" stroke-linecap="round" stroke-linejoin="round"/>
<path fill-rule="evenodd" clip-rule="evenodd" d="M598.2 554.521C602.3 555.721 616.5 559.221 617.4 564.321C627.6 620.821 681.1 648.221 724.9 641.921C775.5 634.621 821.6 595.621 828.4 551.621C829 548.021 832.9 547.121 847.1 541.721C854.1 539.121 861 619.721 861.1 627.221C861.4 670.021 849 725.321 840.1 760.521C820.5 838.521 819.7 842.421 831.6 909.121C847.2 996.421 997.3 1156.12 951.4 1210.02C905.6 1263.92 630.6 1262.72 556.6 1232.72C478.9 1201.32 477.1 1121.62 480.4 1112.62C533.8 969.421 630.7 938.521 587 671.221C583.5 650.121 581.5 604.221 586.7 583.621C589.1 575.221 590.2 552.121 598.2 554.521Z" fill="#BA4BFE"/>
<path d="M598.2 554.521C602.3 555.721 616.5 559.221 617.4 564.321C627.6 620.821 681.1 648.221 724.9 641.921C775.5 634.621 821.6 595.621 828.4 551.621C829 548.021 832.9 547.121 847.1 541.721C854.1 539.121 861 619.721 861.1 627.221C861.4 670.021 849 725.321 840.1 760.521C820.5 838.521 819.7 842.421 831.6 909.121C847.2 996.421 997.3 1156.12 951.4 1210.02C905.6 1263.92 630.6 1262.72 556.6 1232.72C478.9 1201.32 477.1 1121.62 480.4 1112.62C533.8 969.421 630.7 938.521 587 671.221C583.5 650.121 581.5 604.221 586.7 583.621C589.1 575.221 590.2 552.121 598.2 554.521Z" stroke="black" stroke-width="8" stroke-miterlimit="10" stroke-linecap="round" stroke-linejoin="round"/>
<path d="M604.9 562.721C605 562.721 604.8 573.321 604.8 573.721C604.7 584.121 604.5 594.621 604.5 605.021C604.5 633.621 604.4 662.221 608.6 690.521C619.4 764.421 642.5 829.121 621.8 904.021C611.4 941.821 588.2 972.821 570.1 1006.92C552.7 1039.82 539.2 1090.52 539.2 1127.62" stroke="#F7F2EE" stroke-width="8" stroke-miterlimit="10" stroke-linecap="round" stroke-linejoin="round"/>
<path d="M830 555.021C830.2 555.121 830.5 556.721 830.6 556.821C834.5 571.121 836.1 586.621 837.4 601.321C841.9 652.121 832.4 702.221 818.8 750.921C780.4 888.021 776.7 941.621 858.8 1060.92" stroke="#F7F2EE" stroke-width="8" stroke-miterlimit="10" stroke-linecap="round" stroke-linejoin="round"/>
<path fill-rule="evenodd" clip-rule="evenodd" d="M751 509.821C750.8 514.021 749.2 531.321 749.1 535.521C748.8 548.021 748.9 587.921 768.1 585.821C797.9 582.621 826.6 542.721 856.8 536.421C861.8 535.421 866.8 535.221 871.9 536.421C880.6 538.321 894.3 542.821 903.6 554.121C924.1 579.121 914.4 663.721 909.7 709.721C899.4 810.621 862.4 915.121 825.3 908.521C797.9 903.621 770 839.521 765.8 795.021C765.1 787.121 771.2 792.321 773 784.721C773.8 781.421 786 738.821 797.4 754.821C798.7 756.621 802.1 771.421 808.1 783.221C815.3 797.321 824.8 812.821 826 822.821C828 839.421 819.8 846.721 823.3 836.821C839 793.121 851.6 730.121 855.3 684.021C855.9 676.421 862.6 615.521 854.7 579.221C852.6 569.721 849.9 549.921 849.5 543.121" fill="#F7F2EE"/>
<path d="M751 509.821C750.8 514.021 749.2 531.321 749.1 535.521C748.8 548.021 748.9 587.921 768.1 585.821C797.9 582.621 826.6 542.721 856.8 536.421C861.8 535.421 866.8 535.221 871.9 536.421C880.6 538.321 894.3 542.821 903.6 554.121C924.1 579.121 914.4 663.721 909.7 709.721C899.4 810.621 862.4 915.121 825.3 908.521C797.9 903.621 770 839.521 765.8 795.021C765.1 787.121 771.2 792.321 773 784.721C773.8 781.421 786 738.821 797.4 754.821C798.7 756.621 802.1 771.421 808.1 783.221C815.3 797.321 824.8 812.821 826 822.821C828 839.421 819.8 846.721 823.3 836.821C839 793.121 851.6 730.121 855.3 684.021C855.9 676.421 862.6 615.521 854.7 579.221C852.6 569.721 849.9 549.921 849.5 543.121" stroke="black" stroke-width="8" stroke-miterlimit="10" stroke-linecap="round" stroke-linejoin="round"/>
<path fill-rule="evenodd" clip-rule="evenodd" d="M755.2 707.621C754 688.121 738 670.221 735.5 674.921C730.5 684.121 747.6 730.821 751.2 740.121" fill="#F7F2EE"/>
<path d="M755.2 707.621C754 688.121 738 670.221 735.5 674.921C730.5 684.121 747.6 730.821 751.2 740.121" stroke="black" stroke-width="8" stroke-miterlimit="10" stroke-linecap="round" stroke-linejoin="round"/>
<path fill-rule="evenodd" clip-rule="evenodd" d="M764.3 687.421C765.9 685.821 770.3 658.121 772.2 653.121C772.9 651.221 795 603.12 779.4 694.52" fill="#F7F2EE"/>
<path d="M764.3 687.421C765.9 685.821 770.3 658.121 772.2 653.121C772.9 651.221 795 603.12 779.4 694.52" stroke="black" stroke-width="8" stroke-miterlimit="10" stroke-linecap="round" stroke-linejoin="round"/>
<path fill-rule="evenodd" clip-rule="evenodd" d="M799.4 607.221C794.8 607.121 783.1 608.821 775.4 620.821C773.8 623.321 776 624.821 773.5 624.821C772.7 624.821 772.4 623.721 770.3 619.521C765.3 609.621 746.8 598.121 735.9 612.421C701.1 658.121 763.1 695.621 765.8 694.221C830.4 662.021 819.7 607.521 799.4 607.221Z" fill="#FE6680"/>
<path d="M799.4 607.221C794.8 607.121 783.1 608.821 775.4 620.821C773.8 623.321 776 624.821 773.5 624.821C772.7 624.821 772.4 623.721 770.3 619.521C765.3 609.621 746.8 598.121 735.9 612.421C701.1 658.121 763.1 695.621 765.8 694.221C830.4 662.021 819.7 607.521 799.4 607.221Z" stroke="black" stroke-width="8" stroke-miterlimit="10" stroke-linecap="round" stroke-linejoin="round"/>
<path fill-rule="evenodd" clip-rule="evenodd" d="M694.7 511.321C695.5 517.021 696.4 530.321 696.6 536.021C697.2 552.521 698.1 583.421 677.4 583.721C639.2 584.321 563.7 513.021 529.7 564.521C496.5 614.821 528.5 809.921 569.7 879.021C607 941.721 639.7 941.121 720.3 848.421C744.5 820.621 773.2 790.921 786.4 769.921C787.3 768.521 810.1 742.421 823.1 718.821C832.7 701.321 834.1 685.121 831.9 681.921C826.2 673.821 815.4 705.021 814.9 705.021C813.3 705.021 818.1 696.821 819 694.621C820.8 690.321 833.4 652.521 830.1 649.221C829 648.121 827.3 650.021 826.6 650.721C816.7 661.821 810.1 680.421 804.4 694.521C804.2 694.921 802.8 699.521 802.4 699.521C802 699.521 805.1 691.121 808 683.921C809.9 679.221 825.1 648.321 820.2 643.821C819.3 643.021 817.9 644.321 817.3 644.921C805.2 655.821 799.4 675.821 791.2 690.221C790.9 690.721 788.2 695.821 787.3 695.421C786.5 695.021 788.6 689.421 788.7 688.921C791.2 680.921 806.3 649.021 799.6 641.421C798.3 639.921 796.3 641.721 795.3 642.621C791 646.721 786.4 657.721 782.1 668.621C776.8 681.921 768.5 690.421 765.2 691.921C758.7 694.921 741.5 687.821 743.8 677.721C748.4 657.321 733.2 657.121 730.7 659.321C703.8 682.421 757.9 744.521 745.4 754.121C727.8 767.721 655.3 849.82 631.7 851.521C610.9 853.021 583.4 656.121 588.8 652.621C589.8 651.921 585.4 580.321 594.3 555.721C596.6 549.321 606.3 558.721 609.6 558.521" fill="#F7F2EE"/>
<path d="M694.7 511.321C695.5 517.021 696.4 530.321 696.6 536.021C697.2 552.521 698.1 583.421 677.4 583.721C639.2 584.321 563.7 513.021 529.7 564.521C496.5 614.821 528.5 809.921 569.7 879.021C607 941.721 639.7 941.121 720.3 848.421C744.5 820.621 773.2 790.921 786.4 769.921C787.3 768.521 810.1 742.421 823.1 718.821C832.7 701.321 834.1 685.121 831.9 681.921C826.2 673.821 815.4 705.021 814.9 705.021C813.3 705.021 818.1 696.821 819 694.621C820.8 690.321 833.4 652.521 830.1 649.221C829 648.121 827.3 650.021 826.6 650.721C816.7 661.821 810.1 680.421 804.4 694.521C804.2 694.921 802.8 699.521 802.4 699.521C802 699.521 805.1 691.121 808 683.921C809.9 679.221 825.1 648.321 820.2 643.821C819.3 643.021 817.9 644.321 817.3 644.921C805.2 655.821 799.4 675.821 791.2 690.221C790.9 690.721 788.2 695.821 787.3 695.421C786.5 695.021 788.6 689.421 788.7 688.921C791.2 680.921 806.3 649.021 799.6 641.421C798.3 639.921 796.3 641.721 795.3 642.621C791 646.721 786.4 657.721 782.1 668.621C776.8 681.921 768.5 690.421 765.2 691.921C758.7 694.921 741.5 687.821 743.8 677.721C748.4 657.321 733.2 657.121 730.7 659.321C703.8 682.421 757.9 744.521 745.4 754.121C727.8 767.721 655.3 849.821 631.7 851.521C610.9 853.021 583.4 656.121 588.8 652.621C589.8 651.921 585.4 580.321 594.3 555.721C596.6 549.321 606.3 558.721 609.6 558.521" stroke="black" stroke-width="8" stroke-miterlimit="10" stroke-linecap="round" stroke-linejoin="round"/>
<path d="M791.7 327.421C790.2 322.221 790.4 311.521 781 302.621C780 301.621 766.6 295.821 757.6 303.821C754.9 306.221 749.3 315.52 748.1 318.72" stroke="black" stroke-width="8" stroke-miterlimit="10" stroke-linecap="round" stroke-linejoin="round"/>
<path d="M748 318.821C749.9 302.121 731.4 297.521 725.2 302.321C713.5 311.521 713.7 331.821 698 336.821C686.3 340.621 682 324.621 679.3 325.321C676.5 325.921 674.6 336.621 673.6 338.921C670.5 346.221 664 351.521 657 354.421C652.4 356.321 635.3 354.42 633.4 371.72C633.1 374.22 631.7 371.821 630.5 369.821C621.7 355.021 622.5 351.921 614.3 354.021C595.8 358.721 618.2 444.121 638.2 429.021" stroke="black" stroke-width="8" stroke-miterlimit="10" stroke-linecap="round" stroke-linejoin="round"/>
<path d="M715.2 229.121C715.2 229.321 711.8 226.621 711.6 226.521C709.7 224.821 707.6 223.221 705.5 221.721C698.1 216.321 689.1 213.321 680.1 212.721C653.7 211.121 621 222.721 606.2 246.721C589.7 273.621 602.9 308.521 586.8 334.321C572.9 356.721 539.9 345.921 527.3 374.021C518.5 393.721 532 420.921 518.2 438.721C504.6 456.321 463.1 429.521 439.8 470.521C419.7 505.921 436.9 569.621 417.5 592.521C403.9 608.621 376.6 592.321 358.7 613.521C320.6 658.821 351.8 716.921 333.4 763.921C319.5 799.521 279 773.721 247.2 791.721C219.3 807.621 204.3 841.921 192 894.621" stroke="black" stroke-width="8" stroke-miterlimit="10" stroke-linecap="round" stroke-linejoin="round"/>
<path d="M715.2 244.021C717.1 243.521 723.1 234.521 725.1 233.021C744 218.621 772.4 208.821 795.9 213.821C835.8 222.321 834.7 273.921 848.2 304.121C859 328.321 888.2 325.021 903.1 344.821C918.2 364.921 911.8 394.321 926.6 413.521C942.4 433.921 975.5 430.621 994.5 447.821C1021.5 472.221 1010.3 510.121 1028.9 537.721C1041.9 556.821 1068.9 552.121 1082.1 572.821C1098.8 598.821 1084.5 633.021 1096.7 660.521C1109.7 689.821 1142.5 668.521 1159.1 694.221C1180.8 727.721 1162.1 780.521 1184.1 813.021C1200.5 837.121 1255.6 802.921 1291.1 862.021" stroke="black" stroke-width="8" stroke-miterlimit="10" stroke-linecap="round" stroke-linejoin="round"/>
<path d="M717.9 276.021C717.9 276.021 704.6 235.421 663.9 241.621C640 245.321 624.4 258.021 620.6 280.221C617.3 299.221 623.2 318.321 617 337.021C606 369.921 566.5 361.421 554 390.221C544.2 412.621 570.3 442.221 551.4 461.421C529.9 483.221 490.2 463.121 472.7 494.721C455.1 526.621 485.5 563.821 469.8 595.621C452.4 630.921 397.8 622.721 389 667.421C381.8 703.821 411.9 748.421 393.2 782.521C373 819.421 305.5 796.221 280.2 841.821C255.5 886.221 289.1 959.421 245.6 995.421" stroke="black" stroke-width="4" stroke-miterlimit="10" stroke-linecap="round" stroke-linejoin="round"/>
<path d="M694.8 315.921C696.4 315.321 713.1 296.021 701.7 284.621C700.2 283.121 698.4 281.921 696.4 281.021C687.5 276.621 676.5 279.921 670.2 287.121C653.8 305.621 667.6 336.121 650.6 353.221" stroke="black" stroke-width="4" stroke-miterlimit="10" stroke-linecap="round" stroke-linejoin="round"/>
<path d="M606.5 388.621C609.6 386.921 600.2 392.021 597.7 394.521C592 400.221 588.5 407.421 587.6 415.521C585.3 436.321 602.2 459.421 591.5 479.421C573.9 512.721 510.1 501.121 507.1 544.321C506 561.021 519.4 572.121 519.4 586.421" stroke="black" stroke-width="4" stroke-miterlimit="10" stroke-linecap="round" stroke-linejoin="round"/>
<path d="M511.3 659.921C507.7 662.821 444 676.221 434.8 695.321C415.6 734.921 472.5 771.021 450.5 813.721C428.2 857.021 346.4 849.121 343.2 904.721C341.7 930.421 356.6 953.721 358.5 978.921" stroke="black" stroke-width="4" stroke-miterlimit="10" stroke-linecap="round" stroke-linejoin="round"/>
<path d="M644.3 446.821C640.2 504.121 587.2 493.621 577.2 538.421" stroke="black" stroke-width="4" stroke-miterlimit="10" stroke-linecap="round" stroke-linejoin="round"/>
<path d="M666.5 486.421C662 493.021 663.8 500.321 655.1 509.621C639.8 526.121 606.9 539.321 617.4 567.821" stroke="black" stroke-width="4" stroke-miterlimit="10" stroke-linecap="round" stroke-linejoin="round"/>
<path d="M693.9 524.721C694.7 530.421 685.3 538.221 681.8 541.221C670.3 550.721 653 559.821 656.5 577.621" stroke="black" stroke-width="4" stroke-miterlimit="10" stroke-linecap="round" stroke-linejoin="round"/>
<path d="M518.3 721.021C514.1 722.221 505.5 722.821 505.3 722.821C468.5 723.921 517.6 811.321 510.8 830.621C495.7 873.821 424.3 862.821 429.8 923.821C430.9 936.221 438.7 945.321 441.2 957.121" stroke="black" stroke-width="4" stroke-miterlimit="10" stroke-linecap="round" stroke-linejoin="round"/>
<path d="M555.2 858.321C555.3 857.521 555.1 859.921 554.8 860.721C549.4 878.921 528.3 889.921 517.9 904.821C494.9 937.721 526.2 957.02 532.1 987.52" stroke="black" stroke-width="4" stroke-miterlimit="10" stroke-linecap="round" stroke-linejoin="round"/>
<path d="M726.5 299.121C734.1 275.121 753.1 259.721 757.7 257.421C769.2 251.821 783.4 248.021 794.5 256.221C817.4 272.921 808.8 311.021 825.5 332.921C838.6 350.121 857 347.021 872.3 359.621C875.1 361.921 877.5 364.721 879.2 368.021C891.5 391.721 878.8 421.621 896.6 444.021C917.2 470.021 962.2 459.421 978.1 491.221C990.7 516.521 971 553.421 988.8 576.721C1002.4 594.521 1035.3 585.421 1045.6 603.521C1061.7 631.721 1039.5 669.521 1050.4 699.221C1063.8 736.021 1101.2 720.621 1121.2 745.621C1143.8 773.721 1127.6 826.321 1142.6 859.821C1162.4 904.021 1226.2 872.621 1239 945.421" stroke="black" stroke-width="4" stroke-miterlimit="10" stroke-linecap="round" stroke-linejoin="round"/>
<path d="M830.8 377.021C832.4 373.121 835.7 383.821 838 387.421C854.9 413.821 836.4 448.721 849.1 466.121C858.7 479.321 887.4 478.821 901.6 484.721C968.6 512.621 927.6 558.121 947.8 608.621C957.9 633.921 991.2 627.721 1002.7 650.721C1020.4 686.121 992.4 723.821 1006.8 758.321C1017.6 784.221 1066.7 782.621 1080 806.721C1098 839.321 1082.4 866.621 1095 901.121C1101.2 918.221 1142.7 941.421 1160.8 975.921C1177.7 1008.12 1171.8 1051.62 1157.1 1075.02" stroke="black" stroke-width="4" stroke-miterlimit="10" stroke-linecap="round" stroke-linejoin="round"/>
<path d="M799.5 417.421C800.8 415.621 799.7 421.921 799.7 424.121C799.7 428.621 799.8 433.221 800.1 437.721C801.1 450.921 802.8 465.221 809.8 476.721C824.8 501.321 874.3 496.221 872.1 532.521" stroke="black" stroke-width="4" stroke-miterlimit="10" stroke-linecap="round" stroke-linejoin="round"/>
<path d="M919.5 651.721C921.2 649.721 922.4 656.321 924.4 658.121C983.2 707.921 937.9 724.421 951.3 790.321C965.1 857.821 1057.9 851.22 1040.6 943.52" stroke="black" stroke-width="4" stroke-miterlimit="10" stroke-linecap="round" stroke-linejoin="round"/>
<path d="M905.9 759.121C908.8 763.821 910.8 769.121 912.4 774.321C917.4 791.021 917.3 807.721 913.7 824.721C903.2 873.721 925.9 865.421 956.8 901.121C967 912.921 968.4 939.321 970.5 943.021" stroke="black" stroke-width="4" stroke-miterlimit="10" stroke-linecap="round" stroke-linejoin="round"/>
<path d="M774.5 483.421C769.1 493.121 824.3 528.221 826.7 551.021" stroke="black" stroke-width="4" stroke-miterlimit="10" stroke-linecap="round" stroke-linejoin="round"/>
<path d="M752.4 522.721C750.7 530.221 768.5 542.621 780.4 555.921C785.6 561.721 789.7 567.821 790.5 573.621" stroke="black" stroke-width="4" stroke-miterlimit="10" stroke-linecap="round" stroke-linejoin="round"/>
<path d="M868.5 870.921C875 876.921 904 979.421 902.4 994.521" stroke="black" stroke-width="4" stroke-miterlimit="10" stroke-linecap="round" stroke-linejoin="round"/>
<path d="M754.4 389.021C754.7 388.721 754.4 389.821 754.4 390.221C754.4 391.121 754.4 392.021 754.4 392.821C754.4 395.321 754.5 397.821 754.5 400.321" stroke="black" stroke-width="8" stroke-miterlimit="10" stroke-linecap="round" stroke-linejoin="round"/>
<path d="M683.5 391.621C683.6 391.421 683.5 392.321 683.5 392.721C683.6 393.521 683.7 394.221 683.7 395.021C684 397.421 684.3 399.821 684.5 402.221" stroke="black" stroke-width="8" stroke-miterlimit="10" stroke-linecap="round" stroke-linejoin="round"/>
<path d="M752.3 361.321C751.9 361.321 753 361.321 753.4 361.321C754.1 361.321 754.7 361.321 755.4 361.421C757.5 361.621 759.6 362.021 761.7 362.521C767.7 364.021 773.3 367.721 776.3 373.421" stroke="black" stroke-width="8" stroke-miterlimit="10" stroke-linecap="round" stroke-linejoin="round"/>
<path d="M680.6 364.621C680.5 364.721 678.7 364.721 678.5 364.821C676.5 365.221 674.5 365.821 672.5 366.521C667.1 368.521 662.8 371.721 659.2 376.321" stroke="black" stroke-width="8" stroke-miterlimit="10" stroke-linecap="round" stroke-linejoin="round"/>
<path d="M718.9 408.921L718.7 409.721C718.6 410.321 718.5 410.921 718.5 411.621C718.3 413.421 717.9 415.221 717.6 417.021C716.6 423.121 714.6 429.021 719.2 433.721" stroke="black" stroke-width="8" stroke-miterlimit="10" stroke-linecap="round" stroke-linejoin="round"/>
<path d="M704.4 456.521C705.5 456.121 707.8 456.421 709 456.421C712.5 456.221 716 455.821 719.6 455.621C725 455.221 730.4 454.721 735.8 454.021C736.7 453.921 740.3 452.721 741.2 453.421C741.9 453.921 741.4 456.721 741.3 457.321C741.2 461.421 740.7 465.421 739.9 469.421C738.6 475.621 736.9 483.021 732.5 488.021C728.4 492.621 722.2 493.921 717.2 490.021C715.5 488.721 714.1 487.021 712.9 485.321C710.9 482.621 709.5 479.721 708.1 476.621C705.8 471.621 703.7 466.821 702.6 461.421" stroke="black" stroke-width="8" stroke-miterlimit="10" stroke-linecap="round" stroke-linejoin="round"/>
<path fill-rule="evenodd" clip-rule="evenodd" d="M569.5 1059.32C571.9 1058.82 564.6 1060.82 562.9 1062.52C560.3 1065.12 558.3 1068.22 556.7 1071.52C551.1 1082.42 503.6 1097.82 500.7 1109.62C496.1 1128.82 533.4 1244.52 565.1 1247.12C579.4 1248.22 580.7 1211.82 581.3 1204.02C583.3 1179.82 583.8 1153.62 581.6 1127.82C579.9 1107.42 575.3 1077.82 569.5 1059.32Z" fill="#F7F2EE"/>
<path d="M569.5 1059.32C571.9 1058.82 564.6 1060.82 562.9 1062.52C560.3 1065.12 558.3 1068.22 556.7 1071.52C551.1 1082.42 503.6 1097.82 500.7 1109.62C496.1 1128.82 533.4 1244.52 565.1 1247.12C579.4 1248.22 580.7 1211.82 581.3 1204.02C583.3 1179.82 583.8 1153.62 581.6 1127.82C579.9 1107.42 575.3 1077.82 569.5 1059.32Z" stroke="black" stroke-width="8" stroke-miterlimit="10" stroke-linecap="round" stroke-linejoin="round"/>
<path fill-rule="evenodd" clip-rule="evenodd" d="M541.4 1342.82C606.3 1327.42 576.2 1231.62 537.2 1157.72C535.1 1153.62 526.2 1174.92 521.2 1169.12C499.9 1144.32 503.6 1117.52 510 1114.32C516.3 1111.12 531.1 1127.92 531.7 1124.42C535.4 1103.12 538.1 1090.12 540.1 1081.82C544.3 1064.72 545.7 1067.02 547.4 1056.22C555.2 1005.82 441.9 977.821 395.1 1008.82C364.4 1029.12 340.3 1068.22 324.7 1112.62C288.8 1214.72 298.2 1344.92 376.7 1339.12C506.3 1329.42 524.8 1346.82 541.4 1342.82Z" fill="#F7F2EE"/>
<path d="M541.4 1342.82C606.3 1327.42 576.2 1231.62 537.2 1157.72C535.1 1153.62 526.2 1174.92 521.2 1169.12C499.9 1144.32 503.6 1117.52 510 1114.32C516.3 1111.12 531.1 1127.92 531.7 1124.42C535.4 1103.12 538.1 1090.12 540.1 1081.82C544.3 1064.72 545.7 1067.02 547.4 1056.22C555.2 1005.82 441.9 977.821 395.1 1008.82C364.4 1029.12 340.3 1068.22 324.7 1112.62C288.8 1214.72 298.2 1344.92 376.7 1339.12C506.3 1329.42 524.8 1346.82 541.4 1342.82Z" stroke="black" stroke-width="8" stroke-miterlimit="10" stroke-linecap="round" stroke-linejoin="round"/>
<path d="M330.4 1224.92C331 1225.62 329.9 1226.72 329.9 1227.62C329.1 1239.12 330.8 1251.02 332 1262.42C334.8 1288.12 340.8 1313.82 355.9 1335.12" stroke="black" stroke-width="4" stroke-miterlimit="10" stroke-linecap="round" stroke-linejoin="round"/>
<path d="M357.8 1215.62C350.6 1236.12 370.3 1315.02 383.9 1335.52" stroke="black" stroke-width="4" stroke-miterlimit="10" stroke-linecap="round" stroke-linejoin="round"/>
<path d="M379.8 1207.82C379.1 1207.72 381.2 1222.22 381.4 1223.12C383.2 1233.02 385.2 1242.92 387.3 1252.82C393.3 1280.62 399.4 1312.72 415 1337.22" stroke="black" stroke-width="4" stroke-miterlimit="10" stroke-linecap="round" stroke-linejoin="round"/>
<path d="M406.2 1195.92C407.5 1194.32 406.8 1199.92 407.3 1201.92C408 1205.22 408.7 1208.42 409.3 1211.72C411.3 1221.62 413.3 1231.42 415.3 1241.32C421.5 1271.62 427.5 1302.72 438.4 1331.82" stroke="black" stroke-width="4" stroke-miterlimit="10" stroke-linecap="round" stroke-linejoin="round"/>
<path d="M434.8 1183.32C434.8 1183.22 434.7 1186.72 434.8 1187.32C435.3 1191.12 435.9 1195.02 436.5 1198.82C438.3 1210.12 440.6 1221.32 443.1 1232.42C450.6 1266.02 459.2 1301.12 478.8 1330.12" stroke="black" stroke-width="4" stroke-miterlimit="10" stroke-linecap="round" stroke-linejoin="round"/>
<path d="M455.2 1171.12C454.9 1171.12 455.4 1173.32 455.4 1173.42C456.4 1179.42 457.7 1185.32 459 1191.22C461.8 1203.52 464.8 1215.72 467.9 1227.92C474.8 1255.62 485.9 1314.92 509.2 1336.42" stroke="black" stroke-width="4" stroke-miterlimit="10" stroke-linecap="round" stroke-linejoin="round"/>
<path d="M479.2 1157.02C476.8 1166.52 488.2 1197.92 490.8 1207.72C501.8 1250.12 513.7 1297.82 540 1334.02" stroke="black" stroke-width="4" stroke-miterlimit="10" stroke-linecap="round" stroke-linejoin="round"/>
<path d="M509.6 1155.42C510 1166.52 514.9 1178.92 517.5 1189.62C528.3 1234.32 543.5 1274.82 563.4 1315.92" stroke="black" stroke-width="4" stroke-miterlimit="10" stroke-linecap="round" stroke-linejoin="round"/>
<path d="M528.5 1170.02C527.9 1171.02 536.3 1194.52 537 1196.52C545.9 1222.12 557.2 1246.92 570.2 1270.62" stroke="black" stroke-width="4" stroke-miterlimit="10" stroke-linecap="round" stroke-linejoin="round"/>
<path fill-rule="evenodd" clip-rule="evenodd" d="M324.1 1113.12C319.2 1131.42 218.3 1188.52 245 1228.52C280.9 1282.12 592.6 1095.62 635.8 1054.82C707.4 987.122 635.2 969.722 566.4 989.322C529.6 999.822 494.1 1016.42 460.3 1033.72C414.8 1056.92 375 1089.82 328.8 1111.12" fill="#FE6680"/>
<path d="M324.1 1113.12C319.2 1131.42 218.3 1188.52 245 1228.52C280.9 1282.12 592.6 1095.62 635.8 1054.82C707.4 987.122 635.2 969.722 566.4 989.322C529.6 999.822 494.1 1016.42 460.3 1033.72C414.8 1056.92 375 1089.82 328.8 1111.12" stroke="black" stroke-width="8" stroke-miterlimit="10" stroke-linecap="round" stroke-linejoin="round"/>
<path fill-rule="evenodd" clip-rule="evenodd" d="M549.1 1035.52C555.2 1012.52 503.3 941.821 420.5 963.921C387.8 972.621 360 986.221 339.3 1007.92C315.8 1032.62 300 1064.52 296.9 1096.52C283.9 1230.82 539.8 1100.62 545.5 1039.22" fill="#FE6680"/>
<path d="M549.1 1035.52C555.2 1012.52 503.3 941.821 420.5 963.921C387.8 972.621 360 986.221 339.3 1007.92C315.8 1032.62 300 1064.52 296.9 1096.52C283.9 1230.82 539.8 1100.62 545.5 1039.22" stroke="black" stroke-width="8" stroke-miterlimit="10" stroke-linecap="round" stroke-linejoin="round"/>
<path d="M340.5 1011.22C342.6 1015.22 353.6 1017.62 357 1014.92C360.8 1012.02 361.8 1004.82 366.3 1003.12C370.4 1001.52 374.9 1006.72 378.9 1004.02C382.7 1001.42 383.5 994.421 388 992.821C391.6 991.521 395.4 995.421 399 993.621C403.2 991.521 403.3 984.721 407.2 982.921C409.4 981.921 412.8 985.521 415.3 985.221C419.7 984.721 421.2 979.021 425 977.421C427.7 976.321 430.8 978.721 433.5 976.721C435.3 975.421 435.6 972.621 435.7 970.521" stroke="black" stroke-width="4" stroke-miterlimit="10" stroke-linecap="round" stroke-linejoin="round"/>
<path d="M326.8 1025.32C327.8 1025.12 327.3 1027.22 327.8 1028.12C329.2 1030.72 331.4 1033.02 334.3 1034.02C340.4 1036.02 345.1 1030.62 350.8 1031.02C354.4 1031.32 357.5 1035.32 361 1034.72C367 1033.72 369.4 1026.12 374.8 1024.12C378.5 1022.72 382.8 1024.42 386.4 1022.72C390.1 1020.92 392.1 1016.12 396.1 1015.02C399.5 1014.12 403.2 1018.22 406.5 1016.52C410.5 1014.52 410.8 1007.42 414.1 1004.52C417.1 1001.82 422 1006.92 425.3 1004.92C429.2 1002.62 428.8 996.121 432.6 993.721C435.7 991.721 440.2 993.921 443 991.421C446.2 988.421 446.5 981.921 450.4 979.821C454.8 977.421 460.6 984.521 463 976.921C464 973.821 463.4 970.221 462.8 967.121" stroke="black" stroke-width="4" stroke-miterlimit="10" stroke-linecap="round" stroke-linejoin="round"/>
<path d="M315.7 1044.82C315.4 1044.32 315.8 1045.92 315.9 1046.42C316.1 1047.42 316.4 1048.42 316.8 1049.42C318.2 1052.52 321 1056.62 324.9 1055.72C328.1 1055.02 331.9 1048.82 335.1 1049.52C338.9 1050.32 338.7 1060.32 344.1 1059.32C349.3 1058.32 350.6 1049.32 355.4 1048.82C359.5 1048.42 362 1055.82 365.8 1054.42C369.7 1053.02 369.4 1046.22 373.2 1044.62C377.1 1043.02 380.9 1048.52 384.7 1047.32C389.2 1045.82 388.2 1038.92 392 1037.22C395.6 1035.62 399.9 1041.32 404.3 1039.72C408.5 1038.22 409.1 1032.92 412.7 1030.92C415.9 1029.12 419.8 1032.02 422.9 1029.32C425.8 1026.82 426.2 1019.72 429.8 1018.42C433.6 1017.02 438 1021.02 441.7 1018.22C445.3 1015.52 445.3 1009.72 448.9 1006.82C452.7 1003.72 456.3 1007.72 460 1005.92C463.2 1004.42 464.3 999.721 467 997.521C470.5 994.621 475.5 995.821 478.9 992.821C481.5 990.621 479.6 985.721 479.8 982.821C480.1 979.021 483.3 976.221 483.6 972.121" stroke="black" stroke-width="4" stroke-miterlimit="10" stroke-linecap="round" stroke-linejoin="round"/>
<path d="M304.5 1072.72C303.9 1072.22 305.4 1074.12 306 1074.52C307.5 1075.52 309.2 1075.82 310.9 1075.82C315.8 1075.82 321.6 1072.92 326.3 1075.22C339.4 1081.72 339.4 1073.92 353.7 1071.42C357.6 1070.72 363.1 1074.22 366.5 1072.52C369.5 1071.12 370.6 1066.42 373.4 1065.32C376.2 1064.22 379.6 1069.32 382.9 1068.52C386.3 1067.62 388.4 1063.92 391.6 1062.62C394.9 1061.22 398.8 1062.42 402 1060.52C404.7 1058.82 406.1 1055.22 408.9 1053.82C412.1 1052.32 415.9 1055.42 419.3 1054.02C422.1 1052.82 422.8 1049.12 425.5 1047.82C428.2 1046.52 431.6 1047.42 434.5 1046.12C438.7 1044.22 440.5 1040.02 444.1 1037.62C447 1035.72 450.8 1036.12 453.4 1033.72C456.5 1030.82 456.2 1025.62 459.7 1023.02C463.1 1020.42 468.5 1024.02 471.6 1021.12C474.3 1018.62 473.6 1013.62 476.5 1010.82C479.8 1007.62 484.2 1010.12 487.8 1008.12C492.1 1005.72 492.4 999.821 495.2 996.221C498.2 992.421 501.3 994.721 504.3 992.621C507.9 990.121 504.3 985.721 504 982.821" stroke="black" stroke-width="4" stroke-miterlimit="10" stroke-linecap="round" stroke-linejoin="round"/>
<path d="M300.3 1089.92C300 1089.92 300 1091.22 300 1091.42C299.8 1094.42 302.5 1099.02 305.8 1098.92C311.2 1098.82 317.3 1087.42 322.3 1093.72C323.8 1095.62 324.5 1098.02 325.8 1100.12C331.1 1108.42 336.9 1094.02 342.1 1094.62C346.7 1095.22 349 1104.42 354.4 1101.62C358.5 1099.52 359.3 1089.92 363.7 1089.22C370.1 1088.22 370.9 1104.22 377.4 1101.32C383.3 1098.62 382.1 1087.12 388.4 1084.52C394.3 1082.12 399.2 1091.52 405.7 1089.62C412.2 1087.72 410 1077.12 414.9 1075.32C418.5 1073.92 422.3 1082.72 427.6 1081.12C433.2 1079.42 431.2 1071.12 435.9 1069.12C439.1 1067.82 442.1 1075.32 447.2 1073.02C452.5 1070.62 448.6 1061.72 452.9 1058.42C458.4 1054.32 466.4 1062.52 471.9 1059.22C477.4 1055.92 472.2 1047.32 475.3 1042.62C478.4 1037.82 487.2 1042.32 491.7 1038.32C496 1034.42 491.3 1027.62 494.5 1023.02C497 1019.42 503.8 1021.92 507.2 1019.42C510.6 1016.92 506.3 1010.32 509.2 1006.92C513.9 1001.22 522.9 1004.02 524.1 994.921" stroke="black" stroke-width="4" stroke-miterlimit="10" stroke-linecap="round" stroke-linejoin="round"/>
<path fill-rule="evenodd" clip-rule="evenodd" d="M937.1 985.921C938.5 984.521 897.8 975.121 884.9 986.721C827.2 1038.32 863.6 1095.92 841.4 1142.22C833.9 1157.92 809.6 1173.82 797 1185.52C772.8 1208.02 759.1 1297.82 793.3 1320.82C803.9 1328.02 830.2 1303.32 850.7 1307.82C871.7 1312.42 888 1336.12 913.8 1338.82C947.3 1342.42 993.4 1314.82 1027.6 1310.62C1038 1309.32 1079.3 1326.02 1088.6 1325.42C1133.7 1322.72 1134.3 1308.02 1146.7 1289.62C1192.4 1221.72 1130.9 1145.22 1093.2 1132.92C1070.9 1125.62 1067 1093.92 1062.4 1068.92C1057 1039.02 1057.6 998.221 1028.4 980.321C986.2 954.221 949.7 960.621 937.1 985.921Z" fill="#F7F2EE"/>
<path d="M937.1 985.921C938.5 984.521 897.8 975.121 884.9 986.721C827.2 1038.32 863.6 1095.92 841.4 1142.22C833.9 1157.92 809.6 1173.82 797 1185.52C772.8 1208.02 759.1 1297.82 793.3 1320.82C803.9 1328.02 830.2 1303.32 850.7 1307.82C871.7 1312.42 888 1336.12 913.8 1338.82C947.3 1342.42 993.4 1314.82 1027.6 1310.62C1038 1309.32 1079.3 1326.02 1088.6 1325.42C1133.7 1322.72 1134.3 1308.02 1146.7 1289.62C1192.4 1221.72 1130.9 1145.22 1093.2 1132.92C1070.9 1125.62 1067 1093.92 1062.4 1068.92C1057 1039.02 1057.6 998.221 1028.4 980.321C986.2 954.221 949.7 960.621 937.1 985.921Z" stroke="black" stroke-width="8" stroke-miterlimit="10" stroke-linecap="round" stroke-linejoin="round"/>
<path d="M932 993.621C931.9 993.321 930.7 993.321 930.4 993.321C909.6 991.121 889.1 1008.62 882.8 1027.32C871.8 1059.92 890.3 1093.92 883.8 1126.92C872.6 1183.52 804.1 1173.92 799.2 1252.32C798 1271.82 800.3 1292.02 809.1 1309.72" stroke="black" stroke-width="4" stroke-miterlimit="10" stroke-linecap="round" stroke-linejoin="round"/>
<path d="M930.5 1001.82C925.9 1008.02 918.1 1011.52 913.9 1019.32C895.1 1053.72 924.6 1092.82 914.9 1128.72C907.7 1155.42 881.1 1181.92 865.9 1202.82C835.9 1243.92 844 1268.32 855.4 1304.32" stroke="black" stroke-width="4" stroke-miterlimit="10" stroke-linecap="round" stroke-linejoin="round"/>
<path d="M933.4 1005.62C933.6 1005.22 933.2 1006.62 933.2 1007.12C932.8 1019.52 931.4 1031.82 932.5 1044.22C934.6 1069.02 942.1 1093.22 942.3 1118.22C942.7 1167.62 906.9 1202.32 893.8 1247.52C886.1 1274.22 898.2 1304.92 891.1 1327.42" stroke="black" stroke-width="4" stroke-miterlimit="10" stroke-linecap="round" stroke-linejoin="round"/>
<path d="M937.3 1000.82C937.9 1000.32 945.1 1015.22 945.5 1015.92C949.6 1024.92 953 1034.12 956 1043.52C956.4 1044.72 956.7 1045.82 957.1 1047.02C957.5 1048.22 957.8 1049.42 958.2 1050.62C963.2 1067.32 967 1084.22 968.4 1101.62C968.5 1103.12 968.8 1104.62 968.7 1106.02C961.2 1223.52 916.1 1224.02 928.8 1337.92" stroke="black" stroke-width="4" stroke-miterlimit="10" stroke-linecap="round" stroke-linejoin="round"/>
<path d="M943.6 993.721C941.2 996.321 949.5 997.621 951.9 1000.22C958.4 1007.22 963.4 1015.52 967.7 1024.02C980.2 1048.72 988.9 1076.02 990.2 1103.82C992.9 1159.62 956.3 1249.42 973.8 1315.12" stroke="black" stroke-width="4" stroke-miterlimit="10" stroke-linecap="round" stroke-linejoin="round"/>
<path d="M946.7 986.921C945.2 985.021 951.5 985.821 953.9 985.621C961.3 985.021 968.6 983.92 976.1 983.72C1000.4 983.12 1020.3 994.721 1027.3 1018.12C1039.1 1057.42 1031 1097.42 1051.1 1135.22C1079.3 1187.92 1143.7 1207.22 1106.8 1319.02" stroke="black" stroke-width="4" stroke-miterlimit="10" stroke-linecap="round" stroke-linejoin="round"/>
<path d="M953.8 991.02C953.8 989.42 956.8 991.921 958.4 992.321C968.9 994.621 978.2 1004.22 985.6 1011.42C1003.5 1028.72 1011.6 1057.12 1014.2 1081.22C1017.3 1109.72 1016.6 1135.82 1026.3 1163.32C1036.6 1192.42 1107.3 1278.92 1069.5 1313.02" stroke="black" stroke-width="4" stroke-miterlimit="10" stroke-linecap="round" stroke-linejoin="round"/>
<path d="M990.2 1125.22C989.9 1124.82 1000 1203.82 1021.6 1240.92C1036.1 1265.82 1029.7 1282.42 1022 1308.12" stroke="black" stroke-width="4" stroke-miterlimit="10" stroke-linecap="round" stroke-linejoin="round"/>
<path fill-rule="evenodd" clip-rule="evenodd" d="M1021.7 972.221C1021.6 972.521 1021 971.521 1020.9 971.421C1016.5 965.321 1013.4 958.721 1011 951.521C1007.7 941.721 995.6 899.121 1014.8 897.721C1033.7 896.421 1039.1 929.521 1036.8 942.521C1035.9 947.621 1045 923.321 1059.8 912.921C1066.1 908.521 1073.3 906.321 1082.6 914.821C1083 915.121 1109.7 953.421 1026.4 970.721C1025.9 970.821 1028.1 969.721 1028.4 969.521C1040.6 960.621 1069.1 931.421 1083.6 937.821C1093.3 942.121 1108.1 976.721 1090.7 981.121C1075.6 985.021 1055.2 996.921 1021.7 972.221Z" fill="#FE6680"/>
<path d="M1021.7 972.221C1021.6 972.521 1021 971.521 1020.9 971.421C1016.5 965.321 1013.4 958.721 1011 951.521C1007.7 941.721 995.6 899.121 1014.8 897.721C1033.7 896.421 1039.1 929.521 1036.8 942.521C1035.9 947.621 1045 923.321 1059.8 912.921C1066.1 908.521 1073.3 906.321 1082.6 914.821C1083 915.121 1109.7 953.421 1026.4 970.721C1025.9 970.821 1028.1 969.721 1028.4 969.521C1040.6 960.621 1069.1 931.421 1083.6 937.821C1093.3 942.121 1108.1 976.721 1090.7 981.121C1075.6 985.021 1055.2 996.921 1021.7 972.221Z" stroke="black" stroke-width="8" stroke-miterlimit="10" stroke-linecap="round" stroke-linejoin="round"/>
<path d="M1059.9 263.121C1059.8 263.621 1060.1 262.121 1060.2 261.621C1060.4 260.521 1060.5 259.421 1060.5 258.321C1060.7 255.221 1060.6 252.021 1060.4 248.921C1060.1 243.121 1055.1 212.821 1042 220.021C1026.2 228.721 1055.9 265.521 1055.2 267.421C1055 268.021 1052 267.621 1051.4 267.621C1042.7 267.521 1015.9 263.121 1012 273.221C1011 275.821 1011.8 278.721 1013.3 280.821C1020.8 291.621 1041.3 280.321 1050.1 274.921C1050.8 274.521 1053.9 272.121 1054.8 272.821C1054.9 272.921 1039.4 319.421 1057.2 319.721C1071.3 319.921 1065.3 284.721 1063 277.721C1062.8 277.221 1061.6 274.621 1062.3 274.121C1063 273.621 1064.9 275.221 1065.3 275.521C1070.2 278.821 1094.9 301.521 1102 294.521C1110.8 285.621 1078.2 270.721 1070.6 269.621C1070.2 269.521 1065.7 269.221 1065.8 268.621C1065.8 267.721 1111.9 247.221 1099 231.921C1088.8 219.621 1064.4 256.521 1059.9 263.121Z" stroke="black" stroke-width="4" stroke-miterlimit="10" stroke-linecap="round" stroke-linejoin="round"/>
<path fill-rule="evenodd" clip-rule="evenodd" d="M1060.5 267.521C1060.4 267.521 1060.7 267.521 1060.8 267.521C1061 267.421 1061.2 267.421 1061.5 267.321C1062.1 267.121 1062.7 266.921 1063.3 266.621C1064.4 266.121 1069.9 263.121 1067.8 261.221C1065.3 258.921 1059.9 266.921 1059.5 266.921C1059.4 266.921 1059.3 266.321 1059.3 266.221C1058.9 264.621 1058.2 259.421 1056.1 259.421C1055.6 259.421 1055 259.821 1054.7 260.221C1053 262.321 1056.3 265.321 1057.8 266.521C1057.9 266.621 1058.5 267.021 1058.4 267.221C1058.4 267.221 1048.7 267.721 1049.6 270.921C1050.3 273.521 1056.7 269.921 1057.9 269.021C1058 268.921 1058.4 268.521 1058.5 268.621C1058.6 268.721 1058.4 269.121 1058.4 269.221C1058 270.321 1055.1 276.421 1056.8 277.221C1059 278.221 1060 271.221 1059.8 269.721C1059.8 269.621 1059.6 268.821 1059.7 268.721C1059.9 268.721 1066.3 275.621 1068.5 272.221C1070.3 269.721 1062 267.821 1060.5 267.521Z" fill="black"/>
<path d="M1060.5 267.521C1060.4 267.521 1060.7 267.521 1060.8 267.521C1061 267.421 1061.2 267.421 1061.5 267.321C1062.1 267.121 1062.7 266.921 1063.3 266.621C1064.4 266.121 1069.9 263.121 1067.8 261.221C1065.3 258.921 1059.9 266.921 1059.5 266.921C1059.4 266.921 1059.3 266.321 1059.3 266.221C1058.9 264.621 1058.2 259.421 1056.1 259.421C1055.6 259.421 1055 259.821 1054.7 260.221C1053 262.321 1056.3 265.321 1057.8 266.521C1057.9 266.621 1058.5 267.021 1058.4 267.221C1058.4 267.221 1048.7 267.721 1049.6 270.921C1050.3 273.521 1056.7 269.921 1057.9 269.021C1058 268.921 1058.4 268.521 1058.5 268.621C1058.6 268.721 1058.4 269.121 1058.4 269.221C1058 270.321 1055.1 276.421 1056.8 277.221C1059 278.221 1060 271.221 1059.8 269.721C1059.8 269.621 1059.6 268.821 1059.7 268.721C1059.9 268.721 1066.3 275.621 1068.5 272.221C1070.3 269.721 1062 267.821 1060.5 267.521Z" stroke="black" stroke-width="4" stroke-miterlimit="10" stroke-linecap="round" stroke-linejoin="round"/>
<path fill-rule="evenodd" clip-rule="evenodd" d="M305.7 293.821C306.6 294.821 303.7 291.921 302.7 291.021C300.4 289.021 297.9 287.121 295.4 285.421C288.4 280.421 281 276.021 273.4 271.921C259.5 264.321 181.5 231.921 179.4 272.821C176.9 322.221 305.5 306.421 308.8 310.721C309.9 312.221 304.6 318.621 303.9 319.821C291 339.921 242 396.021 260 419.621C264.6 425.721 272.5 428.121 279.6 427.721C315.7 425.921 319.1 361.921 319.2 333.521C319.2 331.421 318.2 320.621 321.2 319.621C321.5 319.521 407.5 423.021 433.9 381.821C454.8 349.221 364.2 312.221 344.4 307.421C343 307.121 335.2 306.221 335.1 303.821C335 301.521 341.3 299.421 342.6 298.821C357.3 292.121 446.2 267.621 439.9 240.921C432 207.521 350 261.821 336.4 278.121C335.6 279.021 328.4 288.821 327.2 287.921C325.2 286.521 344.2 149.521 289.9 157.321C246.2 163.621 296.7 273.621 305.7 293.821Z" fill="#F7F2EE"/>
<path d="M305.7 293.821C306.6 294.821 303.7 291.921 302.7 291.021C300.4 289.021 297.9 287.121 295.4 285.421C288.4 280.421 281 276.021 273.4 271.921C259.5 264.321 181.5 231.921 179.4 272.821C176.9 322.221 305.5 306.421 308.8 310.721C309.9 312.221 304.6 318.621 303.9 319.821C291 339.921 242 396.021 260 419.621C264.6 425.721 272.5 428.121 279.6 427.721C315.7 425.921 319.1 361.921 319.2 333.521C319.2 331.421 318.2 320.621 321.2 319.621C321.5 319.521 407.5 423.021 433.9 381.821C454.8 349.221 364.2 312.221 344.4 307.421C343 307.121 335.2 306.221 335.1 303.821C335 301.521 341.3 299.421 342.6 298.821C357.3 292.121 446.2 267.621 439.9 240.921C432 207.521 350 261.821 336.4 278.121C335.6 279.021 328.4 288.821 327.2 287.921C325.2 286.521 344.2 149.521 289.9 157.321C246.2 163.621 296.7 273.621 305.7 293.821Z" stroke="black" stroke-width="4" stroke-miterlimit="10" stroke-linecap="round" stroke-linejoin="round"/>
<path fill-rule="evenodd" clip-rule="evenodd" d="M316.6 298.721C316.5 298.921 316.8 298.221 316.9 297.921C317.1 297.321 317.3 296.721 317.4 296.121C317.8 294.421 318.2 292.721 318.4 291.021C318.9 287.821 303.3 185.521 295.9 187.621C286.9 190.221 314.3 299.421 313.7 300.421C313.5 300.721 312 300.121 311.8 300.021C307.4 298.721 205.6 271.421 202.6 276.421C201.8 277.721 201.9 279.421 202.4 280.821C205 287.821 305.3 305.721 310.4 303.921C310.8 303.821 312.6 302.921 313 303.421C313 303.421 272.1 406.721 281 409.321C288.1 411.421 317 311.321 316.6 307.221C316.6 306.921 316.2 305.321 316.7 305.221C317.1 305.021 317.9 306.221 318.1 306.421C320.2 308.921 403.7 372.421 408 369.521C413.5 365.921 325.1 305.521 321.4 303.921C321.2 303.821 319 303.021 319.1 302.721C319.2 302.221 417.5 258.121 412.7 247.921C408.8 239.621 319.6 295.621 316.6 298.721Z" fill="black"/>
<path d="M316.6 298.721C316.5 298.921 316.8 298.221 316.9 297.921C317.1 297.321 317.3 296.721 317.4 296.121C317.8 294.421 318.2 292.721 318.4 291.021C318.9 287.821 303.3 185.521 295.9 187.621C286.9 190.221 314.3 299.421 313.7 300.421C313.5 300.721 312 300.121 311.8 300.021C307.4 298.721 205.6 271.421 202.6 276.421C201.8 277.721 201.9 279.421 202.4 280.821C205 287.821 305.3 305.721 310.4 303.921C310.8 303.821 312.6 302.921 313 303.421C313 303.421 272.1 406.721 281 409.321C288.1 411.421 317 311.321 316.6 307.221C316.6 306.921 316.2 305.321 316.7 305.221C317.1 305.021 317.9 306.221 318.1 306.421C320.2 308.921 403.7 372.421 408 369.521C413.5 365.921 325.1 305.521 321.4 303.921C321.2 303.821 319 303.021 319.1 302.721C319.2 302.221 417.5 258.121 412.7 247.921C408.8 239.621 319.6 295.621 316.6 298.721Z" stroke="black" stroke-width="4" stroke-miterlimit="10" stroke-linecap="round" stroke-linejoin="round"/>
<path fill-rule="evenodd" clip-rule="evenodd" d="M1281.2 633.821C1281.5 633.221 1280.7 635.121 1280.5 635.721C1280.1 637.121 1279.7 638.621 1279.4 640.121C1278.6 644.221 1278.1 648.421 1277.7 652.621C1277.1 660.321 1278 701.621 1296.7 694.421C1319.3 685.821 1286.8 631.421 1288.1 629.021C1288.5 628.221 1292.4 629.321 1293.1 629.421C1304.6 631.221 1339.4 642.021 1346.4 629.321C1348.2 626.021 1347.7 622.021 1346.2 618.921C1338.3 603.121 1309 614.221 1296.2 619.821C1295.2 620.221 1290.6 622.821 1289.6 621.721C1289.5 621.621 1318.8 562.721 1295.2 559.021C1276.5 556.121 1277.8 603.921 1279.6 613.721C1279.7 614.421 1280.9 618.021 1279.8 618.621C1278.8 619.121 1276.6 616.721 1276.1 616.221C1270.2 610.921 1241.7 576.121 1231 584.121C1217.6 594.221 1258.1 620.221 1268.1 623.021C1268.7 623.221 1274.5 624.521 1274.3 625.221C1274.1 626.421 1209.1 645.021 1223.3 667.721C1234.8 686.221 1274 641.921 1281.2 633.821Z" fill="#F7F2EE"/>
<path d="M1281.2 633.821C1281.5 633.221 1280.7 635.121 1280.5 635.721C1280.1 637.121 1279.7 638.621 1279.4 640.121C1278.6 644.221 1278.1 648.421 1277.7 652.621C1277.1 660.321 1278 701.621 1296.7 694.421C1319.3 685.821 1286.8 631.421 1288.1 629.021C1288.5 628.221 1292.4 629.321 1293.1 629.421C1304.6 631.221 1339.4 642.021 1346.4 629.321C1348.2 626.021 1347.7 622.021 1346.2 618.921C1338.3 603.121 1309 614.221 1296.2 619.821C1295.2 620.221 1290.6 622.821 1289.6 621.721C1289.5 621.621 1318.8 562.721 1295.2 559.021C1276.5 556.121 1277.8 603.921 1279.6 613.721C1279.7 614.421 1280.9 618.021 1279.8 618.621C1278.8 619.121 1276.6 616.721 1276.1 616.221C1270.2 610.921 1241.7 576.121 1231 584.121C1217.6 594.221 1258.1 620.221 1268.1 623.021C1268.7 623.221 1274.5 624.521 1274.3 625.221C1274.1 626.421 1209.1 645.021 1223.3 667.721C1234.8 686.221 1274 641.921 1281.2 633.821Z" stroke="black" stroke-width="4" stroke-miterlimit="10" stroke-linecap="round" stroke-linejoin="round"/>
<path fill-rule="evenodd" clip-rule="evenodd" d="M1281.2 628.021C1281.3 628.021 1280.9 628.021 1280.8 628.021C1280.5 628.021 1280.2 628.121 1279.9 628.121C1279.1 628.221 1278.2 628.421 1277.4 628.721C1275.9 629.121 1233.2 656.321 1235.6 659.221C1238.5 662.721 1282 628.921 1282.5 629.021C1282.7 629.021 1282.7 629.821 1282.7 629.921C1283 632.121 1290.9 683.021 1293.7 683.421C1294.4 683.521 1295.2 683.121 1295.7 682.621C1298.3 680.121 1286.5 631.721 1284.7 629.721C1284.6 629.621 1283.8 628.921 1284 628.621C1284 628.621 1338.3 626.521 1337.7 622.021C1337.2 618.421 1286.8 625.321 1285 626.321C1284.9 626.421 1284.2 626.821 1284.1 626.721C1283.9 626.621 1284.3 626.021 1284.3 625.921C1285 624.521 1296.9 574.621 1294.8 573.221C1292.1 571.521 1282.6 622.921 1282.6 624.921C1282.6 625.021 1282.7 626.221 1282.5 626.221C1282.3 626.221 1243.1 591.021 1239.5 595.221C1236.6 598.521 1279.3 627.321 1281.2 628.021Z" fill="black"/>
<path d="M1281.2 628.021C1281.3 628.021 1280.9 628.021 1280.8 628.021C1280.5 628.021 1280.2 628.121 1279.9 628.121C1279.1 628.221 1278.2 628.421 1277.4 628.721C1275.9 629.121 1233.2 656.321 1235.6 659.221C1238.5 662.721 1282 628.921 1282.5 629.021C1282.7 629.021 1282.7 629.821 1282.7 629.921C1283 632.121 1290.9 683.021 1293.7 683.421C1294.4 683.521 1295.2 683.121 1295.7 682.621C1298.3 680.121 1286.5 631.721 1284.7 629.721C1284.6 629.621 1283.8 628.921 1284 628.621C1284 628.621 1338.3 626.521 1337.7 622.021C1337.2 618.421 1286.8 625.321 1285 626.321C1284.9 626.421 1284.2 626.821 1284.1 626.721C1283.9 626.621 1284.3 626.021 1284.3 625.921C1285 624.521 1296.9 574.621 1294.8 573.221C1292.1 571.521 1282.6 622.921 1282.6 624.921C1282.6 625.021 1282.7 626.221 1282.5 626.221C1282.3 626.221 1243.1 591.021 1239.5 595.221C1236.6 598.521 1279.3 627.321 1281.2 628.021Z" stroke="black" stroke-width="4" stroke-miterlimit="10" stroke-linecap="round" stroke-linejoin="round"/>
<path d="M209.5 685.321C209.6 686.021 209.3 683.921 209.2 683.321C208.9 681.821 208.5 680.321 208.1 678.921C206.9 674.821 205.3 670.821 203.6 666.921C200.4 659.621 179.7 623.021 166.3 638.421C150.1 657.121 205.6 690.32 205.6 693.02C205.6 693.92 201.5 694.821 200.9 695.121C189.7 699.121 153.2 706.121 153 720.921C153 724.721 155.3 728.121 158.2 730.121C173 740.521 193.9 716.321 202.7 705.221C203.4 704.421 206.3 699.821 207.7 700.321C207.8 700.321 210 767.521 233 759.321C251.2 752.921 226.9 710.521 220.6 702.621C220.1 702.021 217.3 699.321 218 698.321C218.7 697.421 221.8 698.521 222.5 698.621C230.4 700.521 272.8 718.121 278.5 705.621C285.6 690.021 236.7 686.22 226.4 688.52C225.8 688.62 220 690.22 219.8 689.52C219.4 688.32 268.9 640.221 245.1 626.721C226 615.821 212.1 674.621 209.5 685.321Z" stroke="black" stroke-width="4" stroke-miterlimit="10" stroke-linecap="round" stroke-linejoin="round"/>
<path fill-rule="evenodd" clip-rule="evenodd" d="M212.3 690.621C212.2 690.721 212.5 690.521 212.7 690.421C213 690.221 213.2 690.121 213.5 689.921C214.2 689.421 214.8 688.821 215.5 688.221C216.7 687.121 222.3 680.621 218.7 679.221C214.4 677.521 211.2 690.321 210.7 690.521C210.5 690.621 210.1 689.921 210.1 689.821C208.8 688.021 205.5 681.621 202.8 682.621C202.1 682.921 201.6 683.521 201.4 684.221C200.3 687.721 205.9 690.021 208.4 690.821C208.6 690.921 209.6 691.121 209.6 691.421C209.6 691.421 197.3 696.621 200.1 700.321C202.3 703.321 208.8 695.721 209.9 694.021C210 693.921 210.3 693.221 210.5 693.221C210.7 693.321 210.7 693.921 210.7 694.121C210.8 695.721 209.8 705.021 212.4 705.221C215.7 705.421 213.7 695.921 212.7 694.221C212.6 694.121 212 693.121 212.1 693.021C212.3 692.821 223.8 698.821 225.1 693.321C226 688.821 214.4 690.321 212.3 690.621Z" fill="black"/>
<path d="M212.3 690.621C212.2 690.721 212.5 690.521 212.7 690.421C213 690.221 213.2 690.121 213.5 689.921C214.2 689.421 214.8 688.821 215.5 688.221C216.7 687.121 222.3 680.621 218.7 679.221C214.4 677.521 211.2 690.321 210.7 690.521C210.5 690.621 210.1 689.921 210.1 689.821C208.8 688.021 205.5 681.621 202.8 682.621C202.1 682.921 201.6 683.521 201.4 684.221C200.3 687.721 205.9 690.021 208.4 690.821C208.6 690.921 209.6 691.121 209.6 691.421C209.6 691.421 197.3 696.621 200.1 700.321C202.3 703.321 208.8 695.721 209.9 694.021C210 693.921 210.3 693.221 210.5 693.221C210.7 693.321 210.7 693.921 210.7 694.121C210.8 695.721 209.8 705.021 212.4 705.221C215.7 705.421 213.7 695.921 212.7 694.221C212.6 694.121 212 693.121 212.1 693.021C212.3 692.821 223.8 698.821 225.1 693.321C226 688.821 214.4 690.321 212.3 690.621Z" stroke="black" stroke-width="4" stroke-miterlimit="10" stroke-linecap="round" stroke-linejoin="round"/>
<path fill-rule="evenodd" clip-rule="evenodd" d="M296.2 1108.72C295.7 1109.22 308.3 1113.02 309 1113.12C317.8 1115.32 325.4 1121.02 334.2 1122.52C377.1 1130.22 435.2 1107.42 453.5 1098.02C485.6 1081.62 490.3 1074.42 513.2 1045.52C519.1 1038.12 524.3 1030.02 527.2 1021.02C528.4 1017.32 527.6 1005.92 530.8 1003.32C534.7 1000.22 579.5 1042.12 519.1 1089.92C473.4 1126.02 411.9 1153.62 353.9 1156.32C335.2 1157.22 295.4 1147.92 296.2 1108.72Z" fill="black"/>
<path d="M296.2 1108.72C295.7 1109.22 308.3 1113.02 309 1113.12C317.8 1115.32 325.4 1121.02 334.2 1122.52C377.1 1130.22 435.2 1107.42 453.5 1098.02C485.6 1081.62 490.3 1074.42 513.2 1045.52C519.1 1038.12 524.3 1030.02 527.2 1021.02C528.4 1017.32 527.6 1005.92 530.8 1003.32C534.7 1000.22 579.5 1042.12 519.1 1089.92C473.4 1126.02 411.9 1153.62 353.9 1156.32C335.2 1157.22 295.4 1147.92 296.2 1108.72Z" stroke="black" stroke-width="8" stroke-miterlimit="10" stroke-linecap="round" stroke-linejoin="round"/>
<path fill-rule="evenodd" clip-rule="evenodd" d="M943.3 340.721C943.9 342.021 945.3 338.821 946.3 337.821C949 335.121 956.9 325.821 961.4 328.321C967.4 331.621 960.5 349.721 973.3 356.221C981.5 360.421 999.4 366.821 1008.9 365.221C1015.9 364.021 1021 352.221 1029.1 355.421C1037.9 358.821 1030.4 376.821 1031.4 383.921C1033.9 401.821 1065.9 399.021 1052.9 425.121C1047.1 436.721 1026.8 460.121 1012 460.221C976.6 460.421 916.8 426.021 898.7 402.021C885.8 384.921 898.7 358.821 920.5 344.821C927.2 340.521 934 343.821 940.8 341.521" fill="#F7F2EE"/>
<path d="M943.3 340.721C943.9 342.021 945.3 338.821 946.3 337.821C949 335.121 956.9 325.821 961.4 328.321C967.4 331.621 960.5 349.721 973.3 356.221C981.5 360.421 999.4 366.821 1008.9 365.221C1015.9 364.021 1021 352.221 1029.1 355.421C1037.9 358.821 1030.4 376.821 1031.4 383.921C1033.9 401.821 1065.9 399.021 1052.9 425.121C1047.1 436.721 1026.8 460.121 1012 460.221C976.6 460.421 916.8 426.021 898.7 402.021C885.8 384.921 898.7 358.821 920.5 344.821C927.2 340.521 934 343.821 940.8 341.521" stroke="#161616" stroke-width="8" stroke-miterlimit="10" stroke-linecap="round" stroke-linejoin="round"/>
<path fill-rule="evenodd" clip-rule="evenodd" d="M967.3 358.221C967.9 357.221 967.1 368.821 969.3 369.821C972.4 371.321 975.8 363.821 978.8 363.821C981.7 363.821 979.5 371.921 982.3 372.521C986.2 373.421 987.5 365.921 990.9 366.221C991.9 366.321 993.5 380.021 997.5 374.621C1005.6 363.721 976.7 359.921 971.9 359.621" fill="#F7F2EE"/>
<path d="M967.3 358.221C967.9 357.221 967.1 368.821 969.3 369.821C972.4 371.321 975.8 363.821 978.8 363.821C981.7 363.821 979.5 371.921 982.3 372.521C986.2 373.421 987.5 365.921 990.9 366.221C991.9 366.321 993.5 380.021 997.5 374.621C1005.6 363.721 976.7 359.921 971.9 359.621" stroke="black" stroke-width="8" stroke-miterlimit="10" stroke-linecap="round" stroke-linejoin="round"/>
<path fill-rule="evenodd" clip-rule="evenodd" d="M992 461.921C979.2 469.821 975.5 502.321 996.2 500.821C1021.5 499.021 1026.1 468.121 1002.4 461.221" fill="#F7F2EE"/>
<path d="M992 461.921C979.2 469.821 975.5 502.321 996.2 500.821C1021.5 499.021 1026.1 468.121 1002.4 461.221" stroke="#161616" stroke-width="8" stroke-miterlimit="10" stroke-linecap="round" stroke-linejoin="round"/>
<path fill-rule="evenodd" clip-rule="evenodd" d="M893.7 400.121C865.6 398.321 866.9 441.221 887.5 439.721C912.8 438.021 917.4 407.021 893.7 400.121Z" fill="#F7F2EE"/>
<path d="M893.7 400.121C865.6 398.321 866.9 441.221 887.5 439.721C912.8 438.021 917.4 407.021 893.7 400.121Z" stroke="#161616" stroke-width="8" stroke-miterlimit="10" stroke-linecap="round" stroke-linejoin="round"/>
<path fill-rule="evenodd" clip-rule="evenodd" d="M1050.4 278.321C1032.2 294.521 1001.9 318.121 984.8 354.621L1050.4 278.321Z" fill="#F7F2EE"/>
<path opacity="0.9116" d="M1050.4 278.321C1032.2 294.521 1001.9 318.121 984.8 354.621" stroke="#161616" stroke-width="4" stroke-miterlimit="10" stroke-linecap="round" stroke-linejoin="round"/>
<path fill-rule="evenodd" clip-rule="evenodd" d="M995.7 276.621C994.9 276.821 997.2 277.321 998 277.621C999.6 278.521 1001.2 279.521 1002.7 280.521C1007.5 283.821 1009.5 287.521 1011.3 292.821" fill="#F7F2EE"/>
<path opacity="0.9116" d="M995.7 276.621C994.9 276.821 997.2 277.321 998 277.621C999.6 278.521 1001.2 279.521 1002.7 280.521C1007.5 283.821 1009.5 287.521 1011.3 292.821" stroke="#F7F2EE" stroke-width="4" stroke-miterlimit="10" stroke-linecap="round" stroke-linejoin="round"/>
<path fill-rule="evenodd" clip-rule="evenodd" d="M1062.6 326.521C1063.4 326.521 1061.1 327.021 1060.4 327.121C1058.9 327.321 1057.4 327.321 1055.8 327.121C1050.6 326.521 1047.7 324.521 1044.2 321.021" fill="#F7F2EE"/>
<path opacity="0.9116" d="M1062.6 326.521C1063.4 326.521 1061.1 327.021 1060.4 327.121C1058.9 327.321 1057.4 327.321 1055.8 327.121C1050.6 326.521 1047.7 324.521 1044.2 321.021" stroke="#F7F2EE" stroke-width="4" stroke-miterlimit="10" stroke-linecap="round" stroke-linejoin="round"/>
<path fill-rule="evenodd" clip-rule="evenodd" d="M990 396.721C1000.9 401.721 994.1 398.421 1000.9 401.421L990 396.721Z" fill="#F7F2EE"/>
<path d="M990 396.721C1000.9 401.721 994.1 398.421 1000.9 401.421" stroke="#161616" stroke-width="4" stroke-miterlimit="10" stroke-linecap="round" stroke-linejoin="round"/>
<path fill-rule="evenodd" clip-rule="evenodd" d="M947.3 376.521C958.2 381.521 951.4 378.221 958.2 381.221L947.3 376.521Z" fill="#F7F2EE"/>
<path d="M947.3 376.521C958.2 381.521 951.4 378.221 958.2 381.221" stroke="#161616" stroke-width="4" stroke-miterlimit="10" stroke-linecap="round" stroke-linejoin="round"/>
<path fill-rule="evenodd" clip-rule="evenodd" d="M962.8 398.521C956.5 403.521 971.8 413.321 974.3 406.621C975.2 404.221 977.7 389.221 962.8 398.521Z" fill="#F7F2EE"/>
<path d="M962.8 398.521C956.5 403.521 971.8 413.321 974.3 406.621C975.2 404.221 977.7 389.221 962.8 398.521Z" stroke="#161616" stroke-width="4" stroke-miterlimit="10" stroke-linecap="round" stroke-linejoin="round"/>
<path fill-rule="evenodd" clip-rule="evenodd" d="M965.4 409.521C967 408.921 959.7 417.421 949.2 415.421C944.2 414.521 930.4 405.321 935.2 393.621" fill="#F7F2EE"/>
<path d="M965.4 409.521C967 408.921 959.7 417.421 949.2 415.421C944.2 414.521 930.4 405.321 935.2 393.621" stroke="#161616" stroke-width="4" stroke-miterlimit="10" stroke-linecap="round" stroke-linejoin="round"/>
<path fill-rule="evenodd" clip-rule="evenodd" d="M966.6 409.821C961.4 415.321 970.1 424.721 975.1 427.721C990.5 437.021 995.5 426.921 998 424.821" fill="#F7F2EE"/>
<path d="M966.6 409.821C961.4 415.321 970.1 424.721 975.1 427.721C990.5 437.021 995.5 426.921 998 424.821" stroke="#161616" stroke-width="4" stroke-miterlimit="10" stroke-linecap="round" stroke-linejoin="round"/>
</svg>
