<svg width="1500" height="1500" viewBox="0 0 1500 1500" fill="none" xmlns="http://www.w3.org/2000/svg">
<rect width="1500" height="1500" fill="#F7F2EE"/>
<path d="M221.1 299.5C223 300.6 223.3 299.4 221.1 299.5C216.1 299.9 211.7 301.9 208.8 305.7C199.3 318 193.6 333.9 187.4 347.9C179.6 365.7 172.7 383.9 166.3 402.2C155.8 432.2 146.6 450.3 164.2 457.6C178.2 463.4 228.2 480.8 238 472.4C253.5 459.1 299.6 341.8 295.1 325.2C291.5 312.2 244.3 300.6 221.1 299.5Z" stroke="black" stroke-width="8" stroke-miterlimit="10" stroke-linecap="round" stroke-linejoin="round"/>
<path d="M157 442.3C156.6 440.1 224.7 466.5 232.3 459.8C243.4 450 278.1 354.6 289 321.1" stroke="black" stroke-width="4" stroke-miterlimit="10" stroke-linecap="round" stroke-linejoin="round"/>
<path d="M230.899 461.1C232.099 465.3 234.7 472 235.5 475.2" stroke="black" stroke-width="4" stroke-miterlimit="10" stroke-linecap="round" stroke-linejoin="round"/>
<path d="M213.8 318.5C214 318 213.1 319.4 212.8 319.9C212.5 320.4 212.2 321 211.9 321.5C210.7 323.7 209.5 325.899 208.4 328.199C205.2 334.599 187.4 375.9 182.4 390.6C180.7 395.7 174.3 408.1 175.5 409.8C177.3 412.5 231.8 430.2 233.8 430.9C237.2 432.1 266.9 343.4 267.7 339.4C269.1 332.5 266.4 332.899 259.4 330.699C257 329.999 254.6 329.299 252.1 328.699C247.9 327.599 243.8 326.6 239.6 325.4C232.6 323.4 220.9 320.2 213.8 318.5Z" stroke="black" stroke-width="4" stroke-miterlimit="10" stroke-linecap="round" stroke-linejoin="round"/>
<path d="M212.399 355.4C211.399 356.1 214.699 354.4 215.899 353.9C218.399 352.7 221 351.5 223.5 350.3" stroke="black" stroke-width="4" stroke-miterlimit="10" stroke-linecap="round" stroke-linejoin="round"/>
<path d="M204.899 374.3C204.999 374.3 205.599 373.7 205.699 373.7C208.699 371.2 212.299 369.2 215.699 367.1C227.499 359.6 239.5 352.2 251.5 345.1" stroke="black" stroke-width="4" stroke-miterlimit="10" stroke-linecap="round" stroke-linejoin="round"/>
<path d="M230.8 311.2C232.6 312.2 235 312.6 237 313.2C241.7 314.5 246.5 315.4 251.3 315.8" stroke="black" stroke-width="4" stroke-miterlimit="10" stroke-linecap="round" stroke-linejoin="round"/>
<path d="M195 428.7C193.6 428.9 192.499 430.6 191.799 431.7C189.499 435.4 190.099 440.5 195.399 441.6C204.499 443.3 206.399 431.8 198.299 428.9" stroke="black" stroke-width="4" stroke-miterlimit="10" stroke-linecap="round" stroke-linejoin="round"/>
<path fill-rule="evenodd" clip-rule="evenodd" d="M689.099 1083.3C686.299 1083.8 694.799 1082.4 697.599 1082.6C703.299 1083 709 1083.6 714.7 1084.2C731.5 1085.8 748.399 1086.6 764.899 1090C825.599 1102.3 881.8 1165.7 880.8 1055.4C880.1 974 736.3 1048.2 704.3 1065.5" fill="#DB422F"/>
<path d="M689.099 1083.3C686.299 1083.8 694.799 1082.4 697.599 1082.6C703.299 1083 709 1083.6 714.7 1084.2C731.5 1085.8 748.399 1086.6 764.899 1090C825.599 1102.3 881.8 1165.7 880.8 1055.4C880.1 974 736.3 1048.2 704.3 1065.5" stroke="black" stroke-width="8" stroke-miterlimit="10" stroke-linecap="round" stroke-linejoin="round"/>
<path fill-rule="evenodd" clip-rule="evenodd" d="M850.9 1034.4C835.2 1045.1 830 1070.1 831.7 1098C835 1153.5 865.1 1220.9 892.1 1212.2C918.2 1203.8 893 1157.7 905.7 1084.8C912 1049 886.5 1032.2 859.6 1031.6" fill="#F7F2EE"/>
<path d="M850.9 1034.4C835.2 1045.1 830 1070.1 831.7 1098C835 1153.5 865.1 1220.9 892.1 1212.2C918.2 1203.8 893 1157.7 905.7 1084.8C912 1049 886.5 1032.2 859.6 1031.6" stroke="black" stroke-width="8" stroke-miterlimit="10" stroke-linecap="round" stroke-linejoin="round"/>
<path fill-rule="evenodd" clip-rule="evenodd" d="M797 840.1C798.2 840.4 796.3 842.5 796.2 843.7C795.5 848.3 795.3 853 795.5 857.6C796.2 871.5 793.799 893.3 802.599 905.7C828.699 942.4 861.6 892.3 905.8 880.8C925.9 875.5 948.5 876.4 974.2 892.6C991.5 903.5 1002.8 926.3 1005.9 950.6C1010.3 984.6 998.7 1021.5 965.8 1032.9C942.4 1040.9 899.3 1047.5 873.3 1053.1C816.3 1065.5 751.299 1074.4 700.4 1080.5C666.4 1084.6 628.7 1091.7 597.2 1106C581.4 1113.2 570.9 1123.9 557.7 1134.5C556.7 1135.3 554.4 1137.4 553 1136.3C547.2 1131.8 548.8 1108.1 548.3 1101.6C547.4 1089.9 543.2 1072.8 548.1 1061.6C561.7 1030.8 660.299 1000.2 690.4 992.5C715.6 986.1 742.1 983.2 769.8 984.1C769.8 984.1 759.299 981 753.9 981.1C726 981.6 697.2 988.1 670.8 997C652.8 1003 634.199 1007.9 616.9 1015.7C588.9 1028.3 555.6 1053.2 524.6 1055.6C507 1057 496.2 1050.7 479.6 1055C392.8 1077.3 337.5 958.4 396.6 898.2C439 855 549.9 956.3 606.9 918.5C626.6 905.5 639.8 891.7 797 840.1Z" fill="#DB422F"/>
<path d="M797 840.1C798.2 840.4 796.3 842.5 796.2 843.7C795.5 848.3 795.3 853 795.5 857.6C796.2 871.5 793.799 893.3 802.599 905.7C828.699 942.4 861.6 892.3 905.8 880.8C925.9 875.5 948.5 876.4 974.2 892.6C991.5 903.5 1002.8 926.3 1005.9 950.6C1010.3 984.6 998.7 1021.5 965.8 1032.9C942.4 1040.9 899.3 1047.5 873.3 1053.1C816.3 1065.5 751.3 1074.4 700.4 1080.5C666.4 1084.6 628.7 1091.7 597.2 1106C581.4 1113.2 570.9 1123.9 557.7 1134.5C556.7 1135.3 554.4 1137.4 553 1136.3C547.2 1131.8 548.8 1108.1 548.3 1101.6C547.4 1089.9 543.2 1072.8 548.1 1061.6C561.7 1030.8 660.3 1000.2 690.4 992.5C715.6 986.1 742.1 983.2 769.8 984.1C769.8 984.1 759.3 981 753.9 981.1C726 981.6 697.2 988.1 670.8 997C652.8 1003 634.2 1007.9 616.9 1015.7C588.9 1028.3 555.6 1053.2 524.6 1055.6C507 1057 496.2 1050.7 479.6 1055C392.8 1077.3 337.5 958.4 396.6 898.2C439 855 549.9 956.3 606.9 918.5C626.6 905.5 639.8 891.7 797 840.1Z" stroke="black" stroke-width="8" stroke-miterlimit="10" stroke-linecap="round" stroke-linejoin="round"/>
<path d="M677.7 899C678.2 899.5 674.6 905.1 674.4 905.5C665.3 920.5 654.7 935.8 640.2 945.7C626.6 954.9 608.9 958.7 592.8 958.4C547.3 957.5 453.2 900.4 417.2 918.8C383.3 936.2 399.3 998 420.7 1018.7C435.3 1032.8 456.4 1039.3 474.9 1046.2" stroke="#F7F2EE" stroke-width="4" stroke-miterlimit="10" stroke-linecap="round" stroke-linejoin="round"/>
<path d="M690.2 904.4C681.4 929.7 650.4 970.6 611.9 969.7C577.7 969 548.9 963.8 517 952.3C497.6 945.3 476.6 943.7 456.5 942.9C446.6 942.5 437 947.8 433.3 957.9C419.5 995.4 463 1014.6 487.1 1029.7" stroke="#F7F2EE" stroke-width="4" stroke-miterlimit="10" stroke-linecap="round" stroke-linejoin="round"/>
<path d="M524.2 1020C513.5 1012.3 454.2 986.2 471 965.8C484 950 539.7 979 555.3 982.5C624.2 997.6 699.9 984.9 719.5 900.5" stroke="#F7F2EE" stroke-width="4" stroke-miterlimit="10" stroke-linecap="round" stroke-linejoin="round"/>
<path d="M597.099 1009.1C597.199 1009.2 596.5 1009 596.3 1009C589.5 1008 582.8 1005.3 576.2 1003.3C568.2 1000.9 530 988.399 524.3 995.699C517.7 1004.1 563.7 1019.8 573 1024.2" stroke="#F7F2EE" stroke-width="4" stroke-miterlimit="10" stroke-linecap="round" stroke-linejoin="round"/>
<path d="M737.4 903.7C734.6 912.8 731.7 921.7 728.9 930.8C722.9 950.6 715.3 968 697 979" stroke="#F7F2EE" stroke-width="4" stroke-miterlimit="10" stroke-linecap="round" stroke-linejoin="round"/>
<path d="M751.7 896.6C752 893.8 751.4 902.2 751.2 904.9C750.8 910.1 750.2 915.3 749.5 920.5C747.2 937 745.4 954.4 738.4 969.6" stroke="#F7F2EE" stroke-width="4" stroke-miterlimit="10" stroke-linecap="round" stroke-linejoin="round"/>
<path d="M776.599 875.2C775.599 872.7 775.9 880.5 775.9 883.2C776 890.4 777.2 897.499 779 904.499C784.6 925.299 799.7 934.9 820.2 935.8C869 938 948.4 860.799 981.8 936.499C988.8 952.299 991.2 970 984 986.3C961.8 1036 890.7 1024.9 848.3 1027.6C766.8 1032.8 634.5 1055.9 566.5 1101.6" stroke="#F7F2EE" stroke-width="4" stroke-miterlimit="10" stroke-linecap="round" stroke-linejoin="round"/>
<path d="M762.9 887.301C765.8 886.101 762.5 893.7 762.5 896.9C762.4 904.2 763.1 911.5 764.4 918.7C767.6 937.7 780 950.2 798.3 954.6C840.4 964.7 881.7 934 922.3 944C942.1 948.9 957.5 972.8 938.9 989.2C906.1 1018.1 830.3 1009.4 789.4 1012C711 1017 635.7 1035.2 567.8 1075.2" stroke="#F7F2EE" stroke-width="4" stroke-miterlimit="10" stroke-linecap="round" stroke-linejoin="round"/>
<path d="M807.2 980.1C807.2 980.2 808.099 979.999 808.099 979.999C810.999 979.599 813.799 978.8 816.599 978.1C822.299 976.5 828.1 975.099 833.8 973.499C844.7 970.499 906.599 952.599 910.599 971.499C912.599 980.699 895.699 983.5 890.099 984.4C866.699 988.4 830.5 983 807.2 980.1Z" stroke="#F7F2EE" stroke-width="4" stroke-miterlimit="10" stroke-linecap="round" stroke-linejoin="round"/>
<path d="M1064.2 853C1062.8 852.6 1067.1 853 1068.5 852.7C1071.2 852.1 1073.8 851.4 1076.4 850.6C1084.4 848.2 1094.5 843.901 1097 834.801C1104 809.101 1087.4 785 1101.2 764.9C1114.9 745 1138.5 741.7 1146.3 742.6C1165.9 744.7 1171.1 765 1161 779C1148.2 796.7 1139.4 781 1130.3 782.2C1113 784.5 1115.6 815.3 1119.7 821.9C1122 825.6 1124.5 829.5 1128.1 831.9C1152.7 848.1 1175.2 819.3 1177.2 810.4C1180.3 796.4 1155.3 791.9 1167.3 776.2C1197.5 736.8 1233.2 788.8 1207.4 823.4C1191.4 844.9 1170.4 845.901 1170.1 850.301C1170.1 850.501 1170.1 850.5 1170.1 850.6C1170.4 853 1159.3 868.5 1181.8 872.7C1238.7 883.3 1252.3 910.6 1246.1 919.6C1234.1 936.8 1189.9 909 1178.2 902C1172 898.3 1166.1 894.2 1160 890.5C1157.1 888.8 1154.5 886.8 1151.7 884.9C1151.7 884.9 1151.1 884.5 1151.1 884.7C1151.1 884.9 1152.4 885.6 1152.5 885.7C1157.6 889.2 1162.9 892.5 1168.1 895.9C1174.9 900.3 1242.9 928.6 1229.2 949.5C1216.5 969 1172.7 930.501 1157.9 918.801C1149.6 912.201 1142.5 906.4 1142.7 906C1142.8 905.7 1144.4 906.801 1144.5 906.801C1150.9 911.001 1157.1 915.701 1163.2 920.301C1169.2 924.801 1217.5 951.601 1204 972.801C1194.1 988.401 1171.6 979.7 1166.7 970C1140.1 917.1 1117.1 917 1107.6 912.9C1106.2 912.3 1103.1 912.3 1099.3 911.6C1081.3 908 1086.7 903.4 1086.5 898.2C1086.1 885 1082.6 866.5 1082.7 863.6C1083.3 856.2 1071.4 858.5 1064.2 853Z" stroke="black" stroke-width="8" stroke-miterlimit="10" stroke-linecap="round" stroke-linejoin="round"/>
<path fill-rule="evenodd" clip-rule="evenodd" d="M650.7 568.9C647.9 572.5 648.4 577.7 644 581.5C626.7 596.6 575.6 570.1 551.8 574.3C509.4 581.9 487.7 649.299 483.5 682.199C475.4 745.099 498.1 854.499 537 904.499C563.5 938.599 606.3 959.699 643.1 926.999C668.3 904.599 670.6 865 672.8 833.4C673 830.4 674.1 799.8 672.4 799.8C634.3 799.3 607.5 804.7 607.6 805.1C610.3 813.6 624.5 883.3 585 849.6C583.9 848.7 582.7 847.5 581.4 845.9C541.7 795.8 569.2 700 599.6 685.4C623.3 674 617.4 749.499 620.1 764.999C626.6 802.099 620.6 833.3 644.5 866.9C665.2 896.1 692.9 896.099 725.9 894.199C743.9 893.199 759.1 886.1 773 874.4C809.1 843.9 805.4 780.199 812.5 737.499C813.2 733.499 818.6 686.5 820 685.6L820.2 685.499C824.1 683.799 834.2 716.899 835.3 720.699C843.3 748.899 861 799.3 874.6 818.1C909.1 865.9 938.6 878.2 973.7 889.1C1008.8 900 1093.8 892.2 1085 883.6C1083.2 881.9 1083.9 875.3 1077.7 872.9C1058.7 865.9 1009.9 862.8 983.1 862.9C979.7 862.9 1011.3 901.9 1042.7 905.8C1074.9 909.8 1084.5 912.699 1085.9 900.499C1086.8 892.699 1082.8 857.099 1077.7 850.499C1076.8 849.299 1054.6 850.599 1047.6 849.499C1044.6 848.999 1041.3 848.6 1038.1 848.1C1029.5 846.9 1021.3 846 1018.8 845.4C993 839.1 974.2 821.7 953.5 803.9C897.9 755.9 905.1 673.1 902.3 656.8C896.8 625 886.9 579.9 843.8 573.8C798.9 567.5 788 596.3 757.1 583.5C743.3 577.7 746.1 563.7 738.9 563.4C733.8 563.2 728.8 572.499 724.3 575.199C718.2 578.799 710.8 580.3 703.9 581.6C685.7 585.1 670.8 571.3 654.7 565.6" fill="#6773FF"/>
<path d="M650.7 568.9C647.9 572.5 648.4 577.7 644 581.5C626.7 596.6 575.6 570.1 551.8 574.3C509.4 581.9 487.7 649.299 483.5 682.199C475.4 745.099 498.1 854.499 537 904.499C563.5 938.599 606.3 959.699 643.1 926.999C668.3 904.599 670.6 865 672.8 833.4C673 830.4 674.1 799.8 672.4 799.8C634.3 799.3 607.5 804.7 607.6 805.1C610.3 813.6 624.5 883.3 585 849.6C583.9 848.7 582.7 847.5 581.4 845.9C541.7 795.8 569.2 700 599.6 685.4C623.3 674 617.4 749.499 620.1 764.999C626.6 802.099 620.6 833.3 644.5 866.9C665.2 896.1 692.9 896.099 725.9 894.199C743.9 893.199 759.1 886.1 773 874.4C809.1 843.9 805.4 780.199 812.5 737.499C813.2 733.499 818.6 686.5 820 685.6L820.2 685.499C824.1 683.799 834.2 716.899 835.3 720.699C843.3 748.899 861 799.3 874.6 818.1C909.1 865.9 938.6 878.2 973.7 889.1C1008.8 900 1093.8 892.2 1085 883.6C1083.2 881.9 1083.9 875.3 1077.7 872.9C1058.7 865.9 1009.9 862.8 983.1 862.9C979.7 862.9 1011.3 901.9 1042.7 905.8C1074.9 909.8 1084.5 912.699 1085.9 900.499C1086.8 892.699 1082.8 857.099 1077.7 850.499C1076.8 849.299 1054.6 850.599 1047.6 849.499C1044.6 848.999 1041.3 848.6 1038.1 848.1C1029.5 846.9 1021.3 846 1018.8 845.4C993 839.1 974.2 821.7 953.5 803.9C897.9 755.9 905.1 673.1 902.3 656.8C896.8 625 886.9 579.9 843.8 573.8C798.9 567.5 788 596.3 757.1 583.5C743.3 577.7 746.1 563.7 738.9 563.4C733.8 563.2 728.8 572.499 724.3 575.199C718.2 578.799 710.8 580.3 703.9 581.6C685.7 585.1 670.8 571.3 654.7 565.6" stroke="black" stroke-width="8" stroke-miterlimit="10" stroke-linecap="round" stroke-linejoin="round"/>
<path fill-rule="evenodd" clip-rule="evenodd" d="M655.6 518.9C654.3 519.4 659 538.3 658.2 543C655.7 557 646.1 566.1 662.6 576.1C670.4 580.9 678.2 585.6 686.9 586.2C731.5 589.6 739.6 569.1 741 563.5C741.6 560.9 732.8 540.5 736.8 521.2C736.9 520.7 729.8 517.8 729.4 517.9C709.6 523.1 675.7 521 655.6 518.9Z" fill="#F7F2EE"/>
<path d="M655.6 518.9C654.3 519.4 659 538.3 658.2 543C655.7 557 646.1 566.1 662.6 576.1C670.4 580.9 678.2 585.6 686.9 586.2C731.5 589.6 739.6 569.1 741 563.5C741.6 560.9 732.8 540.5 736.8 521.2C736.9 520.7 729.8 517.8 729.4 517.9C709.6 523.1 675.7 521 655.6 518.9Z" stroke="black" stroke-width="8" stroke-miterlimit="10" stroke-linecap="round" stroke-linejoin="round"/>
<path fill-rule="evenodd" clip-rule="evenodd" d="M626.099 430.9C625.599 432.1 625.599 428.3 625.099 427.1C623.999 424.5 622.6 422.2 620.9 419.9C615.4 412.4 608.4 406.6 600 402.7C576.7 391.9 548.5 393.1 527.5 408.9C495.8 432.9 494.9 469.1 475.9 500.7C469.7 511 460.5 520.3 448.8 523.2C445 524.2 441.1 524.4 437.2 524.5C436.8 524.5 431.6 524.1 431.6 524.1C431.7 523.8 434.8 525.1 435 525.2C445.4 529.3 455.5 534.1 465.8 538.3C487.1 547 513.5 551 536.3 548.4C552.5 546.6 568.3 540 581.2 529.7C596.1 517.8 633.8 463 626.2 439.7" fill="black"/>
<path d="M626.099 430.9C625.599 432.1 625.599 428.3 625.099 427.1C623.999 424.5 622.6 422.2 620.9 419.9C615.4 412.4 608.4 406.6 600 402.7C576.7 391.9 548.5 393.1 527.5 408.9C495.8 432.9 494.9 469.1 475.9 500.7C469.7 511 460.5 520.3 448.8 523.2C445 524.2 441.1 524.4 437.2 524.5C436.8 524.5 431.6 524.1 431.6 524.1C431.7 523.8 434.8 525.1 435 525.2C445.4 529.3 455.5 534.1 465.8 538.3C487.1 547 513.5 551 536.3 548.4C552.5 546.6 568.3 540 581.2 529.7C596.1 517.8 633.8 463 626.2 439.7" stroke="black" stroke-width="8" stroke-miterlimit="10" stroke-linecap="round" stroke-linejoin="round"/>
<path fill-rule="evenodd" clip-rule="evenodd" d="M769.599 431.3C770.199 432.4 769.9 428.6 770.2 427.4C771 424.7 772.2 422.2 773.7 419.8C778.4 411.7 784.8 405.3 792.7 400.7C814.7 387.7 842.7 386.1 864.8 399.8C898.4 420.6 902.7 456.5 924.5 486.1C931.6 495.7 941.6 504.1 953.4 505.8C957.2 506.4 961.2 506.2 965 505.9C965.4 505.9 970.5 505 970.5 505C970.3 504.7 967.4 506.3 967.2 506.4C957.3 511.5 947.8 517.2 938 522.5C917.8 533.3 892.1 539.8 869.4 539.5C853.2 539.3 837 534.3 823.3 525.3C807.5 514.9 765 464.1 770.3 440.2" fill="black"/>
<path d="M769.599 431.3C770.199 432.4 769.9 428.6 770.2 427.4C771 424.7 772.2 422.2 773.7 419.8C778.4 411.7 784.8 405.3 792.7 400.7C814.7 387.7 842.7 386.1 864.8 399.8C898.4 420.6 902.7 456.5 924.5 486.1C931.6 495.7 941.6 504.1 953.4 505.8C957.2 506.4 961.2 506.2 965 505.9C965.4 505.9 970.5 505 970.5 505C970.3 504.7 967.4 506.3 967.2 506.4C957.3 511.5 947.8 517.2 938 522.5C917.8 533.3 892.1 539.8 869.4 539.5C853.2 539.3 837 534.3 823.3 525.3C807.5 514.9 765 464.1 770.3 440.2" stroke="black" stroke-width="8" stroke-miterlimit="10" stroke-linecap="round" stroke-linejoin="round"/>
<path d="M609.3 430.4C608 431.9 607.699 426.8 606.399 425.3C603.299 421.6 599.199 418.6 595.099 416.1C583.899 409.2 570.5 407.7 558.3 412.7C523.6 426.8 511.3 466.7 489.6 494.6C487.1 497.8 467.199 519.1 468.899 522C469.399 522.8 470.7 522.2 471.3 521.9C481.1 517.1 489.3 507.3 496.6 499.3C497.1 498.8 497.6 498.2 498.1 497.7C511.2 483.3 568.599 413.2 592.899 427.6C601.099 432.5 586.3 446.4 583.2 449.3C564.6 467.1 542.1 479.7 522 495.3C519.4 497.3 499.999 513 502.899 515.8C506.799 519.6 524.5 506.9 527.6 505.1C547.5 493.1 565.5 478.7 583.2 463.5C586.4 460.7 596.9 449 602.2 450.8C606.5 452.3 591.6 468.5 588.3 472C572.9 488 555.099 501 538.899 516C536.599 518.1 523.2 529.2 527.8 533.5C534.4 539.6 552.4 528.9 558.1 525.6C572.3 517.7 637.5 467.4 609.3 430.4Z" stroke="#F7F2EE" stroke-width="4" stroke-miterlimit="10" stroke-linecap="round" stroke-linejoin="round"/>
<path d="M793.9 414.9C792.1 415.5 797.6 414.2 799.5 413.9C803.1 413.4 806.8 412.8 810.4 412.4C821.9 411.1 833.5 410.9 844.7 414.5C884.4 427.3 883 456.5 907.1 482.3C910.6 486.1 933.7 499.4 929.9 505.8C924.9 514.1 900.5 492.5 897.3 489.4C885.9 478.5 813.4 414.1 796 429C794.8 430 804.9 435.8 805.5 436.2C811.7 440.1 818 443.8 824.2 447.6C836.8 455.3 905.1 508.6 900.4 517.3C899.2 519.5 894.5 517.7 892.9 517.1C872.2 508.9 821.6 464.8 813.3 463C812.9 462.9 815.4 465.3 819.8 469.2C822.7 471.8 825.7 474.4 828.7 476.9C834.4 481.8 878.2 515 869.1 522.8C855.6 534.4 816.6 500 809.4 489.6C802.3 479.2 798.7 468 796.3 455.7" stroke="#F7F2EE" stroke-width="4" stroke-miterlimit="10" stroke-linecap="round" stroke-linejoin="round"/>
<path fill-rule="evenodd" clip-rule="evenodd" d="M671.5 341.4C671.2 341 671.7 341.2 671.5 341.4C644.7 356.2 637.399 385.6 633.399 402.3C622.099 449.2 648.5 552.3 701 548.7C760 544.6 772.299 417.3 753.199 369.6C742.399 342.4 701.2 321.3 671.5 341.4Z" fill="#F7F2EE"/>
<path d="M671.5 341.4C671.2 341 671.7 341.2 671.5 341.4C644.7 356.2 637.399 385.6 633.399 402.3C622.099 449.2 648.5 552.3 701 548.7C760 544.6 772.299 417.3 753.199 369.6C742.399 342.4 701.2 321.3 671.5 341.4Z" stroke="black" stroke-width="8" stroke-miterlimit="10" stroke-linecap="round" stroke-linejoin="round"/>
<path fill-rule="evenodd" clip-rule="evenodd" d="M630.599 421C629.799 421.1 629.199 415.1 629.099 414.6C626.699 397.3 628.1 379 633 362.4C648.7 308.5 725.9 300.2 755 347.9C761.7 358.8 763.5 373.3 764.8 385.9C769.7 431.4 747.899 445.2 700.099 445.4C676.499 445.5 653.099 444.2 635.399 426.4" fill="#F7F2EE"/>
<path d="M630.599 421C629.799 421.1 629.199 415.1 629.099 414.6C626.699 397.3 628.1 379 633 362.4C648.7 308.5 725.9 300.2 755 347.9C761.7 358.8 763.5 373.3 764.8 385.9C769.7 431.4 747.899 445.2 700.099 445.4C676.499 445.5 653.099 444.2 635.399 426.4" stroke="black" stroke-width="8" stroke-miterlimit="10" stroke-linecap="round" stroke-linejoin="round"/>
<path d="M651.7 337.7C646.9 338.3 653.4 351.6 654.4 353C662.4 364.1 677.999 372.4 690.599 364C692.999 362.4 694.9 360.4 696.3 357.9C700.8 349.6 697.2 337.9 687.2 336.8C681.4 336.2 673.199 339.9 673.599 346.9C674.399 361.4 698.1 354.1 703.4 346.1C705.5 342.9 706.9 337.6 704.5 334.1C701.5 329.7 697.5 333.6 697.9 337.8C698.7 345.3 707.2 346.8 713.2 347.3C724.9 348.3 751.999 342.7 753.599 361.3C755.199 379.1 725.5 395.1 715.3 378.8C709.8 370 721.2 355.8 729.5 364C738.9 373.4 717 388.4 707.9 380.4C701.2 374.5 717.2 369.7 715 378.4C714.6 379.9 713.9 381.4 712.9 382.6C701.4 396.5 675.8 380.8 661.7 379.9C652.4 379.3 642.7 386.2 644.3 396.7C645.2 402.7 649.9 408.1 655.9 409.1C661.3 410 668.4 406.4 667.5 399.9C665.8 387.6 648.9 394 656.5 404.4C657.8 406.1 659.4 407.6 661.2 408.7C663.5 410 665.999 410.6 668.599 410.7C681.999 410.9 705.9 394.3 716.3 407.9C730.6 426.6 691.5 447.9 690.3 424C690 418.7 692.8 413.8 696.3 410C708.3 397 723.4 400.1 734.9 411.4C740 416.4 748.2 427.8 756.4 422.5C763 418.3 764.6 407.6 761.3 400.8C759.1 396.2 752.2 392.3 748 396.8C744.5 400.5 748.3 405.2 752.7 403.3C757.8 401.1 760.5 393.3 762 388.3" stroke="black" stroke-width="4" stroke-miterlimit="10" stroke-linecap="round" stroke-linejoin="round"/>
<path d="M701.4 457C703.6 459.2 703.3 469 701.9 471.6" stroke="black" stroke-width="8" stroke-miterlimit="10" stroke-linecap="round" stroke-linejoin="round"/>
<path d="M675.7 494.9C675.7 496.1 676.6 499.8 676.9 501C677.6 503.6 678.599 506.2 679.599 508.8C682.799 516.3 689.099 523 698.599 523.9C709.499 525 715 517.1 717.2 508.7C718.2 505.1 719.7 498.8 719.4 495.1" stroke="black" stroke-width="8" stroke-miterlimit="10" stroke-linecap="round" stroke-linejoin="round"/>
<path fill-rule="evenodd" clip-rule="evenodd" d="M625.399 416.6C625.199 416.6 612.9 421 629.3 434.8C646.4 449.1 798.8 507.2 811.5 445.6C816.9 419.5 783.5 411.5 763.7 411.5C762.9 411.5 763.599 413.9 763.599 414.3C763.999 417.5 763.2 420.7 761.8 423.5C758.5 430.2 750.5 433.2 743.7 434.4C711.3 440.2 656.799 423.9 625.399 416.6Z" fill="#F7F2EE"/>
<path d="M625.399 416.6C625.199 416.6 612.9 421 629.3 434.8C646.4 449.1 798.8 507.2 811.5 445.6C816.9 419.5 783.5 411.5 763.7 411.5C762.9 411.5 763.599 413.9 763.599 414.3C763.999 417.5 763.2 420.7 761.8 423.5C758.5 430.2 750.5 433.2 743.7 434.4C711.3 440.2 656.799 423.9 625.399 416.6Z" stroke="black" stroke-width="8" stroke-miterlimit="10" stroke-linecap="round" stroke-linejoin="round"/>
<path fill-rule="evenodd" clip-rule="evenodd" d="M608.1 806C605.7 787.7 590.6 776.5 585.1 775.6C550.4 770.3 520.3 730.6 548.5 690.6C551.9 685.7 568.7 679.7 574.6 686.5C584.1 697.5 578.5 701.801 576 716.301C573.6 730.501 576.8 740.901 589 746.801C595.1 749.801 601.7 749.2 606.9 744.7C633.5 721.6 614.2 686.3 608.7 680.5C603 674.5 597.2 687.5 587.6 691.2C579.4 694.3 572 686.6 570.4 675.9C563.5 631.5 621.3 635.3 633.7 660.9C636.7 667 646.6 685.7 646.7 697.6C646.7 700.5 637.3 719.1 641.1 717.9C645 716.7 640.7 728.9 651.7 706.4C670.9 667.1 623.6 588.2 684.2 603.1C703.6 607.9 686.2 661.3 684.1 669.2C682.5 674.9 681.1 680.6 679.7 686.4C679.2 688.6 676.5 693.5 678.4 693C678.8 692.9 679.2 690.6 679.3 690.2C687.3 653.4 716.4 604.2 732.8 613.7C758.9 628.6 744.1 642.5 726.6 657.7C705.4 676.1 691.3 711.4 691.4 711.2C702.4 666.5 753.5 636.6 760.3 649.9C769.6 668 781.5 670.1 704.7 730.9C682.4 748.5 674.7 789.501 674.3 799.801C674.2 800.601 649.6 800.5 608.1 806C609.2 805.8 607 806.1 608.1 806Z" fill="#F7F2EE"/>
<path d="M608.1 806C605.7 787.7 590.6 776.5 585.1 775.6C550.4 770.3 520.3 730.6 548.5 690.6C551.9 685.7 568.7 679.7 574.6 686.5C584.1 697.5 578.5 701.801 576 716.301C573.6 730.501 576.8 740.901 589 746.801C595.1 749.801 601.7 749.2 606.9 744.7C633.5 721.6 614.2 686.3 608.7 680.5C603 674.5 597.2 687.5 587.6 691.2C579.4 694.3 572 686.6 570.4 675.9C563.5 631.5 621.3 635.3 633.7 660.9C636.7 667 646.6 685.7 646.7 697.6C646.7 700.5 637.3 719.1 641.1 717.9C645 716.7 640.7 728.9 651.7 706.4C670.9 667.1 623.6 588.2 684.2 603.1C703.6 607.9 686.2 661.3 684.1 669.2C682.5 674.9 681.1 680.6 679.7 686.4C679.2 688.6 676.5 693.5 678.4 693C678.8 692.9 679.2 690.6 679.3 690.2C687.3 653.4 716.4 604.2 732.8 613.7C758.9 628.6 744.1 642.5 726.6 657.7C705.4 676.1 691.3 711.4 691.4 711.2C702.4 666.5 753.5 636.6 760.3 649.9C769.6 668 781.5 670.1 704.7 730.9C682.4 748.5 674.7 789.501 674.3 799.801C674.2 800.601 649.6 800.5 608.1 806ZM608.1 806C607 806.1 609.2 805.8 608.1 806Z" stroke="black" stroke-width="8" stroke-miterlimit="10" stroke-linecap="round" stroke-linejoin="round"/>
<path fill-rule="evenodd" clip-rule="evenodd" d="M555.899 1065.8C556.699 1053 556.9 1059.5 554.7 1046.7C550 1019 519.8 1009.7 499.1 1027.5C483.2 1041.2 460.6 1076 480.3 1107.6C497 1134.5 480.7 1222.4 514 1227.9C554.6 1234.8 561.099 1091.6 555.899 1065.8Z" fill="#F7F2EE"/>
<path d="M555.899 1065.8C556.699 1053 556.9 1059.5 554.7 1046.7C550 1019 519.8 1009.7 499.1 1027.5C483.2 1041.2 460.6 1076 480.3 1107.6C497 1134.5 480.7 1222.4 514 1227.9C554.6 1234.8 561.099 1091.6 555.899 1065.8Z" stroke="black" stroke-width="8" stroke-miterlimit="10" stroke-linecap="round" stroke-linejoin="round"/>
<path fill-rule="evenodd" clip-rule="evenodd" d="M941.5 1318.7C939.3 1303.7 492.1 1300.4 488 1317.8C483.6 1336.1 943.9 1334.6 941.5 1318.7Z" fill="black"/>
<path d="M941.5 1318.7C939.3 1303.7 492.1 1300.4 488 1317.8C483.6 1336.1 943.9 1334.6 941.5 1318.7Z" stroke="black" stroke-width="8" stroke-miterlimit="10" stroke-linecap="round" stroke-linejoin="round"/>
<path fill-rule="evenodd" clip-rule="evenodd" d="M346 1243.5C345.1 1248.7 154.3 1249.9 152.5 1243.8C150.7 1237.5 347 1238 346 1243.5Z" fill="black"/>
<path d="M346 1243.5C345.1 1248.7 154.3 1249.9 152.5 1243.8C150.7 1237.5 347 1238 346 1243.5Z" stroke="black" stroke-width="8" stroke-miterlimit="10" stroke-linecap="round" stroke-linejoin="round"/>
<path fill-rule="evenodd" clip-rule="evenodd" d="M1171.2 1241.8C1170.6 1245.1 1057.1 1245.8 1056.1 1242C1055 1238.1 1171.8 1238.4 1171.2 1241.8Z" fill="black"/>
<path d="M1171.2 1241.8C1170.6 1245.1 1057.1 1245.8 1056.1 1242C1055 1238.1 1171.8 1238.4 1171.2 1241.8Z" stroke="black" stroke-width="8" stroke-miterlimit="10" stroke-linecap="round" stroke-linejoin="round"/>
<path fill-rule="evenodd" clip-rule="evenodd" d="M1122.5 365C1122.5 365.5 1121.5 364.5 1121 364.4C1116.6 362.9 1110.7 364.6 1106.7 366.2C1095 371.1 1086.6 382 1081.1 393.1C1060.4 434.9 1071.2 485 1061.3 529.5C1057.9 544.6 1050.2 555.1 1043.2 568.3C1042.9 568.8 1042.6 569.5 1042.8 570.1C1043 570.5 1043.3 570.7 1043.7 570.9C1058.6 576.2 1075.9 581.1 1091.5 583.7C1110.3 586.9 1124.3 580 1141.4 580.2C1149.8 580.3 1153.4 577.3 1160.4 581.2C1182.5 593.5 1206.9 596.4 1230.9 586.4C1235.6 584.5 1245.8 580.6 1247.5 575C1248.3 572.4 1242.2 566.7 1241.1 564.6C1234.4 552.4 1223.7 536.9 1221.7 523.3C1218.5 501.9 1216.6 466.9 1213.2 432C1207.2 371 1179.9 353.7 1139.7 358.9" fill="#DB422F"/>
<path d="M1122.5 365C1122.5 365.5 1121.5 364.5 1121 364.4C1116.6 362.9 1110.7 364.6 1106.7 366.2C1095 371.1 1086.6 382 1081.1 393.1C1060.4 434.9 1071.2 485 1061.3 529.5C1057.9 544.6 1050.2 555.1 1043.2 568.3C1042.9 568.8 1042.6 569.5 1042.8 570.1C1043 570.5 1043.3 570.7 1043.7 570.9C1058.6 576.2 1075.9 581.1 1091.5 583.7C1110.3 586.9 1124.3 580 1141.4 580.2C1149.8 580.3 1153.4 577.3 1160.4 581.2C1182.5 593.5 1206.9 596.4 1230.9 586.4C1235.6 584.5 1245.8 580.6 1247.5 575C1248.3 572.4 1242.2 566.7 1241.1 564.6C1234.4 552.4 1223.7 536.9 1221.7 523.3C1218.5 501.9 1216.6 466.9 1213.2 432C1207.2 371 1179.9 353.7 1139.7 358.9" stroke="black" stroke-width="4" stroke-miterlimit="10" stroke-linecap="round" stroke-linejoin="round"/>
<path fill-rule="evenodd" clip-rule="evenodd" d="M1098 373.6C1098.5 371.6 1085.7 387.6 1085.1 389.6C1084.2 392.6 1083.4 395.599 1082.8 398.699C1081.4 406.199 1080.8 413.999 1080.6 421.699C1080.1 447.799 1100.1 492 1107.8 519.5C1110.2 528.1 1095.3 565.3 1111.4 568.4C1140.8 574.1 1127.3 520.4 1131.5 525.4C1145.9 542.2 1117.1 623.7 1151.9 613.8C1168.5 609.1 1145.4 541.3 1155.7 526.6C1157.1 524.6 1155.8 520.599 1155.8 522.199C1154.7 574.199 1173 565 1173.2 565C1198 562.8 1180.7 532.099 1180.1 518.699C1178.9 489.299 1193.1 485.8 1204.2 445.5C1208.2 430.8 1206.5 411.7 1203.6 400.1C1193.1 356.6 1131.9 337.8 1098 373.6Z" fill="#F7F2EE"/>
<path d="M1098 373.6C1098.5 371.6 1085.7 387.6 1085.1 389.6C1084.2 392.6 1083.4 395.599 1082.8 398.699C1081.4 406.199 1080.8 413.999 1080.6 421.699C1080.1 447.799 1100.1 492 1107.8 519.5C1110.2 528.1 1095.3 565.3 1111.4 568.4C1140.8 574.1 1127.3 520.4 1131.5 525.4C1145.9 542.2 1117.1 623.7 1151.9 613.8C1168.5 609.1 1145.4 541.3 1155.7 526.6C1157.1 524.6 1155.8 520.599 1155.8 522.199C1154.7 574.199 1173 565 1173.2 565C1198 562.8 1180.7 532.099 1180.1 518.699C1178.9 489.299 1193.1 485.8 1204.2 445.5C1208.2 430.8 1206.5 411.7 1203.6 400.1C1193.1 356.6 1131.9 337.8 1098 373.6Z" stroke="black" stroke-width="8" stroke-miterlimit="10" stroke-linecap="round" stroke-linejoin="round"/>
<path d="M1106.2 431.1C1118.4 435 1111.5 461.4 1125.8 454C1143.8 444.7 1123.2 414.4 1106.7 405.2" stroke="black" stroke-width="8" stroke-miterlimit="10" stroke-linecap="round" stroke-linejoin="round"/>
<path d="M1196 414C1181.6 417.9 1189.7 444.3 1172.8 436.9C1151.6 427.6 1175.9 397.3 1195.3 388.1" stroke="black" stroke-width="8" stroke-miterlimit="10" stroke-linecap="round" stroke-linejoin="round"/>
<path fill-rule="evenodd" clip-rule="evenodd" d="M1120.7 286.4H1120.1C1116.8 286.1 1113.4 285.7 1110.1 285.6C1103 285.3 1095.1 285.5 1088.9 289.6C1076.3 297.9 1070.4 326.2 1075.2 340C1080.2 354.4 1117 373.4 1121.9 375.8C1134 381.7 1147.9 383.1 1161 385C1197.3 390.4 1227.1 388.9 1233.5 343.7C1235.1 332.6 1229.7 321.5 1218.3 318.4C1216.3 317.9 1206.7 318.6 1205.6 317.2C1203 313.7 1211.9 291.5 1201.6 290.2C1195.2 289.4 1189.1 299 1184.2 302.2C1178.1 306.1 1170.5 304 1164.1 302.1C1162.6 301.6 1144.5 295.7 1144 295.1C1140.4 290.2 1147.5 268.6 1136.2 270.6C1132.7 271.2 1129.6 273.7 1127.5 276.4C1126 278.3 1124.6 280.5 1123.5 282.8" fill="#F7F2EE"/>
<path d="M1120.7 286.4H1120.1C1116.8 286.1 1113.4 285.7 1110.1 285.6C1103 285.3 1095.1 285.5 1088.9 289.6C1076.3 297.9 1070.4 326.2 1075.2 340C1080.2 354.4 1117 373.4 1121.9 375.8C1134 381.7 1147.9 383.1 1161 385C1197.3 390.4 1227.1 388.9 1233.5 343.7C1235.1 332.6 1229.7 321.5 1218.3 318.4C1216.3 317.9 1206.7 318.6 1205.6 317.2C1203 313.7 1211.9 291.5 1201.6 290.2C1195.2 289.4 1189.1 299 1184.2 302.2C1178.1 306.1 1170.5 304 1164.1 302.1C1162.6 301.6 1144.5 295.7 1144 295.1C1140.4 290.2 1147.5 268.6 1136.2 270.6C1132.7 271.2 1129.6 273.7 1127.5 276.4C1126 278.3 1124.6 280.5 1123.5 282.8" stroke="black" stroke-width="8" stroke-miterlimit="10" stroke-linecap="round" stroke-linejoin="round"/>
<path d="M1125.1 311C1123.1 321 1138.9 323.2 1144.7 318.6" stroke="black" stroke-width="4" stroke-miterlimit="10" stroke-linecap="round" stroke-linejoin="round"/>
<path d="M1167.5 321C1167.4 320.9 1167.4 321.6 1167.4 321.7C1167.5 322.6 1167.9 323.5 1168.3 324.3C1169.2 326.4 1170.7 328.4 1172.7 329.6C1177.3 332.4 1188.5 332.2 1190.1 325.6" stroke="black" stroke-width="4" stroke-miterlimit="10" stroke-linecap="round" stroke-linejoin="round"/>
<path d="M1149.5 331.4C1143.9 334.2 1145.5 344.4 1152.7 342.9C1158.9 341.6 1159.8 331.1 1152.8 331.1" stroke="black" stroke-width="4" stroke-miterlimit="10" stroke-linecap="round" stroke-linejoin="round"/>
<path d="M1112.3 323.7C1110.3 324.4 1109.2 330.6 1109 332.3C1107.5 341.5 1112.1 350.6 1120.8 354.4C1127.6 357.4 1135.5 357.6 1142 353.7C1144.3 352.3 1146.6 350.4 1148.2 348.2C1148.8 347.4 1149.3 346.6 1149.6 345.7C1149.7 345.4 1149.7 344.6 1149.9 344.8C1150 344.8 1149.8 346.1 1149.8 346.2C1149.5 349.4 1149.1 352.6 1150.6 355.6C1154.7 363.9 1165.3 366.3 1173.7 366.2C1186.8 366.1 1196.4 351.1 1190.9 338.9" stroke="black" stroke-width="4" stroke-miterlimit="10" stroke-linecap="round" stroke-linejoin="round"/>
<path d="M1054.7 288.8C1054.6 289 1059.4 289.5 1059.8 289.5C1063.2 290 1066.4 291 1069.7 292C1080.3 295.3 1089.3 299.4 1097 307.5" stroke="black" stroke-width="4" stroke-miterlimit="10" stroke-linecap="round" stroke-linejoin="round"/>
<path d="M1051.7 315H1051.9C1053.3 314.8 1054.8 314.6 1056.2 314.5C1059.2 314.3 1062.2 314.4 1065.1 314.3C1073.8 314.3 1084.5 314.7 1092.4 318.9" stroke="black" stroke-width="4" stroke-miterlimit="10" stroke-linecap="round" stroke-linejoin="round"/>
<path d="M1050.7 349.5C1051.2 347.5 1058.5 345.9 1060 345.5C1069.7 342.6 1081.3 340.7 1091.3 343.6" stroke="black" stroke-width="4" stroke-miterlimit="10" stroke-linecap="round" stroke-linejoin="round"/>
<path d="M1219.3 334.3C1219.1 334.8 1220.3 334.1 1220.8 334C1222 333.8 1223.1 333.4 1224.3 333.2C1227.4 332.5 1230.5 332 1233.7 331.5C1242.9 330 1259.1 325.6 1268 330.4" stroke="black" stroke-width="4" stroke-miterlimit="10" stroke-linecap="round" stroke-linejoin="round"/>
<path d="M1219.6 347.8C1218.9 349 1222.1 346.8 1223.5 346.4C1226.2 345.8 1229 345.4 1231.8 345C1239.8 344 1248.5 343.8 1256.4 345.8" stroke="black" stroke-width="4" stroke-miterlimit="10" stroke-linecap="round" stroke-linejoin="round"/>
<path d="M1209.7 370.7C1211.6 372.8 1217.4 374.3 1220 375.8C1228.5 380.8 1236.2 386.6 1243 393.7" stroke="black" stroke-width="4" stroke-miterlimit="10" stroke-linecap="round" stroke-linejoin="round"/>
<path d="M1097.1 322.7C1099.9 326.7 1102.4 329.6 1107.4 331.4" stroke="black" stroke-width="4" stroke-miterlimit="10" stroke-linecap="round" stroke-linejoin="round"/>
<path d="M1192 351C1191.7 351.1 1192.8 351.4 1192.9 351.5C1193.9 351.8 1194.9 352.1 1195.9 352.4C1198.6 353.2 1211.4 359.2 1219.7 360.1C1248 363.2 1292.9 348 1334.2 359.1" stroke="black" stroke-width="4" stroke-miterlimit="10" stroke-linecap="round" stroke-linejoin="round"/>
<path d="M1274.3 355.5C1274.2 355.4 1275.5 353.6 1275.6 353.5C1277.1 351.2 1278.5 348.9 1280.1 346.6C1282.8 342.8 1284.2 343.2 1287.9 339.5C1291.9 335.5 1288 323.8 1293.4 323" stroke="black" stroke-width="4" stroke-miterlimit="10" stroke-linecap="round" stroke-linejoin="round"/>
<path d="M1276.3 357.1C1280.9 358 1295.2 368.7 1298.5 371.6C1307 378.9 1300.3 386.1 1316.5 386.4" stroke="black" stroke-width="4" stroke-miterlimit="10" stroke-linecap="round" stroke-linejoin="round"/>
<path d="M1298.5 356.4C1298.4 356.5 1298.9 356.3 1299.1 356.4C1299.7 356.5 1300.2 356.7 1300.7 356.9C1302 357.6 1303.3 358.4 1304.5 359.3C1308.4 361.9 1312.1 365 1315.8 367.9C1327.5 376.8 1339 385.7 1354.4 385" stroke="black" stroke-width="4" stroke-miterlimit="10" stroke-linecap="round" stroke-linejoin="round"/>
<path d="M1319.4 355.2C1319.4 354.8 1321.3 353.7 1321.5 353.5C1323.6 351.9 1331.2 351.2 1333.4 349.7C1342.7 343.4 1337.4 339.6 1349.1 341.4" stroke="black" stroke-width="4" stroke-miterlimit="10" stroke-linecap="round" stroke-linejoin="round"/>
<path d="M1334.3 359.2C1336.5 360.5 1341 360.3 1343.5 360.4C1353.9 360.6 1366.8 358.9 1370.3 350.9C1372.2 346.6 1381.9 346.1 1386.9 346.7" stroke="black" stroke-width="4" stroke-miterlimit="10" stroke-linecap="round" stroke-linejoin="round"/>
<path d="M1300 352.5C1299.7 352.6 1300.5 352.1 1300.7 351.8C1301 351.4 1301.3 351 1301.6 350.6C1302.4 349.3 1303.3 347.9 1304.1 346.6C1306.7 342.5 1309.5 338.4 1312.5 334.6C1320.1 324.8 1330.4 322.2 1341.9 318.7" stroke="black" stroke-width="4" stroke-miterlimit="10" stroke-linecap="round" stroke-linejoin="round"/>
<path d="M1296.5 316.8C1297 316.8 1295.7 317.3 1295.4 317.7C1294.9 318.4 1294.5 319.3 1294.3 320.2C1293.8 322.6 1294 326.7 1297.3 326.7C1305 326.6 1306.2 316.8 1296.5 316.8Z" stroke="black" stroke-width="4" stroke-miterlimit="10" stroke-linecap="round" stroke-linejoin="round"/>
<path d="M1346.2 312.5C1346.3 313.2 1344.8 313 1344.4 313.5C1343.3 314.8 1342.8 316.4 1343 318C1344.4 329.6 1361.8 316.7 1351.5 311C1350.5 310.5 1349.4 310.3 1348.3 310.3" stroke="black" stroke-width="4" stroke-miterlimit="10" stroke-linecap="round" stroke-linejoin="round"/>
<path fill-rule="evenodd" clip-rule="evenodd" d="M1355.9 336C1351 335.2 1349 340.7 1349.1 342.4C1350.2 352.1 1366.9 340.1 1355.9 336Z" fill="black"/>
<path d="M1355.9 336C1351 335.2 1349 340.7 1349.1 342.4C1350.2 352.1 1366.9 340.1 1355.9 336Z" stroke="black" stroke-width="4" stroke-miterlimit="10" stroke-linecap="round" stroke-linejoin="round"/>
<path fill-rule="evenodd" clip-rule="evenodd" d="M1304.2 343.8C1297.1 342.6 1294.1 350.9 1294.3 353.4C1295.9 368 1320.2 349.9 1304.2 343.8Z" fill="black"/>
<path d="M1304.2 343.8C1297.1 342.6 1294.1 350.9 1294.3 353.4C1295.9 368 1320.2 349.9 1304.2 343.8Z" stroke="black" stroke-width="4" stroke-miterlimit="10" stroke-linecap="round" stroke-linejoin="round"/>
<path fill-rule="evenodd" clip-rule="evenodd" d="M1262.1 354.2C1252.9 352.9 1249 362.2 1249.3 365C1251.4 381.5 1282.9 361.1 1262.1 354.2Z" fill="black"/>
<path d="M1262.1 354.2C1252.9 352.9 1249 362.2 1249.3 365C1251.4 381.5 1282.9 361.1 1262.1 354.2Z" stroke="black" stroke-width="4" stroke-miterlimit="10" stroke-linecap="round" stroke-linejoin="round"/>
<path fill-rule="evenodd" clip-rule="evenodd" d="M1355 356.9C1346.1 355.7 1342.3 364.2 1342.7 366.9C1344.6 382 1375.1 363.3 1355 356.9Z" fill="#F7F2EE"/>
<path d="M1355 356.9C1346.1 355.7 1342.3 364.2 1342.7 366.9C1344.6 382 1375.1 363.3 1355 356.9Z" stroke="black" stroke-width="4" stroke-miterlimit="10" stroke-linecap="round" stroke-linejoin="round"/>
<path d="M1321.3 386.7C1321.7 386.8 1320.6 387.2 1320.3 387.5C1319.7 388.2 1319.4 389 1319.2 389.8C1318.7 392.2 1319.4 396.6 1322.1 397.5C1327.2 399.2 1329.7 391.3 1325.9 388.5" stroke="black" stroke-width="4" stroke-miterlimit="10" stroke-linecap="round" stroke-linejoin="round"/>
<path d="M1123.5 619.9C1124 636 1125.5 652 1125.8 668.1" stroke="black" stroke-width="4" stroke-miterlimit="10" stroke-linecap="round" stroke-linejoin="round"/>
<path d="M1173.3 614.2C1171.7 626.5 1174.4 640.7 1174.7 653.2" stroke="black" stroke-width="4" stroke-miterlimit="10" stroke-linecap="round" stroke-linejoin="round"/>
<path d="M1111.3 613C1111.5 616.4 1111.5 619.8 1111.5 623.2C1111.7 633.2 1112.2 643.1 1112.3 653.1" stroke="black" stroke-width="4" stroke-miterlimit="10" stroke-linecap="round" stroke-linejoin="round"/>
<path d="M113.1 716.5C110 725.9 180.199 866.6 197.899 868C217.899 869.6 368.5 724.6 365 708C361.4 690.9 304.399 553.2 280.899 550.1C255.499 546.8 191.1 621.1 182.7 630.2C168.1 645.9 121.1 692.3 113.1 716.5Z" stroke="black" stroke-width="8" stroke-miterlimit="10" stroke-linecap="round" stroke-linejoin="round"/>
<path d="M129.199 722.3C126.499 727.4 183.099 830 192.699 844.6C202.999 860.1 270.899 782.6 284.999 770.4C295.599 761.2 304.999 750.6 315.199 740.9C320.099 736.2 348.799 711.099 350.099 704.999C351.199 699.699 341.299 679.8 339.099 674.7C327.799 647.9 290.599 570.6 276.299 570.1C254.399 569.5 136.299 708.8 129.199 722.3Z" stroke="black" stroke-width="4" stroke-miterlimit="10" stroke-linecap="round" stroke-linejoin="round"/>
<path fill-rule="evenodd" clip-rule="evenodd" d="M202.6 866.3C199.3 864.8 199.5 860.1 198.9 857.7C198 854 186 780.1 193.3 772.8C196.2 769.9 364.3 598.5 370.5 603.3C378.8 609.7 384.1 687.4 385.5 692.2C386.7 696.6 374.6 708.699 362.7 720.499C339.2 743.899 316 769.5 292 792.3C267.9 815.3 217.1 872.7 202.6 866.3Z" fill="#F7F2EE"/>
<path d="M202.6 866.3C199.3 864.8 199.5 860.1 198.9 857.7C198 854 186 780.1 193.3 772.8C196.2 769.9 364.3 598.5 370.5 603.3C378.8 609.7 384.1 687.4 385.5 692.2C386.7 696.6 374.6 708.699 362.7 720.499C339.2 743.899 316 769.5 292 792.3C267.9 815.3 217.1 872.7 202.6 866.3Z" stroke="black" stroke-width="8" stroke-miterlimit="10" stroke-linecap="round" stroke-linejoin="round"/>
<path d="M211.899 776.4C211.299 775.9 210 782.4 210 782.9C210.4 787 213.699 789.1 217.699 788.6C225.599 787.6 227.499 775.699 218.199 776.199" stroke="black" stroke-width="4" stroke-miterlimit="10" stroke-linecap="round" stroke-linejoin="round"/>
<path d="M213.299 828.7C211.399 834.3 217.1 844 223 837.6C227.3 832.9 222.099 825.5 216.299 826.7" stroke="black" stroke-width="4" stroke-miterlimit="10" stroke-linecap="round" stroke-linejoin="round"/>
<path d="M347.3 641.1C347.1 640.4 346.4 642.2 346.1 642.9C345.5 644.2 345.2 645.7 345.2 647.1C345.3 651.1 348.4 655.2 352.8 654.1C362.2 651.8 359.5 636.2 350.3 640.5" stroke="black" stroke-width="4" stroke-miterlimit="10" stroke-linecap="round" stroke-linejoin="round"/>
<path d="M360.399 684.999C360.899 684.499 358.9 685.2 358.3 685.6C357.2 686.3 356.3 687.5 355.7 688.6C353.8 692.1 353.6 697.399 357.6 699.499C364.4 703.199 374.599 692.399 366.399 688.499" stroke="black" stroke-width="4" stroke-miterlimit="10" stroke-linecap="round" stroke-linejoin="round"/>
<path d="M165.5 710.7C165.4 714.7 166.3 718.8 166.7 722.8" stroke="black" stroke-width="4" stroke-miterlimit="10" stroke-linecap="round" stroke-linejoin="round"/>
<path d="M175.1 698.7C173.9 700.5 175.5 707.3 175.7 709.2C176.5 719.4 177.399 729.6 178.399 739.9" stroke="black" stroke-width="4" stroke-miterlimit="10" stroke-linecap="round" stroke-linejoin="round"/>
<path d="M277.899 614.7C277.999 614.4 277.899 615.3 277.899 615.6C277.899 616.8 278 617.9 278 619.1C278.1 622.3 278.399 625.6 278.599 628.8C279.199 638.7 279.899 648.7 280.799 658.6" stroke="black" stroke-width="4" stroke-miterlimit="10" stroke-linecap="round" stroke-linejoin="round"/>
<path d="M266.7 638.3C267.3 638.7 267.1 646.9 267.3 649.4C268.1 661.6 269.1 674 269.2 686.2" stroke="black" stroke-width="4" stroke-miterlimit="10" stroke-linecap="round" stroke-linejoin="round"/>
<path d="M295.4 183.3C295.3 183.3 296.8 186.5 296.9 186.6C298.6 189.5 300.4 192.3 302.2 195.2C307.2 203.4 312.5 211.4 317.7 219.5C326.9 233.7 335.9 248.1 346.2 261.6C360.6 280.5 365.6 287.1 382.7 270.7C389.7 264 374 249.2 369.8 242.3C366.3 236.5 363.1 230.5 359.6 224.7C352.9 213.8 346 203 339.3 192C329.3 175.5 312.4 155.2 295.4 183.3Z" stroke="black" stroke-width="8" stroke-miterlimit="10" stroke-linecap="round" stroke-linejoin="round"/>
<path d="M302.899 180C302.999 180 317.599 201.5 318.599 202.9C333.899 225.7 349.099 248.5 364.699 271.1" stroke="black" stroke-width="4" stroke-miterlimit="10" stroke-linecap="round" stroke-linejoin="round"/>
<path d="M310.3 169C311 175.5 324.8 192.6 328.5 198.4C344 222.6 361.5 246.3 375.4 271.5" stroke="black" stroke-width="4" stroke-miterlimit="10" stroke-linecap="round" stroke-linejoin="round"/>
<path d="M362 280.699C364 282.399 368.899 286.199 373.099 289.199C380.299 294.499 388.399 299.9 389.799 299.4C393.599 298.1 387.499 268.599 384.399 266.199C383.899 265.799 383.299 266.5 382.899 266.8C379.099 270.1 362.4 280.399 362 280.699Z" stroke="black" stroke-width="8" stroke-miterlimit="10" stroke-linecap="round" stroke-linejoin="round"/>
</svg>
