<svg width="1500" height="1500" viewBox="0 0 1500 1500" fill="none" xmlns="http://www.w3.org/2000/svg">
<rect width="1500" height="1500" fill="#F7F2EE"/>
<path d="M616.7 362.329C603.8 510.129 575.3 584.029 548.1 683.729C506.1 838.129 480.2 1067.33 262 1278.53" stroke="black" stroke-width="8" stroke-miterlimit="10" stroke-linecap="round" stroke-linejoin="round"/>
<path d="M856.2 362.329C856.3 531.029 889.1 677.229 913.8 770.329C962.1 952.229 961.6 1115.03 1238.4 1278.53" stroke="black" stroke-width="8" stroke-miterlimit="10" stroke-linecap="round" stroke-linejoin="round"/>
<path d="M716.3 444.429C720.4 456.429 710.4 505.829 707.4 519.729" stroke="black" stroke-width="4" stroke-miterlimit="10" stroke-linecap="round" stroke-linejoin="round"/>
<path d="M821.8 520.429C820.5 519.529 822 523.529 822.1 525.029C822.3 528.029 822.5 531.029 822.7 534.029C823.3 543.629 823.9 553.329 824.5 562.929C826.4 591.829 828.6 620.629 831.6 649.329" stroke="black" stroke-width="4" stroke-miterlimit="10" stroke-linecap="round" stroke-linejoin="round"/>
<path d="M779.4 601.629C778.7 601.229 779.4 603.229 779.4 603.929C779.8 618.529 780 633.029 780.8 647.629C782.5 678.229 786.4 708.228 790.4 738.528" stroke="black" stroke-width="4" stroke-miterlimit="10" stroke-linecap="round" stroke-linejoin="round"/>
<path d="M743.6 911.929C744.5 910.829 743.3 914.628 743.2 916.028C743 919.728 743.1 923.528 743.4 927.228C744.2 937.028 745.4 946.829 746.6 956.629C750.4 986.429 758.7 1016.33 769.6 1044.23" stroke="black" stroke-width="4" stroke-miterlimit="10" stroke-linecap="round" stroke-linejoin="round"/>
<path d="M482.4 1062.93C502.8 1024.53 515 977.329 529.5 936.329" stroke="black" stroke-width="4" stroke-miterlimit="10" stroke-linecap="round" stroke-linejoin="round"/>
<path d="M654.1 384.529C653.6 396.029 651.6 407.629 650 419.029" stroke="black" stroke-width="4" stroke-miterlimit="10" stroke-linecap="round" stroke-linejoin="round"/>
<path fill-rule="evenodd" clip-rule="evenodd" d="M597.1 234.728C596.7 234.928 596.4 232.429 596.4 232.329C594.9 217.829 596.8 202.129 600.3 188.029C608 156.929 626 129.429 653.5 110.629C719 65.8288 826.3 79.1287 860.8 155.529C866.5 168.129 879.4 223.029 872.9 235.629C867.3 246.629 827.6 255.529 816.3 257.829C770.1 267.529 633.4 264.428 597.1 234.728Z" fill="#FF8500"/>
<path d="M597.1 234.728C596.7 234.928 596.4 232.429 596.4 232.329C594.9 217.829 596.8 202.129 600.3 188.029C608 156.929 626 129.429 653.5 110.629C719 65.8288 826.3 79.1287 860.8 155.529C866.5 168.129 879.4 223.029 872.9 235.629C867.3 246.629 827.6 255.529 816.3 257.829C770.1 267.529 633.4 264.428 597.1 234.728Z" stroke="black" stroke-width="8" stroke-miterlimit="10" stroke-linecap="round" stroke-linejoin="round"/>
<path d="M671 124.629C670.8 125.329 672 123.529 672.5 123.029C673.5 122.029 674.5 121.129 675.6 120.229C678.9 117.529 682.4 115.129 686.1 113.129C697.5 106.729 711.6 101.329 724.9 103.129" stroke="black" stroke-width="4" stroke-miterlimit="10" stroke-linecap="round" stroke-linejoin="round"/>
<path fill-rule="evenodd" clip-rule="evenodd" d="M622.7 153.729C572.4 170.929 486.8 214.929 490.3 262.729C493.3 303.829 540.9 300.929 567.2 306.529C613.3 316.329 691.9 326.229 766.9 321.429C788.6 320.029 816.7 326.629 844.5 321.429C849.2 320.529 989.4 324.229 980.1 270.329C969.1 206.329 872.9 154.729 825.5 143.329C811.8 140.029 797.7 137.529 783.2 135.829C732.6 130.129 677.5 134.929 622.7 153.729Z" fill="#FF8500"/>
<path d="M622.7 153.729C572.4 170.929 486.8 214.929 490.3 262.729C493.3 303.829 540.9 300.929 567.2 306.529C613.3 316.329 691.9 326.229 766.9 321.429C788.6 320.029 816.7 326.629 844.5 321.429C849.2 320.529 989.4 324.229 980.1 270.329C969.1 206.329 872.9 154.729 825.5 143.329C811.8 140.029 797.7 137.529 783.2 135.829C732.6 130.129 677.5 134.929 622.7 153.729Z" stroke="black" stroke-width="8" stroke-miterlimit="10" stroke-linecap="round" stroke-linejoin="round"/>
<path fill-rule="evenodd" clip-rule="evenodd" d="M635.8 187.029C605.1 192.429 579 195.029 547.3 210.329C538.2 214.729 528.5 220.229 518.2 227.129C444.5 276.429 531.9 308.329 552.6 318.329C594 338.329 689 350.729 766.4 347.029C788.8 345.929 813.6 343.529 842.3 339.529C847.1 338.829 988 324.529 979.8 269.529C972.4 219.629 881.3 199.129 828.9 186.529C771.6 172.729 687.9 177.829 635.8 187.029Z" fill="#F7F2EE"/>
<path d="M635.8 187.029C605.1 192.429 579 195.029 547.3 210.329C538.2 214.729 528.5 220.229 518.2 227.129C444.5 276.429 531.9 308.329 552.6 318.329C594 338.329 689 350.729 766.4 347.029C788.8 345.929 813.6 343.529 842.3 339.529C847.1 338.829 988 324.529 979.8 269.529C972.4 219.629 881.3 199.129 828.9 186.529C771.6 172.729 687.9 177.829 635.8 187.029Z" stroke="black" stroke-width="8" stroke-miterlimit="10" stroke-linecap="round" stroke-linejoin="round"/>
<path opacity="0.9116" d="M540.7 243.129C533.3 244.129 526.2 253.229 524 257.529C522.2 260.929 521.5 264.629 520.9 268.529C517 294.329 563.6 249.529 540.7 243.129Z" stroke="black" stroke-width="4" stroke-miterlimit="10" stroke-linecap="round" stroke-linejoin="round"/>
<path opacity="0.9116" d="M609.5 213.729C609.5 213.329 603.6 215.229 603.4 215.329C600.1 216.629 582.3 223.429 585.4 229.129C589.5 236.629 626.6 224.729 613 215.829" stroke="black" stroke-width="4" stroke-miterlimit="10" stroke-linecap="round" stroke-linejoin="round"/>
<path opacity="0.9116" d="M688.6 199.629C688.7 199.629 688.5 199.529 688.4 199.529C686.3 199.129 684 199.529 681.9 199.929C678.7 200.529 664.6 203.429 667.1 209.029C670.9 217.529 702.8 214.129 696.6 203.529C695.3 201.329 692.9 200.129 690.5 199.829" stroke="black" stroke-width="4" stroke-miterlimit="10" stroke-linecap="round" stroke-linejoin="round"/>
<path opacity="0.9116" d="M774.2 199.529C774 200.429 772.4 199.229 771.5 199.229C768 199.229 749.9 202.329 752.1 207.729C755.6 216.329 790.7 215.829 784.6 204.729C783.2 202.229 780.4 200.629 777.7 200.029" stroke="black" stroke-width="4" stroke-miterlimit="10" stroke-linecap="round" stroke-linejoin="round"/>
<path opacity="0.9116" d="M866.7 217.429C867.5 217.629 858.2 214.129 857.4 213.929C856 213.629 854.6 213.629 853.2 213.729C849.4 214.029 842 216.129 844.7 221.429C853.6 238.929 889.8 227.429 866.7 217.429Z" stroke="black" stroke-width="4" stroke-miterlimit="10" stroke-linecap="round" stroke-linejoin="round"/>
<path opacity="0.9116" d="M945.4 256.829C927.3 233.229 905.7 243.729 922.8 260.529C928.1 265.729 935.5 271.129 943 271.829C952.9 272.829 950 261.529 945.4 256.829Z" stroke="black" stroke-width="4" stroke-miterlimit="10" stroke-linecap="round" stroke-linejoin="round"/>
<path fill-rule="evenodd" clip-rule="evenodd" d="M670.8 242.629C636.3 250.429 586.9 256.329 571.5 291.529C566.6 302.729 599.5 317.829 615.6 321.229C646 327.729 703.2 332.329 753.8 330.229C768.4 329.629 906.5 322.829 901.1 291.529C898.8 278.029 882 266.529 861.6 257.929C839.2 248.429 812.4 242.529 796 241.129C769.2 238.929 708.2 234.229 670.8 242.629Z" fill="#FF8500"/>
<path d="M670.8 242.629C636.3 250.429 586.9 256.329 571.5 291.529C566.6 302.729 599.5 317.829 615.6 321.229C646 327.729 703.2 332.329 753.8 330.229C768.4 329.629 906.5 322.829 901.1 291.529C898.8 278.029 882 266.529 861.6 257.929C839.2 248.429 812.4 242.529 796 241.129C769.2 238.929 708.2 234.229 670.8 242.629Z" stroke="black" stroke-width="8" stroke-miterlimit="10" stroke-linecap="round" stroke-linejoin="round"/>
<path fill-rule="evenodd" clip-rule="evenodd" d="M678.9 272.529C655.8 274.029 633.3 276.729 611.2 283.629C570.8 296.129 619 302.729 630.8 305.029C654.3 309.729 708.4 312.628 752.5 311.728C765.2 311.528 779.3 310.929 795.7 309.929C798.4 309.729 878.6 306.429 873.9 293.529C869.7 281.829 815.3 273.029 787.9 271.929C764.5 271.029 708.3 270.629 678.9 272.529Z" fill="black"/>
<path d="M678.9 272.529C655.8 274.029 633.3 276.729 611.2 283.629C570.8 296.129 619 302.729 630.8 305.029C654.3 309.729 708.4 312.628 752.5 311.728C765.2 311.528 779.3 310.929 795.7 309.929C798.4 309.729 878.6 306.429 873.9 293.529C869.7 281.829 815.3 273.029 787.9 271.929C764.5 271.029 708.3 270.629 678.9 272.529Z" stroke="black" stroke-width="8" stroke-miterlimit="10" stroke-linecap="round" stroke-linejoin="round"/>
<path fill-rule="evenodd" clip-rule="evenodd" d="M587 891.629C589.2 885.129 590.8 878.529 592.4 871.829C594.3 864.129 602 825.329 613.3 803.629C618.2 794.229 623.7 788.029 629.7 788.829C650.6 791.629 625.9 831.528 607.3 860.728C600.3 871.628 589.6 886.229 587 891.629Z" fill="#F7F2EE"/>
<path d="M587 891.629C589.2 885.129 590.8 878.529 592.4 871.829C594.3 864.129 602 825.329 613.3 803.629C618.2 794.229 623.7 788.029 629.7 788.829C650.6 791.629 625.9 831.528 607.3 860.728C600.3 871.628 589.6 886.229 587 891.629Z" stroke="black" stroke-width="4" stroke-miterlimit="10" stroke-linecap="round" stroke-linejoin="round"/>
<path d="M623.1 801.528C620.2 805.028 619.1 812.229 617.6 816.429" stroke="black" stroke-width="4" stroke-miterlimit="10" stroke-linecap="round" stroke-linejoin="round"/>
<path fill-rule="evenodd" clip-rule="evenodd" d="M765.2 1324.43C766.8 1314.43 769.6 1304.93 772.4 1295.43C777 1279.73 815.4 1176.93 775.7 1157.03C734 1136.13 745 1210.43 754.3 1265.43C757.8 1286.13 765 1315.33 765.2 1324.43Z" fill="#F7F2EE"/>
<path d="M765.2 1324.43C766.8 1314.43 769.6 1304.93 772.4 1295.43C777 1279.73 815.4 1176.93 775.7 1157.03C734 1136.13 745 1210.43 754.3 1265.43C757.8 1286.13 765 1315.33 765.2 1324.43Z" stroke="black" stroke-width="4" stroke-miterlimit="10" stroke-linecap="round" stroke-linejoin="round"/>
<path d="M776.1 1175.73C776 1175.43 776.2 1176.33 776.3 1176.63C776.5 1177.23 776.7 1177.73 777 1178.33C777.7 1180.03 778.4 1181.73 779 1183.53C780.5 1188.43 781.3 1194.63 780.7 1199.73" stroke="black" stroke-width="4" stroke-miterlimit="10" stroke-linecap="round" stroke-linejoin="round"/>
<path fill-rule="evenodd" clip-rule="evenodd" d="M731 412.429C731.2 410.129 731.7 407.928 732.1 405.728C732.6 403.528 735.4 393.428 735.2 385.328C735.1 380.328 733.9 376.029 730.4 374.529C720.7 370.629 724.5 387.128 727.5 399.328C728.7 403.928 730.8 410.329 731 412.429Z" fill="#F7F2EE"/>
<path d="M731 412.429C731.2 410.129 731.7 407.928 732.1 405.728C732.6 403.528 735.4 393.428 735.2 385.328C735.1 380.328 733.9 376.029 730.4 374.529C720.7 370.629 724.5 387.128 727.5 399.328C728.7 403.928 730.8 410.329 731 412.429Z" stroke="black" stroke-width="4" stroke-miterlimit="10" stroke-linecap="round" stroke-linejoin="round"/>
<path fill-rule="evenodd" clip-rule="evenodd" d="M802.9 481.929C802.6 479.129 802.6 476.428 802.6 473.728C802.6 469.228 804.9 439.129 793.1 437.029C780.7 434.829 789.1 453.529 795.7 467.329C798.1 472.429 802.2 479.529 802.9 481.929Z" fill="#F7F2EE"/>
<path d="M802.9 481.929C802.6 479.129 802.6 476.428 802.6 473.728C802.6 469.228 804.9 439.129 793.1 437.029C780.7 434.829 789.1 453.529 795.7 467.329C798.1 472.429 802.2 479.529 802.9 481.929Z" stroke="black" stroke-width="4" stroke-miterlimit="10" stroke-linecap="round" stroke-linejoin="round"/>
<path fill-rule="evenodd" clip-rule="evenodd" d="M718.7 591.629C719.1 588.429 719.2 585.229 719.2 582.029C719.3 576.729 717.8 541.029 729.7 539.529C742.2 537.929 733.3 559.328 726.3 574.928C723.8 580.828 719.5 588.829 718.7 591.629Z" fill="#F7F2EE"/>
<path d="M718.7 591.629C719.1 588.429 719.2 585.229 719.2 582.029C719.3 576.729 717.8 541.029 729.7 539.529C742.2 537.929 733.3 559.328 726.3 574.928C723.8 580.828 719.5 588.829 718.7 591.629Z" stroke="black" stroke-width="4" stroke-miterlimit="10" stroke-linecap="round" stroke-linejoin="round"/>
<path fill-rule="evenodd" clip-rule="evenodd" d="M835.8 376.429C835.3 377.029 836.6 375.129 837 374.529C837.6 373.329 838.1 372.029 838.6 370.729C840.1 366.729 841.1 362.429 841.2 358.229C841.5 346.829 834.1 335.029 829.3 325.229C820.9 308.229 811.1 291.829 801.6 275.429C797.9 269.029 809.8 276.929 801.6 275.429C791.2 273.529 762.7 269.629 754.8 275.629C743.8 283.829 752.9 301.029 758.1 309.629C765.2 321.329 772.5 332.729 778.8 344.829C789.4 365.129 803.4 402.329 831.8 379.129" fill="#F7F2EE"/>
<path d="M835.8 376.429C835.3 377.029 836.6 375.129 837 374.529C837.6 373.329 838.1 372.029 838.6 370.729C840.1 366.729 841.1 362.429 841.2 358.229C841.5 346.829 834.1 335.029 829.3 325.229C820.9 308.229 811.1 291.829 801.6 275.429C797.9 269.029 809.8 276.929 801.6 275.429C791.2 273.529 762.7 269.629 754.8 275.629C743.8 283.829 752.9 301.029 758.1 309.629C765.2 321.329 772.5 332.729 778.8 344.829C789.4 365.129 803.4 402.329 831.8 379.129" stroke="black" stroke-width="8" stroke-miterlimit="10" stroke-linecap="round" stroke-linejoin="round"/>
<path fill-rule="evenodd" clip-rule="evenodd" d="M842.7 394.429C843.2 394.529 850.3 379.929 836.1 378.529C834.8 378.429 818.8 386.229 818.2 387.929C813.9 402.229 833.7 408.829 842.7 394.429Z" fill="#F7F2EE"/>
<path d="M842.7 394.429C843.2 394.529 850.3 379.929 836.1 378.529C834.8 378.429 818.8 386.229 818.2 387.929C813.9 402.229 833.7 408.829 842.7 394.429Z" stroke="black" stroke-width="8" stroke-miterlimit="10" stroke-linecap="round" stroke-linejoin="round"/>
<path fill-rule="evenodd" clip-rule="evenodd" d="M837.3 333.329C837.4 334.229 836.5 331.629 836.1 330.829C835.5 329.629 834.9 328.329 834.2 327.129C832.2 323.229 830.2 319.228 828.2 315.228C823.6 306.328 815.7 285.629 808.3 279.329C804.5 276.129 798.2 279.128 794.4 280.728C789.1 282.828 756.7 299.929 754.4 305.329C752.4 310.129 763.3 326.928 765.7 331.228C769 337.128 778.3 358.828 783.6 361.728C787 363.528 794.3 358.829 797.2 357.529C809.7 351.629 821.2 343.829 833.4 337.429" fill="#F7F2EE"/>
<path d="M837.3 333.329C837.4 334.229 836.5 331.629 836.1 330.829C835.5 329.629 834.9 328.329 834.2 327.129C832.2 323.229 830.2 319.228 828.2 315.228C823.6 306.328 815.7 285.629 808.3 279.329C804.5 276.129 798.2 279.128 794.4 280.728C789.1 282.828 756.7 299.929 754.4 305.329C752.4 310.129 763.3 326.928 765.7 331.228C769 337.128 778.3 358.828 783.6 361.728C787 363.528 794.3 358.829 797.2 357.529C809.7 351.629 821.2 343.829 833.4 337.429" stroke="black" stroke-width="8" stroke-miterlimit="10" stroke-linecap="round" stroke-linejoin="round"/>
<path fill-rule="evenodd" clip-rule="evenodd" d="M450.7 831.229C450.7 830.629 450.4 832.329 450.2 832.829C449.9 833.829 449.7 834.829 449.4 835.829C448.6 839.029 447.7 842.229 447 845.429C444.7 854.729 442.5 864.029 440.3 873.329C436.6 888.929 432.6 904.529 429 920.129C427.9 925.029 424.2 933.729 426.9 938.629C430.3 944.729 440.1 947.228 446.1 949.528C450.2 951.128 455.4 953.829 460 953.429C469.3 952.629 474.1 939.829 477.6 933.129C487.1 914.729 497 896.429 507.4 878.429C509.8 874.329 521.2 858.428 518.6 853.528C516.5 849.428 505.9 847.229 502.1 845.629C486.1 839.129 469.6 835.129 453.2 829.929" fill="#F7F2EE"/>
<path d="M450.7 831.229C450.7 830.629 450.4 832.329 450.2 832.829C449.9 833.829 449.7 834.829 449.4 835.829C448.6 839.029 447.7 842.229 447 845.429C444.7 854.729 442.5 864.029 440.3 873.329C436.6 888.929 432.6 904.529 429 920.129C427.9 925.029 424.2 933.729 426.9 938.629C430.3 944.729 440.1 947.228 446.1 949.528C450.2 951.128 455.4 953.829 460 953.429C469.3 952.629 474.1 939.829 477.6 933.129C487.1 914.729 497 896.429 507.4 878.429C509.8 874.329 521.2 858.428 518.6 853.528C516.5 849.428 505.9 847.229 502.1 845.629C486.1 839.129 469.6 835.129 453.2 829.929" stroke="black" stroke-width="8" stroke-miterlimit="10" stroke-linecap="round" stroke-linejoin="round"/>
<path fill-rule="evenodd" clip-rule="evenodd" d="M456.2 808.029C456.3 807.929 439.4 830.729 440.9 831.929C449 838.429 489.6 850.029 501.1 854.429C506.4 856.429 525.7 863.629 526.3 860.529C527.4 855.429 527.6 833.429 527.6 833.429C527.6 833.429 510.9 827.229 494.5 822.129C480.6 817.829 469.9 813.329 456.2 808.029Z" fill="#F7F2EE"/>
<path d="M456.2 808.029C456.3 807.929 439.4 830.729 440.9 831.929C449 838.429 489.6 850.029 501.1 854.429C506.4 856.429 525.7 863.629 526.3 860.529C527.4 855.429 527.6 833.429 527.6 833.429C527.6 833.429 510.9 827.229 494.5 822.129C480.6 817.829 469.9 813.329 456.2 808.029Z" stroke="black" stroke-width="8" stroke-miterlimit="10" stroke-linecap="round" stroke-linejoin="round"/>
<path fill-rule="evenodd" clip-rule="evenodd" d="M444.8 853.829C444.7 853.929 444.6 854.429 444.5 854.629C441.7 864.129 432.6 908.229 432.6 908.229L481.6 926.528L511.1 875.629C511.1 875.629 455 857.629 444.6 854.629" fill="#3E977B"/>
<path d="M444.8 853.829C444.7 853.929 444.6 854.429 444.5 854.629C441.7 864.129 432.6 908.229 432.6 908.229L481.6 926.528L511.1 875.629C511.1 875.629 455 857.629 444.6 854.629" stroke="black" stroke-width="4" stroke-miterlimit="10" stroke-linecap="round" stroke-linejoin="round"/>
<path d="M450.5 874.729C450.4 874.429 454 873.129 454.2 873.029C457.6 871.629 461 870.229 464.6 869.429C465.2 869.329 467.8 868.629 467.9 869.829C468 871.429 465.6 873.529 464.7 874.429C461.1 878.229 457.2 881.629 453.4 885.129C451.6 886.729 449.3 888.429 448 890.529C447.9 890.729 447.6 891.029 447.9 891.129C449.8 891.829 453.3 889.529 455 888.829C461.6 885.829 467.8 881.929 474.3 878.629C475.4 878.129 482.6 874.229 482.9 875.529C483.4 877.529 478.3 881.629 477.2 882.729C471.3 888.329 465 893.329 458.9 898.629C457.8 899.629 453.1 902.729 453.3 904.729C453.4 906.229 460.8 903.429 461.7 903.129C468.2 900.829 474.5 897.929 480.8 895.229C481.2 895.029 486.2 892.629 486.4 893.629C486.6 894.429 480.2 899.929 479.5 900.629C477.7 902.229 475.9 903.829 474.1 905.429C471.1 908.029 467.6 910.529 465.2 913.829" stroke="black" stroke-width="4" stroke-miterlimit="10" stroke-linecap="round" stroke-linejoin="round"/>
<path fill-rule="evenodd" clip-rule="evenodd" d="M669 438.529C653.7 455.829 632 502.529 600 508.229C567 514.129 529.7 515.029 522.6 524.429C501.7 551.929 493.7 632.729 503 663.029C509 682.729 514.7 717.429 534.6 728.829C554.8 740.429 577.1 714.829 585.8 698.729C588.1 694.529 592.1 680.829 597.4 679.529C602.3 678.329 601 690.928 600.8 693.029C600.2 701.229 597.4 746.729 617.2 737.329C643.1 725.129 656.5 672.029 655.5 645.629C654.9 631.329 649.3 617.729 649.4 603.329C649.7 579.929 656.5 557.229 664.3 528.529C667.3 517.129 683.2 422.329 669 438.529Z" fill="#3E977B"/>
<path d="M669 438.529C653.7 455.829 632 502.529 600 508.229C567 514.129 529.7 515.029 522.6 524.429C501.7 551.929 493.7 632.729 503 663.029C509 682.729 514.7 717.429 534.6 728.829C554.8 740.429 577.1 714.829 585.8 698.729C588.1 694.529 592.1 680.829 597.4 679.529C602.3 678.329 601 690.929 600.8 693.029C600.2 701.229 597.4 746.729 617.2 737.329C643.1 725.129 656.5 672.029 655.5 645.629C654.9 631.329 649.3 617.729 649.4 603.329C649.7 579.929 656.5 557.229 664.3 528.529C667.3 517.129 683.2 422.329 669 438.529Z" stroke="black" stroke-width="8" stroke-miterlimit="10" stroke-linecap="round" stroke-linejoin="round"/>
<path d="M539.5 625.729C540.1 626.629 539.7 623.629 539.8 622.629C540 620.729 540.4 618.729 540.7 616.829C541.8 611.229 543.3 605.729 544.9 600.229C550.2 582.929 558.5 567.929 572.9 556.729" stroke="black" stroke-width="4" stroke-miterlimit="10" stroke-linecap="round" stroke-linejoin="round"/>
<path d="M591.1 686.028L591.2 685.829C591.9 684.329 592.9 682.928 593.8 681.528C595.6 678.628 597.1 675.629 598.6 672.629C603.2 663.229 607.3 653.729 610.8 643.929C619.8 618.929 636 575.329 636.4 547.729" stroke="black" stroke-width="4" stroke-miterlimit="10" stroke-linecap="round" stroke-linejoin="round"/>
<path d="M608 606.129C611.2 586.929 618.5 537.229 589.6 533.329" stroke="black" stroke-width="4" stroke-miterlimit="10" stroke-linecap="round" stroke-linejoin="round"/>
<path fill-rule="evenodd" clip-rule="evenodd" d="M542.9 640.229C540.7 640.429 536.8 654.528 536.3 656.028C533.1 665.628 524.1 710.029 545.8 708.829C560.7 708.029 589 666.129 588.5 652.229C588 638.529 557 633.829 544.7 639.529" fill="#F7F2EE"/>
<path d="M542.9 640.229C540.7 640.429 536.8 654.528 536.3 656.028C533.1 665.628 524.1 710.029 545.8 708.829C560.7 708.029 589 666.129 588.5 652.229C588 638.529 557 633.829 544.7 639.529" stroke="black" stroke-width="8" stroke-miterlimit="10" stroke-linecap="round" stroke-linejoin="round"/>
<path d="M564.4 639.829C561.5 644.229 561.3 653.529 559.9 658.629C555.8 673.529 551 688.229 545.2 702.629" stroke="black" stroke-width="4" stroke-miterlimit="10" stroke-linecap="round" stroke-linejoin="round"/>
<path fill-rule="evenodd" clip-rule="evenodd" d="M630.8 638.529C625.2 642.229 620.8 660.229 619.2 666.229C617.6 672.329 616.6 678.629 616.2 684.929C616 688.729 616 692.629 616.4 696.429C616.6 698.629 616.9 700.729 617.3 702.929C617.6 704.429 617.8 705.929 618.2 707.429C622.1 722.429 630.6 698.229 631.6 694.929C635.7 681.629 641 666.329 641.3 652.229C641.4 648.529 641.5 640.529 637.8 638.129" fill="#F7F2EE"/>
<path d="M630.8 638.529C625.2 642.229 620.8 660.229 619.2 666.229C617.6 672.329 616.6 678.629 616.2 684.929C616 688.729 616 692.629 616.4 696.429C616.6 698.629 616.9 700.729 617.3 702.929C617.6 704.429 617.8 705.929 618.2 707.429C622.1 722.429 630.6 698.229 631.6 694.929C635.7 681.629 641 666.329 641.3 652.229C641.4 648.529 641.5 640.529 637.8 638.129" stroke="black" stroke-width="8" stroke-miterlimit="10" stroke-linecap="round" stroke-linejoin="round"/>
<path d="M581.4 1019.83C578.7 1021.23 572 1020.73 568.8 1021.43C549 1026.23 527.1 1031.43 512.1 1046.33C489.1 1069.33 507.7 1079.63 505.2 1086.73C503.2 1092.43 496.1 1095.53 493.6 1101.43C481.9 1128.33 472.3 1160.43 468 1189.33C466.7 1198.43 473.8 1203.93 473.1 1211.83C472.6 1218.13 462.5 1216.53 459 1220.53C453.8 1226.43 453 1240.13 453.5 1247.73C454.3 1260.83 468.3 1266.33 478.6 1270.53C492.6 1276.23 506 1279.43 520.1 1284.73C536.8 1290.93 553.3 1298.13 571.1 1301.93C580.9 1304.03 595.9 1309.33 606 1306.13C618.8 1302.03 630.5 1281.03 628 1268.03C627.2 1263.73 624.1 1260.33 620.7 1257.63C620.4 1257.43 617.4 1255.53 617.8 1254.93C620.6 1251.53 629.3 1256.23 633.4 1249.93C647.2 1228.43 659.3 1171.83 662 1146.33C662.6 1140.43 656.1 1132.63 656.9 1129.03C657.3 1127.33 671.8 1124.83 674.3 1113.13C683.2 1071.93 661.5 1043.93 624.4 1029.03C614.7 1025.13 603.9 1020.43 593.3 1019.83" stroke="black" stroke-width="8" stroke-miterlimit="10" stroke-linecap="round" stroke-linejoin="round"/>
<path fill-rule="evenodd" clip-rule="evenodd" d="M484 1130.23C483.7 1131.73 486.5 1128.53 487.9 1127.93C490.9 1126.63 493.9 1125.53 497 1124.63C506.4 1121.93 516.1 1121.73 525.8 1122.23C558.3 1123.93 588.8 1133.73 621.7 1130.13C635 1128.63 656.5 1121.13 660.5 1140.53C664 1157.83 654.1 1192.13 649.1 1208.93C645.3 1221.53 640.9 1235.93 632.9 1246.63C630.1 1250.43 619.3 1253.63 618.1 1256.93C617.2 1259.43 624.1 1264.53 624.7 1267.53C626.9 1278.23 618.6 1295.83 609.2 1301.03C587.5 1313.13 557.2 1296.63 536.2 1290.13C525.1 1286.73 465.6 1266.13 460.3 1260.83C454.7 1255.23 452.8 1244.23 453.5 1236.53C455.1 1219.13 473.5 1219.83 473.7 1211.83C473.8 1206.03 469 1199.33 468.8 1193.33C468.3 1179.33 475.3 1143.13 484.7 1133.03" fill="#FF8500"/>
<path d="M484 1130.23C483.7 1131.73 486.5 1128.53 487.9 1127.93C490.9 1126.63 493.9 1125.53 497 1124.63C506.4 1121.93 516.1 1121.73 525.8 1122.23C558.3 1123.93 588.8 1133.73 621.7 1130.13C635 1128.63 656.5 1121.13 660.5 1140.53C664 1157.83 654.1 1192.13 649.1 1208.93C645.3 1221.53 640.9 1235.93 632.9 1246.63C630.1 1250.43 619.3 1253.63 618.1 1256.93C617.2 1259.43 624.1 1264.53 624.7 1267.53C626.9 1278.23 618.6 1295.83 609.2 1301.03C587.5 1313.13 557.2 1296.63 536.2 1290.13C525.1 1286.73 465.6 1266.13 460.3 1260.83C454.7 1255.23 452.8 1244.23 453.5 1236.53C455.1 1219.13 473.5 1219.83 473.7 1211.83C473.8 1206.03 469 1199.33 468.8 1193.33C468.3 1179.33 475.3 1143.13 484.7 1133.03" stroke="black" stroke-width="4" stroke-miterlimit="10" stroke-linecap="round" stroke-linejoin="round"/>
<path fill-rule="evenodd" clip-rule="evenodd" d="M620 1003.73C578.3 991.528 579.3 1009.93 581.9 1018.83C582.9 1022.33 635.7 1041.13 643 1040.43C654.1 1039.43 661.4 1015.83 620 1003.73Z" fill="#F7F2EE"/>
<path d="M620 1003.73C578.3 991.528 579.3 1009.93 581.9 1018.83C582.9 1022.33 635.7 1041.13 643 1040.43C654.1 1039.43 661.4 1015.83 620 1003.73Z" stroke="black" stroke-width="8" stroke-miterlimit="10" stroke-linecap="round" stroke-linejoin="round"/>
<path d="M509.5 1083.73C509 1083.83 512.7 1084.13 513.8 1084.43C517.2 1085.23 520.7 1086.23 524.1 1087.13C533.6 1089.63 543 1092.23 552.4 1095.03C582 1103.93 613.1 1111.73 641.7 1123.63C649 1126.63 665.6 1135.83 662 1146.73C658 1158.73 627 1142.03 621.1 1139.63C590.3 1127.33 559.1 1116.23 527.2 1107.03C517 1104.03 500 1097.43 493.1 1109.83C486.7 1121.33 522.9 1129.83 528.5 1131.53C561.4 1141.93 594.7 1151.33 627.7 1161.63C637.4 1164.63 657.1 1169.13 655.3 1183.03C653 1201.43 621 1188.63 611.8 1185.93C578 1176.13 545.1 1163.33 511.5 1152.63C503.4 1150.03 485.6 1140.23 478.7 1149.83C468.6 1163.93 503.9 1175.33 510.7 1177.73C543.2 1189.63 576.6 1198.83 610.1 1207.53C617.6 1209.43 639.8 1211.93 641.1 1222.63C643.1 1238.93 606.9 1226.23 602.5 1224.83C572 1215.13 541.8 1204.43 510.9 1195.93C504 1194.03 485.3 1185.93 478.4 1191.93C469.9 1199.43 482.3 1210.43 488.6 1213.83C510 1225.43 536.4 1230.03 559.8 1235.83C581.2 1241.13 603.9 1245.33 624.3 1254.03" stroke="black" stroke-width="4" stroke-miterlimit="10" stroke-linecap="round" stroke-linejoin="round"/>
<path fill-rule="evenodd" clip-rule="evenodd" d="M726.1 784.528C715.1 794.228 682.9 854.229 682.9 854.229C682.9 854.229 702.2 865.829 705.1 865.829C705.6 865.829 743.4 806.928 750.1 794.028C750.9 792.428 730 783.229 727.6 783.229C727.1 783.229 726.3 783.229 726.8 782.829" fill="#F7F2EE"/>
<path d="M726.1 784.528C715.1 794.228 682.9 854.229 682.9 854.229C682.9 854.229 702.2 865.829 705.1 865.829C705.6 865.829 743.4 806.928 750.1 794.028C750.9 792.428 730 783.229 727.6 783.229C727.1 783.229 726.3 783.229 726.8 782.829" stroke="black" stroke-width="8" stroke-miterlimit="10" stroke-linecap="round" stroke-linejoin="round"/>
<path fill-rule="evenodd" clip-rule="evenodd" d="M727.7 782.129C727.7 782.129 728.6 781.829 728.7 781.829C735.1 779.929 741.5 778.429 748 776.929C753.2 775.729 758.4 774.529 763.7 773.429C772.3 771.729 795.9 768.728 797.8 769.228C802 770.328 815.9 785.629 815.8 786.629C815.8 786.829 813.9 787.028 813.7 787.028C806.4 788.228 750.3 794.028 750.3 794.028C750.3 794.028 758.3 799.329 729 783.429" fill="#F7F2EE"/>
<path d="M727.7 782.129C727.7 782.129 728.6 781.829 728.7 781.829C735.1 779.929 741.5 778.429 748 776.929C753.2 775.729 758.4 774.529 763.7 773.429C772.3 771.729 795.9 768.728 797.8 769.228C802 770.328 815.9 785.629 815.8 786.629C815.8 786.829 813.9 787.028 813.7 787.028C806.4 788.228 750.3 794.028 750.3 794.028C750.3 794.028 758.3 799.329 729 783.429" stroke="black" stroke-width="8" stroke-miterlimit="10" stroke-linecap="round" stroke-linejoin="round"/>
<path fill-rule="evenodd" clip-rule="evenodd" d="M752.3 793.129C748.4 792.829 737.8 814.129 732.5 823.429C732.1 824.229 731.6 824.928 731.2 825.728C731 826.028 730.9 826.329 730.7 826.629C723.4 839.129 716.2 851.329 707.5 862.929C706.8 863.929 704.3 865.829 706 866.929C714.1 872.029 782.8 855.728 782.8 855.728C782.8 855.728 809.6 798.228 815.7 787.228C816 786.728 760.4 791.729 752.3 793.129Z" fill="#F7F2EE"/>
<path d="M752.3 793.129C748.4 792.829 737.8 814.129 732.5 823.429C732.1 824.229 731.6 824.928 731.2 825.728C731 826.028 730.9 826.329 730.7 826.629C723.4 839.129 716.2 851.329 707.5 862.929C706.8 863.929 704.3 865.829 706 866.929C714.1 872.029 782.8 855.728 782.8 855.728C782.8 855.728 809.6 798.228 815.7 787.228C816 786.728 760.4 791.729 752.3 793.129Z" stroke="black" stroke-width="8" stroke-miterlimit="10" stroke-linecap="round" stroke-linejoin="round"/>
<path fill-rule="evenodd" clip-rule="evenodd" d="M866.1 597.729C867 598.529 864.9 599.829 864.5 600.929C863.1 604.429 862 608.029 860.8 611.629C857.6 621.029 856.1 629.629 856.3 639.629C856.8 659.629 870.5 718.229 891.7 726.329C902 730.229 937.8 715.329 946.7 708.929C963.2 697.029 954.5 676.229 949.6 660.629C942.2 636.629 938.6 620.729 920.5 601.829C910.1 591.029 900.2 586.529 885.4 590.829C880 592.429 872.3 594.129 867.7 597.729" fill="#FF8500"/>
<path d="M866.1 597.729C867 598.529 864.9 599.829 864.5 600.929C863.1 604.429 862 608.029 860.8 611.629C857.6 621.029 856.1 629.629 856.3 639.629C856.8 659.629 870.5 718.229 891.7 726.329C902 730.229 937.8 715.329 946.7 708.929C963.2 697.029 954.5 676.229 949.6 660.629C942.2 636.629 938.6 620.729 920.5 601.829C910.1 591.029 900.2 586.529 885.4 590.829C880 592.429 872.3 594.129 867.7 597.729" stroke="black" stroke-width="8" stroke-miterlimit="10" stroke-linecap="round" stroke-linejoin="round"/>
<path d="M883.3 685.329C883.9 684.229 884 687.829 884.4 689.029C885.2 691.329 886.2 693.629 887.2 695.929C890.5 703.129 895.7 709.029 904.1 709.029" stroke="black" stroke-width="4" stroke-miterlimit="10" stroke-linecap="round" stroke-linejoin="round"/>
<path fill-rule="evenodd" clip-rule="evenodd" d="M916.9 622.929C917.5 623.029 916 621.929 915.6 621.429C914.3 620.029 912.9 618.829 911.5 617.629C907.4 614.029 899.5 608.729 899 616.929C898.1 633.829 912.7 662.329 922.2 656.429C931.3 650.829 921.9 629.629 917.1 623.829" fill="#F7F2EE"/>
<path d="M916.9 622.929C917.5 623.029 916 621.929 915.6 621.429C914.3 620.029 912.9 618.829 911.5 617.629C907.4 614.029 899.5 608.729 899 616.929C898.1 633.829 912.7 662.329 922.2 656.429C931.3 650.829 921.9 629.629 917.1 623.829" stroke="black" stroke-width="8" stroke-miterlimit="10" stroke-linecap="round" stroke-linejoin="round"/>
<path fill-rule="evenodd" clip-rule="evenodd" d="M901.4 581.129C901.9 591.129 860.9 596.629 860.7 596.229C860.1 594.529 857.6 589.329 858.5 587.629C864.1 577.529 900.7 568.029 901.4 581.129Z" fill="#F7F2EE"/>
<path d="M901.4 581.129C901.9 591.129 860.9 596.629 860.7 596.229C860.1 594.529 857.6 589.329 858.5 587.629C864.1 577.529 900.7 568.029 901.4 581.129Z" stroke="black" stroke-width="8" stroke-miterlimit="10" stroke-linecap="round" stroke-linejoin="round"/>
<path fill-rule="evenodd" clip-rule="evenodd" d="M865.2 581.129C859.2 581.229 860 569.629 863.2 566.029C870.2 558.029 886.1 559.029 890 567.229C894.7 577.029 871 581.029 865.2 581.129Z" fill="#F7F2EE"/>
<path d="M865.2 581.129C859.2 581.229 860 569.629 863.2 566.029C870.2 558.029 886.1 559.029 890 567.229C894.7 577.029 871 581.029 865.2 581.129Z" stroke="black" stroke-width="8" stroke-miterlimit="10" stroke-linecap="round" stroke-linejoin="round"/>
<path fill-rule="evenodd" clip-rule="evenodd" d="M819.1 1083.13C819.1 1083.13 820.1 1086.33 820.1 1086.43C820.8 1088.73 821.6 1091.03 822.3 1093.33C824.5 1100.33 826.7 1107.43 828.8 1114.43C839.3 1148.83 849.8 1182.83 863.1 1216.33C882.7 1265.63 901.7 1315.03 922.3 1363.93C927.9 1377.23 933.7 1407.63 949.4 1413.23C973.9 1421.93 1004.5 1402.43 1027.3 1395.33C1042.3 1390.73 1063.1 1389.03 1075.5 1378.73C1087.2 1368.93 1076.8 1343.13 1075 1330.73C1067.9 1281.93 1062.1 1233.13 1053 1184.73C1046.1 1147.73 1042.6 1110.73 1039.3 1073.33C1038.6 1065.53 1038.6 1039.33 1029.8 1034.53C1023.1 1030.93 1013.9 1033.33 1006.9 1034.53C990.2 1037.33 973.5 1040.83 957.1 1045.23C940 1049.73 923.3 1055.63 906.5 1061.13C889.9 1066.53 873.4 1072.23 856.7 1077.13C848.4 1079.53 837.9 1080.63 830.1 1084.23" fill="#F7F2EE"/>
<path d="M819.1 1083.13C819.1 1083.13 820.1 1086.33 820.1 1086.43C820.8 1088.73 821.6 1091.03 822.3 1093.33C824.5 1100.33 826.7 1107.43 828.8 1114.43C839.3 1148.83 849.8 1182.83 863.1 1216.33C882.7 1265.63 901.7 1315.03 922.3 1363.93C927.9 1377.23 933.7 1407.63 949.4 1413.23C973.9 1421.93 1004.5 1402.43 1027.3 1395.33C1042.3 1390.73 1063.1 1389.03 1075.5 1378.73C1087.2 1368.93 1076.8 1343.13 1075 1330.73C1067.9 1281.93 1062.1 1233.13 1053 1184.73C1046.1 1147.73 1042.6 1110.73 1039.3 1073.33C1038.6 1065.53 1038.6 1039.33 1029.8 1034.53C1023.1 1030.93 1013.9 1033.33 1006.9 1034.53C990.2 1037.33 973.5 1040.83 957.1 1045.23C940 1049.73 923.3 1055.63 906.5 1061.13C889.9 1066.53 873.4 1072.23 856.7 1077.13C848.4 1079.53 837.9 1080.63 830.1 1084.23" stroke="black" stroke-width="8" stroke-miterlimit="10" stroke-linecap="round" stroke-linejoin="round"/>
<path fill-rule="evenodd" clip-rule="evenodd" d="M921 1126.33C914.3 1129.53 911.6 1133.13 908 1136.03C900.3 1142.23 893.7 1149.63 888.1 1158.03C872.4 1181.43 867.9 1214.73 874.1 1242.83C888.9 1309.63 959.9 1349.53 1018.8 1318.13C1112.6 1268.23 1021.9 1077.23 921 1126.33Z" fill="#3E977B"/>
<path d="M921 1126.33C914.3 1129.53 911.6 1133.13 908 1136.03C900.3 1142.23 893.7 1149.63 888.1 1158.03C872.4 1181.43 867.9 1214.73 874.1 1242.83C888.9 1309.63 959.9 1349.53 1018.8 1318.13C1112.6 1268.23 1021.9 1077.23 921 1126.33Z" stroke="black" stroke-width="4" stroke-miterlimit="10" stroke-linecap="round" stroke-linejoin="round"/>
<path fill-rule="evenodd" clip-rule="evenodd" d="M1005.4 1319.93C1005.4 1319.93 1003.1 1312.43 1003 1311.73C1002.5 1306.03 1003.3 1299.93 1005.5 1294.73C1012.1 1279.03 1028.2 1269.73 1040.5 1258.93C1044.4 1255.43 1048.4 1251.33 1051.2 1246.93C1051.4 1246.63 1055.1 1239.23 1055.4 1239.43C1059 1241.63 1057.9 1262.33 1057.5 1265.73C1055.3 1284.83 1028.7 1320.53 1007 1320.53" fill="#F7F2EE"/>
<path d="M1005.4 1319.93C1005.4 1319.93 1003.1 1312.43 1003 1311.73C1002.5 1306.03 1003.3 1299.93 1005.5 1294.73C1012.1 1279.03 1028.2 1269.73 1040.5 1258.93C1044.4 1255.43 1048.4 1251.33 1051.2 1246.93C1051.4 1246.63 1055.1 1239.23 1055.4 1239.43C1059 1241.63 1057.9 1262.33 1057.5 1265.73C1055.3 1284.83 1028.7 1320.53 1007 1320.53" stroke="black" stroke-width="4" stroke-miterlimit="10" stroke-linecap="round" stroke-linejoin="round"/>
<path d="M1006.9 1295.13C1007.3 1294.33 1007.7 1296.83 1008.3 1297.53C1009.5 1299.03 1010.8 1300.53 1012.2 1301.93C1016.3 1306.13 1022.1 1308.43 1027.9 1308.13" stroke="black" stroke-width="4" stroke-miterlimit="10" stroke-linecap="round" stroke-linejoin="round"/>
<path d="M1015.7 1282.83C1016.4 1282.23 1016.4 1284.63 1017 1285.33C1018.5 1286.93 1020.2 1288.53 1021.9 1289.93C1027 1294.03 1033.7 1297.03 1040.4 1295.43" stroke="black" stroke-width="4" stroke-miterlimit="10" stroke-linecap="round" stroke-linejoin="round"/>
<path d="M1025.2 1271.53C1025.2 1270.53 1025.9 1273.53 1026.6 1274.33C1028.2 1275.93 1030.1 1277.13 1032 1278.23C1038.1 1281.73 1043.5 1282.43 1050.1 1280.73" stroke="black" stroke-width="4" stroke-miterlimit="10" stroke-linecap="round" stroke-linejoin="round"/>
<path d="M1039.2 1261.63C1038.3 1262.43 1042.5 1264.73 1042.8 1264.93C1046.2 1266.53 1050.6 1267.43 1054.2 1265.93" stroke="black" stroke-width="4" stroke-miterlimit="10" stroke-linecap="round" stroke-linejoin="round"/>
<path fill-rule="evenodd" clip-rule="evenodd" d="M999.5 1323.33C986.6 1299.03 950.4 1292.13 926 1292.23C917.5 1292.23 909.7 1292.83 902.4 1287.83C900.1 1286.23 897.9 1284.53 895.6 1282.93C894.4 1282.13 890.8 1280.23 892.2 1280.33C893.8 1280.53 896.9 1286.43 897.7 1287.63C902.7 1294.63 907.4 1301.73 914.2 1307.23C935.3 1324.43 967.9 1334.73 994.9 1327.73" fill="#F7F2EE"/>
<path d="M999.5 1323.33C986.6 1299.03 950.4 1292.13 926 1292.23C917.5 1292.23 909.7 1292.83 902.4 1287.83C900.1 1286.23 897.9 1284.53 895.6 1282.93C894.4 1282.13 890.8 1280.23 892.2 1280.33C893.8 1280.53 896.9 1286.43 897.7 1287.63C902.7 1294.63 907.4 1301.73 914.2 1307.23C935.3 1324.43 967.9 1334.73 994.9 1327.73" stroke="black" stroke-width="4" stroke-miterlimit="10" stroke-linecap="round" stroke-linejoin="round"/>
<path d="M980.8 1305.83C980.7 1304.93 981 1307.73 981 1308.63C981 1310.43 980.8 1312.23 980.5 1314.03C979.5 1319.73 977.5 1326.43 971.6 1328.73" stroke="black" stroke-width="4" stroke-miterlimit="10" stroke-linecap="round" stroke-linejoin="round"/>
<path d="M960.5 1297.63C967.5 1304.63 960.4 1322.43 951 1324.83" stroke="black" stroke-width="4" stroke-miterlimit="10" stroke-linecap="round" stroke-linejoin="round"/>
<path d="M946.9 1294.53C946.8 1294.53 947.1 1296.33 947.1 1296.63C947.1 1298.53 946.9 1300.53 946.4 1302.43C944.7 1309.73 942 1316.73 933.9 1317.63" stroke="black" stroke-width="4" stroke-miterlimit="10" stroke-linecap="round" stroke-linejoin="round"/>
<path d="M927.8 1292.93C927.6 1293.73 928.8 1294.43 928.8 1295.33C929.1 1301.13 925.5 1307.13 919.5 1307.73" stroke="black" stroke-width="4" stroke-miterlimit="10" stroke-linecap="round" stroke-linejoin="round"/>
<path fill-rule="evenodd" clip-rule="evenodd" d="M810.9 1050.83C799.2 1056.03 786.9 1076.03 797.8 1087.43C803.9 1093.83 814 1094.23 822.2 1093.63C849 1091.73 875.4 1081.73 901.6 1076.13C942.4 1067.43 988.3 1062.03 1025.7 1042.43C1032.1 1039.03 1039.1 1034.83 1043.4 1028.83C1059.5 1006.43 1028.7 994.429 1010.9 996.629C979.5 1000.63 948.9 1011.73 918.6 1020.73C890.4 1029.13 838.8 1041.73 810.9 1050.83Z" fill="#F7F2EE"/>
<path d="M810.9 1050.83C799.2 1056.03 786.9 1076.03 797.8 1087.43C803.9 1093.83 814 1094.23 822.2 1093.63C849 1091.73 875.4 1081.73 901.6 1076.13C942.4 1067.43 988.3 1062.03 1025.7 1042.43C1032.1 1039.03 1039.1 1034.83 1043.4 1028.83C1059.5 1006.43 1028.7 994.429 1010.9 996.629C979.5 1000.63 948.9 1011.73 918.6 1020.73C890.4 1029.13 838.8 1041.73 810.9 1050.83Z" stroke="black" stroke-width="8" stroke-miterlimit="10" stroke-linecap="round" stroke-linejoin="round"/>
<path fill-rule="evenodd" clip-rule="evenodd" d="M890.9 1022.73C893.2 1015.13 886 998.629 884.2 991.429C877.3 963.429 868.4 936.128 862 908.028C860.1 899.828 853.3 885.128 855.9 876.728C858 870.128 866.1 864.329 870.9 859.829C883.2 848.129 896.2 837.529 909 826.429C919.2 817.629 929.3 808.828 939.4 800.028C941.9 797.828 947.5 791.229 951.5 792.129C955.4 793.029 959.5 798.828 962.4 801.228C964.7 803.128 968.1 805.529 968.8 808.429C969.8 812.429 884.7 875.829 883.6 883.429C882 893.829 888.4 912.728 890.6 922.728C895.7 946.328 904.4 969.929 910.4 993.329C914.4 1008.93 929.4 1025.13 907.5 1027.03C904.7 1027.23 902 1027.53 899.3 1026.83" fill="black"/>
<path d="M890.9 1022.73C893.2 1015.13 886 998.629 884.2 991.429C877.3 963.429 868.4 936.128 862 908.028C860.1 899.828 853.3 885.128 855.9 876.728C858 870.128 866.1 864.329 870.9 859.829C883.2 848.129 896.2 837.529 909 826.429C919.2 817.629 929.3 808.828 939.4 800.028C941.9 797.828 947.5 791.229 951.5 792.129C955.4 793.029 959.5 798.828 962.4 801.228C964.7 803.128 968.1 805.529 968.8 808.429C969.8 812.429 884.7 875.829 883.6 883.429C882 893.829 888.4 912.728 890.6 922.728C895.7 946.328 904.4 969.929 910.4 993.329C914.4 1008.93 929.4 1025.13 907.5 1027.03C904.7 1027.23 902 1027.53 899.3 1026.83" stroke="black" stroke-width="8" stroke-miterlimit="10" stroke-linecap="round" stroke-linejoin="round"/>
<path d="M865 867.528C864.6 867.128 865.8 868.228 866.2 868.528C867.2 869.128 868.2 869.828 869.2 870.428C872.1 872.228 875.1 873.928 878 875.728" stroke="#F7F2EE" stroke-width="4" stroke-miterlimit="10" stroke-linecap="round" stroke-linejoin="round"/>
<path d="M859.4 882.929C861.3 883.129 863.2 883.229 865.1 883.429C871 884.029 873.7 884.229 879.6 884.829" stroke="#F7F2EE" stroke-width="4" stroke-miterlimit="10" stroke-linecap="round" stroke-linejoin="round"/>
<path d="M863.9 899.929C871.3 897.929 875.5 897.329 881.6 894.929" stroke="#F7F2EE" stroke-width="4" stroke-miterlimit="10" stroke-linecap="round" stroke-linejoin="round"/>
<path d="M868.9 913.729C872.8 912.029 879.8 907.529 883.8 905.929" stroke="#F7F2EE" stroke-width="4" stroke-miterlimit="10" stroke-linecap="round" stroke-linejoin="round"/>
<path fill-rule="evenodd" clip-rule="evenodd" d="M943.7 1180.93C944.6 1181.43 941.7 1180.73 940.8 1180.33C938.8 1179.53 937 1178.43 935.3 1177.13C931.6 1174.23 919.9 1162.83 923.9 1157.13C925 1155.53 929.4 1157.43 930.7 1157.93C937.7 1160.73 941.1 1164.63 945.5 1170.23C946.1 1170.93 944.4 1168.73 944 1167.93C943.1 1166.43 942.3 1164.83 941.5 1163.23C939 1158.03 936.2 1152.53 935.8 1146.73C935.7 1145.53 935.3 1141.23 937.4 1141.33C943.9 1141.63 948.3 1151.73 949.7 1156.83C949.9 1157.43 951.8 1165.63 952.2 1165.43C953 1165.13 952 1159.53 951.9 1158.93C951.7 1156.53 948.6 1134.93 954.3 1135.93C962 1137.33 963.3 1151.93 962.1 1157.63C961.9 1158.73 959.4 1164.73 960.1 1165.53C960.2 1165.63 960.9 1164.03 960.9 1164.03C961.4 1162.73 961.9 1161.53 962.4 1160.23C962.5 1160.03 962.5 1159.93 962.6 1159.73C962.7 1159.53 962.7 1159.43 962.8 1159.23C962.9 1159.03 962.9 1158.93 963 1158.73C963.1 1158.53 963.1 1158.43 963.2 1158.23C966.5 1149.63 969.5 1143.93 971.2 1145.23C973.7 1147.23 973.3 1154.73 973.3 1157.43C972.9 1172.73 961.7 1182.03 946.7 1181.53" fill="#F7F2EE"/>
<path d="M943.7 1180.93C944.6 1181.43 941.7 1180.73 940.8 1180.33C938.8 1179.53 937 1178.43 935.3 1177.13C931.6 1174.23 919.9 1162.83 923.9 1157.13C925 1155.53 929.4 1157.43 930.7 1157.93C937.7 1160.73 941.1 1164.63 945.5 1170.23C946.1 1170.93 944.4 1168.73 944 1167.93C943.1 1166.43 942.3 1164.83 941.5 1163.23C939 1158.03 936.2 1152.53 935.8 1146.73C935.7 1145.53 935.3 1141.23 937.4 1141.33C943.9 1141.63 948.3 1151.73 949.7 1156.83C949.9 1157.43 951.8 1165.63 952.2 1165.43C953 1165.13 952 1159.53 951.9 1158.93C951.7 1156.53 948.6 1134.93 954.3 1135.93C962 1137.33 963.3 1151.93 962.1 1157.63C961.9 1158.73 959.4 1164.73 960.1 1165.53C960.2 1165.63 960.9 1164.03 960.9 1164.03C961.4 1162.73 961.9 1161.53 962.4 1160.23C962.5 1160.03 962.5 1159.93 962.6 1159.73C962.7 1159.53 962.7 1159.43 962.8 1159.23C962.9 1159.03 962.9 1158.93 963 1158.73C963.1 1158.53 963.1 1158.43 963.2 1158.23C966.5 1149.63 969.5 1143.93 971.2 1145.23C973.7 1147.23 973.3 1154.73 973.3 1157.43C972.9 1172.73 961.7 1182.03 946.7 1181.53" stroke="black" stroke-width="4" stroke-miterlimit="10" stroke-linecap="round" stroke-linejoin="round"/>
<path fill-rule="evenodd" clip-rule="evenodd" d="M925.2 1210.93C925.2 1210.83 925 1211.03 925 1211.03C923 1212.53 921.3 1218.53 919.3 1220.03C914.5 1223.53 911.1 1229.93 910.3 1235.93C908.2 1251.03 916.9 1264.13 930.9 1271.83C952.7 1283.93 1021.1 1260.83 1028.9 1242.53C1034.1 1230.33 1030.4 1199.93 1016.6 1194.73C1009.3 1192.03 998.9 1191.43 992 1189.63C986.8 1188.33 987.7 1179.23 980 1180.43C974.7 1181.23 977.7 1189.33 975.1 1192.23C972 1195.73 963.1 1197.23 958.7 1199.33C954 1201.53 946.8 1204.13 941.6 1202.93C932.8 1201.03 925.4 1194.23 925.4 1209.33" fill="#F7F2EE"/>
<path d="M925.2 1210.93C925.2 1210.83 925 1211.03 925 1211.03C923 1212.53 921.3 1218.53 919.3 1220.03C914.5 1223.53 911.1 1229.93 910.3 1235.93C908.2 1251.03 916.9 1264.13 930.9 1271.83C952.7 1283.93 1021.1 1260.83 1028.9 1242.53C1034.1 1230.33 1030.4 1199.93 1016.6 1194.73C1009.3 1192.03 998.9 1191.43 992 1189.63C986.8 1188.33 987.7 1179.23 980 1180.43C974.7 1181.23 977.7 1189.33 975.1 1192.23C972 1195.73 963.1 1197.23 958.7 1199.33C954 1201.53 946.8 1204.13 941.6 1202.93C932.8 1201.03 925.4 1194.23 925.4 1209.33" stroke="black" stroke-width="4" stroke-miterlimit="10" stroke-linecap="round" stroke-linejoin="round"/>
<path d="M1003.2 1214.23C1005.2 1211.63 1019.3 1199.13 1027.3 1192.63" stroke="black" stroke-width="4" stroke-miterlimit="10" stroke-linecap="round" stroke-linejoin="round"/>
<path d="M1010.2 1224.23C1018.4 1221.73 1027.4 1214.23 1035.8 1212.13" stroke="black" stroke-width="4" stroke-miterlimit="10" stroke-linecap="round" stroke-linejoin="round"/>
<path d="M1011.6 1234.63C1011.5 1234.73 1011.4 1234.73 1011.6 1234.63C1013.9 1234.23 1016 1234.23 1018.2 1234.13C1023.1 1234.03 1034.2 1232.33 1039.1 1232.53" stroke="black" stroke-width="4" stroke-miterlimit="10" stroke-linecap="round" stroke-linejoin="round"/>
<path d="M925.9 1236.13C921.5 1235.13 902.6 1230.83 889.7 1234.03" stroke="black" stroke-width="4" stroke-miterlimit="10" stroke-linecap="round" stroke-linejoin="round"/>
<path d="M927.9 1245.23C926.6 1245.43 915.9 1246.73 912.7 1247.43C903 1249.43 903.1 1248.33 894 1252.03" stroke="black" stroke-width="4" stroke-miterlimit="10" stroke-linecap="round" stroke-linejoin="round"/>
<path d="M930.1 1255.63C923.1 1260.33 914.5 1266.33 908.2 1271.93" stroke="black" stroke-width="4" stroke-miterlimit="10" stroke-linecap="round" stroke-linejoin="round"/>
<path fill-rule="evenodd" clip-rule="evenodd" d="M948.4 1203.73C948.4 1203.73 950.4 1205.33 950.6 1205.63C951.4 1206.73 953.8 1210.93 955.3 1210.63C958.1 1210.13 954.3 1203.93 956.4 1202.93C958.2 1202.13 960.5 1207.13 962.3 1207.33C964 1207.53 962.6 1202.93 963.6 1202.43C963.8 1202.33 964.1 1202.73 964.2 1202.83C966.9 1205.43 970.7 1207.53 970.8 1201.83C971 1192.73 954.4 1200.33 951.1 1203.13" fill="black"/>
<path d="M948.4 1203.73C948.4 1203.73 950.4 1205.33 950.6 1205.63C951.4 1206.73 953.8 1210.93 955.3 1210.63C958.1 1210.13 954.3 1203.93 956.4 1202.93C958.2 1202.13 960.5 1207.13 962.3 1207.33C964 1207.53 962.6 1202.93 963.6 1202.43C963.8 1202.33 964.1 1202.73 964.2 1202.83C966.9 1205.43 970.7 1207.53 970.8 1201.83C971 1192.73 954.4 1200.33 951.1 1203.13" stroke="black" stroke-width="4" stroke-miterlimit="10" stroke-linecap="round" stroke-linejoin="round"/>
<path d="M939.5 1225.93C946.3 1230.73 956.6 1229.53 955.9 1219.23" stroke="black" stroke-width="4" stroke-miterlimit="10" stroke-linecap="round" stroke-linejoin="round"/>
<path d="M971 1214.63C971.5 1218.23 979 1219.83 981.8 1219.33C987.4 1218.43 989 1214.53 989.1 1209.33" stroke="black" stroke-width="4" stroke-miterlimit="10" stroke-linecap="round" stroke-linejoin="round"/>
<path d="M964.6 1226.03C964.7 1226.13 964.4 1226.13 964.3 1226.13C963.6 1226.93 963.3 1228.33 963.3 1229.33C963.2 1231.63 964.3 1234.13 966.2 1235.63C973.8 1241.43 980.8 1223.53 969.3 1224.43C968 1224.53 966.8 1225.03 965.6 1225.53" stroke="black" stroke-width="4" stroke-miterlimit="10" stroke-linecap="round" stroke-linejoin="round"/>
<path d="M969.6 1237.63C970.4 1239.53 967.9 1243.53 966.8 1245.03C964 1248.93 959.8 1252.53 954.8 1253.13C948.5 1253.83 943.8 1249.33 945.6 1243.03" stroke="black" stroke-width="4" stroke-miterlimit="10" stroke-linecap="round" stroke-linejoin="round"/>
<path d="M971.1 1236.13C969.7 1237.63 977.3 1243.13 978.1 1243.63C984.1 1246.73 992.7 1245.53 996.6 1239.63C998.3 1237.13 999.8 1228.43 995.1 1227.43" stroke="black" stroke-width="4" stroke-miterlimit="10" stroke-linecap="round" stroke-linejoin="round"/>
</svg>
