<svg width="1500" height="1500" viewBox="0 0 1500 1500" fill="none" xmlns="http://www.w3.org/2000/svg">
<rect width="1500" height="1500" fill="#F7F2EE"/>
<path d="M683.152 127.284C679.052 126.184 618.852 107.984 586.152 110.184C549.452 112.684 499.952 120.984 463.252 141.984C423.252 164.984 387.152 189.485 345.952 247.885C282.352 338.185 378.352 471.084 344.752 568.884C292.452 721.384 155.152 712.085 111.252 859.085C48.4516 1069.18 168.752 1210.08 453.152 1198.78C484.152 1197.58 517.752 1194.58 553.952 1189.88C649.052 1177.48 736.052 1285.28 818.152 1346.88C855.952 1375.18 862.852 1396.08 928.552 1386.18C956.352 1381.98 980.852 1370.78 1003.75 1358.38C1077.55 1318.58 1131.25 1250.28 1192.25 1189.78C1237.85 1144.58 1301.35 1091.78 1346.95 1031.58C1393.25 970.485 1420.95 901.584 1392.55 824.984C1355.15 724.384 1240.85 630.185 1236.65 569.085C1229.25 461.385 1504.05 368.084 1310.45 187.984C1229.05 112.284 1107.65 148.984 998.752 169.184C963.352 175.784 929.352 180.584 898.352 179.184C821.752 175.684 755.052 146.584 683.152 127.284Z" stroke="black" stroke-width="8" stroke-miterlimit="10" stroke-linecap="round" stroke-linejoin="round"/>
<path d="M977.652 172.284C972.652 175.884 908.652 365.284 900.352 387.484" stroke="black" stroke-width="4" stroke-miterlimit="10" stroke-linecap="round" stroke-linejoin="round"/>
<path d="M1047.05 159.984C1046.55 159.984 1045.25 163.484 1045.15 163.784C1038.65 177.384 1032.55 191.185 1026.35 204.885C1014.75 230.385 1003.05 255.884 991.152 281.284" stroke="black" stroke-width="4" stroke-miterlimit="10" stroke-linecap="round" stroke-linejoin="round"/>
<path d="M1133.35 146.784C1133.35 146.784 1130.05 151.484 1129.85 151.784C1121.95 163.684 1114.35 175.785 1106.45 187.585C1105.65 188.785 1104.85 189.985 1104.05 191.185C1071.85 238.985 1039.25 286.484 1005.05 332.784" stroke="black" stroke-width="4" stroke-miterlimit="10" stroke-linecap="round" stroke-linejoin="round"/>
<path d="M1206.05 144.585C1206.25 144.785 1200.35 152.285 1200.05 152.685C1168.95 195.985 1134.85 237.084 1101.55 278.784" stroke="black" stroke-width="4" stroke-miterlimit="10" stroke-linecap="round" stroke-linejoin="round"/>
<path d="M1280.95 167.284C1284.65 167.084 1275.45 172.384 1272.85 174.984C1262.65 185.184 1252.35 195.284 1241.95 205.384" stroke="black" stroke-width="4" stroke-miterlimit="10" stroke-linecap="round" stroke-linejoin="round"/>
<path d="M1322.15 208.885C1323.45 212.285 1271.05 247.084 1264.05 251.784C1197.65 296.284 1130.45 339.684 1063.55 383.484" stroke="black" stroke-width="4" stroke-miterlimit="10" stroke-linecap="round" stroke-linejoin="round"/>
<path d="M1347.55 238.085C1347.75 237.385 1331.55 247.585 1329.05 249.385" stroke="black" stroke-width="4" stroke-miterlimit="10" stroke-linecap="round" stroke-linejoin="round"/>
<path d="M1370.05 281.685C1355.65 282.785 1294.55 321.185 1279.25 329.685" stroke="black" stroke-width="4" stroke-miterlimit="10" stroke-linecap="round" stroke-linejoin="round"/>
<path d="M767.552 155.585C764.452 202.385 752.552 250.484 743.752 296.484" stroke="black" stroke-width="4" stroke-miterlimit="10" stroke-linecap="round" stroke-linejoin="round"/>
<path d="M717.152 138.085C721.752 146.185 715.052 171.285 714.352 180.185" stroke="black" stroke-width="4" stroke-miterlimit="10" stroke-linecap="round" stroke-linejoin="round"/>
<path d="M656.452 124.785C656.552 124.585 656.652 125.885 656.652 125.985C658.252 137.685 658.452 149.685 659.052 161.385" stroke="black" stroke-width="4" stroke-miterlimit="10" stroke-linecap="round" stroke-linejoin="round"/>
<path d="M597.652 110.385C603.652 116.585 602.252 147.484 603.252 155.784" stroke="black" stroke-width="4" stroke-miterlimit="10" stroke-linecap="round" stroke-linejoin="round"/>
<path d="M567.352 115.184C568.352 114.184 567.552 118.084 567.652 119.484C570.052 146.584 575.452 173.485 579.452 200.385" stroke="black" stroke-width="4" stroke-miterlimit="10" stroke-linecap="round" stroke-linejoin="round"/>
<path d="M356.052 237.784C356.752 236.584 357.452 240.084 358.152 241.284C370.052 261.984 379.252 284.384 389.352 305.984" stroke="black" stroke-width="4" stroke-miterlimit="10" stroke-linecap="round" stroke-linejoin="round"/>
<path d="M321.352 325.185C334.652 326.885 385.752 383.885 396.352 394.385" stroke="black" stroke-width="4" stroke-miterlimit="10" stroke-linecap="round" stroke-linejoin="round"/>
<path d="M334.552 420.784C331.352 417.084 343.152 425.285 347.452 427.685C356.152 432.485 364.852 437.385 373.552 442.185" stroke="black" stroke-width="4" stroke-miterlimit="10" stroke-linecap="round" stroke-linejoin="round"/>
<path d="M353.152 500.984C353.052 501.984 364.152 506.185 364.852 506.585C397.752 523.485 431.052 539.385 464.052 555.885" stroke="black" stroke-width="4" stroke-miterlimit="10" stroke-linecap="round" stroke-linejoin="round"/>
<path d="M349.152 546.284C347.652 544.584 352.952 548.985 355.052 549.885C359.452 551.785 363.952 553.585 368.252 555.685C378.052 560.285 387.952 564.585 398.052 568.685" stroke="black" stroke-width="4" stroke-miterlimit="10" stroke-linecap="round" stroke-linejoin="round"/>
<path d="M338.352 583.284C341.052 590.784 395.652 612.485 404.352 616.385" stroke="black" stroke-width="4" stroke-miterlimit="10" stroke-linecap="round" stroke-linejoin="round"/>
<path d="M163.552 770.685C163.852 771.685 166.952 771.485 167.952 771.585C202.152 775.585 236.352 780.085 270.552 783.885" stroke="black" stroke-width="4" stroke-miterlimit="10" stroke-linecap="round" stroke-linejoin="round"/>
<path d="M129.252 827.284C127.852 826.784 132.252 827.284 133.852 827.284C140.552 827.284 147.152 827.284 153.852 827.284C169.352 827.284 184.852 827.185 200.352 826.585C247.852 824.585 295.452 821.185 342.752 816.385" stroke="black" stroke-width="4" stroke-miterlimit="10" stroke-linecap="round" stroke-linejoin="round"/>
<path d="M103.552 883.284C103.652 883.484 108.552 882.685 108.852 882.585C122.852 880.885 136.852 880.085 150.852 879.085" stroke="black" stroke-width="4" stroke-miterlimit="10" stroke-linecap="round" stroke-linejoin="round"/>
<path d="M127.952 1082.88C144.652 1081.88 167.852 1064.28 182.752 1057.38" stroke="black" stroke-width="4" stroke-miterlimit="10" stroke-linecap="round" stroke-linejoin="round"/>
<path d="M176.852 1134.18C199.752 1125.68 223.152 1096.68 241.652 1081.28" stroke="black" stroke-width="4" stroke-miterlimit="10" stroke-linecap="round" stroke-linejoin="round"/>
<path d="M254.352 1170.58C313.752 1104.68 367.752 1032.78 420.652 961.585" stroke="black" stroke-width="4" stroke-miterlimit="10" stroke-linecap="round" stroke-linejoin="round"/>
<path d="M676.152 969.685C675.752 981.285 572.352 1156.38 557.152 1185.48" stroke="black" stroke-width="4" stroke-miterlimit="10" stroke-linecap="round" stroke-linejoin="round"/>
<path d="M631.652 1201.48C631.252 1202.18 633.352 1197.78 633.652 1197.08C637.052 1188.58 640.351 1179.98 643.851 1171.48C653.151 1148.48 662.252 1125.38 671.752 1102.38" stroke="black" stroke-width="4" stroke-miterlimit="10" stroke-linecap="round" stroke-linejoin="round"/>
<path d="M783.152 1314.78C783.352 1314.98 782.252 1310.18 782.152 1309.38C778.152 1292.28 773.452 1275.28 768.652 1258.38C758.052 1220.48 748.052 1182.48 737.452 1144.58" stroke="black" stroke-width="4" stroke-miterlimit="10" stroke-linecap="round" stroke-linejoin="round"/>
<path d="M1077.45 1303.58C1079.95 1303.08 1075.35 1298.88 1074.25 1296.58C1058.85 1265.68 1045.65 1233.48 1031.45 1202.08C1000.55 1133.68 969.552 1065.08 942.152 995.185" stroke="black" stroke-width="4" stroke-miterlimit="10" stroke-linecap="round" stroke-linejoin="round"/>
<path d="M1165.05 1221.58C1159.45 1199.18 1099.85 1119.28 1084.85 1096.28" stroke="black" stroke-width="4" stroke-miterlimit="10" stroke-linecap="round" stroke-linejoin="round"/>
<path d="M1248.15 1134.68C1247.75 1117.98 1095.65 993.185 1074.85 976.685" stroke="black" stroke-width="4" stroke-miterlimit="10" stroke-linecap="round" stroke-linejoin="round"/>
<path d="M1234.25 557.384C1222.95 554.984 1194.65 563.484 1182.85 565.384" stroke="black" stroke-width="4" stroke-miterlimit="10" stroke-linecap="round" stroke-linejoin="round"/>
<path d="M1261.05 625.885C1249.45 627.985 1236.05 625.984 1224.25 626.484C1191.65 627.684 1159.15 629.185 1126.55 630.385" stroke="black" stroke-width="4" stroke-miterlimit="10" stroke-linecap="round" stroke-linejoin="round"/>
<path d="M1301.75 687.984C1301.55 688.284 1299.55 688.085 1299.35 688.085C1285.25 688.285 1271.15 688.185 1256.95 688.385" stroke="black" stroke-width="4" stroke-miterlimit="10" stroke-linecap="round" stroke-linejoin="round"/>
<path d="M1092.15 706.685C1089.15 707.585 1098.25 708.584 1101.35 709.284C1107.45 710.784 1113.55 712.284 1119.65 713.984C1139.35 719.484 1159.15 724.285 1178.95 729.385C1239.15 744.685 1299.35 759.785 1359.15 776.585" stroke="black" stroke-width="4" stroke-miterlimit="10" stroke-linecap="round" stroke-linejoin="round"/>
<path d="M1134.25 765.185C1154.35 775.785 1177.25 782.884 1198.35 790.984C1264.05 816.284 1333.55 836.585 1396.55 868.185" stroke="black" stroke-width="4" stroke-miterlimit="10" stroke-linecap="round" stroke-linejoin="round"/>
<path d="M628.852 117.885C628.552 117.985 629.652 124.984 629.652 125.484" stroke="black" stroke-width="4" stroke-miterlimit="10" stroke-linecap="round" stroke-linejoin="round"/>
<path d="M742.652 146.984C743.052 146.984 742.352 151.184 742.352 151.284C740.252 166.284 737.952 181.185 735.452 196.085" stroke="black" stroke-width="4" stroke-miterlimit="10" stroke-linecap="round" stroke-linejoin="round"/>
<path d="M997.352 173.385C998.752 170.685 995.752 179.185 994.752 182.085C993.052 187.285 991.052 192.285 989.052 197.385C981.052 217.785 973.252 238.285 965.352 258.685" stroke="black" stroke-width="4" stroke-miterlimit="10" stroke-linecap="round" stroke-linejoin="round"/>
<path d="M1233.55 152.385C1234.15 152.685 1232.65 153.284 1232.15 153.784C1226.85 159.684 1222.15 166.084 1217.25 172.284C1206.05 186.384 1194.65 200.184 1183.45 214.284" stroke="black" stroke-width="4" stroke-miterlimit="10" stroke-linecap="round" stroke-linejoin="round"/>
<path d="M1231.65 338.585C1245.15 336.685 1328.35 278.985 1344.15 268.185" stroke="black" stroke-width="4" stroke-miterlimit="10" stroke-linecap="round" stroke-linejoin="round"/>
<path d="M1103.75 1277.28C1104.95 1277.48 1102.65 1275.28 1102.15 1274.18C1093.35 1252.78 1082.95 1231.88 1073.45 1210.78C1054.65 1168.78 1036.65 1126.18 1016.65 1084.68" stroke="black" stroke-width="4" stroke-miterlimit="10" stroke-linecap="round" stroke-linejoin="round"/>
<path d="M1229.15 1145.58C1229.25 1144.88 1227.95 1144.78 1227.35 1144.28C1200.95 1121.88 1175.85 1098.08 1149.35 1075.78" stroke="black" stroke-width="4" stroke-miterlimit="10" stroke-linecap="round" stroke-linejoin="round"/>
<path d="M695.152 1244.18C701.352 1213.78 694.152 1175.88 693.252 1145.08" stroke="black" stroke-width="4" stroke-miterlimit="10" stroke-linecap="round" stroke-linejoin="round"/>
<path d="M596.551 1185.18C595.951 1184.78 598.152 1181.28 598.252 1181.08C601.852 1173.78 605.352 1166.48 608.752 1159.08C622.352 1129.58 635.952 1099.98 649.152 1070.28" stroke="black" stroke-width="4" stroke-miterlimit="10" stroke-linecap="round" stroke-linejoin="round"/>
<path d="M227.852 1157.38C227.852 1158.18 233.152 1151.98 234.052 1151.08C240.852 1143.88 247.752 1136.68 254.352 1129.28C271.952 1109.58 289.452 1089.88 306.852 1070.08" stroke="black" stroke-width="4" stroke-miterlimit="10" stroke-linecap="round" stroke-linejoin="round"/>
<path d="M118.952 846.585C118.752 846.985 121.352 846.685 121.552 846.685C124.452 846.485 127.352 846.384 130.252 846.284C137.152 845.884 144.152 845.284 151.052 844.784C172.452 843.084 193.752 840.384 215.052 838.284" stroke="black" stroke-width="4" stroke-miterlimit="10" stroke-linecap="round" stroke-linejoin="round"/>
<path d="M349.251 477.984C349.351 478.984 353.151 479.885 353.851 480.085C371.151 485.085 388.452 490.385 405.552 496.085" stroke="black" stroke-width="4" stroke-miterlimit="10" stroke-linecap="round" stroke-linejoin="round"/>
<path d="M688.252 132.284C689.852 129.784 688.652 138.284 688.752 141.284C688.952 146.484 689.052 151.584 689.152 156.784C689.552 176.484 689.752 196.185 689.952 215.885C690.452 269.185 690.452 322.284 687.452 375.484" stroke="black" stroke-width="4" stroke-miterlimit="10" stroke-linecap="round" stroke-linejoin="round"/>
<path fill-rule="evenodd" clip-rule="evenodd" d="M1029.15 1338.68C1032.15 1350.48 896.752 1404.68 890.352 1384.78C873.952 1334.38 851.352 1248.78 842.752 1225.58C839.252 1216.08 804.952 1158.68 805.652 1154.58C806.052 1152.18 865.952 1129.38 874.452 1124.68C912.552 1103.88 922.552 1093.88 945.252 1131.28C965.752 1165.08 983.352 1200.08 997.652 1236.98C1010.55 1269.78 1020.25 1304.28 1029.15 1338.68Z" fill="#7CCFD5"/>
<path d="M1029.15 1338.68C1032.15 1350.48 896.752 1404.68 890.352 1384.78C873.952 1334.38 851.352 1248.78 842.752 1225.58C839.252 1216.08 804.952 1158.68 805.652 1154.58C806.052 1152.18 865.952 1129.38 874.452 1124.68C912.552 1103.88 922.552 1093.88 945.252 1131.28C965.752 1165.08 983.352 1200.08 997.652 1236.98C1010.55 1269.78 1020.25 1304.28 1029.15 1338.68Z" stroke="black" stroke-width="8" stroke-miterlimit="10" stroke-linecap="round" stroke-linejoin="round"/>
<path fill-rule="evenodd" clip-rule="evenodd" d="M850.051 1171.78C844.251 1170.78 834.852 1191.68 846.752 1196.78C863.252 1203.88 872.552 1182.38 858.952 1174.58" fill="#F7F2EE"/>
<path d="M850.051 1171.78C844.251 1170.78 834.852 1191.68 846.752 1196.78C863.252 1203.88 872.552 1182.38 858.952 1174.58" stroke="black" stroke-width="8" stroke-miterlimit="10" stroke-linecap="round" stroke-linejoin="round"/>
<path fill-rule="evenodd" clip-rule="evenodd" d="M872.551 1216.48C866.151 1215.48 855.952 1236.68 868.952 1241.88C886.952 1249.08 897.151 1227.28 882.351 1219.38" fill="#F7F2EE"/>
<path d="M872.551 1216.48C866.151 1215.48 855.952 1236.68 868.952 1241.88C886.952 1249.08 897.151 1227.28 882.351 1219.38" stroke="black" stroke-width="8" stroke-miterlimit="10" stroke-linecap="round" stroke-linejoin="round"/>
<path fill-rule="evenodd" clip-rule="evenodd" d="M813.752 1146.78C813.752 1146.88 813.352 1146.18 813.352 1146.08C810.152 1139.38 807.552 1132.48 803.752 1126.08C803.052 1124.98 801.352 1122.98 801.352 1122.98C801.352 1122.98 805.652 1121.78 807.752 1120.98C818.252 1117.18 828.052 1111.68 837.452 1105.78C860.052 1091.48 892.552 1072.08 900.552 1075.98C907.452 1079.38 911.152 1089.58 918.152 1101.68C919.652 1104.38 918.752 1105.28 916.352 1106.88C904.252 1114.98 888.152 1117.58 874.652 1123.08C856.052 1130.68 838.652 1140.28 819.752 1147.28" fill="#F7F2EE"/>
<path d="M813.752 1146.78C813.752 1146.88 813.352 1146.18 813.352 1146.08C810.152 1139.38 807.552 1132.48 803.752 1126.08C803.052 1124.98 801.352 1122.98 801.352 1122.98C801.352 1122.98 805.652 1121.78 807.752 1120.98C818.252 1117.18 828.052 1111.68 837.452 1105.78C860.052 1091.48 892.552 1072.08 900.552 1075.98C907.452 1079.38 911.152 1089.58 918.152 1101.68C919.652 1104.38 918.752 1105.28 916.352 1106.88C904.252 1114.98 888.152 1117.58 874.652 1123.08C856.052 1130.68 838.652 1140.28 819.752 1147.28" stroke="black" stroke-width="8" stroke-miterlimit="10" stroke-linecap="round" stroke-linejoin="round"/>
<path fill-rule="evenodd" clip-rule="evenodd" d="M897.252 1071.28C897.352 1071.28 802.252 1128.38 796.652 1120.48C774.052 1088.68 721.851 1054.28 718.351 1047.68C715.251 1041.78 712.752 1036.48 715.152 1029.78C725.152 1002.18 779.952 1064.79 766.452 1033.59C756.852 1011.49 706.651 933.385 719.551 924.585C743.751 907.885 756.252 946.985 764.752 961.185C769.352 968.785 773.551 976.685 778.351 984.185C778.751 984.885 780.051 986.985 779.851 986.185C776.351 969.485 719.152 915.185 746.252 899.985C763.252 890.485 785.052 932.185 791.152 942.185C795.152 948.785 803.652 964.585 807.652 971.085C807.852 971.385 789.152 938.385 784.952 931.385C782.252 926.985 755.851 887.285 776.551 887.385C797.951 887.585 811.052 922.785 820.952 937.485C821.652 938.485 831.152 964.484 832.952 963.784C834.152 963.284 830.652 955.585 830.652 954.685C830.452 950.485 816.051 891.485 826.551 893.585C834.351 895.085 843.251 917.085 846.051 923.085C875.551 986.285 875.052 1005.08 897.252 1071.28Z" fill="#F7F2EE"/>
<path d="M897.252 1071.28C897.352 1071.28 802.252 1128.38 796.652 1120.48C774.052 1088.68 721.851 1054.28 718.351 1047.68C715.251 1041.78 712.752 1036.48 715.152 1029.78C725.152 1002.18 779.952 1064.79 766.452 1033.59C756.852 1011.49 706.651 933.385 719.551 924.585C743.751 907.885 756.252 946.985 764.752 961.185C769.352 968.785 773.551 976.685 778.351 984.185C778.751 984.885 780.051 986.985 779.851 986.185C776.351 969.485 719.152 915.185 746.252 899.985C763.252 890.485 785.052 932.185 791.152 942.185C795.152 948.785 803.652 964.585 807.652 971.085C807.852 971.385 789.152 938.385 784.952 931.385C782.252 926.985 755.851 887.285 776.551 887.385C797.951 887.585 811.052 922.785 820.952 937.485C821.652 938.485 831.152 964.484 832.952 963.784C834.152 963.284 830.652 955.585 830.652 954.685C830.452 950.485 816.051 891.485 826.551 893.585C834.351 895.085 843.251 917.085 846.051 923.085C875.551 986.285 875.052 1005.08 897.252 1071.28Z" stroke="black" stroke-width="8" stroke-miterlimit="10" stroke-linecap="round" stroke-linejoin="round"/>
<path d="M1392.65 951.085C1373.25 996.685 1317.25 1077.48 1310.45 1071.58C1269.45 1036.98 1170.25 960.985 1121.65 929.085C1089.85 908.285 1021.25 883.684 1018.75 880.284C1017.25 878.284 1002.95 775.185 1046.15 784.385C1085.25 792.685 1160.75 823.284 1197.85 838.284C1242.35 856.284 1350.85 927.685 1392.65 951.085Z" stroke="black" stroke-width="8" stroke-miterlimit="10" stroke-linecap="round" stroke-linejoin="round"/>
<path d="M1028.35 858.085C1031.85 861.985 1105.35 889.584 1117.85 896.484C1190.75 936.884 1272.15 995.184 1337.75 1044.28" stroke="black" stroke-width="4" stroke-miterlimit="10" stroke-linecap="round" stroke-linejoin="round"/>
<path d="M1042.55 817.585C1042.15 817.685 1043.85 818.285 1043.95 818.385C1056.25 822.885 1068.05 827.784 1080.05 832.984C1104.45 843.784 1129.05 853.785 1152.45 866.585C1211.55 898.685 1312.85 953.885 1359.95 1000.88" stroke="black" stroke-width="4" stroke-miterlimit="10" stroke-linecap="round" stroke-linejoin="round"/>
<path d="M1064.95 894.784C1065.45 894.984 1064.75 894.685 1064.85 893.885C1066.15 885.985 1068.05 877.984 1070.35 870.284C1076.15 851.184 1086.85 815.085 1104.95 803.085" stroke="black" stroke-width="4" stroke-miterlimit="10" stroke-linecap="round" stroke-linejoin="round"/>
<path d="M1118.45 924.685C1119.05 924.785 1118.05 923.485 1118.15 922.885C1118.85 914.985 1121.35 906.884 1123.45 899.284C1131.25 870.984 1143.45 847.185 1162.55 825.185" stroke="black" stroke-width="4" stroke-miterlimit="10" stroke-linecap="round" stroke-linejoin="round"/>
<path d="M1168.85 957.585C1169.25 958.085 1168.95 956.384 1169.05 955.784C1170.85 944.484 1175.45 933.085 1179.85 922.585C1188.85 900.885 1203.25 867.185 1224.85 854.585" stroke="black" stroke-width="4" stroke-miterlimit="10" stroke-linecap="round" stroke-linejoin="round"/>
<path d="M1231.55 1005.88C1231.15 1006.58 1231.55 1004.28 1231.65 1003.48C1234.15 990.484 1239.75 977.284 1244.95 965.284C1255.95 939.784 1270.15 909.985 1292.85 892.685" stroke="black" stroke-width="4" stroke-miterlimit="10" stroke-linecap="round" stroke-linejoin="round"/>
<path d="M1283.35 1042.08C1282.95 1042.48 1284.35 1037.28 1284.65 1036.58C1288.95 1024.28 1294.55 1012.28 1300.15 1000.48C1312.15 975.184 1325.25 943.084 1350.35 927.784" stroke="black" stroke-width="4" stroke-miterlimit="10" stroke-linecap="round" stroke-linejoin="round"/>
<path fill-rule="evenodd" clip-rule="evenodd" d="M1045.95 785.984C1045.95 785.884 1024.95 884.584 1015.25 883.184C1003.55 881.584 981.952 882.684 971.152 888.884C953.752 898.884 932.452 902.784 927.452 901.384C920.952 899.584 889.552 905.585 886.952 890.585C884.252 875.185 908.952 874.284 924.752 870.284C933.152 868.084 948.952 857.284 943.352 851.784C940.252 848.784 936.152 847.684 929.952 845.384C907.052 837.084 819.952 847.685 822.352 832.085C826.752 802.685 867.852 816.585 884.552 815.585C893.152 815.085 901.352 813.985 910.252 815.585C911.052 815.785 807.852 808.884 815.352 778.384C818.952 763.684 856.052 774.984 863.352 775.984C876.552 777.684 902.652 780.884 910.252 782.484C910.552 782.584 825.552 764.185 839.952 749.085C854.952 733.485 877.152 746.585 894.752 749.585C895.952 749.785 921.652 760.784 922.352 758.984C922.852 757.784 914.752 754.984 914.052 754.384C910.852 751.584 871.652 725.184 880.352 718.884C886.852 714.184 895.152 719.084 901.452 721.184C950.452 737.384 968.152 755.184 1000.65 771.784C1012.55 777.584 1028.75 778.084 1045.95 785.984Z" fill="#F7F2EE"/>
<path d="M1045.95 785.984C1045.95 785.884 1024.95 884.584 1015.25 883.184C1003.55 881.584 981.952 882.684 971.152 888.884C953.752 898.884 932.452 902.784 927.452 901.384C920.952 899.584 889.552 905.585 886.952 890.585C884.252 875.185 908.952 874.284 924.752 870.284C933.152 868.084 948.952 857.284 943.352 851.784C940.252 848.784 936.152 847.684 929.952 845.384C907.052 837.084 819.952 847.685 822.352 832.085C826.752 802.685 867.852 816.585 884.552 815.585C893.152 815.085 901.352 813.985 910.252 815.585C911.052 815.785 807.852 808.884 815.352 778.384C818.952 763.684 856.052 774.984 863.352 775.984C876.552 777.684 902.652 780.884 910.252 782.484C910.552 782.584 825.552 764.185 839.952 749.085C854.952 733.485 877.152 746.585 894.752 749.585C895.952 749.785 921.652 760.784 922.352 758.984C922.852 757.784 914.752 754.984 914.052 754.384C910.852 751.584 871.652 725.184 880.352 718.884C886.852 714.184 895.152 719.084 901.452 721.184C950.452 737.384 968.152 755.184 1000.65 771.784C1012.55 777.584 1028.75 778.084 1045.95 785.984Z" stroke="black" stroke-width="8" stroke-miterlimit="10" stroke-linecap="round" stroke-linejoin="round"/>
<path fill-rule="evenodd" clip-rule="evenodd" d="M1062.75 596.585C1041.95 616.085 1015.75 652.284 1011.45 655.484C1007.45 658.384 1003.95 660.685 998.851 659.585C977.851 655.085 1035.75 594.085 1014.55 606.885C1006.65 611.685 987.652 622.584 965.952 639.284C946.252 654.484 940.152 677.085 923.452 675.385C902.052 673.285 934.151 631.984 943.551 624.484C948.651 620.384 954.651 622.484 959.551 618.284C960.051 617.884 961.451 616.784 960.851 616.984C949.151 621.184 907.051 674.285 893.351 656.085C884.751 644.785 921.251 618.485 927.851 613.085C932.151 609.485 942.752 601.884 947.152 598.284C947.352 598.184 925.352 614.885 920.752 618.685C917.752 621.085 891.752 644.085 889.752 629.085C887.752 613.585 911.952 600.584 921.652 591.984C922.352 591.384 940.152 581.985 939.452 580.685C939.052 579.885 933.752 583.084 933.152 583.284C930.152 583.784 887.951 604.085 888.351 596.385C888.651 590.585 904.652 577.884 908.652 575.284C951.452 547.684 960.552 546.285 1006.25 523.685" fill="#F7F2EE"/>
<path d="M1062.75 596.585C1041.95 616.085 1015.75 652.284 1011.45 655.484C1007.45 658.384 1003.95 660.685 998.851 659.585C977.851 655.085 1035.75 594.085 1014.55 606.885C1006.65 611.685 987.652 622.584 965.952 639.284C946.252 654.484 940.152 677.085 923.452 675.385C902.052 673.285 934.151 631.984 943.551 624.484C948.651 620.384 954.651 622.484 959.551 618.284C960.051 617.884 961.451 616.784 960.851 616.984C949.151 621.184 907.051 674.285 893.351 656.085C884.751 644.785 921.251 618.485 927.851 613.085C932.151 609.485 942.752 601.884 947.152 598.284C947.352 598.184 925.352 614.885 920.752 618.685C917.752 621.085 891.752 644.085 889.752 629.085C887.752 613.585 911.952 600.584 921.652 591.984C922.352 591.384 940.152 581.985 939.452 580.685C939.052 579.885 933.752 583.084 933.152 583.284C930.152 583.784 887.951 604.085 888.351 596.385C888.651 590.585 904.652 577.884 908.652 575.284C951.452 547.684 960.552 546.285 1006.25 523.685" stroke="black" stroke-width="8" stroke-miterlimit="10" stroke-linecap="round" stroke-linejoin="round"/>
<path fill-rule="evenodd" clip-rule="evenodd" d="M1381.45 320.985C1369.35 369.385 1335.55 421.285 1317.65 437.685C1304.15 450.185 1271.75 486.885 1261.45 500.885C1235.05 536.285 1166.25 527.385 1127.75 547.885C1121.25 551.385 1073.85 601.385 1071.25 599.785C1034.05 576.085 1088.25 555.285 1079.35 552.185C1073.35 550.085 1062.25 592.685 1041.35 566.485C1028.25 550.085 1067.25 539.485 1063.75 536.685C1055.95 530.385 1034.15 561.285 1025.15 546.085C1014.45 528.185 1033.05 523.285 1028.85 516.985C1026.35 513.285 1026.05 525.285 1018.75 526.685C1013.75 527.685 1005.15 526.385 1004.45 512.285C1003.35 488.285 1035.65 494.085 1049.35 482.985C1071.75 464.785 1098.05 451.885 1123.25 437.785C1153.55 420.885 1183.65 404.585 1215.85 391.685C1262.85 372.985 1384.05 310.185 1381.45 320.985Z" fill="#C740C1"/>
<path d="M1381.45 320.985C1369.35 369.385 1335.55 421.285 1317.65 437.685C1304.15 450.185 1271.75 486.885 1261.45 500.885C1235.05 536.285 1166.25 527.385 1127.75 547.885C1121.25 551.385 1073.85 601.385 1071.25 599.785C1034.05 576.085 1088.25 555.285 1079.35 552.185C1073.35 550.085 1062.25 592.685 1041.35 566.485C1028.25 550.085 1067.25 539.485 1063.75 536.685C1055.95 530.385 1034.15 561.285 1025.15 546.085C1014.45 528.185 1033.05 523.285 1028.85 516.985C1026.35 513.285 1026.05 525.285 1018.75 526.685C1013.75 527.685 1005.15 526.385 1004.45 512.285C1003.35 488.285 1035.65 494.085 1049.35 482.985C1071.75 464.785 1098.05 451.885 1123.25 437.785C1153.55 420.885 1183.65 404.585 1215.85 391.685C1262.85 372.985 1384.05 310.185 1381.45 320.985Z" stroke="black" stroke-width="8" stroke-miterlimit="10" stroke-linecap="round" stroke-linejoin="round"/>
<path fill-rule="evenodd" clip-rule="evenodd" d="M923.051 179.184C932.451 179.584 907.952 222.084 894.452 265.184C869.652 344.284 833.852 460.284 833.852 461.384C833.152 494.585 846.752 553.684 845.752 559.884C844.852 565.484 848.452 580.484 843.452 583.784C822.652 597.584 819.052 518.884 812.452 546.984C810.452 555.684 809.152 574.784 811.852 594.684C815.352 620.484 822.652 646.885 815.152 646.585C790.152 645.785 787.051 603.984 786.051 588.384C785.551 580.784 787.552 565.984 779.152 574.884C778.652 575.384 779.652 572.284 779.152 572.784C769.552 583.584 787.552 658.385 761.252 655.085C744.852 652.985 748.151 607.084 749.051 597.184C749.651 590.684 751.852 575.585 752.452 569.085C752.452 568.785 740.352 644.684 727.752 640.384C713.252 635.384 725.652 600.284 726.352 585.284C726.452 584.184 733.052 561.684 731.452 561.284C730.452 560.984 728.852 567.984 728.452 568.684C726.452 571.684 709.552 605.684 703.452 598.984C698.952 593.984 700.452 582.384 701.652 576.884C713.552 518.684 744.552 480.784 762.952 424.184C762.952 424.184 783.752 266.884 815.652 167.984C815.952 166.984 860.052 176.184 870.952 176.784C893.452 177.684 920.251 179.084 923.051 179.184Z" fill="#F7F2EE"/>
<path d="M923.051 179.184C932.451 179.584 907.952 222.084 894.452 265.184C869.652 344.284 833.852 460.284 833.852 461.384C833.152 494.584 846.752 553.684 845.752 559.884C844.852 565.484 848.452 580.484 843.452 583.784C822.652 597.584 819.052 518.884 812.452 546.984C810.452 555.684 809.152 574.784 811.852 594.684C815.352 620.484 822.652 646.885 815.152 646.585C790.152 645.785 787.051 603.984 786.051 588.384C785.551 580.784 787.552 565.984 779.152 574.884C778.652 575.384 779.652 572.284 779.152 572.784C769.552 583.584 787.552 658.385 761.252 655.085C744.852 652.985 748.151 607.084 749.051 597.184C749.651 590.684 751.852 575.585 752.452 569.085C752.452 568.785 740.352 644.684 727.752 640.384C713.252 635.384 725.652 600.284 726.352 585.284C726.452 584.184 733.052 561.684 731.452 561.284C730.452 560.984 728.852 567.984 728.452 568.684C726.452 571.684 709.552 605.684 703.452 598.984C698.952 593.984 700.452 582.384 701.652 576.884C713.552 518.684 744.552 480.784 762.952 424.184C762.952 424.184 783.752 266.884 815.652 167.984C815.952 166.984 860.052 176.184 870.952 176.784C893.452 177.684 920.251 179.084 923.051 179.184Z" stroke="black" stroke-width="8" stroke-miterlimit="10" stroke-linecap="round" stroke-linejoin="round"/>
<path d="M859.152 275.884C859.152 274.184 836.652 236.984 836.652 236.984C836.652 236.984 878.852 236.785 879.252 237.585C880.252 239.785 861.352 271.284 859.152 275.884Z" stroke="black" stroke-width="4" stroke-miterlimit="10" stroke-linecap="round" stroke-linejoin="round"/>
<path d="M837.552 259.385C837.552 259.385 875.752 265.385 879.352 261.685C880.052 260.985 876.952 256.484 876.552 255.784C874.752 252.684 860.252 226.985 858.852 226.885C856.952 226.785 837.552 259.385 837.552 259.385Z" stroke="black" stroke-width="4" stroke-miterlimit="10" stroke-linecap="round" stroke-linejoin="round"/>
<path fill-rule="evenodd" clip-rule="evenodd" d="M323.652 1190.48C324.452 1183.98 336.252 1171.38 368.252 1138.28C429.352 1075.38 503.952 979.984 504.452 978.984C518.552 948.084 529.752 887.285 533.152 881.885C536.252 876.985 538.952 861.485 545.052 860.385C570.152 855.885 538.352 941.785 555.852 918.085C561.252 910.785 573.552 882.584 579.052 862.984C586.252 837.384 599.152 814.285 606.152 817.585C629.252 828.485 605.052 859.684 602.952 877.284C602.052 884.984 590.152 899.785 601.652 894.885C602.352 894.585 600.152 897.185 600.852 896.885C614.152 890.685 627.652 813.285 650.952 827.085C665.552 835.685 643.752 877.384 638.952 886.284C635.752 892.184 627.552 905.384 624.352 911.284C624.252 911.484 663.652 849.785 673.752 858.885C685.352 869.385 662.052 892.885 655.352 906.685C654.852 907.685 639.552 926.085 640.852 927.185C641.652 927.885 646.052 921.884 646.652 921.484C649.752 919.484 675.352 898.985 678.352 907.685C680.552 914.185 678.452 919.885 675.152 924.585C640.452 974.285 596.052 997.284 555.852 1042.78C555.852 1042.78 497.152 1130.38 446.952 1200.88C442.252 1207.28 323.252 1194.18 323.652 1190.48Z" fill="#F7F2EE"/>
<path d="M323.652 1190.48C324.452 1183.98 336.252 1171.38 368.252 1138.28C429.352 1075.38 503.952 979.984 504.452 978.984C518.552 948.084 529.752 887.285 533.152 881.885C536.252 876.985 538.952 861.485 545.052 860.385C570.152 855.885 538.352 941.785 555.852 918.085C561.252 910.785 573.552 882.584 579.052 862.984C586.252 837.384 599.152 814.285 606.152 817.585C629.252 828.485 605.052 859.684 602.952 877.284C602.052 884.984 590.152 899.785 601.652 894.885C602.352 894.585 600.152 897.185 600.852 896.885C614.152 890.685 627.652 813.285 650.952 827.085C665.552 835.685 643.752 877.384 638.952 886.284C635.752 892.184 627.552 905.384 624.352 911.284C624.252 911.484 663.652 849.785 673.752 858.885C685.352 869.385 662.052 892.885 655.352 906.685C654.852 907.685 639.552 926.085 640.852 927.185C641.652 927.885 646.052 921.884 646.652 921.484C649.752 919.484 675.352 898.985 678.352 907.685C680.552 914.185 678.452 919.885 675.152 924.585C640.452 974.285 596.052 997.284 555.852 1042.78C555.852 1042.78 497.152 1130.38 446.952 1200.88C442.252 1207.28 323.252 1194.18 323.652 1190.48Z" stroke="black" stroke-width="8" stroke-miterlimit="10" stroke-linecap="round" stroke-linejoin="round"/>
<path fill-rule="evenodd" clip-rule="evenodd" d="M480.552 1009.78C480.952 1009.28 480.951 1010.99 481.152 1011.59C481.652 1012.89 482.352 1014.08 482.952 1015.28C485.152 1019.18 487.452 1023.08 489.952 1026.78C497.152 1037.28 505.451 1046.39 514.751 1055.09C519.751 1059.79 526.451 1066.59 533.751 1067.59C543.151 1068.89 544.852 1056.99 552.452 1056.09C564.352 1054.59 559.552 1083.38 554.052 1087.98C519.452 1116.28 479.451 1062.18 472.152 1056.68C459.752 1047.18 447.852 1019.29 457.552 1002.39C465.552 988.085 483.952 990.684 480.552 1009.78Z" fill="#C740C1"/>
<path d="M480.552 1009.78C480.952 1009.28 480.952 1010.99 481.152 1011.59C481.652 1012.89 482.352 1014.08 482.952 1015.28C485.152 1019.18 487.452 1023.08 489.952 1026.78C497.152 1037.28 505.451 1046.39 514.751 1055.09C519.751 1059.79 526.451 1066.59 533.751 1067.59C543.151 1068.89 544.852 1056.99 552.452 1056.09C564.352 1054.59 559.552 1083.38 554.052 1087.98C519.452 1116.28 479.452 1062.18 472.152 1056.68C459.752 1047.18 447.852 1019.29 457.552 1002.39C465.552 988.085 483.952 990.684 480.552 1009.78Z" stroke="black" stroke-width="8" stroke-miterlimit="10" stroke-linecap="round" stroke-linejoin="round"/>
<path fill-rule="evenodd" clip-rule="evenodd" d="M405.652 185.284C405.752 173.184 451.152 145.485 493.752 128.185C530.252 113.285 556.952 107.784 550.052 117.284C536.352 135.884 558.452 248.984 564.952 275.784C581.152 342.084 594.352 368.985 585.252 392.185C575.352 417.585 499.252 429.085 490.952 432.985C478.052 439.085 464.052 393.384 451.652 369.784C434.352 336.984 405.152 229.384 405.652 185.284Z" fill="#7CCFD5"/>
<path d="M405.652 185.284C405.752 173.184 451.152 145.485 493.752 128.185C530.252 113.285 556.952 107.784 550.052 117.284C536.352 135.884 558.452 248.984 564.952 275.784C581.152 342.084 594.352 368.985 585.252 392.185C575.352 417.585 499.252 429.085 490.952 432.985C478.052 439.085 464.052 393.384 451.652 369.784C434.352 336.984 405.152 229.384 405.652 185.284Z" stroke="black" stroke-width="8" stroke-miterlimit="10" stroke-linecap="round" stroke-linejoin="round"/>
<path d="M440.152 157.885C440.752 158.385 435.452 169.585 435.152 170.385C433.752 173.685 432.452 176.984 431.052 180.284C430.352 181.884 429.752 183.384 429.052 184.984" stroke="black" stroke-width="4" stroke-miterlimit="10" stroke-linecap="round" stroke-linejoin="round"/>
<path d="M468.652 143.385C465.852 143.885 461.252 159.784 460.152 162.284" stroke="black" stroke-width="4" stroke-miterlimit="10" stroke-linecap="round" stroke-linejoin="round"/>
<path d="M516.252 145.585C517.352 150.585 509.052 163.585 507.152 168.185" stroke="black" stroke-width="4" stroke-miterlimit="10" stroke-linecap="round" stroke-linejoin="round"/>
<path d="M493.452 156.385C492.152 163.385 487.752 171.085 484.952 177.585" stroke="black" stroke-width="4" stroke-miterlimit="10" stroke-linecap="round" stroke-linejoin="round"/>
<path d="M451.552 193.185C452.852 196.385 447.552 206.985 446.552 210.185" stroke="black" stroke-width="4" stroke-miterlimit="10" stroke-linecap="round" stroke-linejoin="round"/>
<path d="M511.052 195.885C511.252 195.785 510.752 196.285 510.652 196.585C507.652 202.485 505.352 208.785 502.652 214.885" stroke="black" stroke-width="4" stroke-miterlimit="10" stroke-linecap="round" stroke-linejoin="round"/>
<path d="M479.152 207.984C478.752 208.084 478.352 209.785 478.252 210.085C472.552 224.885 465.952 239.285 459.352 253.685" stroke="black" stroke-width="4" stroke-miterlimit="10" stroke-linecap="round" stroke-linejoin="round"/>
<path d="M501.452 248.884C502.052 248.484 500.752 250.184 500.452 250.884C499.452 253.484 498.552 255.985 497.552 258.585" stroke="black" stroke-width="4" stroke-miterlimit="10" stroke-linecap="round" stroke-linejoin="round"/>
<path d="M435.452 244.585C435.152 246.385 434.652 248.184 434.152 249.984" stroke="black" stroke-width="4" stroke-miterlimit="10" stroke-linecap="round" stroke-linejoin="round"/>
<path d="M475.952 283.184C474.952 282.684 475.652 285.485 475.352 286.585C474.652 289.585 473.752 292.585 472.852 295.585" stroke="black" stroke-width="4" stroke-miterlimit="10" stroke-linecap="round" stroke-linejoin="round"/>
<path d="M456.752 286.685C456.652 286.685 456.452 287.485 456.452 287.585C453.052 299.085 448.452 310.385 444.552 321.685" stroke="black" stroke-width="4" stroke-miterlimit="10" stroke-linecap="round" stroke-linejoin="round"/>
<path d="M436.552 285.984C436.552 285.884 434.352 289.785 433.852 290.685C431.352 295.485 428.952 300.385 426.652 305.385" stroke="black" stroke-width="4" stroke-miterlimit="10" stroke-linecap="round" stroke-linejoin="round"/>
<path d="M464.952 334.385C459.052 347.285 456.552 363.785 453.552 377.685" stroke="black" stroke-width="4" stroke-miterlimit="10" stroke-linecap="round" stroke-linejoin="round"/>
<path d="M513.552 288.484C513.452 294.984 508.752 303.285 506.352 309.185" stroke="black" stroke-width="4" stroke-miterlimit="10" stroke-linecap="round" stroke-linejoin="round"/>
<path d="M534.352 232.885C535.052 234.485 531.152 241.784 530.552 243.484" stroke="black" stroke-width="4" stroke-miterlimit="10" stroke-linecap="round" stroke-linejoin="round"/>
<path d="M547.252 172.585C547.052 172.585 538.352 191.485 536.052 196.385" stroke="black" stroke-width="4" stroke-miterlimit="10" stroke-linecap="round" stroke-linejoin="round"/>
<path d="M556.151 249.784C557.051 250.284 552.151 262.485 551.751 263.585" stroke="black" stroke-width="4" stroke-miterlimit="10" stroke-linecap="round" stroke-linejoin="round"/>
<path d="M501.352 340.585L501.152 340.984C499.752 344.084 498.752 347.384 497.452 350.484" stroke="black" stroke-width="4" stroke-miterlimit="10" stroke-linecap="round" stroke-linejoin="round"/>
<path d="M549.752 313.685C550.752 312.985 548.552 315.885 548.052 316.985C546.952 319.185 545.952 321.484 544.952 323.784C541.852 330.784 538.852 337.785 535.552 344.685" stroke="black" stroke-width="4" stroke-miterlimit="10" stroke-linecap="round" stroke-linejoin="round"/>
<path d="M574.752 323.085C574.752 323.185 566.652 341.985 565.852 343.685" stroke="black" stroke-width="4" stroke-miterlimit="10" stroke-linecap="round" stroke-linejoin="round"/>
<path d="M569.052 368.784C564.052 380.384 557.951 391.684 552.251 402.984" stroke="black" stroke-width="4" stroke-miterlimit="10" stroke-linecap="round" stroke-linejoin="round"/>
<path d="M540.251 368.284C541.351 367.384 539.151 370.785 538.751 372.085C537.651 375.185 536.451 378.285 535.251 381.385" stroke="black" stroke-width="4" stroke-miterlimit="10" stroke-linecap="round" stroke-linejoin="round"/>
<path d="M517.252 371.384C516.052 370.484 516.652 374.284 516.252 375.684C515.452 378.984 514.652 382.384 513.852 385.684C511.452 395.484 508.952 405.284 506.352 414.984" stroke="black" stroke-width="4" stroke-miterlimit="10" stroke-linecap="round" stroke-linejoin="round"/>
<path d="M497.751 380.284C496.451 381.184 495.751 385.584 495.251 386.984" stroke="black" stroke-width="4" stroke-miterlimit="10" stroke-linecap="round" stroke-linejoin="round"/>
<path d="M479.652 373.984C479.852 374.084 479.052 377.485 479.052 377.685C477.052 388.085 474.252 398.484 471.652 408.784" stroke="black" stroke-width="4" stroke-miterlimit="10" stroke-linecap="round" stroke-linejoin="round"/>
<path fill-rule="evenodd" clip-rule="evenodd" d="M491.552 432.484C491.452 432.484 573.452 388.784 578.252 396.484C583.552 404.884 593.351 424.485 603.051 431.385C626.851 448.485 648.752 465.785 650.852 470.385C653.452 476.085 660.352 489.584 657.652 495.684C652.752 507.084 639.152 492.185 626.152 482.385C610.352 470.485 595.651 462.985 601.551 479.385C609.251 500.585 667.052 572.484 661.952 581.284C649.252 603.484 623.352 577.684 616.252 563.984C612.452 556.584 591.752 532.284 587.652 524.984C587.252 524.284 586.252 522.285 586.352 523.085C588.752 538.885 638.152 586.584 611.952 599.284C595.552 607.284 578.452 573.185 573.252 563.585C569.852 557.185 562.852 541.985 559.452 535.585C559.352 535.285 574.852 567.185 578.452 573.885C580.752 578.185 598.052 603.584 578.752 602.284C558.752 600.884 553.552 580.385 545.252 566.085C544.652 565.085 537.252 540.285 535.552 540.885C534.452 541.285 537.252 548.684 537.152 549.484C537.052 553.384 545.052 586.385 535.352 583.885C528.152 582.085 523.252 583.984 520.952 578.184C500.352 526.084 493.952 441.484 491.552 432.484Z" fill="#F7F2EE"/>
<path d="M491.552 432.484C491.452 432.484 573.452 388.784 578.252 396.484C583.552 404.884 593.351 424.485 603.051 431.385C626.851 448.485 648.752 465.785 650.852 470.385C653.452 476.085 660.352 489.584 657.652 495.684C652.752 507.084 639.152 492.185 626.152 482.385C610.352 470.485 595.651 462.985 601.551 479.385C609.251 500.585 667.052 572.484 661.952 581.284C649.252 603.484 623.352 577.684 616.252 563.984C612.452 556.584 591.752 532.284 587.652 524.984C587.252 524.284 586.252 522.285 586.352 523.085C588.752 538.885 638.152 586.584 611.952 599.284C595.552 607.284 578.452 573.185 573.252 563.585C569.852 557.185 562.852 541.985 559.452 535.585C559.352 535.285 574.852 567.185 578.452 573.885C580.752 578.185 598.052 603.584 578.752 602.284C558.752 600.884 553.552 580.385 545.252 566.085C544.652 565.085 537.252 540.285 535.552 540.885C534.452 541.285 537.252 548.684 537.152 549.484C537.052 553.384 545.052 586.385 535.352 583.885C528.152 582.085 523.252 583.984 520.952 578.184C500.352 526.084 493.952 441.484 491.552 432.484Z" stroke="black" stroke-width="8" stroke-miterlimit="10" stroke-linecap="round" stroke-linejoin="round"/>
<path d="M319.652 629.484C369.052 634.484 509.252 677.384 539.952 695.984C540.352 696.184 539.452 696.184 539.952 695.984C543.452 694.284 546.852 645.485 580.152 660.585C600.252 669.685 592.652 689.385 580.152 701.185C578.352 702.885 574.052 705.784 574.052 705.784C574.052 705.784 579.452 703.485 582.352 702.685C593.352 699.285 611.252 690.285 624.252 693.685C629.152 694.985 634.852 701.884 635.852 706.284C639.852 724.084 631.352 734.484 618.752 737.984C614.652 739.184 610.352 739.784 606.052 739.784C604.852 739.784 601.452 740.485 602.352 739.585C608.952 732.985 651.852 751.685 638.152 774.085C629.052 788.985 598.952 792.285 591.852 780.685C588.952 775.985 584.252 770.284 579.752 766.984C579.752 766.984 577.652 765.285 577.852 765.185C578.852 764.485 584.152 778.584 584.352 779.484C588.852 797.584 570.352 811.285 553.652 806.185C532.352 799.685 541.552 779.185 534.952 763.585C534.952 763.485 534.852 763.284 534.652 763.284C529.852 763.484 514.152 760.584 508.852 760.784C442.752 763.384 246.252 755.785 191.452 745.685" stroke="black" stroke-width="8" stroke-miterlimit="10" stroke-linecap="round" stroke-linejoin="round"/>
<path fill-rule="evenodd" clip-rule="evenodd" d="M343.852 637.085C343.252 645.885 345.852 657.084 347.152 665.984C348.152 672.484 349.152 679.085 350.552 685.585C351.452 689.985 352.452 694.385 353.552 698.685C363.052 735.985 371.852 676.384 375.852 666.784C376.652 664.784 379.852 654.184 382.852 654.784C385.752 655.384 386.452 666.485 386.852 668.585C388.252 677.485 390.752 708.085 396.952 713.685C405.952 721.785 414.752 666.584 419.152 667.484C423.452 668.384 427.752 718.084 432.152 718.284C439.252 718.684 438.852 681.384 443.852 677.284C444.552 676.684 445.252 678.485 445.352 678.885C446.552 681.985 461.152 712.985 466.352 709.885C477.552 703.085 474.252 672.284 464.852 667.484C436.852 653.184 387.152 643.185 357.452 638.385" fill="black"/>
<path d="M343.852 637.085C343.252 645.885 345.852 657.084 347.152 665.984C348.152 672.484 349.152 679.085 350.552 685.585C351.452 689.985 352.452 694.385 353.552 698.685C363.052 735.985 371.852 676.384 375.852 666.784C376.652 664.784 379.852 654.184 382.852 654.784C385.752 655.384 386.452 666.485 386.852 668.585C388.252 677.485 390.752 708.085 396.952 713.685C405.952 721.785 414.752 666.584 419.152 667.484C423.452 668.384 427.752 718.084 432.152 718.284C439.252 718.684 438.852 681.384 443.852 677.284C444.552 676.684 445.252 678.485 445.352 678.885C446.552 681.985 461.152 712.985 466.352 709.885C477.552 703.085 474.252 672.284 464.852 667.484C436.852 653.184 387.152 643.185 357.452 638.385" stroke="black" stroke-width="4" stroke-miterlimit="10" stroke-linecap="round" stroke-linejoin="round"/>
<path d="M97.5518 949.885C99.8518 948.485 99.5517 954.984 101.252 956.984C107.052 964.084 115.852 969.385 123.652 973.885C144.852 986.185 170.552 989.985 194.852 988.885C254.752 986.285 295.352 942.785 343.052 913.585" stroke="black" stroke-width="8" stroke-miterlimit="10" stroke-linecap="round" stroke-linejoin="round"/>
<path fill-rule="evenodd" clip-rule="evenodd" d="M344.152 908.184C343.852 908.184 343.852 905.884 343.852 905.784C342.952 894.984 345.952 883.285 349.252 873.085C353.052 861.485 359.052 851.484 366.752 841.984C375.452 831.284 419.452 792.184 434.652 804.784C445.752 813.884 389.052 846.584 381.052 854.284C370.752 864.084 362.652 876.385 358.252 889.885C356.352 895.685 356.052 902.984 352.152 907.984C351.252 909.184 349.052 911.184 347.352 910.684" fill="#7CCFD5"/>
<path d="M344.152 908.184C343.852 908.184 343.852 905.884 343.852 905.784C342.952 894.984 345.952 883.285 349.252 873.085C353.052 861.485 359.052 851.484 366.752 841.984C375.452 831.284 419.452 792.184 434.652 804.784C445.752 813.884 389.052 846.584 381.052 854.284C370.752 864.084 362.652 876.385 358.252 889.885C356.352 895.685 356.052 902.984 352.152 907.984C351.252 909.184 349.052 911.184 347.352 910.684" stroke="black" stroke-width="4" stroke-miterlimit="10" stroke-linecap="round" stroke-linejoin="round"/>
<path fill-rule="evenodd" clip-rule="evenodd" d="M357.952 894.085C358.152 895.285 358.852 891.784 359.452 890.784C360.652 888.784 362.052 886.984 363.452 885.184C367.752 879.784 372.452 874.784 377.652 870.284C395.752 854.484 418.152 842.284 439.852 831.984C443.752 830.084 458.852 821.284 462.652 826.984C467.252 833.784 442.852 849.785 438.952 852.085C417.952 864.585 392.952 871.785 373.752 887.085C366.552 892.885 362.152 900.385 355.952 906.885" fill="#7CCFD5"/>
<path d="M357.952 894.085C358.152 895.285 358.852 891.784 359.452 890.784C360.652 888.784 362.052 886.984 363.452 885.184C367.752 879.784 372.452 874.784 377.652 870.284C395.752 854.484 418.152 842.284 439.852 831.984C443.752 830.084 458.852 821.284 462.652 826.984C467.252 833.784 442.852 849.785 438.952 852.085C417.952 864.585 392.952 871.785 373.752 887.085C366.552 892.885 362.152 900.385 355.952 906.885" stroke="black" stroke-width="4" stroke-miterlimit="10" stroke-linecap="round" stroke-linejoin="round"/>
<path fill-rule="evenodd" clip-rule="evenodd" d="M355.452 906.185C377.552 879.785 413.352 866.285 444.052 853.485C448.952 851.485 474.652 839.085 478.652 844.885C483.252 851.485 459.352 865.985 455.452 868.085C440.652 875.885 377.152 907.485 361.252 909.485" fill="#7CCFD5"/>
<path d="M355.452 906.185C377.552 879.785 413.352 866.285 444.052 853.485C448.952 851.485 474.652 839.085 478.652 844.885C483.252 851.485 459.352 865.985 455.452 868.085C440.652 875.885 377.152 907.485 361.252 909.485" stroke="black" stroke-width="4" stroke-miterlimit="10" stroke-linecap="round" stroke-linejoin="round"/>
<path fill-rule="evenodd" clip-rule="evenodd" d="M358.352 910.984C358.552 911.984 416.852 888.284 417.752 887.984C421.752 886.684 425.752 885.584 429.752 884.284C437.952 881.584 476.152 863.584 481.952 865.484C482.552 865.684 482.952 866.084 482.952 866.784C483.652 875.984 463.152 887.784 456.952 891.184C437.852 901.984 383.552 918.584 358.352 910.984Z" fill="#7CCFD5"/>
<path d="M358.352 910.984C358.552 911.984 416.852 888.284 417.752 887.984C421.752 886.684 425.752 885.584 429.752 884.284C437.952 881.584 476.152 863.584 481.952 865.484C482.552 865.684 482.952 866.084 482.952 866.784C483.652 875.984 463.152 887.784 456.952 891.184C437.852 901.984 383.552 918.584 358.352 910.984Z" stroke="black" stroke-width="4" stroke-miterlimit="10" stroke-linecap="round" stroke-linejoin="round"/>
<path fill-rule="evenodd" clip-rule="evenodd" d="M355.152 911.085C355.252 911.185 397.452 910.285 397.552 910.285C405.852 907.385 455.452 896.385 458.452 900.685C463.052 907.185 436.552 917.985 433.452 918.985C412.452 925.985 376.652 931.085 356.852 916.485" fill="#7CCFD5"/>
<path d="M355.152 911.085C355.252 911.185 397.452 910.285 397.552 910.285C405.852 907.385 455.452 896.385 458.452 900.685C463.052 907.185 436.552 917.985 433.452 918.985C412.452 925.985 376.652 931.085 356.852 916.485" stroke="black" stroke-width="4" stroke-miterlimit="10" stroke-linecap="round" stroke-linejoin="round"/>
<path fill-rule="evenodd" clip-rule="evenodd" d="M349.752 911.685C348.452 914.085 350.052 918.184 351.052 920.484C357.252 934.084 406.752 945.085 427.652 926.685C430.152 924.485 415.952 926.785 399.852 924.685C377.052 921.785 349.152 914.685 349.752 911.685Z" fill="#7CCFD5"/>
<path d="M349.752 911.685C348.452 914.085 350.052 918.184 351.052 920.484C357.252 934.084 406.752 945.085 427.652 926.685C430.152 924.485 415.952 926.785 399.852 924.685C377.052 921.785 349.152 914.685 349.752 911.685Z" stroke="black" stroke-width="4" stroke-miterlimit="10" stroke-linecap="round" stroke-linejoin="round"/>
<path d="M142.552 979.485C145.752 985.085 169.952 975.985 173.652 973.385C188.452 962.785 192.852 941.484 208.052 932.284C227.952 920.284 238.052 941.685 263.852 912.385C267.952 907.785 294.752 867.485 302.552 876.685C310.352 885.885 285.852 914.085 280.252 920.085C264.452 937.185 244.352 942.185 225.952 954.985C219.352 959.585 217.552 965.985 214.752 972.985C208.552 988.685 187.252 986.685 173.552 985.685" stroke="black" stroke-width="4" stroke-miterlimit="10" stroke-linecap="round" stroke-linejoin="round"/>
<path d="M173.152 972.185C172.652 972.485 176.652 972.084 177.152 971.984C179.952 971.384 182.552 970.484 185.252 969.484C193.252 966.184 200.852 961.685 207.452 956.085C213.852 950.585 218.352 943.385 226.152 939.685C233.952 935.985 242.452 936.384 250.652 934.284C259.552 932.084 266.352 927.984 274.052 923.484" stroke="black" stroke-width="4" stroke-miterlimit="10" stroke-linecap="round" stroke-linejoin="round"/>
<path fill-rule="evenodd" clip-rule="evenodd" d="M1047.45 790.484C1047.05 795.584 1037.85 810.385 1040.05 814.885C1041.15 817.285 1046.45 818.785 1048.65 819.885C1056.85 823.885 1065.15 827.184 1073.75 829.984C1076.15 830.784 1081.05 834.185 1083.65 833.185C1087.65 831.585 1090.25 822.185 1092.15 818.685C1094.75 814.185 1103.25 805.085 1102.65 803.885C1100.85 800.585 1092.65 799.584 1089.65 798.784C1077.15 795.184 1064.75 792.585 1052.05 789.885" fill="#C740C1"/>
<path d="M1047.45 790.484C1047.05 795.584 1037.85 810.385 1040.05 814.885C1041.15 817.285 1046.45 818.785 1048.65 819.885C1056.85 823.885 1065.15 827.184 1073.75 829.984C1076.15 830.784 1081.05 834.185 1083.65 833.185C1087.65 831.585 1090.25 822.185 1092.15 818.685C1094.75 814.185 1103.25 805.085 1102.65 803.885C1100.85 800.585 1092.65 799.584 1089.65 798.784C1077.15 795.184 1064.75 792.585 1052.05 789.885" stroke="black" stroke-width="4" stroke-miterlimit="10" stroke-linecap="round" stroke-linejoin="round"/>
<path fill-rule="evenodd" clip-rule="evenodd" d="M1141.55 860.285C1139.65 858.585 1122.75 894.185 1123.55 899.085C1123.95 901.685 1168.85 924.685 1176.35 929.685C1178.45 931.085 1192.95 892.085 1192.75 890.785C1191.95 887.085 1152.95 866.385 1141.55 860.285Z" fill="#7CCFD5"/>
<path d="M1141.55 860.285C1139.65 858.585 1122.75 894.185 1123.55 899.085C1123.95 901.685 1168.85 924.685 1176.35 929.685C1178.45 931.085 1192.95 892.085 1192.75 890.785C1191.95 887.085 1152.95 866.385 1141.55 860.285Z" stroke="black" stroke-width="4" stroke-miterlimit="10" stroke-linecap="round" stroke-linejoin="round"/>
<path fill-rule="evenodd" clip-rule="evenodd" d="M1346.05 922.484C1344.15 920.784 1324.85 952.185 1318.95 963.885C1317.75 966.185 1354.05 995.485 1361.55 1000.58C1363.65 1001.98 1381.65 967.685 1387.05 947.385C1387.95 943.785 1357.15 928.484 1346.05 922.484Z" fill="#7CCFD5"/>
<path d="M1346.05 922.484C1344.15 920.784 1324.85 952.185 1318.95 963.885C1317.75 966.185 1354.05 995.485 1361.55 1000.58C1363.65 1001.98 1381.65 967.685 1387.05 947.385C1387.95 943.785 1357.15 928.484 1346.05 922.484Z" stroke="black" stroke-width="4" stroke-miterlimit="10" stroke-linecap="round" stroke-linejoin="round"/>
<path fill-rule="evenodd" clip-rule="evenodd" d="M1241.05 975.385C1237.85 985.385 1237.05 989.184 1232.25 1001.48C1231.25 1003.88 1273.05 1041.98 1280.55 1047.08C1282.65 1048.48 1285.85 1031.08 1293.35 1012.58C1294.65 1008.98 1252.25 983.785 1241.05 975.385Z" fill="#C740C1"/>
<path d="M1241.05 975.385C1237.85 985.385 1237.05 989.184 1232.25 1001.48C1231.25 1003.88 1273.05 1041.98 1280.55 1047.08C1282.65 1048.48 1285.85 1031.08 1293.35 1012.58C1294.65 1008.98 1252.25 983.785 1241.05 975.385Z" stroke="black" stroke-width="4" stroke-miterlimit="10" stroke-linecap="round" stroke-linejoin="round"/>
</svg>
