<svg width="1500" height="1500" viewBox="0 0 1500 1500" fill="none" xmlns="http://www.w3.org/2000/svg">
<rect width="1500" height="1500" fill="#F7F2EE"/>
<path d="M298.65 892.5C298.75 892.6 294.25 893.5 294.15 893.5C268.35 898.1 240.75 898.2 217.65 911.2C197.75 922.4 195.15 941.6 184.15 958.4C169.25 981.3 133.05 1007.4 166.55 1033.6C198.65 1058.8 240.35 1044.4 275.95 1037.7C318.95 1029.6 382.55 1062.3 427.45 1039C528.45 986.6 418.15 859.9 305.85 891.4" stroke="black" stroke-width="8" stroke-miterlimit="10" stroke-linecap="round" stroke-linejoin="round"/>
<path d="M280.65 801.2C277.35 798.4 246.45 799.1 242.25 798.3C208.95 791.8 153.55 779.1 149.15 829.3C147.75 845.3 152.95 861.7 162.75 874.3C201.65 924.4 252.15 898.5 301.85 889.7C319.25 886.6 340.25 889.7 354.95 878.2C364.05 871 370.75 859.599 371.75 847.899C375.55 802.699 311.25 799.1 280.65 801.2Z" stroke="black" stroke-width="8" stroke-miterlimit="10" stroke-linecap="round" stroke-linejoin="round"/>
<path d="M247.45 698.6C247.05 695.3 223.85 714.699 222.75 715.899C209.45 730.999 199.05 751 204.55 771.5C211.65 797.9 229.85 803.599 250.45 802.899C267.25 802.299 285.75 797.5 301.05 796.1C330.25 793.4 362.25 807.2 382.45 777.8C429.25 709.6 322.05 662.999 256.65 696.399" stroke="black" stroke-width="8" stroke-miterlimit="10" stroke-linecap="round" stroke-linejoin="round"/>
<path d="M277.251 624.6C255.051 621.5 231.85 616.7 209.85 623.6C163.95 638.1 166.65 690.099 214.85 696.899C229.75 698.999 256.951 688.5 283.951 683.7C298.251 681.1 316.851 686.2 324.051 682.2C331.851 677.9 338.75 670.3 339.35 661.1C341.65 629.2 299.551 626.8 277.751 623.7" stroke="black" stroke-width="8" stroke-miterlimit="10" stroke-linecap="round" stroke-linejoin="round"/>
<path opacity="0.9116" d="M213.75 637.8C212.75 638.1 215.75 637.7 216.75 637.6C218.85 637.5 221.05 637.4 223.15 637.4C228.95 637.3 234.75 637.2 240.55 637.3C257.75 637.6 275.35 638.4 292.25 641C295.25 641.5 306.75 642.401 308.05 645.201C308.25 645.601 307.75 645.9 307.35 646.1C299.55 649.6 273.35 644.9 268.75 648.4C268.55 648.6 271.65 649.1 271.85 649.1C275.15 649.6 278.45 649.901 281.75 650.201C287.25 650.801 315.05 652.001 315.05 658.701C315.05 666.001 267.15 667.3 258.15 668.8" stroke="black" stroke-width="4" stroke-miterlimit="10" stroke-linecap="round" stroke-linejoin="round"/>
<path opacity="0.9116" d="M285.351 704.7C283.651 704.4 288.751 704.399 290.451 704.399C292.551 704.399 294.651 704.4 296.751 704.5C300.851 704.7 304.951 705.1 309.051 705.5C318.051 706.4 355.151 709.3 359.351 716.5C360.251 718.1 358.651 719 357.151 719.5C347.251 722.6 300.551 721.2 298.051 723.2C296.951 724.1 300.851 723.7 302.351 723.8C306.451 724.1 310.651 724.3 314.751 724.5C330.551 725.3 348.051 723.9 363.351 728.1C364.551 728.4 368.051 729.299 367.651 730.899C366.151 736.699 343.151 734.9 338.951 734.7C326.851 734.2 254.351 721.399 248.451 731.399C247.051 733.699 249.851 735.1 251.951 735.8C272.351 743 296.351 740 317.651 743.3C318.551 743.4 324.651 744 324.651 745.5C324.651 747.2 306.451 748 301.351 748.2C288.451 748.9 238.751 749.699 234.851 763.899C227.351 790.499 335.951 774 291.651 767.8C285.951 767 280.151 766.7 274.351 766.7" stroke="black" stroke-width="4" stroke-miterlimit="10" stroke-linecap="round" stroke-linejoin="round"/>
<path opacity="0.9116" d="M205.25 816.3C205.25 816.6 229.85 817.9 233.95 818.1C254.85 819 309.45 814.1 326.35 821.7C342.15 828.9 289.25 830.299 288.05 830.399C287.05 830.499 277.25 830.799 277.45 832.399C277.85 834.399 288.85 834.2 290.55 834.3C303.95 834.8 317.25 834.199 330.65 833.899C332.75 833.899 344.65 833 344.85 836C345.05 838.6 334.55 839.4 332.65 839.7C325.75 840.6 297.05 842.2 293.25 846.3C291.55 848.1 303.15 849.299 304.15 849.399C309.05 849.899 349.35 849.8 345.45 856.3C341.25 863.5 322.15 864.3 313.85 865.3C288.45 868.5 237.05 879.9 213.65 876.2C210.65 875.7 180.45 866.7 196.25 863.2C208.85 860.5 224.15 865.4 235.75 868.7" stroke="black" stroke-width="4" stroke-miterlimit="10" stroke-linecap="round" stroke-linejoin="round"/>
<path opacity="0.9116" d="M231.55 924.1C230.65 924.5 233.15 923.8 233.45 923.8C235.45 923.4 237.35 923.1 239.35 922.7C245.25 921.7 251.25 920.7 257.25 919.7C270.15 917.5 330.85 908.2 333.15 913.3C334.15 915.5 313.25 919.2 310.05 919.7C288.45 923.2 265.55 923 244.15 927.4C240.85 928.1 223.85 932 230.35 936.6C246.35 947.7 317.15 929.2 336.45 925.2C340.45 924.4 370.85 918.2 372.75 923.1C374.85 928.5 340.55 935.3 336.15 936.1C303.35 942 235.25 944.3 210.35 960.2C195.85 969.5 225.45 968.8 231.55 969C232.85 969.1 247.55 970.3 246.65 971C238.85 976.8 182.65 986.7 198.25 1000.8C210.75 1012.1 247.05 1011.6 261.15 1002.2C274.75 993.1 240.95 993.1 248.85 998C256.65 1002.8 273.65 1000.1 282.45 999.2C297.15 997.6 311.55 995.5 326.45 995.3C342.95 995.1 359.55 997.2 375.65 993.8C409.15 986.7 428.25 955.7 400.35 936.9" stroke="black" stroke-width="4" stroke-miterlimit="10" stroke-linecap="round" stroke-linejoin="round"/>
<path d="M228.751 547.7C177.851 554.6 146.051 604.3 182.751 618.3C196.451 623.6 242.351 614 285.051 625.5C315.451 633.7 398.751 638.999 402.251 579.399C404.651 536.899 256.051 544 228.751 547.7Z" stroke="black" stroke-width="8" stroke-miterlimit="10" stroke-linecap="round" stroke-linejoin="round"/>
<path opacity="0.9116" d="M227.25 553.399C229.05 553.399 223.75 554.7 222.15 555.7C220.05 557 211.75 562.4 216.25 565.2C227.25 572 283.35 564.499 298.35 563.899C338.55 562.499 378.25 560.599 377.25 568.399C376.65 573.099 347.85 573.6 344.25 573.8C310.35 575.1 276.15 574.8 242.25 573.7C237.95 573.6 204.15 571 204.65 578.1C205.05 583.2 239.95 584.3 243.95 584.3C277.75 584.7 311.65 581.699 345.45 582.399C353.35 582.599 373.45 582.2 377.45 591.5C382.15 602.6 350.55 610.4 344.45 611.6C311.05 618.3 273.95 618.5 240.15 614.8C233.05 614 209.85 613 207.05 603.7C204.95 596.7 234.85 595.499 237.85 595.399C269.65 594.399 301.95 594.1 333.75 594.8C361.65 595.4 306.85 601.6 304.75 601.7C295.55 602.4 286.35 602.8 277.15 602.8C262.85 602.8 248.55 601.9 234.25 601.2" stroke="black" stroke-width="4" stroke-miterlimit="10" stroke-linecap="round" stroke-linejoin="round"/>
<path fill-rule="evenodd" clip-rule="evenodd" d="M212.35 455.4C203.85 457.7 173.45 464.7 166.45 485C155.25 517.5 165.45 547.5 195.35 550.1C227.25 552.9 337.65 535.9 355.85 547.7C365.35 553.9 381.75 557.4 387.75 544.5C397.45 523.4 379.55 507.7 361.25 500.8C342.45 493.6 299.35 462.3 265.25 455.5C246.95 451.8 228.05 451.3 212.35 455.4Z" fill="#F7F2EE"/>
<path opacity="0.9116" d="M212.35 455.4C203.85 457.7 173.45 464.7 166.45 485C155.25 517.5 165.45 547.5 195.35 550.1C227.25 552.9 337.65 535.9 355.85 547.7C365.35 553.9 381.75 557.4 387.75 544.5C397.45 523.4 379.55 507.7 361.25 500.8C342.45 493.6 299.35 462.3 265.25 455.5C246.95 451.8 228.05 451.3 212.35 455.4Z" stroke="black" stroke-width="8" stroke-miterlimit="10" stroke-linecap="round" stroke-linejoin="round"/>
<path opacity="0.9116" d="M165.35 487.3C148.85 490.1 142.95 453.399 144.15 443.899C145.55 433.399 150.35 424.299 157.15 416.399C187.35 381.199 316.15 364.5 311.45 309.1" stroke="black" stroke-width="4" stroke-miterlimit="10" stroke-linecap="round" stroke-linejoin="round"/>
<path fill-rule="evenodd" clip-rule="evenodd" d="M254.35 368.2C253.95 368.4 255.05 367.8 255.35 367.5C257.15 366.2 258.75 364.7 260.35 363C263.95 359.2 266.95 354.9 269.55 350.4C276.75 337.9 277.55 319.1 260.55 314.7C257.85 314 255.05 313.8 252.25 314C249.25 314.2 246.35 314.8 243.55 315.9C233.25 319.6 244.45 325.5 253.95 332C261.75 337.2 259.55 350.2 254.35 368.2Z" fill="black"/>
<path opacity="0.9116" d="M254.35 368.2C253.95 368.4 255.05 367.8 255.35 367.5C257.15 366.2 258.75 364.7 260.35 363C263.95 359.2 266.95 354.9 269.55 350.4C276.75 337.9 277.55 319.1 260.55 314.7C257.85 314 255.05 313.8 252.25 314C249.25 314.2 246.35 314.8 243.55 315.9C233.25 319.6 244.45 325.5 253.95 332C261.75 337.2 259.55 350.2 254.35 368.2Z" stroke="black" stroke-width="4" stroke-miterlimit="10" stroke-linecap="round" stroke-linejoin="round"/>
<path fill-rule="evenodd" clip-rule="evenodd" d="M299.85 237.7C299.65 234.3 306.251 218 309.151 217.3C312.151 216.7 316.951 230.9 317.651 233.8C317.851 234.7 318.051 235.7 318.051 236.6C318.051 237 317.651 238.099 318.051 237.899C318.351 237.799 318.851 235.6 319.051 235.3C320.451 232.6 335.551 221.4 338.251 223.3C345.651 228.7 335.751 246 335.751 246.1C335.851 246.3 337.251 245.7 337.451 245.7C339.051 245.3 340.851 245.4 342.451 245.5C345.451 245.8 354.251 248.199 355.551 251.399C357.151 255.599 349.151 264 346.151 264.7C345.551 264.9 337.951 265.7 338.051 266.2C338.251 267 343.751 268.4 344.451 268.8C347.151 270.3 355.051 280.6 353.551 284.1C352.251 287.1 339.051 286.7 336.651 286C336.151 285.8 331.351 283.8 331.051 284.2C330.251 285.3 333.751 289.4 334.251 290.2C336.251 293.6 339.551 305.3 334.551 308C330.051 310.5 322.651 300.8 321.551 297.5C320.951 295.6 321.251 289.9 319.951 288.5C319.851 288.4 319.951 288.7 319.951 288.8C320.151 291.4 320.351 296 319.651 298.5C318.851 301.5 311.45 310.199 308.35 310.899C308.15 310.899 307.651 309.6 307.551 309.5C305.451 305.1 304.55 300.4 304.35 295.5C304.35 295.3 304.251 290.5 304.151 290.5C304.051 290.5 300.45 296.799 299.85 297.399C296.65 300.599 281.55 305 279.85 300.8C278.75 298.1 288.251 283.1 291.651 283.1C292.351 283.1 290.251 283.1 289.551 283.1C288.151 283 286.851 282.9 285.451 282.6C281.051 281.6 271.55 281.199 270.35 276.399C268.95 271.099 282.451 265.9 284.551 265.8C285.651 265.8 288.151 266.9 287.751 266C287.251 265 281.151 263.4 279.951 262.6C274.851 259.3 268.751 256.4 269.151 250.5C269.451 246.2 287.851 245.2 290.651 246.5C290.851 246.6 292.751 247.499 292.551 247.899C291.651 249.299 285.651 245 285.051 244.5C282.351 242.3 274.351 227.9 278.951 226.6C281.051 226 285.85 227 288.85 228.5C292.35 230.5 297.95 235.7 299.85 237.7Z" fill="#FABD14"/>
<path opacity="0.9116" d="M299.85 237.7C299.65 234.3 306.251 218 309.151 217.3C312.151 216.7 316.951 230.9 317.651 233.8C317.851 234.7 318.051 235.7 318.051 236.6C318.051 237 317.651 238.099 318.051 237.899C318.351 237.799 318.851 235.6 319.051 235.3C320.451 232.6 335.551 221.4 338.251 223.3C345.651 228.7 335.751 246 335.751 246.1C335.851 246.3 337.251 245.7 337.451 245.7C339.051 245.3 340.851 245.4 342.451 245.5C345.451 245.8 354.251 248.199 355.551 251.399C357.151 255.599 349.151 264 346.151 264.7C345.551 264.9 337.951 265.7 338.051 266.2C338.251 267 343.751 268.4 344.451 268.8C347.151 270.3 355.051 280.6 353.551 284.1C352.251 287.1 339.051 286.7 336.651 286C336.151 285.8 331.351 283.8 331.051 284.2C330.251 285.3 333.751 289.4 334.251 290.2C336.251 293.6 339.551 305.3 334.551 308C330.051 310.5 322.651 300.8 321.551 297.5C320.951 295.6 321.251 289.9 319.951 288.5C319.851 288.4 319.951 288.7 319.951 288.8C320.151 291.4 320.351 296 319.651 298.5C318.851 301.5 311.45 310.199 308.35 310.899C308.15 310.899 307.651 309.6 307.551 309.5C305.451 305.1 304.55 300.4 304.35 295.5C304.35 295.3 304.251 290.5 304.151 290.5C304.051 290.5 300.45 296.799 299.85 297.399C296.65 300.599 281.55 305 279.85 300.8C278.75 298.1 288.251 283.1 291.651 283.1C292.351 283.1 290.251 283.1 289.551 283.1C288.151 283 286.851 282.9 285.451 282.6C281.051 281.6 271.55 281.199 270.35 276.399C268.95 271.099 282.451 265.9 284.551 265.8C285.651 265.8 288.151 266.9 287.751 266C287.251 265 281.151 263.4 279.951 262.6C274.851 259.3 268.751 256.4 269.151 250.5C269.451 246.2 287.851 245.2 290.651 246.5C290.851 246.6 292.751 247.499 292.551 247.899C291.651 249.299 285.651 245 285.051 244.5C282.351 242.3 274.351 227.9 278.951 226.6C281.051 226 285.85 227 288.85 228.5C292.35 230.5 297.95 235.7 299.85 237.7Z" stroke="black" stroke-width="4" stroke-miterlimit="10" stroke-linecap="round" stroke-linejoin="round"/>
<path fill-rule="evenodd" clip-rule="evenodd" d="M303.65 255.099C299.65 256.099 298.55 264.199 298.35 267.299C297.65 278.199 310.35 283.499 318.95 277.899C335.05 267.399 319.15 240.999 304.75 253.399" fill="#F7F2EE"/>
<path opacity="0.9116" d="M303.65 255.099C299.65 256.099 298.55 264.199 298.35 267.299C297.65 278.199 310.35 283.499 318.95 277.899C335.05 267.399 319.15 240.999 304.75 253.399" stroke="black" stroke-width="4" stroke-miterlimit="10" stroke-linecap="round" stroke-linejoin="round"/>
<path opacity="0.9116" d="M314.05 252.5C312.65 253.8 311.65 256.9 310.75 258.6C308.25 263.3 305.75 268.099 303.25 272.899" stroke="black" stroke-width="4" stroke-miterlimit="10" stroke-linecap="round" stroke-linejoin="round"/>
<path opacity="0.9116" d="M321.85 257.201C322.15 257.101 321.45 257.7 321.25 257.9C320.95 258.4 320.55 258.9 320.25 259.4C319.25 260.9 318.35 262.5 317.35 264C314.45 268.8 311.75 273.701 309.15 278.701" stroke="black" stroke-width="4" stroke-miterlimit="10" stroke-linecap="round" stroke-linejoin="round"/>
<path opacity="0.9116" d="M305.25 255.899C305.15 255.899 305.85 256.2 305.85 256.2C306.25 256.4 306.75 256.6 307.15 256.7C308.55 257.4 310.05 258 311.45 258.7C315.85 260.7 319.75 262.9 323.65 265.8" stroke="black" stroke-width="4" stroke-miterlimit="10" stroke-linecap="round" stroke-linejoin="round"/>
<path opacity="0.9116" d="M300.25 263.899C300.15 264.099 301.65 264.7 301.75 264.7C303.45 265.4 305.15 266.2 306.85 267C311.35 268.9 315.85 270.9 320.15 273" stroke="black" stroke-width="4" stroke-miterlimit="10" stroke-linecap="round" stroke-linejoin="round"/>
<path opacity="0.9116" d="M398.151 498.799C398.451 498.199 401.651 501.4 401.851 501.7C404.951 505.1 407.251 509.499 409.251 513.599C416.451 528.699 412.751 574.799 389.851 557.399" stroke="black" stroke-width="8" stroke-miterlimit="10" stroke-linecap="round" stroke-linejoin="round"/>
<path d="M167.15 492.5C166.35 492.1 168.75 492.099 169.65 491.899C171.25 491.599 172.95 491.4 174.55 491.2C178.35 490.8 186.05 489.099 189.55 491.099C191.45 492.199 179.75 497.199 181.45 499.099C184.85 503.099 204.75 501.199 205.75 503.399C206.05 504.099 203.95 504.899 203.65 505.099C199.55 506.899 184.95 509.399 183.05 512.899C180.55 517.399 202.25 515.2 196.85 519C195.45 520 193.85 520.6 192.35 521.2C191.05 521.7 189.75 522.199 188.45 522.799C186.55 523.499 184.65 524.2 182.75 525" stroke="#161616" stroke-width="4" stroke-miterlimit="10" stroke-linecap="round" stroke-linejoin="round"/>
<path fill-rule="evenodd" clip-rule="evenodd" d="M287.85 447.2C283.95 452.4 264.15 453.1 259.55 472.3C254.05 495.2 264.65 522.899 294.85 522.599C329.35 522.199 379.85 522.6 407.05 500.8C425.85 485.7 428.85 441.199 406.55 430.399C397.05 425.799 384.85 431.3 378.65 427.5C372.65 423.8 371.85 408.3 363.65 410.8C349.45 415.1 361.35 430.399 346.85 433.899C341.95 435.099 328.35 437.599 324.95 437.599C304.65 437.799 313.55 418.6 301.55 421C285.85 424.3 299.65 440.7 287.85 447.2Z" fill="#F7F2EE"/>
<path opacity="0.9116" d="M287.85 447.2C283.95 452.4 264.15 453.1 259.55 472.3C254.05 495.2 264.65 522.899 294.85 522.599C329.35 522.199 379.85 522.6 407.05 500.8C425.85 485.7 428.85 441.199 406.55 430.399C397.05 425.799 384.85 431.3 378.65 427.5C372.65 423.8 371.85 408.3 363.65 410.8C349.45 415.1 361.35 430.399 346.85 433.899C341.95 435.099 328.35 437.599 324.95 437.599C304.65 437.799 313.55 418.6 301.55 421C285.85 424.3 299.65 440.7 287.85 447.2Z" stroke="black" stroke-width="8" stroke-miterlimit="10" stroke-linecap="round" stroke-linejoin="round"/>
<path opacity="0.9116" fill-rule="evenodd" clip-rule="evenodd" d="M325.85 437.6C320.95 437.7 323.05 439.9 323.15 440.1C323.45 441.6 323.45 447.001 328.65 445.201C330.15 444.701 330.55 440.201 331.85 440.201C333.45 440.201 334.05 446.401 335.55 446.701C336.65 446.901 336.65 441.001 337.65 441.701C338.55 442.301 340.55 446.5 340.85 445.3C341.35 443.3 344.25 435.4 344.45 437.9C345.55 449 350.75 441 350.65 434.1C350.65 432.4 342.95 436.8 344.35 435.8C344.85 435.5 343.25 436 342.65 436C341.45 436 340.25 436 339.15 436C335.55 436.1 331.95 436.4 328.45 437.1" fill="black"/>
<path opacity="0.9116" d="M325.85 437.6C320.95 437.7 323.05 439.9 323.15 440.1C323.45 441.6 323.45 447.001 328.65 445.201C330.15 444.701 330.55 440.201 331.85 440.201C333.45 440.201 334.05 446.401 335.55 446.701C336.65 446.901 336.65 441.001 337.65 441.701C338.55 442.301 340.55 446.5 340.85 445.3C341.35 443.3 344.25 435.4 344.45 437.9C345.55 449 350.75 441 350.65 434.1C350.65 432.4 342.95 436.8 344.35 435.8C344.85 435.5 343.25 436 342.65 436C341.45 436 340.25 436 339.15 436C335.55 436.1 331.95 436.4 328.45 437.1" stroke="#161616" stroke-width="4" stroke-miterlimit="10" stroke-linecap="round" stroke-linejoin="round"/>
<path opacity="0.9116" d="M322.35 462.9C321.45 459.9 319.95 456.1 314.85 455.2C309.75 454.2 306.05 457.9 304.55 462.7" stroke="black" stroke-width="4" stroke-miterlimit="10" stroke-linecap="round" stroke-linejoin="round"/>
<path opacity="0.9116" d="M367.851 458.5C366.451 455.7 364.351 452.3 359.151 452.3C353.951 452.3 350.951 456.7 350.351 461.6" stroke="black" stroke-width="4" stroke-miterlimit="10" stroke-linecap="round" stroke-linejoin="round"/>
<path opacity="0.9116" d="M333.551 464.7C329.751 465.8 329.351 475.7 334.951 476C346.651 476.6 346.851 461 333.551 464.7Z" stroke="black" stroke-width="4" stroke-miterlimit="10" stroke-linecap="round" stroke-linejoin="round"/>
<path opacity="0.9116" d="M335.95 477.5C336.05 477.5 337.65 492.6 325.95 497C316.55 500.5 302.95 494.2 308.25 483.2" stroke="black" stroke-width="4" stroke-miterlimit="10" stroke-linecap="round" stroke-linejoin="round"/>
<path opacity="0.9116" d="M336.25 478.5C337.85 484.4 342.95 491.3 348.55 494.3C356.65 498.7 371.85 490 367.15 479.8" stroke="black" stroke-width="4" stroke-miterlimit="10" stroke-linecap="round" stroke-linejoin="round"/>
<path opacity="0.9116" d="M334.35 490.899C334.95 490.999 334.15 492.1 334.15 492.8C334.15 495.6 334.751 503.3 338.551 503.7C342.151 504 345.95 493.5 343.45 491" stroke="black" stroke-width="4" stroke-miterlimit="10" stroke-linecap="round" stroke-linejoin="round"/>
<path opacity="0.9116" d="M396.051 455.7C395.551 455.8 396.75 454.8 397.15 454.5C398.45 453.4 399.851 452.5 401.251 451.6C405.051 449.2 408.95 446.8 412.95 444.7C425.55 437.9 438.05 433.1 452.35 432.6" stroke="black" stroke-width="4" stroke-miterlimit="10" stroke-linecap="round" stroke-linejoin="round"/>
<path opacity="0.9116" d="M400.45 469.1C401.35 467.3 411.25 465.8 412.95 465.4C425.85 462.2 440.45 459.5 453.65 461.5" stroke="black" stroke-width="4" stroke-miterlimit="10" stroke-linecap="round" stroke-linejoin="round"/>
<path opacity="0.9116" d="M402.15 483.3C401.55 484.6 404.85 482.4 406.25 482.2C408.95 481.9 411.75 482.1 414.45 482.4C422.85 483.2 431.25 484.8 439.65 486.1" stroke="black" stroke-width="4" stroke-miterlimit="10" stroke-linecap="round" stroke-linejoin="round"/>
<path opacity="0.9116" d="M274.45 464C274.95 463.8 273.65 463.4 273.25 463.2C271.85 462.4 270.35 461.8 268.85 461.2C265.15 459.7 261.35 458.4 257.45 457.2C246.25 453.7 234.55 449.899 222.45 450.399" stroke="black" stroke-width="4" stroke-miterlimit="10" stroke-linecap="round" stroke-linejoin="round"/>
<path opacity="0.9116" d="M268.85 476.2C269.35 475.1 266.45 476.2 265.25 476.3C262.75 476.5 260.35 476.8 257.95 477.3C250.55 478.8 243.35 481.6 236.25 484" stroke="black" stroke-width="4" stroke-miterlimit="10" stroke-linecap="round" stroke-linejoin="round"/>
<path opacity="0.9116" d="M276.951 487.3C277.451 487.4 275.951 487.7 275.551 488C274.751 488.6 273.951 489.2 273.251 489.8C270.651 492 268.251 494.3 265.951 496.8C258.851 504.4 252.551 512.9 246.851 521.5" stroke="black" stroke-width="4" stroke-miterlimit="10" stroke-linecap="round" stroke-linejoin="round"/>
<path fill-rule="evenodd" clip-rule="evenodd" d="M792.349 177.2C791.649 177.4 791.149 180 790.949 180.5C766.549 252.1 688.149 848.4 631.949 1075.1C629.049 1086.7 606.149 1210.7 592.149 1286.2C585.949 1319.9 588.949 1314.2 588.949 1314.2L645.949 1316.7C645.949 1316.7 656.449 1273.2 668.449 1219.3C738.849 903.1 862.249 171 862.249 171C862.249 171 804.849 173.7 792.349 177.2Z" fill="#F7F2EE"/>
<path d="M792.349 177.2C791.649 177.4 791.149 180 790.949 180.5C766.549 252.1 688.149 848.4 631.949 1075.1C629.049 1086.7 606.149 1210.7 592.149 1286.2C585.949 1319.9 588.949 1314.2 588.949 1314.2L645.949 1316.7C645.949 1316.7 656.449 1273.2 668.449 1219.3C738.849 903.1 862.249 171 862.249 171C862.249 171 804.849 173.7 792.349 177.2Z" stroke="black" stroke-width="8" stroke-miterlimit="10" stroke-linecap="round" stroke-linejoin="round"/>
<path fill-rule="evenodd" clip-rule="evenodd" d="M870.45 178.6C871.05 178.7 865.95 172 866.15 172.5C892.55 241.8 920.15 322.7 943.35 393.6C1014.75 612.6 1092.35 829.801 1159.45 1050.7C1167.45 1077.2 1233.05 1282.8 1211.55 1292.1C1202.45 1296 1181.55 1296.3 1173.85 1288.7C1168.45 1283.4 846.65 263.5 848.55 258.2" fill="#F7F2EE"/>
<path d="M870.45 178.6C871.05 178.7 865.95 172 866.15 172.5C892.55 241.8 920.15 322.7 943.35 393.6C1014.75 612.6 1092.35 829.801 1159.45 1050.7C1167.45 1077.2 1233.05 1282.8 1211.55 1292.1C1202.45 1296 1181.55 1296.3 1173.85 1288.7C1168.45 1283.4 846.65 263.5 848.55 258.2" stroke="black" stroke-width="8" stroke-miterlimit="10" stroke-linecap="round" stroke-linejoin="round"/>
<path fill-rule="evenodd" clip-rule="evenodd" d="M556.15 279.399C537.85 427.299 520.75 1148.9 520.75 1148.9L1214.75 1124.3L1131.75 263.3C1131.75 263.3 1085.35 262.2 1018.75 261.5C866.75 259.9 609.35 260.199 556.15 279.399Z" fill="#FABD14"/>
<path d="M556.15 279.399C537.85 427.299 520.75 1148.9 520.75 1148.9L1214.75 1124.3L1131.75 263.3C1131.75 263.3 1085.35 262.2 1018.75 261.5C866.75 259.9 609.35 260.199 556.15 279.399Z" stroke="black" stroke-width="8" stroke-miterlimit="10" stroke-linecap="round" stroke-linejoin="round"/>
<path opacity="0.9116" d="M664.05 268.399C664.05 268.499 664.05 268.5 664.05 268.6" stroke="black" stroke-width="4" stroke-miterlimit="10" stroke-linecap="round" stroke-linejoin="round"/>
<path opacity="0.9116" d="M555.149 337.899C683.749 283.599 552.55 468.699 573.05 518.299C602.65 590.299 918.849 363.399 973.349 331.799C990.449 321.899 1062.45 283.599 1079.15 327.099C1090.35 355.999 1059.45 400.9 1032.85 422.2C1022.35 430.6 1012.25 437.699 1005.25 443.099C883.85 535.899 761.749 615.799 657.849 728.399C640.349 747.399 544.35 856.699 568.75 886.899C586.35 908.599 682.949 833.4 695.349 824C749.449 783.1 1055.25 504.3 1096.55 545.2C1130.75 579.1 1080.95 661.199 1060.25 689.399C985.55 791.199 849.849 874.099 771.649 972.599C751.449 998.099 725.249 1077.9 766.849 1089.9C791.249 1097 857.149 1098.1 918.949 1011.9" stroke="black" stroke-width="4" stroke-miterlimit="10" stroke-linecap="round" stroke-linejoin="round"/>
<path fill-rule="evenodd" clip-rule="evenodd" d="M484.651 1135.4C482.751 1134.4 485.851 1139.4 486.151 1141.5C486.851 1146 487.851 1150.7 490.051 1154.8C495.951 1165.9 512.951 1162.2 523.751 1162C566.051 1161.2 608.05 1156.4 650.35 1155.6C716.75 1154.2 1170.85 1155.9 1209.45 1154.9C1212.05 1154.8 1198.85 1127.8 1198.75 1123.9C1198.55 1116.9 579.75 1132.4 493.35 1134.8" fill="#F7F2EE"/>
<path d="M484.651 1135.4C482.751 1134.4 485.851 1139.4 486.151 1141.5C486.851 1146 487.851 1150.7 490.051 1154.8C495.951 1165.9 512.951 1162.2 523.751 1162C566.051 1161.2 608.05 1156.4 650.35 1155.6C716.75 1154.2 1170.85 1155.9 1209.45 1154.9C1212.05 1154.8 1198.85 1127.8 1198.75 1123.9C1198.55 1116.9 579.75 1132.4 493.35 1134.8" stroke="black" stroke-width="8" stroke-miterlimit="10" stroke-linecap="round" stroke-linejoin="round"/>
<path fill-rule="evenodd" clip-rule="evenodd" d="M787.551 331.1C787.051 331.2 786.751 332.9 786.651 333.2C770.951 379.3 720.551 762.8 684.351 908.6C681.651 919.4 655.751 1060.3 655.751 1060.3L692.451 1061.9C692.451 1061.9 700.251 1036.1 707.951 1001.4C753.251 797.999 832.551 327.1 832.551 327.1C832.551 327.1 795.551 328.8 787.551 331.1Z" fill="#F7F2EE"/>
<path d="M787.551 331.1C787.051 331.2 786.751 332.9 786.651 333.2C770.951 379.3 720.551 762.8 684.351 908.6C681.651 919.4 655.751 1060.3 655.751 1060.3L692.451 1061.9C692.451 1061.9 700.251 1036.1 707.951 1001.4C753.251 797.999 832.551 327.1 832.551 327.1C832.551 327.1 795.551 328.8 787.551 331.1Z" stroke="black" stroke-width="6" stroke-miterlimit="10" stroke-linecap="round" stroke-linejoin="round"/>
<path fill-rule="evenodd" clip-rule="evenodd" d="M837.751 332C838.151 332.1 834.851 327.8 834.951 328.1C851.951 372.7 869.751 424.7 884.551 470.3C930.451 611.2 980.451 750.8 1023.55 893C1028.75 910 1070.85 1042.3 1057.05 1048.3C1051.25 1050.8 1037.75 1051 1032.85 1046.1C1029.35 1042.7 822.451 386.6 823.651 383.3" fill="#F7F2EE"/>
<path d="M837.751 332C838.151 332.1 834.851 327.8 834.951 328.1C851.951 372.7 869.751 424.7 884.551 470.3C930.451 611.2 980.451 750.8 1023.55 893C1028.75 910 1070.85 1042.3 1057.05 1048.3C1051.25 1050.8 1037.75 1051 1032.85 1046.1C1029.35 1042.7 822.451 386.6 823.651 383.3" stroke="black" stroke-width="6" stroke-miterlimit="10" stroke-linecap="round" stroke-linejoin="round"/>
<path fill-rule="evenodd" clip-rule="evenodd" d="M635.551 396.7C623.751 491.9 612.751 956 612.751 956L1059.15 940.2L1005.75 386.399C1005.75 386.399 974.751 385.7 930.651 385.2C832.651 384.2 669.551 384.5 635.551 396.7Z" fill="#FABD14"/>
<path d="M635.551 396.7C623.751 491.9 612.751 956 612.751 956L1059.15 940.2L1005.75 386.399C1005.75 386.399 974.751 385.7 930.651 385.2C832.651 384.2 669.551 384.5 635.551 396.7Z" stroke="black" stroke-width="6" stroke-miterlimit="10" stroke-linecap="round" stroke-linejoin="round"/>
<path opacity="0.9116" d="M634.251 451C635.351 453.6 639.451 448.9 642.151 448.3C660.551 444.1 680.651 454.299 685.251 473.399C690.351 494.299 643.651 568.799 688.551 570.899C740.751 573.299 840.751 482.7 884.751 452.3C902.951 439.7 946.151 406.699 963.051 438.399C983.151 476.299 926.051 522.3 900.851 542.7C848.551 585.1 675.251 702.3 662.451 767.5C661.351 773.3 662.851 779.5 668.251 782.6C714.551 809.2 812.751 695.9 851.051 726.2C873.051 743.6 793.751 811.6 782.251 832.5C774.551 846.4 771.851 864.1 773.451 879.8C779.651 940.2 861.151 889.2 879.951 863" stroke="black" stroke-width="4" stroke-miterlimit="10" stroke-linecap="round" stroke-linejoin="round"/>
<path fill-rule="evenodd" clip-rule="evenodd" d="M589.55 947.4C588.35 946.8 590.35 950 590.55 951.3C591.05 954.2 591.65 957.2 593.05 959.9C596.85 967 607.75 964.7 614.75 964.5C641.95 964 668.95 960.9 696.15 960.4C738.85 959.5 1030.95 960.6 1055.85 959.9C1057.55 959.9 1049.05 942.4 1048.95 940C1048.85 935.5 650.85 945.5 595.15 947" fill="#F7F2EE"/>
<path d="M589.55 947.4C588.35 946.8 590.35 950 590.55 951.3C591.05 954.2 591.65 957.2 593.05 959.9C596.85 967 607.75 964.7 614.75 964.5C641.95 964 668.95 960.9 696.15 960.4C738.85 959.5 1030.95 960.6 1055.85 959.9C1057.55 959.9 1049.05 942.4 1048.95 940C1048.85 935.5 650.85 945.5 595.15 947" stroke="black" stroke-width="6" stroke-miterlimit="10" stroke-linecap="round" stroke-linejoin="round"/>
<path fill-rule="evenodd" clip-rule="evenodd" d="M800.45 455.399C800.15 455.499 799.95 456.5 799.95 456.7C790.65 484.1 760.55 712.499 739.05 799.399C737.45 805.799 722.05 889.7 722.05 889.7L743.85 890.6C743.85 890.6 748.45 875.2 753.05 854.6C780.05 733.5 827.25 453.1 827.25 453.1C827.25 453.1 805.25 453.999 800.45 455.399Z" fill="#F7F2EE"/>
<path d="M800.45 455.399C800.15 455.499 799.95 456.5 799.95 456.7C790.65 484.1 760.55 712.499 739.05 799.399C737.45 805.799 722.05 889.7 722.05 889.7L743.85 890.6C743.85 890.6 748.45 875.2 753.05 854.6C780.05 733.5 827.25 453.1 827.25 453.1C827.25 453.1 805.25 453.999 800.45 455.399Z" stroke="black" stroke-width="4" stroke-miterlimit="10" stroke-linecap="round" stroke-linejoin="round"/>
<path fill-rule="evenodd" clip-rule="evenodd" d="M830.351 455.899C830.551 455.899 828.651 453.399 828.651 453.599C838.751 480.099 849.351 511.099 858.251 538.299C885.651 622.199 915.351 705.4 941.051 790C944.151 800.1 969.251 878.9 961.051 882.5C957.551 884 949.551 884.1 946.651 881.2C944.551 879.2 821.351 488.5 822.051 486.5" fill="#F7F2EE"/>
<path d="M830.351 455.899C830.551 455.899 828.651 453.399 828.651 453.599C838.751 480.099 849.351 511.099 858.251 538.299C885.651 622.199 915.351 705.4 941.051 790C944.151 800.1 969.251 878.9 961.051 882.5C957.551 884 949.551 884.1 946.651 881.2C944.551 879.2 821.351 488.5 822.051 486.5" stroke="black" stroke-width="4" stroke-miterlimit="10" stroke-linecap="round" stroke-linejoin="round"/>
<path fill-rule="evenodd" clip-rule="evenodd" d="M709.951 494.5C702.951 551.2 696.351 827.6 696.351 827.6L962.151 818.2L930.451 488.3C930.451 488.3 739.251 483.9 709.951 494.5Z" fill="#FABD14"/>
<path d="M709.951 494.5C702.951 551.2 696.351 827.6 696.351 827.6L962.151 818.2L930.451 488.3C930.451 488.3 739.251 483.9 709.951 494.5Z" stroke="black" stroke-width="4" stroke-miterlimit="10" stroke-linecap="round" stroke-linejoin="round"/>
<path fill-rule="evenodd" clip-rule="evenodd" d="M682.551 822.399C681.851 821.999 683.051 823.9 683.151 824.7C683.451 826.4 683.851 828.2 684.651 829.8C686.951 834.1 693.451 832.599 697.551 832.599C713.751 832.299 729.851 830.499 746.051 830.099C771.451 829.599 945.451 830.2 960.251 829.8C961.251 829.8 956.151 819.399 956.151 817.899C956.051 815.199 719.051 821.099 685.951 822.099" fill="#F7F2EE"/>
<path d="M682.551 822.399C681.851 821.999 683.051 823.9 683.151 824.7C683.451 826.4 683.851 828.2 684.651 829.8C686.951 834.1 693.451 832.599 697.551 832.599C713.751 832.299 729.851 830.499 746.051 830.099C771.451 829.599 945.451 830.2 960.251 829.8C961.251 829.8 956.151 819.399 956.151 817.899C956.051 815.199 719.051 821.099 685.951 822.099" stroke="black" stroke-width="4" stroke-miterlimit="10" stroke-linecap="round" stroke-linejoin="round"/>
<path fill-rule="evenodd" clip-rule="evenodd" d="M806.45 560.5C806.25 557 813.05 539.999 816.15 539.399C819.25 538.699 824.25 553.499 824.95 556.599C825.15 557.599 825.35 558.599 825.35 559.599C825.35 559.999 824.95 561.099 825.35 560.899C825.65 560.799 826.25 558.5 826.35 558.2C827.75 555.4 843.45 543.799 846.25 545.799C853.95 551.399 843.65 569.299 843.65 569.399C843.75 569.599 845.25 569 845.45 569C847.05 568.6 849.05 568.699 850.65 568.799C853.75 569.099 862.95 571.599 864.25 574.899C865.95 579.299 857.55 588 854.55 588.7C853.95 588.9 845.95 589.7 846.15 590.2C846.35 591 852.05 592.499 852.85 592.899C855.65 594.499 863.85 605.099 862.25 608.799C860.85 611.999 847.25 611.5 844.65 610.7C844.15 610.5 839.15 608.399 838.85 608.799C838.05 609.999 841.65 614.2 842.15 615C844.25 618.5 847.65 630.7 842.45 633.5C837.75 636.1 830.05 625.999 828.95 622.599C828.35 620.699 828.65 614.7 827.25 613.2C827.15 613.1 827.25 613.399 827.25 613.599C827.55 616.299 827.65 621.1 826.95 623.7C826.15 626.9 818.35 635.799 815.25 636.599C815.05 636.599 814.45 635.199 814.45 635.099C812.25 630.499 811.35 625.699 811.15 620.599C811.15 620.399 811.05 615.399 810.95 615.399C810.85 615.399 807.05 622 806.55 622.5C803.25 625.8 787.55 630.4 785.75 626C784.65 623.2 794.55 607.599 798.05 607.599C798.75 607.599 796.65 607.699 795.85 607.599C794.45 607.499 793.05 607.399 791.65 607.099C787.05 606.099 777.15 605.6 775.95 600.7C774.55 595.2 788.55 589.8 790.65 589.7C791.75 589.7 794.45 590.899 793.95 589.899C793.45 588.899 787.05 587.199 785.85 586.399C780.55 582.999 774.15 579.899 774.65 573.799C775.05 569.299 794.05 568.3 797.05 569.7C797.25 569.8 799.25 570.799 799.05 571.099C798.05 572.599 791.95 568.099 791.25 567.599C788.45 565.299 780.15 550.3 784.85 549C787.05 548.4 792.05 549.4 795.15 551C798.65 553 804.45 558.4 806.45 560.5Z" fill="#F7F2EE"/>
<path opacity="0.9116" d="M806.45 560.5C806.25 557 813.05 539.999 816.15 539.399C819.25 538.699 824.25 553.499 824.95 556.599C825.15 557.599 825.35 558.599 825.35 559.599C825.35 559.999 824.95 561.099 825.35 560.899C825.65 560.799 826.25 558.5 826.35 558.2C827.75 555.4 843.45 543.799 846.25 545.799C853.95 551.399 843.65 569.299 843.65 569.399C843.75 569.599 845.25 569 845.45 569C847.05 568.6 849.05 568.699 850.65 568.799C853.75 569.099 862.95 571.599 864.25 574.899C865.95 579.299 857.55 588 854.55 588.7C853.95 588.9 845.95 589.7 846.15 590.2C846.35 591 852.05 592.499 852.85 592.899C855.65 594.499 863.85 605.099 862.25 608.799C860.85 611.999 847.25 611.5 844.65 610.7C844.15 610.5 839.15 608.399 838.85 608.799C838.05 609.999 841.65 614.2 842.15 615C844.25 618.5 847.65 630.7 842.45 633.5C837.75 636.1 830.05 625.999 828.95 622.599C828.35 620.699 828.65 614.7 827.25 613.2C827.15 613.1 827.25 613.399 827.25 613.599C827.55 616.299 827.65 621.1 826.95 623.7C826.15 626.9 818.35 635.799 815.25 636.599C815.05 636.599 814.45 635.199 814.45 635.099C812.25 630.499 811.35 625.699 811.15 620.599C811.15 620.399 811.05 615.399 810.95 615.399C810.85 615.399 807.05 622 806.55 622.5C803.25 625.8 787.55 630.4 785.75 626C784.65 623.2 794.55 607.599 798.05 607.599C798.75 607.599 796.65 607.699 795.85 607.599C794.45 607.499 793.05 607.399 791.65 607.099C787.05 606.099 777.15 605.6 775.95 600.7C774.55 595.2 788.55 589.8 790.65 589.7C791.75 589.7 794.45 590.899 793.95 589.899C793.45 588.899 787.05 587.199 785.85 586.399C780.55 582.999 774.15 579.899 774.65 573.799C775.05 569.299 794.05 568.3 797.05 569.7C797.25 569.8 799.25 570.799 799.05 571.099C798.05 572.599 791.95 568.099 791.25 567.599C788.45 565.299 780.15 550.3 784.85 549C787.05 548.4 792.05 549.4 795.15 551C798.65 553 804.45 558.4 806.45 560.5Z" stroke="black" stroke-width="4" stroke-miterlimit="10" stroke-linecap="round" stroke-linejoin="round"/>
<path fill-rule="evenodd" clip-rule="evenodd" d="M810.45 578.6C806.25 579.7 805.15 588 804.95 591.3C804.25 602.6 817.45 608.1 826.25 602.3C842.95 591.3 826.45 563.999 811.55 576.899" fill="#FABD14"/>
<path opacity="0.9116" d="M810.45 578.6C806.25 579.7 805.15 588 804.95 591.3C804.25 602.6 817.45 608.1 826.25 602.3C842.95 591.3 826.45 563.999 811.55 576.899" stroke="black" stroke-width="4" stroke-miterlimit="10" stroke-linecap="round" stroke-linejoin="round"/>
<path opacity="0.9116" d="M821.15 575.8C819.65 577.2 818.65 580.4 817.75 582.1C815.15 587 812.55 591.999 810.05 596.899" stroke="black" stroke-width="4" stroke-miterlimit="10" stroke-linecap="round" stroke-linejoin="round"/>
<path opacity="0.9116" d="M829.25 580.8C829.55 580.7 828.749 581.3 828.649 581.6C828.249 582.1 827.949 582.701 827.649 583.201C826.649 584.801 825.649 586.4 824.649 588C821.549 593 818.849 598.1 816.149 603.3" stroke="black" stroke-width="4" stroke-miterlimit="10" stroke-linecap="round" stroke-linejoin="round"/>
<path opacity="0.9116" d="M812.05 579.3C811.95 579.3 812.65 579.6 812.65 579.6C813.15 579.8 813.55 580 814.05 580.2C815.55 580.9 817.05 581.6 818.55 582.3C823.15 584.4 827.15 586.7 831.25 589.7" stroke="black" stroke-width="4" stroke-miterlimit="10" stroke-linecap="round" stroke-linejoin="round"/>
<path opacity="0.9116" d="M806.849 587.7C806.749 587.9 808.349 588.5 808.449 588.5C810.249 589.2 811.949 590.099 813.749 590.899C818.349 592.899 823.049 594.9 827.549 597.1" stroke="black" stroke-width="4" stroke-miterlimit="10" stroke-linecap="round" stroke-linejoin="round"/>
<path fill-rule="evenodd" clip-rule="evenodd" d="M939.051 665.5C943.851 662.1 947.751 657.5 950.151 652C951.751 648.2 951.551 643.6 949.051 640.3C937.551 624.8 914.851 640.3 900.351 639.4C893.051 638.9 910.951 622.8 897.151 619.6C874.351 614.3 865.051 628.8 863.351 633.7C861.451 639 858.251 649.5 867.851 659.1C872.751 664 876.651 666.3 884.351 667.8C887.151 668.3 889.851 668.7 891.951 669.2C897.351 670.3 904.251 670.6 909.951 671.9" fill="#F7F2EE"/>
<path d="M939.051 665.5C943.851 662.1 947.751 657.5 950.151 652C951.751 648.2 951.551 643.6 949.051 640.3C937.551 624.8 914.851 640.3 900.351 639.4C893.051 638.9 910.951 622.8 897.151 619.6C874.351 614.3 865.051 628.8 863.351 633.7C861.451 639 858.251 649.5 867.851 659.1C872.751 664 876.651 666.3 884.351 667.8C887.151 668.3 889.851 668.7 891.951 669.2C897.351 670.3 904.251 670.6 909.951 671.9" stroke="black" stroke-width="4" stroke-miterlimit="10" stroke-linecap="round" stroke-linejoin="round"/>
<path d="M890.551 624.6C890.551 624.6 890.251 624.6 890.151 624.6C889.051 624.7 888.051 625.5 887.351 626.2C884.651 628.8 883.451 634.8 888.251 636C894.951 637.7 896.351 626.4 890.951 625.1" stroke="black" stroke-width="4" stroke-miterlimit="10" stroke-linecap="round" stroke-linejoin="round"/>
<path d="M890.851 642.3C890.651 642.5 890.451 642 890.151 642C889.451 641.9 888.751 641.899 888.051 641.899C885.951 642.099 883.651 642.8 882.051 644.3C876.951 648.9 883.351 656.6 889.151 655.2C893.551 654.2 896.051 645 891.351 642.7" stroke="black" stroke-width="4" stroke-miterlimit="10" stroke-linecap="round" stroke-linejoin="round"/>
<path d="M970.05 728.6C973.25 744.1 975.55 759.2 981.05 774.2C982.85 779.1 985.05 785 988.85 788.9C1003.75 804.1 991.85 714.5 986.75 689.3C985.45 683 983.55 674.3 977.95 670.4C965.15 661.4 969.85 721.1 972.05 735.6" stroke="black" stroke-width="8" stroke-miterlimit="10" stroke-linecap="round" stroke-linejoin="round"/>
<path fill-rule="evenodd" clip-rule="evenodd" d="M991.951 797.7C992.151 797.7 991.651 797.799 991.551 797.899C989.151 799.999 987.351 803 985.851 805.7C984.251 808.4 975.551 830.099 979.151 831.899C979.651 832.099 980.951 830.4 981.151 830.1C986.751 823.7 990.851 815.5 992.751 807.7C993.851 803.3 993.551 796.7 992.451 798.7" fill="black"/>
<path d="M991.951 797.7C992.151 797.7 991.651 797.799 991.551 797.899C989.151 799.999 987.351 803 985.851 805.7C984.251 808.4 975.551 830.099 979.151 831.899C979.651 832.099 980.951 830.4 981.151 830.1C986.751 823.7 990.851 815.5 992.751 807.7C993.851 803.3 993.551 796.7 992.451 798.7" stroke="black" stroke-width="8" stroke-miterlimit="10" stroke-linecap="round" stroke-linejoin="round"/>
<path fill-rule="evenodd" clip-rule="evenodd" d="M999.05 785.4C998.85 785.1 986.35 786.2 986.35 786.6C986.25 787.8 986.25 789.001 986.55 790.201C987.15 793.601 991.65 803.701 995.45 804.201C1001.95 805.301 1005.45 787.1 999.05 785.4Z" fill="#F7F2EE"/>
<path d="M999.05 785.4C998.85 785.1 986.35 786.2 986.35 786.6C986.25 787.8 986.25 789.001 986.55 790.201C987.15 793.601 991.65 803.701 995.45 804.201C1001.95 805.301 1005.45 787.1 999.05 785.4Z" stroke="black" stroke-width="8" stroke-miterlimit="10" stroke-linecap="round" stroke-linejoin="round"/>
<path d="M997.45 782.799C997.75 783.699 998.45 781.1 998.85 780.2C1000.05 777.9 1001.15 775.5 1002.25 773.2C1003.85 769.7 1013.35 743.899 1016.75 745.099C1023.55 747.499 1004.05 778.299 1001.65 782.799" stroke="black" stroke-width="8" stroke-miterlimit="10" stroke-linecap="round" stroke-linejoin="round"/>
<path fill-rule="evenodd" clip-rule="evenodd" d="M929.55 605C934.55 611.5 930.15 625.1 933.25 629.7C933.35 629.9 934.15 629.699 934.35 629.599C939.65 628.699 944.95 628.499 950.25 627.899C952.55 627.599 953.55 626.7 953.95 625C955.85 617.3 955.15 587 934.35 595.5C932.05 596.4 930.25 597.999 929.85 599.899" fill="#F7F2EE"/>
<path d="M929.55 605C934.55 611.5 930.15 625.1 933.25 629.7C933.35 629.9 934.15 629.699 934.35 629.599C939.65 628.699 944.95 628.499 950.25 627.899C952.55 627.599 953.55 626.7 953.95 625C955.85 617.3 955.15 587 934.35 595.5C932.05 596.4 930.25 597.999 929.85 599.899" stroke="black" stroke-width="6" stroke-miterlimit="10" stroke-linecap="round" stroke-linejoin="round"/>
<path fill-rule="evenodd" clip-rule="evenodd" d="M940.351 616.4C940.451 615 928.751 619.4 928.051 619.9C926.651 620.9 925.451 622.1 924.351 623.4C922.751 625.3 921.451 627.401 920.251 629.701C916.251 637.401 895.151 695.7 904.351 701.4C905.851 702.4 907.251 697.2 907.451 696.6C908.751 691.4 910.151 673.301 905.551 673.201C900.751 673.101 896.151 672.8 894.451 673.1C892.351 673.5 892.551 677.901 891.751 684.201C890.151 696.801 891.051 716.4 901.251 719.5C903.551 720.2 905.951 719.5 908.451 717.9C924.051 707.5 941.851 658.2 932.551 656.3C924.351 654.7 926.151 699 920.651 715.5C914.051 735.4 909.051 745.5 892.051 767.9C866.451 801.5 819.451 808.901 794.051 859.701C793.551 860.701 790.551 870.5 791.751 871.6C794.351 874 812.651 867.8 816.051 866.6C839.751 858.5 870.151 862 895.251 864.8C930.451 868.6 968.851 905.001 972.351 887.201C974.351 876.901 973.351 838.5 977.851 823C989.251 783.4 991.451 756 993.951 733.8C997.451 701.9 1006.55 620.3 940.351 616.4Z" fill="#3E7AFF"/>
<path d="M940.351 616.4C940.451 615 928.751 619.4 928.051 619.9C926.651 620.9 925.451 622.1 924.351 623.4C922.751 625.3 921.451 627.401 920.251 629.701C916.251 637.401 895.151 695.7 904.351 701.4C905.851 702.4 907.251 697.2 907.451 696.6C908.751 691.4 910.151 673.301 905.551 673.201C900.751 673.101 896.151 672.8 894.451 673.1C892.351 673.5 892.551 677.901 891.751 684.201C890.151 696.801 891.051 716.4 901.251 719.5C903.551 720.2 905.951 719.5 908.451 717.9C924.051 707.5 941.851 658.2 932.551 656.3C924.351 654.7 926.151 699 920.651 715.5C914.051 735.4 909.051 745.5 892.051 767.9C866.451 801.5 819.451 808.901 794.051 859.701C793.551 860.701 790.551 870.5 791.751 871.6C794.351 874 812.651 867.8 816.051 866.6C839.751 858.5 870.151 862 895.251 864.8C930.451 868.6 968.851 905.001 972.351 887.201C974.351 876.901 973.351 838.5 977.851 823C989.251 783.4 991.451 756 993.951 733.8C997.451 701.9 1006.55 620.3 940.351 616.4Z" stroke="black" stroke-width="4" stroke-miterlimit="10" stroke-linecap="round" stroke-linejoin="round"/>
<path opacity="0.9116" d="M942.449 745.399C938.349 744.599 939.249 753.099 937.349 756.899C931.749 768.499 924.75 779.5 917.55 790.2C902.45 812.5 872.649 831.9 863.149 857.5" stroke="black" stroke-width="4" stroke-miterlimit="10" stroke-linecap="round" stroke-linejoin="round"/>
<path opacity="0.9116" d="M964.949 775C966.549 773.3 961.349 780.6 960.649 782C956.349 789.9 951.55 797.5 946.75 805C933.85 825.2 916.849 842.5 903.649 862.3" stroke="black" stroke-width="4" stroke-miterlimit="10" stroke-linecap="round" stroke-linejoin="round"/>
<path opacity="0.9116" d="M920.75 722.399C920.55 722.299 921.249 722.3 921.349 722.3C925.249 722.4 929.95 723.8 933.75 725" stroke="black" stroke-width="4" stroke-miterlimit="10" stroke-linecap="round" stroke-linejoin="round"/>
<path opacity="0.9116" d="M894.65 770.399C893.35 771.399 900.95 771.699 902.35 771.899C909.05 772.899 915.75 773.6 922.45 774.6C939.85 777 965.15 777.4 980.15 788.1" stroke="black" stroke-width="4" stroke-miterlimit="10" stroke-linecap="round" stroke-linejoin="round"/>
<path opacity="0.9116" d="M835.35 812.3C834.15 813.4 838.55 812.299 840.25 812.399C843.45 812.499 846.65 812.9 849.85 813.2C857.45 814 865.05 815 872.55 816C898.15 819.4 924.45 824.8 948.95 833.5" stroke="black" stroke-width="4" stroke-miterlimit="10" stroke-linecap="round" stroke-linejoin="round"/>
<path fill-rule="evenodd" clip-rule="evenodd" d="M920.85 571.2C922.45 574.3 917.85 591.199 919.25 597.399C921.65 607.699 928.45 607.5 934.85 600.3C940.85 593.5 944.45 583.3 942.75 574.2C941.05 565.3 928.65 563.2 923.35 570.3" fill="#F7F2EE"/>
<path d="M920.85 571.2C922.45 574.3 917.85 591.199 919.25 597.399C921.65 607.699 928.45 607.5 934.85 600.3C940.85 593.5 944.45 583.3 942.75 574.2C941.05 565.3 928.65 563.2 923.35 570.3" stroke="black" stroke-width="4" stroke-miterlimit="10" stroke-linecap="round" stroke-linejoin="round"/>
<path fill-rule="evenodd" clip-rule="evenodd" d="M940.45 556.799C940.65 556.699 940.15 557.1 940.05 557.2C937.25 561 935.65 565.899 934.15 570.299C932.45 575.499 930.95 581.5 930.75 587.5C930.55 593.6 931.55 599.699 934.85 604.799C940.75 613.899 956.85 618 963.15 626C967.75 631.8 958.95 642 958.15 646.2C956.75 654 961.15 653.399 975.05 651.299C980.65 650.399 985.75 652.1 986.05 658.5C986.75 675 970.95 690.7 968.55 707.2C968.45 708.2 967.65 713.999 970.15 713.399C977.85 711.499 1008.55 654.099 1009.25 643.099C1009.75 633.799 1001.85 627.099 1003.25 617.599C1004.95 605.199 1015.35 593.399 1008.55 580.799C1003.15 570.699 987.75 573.099 979.15 566.799C970.75 560.699 961.85 550.599 950.35 553.399" fill="#F7F2EE"/>
<path d="M940.45 556.799C940.65 556.699 940.15 557.1 940.05 557.2C937.25 561 935.65 565.899 934.15 570.299C932.45 575.499 930.95 581.5 930.75 587.5C930.55 593.6 931.55 599.699 934.85 604.799C940.75 613.899 956.85 618 963.15 626C967.75 631.8 958.95 642 958.15 646.2C956.75 654 961.15 653.399 975.05 651.299C980.65 650.399 985.75 652.1 986.05 658.5C986.75 675 970.95 690.7 968.55 707.2C968.45 708.2 967.65 713.999 970.15 713.399C977.85 711.499 1008.55 654.099 1009.25 643.099C1009.75 633.799 1001.85 627.099 1003.25 617.599C1004.95 605.199 1015.35 593.399 1008.55 580.799C1003.15 570.699 987.75 573.099 979.15 566.799C970.75 560.699 961.85 550.599 950.35 553.399" stroke="black" stroke-width="4" stroke-miterlimit="10" stroke-linecap="round" stroke-linejoin="round"/>
<path opacity="0.9116" d="M950.05 578.2C951.35 577.2 950.35 581.399 950.85 582.899C951.75 586.399 953.25 590 955.25 593C959.75 599.5 971.45 602.899 974.05 610.599" stroke="black" stroke-width="4" stroke-miterlimit="10" stroke-linecap="round" stroke-linejoin="round"/>
<path opacity="0.9116" d="M968.451 575.1C968.351 575.2 968.451 575.4 968.551 575.5C973.351 584.6 984.051 588.8 985.951 600" stroke="black" stroke-width="4" stroke-miterlimit="10" stroke-linecap="round" stroke-linejoin="round"/>
<path fill-rule="evenodd" clip-rule="evenodd" d="M944.949 529.8C944.849 529.8 941.749 529.799 940.149 530.099C937.149 530.599 934.149 531.6 931.349 533C924.949 536 916.549 542.7 913.449 550.3C911.249 555.6 911.749 561.3 917.149 566.5C926.649 575.6 941.749 578.1 953.749 578.8C988.749 580.7 989.549 550.2 971.749 536.2C965.049 530.9 955.849 527.9 944.949 529.8Z" fill="black"/>
<path d="M944.949 529.8C944.849 529.8 941.749 529.799 940.149 530.099C937.149 530.599 934.149 531.6 931.349 533C924.949 536 916.549 542.7 913.449 550.3C911.249 555.6 911.749 561.3 917.149 566.5C926.649 575.6 941.749 578.1 953.749 578.8C988.749 580.7 989.549 550.2 971.749 536.2C965.049 530.9 955.849 527.9 944.949 529.8Z" stroke="black" stroke-width="4" stroke-miterlimit="10" stroke-linecap="round" stroke-linejoin="round"/>
<path opacity="0.9116" d="M932.05 548.899H931.95" stroke="#F7F2EE" stroke-width="4" stroke-miterlimit="10" stroke-linecap="round" stroke-linejoin="round"/>
<path opacity="0.9116" d="M965.251 554C965.351 554.2 965.251 554.4 965.351 554.7" stroke="#F7F2EE" stroke-width="4" stroke-miterlimit="10" stroke-linecap="round" stroke-linejoin="round"/>
<path opacity="0.9116" d="M956.351 539.8C956.351 539.9 956.351 539.9 956.351 539.8" stroke="#F7F2EE" stroke-width="4" stroke-miterlimit="10" stroke-linecap="round" stroke-linejoin="round"/>
<path opacity="0.9116" d="M944.251 557.8C944.351 557.8 944.351 557.8 944.251 557.8" stroke="#F7F2EE" stroke-width="4" stroke-miterlimit="10" stroke-linecap="round" stroke-linejoin="round"/>
<path opacity="0.9116" d="M958.751 569.6C958.751 569.7 958.751 569.7 958.751 569.6" stroke="#F7F2EE" stroke-width="4" stroke-miterlimit="10" stroke-linecap="round" stroke-linejoin="round"/>
<path opacity="0.9116" d="M976.851 565.899C976.951 565.799 976.851 565.799 976.851 565.899" stroke="#F7F2EE" stroke-width="4" stroke-miterlimit="10" stroke-linecap="round" stroke-linejoin="round"/>
<path fill-rule="evenodd" clip-rule="evenodd" d="M959.35 523.4C958.75 523.5 953.35 526.7 953.45 526.4C954.05 523.6 955.35 520 957.85 517.9C964.05 512.5 971.55 513.9 959.35 523.4Z" fill="black"/>
<path d="M959.35 523.4C958.75 523.5 953.35 526.7 953.45 526.4C954.05 523.6 955.35 520 957.85 517.9C964.05 512.5 971.55 513.9 959.35 523.4Z" stroke="black" stroke-width="4" stroke-miterlimit="10" stroke-linecap="round" stroke-linejoin="round"/>
<path fill-rule="evenodd" clip-rule="evenodd" d="M1020.25 684C1028.25 678.2 1034.95 670.6 1038.95 661.3C1041.75 654.9 1041.25 647.299 1037.05 641.599C1017.85 615.599 979.651 641.599 955.251 640.099C942.951 639.299 972.951 612.1 949.851 606.8C911.651 598 887.051 622.6 884.051 630.8C880.851 639.7 875.451 657.3 891.651 673.5C899.951 681.8 915.351 685.4 928.351 687.7C933.151 688.6 937.551 689.3 941.151 690C950.251 691.8 961.851 692.299 971.251 694.599" fill="#F7F2EE"/>
<path d="M1020.25 684C1028.25 678.2 1034.95 670.6 1038.95 661.3C1041.75 654.9 1041.25 647.299 1037.05 641.599C1017.85 615.599 979.651 641.599 955.251 640.099C942.951 639.299 972.951 612.1 949.851 606.8C911.651 598 887.051 622.6 884.051 630.8C880.851 639.7 875.451 657.3 891.651 673.5C899.951 681.8 915.351 685.4 928.351 687.7C933.151 688.6 937.551 689.3 941.151 690C950.251 691.8 961.851 692.299 971.251 694.599" stroke="black" stroke-width="6" stroke-miterlimit="10" stroke-linecap="round" stroke-linejoin="round"/>
<path d="M938.85 615.299C938.85 615.199 938.25 615.299 938.25 615.299C936.45 615.499 934.75 616.8 933.55 618C929.05 622.3 927.05 632.399 935.05 634.399C946.35 637.199 948.55 618.199 939.55 616.099" stroke="black" stroke-width="4" stroke-miterlimit="10" stroke-linecap="round" stroke-linejoin="round"/>
<path fill-rule="evenodd" clip-rule="evenodd" d="M915.55 622.1C915.35 622.3 915.05 621.9 914.75 621.8C913.85 621.7 912.85 621.8 911.95 622C909.55 622.6 907.35 623.9 905.55 625.6C898.15 632.9 907.45 643.7 916.15 639.1C921.35 636.3 924.15 624.2 916.55 622.4" fill="black"/>
<path d="M915.55 622.1C915.35 622.3 915.05 621.9 914.75 621.8C913.85 621.7 912.85 621.8 911.95 622C909.55 622.6 907.35 623.9 905.55 625.6C898.15 632.9 907.45 643.7 916.15 639.1C921.35 636.3 924.15 624.2 916.55 622.4" stroke="black" stroke-width="4" stroke-miterlimit="10" stroke-linecap="round" stroke-linejoin="round"/>
<path d="M903.15 646.399C900.95 647.799 898.75 648.1 896.85 650.7C892.05 657.2 895.45 669.599 904.95 666.399C912.15 663.999 911.85 650.7 905.75 647.2" stroke="black" stroke-width="4" stroke-miterlimit="10" stroke-linecap="round" stroke-linejoin="round"/>
<path d="M939.351 644.899C939.051 645.199 938.651 644.399 938.251 644.299C937.051 643.999 935.851 644.1 934.651 644.2C931.051 644.6 927.351 645.7 924.651 648.2C916.051 656 926.851 668.899 936.551 666.599C944.051 664.899 948.151 649.5 940.251 645.7" stroke="black" stroke-width="4" stroke-miterlimit="10" stroke-linecap="round" stroke-linejoin="round"/>
<path d="M1072.25 786.8C1077.55 812.7 1081.55 838.1 1090.75 863.4C1093.75 871.7 1097.45 881.6 1103.85 888.1C1128.85 913.6 1108.85 763.2 1100.25 720.9C1098.15 710.3 1094.85 695.7 1085.35 689.1C1063.75 674 1071.85 774.3 1075.55 798.5" stroke="black" stroke-width="8" stroke-miterlimit="10" stroke-linecap="round" stroke-linejoin="round"/>
<path fill-rule="evenodd" clip-rule="evenodd" d="M1109.05 902.899C1109.35 902.899 1108.55 903.1 1108.35 903.2C1104.25 906.7 1101.35 911.8 1098.75 916.3C1096.05 920.9 1081.45 957.4 1087.45 960.3C1088.25 960.7 1090.45 957.7 1090.75 957.3C1100.05 946.6 1106.95 932.9 1110.15 919.7C1111.95 912.2 1111.55 901.2 1109.65 904.6" fill="black"/>
<path d="M1109.05 902.899C1109.35 902.899 1108.55 903.1 1108.35 903.2C1104.25 906.7 1101.35 911.8 1098.75 916.3C1096.05 920.9 1081.45 957.4 1087.45 960.3C1088.25 960.7 1090.45 957.7 1090.75 957.3C1100.05 946.6 1106.95 932.9 1110.15 919.7C1111.95 912.2 1111.55 901.2 1109.65 904.6" stroke="black" stroke-width="8" stroke-miterlimit="10" stroke-linecap="round" stroke-linejoin="round"/>
<path fill-rule="evenodd" clip-rule="evenodd" d="M1120.95 882.3C1120.55 881.7 1099.65 883.6 1099.65 884.3C1099.45 886.4 1099.55 888.3 1099.95 890.4C1100.95 896.2 1108.55 913 1114.85 914C1125.95 915.8 1131.85 885.2 1120.95 882.3Z" fill="#F7F2EE"/>
<path d="M1120.95 882.3C1120.55 881.7 1099.65 883.6 1099.65 884.3C1099.45 886.4 1099.55 888.3 1099.95 890.4C1100.95 896.2 1108.55 913 1114.85 914C1125.95 915.8 1131.85 885.2 1120.95 882.3Z" stroke="black" stroke-width="8" stroke-miterlimit="10" stroke-linecap="round" stroke-linejoin="round"/>
<path d="M1118.25 877.899C1118.75 879.499 1119.85 874.999 1120.65 873.599C1122.75 869.699 1124.55 865.799 1126.35 861.799C1128.95 855.999 1144.95 812.599 1150.75 814.599C1162.15 818.599 1129.55 870.399 1125.45 877.799" stroke="black" stroke-width="8" stroke-miterlimit="10" stroke-linecap="round" stroke-linejoin="round"/>
<path fill-rule="evenodd" clip-rule="evenodd" d="M1004.25 579.3C1012.75 590.2 1005.35 613.1 1010.45 620.7C1010.65 621 1011.95 620.7 1012.25 620.6C1021.15 619.2 1030.15 618.8 1039.05 617.7C1042.95 617.2 1044.55 615.699 1045.25 612.899C1048.35 599.999 1047.15 549 1012.35 563.3C1008.45 564.9 1005.55 567.4 1004.75 570.7" fill="#F7F2EE"/>
<path d="M1004.25 579.3C1012.75 590.2 1005.35 613.1 1010.45 620.7C1010.65 621 1011.95 620.7 1012.25 620.6C1021.15 619.2 1030.15 618.8 1039.05 617.7C1042.95 617.2 1044.55 615.699 1045.25 612.899C1048.35 599.999 1047.15 549 1012.35 563.3C1008.45 564.9 1005.55 567.4 1004.75 570.7" stroke="black" stroke-width="6" stroke-miterlimit="10" stroke-linecap="round" stroke-linejoin="round"/>
<path fill-rule="evenodd" clip-rule="evenodd" d="M1022.45 598.5C1022.65 596.1 1003.05 603.5 1001.75 604.3C999.451 605.9 997.351 607.9 995.551 610.1C992.851 613.3 990.651 616.9 988.751 620.6C982.051 633.6 946.651 731.5 962.051 741C964.651 742.6 966.95 733.9 967.15 732.9C969.45 724.1 971.651 693.8 963.951 693.5C955.851 693.3 948.251 692.9 945.251 693.4C941.751 694 942.051 701.5 940.751 712C938.051 733.2 939.551 766.1 956.751 771.3C960.551 772.5 964.65 771.3 968.85 768.6C995.15 751.2 1024.95 668.3 1009.35 665.2C995.55 662.5 998.551 736.9 989.251 764.6C978.151 798 969.851 815.1 941.251 852.6C898.251 909.1 819.35 921.4 776.65 1006.7C775.85 1008.3 770.85 1024.9 772.85 1026.8C777.15 1030.8 808.05 1020.3 813.65 1018.4C853.45 1004.7 904.45 1010.7 946.65 1015.3C1005.65 1021.7 1070.25 1082.8 1076.15 1052.9C1079.55 1035.6 1077.85 971.2 1085.35 945C1104.45 878.5 1108.15 832.5 1112.35 795.2C1118.35 742 1133.75 605 1022.45 598.5Z" fill="#3E7AFF"/>
<path d="M1022.45 598.5C1022.65 596.1 1003.05 603.5 1001.75 604.3C999.451 605.9 997.351 607.9 995.551 610.1C992.851 613.3 990.651 616.9 988.751 620.6C982.051 633.6 946.651 731.5 962.051 741C964.651 742.6 966.95 733.9 967.15 732.9C969.45 724.1 971.651 693.8 963.951 693.5C955.851 693.3 948.251 692.9 945.251 693.4C941.751 694 942.051 701.5 940.751 712C938.051 733.2 939.551 766.1 956.751 771.3C960.551 772.5 964.65 771.3 968.85 768.6C995.15 751.2 1024.95 668.3 1009.35 665.2C995.55 662.5 998.551 736.9 989.251 764.6C978.151 798 969.851 815.1 941.251 852.6C898.251 909.1 819.35 921.4 776.65 1006.7C775.85 1008.3 770.85 1024.9 772.85 1026.8C777.15 1030.8 808.05 1020.3 813.65 1018.4C853.45 1004.7 904.45 1010.7 946.65 1015.3C1005.65 1021.7 1070.25 1082.8 1076.15 1052.9C1079.55 1035.6 1077.85 971.2 1085.35 945C1104.45 878.5 1108.15 832.5 1112.35 795.2C1118.35 742 1133.75 605 1022.45 598.5Z" stroke="black" stroke-width="6" stroke-miterlimit="10" stroke-linecap="round" stroke-linejoin="round"/>
<path opacity="0.9116" d="M1023.95 775.7C1023.65 775.6 1021.55 782.4 1021.35 782.9C1018.85 790.5 1016.25 798 1013.45 805.4C1004.95 828.1 996.851 851 986.051 872.7C970.751 903.6 950.151 931 924.851 954.3C907.051 970.7 887.451 984.3 873.351 1004.3" stroke="black" stroke-width="4" stroke-miterlimit="10" stroke-linecap="round" stroke-linejoin="round"/>
<path opacity="0.9116" d="M1047.75 855.6C1047.85 855.3 1047.45 856.1 1047.35 856.3C1044.85 862.6 1042.45 869 1039.65 875.2C1034.15 887.1 1027.75 898.6 1021.55 910.2C1003.15 944.6 976.249 973.4 957.649 1007.4" stroke="black" stroke-width="4" stroke-miterlimit="10" stroke-linecap="round" stroke-linejoin="round"/>
<path opacity="0.9116" d="M994.45 761.701C994.45 760.601 1020.45 763.801 1022.85 764.201" stroke="black" stroke-width="4" stroke-miterlimit="10" stroke-linecap="round" stroke-linejoin="round"/>
<path opacity="0.9116" d="M966.25 821.399C964.75 821.299 969.25 820.8 970.75 820.7C975.95 820.2 981.25 820.2 986.45 820.5C999.05 821.2 1012.35 822.999 1024.05 828.099" stroke="black" stroke-width="4" stroke-miterlimit="10" stroke-linecap="round" stroke-linejoin="round"/>
<path opacity="0.9116" d="M1083.95 847.399C1081.35 845.999 1089.85 848 1092.65 848.8" stroke="black" stroke-width="4" stroke-miterlimit="10" stroke-linecap="round" stroke-linejoin="round"/>
<path opacity="0.9116" d="M886.851 899.2C887.351 896.9 904.851 898.1 906.451 898.2C957.351 899.1 1011.95 904.2 1057.75 927.9" stroke="black" stroke-width="4" stroke-miterlimit="10" stroke-linecap="round" stroke-linejoin="round"/>
<path fill-rule="evenodd" clip-rule="evenodd" d="M989.85 522.6C992.45 527.8 984.85 556.2 987.15 566.6C991.15 583.9 1002.55 583.6 1013.25 571.4C1023.35 560 1029.45 542.9 1026.55 527.6C1023.75 512.7 1002.85 509.1 994.05 521" fill="#F7F2EE"/>
<path d="M989.85 522.6C992.45 527.8 984.85 556.2 987.15 566.6C991.15 583.9 1002.55 583.6 1013.25 571.4C1023.35 560 1029.45 542.9 1026.55 527.6C1023.75 512.7 1002.85 509.1 994.05 521" stroke="black" stroke-width="6" stroke-miterlimit="10" stroke-linecap="round" stroke-linejoin="round"/>
<path fill-rule="evenodd" clip-rule="evenodd" d="M1022.65 498.4C1022.95 498.3 1022.15 498.8 1021.85 499.1C1017.05 505.5 1014.35 513.6 1011.95 521.2C1006.05 539.1 1002.15 562.2 1013.15 579.1C1023.15 594.4 1050.15 601.2 1060.75 614.7C1068.45 624.5 1053.65 641.5 1052.35 648.6C1049.95 661.6 1057.35 660.7 1080.75 657.1C1090.15 655.7 1098.75 658.4 1099.15 669.2C1100.35 696.8 1073.85 723.2 1069.65 751C1069.45 752.7 1068.05 762.5 1072.25 761.4C1085.15 758.3 1136.75 661.9 1137.85 643.3C1138.75 627.7 1125.55 616.3 1127.75 600.5C1130.65 579.7 1148.05 559.9 1136.55 538.7C1127.45 521.8 1101.65 525.8 1087.15 515.2C1073.15 504.9 1058.05 488 1038.75 492.7" fill="#F7F2EE"/>
<path d="M1022.65 498.4C1022.95 498.3 1022.15 498.8 1021.85 499.1C1017.05 505.5 1014.35 513.6 1011.95 521.2C1006.05 539.1 1002.15 562.2 1013.15 579.1C1023.15 594.4 1050.15 601.2 1060.75 614.7C1068.45 624.5 1053.65 641.5 1052.35 648.6C1049.95 661.6 1057.35 660.7 1080.75 657.1C1090.15 655.7 1098.75 658.4 1099.15 669.2C1100.35 696.8 1073.85 723.2 1069.65 751C1069.45 752.7 1068.05 762.5 1072.25 761.4C1085.15 758.3 1136.75 661.9 1137.85 643.3C1138.75 627.7 1125.55 616.3 1127.75 600.5C1130.65 579.7 1148.05 559.9 1136.55 538.7C1127.45 521.8 1101.65 525.8 1087.15 515.2C1073.15 504.9 1058.05 488 1038.75 492.7" stroke="black" stroke-width="6" stroke-miterlimit="10" stroke-linecap="round" stroke-linejoin="round"/>
<path opacity="0.9116" d="M1042.45 536.5C1042.95 535.2 1041.85 539.2 1041.55 540.6C1041.05 543 1040.65 545.5 1040.45 548C1039.85 556 1039.85 565 1043.75 572.3C1050.65 585.1 1067.45 585.501 1074.95 597.701C1085.45 614.701 1062.05 634.9 1088.65 641.5" stroke="black" stroke-width="4" stroke-miterlimit="10" stroke-linecap="round" stroke-linejoin="round"/>
<path opacity="0.9116" d="M1074.65 533.6C1074.65 533.6 1074.55 534.6 1074.55 534.7C1074.45 543.1 1076.45 552.4 1081.75 559.1C1094.15 574.8 1113.35 581.1 1105.45 605.6" stroke="black" stroke-width="4" stroke-miterlimit="10" stroke-linecap="round" stroke-linejoin="round"/>
<path d="M1029.55 462.3C1029.55 462.3 1029.55 462.4 1029.55 462.3" stroke="black" stroke-width="8" stroke-miterlimit="10" stroke-linecap="round" stroke-linejoin="round"/>
<path fill-rule="evenodd" clip-rule="evenodd" d="M1030.15 462.599C1030.05 462.599 1024.75 462.6 1022.05 463C1016.95 463.8 1012.05 465.3 1007.35 467.2C989.151 474.9 961.151 498.099 983.451 516.899C999.451 530.399 1024.75 534.199 1044.95 535.099C1125.75 538.999 1097.85 452.399 1030.15 462.599Z" fill="black"/>
<path d="M1030.15 462.599C1030.05 462.599 1024.75 462.6 1022.05 463C1016.95 463.8 1012.05 465.3 1007.35 467.2C989.151 474.9 961.151 498.099 983.451 516.899C999.451 530.399 1024.75 534.199 1044.95 535.099C1125.75 538.999 1097.85 452.399 1030.15 462.599Z" stroke="black" stroke-width="6" stroke-miterlimit="10" stroke-linecap="round" stroke-linejoin="round"/>
<path opacity="0.9116" d="M999.15 485.3C999.15 485.3 999.05 485.299 999.05 485.399" stroke="#F7F2EE" stroke-width="4" stroke-miterlimit="10" stroke-linecap="round" stroke-linejoin="round"/>
<path opacity="0.9116" d="M1038.85 483.8C1038.85 483.7 1038.95 483.7 1038.95 483.7" stroke="#F7F2EE" stroke-width="4" stroke-miterlimit="10" stroke-linecap="round" stroke-linejoin="round"/>
<path opacity="0.9116" d="M1032.05 473.899L1032.15 473.8" stroke="#F7F2EE" stroke-width="4" stroke-miterlimit="10" stroke-linecap="round" stroke-linejoin="round"/>
<path opacity="0.9116" d="M1014.85 493.1H1014.95" stroke="#F7F2EE" stroke-width="4" stroke-miterlimit="10" stroke-linecap="round" stroke-linejoin="round"/>
<path opacity="0.9116" d="M1048.25 507.8C1048.25 507.8 1048.35 507.899 1048.45 507.899" stroke="#F7F2EE" stroke-width="4" stroke-miterlimit="10" stroke-linecap="round" stroke-linejoin="round"/>
<path opacity="0.9116" d="M1059.55 476.7C1059.55 476.7 1059.45 476.7 1059.55 476.7" stroke="#F7F2EE" stroke-width="4" stroke-miterlimit="10" stroke-linecap="round" stroke-linejoin="round"/>
<path opacity="0.9116" d="M1069.95 504.399C1070.05 504.399 1070.35 504.799 1070.45 504.899" stroke="#F7F2EE" stroke-width="4" stroke-miterlimit="10" stroke-linecap="round" stroke-linejoin="round"/>
<path opacity="0.9116" d="M1064.05 527V527.1" stroke="#F7F2EE" stroke-width="4" stroke-miterlimit="10" stroke-linecap="round" stroke-linejoin="round"/>
<path opacity="0.9116" d="M1022.55 519.7C1022.55 519.8 1022.55 519.799 1022.45 519.899" stroke="#F7F2EE" stroke-width="4" stroke-miterlimit="10" stroke-linecap="round" stroke-linejoin="round"/>
<path opacity="0.9116" d="M1040.85 492.6C1040.95 492.6 1040.95 492.6 1041.05 492.7" stroke="#F7F2EE" stroke-width="4" stroke-miterlimit="10" stroke-linecap="round" stroke-linejoin="round"/>
<path opacity="0.9116" d="M1001.05 510.399V510.5" stroke="#F7F2EE" stroke-width="4" stroke-miterlimit="10" stroke-linecap="round" stroke-linejoin="round"/>
<path fill-rule="evenodd" clip-rule="evenodd" d="M1032.55 457.8C1031.65 457.7 1033.35 453.2 1033.55 452.8C1035.15 448.9 1038.05 444.2 1042.15 442C1052.55 436.4 1052.65 448.5 1032.55 457.8Z" fill="black"/>
<path d="M1032.55 457.8C1031.65 457.7 1033.35 453.2 1033.55 452.8C1035.15 448.9 1038.05 444.2 1042.15 442C1052.55 436.4 1052.65 448.5 1032.55 457.8Z" stroke="black" stroke-width="6" stroke-miterlimit="10" stroke-linecap="round" stroke-linejoin="round"/>
<path fill-rule="evenodd" clip-rule="evenodd" d="M1154.25 725.9C1166.75 717 1177.05 705 1183.25 690.7C1187.55 680.7 1186.85 668.9 1180.35 660C1150.45 619.5 1091.05 660 1053.15 657.7C1043.75 657.1 1050.35 646.5 1055.15 634.9C1060.05 623 1062.95 610.2 1044.75 606C985.351 592.3 947.051 630.5 942.551 643.3C937.551 657.2 929.251 684.5 954.351 709.6C967.251 722.5 991.251 728 1011.35 731.7C1018.75 733.1 1025.65 734.2 1031.25 735.3C1045.45 738.1 1063.35 738.8 1078.15 742.4" fill="#F7F2EE"/>
<path d="M1154.25 725.9C1166.75 717 1177.05 705 1183.25 690.7C1187.55 680.7 1186.85 668.9 1180.35 660C1150.45 619.5 1091.05 660 1053.15 657.7C1043.75 657.1 1050.35 646.5 1055.15 634.9C1060.05 623 1062.95 610.2 1044.75 606C985.351 592.3 947.051 630.5 942.551 643.3C937.551 657.2 929.251 684.5 954.351 709.6C967.251 722.5 991.251 728 1011.35 731.7C1018.75 733.1 1025.65 734.2 1031.25 735.3C1045.45 738.1 1063.35 738.8 1078.15 742.4" stroke="black" stroke-width="8" stroke-miterlimit="10" stroke-linecap="round" stroke-linejoin="round"/>
<path d="M1027.75 619.099C1027.75 618.999 1026.85 619.099 1026.85 619.099C1024.05 619.399 1021.45 621.399 1019.55 623.299C1012.55 630.099 1009.45 645.699 1021.95 648.799C1039.55 653.199 1042.95 623.699 1028.85 620.299" stroke="black" stroke-width="4" stroke-miterlimit="10" stroke-linecap="round" stroke-linejoin="round"/>
<path d="M991.45 629.7C991.15 630.1 990.65 629.3 990.15 629.3C988.75 629.2 987.25 629.3 985.85 629.7C982.15 630.6 978.65 632.7 975.95 635.3C964.55 646.7 978.95 663.4 992.45 656.2C1000.55 651.9 1004.85 633 993.05 630.3" stroke="black" stroke-width="4" stroke-miterlimit="10" stroke-linecap="round" stroke-linejoin="round"/>
<path fill-rule="evenodd" clip-rule="evenodd" d="M972.25 667.5C968.75 669.6 965.45 670.1 962.55 674.1C955.15 684.2 960.35 703.4 975.15 698.5C986.35 694.7 985.85 674.2 976.45 668.6" fill="black"/>
<path d="M972.25 667.5C968.75 669.6 965.45 670.1 962.55 674.1C955.15 684.2 960.35 703.4 975.15 698.5C986.35 694.7 985.85 674.2 976.45 668.6" stroke="black" stroke-width="4" stroke-miterlimit="10" stroke-linecap="round" stroke-linejoin="round"/>
<path d="M1028.45 665.2C1028.05 665.7 1027.35 664.499 1026.75 664.299C1024.95 663.899 1023.05 663.999 1021.25 664.099C1015.65 664.699 1009.85 666.499 1005.65 670.299C992.25 682.399 1009.05 702.399 1024.25 698.899C1035.85 696.199 1042.35 672.299 1030.05 666.299" stroke="black" stroke-width="4" stroke-miterlimit="10" stroke-linecap="round" stroke-linejoin="round"/>
<path fill-rule="evenodd" clip-rule="evenodd" d="M1229.35 883.299C1237.65 923.599 1243.75 963.099 1258.05 1002.3C1262.75 1015.2 1268.55 1030.6 1278.35 1040.6C1317.15 1080.2 1286.05 846.4 1272.85 780.7C1269.55 764.3 1264.45 741.599 1249.75 731.299C1216.25 707.799 1228.75 863.699 1234.45 901.399" fill="#3E63FF"/>
<path d="M1229.35 883.299C1237.65 923.599 1243.75 963.099 1258.05 1002.3C1262.75 1015.2 1268.55 1030.6 1278.35 1040.6C1317.15 1080.2 1286.05 846.4 1272.85 780.7C1269.55 764.3 1264.45 741.599 1249.75 731.299C1216.25 707.799 1228.75 863.699 1234.45 901.399" stroke="black" stroke-width="8" stroke-miterlimit="10" stroke-linecap="round" stroke-linejoin="round"/>
<path fill-rule="evenodd" clip-rule="evenodd" d="M1305.05 1031.8C1304.45 1030.9 1272.05 1033.9 1271.95 1034.9C1271.75 1038.1 1271.85 1041.2 1272.35 1044.4C1273.95 1053.4 1285.75 1079.5 1295.55 1081.1C1312.85 1083.8 1322.05 1036.3 1305.05 1031.8Z" fill="#F7F2EE"/>
<path d="M1305.05 1031.8C1304.45 1030.9 1272.05 1033.9 1271.95 1034.9C1271.75 1038.1 1271.85 1041.2 1272.35 1044.4C1273.95 1053.4 1285.75 1079.5 1295.55 1081.1C1312.85 1083.8 1322.05 1036.3 1305.05 1031.8Z" stroke="black" stroke-width="8" stroke-miterlimit="10" stroke-linecap="round" stroke-linejoin="round"/>
<path d="M1300.85 1024.9C1301.75 1027.3 1303.35 1020.4 1304.55 1018.2C1307.75 1012.2 1310.65 1006 1313.45 999.9C1317.55 990.9 1342.45 923.5 1351.35 926.6C1369.15 932.8 1318.35 1013.3 1311.95 1024.9" stroke="black" stroke-width="8" stroke-miterlimit="10" stroke-linecap="round" stroke-linejoin="round"/>
<path fill-rule="evenodd" clip-rule="evenodd" d="M1123.65 560.799C1126.75 564.799 1128.45 569.799 1129.45 575.299C1132.45 593.199 1127.15 616.1 1133.25 625.2C1133.55 625.7 1135.65 625.099 1136.05 625.099C1149.85 622.899 1163.85 622.299 1177.65 620.599C1183.75 619.899 1186.25 617.499 1187.35 613.099C1192.15 592.999 1190.35 513.8 1136.25 536C1130.25 538.5 1125.65 542.4 1124.45 547.5" fill="#F7F2EE"/>
<path d="M1123.65 560.799C1126.75 564.799 1128.45 569.799 1129.45 575.299C1132.45 593.199 1127.15 616.1 1133.25 625.2C1133.55 625.7 1135.65 625.099 1136.05 625.099C1149.85 622.899 1163.85 622.299 1177.65 620.599C1183.75 619.899 1186.25 617.499 1187.35 613.099C1192.15 592.999 1190.35 513.8 1136.25 536C1130.25 538.5 1125.65 542.4 1124.45 547.5" stroke="black" stroke-width="8" stroke-miterlimit="10" stroke-linecap="round" stroke-linejoin="round"/>
<path fill-rule="evenodd" clip-rule="evenodd" d="M1151.95 590.5C1152.25 586.8 1121.75 598.199 1119.85 599.599C1116.25 602.099 1112.95 605.199 1110.15 608.599C1105.95 613.599 1102.55 619.2 1099.55 625C1089.15 645.1 1034.05 797.4 1057.95 812.2C1061.95 814.7 1065.55 801.199 1065.95 799.599C1069.45 785.999 1073.05 738.699 1060.95 738.399C1048.45 738.099 1036.45 737.4 1031.95 738.3C1026.45 739.3 1027.05 750.8 1024.95 767.3C1020.65 800.3 1023.15 851.5 1049.75 859.5C1092.75 872.6 1139.45 688.5 1129.65 715.5C1123.75 731.8 1114.65 805.999 1100.35 849.099C1083.05 901.099 1070.15 927.499 1025.65 985.899C958.751 1073.7 836.151 1092.8 769.851 1225.5C768.551 1228 760.751 1253.7 763.951 1256.7C770.651 1263 818.651 1246.7 827.351 1243.7C889.151 1222.4 968.551 1231.8 1034.05 1238.9C1125.85 1248.9 1237.05 1335 1246.25 1288.6C1251.55 1261.7 1249.75 1177.5 1250.95 1135.3C1253.15 1058.3 1235.15 962.7 1241.65 904.8C1251.05 821.7 1324.85 600.7 1151.95 590.5Z" fill="#3E7AFF"/>
<path d="M1151.95 590.5C1152.25 586.8 1121.75 598.199 1119.85 599.599C1116.25 602.099 1112.95 605.199 1110.15 608.599C1105.95 613.599 1102.55 619.2 1099.55 625C1089.15 645.1 1034.05 797.4 1057.95 812.2C1061.95 814.7 1065.55 801.199 1065.95 799.599C1069.45 785.999 1073.05 738.699 1060.95 738.399C1048.45 738.099 1036.45 737.4 1031.95 738.3C1026.45 739.3 1027.05 750.8 1024.95 767.3C1020.65 800.3 1023.15 851.5 1049.75 859.5C1092.75 872.6 1139.45 688.5 1129.65 715.5C1123.75 731.8 1114.65 805.999 1100.35 849.099C1083.05 901.099 1070.15 927.499 1025.65 985.899C958.751 1073.7 836.151 1092.8 769.851 1225.5C768.551 1228 760.751 1253.7 763.951 1256.7C770.651 1263 818.651 1246.7 827.351 1243.7C889.151 1222.4 968.551 1231.8 1034.05 1238.9C1125.85 1248.9 1237.05 1335 1246.25 1288.6C1251.55 1261.7 1249.75 1177.5 1250.95 1135.3C1253.15 1058.3 1235.15 962.7 1241.65 904.8C1251.05 821.7 1324.85 600.7 1151.95 590.5Z" stroke="black" stroke-width="8" stroke-miterlimit="10" stroke-linecap="round" stroke-linejoin="round"/>
<path opacity="0.9116" d="M1091.35 651.5C1088.35 648.2 1099.85 648.799 1104.15 647.399C1113.25 644.599 1122.75 642.5 1132.05 640.6C1148.35 637.3 1216.25 635.399 1226.45 655.899" stroke="black" stroke-width="4" stroke-miterlimit="10" stroke-linecap="round" stroke-linejoin="round"/>
<path opacity="0.9116" d="M1078.45 698.1C1085.15 694.7 1122.55 689.6 1157.65 696.1C1202.95 704.5 1248.35 726 1259.25 730" stroke="black" stroke-width="4" stroke-miterlimit="10" stroke-linecap="round" stroke-linejoin="round"/>
<path opacity="0.9116" d="M1119.35 784C1117.15 780.3 1127.95 784.5 1132.25 784.9C1143.35 786 1154.45 787.4 1165.45 789C1195.65 793.5 1223.65 802.2 1252.55 811.5" stroke="black" stroke-width="4" stroke-miterlimit="10" stroke-linecap="round" stroke-linejoin="round"/>
<path opacity="0.9116" d="M1093.05 882.8C1092.55 883.6 1094.95 883 1095.85 883.2C1110.95 886.1 1125.85 889.8 1140.75 893.3C1174.35 901.1 1207.25 908.8 1237.05 926.3" stroke="black" stroke-width="4" stroke-miterlimit="10" stroke-linecap="round" stroke-linejoin="round"/>
<path opacity="0.9116" d="M1025.65 991.399C1025.75 992.099 1032.35 992 1032.95 992C1052.45 993.8 1071.85 996.6 1091.25 999.6C1143.55 1007.6 1210.05 1022.3 1244.45 1067.3" stroke="black" stroke-width="4" stroke-miterlimit="10" stroke-linecap="round" stroke-linejoin="round"/>
<path opacity="0.9116" d="M902.851 1090C902.451 1090.6 904.151 1090.7 904.551 1090.7C917.451 1091.5 930.651 1090.9 943.551 1091.1C970.251 1091.6 996.651 1092.3 1023.25 1095.2C1105.15 1104.1 1187.25 1131.5 1248.05 1189.2" stroke="black" stroke-width="4" stroke-miterlimit="10" stroke-linecap="round" stroke-linejoin="round"/>
<path opacity="0.9116" d="M1159.45 597.9C1160.15 597.6 1166.65 618.6 1166.95 619.5C1170.85 633.4 1173.45 647.7 1175.15 662C1179.95 702.5 1174.65 742.8 1167.35 782.7C1154.85 851.3 1141.45 927.8 1100.15 985.8C1041.65 1068 949.75 1124.7 918.05 1224.3" stroke="black" stroke-width="4" stroke-miterlimit="10" stroke-linecap="round" stroke-linejoin="round"/>
<path opacity="0.9116" d="M1229.75 689.5C1230.35 687.1 1230.65 694.3 1230.95 696.7C1231.35 700.7 1231.65 704.7 1231.85 708.7C1232.85 725.1 1232.85 741.399 1232.75 757.799C1232.35 802.399 1227.55 846.799 1217.35 890.299C1199.55 965.599 1166.15 1036.5 1133.75 1106.4C1113.95 1149.2 1080.35 1195.2 1080.35 1244.3" stroke="black" stroke-width="4" stroke-miterlimit="10" stroke-linecap="round" stroke-linejoin="round"/>
<path opacity="0.9116" d="M1245.75 1031.2C1246.65 1030.3 1245.85 1033.7 1245.75 1034.9C1243.55 1062.7 1233.85 1090.5 1225.35 1116.8C1207.25 1172.6 1188.15 1226.3 1179.25 1284.4" stroke="black" stroke-width="4" stroke-miterlimit="10" stroke-linecap="round" stroke-linejoin="round"/>
<path opacity="0.9116" d="M1245.05 890.7C1247.55 893.4 1250.85 886.2 1253.95 884.2C1261.55 879.2 1276.75 869.599 1286.45 875.599" stroke="black" stroke-width="4" stroke-miterlimit="10" stroke-linecap="round" stroke-linejoin="round"/>
<path opacity="0.9116" d="M1252.95 970.1C1252.35 970 1257.55 966.101 1258.35 965.701C1263.85 962.301 1269.85 959.601 1275.95 957.701C1281.75 955.901 1288.25 954.901 1294.35 955.701" stroke="black" stroke-width="4" stroke-miterlimit="10" stroke-linecap="round" stroke-linejoin="round"/>
<path fill-rule="evenodd" clip-rule="evenodd" d="M1278.55 1069.1C1278.95 1069.2 1277.65 1069.2 1277.35 1069.4C1269.45 1074.1 1255.95 1084.5 1249.65 1095.1C1241.75 1108.3 1229.35 1148.9 1230.05 1148.3C1248.75 1133.2 1264.55 1123.7 1274.05 1102.5C1279.35 1090.6 1282.85 1064 1278.55 1069.1Z" fill="black"/>
<path d="M1278.55 1069.1C1278.95 1069.2 1277.65 1069.2 1277.35 1069.4C1269.45 1074.1 1255.95 1084.5 1249.65 1095.1C1241.75 1108.3 1229.35 1148.9 1230.05 1148.3C1248.75 1133.2 1264.55 1123.7 1274.05 1102.5C1279.35 1090.6 1282.85 1064 1278.55 1069.1Z" stroke="black" stroke-width="8" stroke-miterlimit="10" stroke-linecap="round" stroke-linejoin="round"/>
<path fill-rule="evenodd" clip-rule="evenodd" d="M1101.15 472.599C1105.15 480.799 1093.35 524.8 1097.05 541C1103.25 567.9 1121.05 567.4 1137.65 548.5C1153.35 530.7 1162.85 504.199 1158.35 480.399C1154.05 457.299 1121.55 451.6 1107.85 470.2" fill="#F7F2EE"/>
<path d="M1101.15 472.599C1105.15 480.799 1093.35 524.8 1097.05 541C1103.25 567.9 1121.05 567.4 1137.65 548.5C1153.35 530.7 1162.85 504.199 1158.35 480.399C1154.05 457.299 1121.55 451.6 1107.85 470.2" stroke="black" stroke-width="8" stroke-miterlimit="10" stroke-linecap="round" stroke-linejoin="round"/>
<path fill-rule="evenodd" clip-rule="evenodd" d="M1152.25 434.9C1152.75 434.7 1151.35 435.6 1151.05 436C1143.65 446 1139.45 458.6 1135.65 470.3C1126.55 498.1 1120.45 534.1 1137.55 560.3C1153.05 584.1 1207.75 590.6 1224.15 611.6C1257.85 654.4 1190.05 667.3 1231.45 693.1C1243.95 700.9 1261.65 691.8 1262.35 708.6C1264.15 751.6 1204.65 785.1 1257.95 806.1C1259.65 806.8 1362.35 823 1306.95 719.7C1296.95 701 1319.55 695.4 1322.85 687.6C1340.85 644.1 1292.75 611.6 1296.15 586.9C1300.65 554.6 1341.15 526.1 1323.45 493.2C1309.25 466.9 1275.35 477.7 1252.85 461.3C1231.05 445.4 1207.55 419 1177.55 426.3" fill="#F7F2EE"/>
<path d="M1152.25 434.9C1152.75 434.7 1151.35 435.6 1151.05 436C1143.65 446 1139.45 458.6 1135.65 470.3C1126.55 498.1 1120.45 534.1 1137.55 560.3C1153.05 584.1 1207.75 590.6 1224.15 611.6C1257.85 654.4 1190.05 667.3 1231.45 693.1C1243.95 700.9 1261.65 691.8 1262.35 708.6C1264.15 751.6 1204.65 785.1 1257.95 806.1C1259.65 806.8 1362.35 823 1306.95 719.7C1296.95 701 1319.55 695.4 1322.85 687.6C1340.85 644.1 1292.75 611.6 1296.15 586.9C1300.65 554.6 1341.15 526.1 1323.45 493.2C1309.25 466.9 1275.35 477.7 1252.85 461.3C1231.05 445.4 1207.55 419 1177.55 426.3" stroke="black" stroke-width="8" stroke-miterlimit="10" stroke-linecap="round" stroke-linejoin="round"/>
<path opacity="0.9116" d="M1169.85 493.2C1169.95 492.6 1166.65 497.7 1166.25 498.8C1164.45 503.4 1163.15 508.4 1162.55 513.3C1160.35 530.6 1167.95 543.599 1183.15 551.899C1218.95 571.299 1263.55 580.1 1255.85 631.8C1254.15 643.2 1247.65 657.2 1251.05 668.8C1255.05 682.3 1276.75 685.8 1282.55 701.5C1287.75 715.7 1269.15 789.699 1289.35 786.899C1310.35 783.999 1292.85 725 1294.15 711.3C1295.55 695.8 1308.55 683.4 1307.75 667.8C1306.75 646.8 1280.95 636.8 1279.35 609C1276.95 568.4 1316.35 508.1 1255.45 476.8" stroke="black" stroke-width="4" stroke-miterlimit="10" stroke-linecap="round" stroke-linejoin="round"/>
<path opacity="0.9116" d="M1202.85 496.1C1203.05 496.1 1202.95 496.8 1202.85 497C1202.65 499.3 1202.95 501.6 1203.35 503.8C1204.45 509.3 1206.15 514.8 1209.05 519.6C1218.05 534.5 1237.45 538.9 1247.15 553.8C1250.35 558.7 1253.45 571 1259.95 572.5C1265.95 573.8 1267.85 563.3 1268.45 559.5C1270.25 547.4 1268.65 532.299 1260.05 522.899C1247.85 509.499 1240.95 512.999 1233.75 492.899" stroke="black" stroke-width="4" stroke-miterlimit="10" stroke-linecap="round" stroke-linejoin="round"/>
<path d="M1162.95 378.899C1162.95 378.899 1162.85 378.899 1162.95 378.899" stroke="black" stroke-width="8" stroke-miterlimit="10" stroke-linecap="round" stroke-linejoin="round"/>
<path fill-rule="evenodd" clip-rule="evenodd" d="M1163.85 379.2C1159.65 379.7 1155.45 379.299 1151.35 379.899C1143.45 381.099 1135.75 383.4 1128.45 386.5C1100.15 398.4 1056.65 434.5 1091.35 463.7C1116.15 484.6 1155.55 490.499 1186.95 492.099C1283.95 496.699 1279.15 422.099 1223.35 395.099C1206.85 387.199 1178.85 377.5 1163.85 379.2Z" fill="black"/>
<path d="M1163.85 379.2C1159.65 379.7 1155.45 379.299 1151.35 379.899C1143.45 381.099 1135.75 383.4 1128.45 386.5C1100.15 398.4 1056.65 434.5 1091.35 463.7C1116.15 484.6 1155.55 490.499 1186.95 492.099C1283.95 496.699 1279.15 422.099 1223.35 395.099C1206.85 387.199 1178.85 377.5 1163.85 379.2Z" stroke="black" stroke-width="8" stroke-miterlimit="10" stroke-linecap="round" stroke-linejoin="round"/>
<path opacity="0.9116" d="M1155.15 410.899C1155.15 410.799 1155.15 410.899 1155.15 410.899" stroke="#F7F2EE" stroke-width="4" stroke-miterlimit="10" stroke-linecap="round" stroke-linejoin="round"/>
<path opacity="0.9116" d="M1135.35 449.399L1135.95 449.5" stroke="#F7F2EE" stroke-width="4" stroke-miterlimit="10" stroke-linecap="round" stroke-linejoin="round"/>
<path opacity="0.9116" d="M1194.85 460.5C1194.95 460.4 1195.35 460.5 1195.45 460.5" stroke="#F7F2EE" stroke-width="4" stroke-miterlimit="10" stroke-linecap="round" stroke-linejoin="round"/>
<path opacity="0.9116" d="M1209.85 430.399C1209.85 430.399 1209.85 430.3 1209.95 430.2" stroke="#F7F2EE" stroke-width="4" stroke-miterlimit="10" stroke-linecap="round" stroke-linejoin="round"/>
<path opacity="0.9116" d="M1159.85 429.3C1159.85 429.4 1159.95 429.5 1159.95 429.6" stroke="#F7F2EE" stroke-width="4" stroke-miterlimit="10" stroke-linecap="round" stroke-linejoin="round"/>
<path opacity="0.9116" d="M1181.05 439.899V439.7" stroke="#F7F2EE" stroke-width="4" stroke-miterlimit="10" stroke-linecap="round" stroke-linejoin="round"/>
<path opacity="0.9116" d="M1154.15 472.2C1154.25 472.3 1154.25 472.3 1154.35 472.3" stroke="#F7F2EE" stroke-width="4" stroke-miterlimit="10" stroke-linecap="round" stroke-linejoin="round"/>
<path opacity="0.9116" d="M1232.25 471.899C1232.25 471.799 1232.25 471.899 1232.25 471.899" stroke="#F7F2EE" stroke-width="4" stroke-miterlimit="10" stroke-linecap="round" stroke-linejoin="round"/>
<path opacity="0.9116" d="M1249.05 433.399C1248.95 433.399 1248.95 433.4 1248.85 433.5" stroke="#F7F2EE" stroke-width="4" stroke-miterlimit="10" stroke-linecap="round" stroke-linejoin="round"/>
<path opacity="0.9116" d="M1222.65 452.2C1222.55 452.4 1222.45 452.5 1222.25 452.7" stroke="#F7F2EE" stroke-width="4" stroke-miterlimit="10" stroke-linecap="round" stroke-linejoin="round"/>
<path opacity="0.9116" d="M1243.95 450.7C1243.95 450.7 1244.05 451.1 1244.05 451.2" stroke="#F7F2EE" stroke-width="4" stroke-miterlimit="10" stroke-linecap="round" stroke-linejoin="round"/>
<path opacity="0.9116" d="M1218.15 414.8C1218.55 414.8 1218.95 414.8 1219.35 414.8" stroke="#F7F2EE" stroke-width="4" stroke-miterlimit="10" stroke-linecap="round" stroke-linejoin="round"/>
<path opacity="0.9116" d="M1177.45 405.1C1177.35 405.2 1177.25 405.2 1177.25 405.2" stroke="#F7F2EE" stroke-width="4" stroke-miterlimit="10" stroke-linecap="round" stroke-linejoin="round"/>
<path opacity="0.9116" d="M1170.05 388C1169.95 388.1 1170.05 388.1 1170.05 388.2" stroke="#F7F2EE" stroke-width="4" stroke-miterlimit="10" stroke-linecap="round" stroke-linejoin="round"/>
<path opacity="0.9116" d="M1131.95 395.6C1131.85 395.6 1131.85 395.6 1131.75 395.7" stroke="#F7F2EE" stroke-width="4" stroke-miterlimit="10" stroke-linecap="round" stroke-linejoin="round"/>
<path opacity="0.9116" d="M1212.85 474.701C1213.05 474.601 1212.65 475.1 1212.45 475.3" stroke="#F7F2EE" stroke-width="4" stroke-miterlimit="10" stroke-linecap="round" stroke-linejoin="round"/>
<path fill-rule="evenodd" clip-rule="evenodd" d="M1164.45 375.9C1163.15 375.1 1166.45 367.301 1166.75 366.701C1169.85 360.001 1175.05 352.6 1181.75 351C1198.65 346.7 1205.95 368.7 1164.45 375.9Z" fill="black"/>
<path d="M1164.45 375.9C1163.15 375.1 1166.45 367.301 1166.75 366.701C1169.85 360.001 1175.05 352.6 1181.75 351C1198.65 346.7 1205.95 368.7 1164.45 375.9Z" stroke="black" stroke-width="8" stroke-miterlimit="10" stroke-linecap="round" stroke-linejoin="round"/>
<path d="M1055.65 1244.6C1055.55 1244.6 1056.45 1257.5 1055.95 1262.4C1053.65 1287.1 1052.35 1305.9 1048.35 1326.6" stroke="black" stroke-width="8" stroke-miterlimit="10" stroke-linecap="round" stroke-linejoin="round"/>
<path d="M1104.05 1259.3C1104.85 1258.2 1104.05 1262 1103.95 1263.3C1103.45 1267.4 1098.45 1313.3 1092.05 1328.2" stroke="black" stroke-width="8" stroke-miterlimit="10" stroke-linecap="round" stroke-linejoin="round"/>
<path d="M1121.75 1268.7C1122.65 1281.3 1121.85 1317.5 1120.05 1325.8" stroke="black" stroke-width="8" stroke-miterlimit="10" stroke-linecap="round" stroke-linejoin="round"/>
<path d="M1170.15 1295.6C1170.55 1300.5 1170.45 1323.1 1170.15 1326.7" stroke="black" stroke-width="8" stroke-miterlimit="10" stroke-linecap="round" stroke-linejoin="round"/>
<path opacity="0.9116" d="M1271.25 1081.2C1267.25 1085 1264.45 1092.2 1261.95 1097C1256.35 1107.7 1250.85 1118.3 1244.95 1128.8" stroke="#F7F2EE" stroke-width="4" stroke-miterlimit="10" stroke-linecap="round" stroke-linejoin="round"/>
<path opacity="0.9116" d="M1273.85 1091.5C1271.25 1101.7 1266.35 1112.2 1259.85 1120.5" stroke="#F7F2EE" stroke-width="4" stroke-miterlimit="10" stroke-linecap="round" stroke-linejoin="round"/>
<path opacity="0.9116" d="M1257.75 1087.2C1256.35 1087.5 1253.95 1092 1253.25 1093C1248.85 1099.5 1244.95 1106.5 1242.65 1114.1" stroke="#F7F2EE" stroke-width="4" stroke-miterlimit="10" stroke-linecap="round" stroke-linejoin="round"/>
</svg>
