<svg width="362" height="459" viewBox="0 0 362 459" fill="none" xmlns="http://www.w3.org/2000/svg">
<g clip-path="url(#clip0_1_429)">
<path d="M175.37 100.258C173.173 100.522 171.104 101.584 169.386 103.149C167.094 105.235 165.339 108.219 164.378 111.713C164.324 111.911 164.304 112.116 164.321 112.321C164.842 118.665 166.783 125.215 169.743 130.555C169.912 130.859 170.168 131.106 170.477 131.264C171.374 131.722 172.34 132.023 173.341 132.157C176.758 132.613 180.027 131.023 182.456 128.385C184.885 125.747 186.593 122.026 187.161 117.776C187.729 113.525 187.056 109.488 185.405 106.305C183.754 103.122 181.02 100.728 177.602 100.272C176.85 100.171 176.102 100.171 175.37 100.258ZM177.138 103.742C179.215 104.02 181.032 105.475 182.298 107.916C183.564 110.357 184.172 113.72 183.692 117.313C183.212 120.905 181.742 123.991 179.88 126.014C178.017 128.037 175.883 128.964 173.806 128.686C173.367 128.627 172.973 128.459 172.575 128.303C170.091 123.636 168.372 117.888 167.872 112.36C168.694 109.574 170.095 107.237 171.743 105.737C173.453 104.18 175.308 103.498 177.138 103.742Z" fill="black"/>
<path d="M148.959 99.4043C145.541 98.9475 142.273 100.535 139.845 103.174C137.416 105.812 135.706 109.533 135.138 113.784C134.57 118.036 135.243 122.075 136.893 125.259C138.544 128.442 141.28 130.832 144.699 131.289C148.117 131.746 151.385 130.158 153.813 127.52C156.242 124.881 157.95 121.16 158.518 116.909C159.086 112.657 158.415 108.618 156.765 105.435C155.114 102.251 152.378 99.8611 148.959 99.4043ZM148.496 102.873C150.576 103.151 152.391 104.606 153.656 107.047C154.922 109.487 155.529 112.85 155.049 116.445C154.568 120.04 153.099 123.125 151.238 125.148C149.376 127.17 147.242 128.098 145.162 127.82C143.082 127.542 141.265 126.086 140 123.646C138.734 121.206 138.127 117.843 138.607 114.248C139.088 110.653 140.557 107.568 142.418 105.545C144.28 103.523 146.416 102.596 148.496 102.873Z" fill="black"/>
<path d="M180.311 89.1077C173.733 89.0011 169.049 92.3504 166.62 97.1858C164.191 102.021 163.731 108.211 164.544 114.432C165.357 120.653 167.47 126.924 170.536 131.926C173.602 136.928 177.67 140.787 182.618 141.574C182.845 141.611 183.077 141.602 183.301 141.548C183.524 141.495 183.735 141.398 183.921 141.263C184.107 141.128 184.265 140.958 184.385 140.762C184.505 140.566 184.586 140.348 184.622 140.121C184.695 139.663 184.582 139.195 184.31 138.82C184.037 138.444 183.627 138.192 183.169 138.119C179.733 137.572 176.275 134.591 173.52 130.096C170.766 125.601 168.765 119.718 168.015 113.977C167.264 108.236 167.79 102.653 169.747 98.7561C171.704 94.8596 174.805 92.5173 180.255 92.6057C180.719 92.6131 181.166 92.436 181.5 92.1133C181.833 91.7907 182.024 91.3488 182.032 90.885C182.039 90.4212 181.862 89.9735 181.54 89.6402C181.217 89.3069 180.775 89.1154 180.311 89.1077Z" fill="black"/>
<path d="M162.089 105.418C158.11 105.771 155.327 107.832 155.327 107.832C155.141 107.968 154.984 108.138 154.864 108.334C154.745 108.531 154.665 108.748 154.629 108.976C154.594 109.203 154.603 109.435 154.657 109.658C154.711 109.881 154.809 110.092 154.944 110.278C155.08 110.463 155.25 110.62 155.446 110.74C155.643 110.86 155.861 110.94 156.088 110.975C156.315 111.011 156.547 111.002 156.77 110.947C156.993 110.893 157.204 110.796 157.39 110.66C157.39 110.66 161.11 108.006 165.52 109.16C165.743 109.219 165.974 109.233 166.202 109.201C166.43 109.17 166.649 109.094 166.848 108.978C167.046 108.862 167.22 108.708 167.359 108.525C167.498 108.342 167.599 108.133 167.657 107.91C167.715 107.688 167.729 107.456 167.698 107.229C167.667 107.001 167.591 106.781 167.475 106.583C167.359 106.385 167.205 106.211 167.021 106.072C166.838 105.933 166.63 105.832 166.407 105.774C164.874 105.372 163.415 105.3 162.089 105.418Z" fill="black"/>
<path d="M146.657 88.0823C140.974 88.7942 136.355 91.6504 132.223 94.7815C131.854 95.0618 131.61 95.4775 131.547 95.9372C131.484 96.3969 131.605 96.8628 131.886 97.2327C132.166 97.6025 132.582 97.8457 133.041 97.9091C133.501 97.9725 133.967 97.8508 134.337 97.5706C139.622 93.5655 144.79 90.554 152.22 91.6194C152.447 91.652 152.679 91.6394 152.901 91.5825C153.124 91.5255 153.333 91.4252 153.517 91.2874C153.701 91.1496 153.856 90.9769 153.973 90.7792C154.09 90.5815 154.167 90.3626 154.2 90.1351C154.233 89.9076 154.22 89.6758 154.163 89.4532C154.106 89.2305 154.006 89.0214 153.868 88.8375C153.73 88.6535 153.558 88.4986 153.36 88.3814C153.162 88.2642 152.943 88.1872 152.716 88.1546C150.564 87.846 148.551 87.8447 146.657 88.0823Z" fill="black"/>
<path d="M88.5712 105.369C88.3417 105.355 88.1116 105.385 87.8939 105.459C87.6763 105.533 87.4754 105.65 87.3027 105.801C87.13 105.953 86.989 106.138 86.8876 106.344C86.7862 106.55 86.7264 106.775 86.7118 107.004C86.6969 107.234 86.7275 107.464 86.8016 107.681C86.8758 107.899 86.992 108.1 87.1438 108.273C87.2957 108.445 87.48 108.586 87.6864 108.688C87.8928 108.789 88.1171 108.849 88.3465 108.864L137.622 112.033C137.851 112.048 138.082 112.018 138.299 111.944C138.517 111.869 138.718 111.753 138.89 111.601C139.063 111.449 139.204 111.265 139.306 111.059C139.407 110.852 139.467 110.628 139.481 110.399C139.496 110.169 139.466 109.939 139.391 109.721C139.317 109.504 139.201 109.303 139.049 109.13C138.897 108.958 138.713 108.816 138.507 108.715C138.3 108.614 138.076 108.554 137.847 108.539L88.5712 105.369Z" fill="black"/>
<path d="M133.817 155.961C133.376 155.819 132.896 155.857 132.483 156.069C132.279 156.173 132.097 156.317 131.948 156.493C131.799 156.668 131.686 156.87 131.616 157.089C131.545 157.308 131.518 157.538 131.537 157.767C131.555 157.996 131.619 158.22 131.724 158.424C135.626 166.042 142.795 170.332 152.28 171.356C152.741 171.406 153.204 171.27 153.565 170.979C153.927 170.689 154.158 170.266 154.208 169.805C154.233 169.576 154.212 169.345 154.147 169.125C154.083 168.904 153.975 168.698 153.831 168.519C153.687 168.34 153.509 168.192 153.307 168.081C153.105 167.971 152.884 167.902 152.655 167.877C143.981 166.941 138.211 163.411 134.839 156.828C134.734 156.624 134.59 156.442 134.414 156.293C134.239 156.144 134.036 156.032 133.817 155.961Z" fill="black"/>
<path d="M170.147 143.887C169.918 143.885 169.69 143.928 169.476 144.013C169.263 144.099 169.069 144.226 168.905 144.387C168.741 144.548 168.61 144.739 168.52 144.951C168.43 145.162 168.382 145.39 168.38 145.619C168.199 164.117 161.734 181.802 149.923 190.963C138.111 200.124 120.84 201.343 97.4735 186.256C97.2804 186.131 97.0646 186.046 96.8384 186.005C96.6123 185.963 96.3802 185.967 96.1555 186.015C95.9308 186.064 95.7178 186.156 95.5287 186.287C95.3397 186.418 95.1782 186.584 95.0536 186.778C94.9288 186.971 94.8432 187.186 94.8017 187.412C94.7603 187.638 94.7638 187.87 94.8121 188.095C94.8603 188.32 94.9524 188.533 95.0829 188.722C95.2135 188.911 95.3801 189.073 95.5731 189.197C119.691 204.77 139.039 203.833 152.067 193.729C165.095 183.625 171.691 164.937 171.88 145.655C171.882 145.425 171.839 145.197 171.753 144.983C171.667 144.77 171.54 144.576 171.38 144.412C171.219 144.248 171.027 144.117 170.816 144.027C170.604 143.937 170.377 143.889 170.147 143.887Z" fill="black"/>
<path d="M60.5009 184.143C60.0647 183.984 59.5835 184.006 59.163 184.202C58.7428 184.398 58.4178 184.753 58.2592 185.189C58.1007 185.625 58.1215 186.106 58.3173 186.526C70.1528 211.894 95.8276 222.825 130.823 222.997C131.287 222.999 131.733 222.817 132.062 222.49C132.392 222.164 132.578 221.72 132.581 221.257C132.582 221.027 132.538 220.799 132.451 220.586C132.365 220.373 132.237 220.18 132.075 220.016C131.914 219.853 131.721 219.723 131.51 219.634C131.298 219.545 131.071 219.498 130.841 219.497C96.5523 219.328 72.6737 209.02 61.4892 185.048C61.3919 184.839 61.2546 184.652 61.085 184.497C60.9154 184.342 60.7169 184.221 60.5009 184.143Z" fill="black"/>
<path d="M52.7391 191.438C52.5091 191.44 52.2819 191.488 52.0704 191.579C51.859 191.669 51.6674 191.801 51.5067 191.965C48.8624 194.676 46.2598 198.75 44.9833 203.324C43.7068 207.899 43.8274 213.108 47.0126 217.444C71.1707 250.275 90.0447 253.922 111.417 255.78C123.436 256.824 132.322 251.512 138.259 244.83C144.194 238.149 147.353 230.168 148.53 225.223C152.218 209.737 143.272 196.457 143.272 196.457C143.145 196.266 142.981 196.102 142.79 195.974C142.599 195.846 142.384 195.757 142.159 195.712C141.933 195.667 141.701 195.667 141.476 195.712C141.25 195.757 141.036 195.845 140.845 195.973C140.459 196.23 140.19 196.63 140.099 197.085C140.008 197.54 140.101 198.013 140.358 198.399C140.358 198.399 148.411 210.619 145.126 224.412H145.124C144.083 228.788 141.057 236.41 135.641 242.506C130.226 248.602 122.591 253.238 111.72 252.293C90.5303 250.451 73.5617 247.618 49.8328 215.371H49.8309C47.4046 212.067 47.2708 208.151 48.3543 204.268C49.438 200.385 51.8088 196.67 54.0125 194.411C54.3365 194.078 54.5153 193.631 54.5094 193.167C54.5036 192.703 54.3135 192.26 53.9813 191.936C53.6492 191.613 53.2025 191.434 52.7391 191.44L52.7391 191.438Z" fill="black"/>
<path d="M66.3759 0.701436C63.7788 0.784436 61.0862 0.983924 58.2958 1.31862C38.7874 3.65852 13.1119 21.2252 8.41492 71.9046C7.63983 80.2653 6.23898 100.099 11.9325 118.391C14.7792 127.537 19.4246 136.331 26.8973 143.006C34.3701 149.681 44.6558 154.163 58.4266 154.776C73.7614 155.463 85.4212 145.037 91.9071 135.448C91.9078 135.448 91.9085 135.448 91.9091 135.448C92.1609 135.074 92.3804 134.682 92.4814 134.141C92.5823 133.6 92.4564 132.846 92.0849 132.34C91.342 131.329 90.5199 131.298 89.8232 131.184C88.4297 130.955 86.8022 130.958 85.1552 130.657C82.2837 130.123 78.1826 129.103 75.2001 125.813C72.2164 122.521 70.075 116.793 71.7919 105.963C72.5277 101.325 76.0346 98.0681 79.9443 97.5218C83.854 96.9755 88.3605 98.9009 91.4872 105.92C94.8439 113.451 97.4446 118.953 99.915 122.444C101.15 124.189 102.348 125.488 103.862 126.196C105.376 126.903 107.255 126.711 108.673 125.764C111.688 123.751 113.255 119.332 113.841 113.94C114.338 109.363 113.825 104.056 111.884 98.975C117.024 99.1717 121.373 97.707 124.222 94.1449C127.231 90.3826 128.495 84.6796 128.435 77.1897C134.731 80.2042 163.933 92.5347 200.558 77.8539C210.186 73.9957 218.68 68.0797 224.796 61.2875C230.912 54.4952 234.706 46.7872 234.567 39.2757C234.504 35.8254 234.081 26.8868 226.352 18.8733C218.624 10.8598 203.844 3.87951 175.708 3.24831C166.715 3.04101 142.279 6.30255 121.333 23.6467C120.007 21.8454 115.952 16.6399 107.165 11.1C98.0252 5.3379 84.555 0.123611 66.3759 0.703511L66.3759 0.701436ZM66.4911 4.19558C83.9548 3.62698 96.6584 8.61216 105.298 14.0589C115.171 20.2836 119.61 27.0139 119.61 27.0139C119.748 27.2211 119.928 27.3966 120.138 27.5287C120.349 27.6608 120.585 27.7465 120.832 27.7802C121.078 27.8138 121.329 27.7945 121.567 27.7237C121.805 27.6528 122.026 27.5321 122.214 27.3694C142.559 9.76741 167.467 6.55826 175.628 6.74636C175.628 6.74636 175.629 6.74636 175.63 6.74636C203.216 7.36516 216.948 14.162 223.833 21.301C230.718 28.4399 231.008 36.0285 231.069 39.3382C231.185 45.6067 227.908 52.6008 222.196 58.9436C216.485 65.2863 208.394 70.9399 199.255 74.6018C159.533 90.5244 127.52 72.971 127.52 72.971C127.247 72.822 126.939 72.7486 126.628 72.7582C126.317 72.7678 126.015 72.8601 125.751 73.0257C125.488 73.1912 125.273 73.424 125.13 73.7C124.986 73.976 124.919 74.2852 124.935 74.596C125.37 83.1138 124.011 88.8001 121.487 91.9553C118.964 95.1105 115.218 96.2257 109.501 95.3284C109.183 95.2789 108.857 95.3179 108.56 95.4413C108.263 95.5647 108.006 95.7677 107.816 96.0279C107.627 96.2881 107.513 96.5954 107.487 96.9162C107.461 97.2369 107.524 97.5587 107.669 97.846C110.248 102.958 110.881 108.764 110.36 113.561C109.839 118.358 107.878 122.085 106.729 122.852C106.066 123.295 105.913 123.288 105.343 123.022C104.772 122.755 103.832 121.92 102.77 120.42C100.648 117.421 98.0228 111.984 94.6845 104.494C91.1162 96.4838 84.9625 93.2843 79.4599 94.053C73.9574 94.8218 69.3011 99.3211 68.3349 105.412C66.5149 116.892 68.7991 123.96 72.6064 128.16C76.4136 132.361 81.4652 133.531 84.5204 134.098C84.5224 134.098 84.5244 134.098 84.5264 134.098C86.085 134.383 87.2005 134.426 88.1768 134.512C82.0132 143.139 71.7151 151.866 58.5831 151.278C45.4849 150.695 36.0999 146.534 29.2296 140.397C22.3592 134.26 17.9892 126.073 15.2745 117.352C9.84499 99.9084 11.1385 80.4581 11.9014 72.2288C16.4984 22.6283 40.8703 6.93529 58.712 4.79519C61.4031 4.47239 63.9963 4.27678 66.4911 4.19558Z" fill="black"/>
<path fill-rule="evenodd" clip-rule="evenodd" d="M112.233 108.647L94.1093 107.487C93.7763 106.747 93.4353 105.987 93.0863 105.207C86.3913 90.1766 71.7653 94.9566 70.0633 105.687C66.5263 127.997 78.9133 131.277 84.8403 132.377C88.5063 133.047 91.8323 132.427 90.4573 134.467C84.1873 143.737 73.0013 153.677 58.5043 153.027C4.76628 150.637 8.62027 88.6566 10.1583 72.0666C14.8053 21.9266 39.8293 5.29659 58.5043 3.05659C102.356 -2.20341 121.068 26.0466 121.068 26.0466C141.862 8.05658 166.991 4.79665 175.668 4.99665C231.391 6.24665 232.693 32.5466 232.818 39.3066C233.073 53.0866 218.674 68.7066 199.906 76.2266C159.467 92.4366 126.681 74.5065 126.681 74.5065C127.574 91.9765 121.4 98.9666 109.23 97.0566C111.118 100.797 112.024 104.837 112.233 108.647Z" fill="black"/>
<path d="M121.358 251.602C121.153 251.705 120.97 251.847 120.819 252.021C120.669 252.195 120.554 252.397 120.482 252.615C120.41 252.833 120.381 253.064 120.397 253.293C120.414 253.522 120.476 253.746 120.579 253.951C120.579 253.951 124.552 261.886 126.864 267.949C127.03 268.383 127.36 268.733 127.784 268.923C128.207 269.112 128.688 269.126 129.122 268.961C129.555 268.796 129.906 268.465 130.095 268.042C130.285 267.618 130.299 267.137 130.134 266.703C127.71 260.347 123.708 252.381 123.708 252.381C123.605 252.176 123.462 251.993 123.288 251.842C123.115 251.692 122.913 251.577 122.695 251.505C122.476 251.432 122.246 251.404 122.017 251.42C121.787 251.437 121.564 251.499 121.358 251.602Z" fill="black"/>
<path d="M135.329 303.963C132.615 303.963 130.311 306.137 130.311 308.856C130.311 311.574 132.615 313.75 135.329 313.75C138.043 313.75 140.345 311.574 140.345 308.856C140.345 306.137 138.043 303.963 135.329 303.963ZM135.329 307.463C136.223 307.463 136.845 308.103 136.845 308.856C136.845 309.609 136.223 310.25 135.329 310.25C134.435 310.25 133.811 309.609 133.811 308.856C133.811 308.103 134.435 307.463 135.329 307.463Z" fill="black"/>
<path d="M150.106 303.065C147.743 303.065 145.725 304.967 145.725 307.348C145.725 309.729 147.743 311.629 150.106 311.629C152.47 311.629 154.487 309.729 154.487 307.348C154.487 304.967 152.47 303.065 150.106 303.065ZM150.106 306.569C150.648 306.569 150.985 306.934 150.985 307.348C150.985 307.762 150.648 308.127 150.106 308.127C149.565 308.127 149.227 307.762 149.227 307.348C149.227 306.934 149.565 306.569 150.106 306.569Z" fill="black"/>
<path d="M131.038 258.578C130.819 258.509 130.588 258.484 130.358 258.504C130.129 258.524 129.906 258.589 129.702 258.696C129.291 258.91 128.982 259.279 128.843 259.722C128.704 260.164 128.746 260.644 128.96 261.055C128.96 261.055 143.375 288.872 147.507 305.391C147.562 305.614 147.662 305.824 147.798 306.009C147.935 306.193 148.107 306.349 148.304 306.468C148.502 306.586 148.72 306.664 148.947 306.698C149.175 306.732 149.407 306.72 149.63 306.664C150.08 306.551 150.467 306.264 150.705 305.866C150.944 305.468 151.014 304.991 150.901 304.541C146.535 287.08 132.063 259.438 132.063 259.438C131.849 259.027 131.48 258.718 131.038 258.578Z" fill="black"/>
<path d="M119.677 260.506C119.229 260.627 118.847 260.921 118.615 261.323C118.384 261.725 118.322 262.203 118.442 262.651C118.442 262.651 120.659 270.902 123.511 280.514C126.362 290.126 129.802 301.025 132.448 306.705C132.644 307.126 132.999 307.451 133.435 307.61C133.871 307.769 134.352 307.749 134.772 307.553C134.981 307.456 135.168 307.319 135.324 307.149C135.479 306.98 135.599 306.782 135.678 306.566C135.757 306.35 135.792 306.12 135.782 305.89C135.772 305.661 135.717 305.435 135.62 305.227C133.216 300.067 129.703 289.083 126.866 279.52C124.029 269.957 121.821 261.742 121.821 261.742C121.762 261.52 121.659 261.312 121.519 261.13C121.379 260.948 121.204 260.795 121.005 260.68C120.806 260.565 120.586 260.491 120.358 260.461C120.13 260.431 119.899 260.446 119.677 260.506Z" fill="black"/>
<path d="M52.622 220.344C40.1381 221.466 29.1583 229.243 20.7372 239.809C12.316 250.374 6.38148 263.784 3.995 276.658C-5.24077 326.475 7.38122 382.951 33.8114 420.877C46.9559 439.739 56.8672 448.614 67.0009 452.928C77.1345 457.242 87.1291 456.909 100.294 457.903C144.864 461.252 177.802 443.344 177.802 443.344C178.077 443.194 178.308 442.973 178.468 442.703C178.629 442.434 178.715 442.126 178.716 441.813C178.816 416.267 176.02 401.388 173.118 392.781C171.667 388.478 170.187 385.742 169.018 384.045C167.85 382.348 166.809 381.565 166.809 381.565C166.553 381.385 166.253 381.277 165.94 381.252C122.909 377.899 67.2216 393.944 67.2216 393.944C67.0006 394.007 66.7942 394.113 66.6143 394.257C66.4344 394.4 66.2845 394.577 66.1731 394.778C66.0617 394.979 65.9911 395.2 65.9652 395.429C65.9393 395.657 65.9588 395.889 66.0223 396.11C66.1504 396.555 66.4503 396.932 66.8561 397.157C67.2619 397.382 67.7404 397.437 68.1864 397.309C68.1864 397.309 123.19 381.655 165.046 384.725C165.166 384.816 165.357 384.899 166.136 386.03C167.091 387.417 168.437 389.853 169.802 393.899C172.486 401.86 175.196 416.169 175.188 440.711C172.679 442.03 142.27 457.547 100.558 454.412H100.555C87.2114 453.406 77.6717 453.666 68.3719 449.707C59.0716 445.748 49.6499 437.483 36.6824 418.875C10.8887 381.862 -1.60786 326.079 7.43635 277.295C9.71187 265.02 15.4554 252.05 23.4735 241.99C31.4915 231.931 41.7113 224.839 52.9344 223.83C53.1633 223.81 53.3859 223.744 53.5895 223.638C53.7932 223.531 53.9738 223.385 54.121 223.209C54.2683 223.032 54.3794 222.828 54.4479 222.609C54.5164 222.39 54.541 222.159 54.5203 221.93C54.4787 221.468 54.2553 221.041 53.8994 220.744C53.5434 220.447 53.084 220.303 52.622 220.344Z" fill="black"/>
<path d="M52.9852 271.326C52.7619 271.381 52.5516 271.479 52.3663 271.615C52.1809 271.752 52.0243 271.923 51.9051 272.119C51.7859 272.316 51.7065 272.534 51.6714 272.761C51.6364 272.988 51.6465 273.22 51.701 273.443C51.7556 273.666 51.8537 273.877 51.9896 274.062C52.1255 274.248 52.2966 274.404 52.493 274.524C61.3766 279.914 66.5553 288.459 70.2743 298.252C73.9933 308.045 76.1831 319.004 79.1532 328.862C85.2646 349.144 87.1514 376.828 87.6337 384.653C81.2579 378.926 71.6962 378.727 71.6962 378.727C71.4663 378.72 71.2375 378.759 71.0226 378.841C70.8078 378.923 70.6113 379.047 70.4443 379.205C70.2772 379.363 70.1429 379.552 70.0491 379.762C69.9552 379.972 69.9037 380.198 69.8973 380.428C69.8908 380.658 69.9297 380.887 70.0117 381.101C70.0936 381.316 70.2171 381.513 70.3751 381.68C70.5331 381.847 70.7225 381.981 70.9324 382.075C71.1423 382.169 71.3687 382.22 71.5985 382.227C71.5985 382.227 84.3067 382.837 88.2841 391.022C88.4603 391.385 88.7566 391.675 89.1226 391.845C89.4887 392.015 89.9021 392.053 90.2929 391.952C90.6837 391.852 91.0279 391.62 91.2672 391.295C91.5065 390.971 91.6263 390.573 91.6063 390.17C91.6063 390.17 89.774 351.977 82.5048 327.852C79.6058 318.23 77.4088 307.182 73.5458 297.01C69.6828 286.838 64.0828 277.459 54.3094 271.53C54.1129 271.41 53.8948 271.331 53.6675 271.296C53.4403 271.261 53.2085 271.272 52.9852 271.326Z" fill="black"/>
<path d="M29.8798 409.729C29.4162 409.709 28.9636 409.874 28.6215 410.187C28.2794 410.501 28.0758 410.937 28.0556 411.401C28.0556 411.401 26.9342 436.688 27.747 449.528C27.7766 449.991 27.9889 450.423 28.3372 450.73C28.6855 451.036 29.1413 451.192 29.6044 451.162C30.0674 451.133 30.5 450.921 30.8069 450.574C31.1138 450.226 31.27 449.77 31.2411 449.307C30.4599 436.967 31.5517 411.553 31.5517 411.553C31.5718 411.089 31.4069 410.637 31.0934 410.295C30.7799 409.953 30.3434 409.749 29.8798 409.729Z" fill="black"/>
<path d="M268.481 346.76C265.435 346.589 261.919 347.366 258.335 348.352C253.556 349.666 248.756 351.518 245.591 352.805C239.747 355.181 233.952 354.84 233.952 354.84C233.489 354.811 233.033 354.966 232.685 355.273C232.336 355.579 232.124 356.012 232.095 356.475C232.065 356.938 232.221 357.394 232.527 357.742C232.834 358.09 233.266 358.303 233.729 358.332C233.729 358.332 240.211 358.771 246.909 356.047C250.014 354.784 254.718 352.977 259.263 351.727C263.807 350.476 268.292 349.949 270.261 350.598C270.893 350.806 270.987 350.922 271.352 351.1C271.156 351.155 271.021 351.228 270.809 351.268C269.234 351.566 265.37 352.553 261.468 353.756C259.516 354.357 257.582 355.006 255.964 355.653C254.345 356.299 253.125 356.769 252.134 357.758C251.805 358.086 251.62 358.53 251.619 358.994C251.618 359.459 251.802 359.904 252.13 360.233C252.458 360.561 252.903 360.745 253.367 360.745C253.831 360.745 254.276 360.561 254.604 360.233C254.625 360.212 255.789 359.489 257.262 358.901C258.736 358.312 260.605 357.682 262.499 357.098C266.287 355.93 270.293 354.923 271.462 354.701C272.271 354.548 273.064 354.318 273.794 353.959C274.524 353.601 275.313 353.154 275.721 352.063C275.926 351.517 275.924 350.808 275.704 350.244C275.484 349.681 275.119 349.267 274.714 348.926C273.902 348.244 272.858 347.765 271.356 347.27C270.46 346.975 269.497 346.813 268.481 346.756L268.481 346.76Z" fill="black"/>
<path d="M272.817 351.014C272.598 350.946 272.367 350.922 272.138 350.943C271.909 350.965 271.686 351.031 271.483 351.138C271.28 351.246 271.099 351.392 270.953 351.569C270.806 351.746 270.696 351.95 270.628 352.17C270.491 352.614 270.536 353.093 270.753 353.503C270.97 353.913 271.341 354.221 271.784 354.358C271.784 354.358 272.918 354.716 273.925 355.227C274.226 355.38 274.389 355.517 274.606 355.666C274.559 355.699 274.558 355.718 274.503 355.75C273.884 356.112 272.936 356.537 271.874 356.951C269.751 357.78 267.176 358.58 265.317 359.25C265.315 359.25 265.313 359.25 265.311 359.25C263.195 360.023 260.222 361.412 257.477 362.887C254.732 364.363 252.37 365.697 251.02 367.209C250.711 367.555 250.552 368.01 250.578 368.473C250.604 368.937 250.813 369.371 251.159 369.68C251.505 369.989 251.96 370.148 252.423 370.122C252.886 370.096 253.32 369.887 253.63 369.541C254.057 369.063 256.516 367.376 259.134 365.969C261.749 364.563 264.677 363.209 266.505 362.541H266.511C268.227 361.922 270.848 361.107 273.145 360.211C274.295 359.763 275.364 359.301 276.268 358.772C277.173 358.243 278.091 357.781 278.468 356.395C278.806 355.15 278.114 354.045 277.495 353.446C276.875 352.846 276.182 352.448 275.507 352.106C274.156 351.421 272.817 351.014 272.817 351.014Z" fill="black"/>
<path d="M274.151 356.768C273.953 356.651 273.734 356.575 273.506 356.543C273.278 356.511 273.046 356.525 272.824 356.583C272.601 356.64 272.392 356.742 272.209 356.88C272.025 357.019 271.871 357.192 271.755 357.391C271.52 357.791 271.454 358.268 271.57 358.717C271.687 359.166 271.978 359.55 272.378 359.785C272.378 359.785 273.041 360.24 273.325 360.668C273.467 360.882 273.482 360.991 273.475 361.055C273.469 361.118 273.462 361.304 272.974 361.737C272.031 362.571 268.814 364.043 264.475 366.069C260.137 368.094 254.589 370.843 248.474 374.965C248.283 375.094 248.119 375.258 247.993 375.45C247.866 375.642 247.778 375.856 247.734 376.082C247.69 376.308 247.691 376.54 247.737 376.765C247.783 376.99 247.872 377.204 248.001 377.395C248.129 377.585 248.294 377.749 248.486 377.876C248.677 378.003 248.892 378.09 249.118 378.134C249.343 378.178 249.575 378.177 249.801 378.131C250.026 378.086 250.24 377.996 250.431 377.867C256.332 373.89 261.68 371.235 265.954 369.24C270.228 367.246 273.345 366.083 275.294 364.358C276.251 363.51 276.858 362.458 276.96 361.387C277.062 360.316 276.678 359.393 276.241 358.735C275.368 357.418 274.151 356.768 274.151 356.768Z" fill="black"/>
<path d="M270.136 363.489C269.91 363.532 269.695 363.62 269.503 363.747C269.312 363.874 269.147 364.038 269.018 364.229C268.89 364.42 268.801 364.634 268.755 364.859C268.71 365.085 268.709 365.317 268.753 365.542C268.797 365.768 268.886 365.983 269.013 366.174C269.14 366.366 269.304 366.53 269.495 366.658C269.495 366.658 269.989 367.048 270.202 367.446C270.309 367.644 270.332 367.766 270.313 367.901C270.295 368.035 270.231 368.286 269.766 368.735C269.766 368.735 269.764 368.734 269.764 368.735C269.764 368.735 269.765 368.735 269.764 368.735C269.343 369.14 267.798 370.258 265.85 371.526C263.902 372.794 261.484 374.296 258.999 375.842C254.028 378.934 248.869 382.114 246.3 384.235C242.065 387.718 238.119 387.833 233.909 387.666C233.908 387.666 233.906 387.666 233.905 387.666C231.781 387.587 228.272 387.403 224.811 387.352C221.35 387.301 218.026 387.335 215.737 387.883C213.959 388.306 212.536 389.509 210.227 391.221C207.917 392.934 205.017 395.185 201.571 397.66C194.68 402.611 185.621 408.453 175.04 412.563C174.825 412.646 174.63 412.771 174.463 412.929C174.297 413.088 174.164 413.278 174.071 413.489C173.979 413.699 173.928 413.926 173.923 414.156C173.918 414.386 173.958 414.614 174.042 414.829C174.125 415.043 174.249 415.239 174.408 415.405C174.567 415.571 174.757 415.704 174.968 415.797C175.178 415.89 175.405 415.94 175.635 415.945C175.864 415.95 176.093 415.91 176.307 415.826C187.303 411.556 196.601 405.539 203.612 400.502C207.118 397.984 210.055 395.708 212.313 394.034C214.572 392.359 216.45 391.311 216.548 391.288C216.549 391.288 216.55 391.288 216.552 391.288C218.018 390.936 221.389 390.803 224.761 390.852C228.132 390.901 231.595 391.083 233.776 391.164C238.176 391.338 243.456 391.108 248.526 386.936C248.527 386.936 248.528 386.936 248.528 386.936C250.612 385.216 255.877 381.908 260.847 378.817C263.331 377.271 265.763 375.761 267.761 374.461C269.758 373.162 271.255 372.159 272.192 371.258C272.193 371.258 272.194 371.258 272.194 371.258C273.085 370.399 273.64 369.396 273.78 368.387C273.921 367.378 273.646 366.465 273.286 365.793C272.566 364.45 271.448 363.756 271.448 363.756C271.063 363.497 270.591 363.402 270.136 363.491L270.136 363.489Z" fill="black"/>
<path d="M297.1 283.967C286.25 284.029 273.289 285.964 266.696 287.961C261.134 289.632 258.071 293.781 256.526 298.096H256.528C255.044 302.229 236.415 355.852 236.415 355.852C236.339 356.069 236.307 356.299 236.321 356.528C236.334 356.758 236.392 356.982 236.492 357.189C236.592 357.396 236.732 357.582 236.904 357.734C237.076 357.887 237.276 358.005 237.493 358.08C237.932 358.232 238.413 358.204 238.83 358.001C239.248 357.799 239.568 357.439 239.72 357C239.72 357 258.447 303.105 259.821 299.278C261.134 295.612 263.282 292.641 267.704 291.313H267.708C273.655 289.511 286.685 287.528 297.124 287.469C297.126 287.469 297.128 287.469 297.13 287.469C298.206 287.459 298.871 288.01 299.407 289.1C299.944 290.19 300.086 291.756 299.745 292.93C299.215 294.755 293.385 313.482 287.589 331.858C284.691 341.046 281.79 350.188 279.532 357.192C278.404 360.694 277.436 363.662 276.712 365.828C276.35 366.911 276.048 367.794 275.821 368.436C275.595 369.077 275.379 369.585 275.429 369.485C274.746 370.855 274.238 372.024 273.657 372.885C273.077 373.746 272.486 374.33 271.374 374.811H271.37C268.901 375.886 256.255 380.114 251.474 380.791C251.014 380.857 250.6 381.102 250.321 381.473C250.042 381.844 249.922 382.31 249.987 382.77C250.019 382.997 250.096 383.217 250.213 383.415C250.33 383.613 250.484 383.786 250.668 383.924C250.852 384.062 251.061 384.163 251.284 384.22C251.506 384.277 251.738 384.29 251.966 384.258C257.769 383.436 269.535 379.427 272.763 378.022H272.767C274.5 377.272 275.717 376.092 276.56 374.842C277.403 373.591 277.936 372.299 278.56 371.049C278.773 370.623 278.882 370.278 279.12 369.604C279.359 368.928 279.665 368.032 280.03 366.938C280.762 364.75 281.732 361.774 282.862 358.266C285.124 351.249 288.028 342.102 290.927 332.91C296.726 314.526 302.461 296.131 303.107 293.906C303.718 291.801 303.506 289.502 302.548 287.555C301.591 285.608 299.626 283.95 297.105 283.969L297.1 283.967Z" fill="black"/>
<path fill-rule="evenodd" clip-rule="evenodd" d="M274.737 305.334C274.737 305.651 274.689 305.966 274.595 306.259C274.502 306.552 274.365 306.819 274.192 307.043C274.019 307.267 273.814 307.445 273.588 307.567C273.362 307.688 273.12 307.751 272.876 307.751C272.632 307.751 272.39 307.688 272.164 307.567C271.938 307.445 271.733 307.267 271.56 307.043C271.387 306.819 271.25 306.552 271.157 306.259C271.063 305.966 271.015 305.651 271.015 305.334C271.015 305.016 271.063 304.702 271.157 304.409C271.25 304.116 271.387 303.849 271.56 303.625C271.733 303.4 271.938 303.222 272.164 303.101C272.39 302.979 272.632 302.917 272.876 302.917C273.12 302.917 273.362 302.979 273.588 303.101C273.814 303.222 274.019 303.4 274.192 303.625C274.365 303.849 274.502 304.116 274.595 304.409C274.689 304.702 274.737 305.016 274.737 305.334Z" fill="black"/>
<path fill-rule="evenodd" clip-rule="evenodd" d="M270.1 299.39C270.1 299.708 270.052 300.022 269.958 300.315C269.864 300.608 269.727 300.875 269.555 301.099C269.382 301.324 269.177 301.502 268.951 301.623C268.725 301.745 268.483 301.807 268.239 301.807C267.994 301.807 267.752 301.745 267.526 301.623C267.301 301.502 267.096 301.324 266.923 301.099C266.75 300.875 266.613 300.608 266.519 300.315C266.426 300.022 266.378 299.708 266.378 299.39C266.378 299.073 266.426 298.759 266.519 298.465C266.613 298.172 266.75 297.906 266.923 297.681C267.096 297.457 267.301 297.279 267.526 297.157C267.752 297.036 267.994 296.973 268.239 296.973C268.483 296.973 268.725 297.036 268.951 297.157C269.177 297.279 269.382 297.457 269.555 297.681C269.727 297.906 269.864 298.172 269.958 298.465C270.052 298.759 270.1 299.073 270.1 299.39Z" fill="black"/>
<path fill-rule="evenodd" clip-rule="evenodd" d="M266.507 310.755C266.507 311.072 266.459 311.387 266.366 311.68C266.272 311.973 266.135 312.24 265.962 312.464C265.789 312.689 265.584 312.867 265.358 312.988C265.133 313.11 264.891 313.172 264.646 313.172C264.402 313.172 264.16 313.11 263.934 312.988C263.708 312.867 263.503 312.689 263.33 312.464C263.158 312.24 263.02 311.973 262.927 311.68C262.833 311.387 262.785 311.072 262.785 310.755C262.785 310.438 262.833 310.123 262.927 309.83C263.02 309.537 263.158 309.27 263.33 309.046C263.503 308.822 263.708 308.643 263.934 308.522C264.16 308.401 264.402 308.338 264.646 308.338C264.891 308.338 265.133 308.401 265.358 308.522C265.584 308.643 265.789 308.822 265.962 309.046C266.135 309.27 266.272 309.537 266.366 309.83C266.459 310.123 266.507 310.438 266.507 310.755Z" fill="black"/>
<path d="M241.2 334.184C240.655 334.094 240.072 334.115 239.495 334.307C238.34 334.691 237.45 335.639 236.813 336.895C235.175 340.114 230.243 343.36 224.585 344.459H224.587C217.452 345.834 211.791 353.131 209.005 358.356C206.483 363.076 201.686 369.675 196.85 371.121C190.884 372.896 165.257 381.336 165.257 381.336C164.816 381.481 164.451 381.796 164.242 382.21C164.033 382.624 163.997 383.104 164.142 383.545C164.213 383.764 164.327 383.966 164.478 384.14C164.628 384.315 164.81 384.458 165.016 384.561C165.221 384.665 165.445 384.727 165.674 384.744C165.904 384.761 166.134 384.732 166.352 384.66C166.352 384.66 192.177 376.164 197.85 374.477H197.854C204.653 372.443 209.39 365.063 212.093 360.004C214.532 355.429 220.236 348.864 225.249 347.899H225.253C231.744 346.638 237.522 343.225 239.933 338.485H239.935C240.31 337.745 240.575 337.641 240.599 337.633C240.622 337.623 240.644 337.595 240.898 337.744C241.405 338.044 242.213 339.29 242.298 339.694C242.394 340.148 242.666 340.545 243.054 340.798C243.443 341.052 243.916 341.141 244.37 341.045C244.595 340.998 244.809 340.907 244.998 340.777C245.188 340.647 245.35 340.481 245.476 340.288C245.601 340.096 245.688 339.88 245.73 339.654C245.772 339.428 245.769 339.196 245.722 338.971C245.368 337.295 244.369 335.727 242.675 334.729C242.251 334.479 241.745 334.279 241.2 334.19L241.2 334.184Z" fill="black"/>
<path d="M157.602 255.76C157.139 255.791 156.707 256.004 156.402 256.353C156.096 256.702 155.941 257.158 155.972 257.621C155.972 257.621 157.07 274.898 166.423 290.487C175.295 305.274 184.448 332.897 196.099 364.817C196.258 365.253 196.584 365.607 197.005 365.803C197.425 365.998 197.907 366.019 198.343 365.86C198.778 365.7 199.132 365.375 199.328 364.954C199.524 364.534 199.544 364.053 199.386 363.617C187.757 331.757 178.732 304.198 169.425 288.686C160.599 273.975 159.464 257.391 159.464 257.391C159.433 256.928 159.22 256.496 158.871 256.19C158.522 255.884 158.066 255.729 157.602 255.76Z" fill="black"/>
<path d="M164.653 267.127C164.213 266.981 163.732 267.015 163.317 267.223C162.902 267.43 162.587 267.794 162.44 268.235C162.44 268.235 161.778 270.216 161.302 272.627C160.825 275.038 160.321 277.827 161.407 280.237C161.598 280.659 161.949 280.989 162.383 281.153C162.817 281.317 163.299 281.302 163.722 281.112C163.931 281.017 164.12 280.882 164.278 280.715C164.435 280.548 164.558 280.351 164.639 280.136C164.721 279.921 164.759 279.692 164.752 279.462C164.745 279.233 164.693 279.007 164.599 278.797C164.261 278.047 164.307 275.471 164.735 273.307C165.163 271.143 165.761 269.34 165.761 269.34C165.907 268.9 165.873 268.419 165.665 268.004C165.457 267.589 165.093 267.274 164.653 267.127Z" fill="black"/>
<path d="M145.936 226.207C145.707 226.205 145.479 226.248 145.265 226.334C145.052 226.42 144.858 226.546 144.694 226.707C144.53 226.868 144.399 227.06 144.309 227.271C144.219 227.483 144.171 227.71 144.169 227.94C144.167 228.17 144.21 228.398 144.295 228.611C144.381 228.825 144.509 229.019 144.67 229.183C144.831 229.347 145.023 229.478 145.234 229.568C145.446 229.658 145.673 229.705 145.903 229.707C145.903 229.707 148.35 229.687 152.333 231.713C156.316 233.739 161.651 237.802 166.806 246.127C177.278 263.048 196.799 303.408 214.116 345.207C214.294 345.636 214.635 345.976 215.064 346.154C215.493 346.331 215.975 346.33 216.403 346.153C216.832 345.975 217.172 345.634 217.35 345.206C217.527 344.778 217.528 344.296 217.35 343.867C199.983 301.946 180.538 261.664 169.782 244.285C164.324 235.471 158.47 230.909 153.919 228.594C149.368 226.279 145.936 226.207 145.936 226.207Z" fill="black"/>
<path d="M205.563 401.285C205.35 401.199 205.122 401.155 204.892 401.157C204.663 401.159 204.435 401.206 204.224 401.295C203.796 401.476 203.458 401.82 203.284 402.25C203.11 402.68 203.113 403.161 203.294 403.589C203.294 403.589 209.753 418.792 210.638 446.085C210.653 446.549 210.852 446.987 211.191 447.304C211.529 447.622 211.98 447.791 212.444 447.776C212.908 447.761 213.347 447.562 213.664 447.223C213.981 446.884 214.151 446.433 214.136 445.969C213.234 418.162 206.518 402.225 206.518 402.225C206.429 402.014 206.298 401.822 206.134 401.66C205.97 401.499 205.776 401.372 205.563 401.285Z" fill="black"/>
<path d="M269.472 383.686C269.29 383.544 269.083 383.44 268.861 383.379C268.64 383.318 268.408 383.301 268.18 383.329C267.952 383.357 267.731 383.43 267.531 383.544C267.331 383.657 267.156 383.809 267.015 383.99C266.873 384.172 266.769 384.379 266.708 384.601C266.646 384.822 266.629 385.054 266.658 385.282C266.686 385.51 266.759 385.731 266.872 385.931C266.986 386.131 267.138 386.306 267.319 386.448C274.655 392.165 275.375 399.068 273.659 406.235C271.943 413.402 267.524 420.522 264.466 425.362C261.667 429.791 256.278 434.041 250.423 436.877C244.568 439.714 238.236 441.108 233.878 440.391C226.371 439.154 220.575 433.509 216.659 428.004C212.743 422.499 210.804 417.332 210.804 417.332C210.723 417.117 210.601 416.919 210.444 416.751C210.287 416.583 210.098 416.448 209.889 416.352C209.68 416.257 209.454 416.204 209.224 416.196C208.994 416.188 208.765 416.226 208.55 416.307C208.334 416.388 208.137 416.51 207.969 416.667C207.801 416.824 207.666 417.013 207.571 417.222C207.476 417.431 207.423 417.657 207.415 417.887C207.408 418.117 207.445 418.346 207.526 418.561C207.526 418.561 209.607 424.128 213.807 430.033C218.008 435.939 224.425 442.381 233.309 443.844C238.851 444.756 245.634 443.084 251.948 440.026C258.263 436.967 264.101 432.491 267.425 427.231C270.49 422.38 275.155 415.012 277.061 407.049C278.968 399.086 277.852 390.218 269.472 383.686Z" fill="black"/>
<path d="M264.874 386.356C263.932 386.146 262.784 386.438 262.077 387.102C260.662 388.43 260.55 390.293 260.778 392.516C261.108 395.729 261.714 401.413 259.823 406.573C257.932 411.732 253.8 416.49 243.532 418.211C240.516 418.715 236.23 418.832 232.075 417.051C227.92 415.27 223.778 411.646 220.88 404.117C219.945 401.691 218.664 399.772 216.432 399.264C215.317 399.01 213.819 399.624 213.19 400.68C212.562 401.735 212.434 402.954 212.518 404.512C212.973 412.855 219.243 425.153 230.788 430.969C240.431 435.827 255.784 434.124 265.972 428.989C266.386 428.78 266.7 428.415 266.846 427.974C266.991 427.534 266.956 427.053 266.747 426.639C266.644 426.434 266.501 426.251 266.326 426.1C266.152 425.95 265.95 425.836 265.732 425.764C265.513 425.692 265.283 425.664 265.054 425.681C264.824 425.698 264.601 425.76 264.395 425.864C255.259 430.468 240.267 431.826 232.362 427.844C222.19 422.72 216.379 411 216.015 404.323C215.974 403.576 216.065 403.442 216.132 403.147C216.565 403.564 217.172 404.229 217.614 405.377C220.787 413.618 225.699 418.13 230.696 420.272C235.694 422.414 240.66 422.241 244.11 421.664C255.315 419.786 260.857 413.927 263.11 407.78C265.363 401.632 264.582 395.317 264.259 392.16C264.109 390.703 264.411 390.162 264.442 390.008C264.581 390.087 264.638 390.081 264.893 390.326C268.027 393.356 269.835 399.034 270.677 403.973C271.518 408.911 271.481 412.992 271.481 412.992C271.477 413.456 271.657 413.903 271.982 414.234C272.307 414.565 272.75 414.754 273.214 414.758C273.678 414.762 274.124 414.582 274.455 414.257C274.786 413.933 274.975 413.489 274.979 413.026C274.979 413.026 275.024 408.657 274.126 403.385C273.228 398.114 271.476 391.822 267.327 387.811H267.323C266.584 387.099 265.816 386.569 264.874 386.36L264.874 386.356Z" fill="black"/>
<path fill-rule="evenodd" clip-rule="evenodd" d="M273.23 413.007C271.068 418.157 268.13 422.837 265.945 426.297C265.707 426.677 265.452 427.047 265.183 427.427C255.521 432.297 240.349 433.827 231.575 429.407C220.716 423.937 214.675 411.927 214.266 404.417C213.969 398.947 217.644 400.587 219.247 404.747C225.318 420.517 237.355 421.017 243.821 419.937C265.294 416.337 263.171 398.707 262.518 392.337C262.116 388.417 263.742 386.787 266.11 389.067C273.392 396.107 273.23 413.007 273.23 413.007Z" fill="black"/>
<path d="M222.048 392.241C217.74 395.887 215.942 401.43 215.942 401.43C215.792 401.869 215.822 402.35 216.026 402.767C216.23 403.183 216.591 403.502 217.03 403.653C217.248 403.727 217.478 403.758 217.707 403.743C217.937 403.729 218.161 403.669 218.367 403.568C218.574 403.467 218.758 403.326 218.91 403.154C219.062 402.981 219.178 402.78 219.253 402.563C219.253 402.563 221.009 397.706 224.309 394.912C224.485 394.764 224.629 394.582 224.735 394.378C224.84 394.174 224.904 393.951 224.923 393.721C224.942 393.492 224.916 393.262 224.846 393.043C224.776 392.824 224.663 392.621 224.515 392.446C224.366 392.27 224.184 392.126 223.98 392.02C223.776 391.915 223.553 391.851 223.324 391.832C223.095 391.813 222.864 391.839 222.645 391.909C222.426 391.979 222.223 392.092 222.048 392.241Z" fill="black"/>
<path d="M220.718 127.524C215.971 127.817 212.651 129.115 210.376 131.242C207.343 134.079 206.501 138.043 206.13 141.91C205.389 149.643 203.08 192.819 202.554 203.5C202.096 212.799 209.241 221.839 218.999 222.985C219 222.985 219 222.985 219.001 222.985C227.663 223.991 271.526 228.005 274.267 228.256C273.66 249.829 256.729 270.059 256.729 270.059C256.492 270.337 256.347 270.683 256.316 271.048C256.285 271.413 256.37 271.778 256.557 272.092C256.745 272.407 257.026 272.654 257.362 272.8C257.698 272.946 258.071 272.984 258.429 272.906C271.95 269.988 279.553 258.127 283.753 247.326C287.379 238 288.358 230.424 288.616 228.201C290.297 228.464 292.107 228.699 295.276 228.924C299.345 229.212 304.418 229.484 309.685 229.713C320.217 230.172 331.482 230.464 337.052 230.377C342.876 230.292 346.967 228.394 349.604 225.697C352.242 223.001 353.403 219.647 353.933 216.785C354.464 213.9 355.865 203.308 357.325 191.701C358.785 180.095 360.275 167.639 360.892 161.473C361.528 155.112 360.722 150.276 358.46 146.817C356.199 143.358 352.499 141.531 348.21 141.088H348.206C344.367 140.688 317.449 137.558 289.731 134.41C262.012 131.263 233.541 128.095 225.954 127.572C224.041 127.441 222.3 127.428 220.718 127.525L220.718 127.524ZM220.968 131.01C222.355 130.928 223.928 130.94 225.714 131.063C232.924 131.56 261.622 134.738 289.335 137.885C317.048 141.032 343.823 144.147 347.847 144.567C347.847 144.567 347.848 144.567 347.849 144.567C351.416 144.935 353.889 146.218 355.53 148.729C357.172 151.24 357.998 155.235 357.409 161.124C356.802 167.198 355.311 179.671 353.852 191.262C352.394 202.853 350.938 213.724 350.491 216.149C350.04 218.587 349.078 221.232 347.102 223.251C345.127 225.269 342.114 226.803 336.999 226.877C331.628 226.96 320.325 226.672 309.837 226.215C304.593 225.987 299.543 225.717 295.524 225.432C291.506 225.147 288.349 224.792 287.565 224.598C287.321 224.538 287.066 224.531 286.819 224.578C286.572 224.625 286.338 224.725 286.132 224.87C285.927 225.016 285.756 225.204 285.63 225.422C285.504 225.64 285.427 225.883 285.403 226.133C285.403 226.133 284.488 235.778 280.491 246.057C277.125 254.714 271.631 263.531 262.907 267.647C268.304 260.097 278.07 244.124 277.897 226.659C277.893 226.225 277.728 225.809 277.434 225.491C277.14 225.172 276.739 224.974 276.308 224.934C276.308 224.934 228.032 220.51 219.407 219.508H219.405C211.61 218.592 205.687 211.033 206.05 203.672C206.574 193.034 208.927 149.412 209.614 142.245C209.958 138.662 210.699 135.735 212.768 133.799C214.321 132.348 216.807 131.257 220.968 131.01Z" fill="black"/>
<path d="M228.936 147.483C228.707 147.462 228.477 147.487 228.257 147.556C228.038 147.625 227.834 147.737 227.658 147.884C227.481 148.032 227.336 148.213 227.23 148.417C227.123 148.621 227.058 148.843 227.038 149.073C226.997 149.535 227.142 149.994 227.44 150.349C227.737 150.705 228.164 150.928 228.626 150.969L317.108 158.83C317.57 158.871 318.03 158.727 318.385 158.429C318.741 158.131 318.964 157.704 319.005 157.242C319.025 157.014 319 156.783 318.932 156.564C318.863 156.344 318.752 156.141 318.604 155.964C318.457 155.788 318.276 155.643 318.072 155.536C317.868 155.43 317.646 155.364 317.417 155.344L228.936 147.483Z" fill="black"/>
<path d="M229.059 166.969C228.596 166.949 228.143 167.115 227.802 167.429C227.46 167.742 227.257 168.179 227.237 168.643C227.218 169.106 227.383 169.559 227.697 169.9C228.011 170.242 228.447 170.445 228.911 170.465L243.403 171.074C243.867 171.094 244.319 170.929 244.661 170.615C245.003 170.301 245.206 169.864 245.225 169.401C245.245 168.937 245.08 168.485 244.766 168.143C244.452 167.801 244.015 167.598 243.552 167.578L229.059 166.969Z" fill="black"/>
<path d="M259.7 169.42C259.237 169.394 258.782 169.553 258.436 169.862C258.09 170.171 257.881 170.605 257.854 171.069C257.828 171.532 257.987 171.987 258.296 172.333C258.606 172.679 259.039 172.888 259.503 172.914L328.186 176.793C328.65 176.819 329.105 176.66 329.451 176.351C329.797 176.042 330.006 175.608 330.032 175.145C330.058 174.681 329.899 174.227 329.59 173.88C329.281 173.534 328.847 173.325 328.384 173.299L259.7 169.42Z" fill="black"/>
<path d="M227.009 184.834C226.78 184.812 226.549 184.836 226.329 184.903C226.11 184.971 225.905 185.081 225.728 185.227C225.551 185.373 225.404 185.553 225.297 185.756C225.189 185.959 225.122 186.182 225.1 186.41C225.079 186.639 225.102 186.87 225.17 187.09C225.237 187.31 225.347 187.514 225.493 187.691C225.64 187.868 225.82 188.015 226.023 188.123C226.226 188.23 226.448 188.297 226.677 188.319L263.212 191.789C263.441 191.811 263.672 191.788 263.892 191.72C264.111 191.653 264.316 191.542 264.493 191.396C264.67 191.249 264.817 191.069 264.924 190.866C265.032 190.663 265.098 190.44 265.12 190.211C265.163 189.749 265.022 189.289 264.726 188.931C264.43 188.574 264.004 188.348 263.542 188.305L227.009 184.834Z" fill="black"/>
<path d="M276.46 188.201C275.997 188.169 275.54 188.322 275.19 188.626C274.84 188.931 274.625 189.362 274.593 189.824C274.56 190.287 274.713 190.744 275.018 191.094C275.322 191.444 275.753 191.659 276.216 191.692L292.239 192.813C292.468 192.829 292.699 192.799 292.917 192.726C293.135 192.653 293.336 192.538 293.509 192.387C293.683 192.236 293.825 192.053 293.927 191.847C294.03 191.641 294.09 191.417 294.106 191.188C294.139 190.725 293.986 190.268 293.681 189.918C293.377 189.568 292.946 189.353 292.483 189.321L276.46 188.201Z" fill="black"/>
<path d="M313.071 192.18C312.608 192.155 312.154 192.315 311.808 192.625C311.463 192.935 311.255 193.369 311.229 193.832C311.204 194.296 311.364 194.75 311.674 195.095C311.984 195.441 312.418 195.649 312.882 195.674L335.538 196.895C335.768 196.907 335.997 196.874 336.214 196.798C336.431 196.721 336.631 196.603 336.802 196.449C336.973 196.296 337.112 196.11 337.211 195.902C337.31 195.695 337.368 195.47 337.38 195.24C337.392 195.011 337.359 194.781 337.283 194.564C337.206 194.347 337.088 194.148 336.934 193.977C336.781 193.806 336.595 193.667 336.387 193.567C336.18 193.468 335.955 193.411 335.725 193.399L313.071 192.18Z" fill="black"/>
<path d="M288.546 208.397L279.36 208.608C278.896 208.618 278.456 208.813 278.135 209.148C277.815 209.484 277.641 209.933 277.651 210.397C277.662 210.861 277.856 211.301 278.192 211.622C278.527 211.942 278.976 212.116 279.44 212.106L288.626 211.897C288.856 211.891 289.082 211.841 289.293 211.748C289.503 211.655 289.693 211.522 289.851 211.355C290.01 211.189 290.135 210.993 290.217 210.779C290.3 210.564 290.34 210.335 290.335 210.106C290.324 209.642 290.13 209.201 289.794 208.881C289.459 208.56 289.01 208.386 288.546 208.397Z" fill="black"/>
<path d="M224.6 200.86C224.14 200.805 223.676 200.935 223.311 201.222C222.946 201.508 222.71 201.928 222.655 202.389C222.6 202.85 222.73 203.313 223.017 203.678C223.304 204.043 223.724 204.279 224.184 204.334L263.475 209.033C263.936 209.089 264.4 208.958 264.765 208.672C265.13 208.385 265.366 207.965 265.421 207.504C265.476 207.043 265.346 206.58 265.059 206.215C264.772 205.85 264.352 205.614 263.891 205.559L224.6 200.86Z" fill="black"/>
</g>
<defs>
<clipPath id="clip0_1_429">
<rect width="360.114" height="457.661" fill="white" transform="translate(0.987427 0.659302)"/>
</clipPath>
</defs>
</svg>
