<svg width="459" height="410" viewBox="0 0 459 410" fill="none" xmlns="http://www.w3.org/2000/svg">
<g clip-path="url(#clip0_1_2)">
<path d="M63.2164 26.3667C46.4425 26.3667 32.8066 40.0029 32.8066 56.7773C32.8066 73.5517 46.4425 87.1879 63.2164 87.1878C79.9903 87.1878 93.6241 73.5516 93.6241 56.7773C93.6241 40.0029 79.9903 26.3667 63.2164 26.3667ZM63.2164 29.8618C78.1012 29.8619 90.129 41.892 90.129 56.7773C90.129 71.6625 78.1012 83.6906 63.2164 83.6907C48.3315 83.6907 36.3017 71.6626 36.3017 56.7773C36.3017 41.892 48.3315 29.8618 63.2164 29.8618Z" fill="black"/>
<path d="M65.931 5.73368C65.7026 5.70713 65.471 5.72588 65.2498 5.78885C65.0286 5.85181 64.822 5.95777 64.6418 6.10065C64.4615 6.24353 64.3114 6.42053 64.1996 6.62154C64.0878 6.82255 64.0167 7.04362 63.9905 7.27211L62.4883 20.2995C62.4352 20.7605 62.5675 21.2238 62.856 21.5874C63.1445 21.9509 63.5656 22.185 64.0267 22.2381C64.255 22.2644 64.4861 22.2454 64.7071 22.1823C64.9281 22.1193 65.1347 22.0133 65.3147 21.8704C65.4947 21.7275 65.6447 21.5506 65.7563 21.3497C65.868 21.1489 65.939 20.928 65.9652 20.6997L67.4674 7.6723C67.5205 7.21153 67.3885 6.74852 67.1004 6.38502C66.8123 6.02151 66.3918 5.78724 65.931 5.73368Z" fill="black"/>
<path fill-rule="evenodd" clip-rule="evenodd" d="M82.0993 25.5933C82.0993 25.9737 81.948 26.3385 81.6791 26.6075C81.4101 26.8765 81.0454 27.0276 80.665 27.0276C80.2846 27.0276 79.9197 26.8765 79.6508 26.6075C79.3818 26.3385 79.2307 25.9737 79.2307 25.5933C79.2307 25.2129 79.3818 24.8481 79.6508 24.5791C79.9197 24.3101 80.2846 24.159 80.665 24.159C81.0454 24.159 81.4101 24.3101 81.6791 24.5791C81.948 24.8481 82.0993 25.2129 82.0993 25.5933Z" fill="black"/>
<path fill-rule="evenodd" clip-rule="evenodd" d="M99.6736 65.7637C99.6736 66.1441 99.5225 66.5089 99.2535 66.7779C98.9846 67.0469 98.6196 67.198 98.2392 67.198C97.8589 67.198 97.4942 67.0469 97.2252 66.7779C96.9562 66.5089 96.8049 66.1441 96.8049 65.7637C96.8049 65.3833 96.9562 65.0185 97.2252 64.7495C97.4942 64.4805 97.8589 64.3294 98.2392 64.3294C98.6196 64.3294 98.9846 64.4805 99.2535 64.7495C99.5225 65.0185 99.6736 65.3833 99.6736 65.7637Z" fill="black"/>
<path fill-rule="evenodd" clip-rule="evenodd" d="M197.976 115.967C197.976 116.348 197.825 116.713 197.556 116.981C197.287 117.25 196.922 117.402 196.542 117.402C196.161 117.402 195.796 117.25 195.527 116.981C195.258 116.713 195.107 116.348 195.107 115.967C195.107 115.587 195.258 115.222 195.527 114.953C195.796 114.684 196.161 114.533 196.542 114.533C196.922 114.533 197.287 114.684 197.556 114.953C197.825 115.222 197.976 115.587 197.976 115.967Z" fill="black"/>
<path fill-rule="evenodd" clip-rule="evenodd" d="M43.6037 88.1203C43.6037 88.5007 43.4527 88.8655 43.1837 89.1345C42.9147 89.4035 42.5498 89.5546 42.1694 89.5546C41.789 89.5546 41.4244 89.4035 41.1554 89.1345C40.8864 88.8655 40.7351 88.5007 40.7351 88.1203C40.7351 87.7399 40.8864 87.3751 41.1554 87.1061C41.4244 86.8372 41.789 86.686 42.1694 86.686C42.5498 86.686 42.9147 86.8372 43.1837 87.1061C43.4527 87.3751 43.6037 87.7399 43.6037 88.1203Z" fill="black"/>
<path d="M112.704 27.7261L96.5599 37.1377C96.1591 37.3716 95.8677 37.7552 95.7497 38.2039C95.6317 38.6527 95.6967 39.13 95.9305 39.5308C96.1644 39.9316 96.548 40.223 96.9968 40.341C97.4455 40.4591 97.9227 40.394 98.3235 40.1602L114.467 30.7487C114.868 30.5148 115.16 30.1312 115.278 29.6825C115.396 29.2337 115.331 28.7564 115.097 28.3556C114.863 27.9548 114.48 27.6634 114.031 27.5454C113.582 27.4273 113.105 27.4924 112.704 27.7261Z" fill="black"/>
<path d="M99.3653 51.0961C99.1369 51.0708 98.9056 51.0907 98.6849 51.1546C98.4641 51.2186 98.2583 51.3255 98.0788 51.4691C97.8994 51.6127 97.75 51.7902 97.6392 51.9916C97.5283 52.193 97.4581 52.4142 97.4328 52.6426C97.4074 52.8711 97.4274 53.1022 97.4914 53.323C97.5554 53.5438 97.6622 53.7498 97.8058 53.9292C97.9494 54.1087 98.1268 54.2581 98.3282 54.3689C98.5295 54.4798 98.7508 54.5499 98.9792 54.5752L105.589 55.3092C105.818 55.3346 106.049 55.3147 106.27 55.2508C106.49 55.1868 106.696 55.0799 106.876 54.9363C107.055 54.7927 107.205 54.6151 107.316 54.4138C107.426 54.2124 107.496 53.9912 107.522 53.7627C107.547 53.5343 107.527 53.3031 107.463 53.0823C107.399 52.8616 107.292 52.6556 107.149 52.4761C107.005 52.2966 106.828 52.1472 106.626 52.0364C106.425 51.9256 106.204 51.8555 105.975 51.8302L99.3653 51.0961Z" fill="black"/>
<path d="M88.1924 80.2398C88.0052 80.1064 87.7936 80.0112 87.5695 79.9596C87.3455 79.908 87.1135 79.901 86.8868 79.9391C86.6601 79.9772 86.443 80.0596 86.2481 80.1816C86.0532 80.3036 85.8845 80.4628 85.7511 80.6501C85.6177 80.8373 85.5224 81.049 85.4709 81.273C85.4193 81.497 85.4124 81.729 85.4505 81.9558C85.4886 82.1825 85.5708 82.3995 85.6928 82.5943C85.8148 82.7892 85.9741 82.9581 86.1614 83.0914L99.7414 92.7624C99.9286 92.8958 100.14 92.9911 100.364 93.0427C100.588 93.0943 100.82 93.1012 101.047 93.0631C101.274 93.025 101.491 92.9426 101.685 92.8206C101.88 92.6987 102.049 92.5395 102.183 92.3522C102.452 91.9742 102.559 91.505 102.482 91.0476C102.405 90.5902 102.15 90.182 101.772 89.9128L88.1924 80.2398Z" fill="black"/>
<path d="M72.7523 90.7454C72.401 91.0484 72.1844 91.4785 72.1501 91.9413C72.1158 92.404 72.2665 92.8614 72.5693 93.2129L75.256 96.336C75.559 96.6874 75.989 96.9041 76.4518 96.9384C76.9145 96.9727 77.3719 96.8218 77.7234 96.519C78.0751 96.2163 78.2923 95.7863 78.327 95.3235C78.3617 94.8608 78.211 94.4033 77.9084 94.0515L75.2218 90.9304C75.0719 90.756 74.8892 90.6128 74.6839 90.5091C74.4786 90.4054 74.2549 90.3431 74.0255 90.3259C73.7962 90.3088 73.5655 90.337 73.3471 90.4089C73.1286 90.4809 72.9266 90.5952 72.7523 90.7454Z" fill="black"/>
<path d="M56.8476 90.4859C56.6312 90.4084 56.4015 90.3742 56.1719 90.3854C55.9423 90.3966 55.7172 90.4529 55.5093 90.5511C55.3015 90.6493 55.115 90.7876 54.9606 90.9579C54.8061 91.1282 54.6868 91.3273 54.6094 91.5437L51.4281 100.418C51.3505 100.635 51.3163 100.864 51.3275 101.094C51.3387 101.324 51.3949 101.549 51.4932 101.757C51.5914 101.965 51.7296 102.151 51.8999 102.305C52.0702 102.46 52.2694 102.579 52.4858 102.657C52.7022 102.734 52.9319 102.768 53.1615 102.757C53.3911 102.746 53.6163 102.69 53.8241 102.591C54.032 102.493 54.2184 102.355 54.3729 102.185C54.5273 102.014 54.6466 101.815 54.724 101.599L57.9054 92.7242C57.9829 92.5078 58.0171 92.2782 58.0059 92.0486C57.9947 91.8189 57.9385 91.5938 57.8403 91.3859C57.742 91.1781 57.6038 90.9916 57.4335 90.8372C57.2632 90.6828 57.064 90.5634 56.8476 90.4859Z" fill="black"/>
<path d="M26.7395 72.1454C26.5262 72.06 26.298 72.0175 26.0682 72.0203C25.8384 72.023 25.6115 72.071 25.4002 72.1615L13.8271 77.1187C13.6158 77.2092 13.4245 77.3405 13.264 77.505C13.1034 77.6695 12.9768 77.8641 12.8914 78.0775C12.8061 78.291 12.7636 78.5192 12.7665 78.7491C12.7694 78.9789 12.8175 79.206 12.9081 79.4173C12.9987 79.6286 13.13 79.82 13.2945 79.9805C13.459 80.1411 13.6535 80.2676 13.867 80.353C14.0804 80.4383 14.3087 80.4808 14.5385 80.4779C14.7684 80.475 14.9954 80.4269 15.2067 80.3363L26.7797 75.3791C26.991 75.2886 27.1825 75.1573 27.3431 74.9928C27.5036 74.8282 27.6301 74.6337 27.7155 74.4202C27.8008 74.2068 27.8433 73.9786 27.8404 73.7487C27.8375 73.5189 27.7894 73.2918 27.6987 73.0805C27.6081 72.8693 27.4767 72.678 27.3121 72.5176C27.1476 72.3571 26.953 72.2307 26.7395 72.1454Z" fill="black"/>
<path d="M17.3201 50.1068C17.0903 50.0996 16.8614 50.1377 16.6464 50.219C16.4314 50.3003 16.2345 50.4232 16.067 50.5807C15.8995 50.7381 15.7646 50.927 15.6701 51.1366C15.5756 51.3461 15.5233 51.5723 15.5162 51.802C15.5091 52.0318 15.5472 52.2607 15.6285 52.4758C15.7098 52.6908 15.8328 52.8877 15.9902 53.0552C16.1476 53.2227 16.3364 53.3576 16.546 53.4521C16.7555 53.5466 16.9817 53.5988 17.2115 53.6059L21.1349 53.7266C21.5986 53.7411 22.049 53.5709 22.3873 53.2534C22.7256 52.9359 22.9239 52.497 22.9387 52.0333C22.9459 51.8035 22.9078 51.5746 22.8265 51.3596C22.7451 51.1445 22.6222 50.9477 22.4647 50.7801C22.3073 50.6126 22.1185 50.4778 21.909 50.3833C21.6994 50.2888 21.4732 50.2365 21.2434 50.2294L17.3201 50.1068Z" fill="black"/>
<path d="M20.3728 28.5044C19.9103 28.5429 19.4821 28.7636 19.1823 29.1178C18.8829 29.4722 18.7366 29.9311 18.7754 30.3934C18.8143 30.8557 19.0351 31.2837 19.3894 31.5833L24.095 35.5631C24.4495 35.8624 24.9083 36.0088 25.3706 35.97C25.833 35.9311 26.2609 35.7103 26.5605 35.3559C26.8601 35.0017 27.0068 34.543 26.9683 34.0807C26.9299 33.6184 26.7094 33.1903 26.3554 32.8904L21.6497 28.9106C21.474 28.7624 21.2707 28.6502 21.0516 28.5805C20.8325 28.5108 20.6019 28.4849 20.3728 28.5044Z" fill="black"/>
<path d="M36.7883 17.4016C36.4172 17.6801 36.1718 18.0946 36.1062 18.5539C36.0406 19.0132 36.1601 19.4798 36.4384 19.851L38.6404 22.7891C38.7783 22.9732 38.9512 23.1282 39.1491 23.2454C39.3469 23.3626 39.5658 23.4397 39.7934 23.4722C40.0211 23.5047 40.2532 23.492 40.4759 23.4348C40.6987 23.3777 40.9079 23.2772 41.0918 23.139C41.4629 22.8606 41.7081 22.4461 41.7737 21.9868C41.8394 21.5275 41.72 21.0609 41.4417 20.6896L39.2377 17.7515C38.9592 17.3804 38.5448 17.1351 38.0855 17.0695C37.6262 17.0039 37.1596 17.1233 36.7883 17.4016Z" fill="black"/>
<path d="M162.212 85.1728C161.604 85.2785 160.999 85.5063 160.43 85.8304C158.155 87.1266 155.84 89.8279 152.569 94.7734C146.109 104.541 101.892 172.558 92.2524 188.326C82.7541 203.844 79.8476 204.41 71.3324 211.983C66.8925 215.927 64.4192 220.179 61.6335 223.046C58.8479 225.913 55.9855 227.628 49.7287 227.189C42.8937 226.709 38.9105 227.597 35.845 229.863C32.7796 232.13 30.8338 235.325 27.0752 239.428C22.9906 243.88 17.7772 252.05 13.467 259.206C9.15689 266.362 5.81535 272.461 5.81535 272.461C5.59254 272.868 5.54045 273.346 5.67056 273.792C5.80067 274.237 6.10227 274.613 6.50913 274.836C6.71073 274.946 6.93221 275.016 7.16081 275.041C7.38941 275.066 7.62064 275.046 7.84139 274.981C8.06214 274.917 8.26806 274.81 8.44732 274.666C8.62657 274.522 8.77565 274.344 8.88608 274.142C8.88608 274.142 12.1963 268.1 16.4654 261.012C20.7345 253.924 26.0281 245.746 29.6553 241.793C33.5982 237.489 35.6224 234.38 37.9263 232.677C40.2303 230.973 43.0157 230.228 49.4833 230.682C56.5394 231.177 60.916 228.806 64.1432 225.485C67.3705 222.164 69.685 218.128 73.6571 214.6C73.6571 214.599 73.6571 214.598 73.6571 214.598C81.944 207.226 85.5868 205.923 95.2387 190.154C95.2387 190.153 95.2387 190.152 95.2387 190.152C104.729 174.628 149.1 106.363 155.489 96.7038C158.643 91.9357 160.961 89.5567 162.161 88.873C162.761 88.5311 162.926 88.587 163.008 88.6115C163.09 88.6361 163.314 88.7609 163.631 89.237C165.456 91.9773 168.166 95.8207 172.984 96.7119C176.871 97.4318 180.314 98.2992 183.379 104.714C183.379 104.714 183.379 104.715 183.379 104.716C185.133 108.375 188.972 114.492 192.42 119.816C195.869 125.141 198.902 129.6 198.902 129.6C199.163 129.984 199.566 130.248 200.021 130.335C200.477 130.422 200.949 130.324 201.333 130.063C201.523 129.933 201.686 129.768 201.812 129.576C201.938 129.384 202.025 129.169 202.068 128.943C202.111 128.717 202.109 128.485 202.062 128.26C202.015 128.035 201.925 127.821 201.795 127.631C201.795 127.631 198.78 123.2 195.356 117.914C191.933 112.629 188.078 106.418 186.536 103.204V103.201C183.032 95.8686 177.806 94.046 173.622 93.271C170.368 92.6692 168.302 89.9369 166.543 87.2963C165.965 86.4277 165.163 85.6015 164.007 85.2571C163.43 85.085 162.819 85.0671 162.212 85.1728Z" fill="black"/>
<path d="M112.702 151.601L37.7757 154.233C37.312 154.249 36.8738 154.449 36.5574 154.789C36.241 155.128 36.0723 155.579 36.0885 156.043C36.1048 156.507 36.3047 156.945 36.6441 157.261C36.9835 157.578 37.4346 157.746 37.8983 157.73L112.825 155.1C113.288 155.083 113.727 154.884 114.043 154.544C114.359 154.205 114.528 153.754 114.512 153.29C114.504 153.06 114.451 152.834 114.356 152.625C114.261 152.416 114.125 152.227 113.957 152.07C113.789 151.913 113.591 151.791 113.376 151.711C113.161 151.63 112.932 151.593 112.702 151.601Z" fill="black"/>
<path d="M31.1273 144.58C30.9622 144.42 30.7671 144.294 30.5533 144.21C30.3395 144.125 30.1112 144.084 29.8813 144.087C29.6514 144.091 29.4244 144.14 29.2135 144.232C29.0026 144.323 28.8117 144.455 28.6518 144.62C28.2507 145.035 28.0497 145.123 27.777 145.188C27.5044 145.253 27.0661 145.258 26.3613 145.171C24.9518 144.999 22.6547 144.503 19.2828 144.624C15.2962 144.769 12.4838 147.571 11.0177 150.267C10.2846 151.616 9.8417 152.956 9.7689 154.233C9.73287 154.872 9.76889 155.515 10.0826 156.188C10.3922 156.861 11.1524 157.551 12.0051 157.704C12.9745 157.878 14.2764 157.891 16.0893 157.911C17.9024 157.931 20.0737 157.917 22.1705 157.891C26.364 157.838 30.2566 157.73 30.2566 157.73C30.4863 157.724 30.7126 157.673 30.9224 157.579C31.1323 157.485 31.3216 157.351 31.4796 157.184C31.6376 157.017 31.7611 156.82 31.8432 156.606C31.9253 156.391 31.9642 156.162 31.9578 155.932C31.9515 155.703 31.9 155.476 31.8063 155.267C31.7125 155.057 31.5783 154.867 31.4114 154.709C31.2444 154.551 31.048 154.428 30.8333 154.346C30.6186 154.264 30.3898 154.225 30.16 154.231C30.16 154.231 26.288 154.337 22.1262 154.39C20.0454 154.416 17.8918 154.43 16.1276 154.41C14.7095 154.394 13.8633 154.334 13.3102 154.289C13.3648 153.743 13.5945 152.856 14.0925 151.941C15.149 149.997 17.0433 148.207 19.4094 148.122C22.3902 148.014 24.2249 148.437 25.935 148.647C26.7901 148.751 27.6587 148.814 28.5895 148.592C29.5201 148.37 30.4206 147.827 31.1675 147.056C31.3275 146.891 31.4535 146.696 31.538 146.482C31.6226 146.268 31.6642 146.04 31.6605 145.81C31.6567 145.58 31.6078 145.353 31.5163 145.142C31.4248 144.931 31.2926 144.74 31.1273 144.58Z" fill="black"/>
<path d="M131.625 105.11C127.016 104.936 121.13 105.921 114.007 108.871C106.548 111.964 100.987 118.555 97.2056 124.303C94.9799 127.686 93.5773 130.415 92.6266 132.424C88.3979 127.123 84.0781 123.29 79.1673 121.265C73.5528 118.948 67.2967 118.988 60.0772 121.21C52.7984 123.449 48.6492 127.025 46.081 130.113C44.7967 131.657 43.8943 133.073 43.1932 134.063C42.4927 135.052 41.9665 135.458 41.9665 135.458C35.6952 137.601 32.6437 143.645 32.6437 143.645C32.5365 143.849 32.4704 144.071 32.4493 144.3C32.4282 144.529 32.4524 144.76 32.5206 144.98C32.5887 145.199 32.6995 145.403 32.8466 145.58C32.9937 145.757 33.1742 145.903 33.3777 146.01C33.7884 146.226 34.268 146.27 34.7111 146.132C35.1542 145.995 35.5245 145.687 35.7406 145.276C35.7406 145.276 38.4561 140.357 43.0987 138.77C44.5504 138.273 45.2661 137.188 46.0468 136.086C46.8274 134.983 47.6432 133.706 48.7696 132.351C51.0225 129.643 54.4531 126.602 61.1048 124.557C67.8058 122.494 73.0603 122.532 77.832 124.5C82.6037 126.469 87.0147 130.486 91.6211 136.771C91.8057 137.023 92.0545 137.221 92.3413 137.345C92.6282 137.468 92.9427 137.513 93.2525 137.473C93.5623 137.434 93.8561 137.313 94.1032 137.122C94.3503 136.931 94.5416 136.677 94.6577 136.387C94.6577 136.387 96.5472 131.668 100.127 126.226C103.707 120.784 108.967 114.75 115.344 112.104C128.816 106.526 136.966 109.005 139.347 110.99C139.704 111.287 140.163 111.43 140.625 111.388C141.087 111.347 141.513 111.123 141.811 110.767C141.958 110.591 142.069 110.387 142.138 110.167C142.206 109.948 142.231 109.717 142.21 109.488C142.189 109.259 142.124 109.036 142.017 108.833C141.91 108.629 141.764 108.449 141.587 108.302C139.566 106.616 136.232 105.284 131.623 105.11L131.625 105.11Z" fill="black"/>
<path d="M161.623 132.478C161.397 132.437 161.165 132.441 160.94 132.489C160.715 132.538 160.502 132.631 160.314 132.761C159.932 133.025 159.671 133.43 159.588 133.886C159.504 134.342 159.606 134.813 159.869 135.195L162.196 138.561C162.326 138.751 162.493 138.912 162.686 139.037C162.879 139.162 163.095 139.248 163.321 139.289C163.547 139.331 163.779 139.327 164.004 139.279C164.229 139.231 164.442 139.138 164.631 139.008C164.82 138.877 164.982 138.71 165.106 138.517C165.231 138.324 165.316 138.108 165.358 137.882C165.399 137.656 165.395 137.424 165.347 137.199C165.299 136.974 165.206 136.761 165.075 136.572L162.749 133.206C162.618 133.016 162.452 132.855 162.258 132.73C162.065 132.605 161.849 132.519 161.623 132.478Z" fill="black"/>
<path d="M171.155 150.985C170.931 150.931 170.699 150.921 170.472 150.956C170.244 150.991 170.026 151.071 169.829 151.19C169.633 151.31 169.462 151.467 169.326 151.652C169.191 151.838 169.093 152.048 169.039 152.272C168.984 152.495 168.974 152.727 169.01 152.954C169.045 153.181 169.125 153.399 169.244 153.596L177.996 167.98C178.115 168.177 178.272 168.348 178.458 168.483C178.644 168.619 178.854 168.717 179.077 168.771C179.301 168.826 179.532 168.835 179.76 168.8C179.987 168.765 180.205 168.685 180.401 168.566C180.797 168.324 181.081 167.936 181.191 167.485C181.301 167.035 181.227 166.559 180.986 166.162L172.235 151.778C171.994 151.381 171.605 151.096 171.155 150.985Z" fill="black"/>
<path d="M160.531 163.236C160.308 163.178 160.077 163.164 159.849 163.195C159.621 163.226 159.402 163.302 159.204 163.417C159.005 163.533 158.831 163.687 158.692 163.87C158.553 164.052 158.451 164.261 158.392 164.483C158.333 164.705 158.319 164.937 158.35 165.165C158.381 165.392 158.456 165.612 158.572 165.811L160.959 169.911C161.075 170.11 161.228 170.283 161.411 170.423C161.594 170.562 161.803 170.664 162.025 170.722C162.247 170.781 162.479 170.795 162.706 170.764C162.934 170.734 163.154 170.658 163.352 170.542C163.551 170.427 163.725 170.273 163.864 170.09C164.003 169.907 164.105 169.699 164.164 169.477C164.222 169.254 164.236 169.023 164.206 168.795C164.175 168.567 164.099 168.348 163.984 168.149L161.597 164.049C161.481 163.85 161.327 163.676 161.145 163.537C160.962 163.397 160.753 163.295 160.531 163.236Z" fill="black"/>
<path d="M167.018 109.651C166.616 109.882 166.322 110.263 166.2 110.71C166.079 111.158 166.14 111.635 166.37 112.038C177.416 131.298 187.396 151.228 196.412 171.767C196.599 172.192 196.946 172.525 197.378 172.694C197.81 172.862 198.292 172.852 198.717 172.666C199.141 172.479 199.474 172.132 199.643 171.7C199.812 171.268 199.802 170.786 199.616 170.361C190.552 149.715 180.516 129.673 169.405 110.298C169.174 109.896 168.793 109.602 168.345 109.481C167.898 109.359 167.42 109.421 167.018 109.651Z" fill="black"/>
<path d="M24.6199 347.492C17.0006 347.835 11.3599 349.737 6.62587 352.201C6.42197 352.308 6.24097 352.453 6.09322 352.629C5.94547 352.805 5.8339 353.009 5.76481 353.228C5.69572 353.447 5.67044 353.678 5.69053 353.907C5.71062 354.136 5.77561 354.358 5.88182 354.562C6.09615 354.974 6.46499 355.283 6.90728 355.423C7.34957 355.562 7.82916 355.52 8.24067 355.306C12.629 353.022 17.6541 351.308 24.7788 350.987C25.2422 350.966 25.6783 350.762 25.9913 350.419C26.3043 350.077 26.4685 349.624 26.4479 349.161C26.4375 348.931 26.382 348.706 26.2845 348.498C26.187 348.289 26.0494 348.103 25.8797 347.947C25.7099 347.792 25.5113 347.672 25.2951 347.594C25.079 347.516 24.8496 347.481 24.6199 347.492Z" fill="black"/>
<path d="M38.932 345.69L35.2056 345.837C34.7419 345.854 34.3043 346.056 33.989 346.396C33.6737 346.737 33.5067 347.189 33.5245 347.652C33.5333 347.882 33.5874 348.108 33.6836 348.317C33.7798 348.526 33.9162 348.714 34.085 348.87C34.2539 349.026 34.4518 349.147 34.6676 349.227C34.8834 349.307 35.1126 349.343 35.3424 349.334L39.0687 349.187C39.5324 349.169 39.9701 348.968 40.2853 348.627C40.6006 348.287 40.7677 347.835 40.7499 347.371C40.741 347.141 40.6869 346.915 40.5907 346.706C40.4946 346.498 40.3581 346.31 40.1893 346.154C40.0205 345.997 39.8226 345.876 39.6069 345.796C39.3911 345.717 39.1617 345.681 38.932 345.69Z" fill="black"/>
<path d="M230.269 338.414C167.93 339.663 106.051 341.236 48.4517 345.694C48.2224 345.711 47.9989 345.774 47.7939 345.878C47.5888 345.982 47.4063 346.125 47.2567 346.3C47.1071 346.475 46.9935 346.677 46.9221 346.896C46.8508 347.114 46.8231 347.345 46.8409 347.574C46.877 348.037 47.0954 348.466 47.448 348.768C47.8006 349.07 48.2585 349.219 48.7212 349.183C106.191 344.735 168.011 343.162 230.337 341.913C230.801 341.904 231.242 341.711 231.564 341.376C231.886 341.042 232.061 340.593 232.052 340.129C232.043 339.665 231.85 339.224 231.516 338.902C231.181 338.581 230.733 338.405 230.269 338.414Z" fill="black"/>
<path d="M121.659 346.621C119.942 347.256 118.585 347.886 117.524 348.551C116.463 349.217 115.635 349.885 115.169 350.949C114.704 352.012 115.077 353.51 115.851 354.277C116.626 355.044 117.579 355.445 118.739 355.787C123.377 357.156 131.948 357.207 143.638 355.485C143.866 355.452 144.084 355.374 144.282 355.256C144.479 355.138 144.651 354.982 144.788 354.798C144.925 354.613 145.025 354.404 145.081 354.181C145.137 353.958 145.148 353.726 145.115 353.499C145.081 353.271 145.003 353.053 144.885 352.855C144.767 352.658 144.611 352.486 144.427 352.349C144.242 352.212 144.033 352.112 143.81 352.056C143.587 352 143.355 351.989 143.128 352.022C131.714 353.703 123.157 353.441 119.728 352.429C119.162 352.261 119.023 352.139 118.793 352.006C118.943 351.851 118.941 351.794 119.382 351.518C120.136 351.045 121.306 350.483 122.873 349.903C123.308 349.742 123.662 349.414 123.856 348.993C124.05 348.571 124.068 348.09 123.907 347.655C123.746 347.219 123.418 346.866 122.997 346.672C122.575 346.478 122.094 346.46 121.659 346.621Z" fill="black"/>
<path d="M127.702 347.291C126.643 347.373 125.972 347.536 125.972 347.536C125.749 347.589 125.538 347.685 125.351 347.819C125.165 347.954 125.006 348.124 124.886 348.319C124.765 348.515 124.684 348.732 124.647 348.959C124.61 349.186 124.618 349.418 124.671 349.641C124.778 350.093 125.059 350.483 125.454 350.727C125.848 350.971 126.323 351.049 126.775 350.943C126.775 350.943 128.791 350.489 131.056 350.955C131.281 351.001 131.513 351.003 131.739 350.959C131.965 350.916 132.18 350.829 132.372 350.702C132.564 350.576 132.729 350.413 132.858 350.222C132.987 350.032 133.077 349.818 133.123 349.593C133.17 349.368 133.171 349.136 133.128 348.91C133.084 348.684 132.997 348.469 132.871 348.277C132.744 348.085 132.581 347.92 132.391 347.791C132.201 347.662 131.987 347.572 131.762 347.526C130.207 347.206 128.76 347.208 127.702 347.291Z" fill="black"/>
<path d="M141.624 346.886C139.652 347.006 138.507 347.303 138.507 347.303C138.058 347.422 137.675 347.714 137.442 348.115C137.209 348.516 137.145 348.994 137.264 349.442C137.323 349.665 137.425 349.873 137.565 350.056C137.704 350.239 137.878 350.392 138.077 350.508C138.276 350.623 138.496 350.698 138.724 350.729C138.952 350.759 139.183 350.744 139.406 350.685C139.406 350.685 143.042 349.687 148.97 350.951C149.423 351.047 149.896 350.96 150.286 350.707C150.675 350.455 150.948 350.059 151.045 349.605C151.093 349.38 151.096 349.148 151.055 348.922C151.013 348.696 150.928 348.481 150.803 348.288C150.678 348.095 150.516 347.928 150.327 347.798C150.138 347.668 149.924 347.576 149.7 347.528C146.393 346.823 143.595 346.767 141.624 346.886Z" fill="black"/>
<path d="M207.629 361.122C207.181 361.003 206.704 361.066 206.302 361.298C205.9 361.531 205.607 361.913 205.488 362.361C205.368 362.809 205.431 363.287 205.664 363.688C205.896 364.09 206.278 364.383 206.726 364.503C206.726 364.503 211.667 365.876 216.759 365.008C216.986 364.969 217.202 364.886 217.397 364.764C217.592 364.642 217.76 364.482 217.893 364.295C218.026 364.107 218.121 363.895 218.172 363.671C218.223 363.447 218.229 363.215 218.191 362.988C218.152 362.762 218.069 362.545 217.947 362.35C217.825 362.155 217.665 361.987 217.477 361.854C217.29 361.721 217.077 361.626 216.853 361.575C216.629 361.524 216.397 361.518 216.17 361.557C212.078 362.255 207.629 361.122 207.629 361.122Z" fill="black"/>
<path d="M227.146 353.663C224.587 353.784 222.606 354.288 220.918 354.912C217.542 356.161 215.681 357.554 211.846 357.498C211.382 357.492 210.934 357.669 210.601 357.992C210.268 358.316 210.078 358.758 210.071 359.222C210.067 359.452 210.109 359.68 210.194 359.894C210.279 360.108 210.405 360.302 210.565 360.467C210.725 360.632 210.917 360.764 211.128 360.855C211.339 360.946 211.566 360.994 211.796 360.998C216.517 361.066 219.213 359.276 222.13 358.196C225.048 357.117 228.528 356.412 236.05 358.132C236.502 358.235 236.977 358.155 237.37 357.908C237.763 357.661 238.042 357.269 238.146 356.817C238.197 356.593 238.203 356.361 238.165 356.134C238.126 355.907 238.043 355.691 237.921 355.496C237.799 355.302 237.639 355.133 237.452 355C237.264 354.867 237.052 354.772 236.828 354.721C232.837 353.809 229.704 353.543 227.146 353.663Z" fill="black"/>
<path d="M225.686 359.809C225.222 359.805 224.775 359.985 224.444 360.31C224.113 360.635 223.925 361.079 223.92 361.543C223.916 362.007 224.096 362.453 224.421 362.784C224.747 363.115 225.19 363.304 225.654 363.308L239.761 363.435C239.99 363.437 240.219 363.394 240.432 363.308C240.645 363.222 240.839 363.094 241.003 362.933C241.167 362.772 241.298 362.58 241.387 362.368C241.477 362.157 241.524 361.929 241.526 361.7C241.528 361.47 241.485 361.242 241.399 361.028C241.313 360.815 241.186 360.621 241.024 360.457C240.863 360.293 240.671 360.162 240.46 360.073C240.248 359.983 240.021 359.936 239.791 359.934L225.686 359.809Z" fill="black"/>
<path d="M255.379 357.957C255.15 357.955 254.921 357.998 254.708 358.084C254.495 358.17 254.301 358.298 254.137 358.459C253.973 358.62 253.842 358.812 253.753 359.024C253.663 359.235 253.616 359.463 253.614 359.692C253.61 360.156 253.79 360.603 254.115 360.934C254.44 361.265 254.883 361.454 255.347 361.458L260.733 361.506C261.197 361.511 261.643 361.33 261.974 361.005C262.305 360.68 262.494 360.237 262.498 359.773C262.502 359.309 262.322 358.862 261.997 358.531C261.672 358.2 261.229 358.012 260.765 358.007L255.379 357.957Z" fill="black"/>
<path d="M260.68 347.97L253.236 348.264C252.772 348.282 252.335 348.483 252.019 348.824C251.704 349.164 251.537 349.616 251.555 350.08C251.564 350.31 251.618 350.535 251.714 350.744C251.81 350.953 251.946 351.141 252.115 351.297C252.284 351.453 252.482 351.575 252.698 351.654C252.913 351.734 253.143 351.77 253.373 351.761L260.817 351.467C261.281 351.449 261.718 351.247 262.033 350.906C262.348 350.565 262.515 350.113 262.496 349.649C262.478 349.186 262.276 348.749 261.936 348.434C261.595 348.119 261.144 347.952 260.68 347.97Z" fill="black"/>
<path d="M258.581 340.001C255.616 340.137 253.164 340.334 253.164 340.334C252.701 340.372 252.273 340.592 251.972 340.945C251.672 341.298 251.524 341.756 251.561 342.219C251.579 342.448 251.642 342.671 251.747 342.876C251.852 343.08 251.996 343.262 252.171 343.411C252.346 343.56 252.548 343.674 252.767 343.744C252.986 343.815 253.216 343.842 253.445 343.824C253.445 343.824 255.844 343.629 258.742 343.496C261.64 343.363 265.097 343.31 266.85 343.522C267.311 343.577 267.774 343.448 268.139 343.162C268.504 342.875 268.741 342.456 268.797 341.996C268.824 341.767 268.807 341.536 268.745 341.315C268.684 341.093 268.579 340.886 268.437 340.705C268.296 340.524 268.119 340.373 267.919 340.26C267.719 340.147 267.499 340.075 267.27 340.047C264.967 339.769 261.546 339.864 258.581 340.001Z" fill="black"/>
<path d="M375.026 345.257C374.796 345.248 374.567 345.283 374.351 345.362C374.135 345.441 373.937 345.562 373.768 345.718C373.599 345.873 373.462 346.061 373.365 346.269C373.268 346.477 373.213 346.703 373.204 346.933C373.194 347.162 373.23 347.392 373.309 347.608C373.388 347.824 373.509 348.022 373.665 348.191C373.82 348.36 374.008 348.497 374.217 348.594C374.425 348.691 374.651 348.745 374.881 348.755C374.881 348.755 416.022 350.481 428.093 351.753C428.322 351.777 428.553 351.756 428.773 351.691C428.994 351.626 429.199 351.517 429.378 351.373C429.557 351.228 429.705 351.049 429.815 350.847C429.925 350.645 429.993 350.423 430.017 350.194C430.041 349.966 430.02 349.735 429.954 349.515C429.889 349.294 429.781 349.089 429.636 348.91C429.492 348.732 429.313 348.584 429.111 348.474C428.909 348.365 428.687 348.296 428.459 348.272C415.901 346.949 375.026 345.257 375.026 345.257Z" fill="black"/>
<path d="M439.961 349.678C439.499 349.648 439.043 349.803 438.695 350.11C438.346 350.416 438.133 350.848 438.103 351.311C438.088 351.54 438.119 351.77 438.193 351.988C438.267 352.205 438.383 352.406 438.534 352.579C438.686 352.752 438.87 352.893 439.076 352.994C439.283 353.096 439.507 353.156 439.736 353.171C439.736 353.171 441.655 353.293 443.814 353.41C445.974 353.527 448.282 353.643 449.449 353.613C449.913 353.601 450.353 353.405 450.672 353.069C450.991 352.732 451.164 352.283 451.152 351.819C451.147 351.59 451.096 351.363 451.002 351.153C450.909 350.943 450.775 350.754 450.609 350.595C450.442 350.437 450.246 350.313 450.032 350.23C449.817 350.148 449.588 350.108 449.359 350.114C448.61 350.133 446.142 350.031 444.003 349.915C441.864 349.799 439.961 349.678 439.961 349.678Z" fill="black"/>
<path d="M413.316 205.689C411.267 205.253 409.348 205.851 407.993 206.922C405.283 209.063 404.037 212.519 402.344 214.716C400.384 217.262 395.561 223.848 390.544 229.956C388.036 233.01 385.482 235.937 383.27 238.125C381.059 240.313 378.939 241.678 378.502 241.771C375.53 242.399 373.65 243.474 372.061 244.029C370.472 244.584 369.126 244.82 366.252 244.015V244.017C363.897 243.356 359.33 239.881 355.74 236.564C352.15 233.247 349.323 230.139 349.323 230.139C349.011 229.795 348.576 229.59 348.112 229.568C347.649 229.546 347.195 229.708 346.852 230.02C346.682 230.175 346.543 230.361 346.445 230.569C346.347 230.777 346.291 231.003 346.28 231.232C346.269 231.462 346.303 231.692 346.381 231.908C346.459 232.125 346.579 232.324 346.733 232.494C346.733 232.494 349.648 235.699 353.365 239.134C357.083 242.569 361.391 246.286 365.307 247.385C368.713 248.34 371.191 248.042 373.216 247.335C375.24 246.628 376.764 245.715 379.226 245.195V245.193C381.503 244.712 383.369 242.95 385.73 240.614C388.091 238.278 390.696 235.284 393.247 232.178C398.349 225.967 403.246 219.28 405.115 216.852C407.253 214.076 408.683 210.837 410.161 209.669C410.9 209.085 411.453 208.873 412.586 209.114C413.72 209.355 415.464 210.25 417.809 212.285C427.626 220.815 436.249 229.204 436.249 229.204C436.582 229.527 437.029 229.705 437.493 229.699C437.957 229.692 438.399 229.502 438.723 229.17C439.046 228.837 439.224 228.39 439.218 227.926C439.211 227.462 439.021 227.02 438.689 226.696C438.689 226.696 430.013 218.252 420.103 209.643V209.641C417.511 207.391 415.363 206.124 413.314 205.689L413.316 205.689Z" fill="black"/>
<path d="M422.581 163.85C421.441 163.908 420.297 164.086 419.162 164.401C415.155 165.511 411.418 168.444 408.436 173.247C405.703 170.977 402.214 169.954 398.873 170.645C395.207 171.403 391.999 174.344 390.476 179.031C388.032 178.627 385.538 178.711 383.427 179.672C380.833 180.854 378.81 183.525 379.275 186.791C379.334 187.208 379.541 187.589 379.858 187.865C380.175 188.142 380.581 188.294 381.002 188.296L441.964 188.479C442.329 188.48 442.684 188.367 442.982 188.157C443.279 187.946 443.503 187.648 443.623 187.304C445.004 183.33 444.092 179.013 441.944 175.266C439.797 171.52 436.395 168.246 432.386 166.15C429.379 164.579 425.999 163.674 422.581 163.85ZM422.772 167.345C425.473 167.208 428.222 167.924 430.765 169.253C434.157 171.026 437.123 173.894 438.908 177.008C440.449 179.697 441.028 182.477 440.557 184.975L382.995 184.8C383.282 183.991 383.82 183.339 384.877 182.858C386.514 182.113 389.01 181.957 391.155 182.592C391.386 182.661 391.629 182.681 391.867 182.652C392.106 182.622 392.337 182.544 392.544 182.421C392.751 182.299 392.931 182.135 393.072 181.94C393.213 181.745 393.312 181.522 393.363 181.287C394.371 176.683 396.867 174.635 399.583 174.074C402.3 173.512 405.387 174.569 407.446 177.068C407.63 177.291 407.867 177.465 408.135 177.575C408.402 177.684 408.693 177.726 408.981 177.695C409.268 177.665 409.544 177.563 409.783 177.4C410.022 177.237 410.217 177.017 410.35 176.76C413.139 171.365 416.576 168.749 420.097 167.773C420.978 167.529 421.871 167.39 422.772 167.345Z" fill="black"/>
<path d="M442.304 375.258C441.205 375.433 440.094 376.014 439.298 376.969C437.468 379.165 435.449 379.934 431.252 380.585C426.536 381.316 423.101 384.546 422.458 385.168C421.823 385.211 419.216 385.309 419.216 385.309C418.754 385.344 418.324 385.562 418.022 385.914C417.72 386.267 417.57 386.724 417.606 387.187C417.623 387.416 417.685 387.64 417.789 387.845C417.893 388.05 418.036 388.233 418.211 388.383C418.385 388.532 418.587 388.646 418.806 388.718C419.024 388.79 419.255 388.817 419.484 388.8C419.484 388.8 441.973 387.135 455.587 389.542C455.916 389.6 456.255 389.562 456.564 389.434C456.872 389.305 457.138 389.091 457.328 388.816C458.151 387.63 458.566 386.37 458.255 385.166C457.944 383.962 457.012 383.242 456.234 382.863C455.279 382.399 454.463 382.265 453.863 382.21C453.561 381.883 452.721 380.961 450.644 378.876C449.277 377.504 447.478 376.226 445.476 375.575C444.474 375.25 443.403 375.082 442.304 375.258ZM442.857 378.713C443.23 378.653 443.769 378.703 444.394 378.906C445.642 379.311 447.152 380.329 448.164 381.345C450.523 383.713 451.778 385.086 451.778 385.086C451.938 385.26 452.131 385.401 452.347 385.499C452.563 385.597 452.796 385.65 453.033 385.655C453.033 385.655 453.628 385.786 454.107 385.884C445.445 384.628 436.554 384.606 429.249 384.87C430.078 384.487 430.941 384.175 431.787 384.044C436.28 383.348 439.533 382.155 441.987 379.209C442.261 378.879 442.484 378.772 442.857 378.713Z" fill="black"/>
<path d="M10.1893 366.89C4.81408 367.628 0.810154 370.258 0.810154 370.258C0.418787 370.508 0.142404 370.902 0.0417163 371.355C-0.0589711 371.808 0.0242952 372.282 0.273228 372.674C0.522065 373.065 0.916286 373.342 1.3692 373.443C1.82212 373.544 2.29664 373.461 2.68839 373.213C2.68839 373.213 9.03795 369.321 15.3333 370.399C21.5759 371.47 26.8299 377.644 29.2512 380.681C29.2511 380.683 29.2511 380.684 29.2512 380.686C30.8649 382.701 33.3046 383.363 35.8632 383.441C38.4218 383.519 41.3423 383.151 44.8944 382.972C59.2547 382.246 79.5478 384.651 91.8845 389.45C95.8239 390.983 103.575 393.009 113.45 392.484C122.571 391.998 131.535 395.404 143.146 393.379C153.476 391.577 169.723 396.357 178.925 404.399C179.098 404.551 179.299 404.666 179.517 404.74C179.735 404.813 179.965 404.843 180.194 404.828C180.423 404.812 180.647 404.752 180.853 404.649C181.059 404.547 181.243 404.406 181.394 404.233C181.546 404.059 181.661 403.858 181.735 403.64C181.808 403.423 181.838 403.193 181.822 402.963C181.807 402.734 181.746 402.51 181.644 402.304C181.542 402.098 181.4 401.914 181.227 401.763C171.052 392.87 154.433 387.856 142.545 389.93C131.916 391.783 123.315 388.454 113.265 388.989C103.969 389.483 96.6065 387.531 93.1534 386.188C79.9969 381.071 59.6187 378.722 44.7174 379.475C41.0313 379.661 38.083 380.008 35.9698 379.943C33.858 379.879 32.8225 379.543 31.9861 378.5V378.498C29.5263 375.412 23.9508 368.327 15.9245 366.95C13.9256 366.608 11.981 366.644 10.1893 366.89Z" fill="black"/>
<path d="M20.035 401.331C19.571 401.328 19.1251 401.51 18.7951 401.836C18.4652 402.162 18.2782 402.606 18.2754 403.07C18.2739 403.3 18.3177 403.528 18.4043 403.741C18.4909 403.954 18.6186 404.148 18.7802 404.311C18.9417 404.475 19.1339 404.605 19.3458 404.694C19.5576 404.784 19.785 404.83 20.0149 404.832C20.0149 404.832 51.835 405.024 84.804 405.119C101.289 405.167 118.06 405.189 131.289 405.153C144.518 405.118 153.972 405.047 156.625 404.826C156.854 404.807 157.078 404.743 157.282 404.637C157.486 404.532 157.668 404.387 157.816 404.212C157.965 404.036 158.077 403.833 158.147 403.614C158.217 403.395 158.243 403.164 158.224 402.935C158.205 402.706 158.141 402.483 158.036 402.279C157.93 402.074 157.786 401.893 157.61 401.744C157.435 401.596 157.231 401.483 157.012 401.413C156.793 401.343 156.563 401.317 156.334 401.337C154.395 401.498 144.496 401.618 131.279 401.654C118.062 401.69 101.295 401.666 84.814 401.618C51.852 401.523 20.035 401.331 20.035 401.331Z" fill="black"/>
<path d="M163.028 398.74C162.86 398.584 162.663 398.462 162.448 398.381C162.233 398.301 162.004 398.263 161.774 398.271C161.544 398.279 161.318 398.332 161.109 398.428C160.9 398.523 160.712 398.659 160.555 398.827C160.555 398.827 160.042 399.374 159.547 400.16C159.053 400.946 158.474 402.02 158.462 403.414C158.449 404.808 159.354 406.442 160.981 407.279C162.608 408.116 164.832 408.47 168.168 408.405C180.773 408.163 204.625 409.139 204.625 409.139C204.855 409.149 205.084 409.113 205.3 409.034C205.515 408.954 205.713 408.833 205.882 408.678C206.051 408.522 206.188 408.334 206.285 408.126C206.381 407.917 206.436 407.692 206.445 407.462C206.454 407.233 206.418 407.003 206.339 406.788C206.26 406.572 206.139 406.374 205.983 406.205C205.828 406.036 205.64 405.899 205.432 405.803C205.223 405.706 204.998 405.652 204.768 405.642C204.768 405.642 180.97 404.659 168.102 404.906C165.075 404.964 163.329 404.55 162.582 404.166C161.835 403.782 161.96 403.742 161.963 403.446C161.963 403.15 162.197 402.521 162.51 402.024C162.822 401.528 163.113 401.214 163.113 401.214C163.27 401.046 163.392 400.849 163.473 400.634C163.553 400.418 163.591 400.189 163.583 399.96C163.575 399.73 163.522 399.504 163.427 399.295C163.332 399.086 163.196 398.897 163.028 398.74Z" fill="black"/>
<path d="M112.322 394.678C112.1 394.62 111.868 394.606 111.64 394.637C111.412 394.668 111.193 394.744 110.994 394.86C110.796 394.976 110.622 395.129 110.483 395.313C110.344 395.496 110.243 395.705 110.184 395.927C110.126 396.149 110.112 396.381 110.143 396.609C110.174 396.837 110.25 397.056 110.366 397.255C110.482 397.453 110.636 397.627 110.819 397.766C111.002 397.905 111.211 398.006 111.433 398.065C119.012 400.054 128.294 399.996 136.297 400.347C140.298 400.523 143.975 400.799 146.856 401.411C149.737 402.023 151.714 402.994 152.618 404.156C152.902 404.522 153.321 404.761 153.782 404.818C154.242 404.876 154.706 404.748 155.073 404.464C155.439 404.179 155.678 403.76 155.735 403.3C155.793 402.839 155.665 402.375 155.381 402.008C153.643 399.773 150.839 398.679 147.584 397.988C144.33 397.297 140.514 397.03 136.451 396.852C128.326 396.495 119.188 396.48 112.322 394.678Z" fill="black"/>
<path d="M42.6583 395.577C35.9887 396.641 33.6492 402.541 33.6492 402.541C33.4839 402.975 33.4976 403.456 33.6873 403.88C33.877 404.303 34.2271 404.634 34.6607 404.8C35.0943 404.965 35.5759 404.951 35.9994 404.761C36.4229 404.572 36.7536 404.222 36.919 403.788C36.919 403.788 38.3474 399.809 43.2093 399.034C45.5427 398.662 48.2506 399.46 51.2913 400.303C54.3321 401.146 57.7579 402.005 61.3884 400.95C62.5232 400.62 65.7464 400.256 69.7077 400.078C73.6689 399.899 78.4862 399.849 83.336 399.921C88.1858 399.993 93.0739 400.187 97.1774 400.494C101.281 400.801 104.676 401.259 106.184 401.701C106.63 401.831 107.108 401.778 107.515 401.556C107.922 401.333 108.224 400.957 108.354 400.512C108.419 400.291 108.439 400.06 108.415 399.832C108.39 399.603 108.32 399.382 108.21 399.18C108.1 398.978 107.951 398.8 107.771 398.656C107.592 398.512 107.387 398.405 107.166 398.34C105.02 397.713 101.639 397.317 97.4388 397.003C93.2392 396.688 88.2965 396.492 83.3883 396.42C78.4799 396.347 73.6096 396.397 69.5509 396.581C65.4921 396.764 62.365 397.022 60.411 397.59C57.8536 398.333 55.1786 397.749 52.2244 396.93C49.2703 396.112 46.0887 395.03 42.6563 395.577H42.6583Z" fill="black"/>
<path d="M94.4949 392.673C93.0824 392.686 91.5618 392.767 90.1029 392.852C87.1852 393.021 84.6713 393.264 84.6713 393.264C84.4425 393.286 84.2203 393.353 84.0173 393.461C83.8143 393.569 83.6344 393.716 83.4881 393.893C83.3419 394.071 83.2321 394.275 83.1649 394.495C83.0977 394.715 83.0746 394.946 83.0968 395.175C83.1416 395.637 83.3682 396.062 83.7264 396.357C84.0847 396.652 84.5453 396.792 85.0072 396.747C85.0072 396.747 87.4657 396.51 90.3061 396.345C93.1464 396.18 96.5322 396.151 97.6058 396.351C97.8319 396.393 98.0641 396.391 98.2891 396.343C98.514 396.295 98.7272 396.204 98.9167 396.074C99.1063 395.943 99.2686 395.777 99.3938 395.584C99.5191 395.391 99.6051 395.176 99.647 394.95C99.7314 394.493 99.631 394.022 99.3682 393.64C99.1054 393.258 98.7015 392.995 98.2453 392.911C97.212 392.718 95.9075 392.661 94.4949 392.673Z" fill="black"/>
<path d="M75.9155 388.243C75.4518 388.228 75.0014 388.399 74.6632 388.716C74.325 389.034 74.1265 389.472 74.1117 389.936C74.1045 390.166 74.1427 390.395 74.2241 390.61C74.3054 390.825 74.4281 391.022 74.5855 391.189C74.7429 391.357 74.932 391.492 75.1416 391.586C75.3511 391.681 75.5772 391.733 75.8069 391.74L86.5455 392.076C86.7752 392.083 87.0041 392.045 87.2191 391.964C87.4341 391.882 87.631 391.759 87.7985 391.602C87.9661 391.445 88.101 391.256 88.1954 391.046C88.2899 390.836 88.3422 390.61 88.3493 390.381C88.3565 390.151 88.3182 389.922 88.2369 389.707C88.1556 389.492 88.0329 389.295 87.8755 389.127C87.718 388.96 87.529 388.825 87.3194 388.731C87.1099 388.636 86.8838 388.584 86.654 388.577L75.9155 388.243Z" fill="black"/>
<path d="M12.0556 376.794C10.7087 376.807 9.6123 376.869 9.6123 376.869C9.14918 376.894 8.71518 377.103 8.4056 377.448C8.09603 377.793 7.9362 378.248 7.96131 378.711C7.97396 378.94 8.03171 379.165 8.13123 379.372C8.23076 379.579 8.3701 379.765 8.54134 379.918C8.71258 380.072 8.91229 380.19 9.12917 380.266C9.34605 380.342 9.57586 380.374 9.80536 380.362C9.80536 380.362 10.8293 380.305 12.0898 380.293C13.3504 380.281 14.8942 380.34 15.5728 380.468C16.0285 380.554 16.4996 380.456 16.8827 380.194C17.2658 379.933 17.5295 379.53 17.6159 379.075C17.7023 378.619 17.604 378.147 17.3427 377.763C17.0813 377.38 16.6783 377.116 16.2223 377.029C14.955 376.79 13.4026 376.781 12.0556 376.794Z" fill="black"/>
<path d="M30.5583 378.453C29.3299 378.628 25.547 378.944 25.547 378.944C25.3179 378.962 25.0947 379.026 24.8901 379.131C24.6856 379.236 24.5037 379.38 24.3549 379.555C24.206 379.73 24.0932 379.933 24.0228 380.152C23.9523 380.371 23.9256 380.601 23.9442 380.83C23.9628 381.059 24.0264 381.283 24.1313 381.487C24.2361 381.692 24.3803 381.874 24.5554 382.022C24.7306 382.171 24.9333 382.284 25.1521 382.355C25.3709 382.425 25.6014 382.452 25.8305 382.433C25.8305 382.433 29.4583 382.145 31.051 381.918C31.5104 381.853 31.9252 381.608 32.2039 381.237C32.4826 380.865 32.6024 380.399 32.5371 379.939C32.4717 379.48 32.2266 379.065 31.8555 378.786C31.4844 378.508 31.0178 378.388 30.5583 378.453Z" fill="black"/>
<path d="M15.6914 371.6C15.4726 371.529 15.242 371.503 15.0129 371.521C14.7839 371.54 14.5608 371.604 14.3564 371.709C14.1519 371.814 13.97 371.958 13.8213 372.133C13.6726 372.308 13.5597 372.511 13.4894 372.73C13.419 372.949 13.3924 373.179 13.4111 373.408C13.4298 373.637 13.4934 373.861 13.5983 374.065C13.7033 374.269 13.8474 374.451 14.0227 374.6C14.1979 374.749 14.4007 374.862 14.6195 374.932C14.6195 374.932 16.841 375.647 19.4358 376.33C22.0307 377.012 24.7589 377.751 26.9206 377.55C27.1494 377.529 27.3719 377.463 27.5751 377.356C27.7784 377.248 27.9585 377.102 28.1053 376.925C28.252 376.749 28.3625 376.545 28.4304 376.325C28.4983 376.105 28.5224 375.875 28.5012 375.646C28.4799 375.417 28.4138 375.195 28.3066 374.991C28.1994 374.788 28.0531 374.608 27.8763 374.461C27.6994 374.314 27.4954 374.204 27.2759 374.136C27.0563 374.068 26.8256 374.044 26.5968 374.065C25.8859 374.131 22.8134 373.6 20.3246 372.945C17.8358 372.29 15.6914 371.6 15.6914 371.6Z" fill="black"/>
<path d="M244.711 122.706C240.268 122.784 237.629 123.853 237.629 123.853C237.409 123.945 237.209 124.081 237.044 124.253C236.878 124.424 236.749 124.628 236.665 124.852C236.581 125.075 236.544 125.313 236.555 125.552C236.567 125.79 236.627 126.023 236.732 126.238C244.927 142.956 236.708 161.376 236.708 161.376C236.517 161.799 236.502 162.28 236.665 162.714C236.829 163.148 237.158 163.5 237.581 163.691C237.79 163.786 238.016 163.838 238.246 163.846C238.476 163.853 238.705 163.816 238.92 163.735C239.135 163.653 239.332 163.531 239.5 163.374C239.668 163.216 239.803 163.028 239.897 162.818C239.897 162.818 248.127 144.518 240.616 126.672C242.121 126.277 244.641 125.827 249.218 126.497C255.87 127.47 265.419 131.054 276.744 141.877C277.08 142.198 277.529 142.372 277.993 142.361C278.457 142.351 278.897 142.156 279.218 141.821C279.539 141.486 279.713 141.037 279.703 140.573C279.692 140.109 279.498 139.668 279.163 139.348C267.404 128.109 257.128 124.117 249.725 123.034C247.874 122.763 246.192 122.68 244.711 122.706Z" fill="black"/>
<path d="M214.519 140.192C214.519 140.192 213.02 141.005 211.997 142.632C211.486 143.445 211.076 144.537 211.155 145.785C211.215 146.743 211.66 147.726 212.305 148.685C212.073 149.524 211.832 150.794 212.259 152.502C212.577 153.774 213.354 155.16 214.744 156.2C216.135 157.24 218.061 157.933 220.652 158.181C227.299 158.816 236.764 156.306 236.764 156.306C237.214 156.193 237.6 155.905 237.838 155.506C238.075 155.107 238.145 154.631 238.031 154.181C237.917 153.731 237.629 153.345 237.231 153.107C236.832 152.87 236.355 152.8 235.905 152.914C235.905 152.914 226.363 155.21 220.984 154.696C218.844 154.491 217.577 153.952 216.837 153.399C216.098 152.845 215.809 152.276 215.653 151.651C215.34 150.401 215.814 149.039 215.814 149.039C215.933 148.739 215.966 148.411 215.911 148.093C215.856 147.775 215.713 147.479 215.5 147.237C214.819 146.465 214.669 145.944 214.645 145.566C214.622 145.188 214.732 144.856 214.959 144.494C215.414 143.77 216.266 143.225 216.266 143.225C216.465 143.11 216.64 142.957 216.78 142.775C216.92 142.592 217.023 142.384 217.082 142.162C217.142 141.94 217.157 141.708 217.127 141.481C217.098 141.253 217.023 141.033 216.908 140.834C216.793 140.635 216.64 140.46 216.458 140.32C216.276 140.18 216.067 140.077 215.845 140.017C215.623 139.958 215.392 139.943 215.164 139.973C214.936 140.003 214.716 140.077 214.517 140.192H214.519Z" fill="black"/>
<path d="M213.805 129.976C213.805 129.976 210.656 132.203 208.701 135.293C207.724 136.838 206.945 138.748 207.436 140.803C207.927 142.859 209.708 144.574 212.578 145.688C212.793 145.771 213.021 145.811 213.251 145.806C213.481 145.801 213.707 145.75 213.918 145.658C214.128 145.565 214.318 145.431 214.476 145.265C214.635 145.099 214.76 144.903 214.843 144.689C215.01 144.256 215 143.775 214.813 143.35C214.626 142.925 214.278 142.592 213.845 142.424C211.588 141.548 211.006 140.684 210.841 139.991C210.675 139.298 210.946 138.289 211.657 137.166C213.079 134.918 215.87 132.802 215.87 132.802C216.245 132.528 216.495 132.116 216.566 131.658C216.638 131.199 216.524 130.731 216.25 130.356C215.976 129.982 215.565 129.731 215.106 129.66C214.648 129.589 214.18 129.702 213.805 129.976Z" fill="black"/>
<path d="M222.014 118.56C218.015 118.56 214.452 119.554 211.669 120.754C208.886 121.954 206.946 123.26 205.872 124.365C205.872 124.368 205.872 124.37 205.872 124.372C204.819 125.461 203.541 127.413 204.021 129.892C204.262 131.131 205.023 132.373 206.264 133.353C207.505 134.333 209.201 135.105 211.516 135.694C211.966 135.808 212.443 135.74 212.842 135.503C213.241 135.266 213.529 134.88 213.644 134.431C213.758 133.981 213.69 133.504 213.453 133.105C213.216 132.706 212.831 132.418 212.381 132.303C210.388 131.796 209.138 131.164 208.432 130.606C207.725 130.048 207.535 129.618 207.458 129.224C207.306 128.439 207.924 127.287 208.385 126.807V126.805C208.386 126.804 208.385 126.804 208.385 126.803C208.838 126.339 210.631 125.012 213.055 123.967C215.482 122.921 218.599 122.061 222.014 122.061C228.627 122.061 237.424 126.98 237.424 126.98C237.824 127.213 238.301 127.277 238.75 127.159C239.198 127.04 239.581 126.749 239.815 126.348C239.93 126.15 240.006 125.93 240.037 125.703C240.067 125.475 240.053 125.243 239.995 125.021C239.936 124.799 239.834 124.59 239.695 124.407C239.556 124.225 239.382 124.071 239.183 123.955C239.183 123.955 230.248 118.56 222.014 118.56Z" fill="black"/>
<path d="M224.387 100.342L209.363 102.276C208.902 102.336 208.484 102.575 208.201 102.943C207.917 103.31 207.791 103.775 207.85 104.235C207.88 104.463 207.954 104.683 208.068 104.883C208.183 105.082 208.335 105.257 208.517 105.398C208.699 105.538 208.907 105.641 209.129 105.701C209.351 105.761 209.583 105.777 209.811 105.747L224.833 103.815C225.293 103.756 225.711 103.516 225.995 103.149C226.278 102.781 226.404 102.316 226.345 101.856C226.316 101.628 226.242 101.408 226.128 101.208C226.014 101.009 225.862 100.834 225.68 100.693C225.498 100.553 225.29 100.449 225.068 100.389C224.846 100.329 224.615 100.313 224.387 100.342Z" fill="black"/>
<path d="M219.486 100.975C219.025 101.032 218.606 101.269 218.32 101.634C218.035 102 217.906 102.464 217.962 102.924L220.113 120.522C220.17 120.983 220.407 121.402 220.772 121.688C221.138 121.974 221.601 122.103 222.062 122.047C222.522 121.99 222.942 121.753 223.228 121.388C223.513 121.023 223.642 120.559 223.586 120.098L221.435 102.5C221.378 102.039 221.141 101.62 220.776 101.334C220.41 101.048 219.946 100.919 219.486 100.975ZM214.64 101.597C214.178 101.649 213.757 101.883 213.468 102.246C213.18 102.609 213.047 103.072 213.099 103.533L215.096 121.098C215.122 121.326 215.192 121.547 215.304 121.748C215.415 121.95 215.565 122.127 215.745 122.27C215.924 122.413 216.131 122.52 216.352 122.583C216.573 122.647 216.804 122.666 217.033 122.64C217.261 122.614 217.482 122.544 217.683 122.432C217.885 122.321 218.062 122.171 218.205 121.991C218.348 121.812 218.455 121.605 218.518 121.384C218.582 121.163 218.601 120.932 218.575 120.703L216.576 103.137C216.523 102.676 216.29 102.255 215.927 101.966C215.564 101.677 215.101 101.544 214.64 101.597ZM226.074 154.613C225.846 154.641 225.625 154.714 225.425 154.827C225.225 154.94 225.049 155.092 224.907 155.273C224.766 155.454 224.661 155.661 224.6 155.883C224.539 156.104 224.521 156.336 224.55 156.564L251.466 375.678L250.917 386.3L247.587 376.754L222.601 156.244C222.575 156.016 222.505 155.795 222.393 155.593C222.282 155.392 222.132 155.215 221.952 155.072C221.773 154.928 221.566 154.822 221.345 154.758C221.124 154.695 220.893 154.676 220.664 154.702C220.436 154.727 220.215 154.798 220.014 154.909C219.812 155.021 219.635 155.17 219.492 155.35C219.349 155.53 219.242 155.736 219.179 155.957C219.115 156.178 219.096 156.41 219.122 156.638L244.132 377.343C244.147 377.472 244.176 377.599 244.219 377.721L250.551 395.883C250.686 396.265 250.948 396.588 251.295 396.798C251.641 397.008 252.049 397.092 252.45 397.034C252.851 396.977 253.22 396.782 253.493 396.483C253.767 396.185 253.928 395.8 253.95 395.396L254.969 375.706C254.975 375.605 254.971 375.503 254.959 375.403L228.024 156.136C227.967 155.675 227.73 155.256 227.364 154.97C226.998 154.685 226.534 154.556 226.074 154.613Z" fill="black"/>
<path d="M237.384 175.896C237.154 175.906 236.928 175.96 236.72 176.057C236.511 176.154 236.324 176.291 236.169 176.461C236.013 176.63 235.893 176.829 235.814 177.045C235.735 177.261 235.7 177.49 235.71 177.72C235.72 177.949 235.775 178.175 235.872 178.383C235.969 178.592 236.106 178.779 236.275 178.934C236.275 178.934 244.164 186.21 248.486 191.632C248.629 191.812 248.806 191.961 249.008 192.073C249.209 192.184 249.43 192.254 249.658 192.28C249.887 192.306 250.118 192.286 250.339 192.223C250.559 192.159 250.766 192.053 250.945 191.909C251.125 191.766 251.275 191.589 251.386 191.388C251.497 191.187 251.568 190.966 251.593 190.737C251.619 190.509 251.6 190.278 251.536 190.057C251.473 189.836 251.366 189.63 251.223 189.45C246.567 183.609 238.642 176.356 238.642 176.356C238.473 176.201 238.275 176.08 238.059 176.001C237.843 175.922 237.613 175.886 237.384 175.896Z" fill="black"/>
<path d="M299.216 98.1921C298.987 98.1999 298.761 98.253 298.551 98.3482C298.342 98.4434 298.154 98.5789 297.997 98.747C297.84 98.9151 297.718 99.1125 297.637 99.3278C297.557 99.5431 297.519 99.7722 297.527 100.002C297.527 100.002 297.89 110.482 297.944 122.19C297.97 128.043 297.92 134.203 297.71 139.49C297.501 144.778 297.098 149.268 296.56 151.422C295.194 156.894 293.073 163.007 285.254 167.061C277.435 171.116 263.515 173.043 238.6 168.741C238.143 168.662 237.673 168.768 237.294 169.035C236.916 169.303 236.658 169.709 236.579 170.166C236.54 170.393 236.546 170.625 236.596 170.849C236.647 171.073 236.741 171.285 236.873 171.473C237.005 171.661 237.173 171.821 237.368 171.944C237.562 172.067 237.778 172.15 238.005 172.189C263.304 176.558 277.961 174.786 286.865 170.168C295.77 165.551 298.52 158.018 299.954 152.268C300.652 149.473 300.994 145.001 301.207 139.629C301.42 134.257 301.47 128.058 301.443 122.173C301.388 110.404 301.026 99.8814 301.026 99.8814C301.018 99.6516 300.965 99.4256 300.87 99.2163C300.775 99.007 300.639 98.8186 300.471 98.6617C300.303 98.5048 300.106 98.3826 299.891 98.302C299.675 98.2215 299.446 98.1841 299.216 98.1921Z" fill="black"/>
<path d="M260.853 171.16C260.625 171.128 260.394 171.142 260.171 171.2C259.949 171.259 259.74 171.36 259.557 171.499C259.374 171.638 259.22 171.812 259.104 172.01C258.987 172.209 258.912 172.428 258.881 172.656C258.881 172.656 258.213 177.515 257.559 182.894C256.906 188.273 256.247 193.937 256.323 196.454C256.323 196.456 256.323 196.457 256.323 196.458C256.375 198.082 257.389 199.498 258.677 200.316C259.966 201.134 261.531 201.573 263.331 201.86C266.931 202.434 271.529 202.33 276.426 201.932C276.888 201.895 277.317 201.675 277.618 201.322C277.918 200.969 278.066 200.51 278.029 200.048C277.991 199.586 277.772 199.157 277.419 198.857C277.065 198.556 276.607 198.408 276.145 198.445C271.384 198.832 266.941 198.89 263.882 198.403C262.352 198.159 261.184 197.762 260.554 197.361C259.923 196.961 259.834 196.779 259.82 196.346C259.772 194.747 260.385 188.661 261.034 183.316C261.684 177.97 262.347 173.133 262.347 173.133C262.411 172.673 262.289 172.207 262.009 171.837C261.729 171.467 261.313 171.223 260.853 171.16Z" fill="black"/>
<path d="M248.985 47.1264C248.529 47.2155 248.128 47.4819 247.869 47.8669C247.61 48.252 247.514 48.7242 247.603 49.1797C248.784 55.2242 251.062 60.0116 254.889 62.9511C258.716 65.8906 263.925 66.7471 270.255 65.4447C270.48 65.3984 270.694 65.3082 270.884 65.1793C271.074 65.0503 271.237 64.8851 271.364 64.6931C271.49 64.5011 271.578 64.2861 271.621 64.0604C271.664 63.8346 271.663 63.6026 271.616 63.3774C271.57 63.1523 271.48 62.9384 271.351 62.7482C271.222 62.5579 271.057 62.3949 270.865 62.2684C270.673 62.142 270.458 62.0546 270.232 62.0113C270.006 61.968 269.774 61.9696 269.549 62.016C263.863 63.1858 259.914 62.3985 257.021 60.1759C254.127 57.9533 252.123 54.0602 251.038 48.508C250.949 48.0525 250.683 47.651 250.298 47.392C249.912 47.1329 249.44 47.0373 248.985 47.1264Z" fill="black"/>
<path d="M264.879 50.8729C264.415 50.8641 263.967 51.0399 263.632 51.3616C261.463 53.4497 259.458 54.1469 259.458 54.1469C259.02 54.3009 258.662 54.6224 258.461 55.0406C258.261 55.4587 258.234 55.9395 258.388 56.3771C258.542 56.8149 258.863 57.1738 259.281 57.3748C259.699 57.5758 260.18 57.6025 260.618 57.449C260.618 57.449 263.369 56.474 266.06 53.8834C266.225 53.724 266.358 53.5334 266.45 53.3227C266.542 53.112 266.592 52.8852 266.596 52.6552C266.6 52.4253 266.559 52.1968 266.475 51.9828C266.391 51.7688 266.265 51.5734 266.106 51.4079C265.784 51.0741 265.343 50.8817 264.879 50.8729Z" fill="black"/>
<path d="M258.1 29.3752C257.87 29.3713 257.642 29.4127 257.428 29.4971C257.214 29.5815 257.019 29.7072 256.854 29.8671C256.688 30.0269 256.556 30.2178 256.465 30.4288C256.373 30.6398 256.324 30.8667 256.32 31.0966C256.294 32.772 255.93 33.908 255.55 34.5314C255.17 35.1548 254.868 35.2469 254.702 35.2614C254.535 35.276 254.291 35.2457 253.905 34.7768C253.519 34.3079 253.092 33.3894 252.944 31.9835C252.895 31.5222 252.665 31.0992 252.305 30.8073C251.944 30.5155 251.483 30.3787 251.022 30.427C250.56 30.4752 250.136 30.7049 249.844 31.0655C249.552 31.426 249.415 31.8879 249.463 32.3495C249.665 34.2765 250.255 35.849 251.203 37.001C252.151 38.1529 253.558 38.8748 255.005 38.7485C256.453 38.6222 257.729 37.68 258.539 36.3514C259.348 35.0228 259.787 33.2903 259.822 31.1529C259.829 30.6889 259.652 30.241 259.329 29.9076C259.006 29.5742 258.564 29.3827 258.1 29.3752Z" fill="black"/>
<path d="M272.231 0.58751C268.646 0.319815 265.225 0.682463 262.116 1.45426C255.898 2.99783 250.911 6.10665 248.021 9.30124C246.417 11.0739 245.825 13.2959 246.179 15.3182C246.534 17.3405 247.704 19.131 249.284 20.579C252.002 23.0692 256.046 24.5507 260.26 24.2189C260.279 25.0166 260.25 25.3152 260.369 26.606C260.582 28.9332 260.846 31.55 262.166 33.5199C262.166 33.5206 262.166 33.5213 262.166 33.5219C263.261 35.1541 265.072 36.2912 267.101 36.1684C269.131 36.0457 271.044 34.6274 272.32 32.2329C273.262 30.4638 274.197 29.8331 274.769 29.689C275.341 29.5448 275.821 29.6795 276.464 30.3486C276.464 30.3493 276.464 30.3499 276.464 30.3506C276.516 30.404 276.92 31.0948 277.091 32.064C277.263 33.0332 277.284 34.2804 277.028 35.5752C276.514 38.1649 275.011 40.9217 271.361 42.7465C270.217 43.3179 269.532 44.6625 269.527 45.7731C269.517 46.8837 269.897 47.8637 270.398 48.8278C271.4 50.7561 273.021 52.6271 274.739 53.9921C277.125 55.8886 279.714 57.2205 282.494 57.616C285.274 58.0115 288.199 57.4122 290.992 55.7015C296.891 52.0865 301.177 44.7535 301.003 35.3158V35.3138C300.923 30.7369 300.322 24.6202 297.833 18.6907C295.344 12.7604 290.888 7.00932 283.33 3.49951C279.564 1.75192 275.813 0.855256 272.228 0.587561L272.231 0.58751ZM271.958 4.07059C275.144 4.30719 278.481 5.10701 281.86 6.67485C288.583 9.79694 292.378 14.7288 294.609 20.0461C296.841 25.3633 297.432 31.057 297.507 35.3761C297.507 35.3767 297.507 35.3774 297.507 35.3781C297.662 43.7316 293.914 49.8086 289.168 52.7171C286.967 54.0654 284.981 54.434 282.992 54.1509C281.002 53.8679 278.963 52.8769 276.921 51.2531C276.921 51.2524 276.921 51.2517 276.921 51.251C275.623 50.22 274.195 48.5393 273.506 47.2129C273.166 46.5573 273.04 45.9997 273.038 45.8072C277.562 43.4976 279.782 39.6995 280.464 36.2569C280.809 34.5201 280.793 32.871 280.542 31.4546C280.292 30.0392 279.887 28.856 278.988 27.9232C277.706 26.5907 275.794 25.823 273.916 26.2963C272.038 26.7697 270.463 28.2765 269.233 30.5858C268.336 32.2697 267.488 32.6392 266.892 32.6753C266.296 32.7113 265.616 32.3793 265.074 31.5712C264.634 30.9145 264.049 28.4171 263.853 26.2863C263.658 24.1554 263.672 22.3306 263.672 22.3306C263.674 22.0659 263.616 21.8042 263.502 21.5651C263.389 21.3261 263.222 21.1161 263.015 20.9507C262.809 20.7854 262.567 20.6691 262.309 20.6107C262.05 20.5522 261.782 20.5531 261.525 20.6132C257.882 21.4638 253.938 20.0964 251.649 17.9989C250.504 16.9501 249.809 15.7614 249.626 14.7149C249.442 13.6684 249.637 12.7316 250.617 11.6481C252.896 9.12922 257.402 6.23017 262.958 4.85086C265.736 4.1612 268.772 3.83399 271.958 4.07059Z" fill="black"/>
<path fill-rule="evenodd" clip-rule="evenodd" d="M261.922 22.3165C261.922 22.3165 261.86 29.9194 263.621 32.546C265.258 34.9862 268.604 35.4877 270.777 31.4093C272.949 27.3309 275.801 27.1342 277.727 29.1358C279.631 31.1086 280.404 40.1849 272.146 44.3127C269.737 45.5164 272.815 50.2259 275.832 52.6219C280.26 56.1422 285.088 57.2687 290.082 54.2096C295.405 50.9477 299.421 44.2427 299.256 35.3466C299.101 26.4505 296.878 11.7195 282.597 5.08756C268.306 -1.54332 254.488 4.76116 249.32 10.4746C244.151 16.1871 253.346 24.3192 261.922 22.3165Z" fill="black"/>
<path d="M248.538 15.0065C248.075 14.9955 247.625 15.1691 247.29 15.4891C247.29 15.4891 241.634 20.611 242.097 27.4929C242.319 30.7876 243.604 33.1594 244.47 34.9457C245.337 36.732 245.744 37.6681 245.257 39.0803C244.494 41.2906 243.59 44.898 238.389 47.1164C238.178 47.2065 237.986 47.3374 237.825 47.5017C237.664 47.6659 237.538 47.8602 237.452 48.0734C237.366 48.2867 237.323 48.5148 237.326 48.7446C237.328 48.9744 237.376 49.2015 237.466 49.4129C237.556 49.6244 237.687 49.8159 237.851 49.9768C238.016 50.1376 238.21 50.2645 238.423 50.3502C238.636 50.4359 238.864 50.4788 239.094 50.4763C239.324 50.4739 239.551 50.4262 239.763 50.336C246.195 47.5921 247.885 42.1917 248.565 40.2226V40.2205C249.466 37.6077 248.537 35.3109 247.619 33.4193C246.702 31.5272 245.758 29.774 245.588 27.2575C245.269 22.5168 249.703 18.023 249.703 18.023C250.039 17.7029 250.234 17.2626 250.245 16.7988C250.257 16.3349 250.083 15.8855 249.764 15.5494C249.605 15.3829 249.415 15.2492 249.205 15.1561C248.995 15.0629 248.768 15.0121 248.538 15.0065Z" fill="black"/>
<path d="M287.694 82.8762C282.34 82.606 275.638 84.796 271.946 93.1445C271.918 93.2087 271.894 93.2745 271.874 93.3416C271.874 93.3416 269.682 100.517 267.419 108.657C265.156 116.798 262.815 125.683 262.495 130.01C262.46 130.473 262.611 130.93 262.914 131.282C263.217 131.633 263.647 131.85 264.109 131.885C264.572 131.919 265.029 131.768 265.381 131.465C265.732 131.162 265.949 130.732 265.984 130.27C266.23 126.944 268.543 117.685 270.792 109.595C273.019 101.584 275.133 94.6535 275.176 94.514C278.361 87.3616 283.122 86.1515 287.517 86.3734C291.924 86.5958 295.669 88.5976 295.669 88.5976C295.871 88.7077 296.093 88.7769 296.321 88.8013C296.55 88.8257 296.781 88.8048 297.002 88.7398C297.222 88.6748 297.428 88.567 297.607 88.4225C297.786 88.278 297.934 88.0997 298.044 87.8977C298.266 87.4902 298.317 87.0114 298.186 86.5664C298.054 86.1214 297.752 85.7468 297.344 85.5247C297.344 85.5247 293.047 83.1465 287.694 82.8762Z" fill="black"/>
<path d="M297.994 67.2245C291.563 67.0531 284.957 68.7339 279.398 71.2807C273.839 73.8279 269.307 77.1685 267.065 80.8853C265.89 82.8386 265.639 84.9492 265.953 86.8138C266.268 88.6785 267.089 90.3218 268.002 91.7006C269.828 94.4581 272.141 96.2756 272.141 96.2756C272.504 96.5639 272.967 96.6962 273.428 96.6434C273.889 96.5906 274.31 96.3571 274.598 95.9941C274.887 95.631 275.019 95.1683 274.967 94.7075C274.915 94.2468 274.681 93.8256 274.319 93.5366C274.319 93.5366 272.384 91.978 270.92 89.768C270.188 88.663 269.605 87.4242 269.404 86.2326C269.203 85.0418 269.325 83.9216 270.064 82.6932V82.6912C271.663 80.0422 275.73 76.8131 280.856 74.4641C285.984 72.1145 292.152 70.5701 297.901 70.7236C300.848 70.802 302.529 71.1338 303.789 71.8156C305.05 72.4972 306.11 73.6426 307.618 75.7773C308.478 76.9961 309.437 77.0239 310.528 77.2896C311.619 77.5553 312.981 77.8169 314.705 78.2368C318.152 79.0765 323.012 80.5346 329.306 83.755V83.753C335.616 86.9835 344.557 93.9254 352.117 102.783C359.677 111.641 365.862 122.416 367.131 133.258C368.151 141.965 366.857 153.705 363.617 163.506C360.377 173.306 355.145 180.906 349.255 182.365C342.446 184.052 336.206 184.694 331.37 184.609C326.534 184.525 323.019 183.454 322.256 182.818V182.816C322.043 182.638 321.757 182.096 321.697 180.959C321.637 179.822 321.81 178.25 322.135 176.507C322.786 173.021 324.002 168.867 324.667 165.281C326.965 152.946 326.94 136.034 320.665 114.284V114.282C316.656 100.406 311.276 90.5057 306.036 85.0942C303.416 82.3885 300.802 80.7046 298.092 80.5312C295.382 80.3579 292.908 82.1283 291.625 84.9937C291.531 85.2035 291.479 85.4298 291.473 85.6595C291.466 85.8893 291.505 86.1181 291.587 86.3329C291.669 86.5477 291.793 86.7442 291.951 86.9112C292.109 87.0782 292.298 87.2125 292.508 87.3063C292.718 87.4003 292.944 87.452 293.174 87.4584C293.404 87.4649 293.632 87.426 293.847 87.344C294.062 87.2621 294.258 87.1386 294.425 86.9806C294.592 86.8227 294.727 86.6334 294.82 86.4235C295.725 84.4027 296.574 83.9416 297.869 84.0244C299.164 84.1071 301.237 85.168 303.522 87.5276C308.091 92.2467 313.403 101.763 317.301 115.255C323.442 136.543 323.418 152.876 321.226 164.642C320.615 167.94 319.395 172.11 318.695 175.865C318.344 177.743 318.116 179.518 318.202 181.144C318.288 182.771 318.698 184.407 320.014 185.504C322.309 187.419 326.114 188.02 331.309 188.11C336.505 188.201 343.005 187.518 350.096 185.762C358.106 183.777 363.53 174.922 366.941 164.604C370.353 154.285 371.706 142.243 370.605 132.85C369.217 120.981 362.63 109.712 354.777 100.511C346.924 91.3093 337.812 84.1761 330.901 80.6378C324.336 77.2788 319.156 75.7181 315.535 74.836C313.725 74.395 312.298 74.1177 311.359 73.8889C310.419 73.66 310.109 73.2348 310.48 73.7601C308.869 71.4798 307.439 69.8076 305.458 68.7366C303.479 67.666 301.168 67.3088 298 67.2243L297.994 67.2245Z" fill="black"/>
<path fill-rule="evenodd" clip-rule="evenodd" d="M273.227 94.9061C273.227 94.9061 264.733 88.1537 268.563 81.7885C272.404 75.4223 285.768 68.6493 297.948 68.9747C304.064 69.1373 305.928 70.3533 309.048 74.7695C310.026 76.1564 317.243 75.6169 330.103 82.1963C343.323 88.9651 366.211 110.344 368.868 133.054C370.989 151.154 363.576 180.621 349.676 184.064C335.776 187.507 324.193 186.712 321.135 184.16C318.077 181.61 321.671 171.845 322.947 164.962C325.192 152.911 325.192 136.288 318.983 114.769C311.076 87.4001 297.598 75.9371 293.222 85.7094C288.157 84.0517 278.478 82.6946 273.547 93.8518C273.547 93.8518 273.433 94.2286 273.227 94.9061Z" fill="black"/>
<path d="M286.332 53.9578C285.885 54.0815 285.505 54.3776 285.276 54.7811C285.048 55.1846 284.988 55.6624 285.112 56.1096C285.112 56.1096 287.682 65.6988 296.516 70.5025C296.923 70.724 297.402 70.7745 297.847 70.6429C298.292 70.5113 298.667 70.2083 298.889 69.8006C299.11 69.3929 299.161 68.9138 299.029 68.4688C298.897 68.0238 298.594 67.6493 298.187 67.4276C290.835 63.4299 288.484 55.1785 288.484 55.1785C288.36 54.7314 288.064 54.3517 287.661 54.1228C287.257 53.8939 286.779 53.8345 286.332 53.9578Z" fill="black"/>
<path d="M307.745 59.9929C305.822 59.9763 304.199 60.651 303.14 61.7204C302.08 62.7898 301.587 64.1155 301.346 65.3201C300.863 67.7294 301.325 69.9535 301.325 69.9535C301.368 70.1793 301.455 70.3944 301.582 70.5866C301.708 70.7787 301.87 70.9442 302.06 71.0734C302.251 71.2026 302.464 71.2931 302.689 71.3398C302.914 71.3864 303.147 71.3882 303.372 71.3451C303.598 71.3021 303.813 71.215 304.006 71.0889C304.198 70.9627 304.363 70.7999 304.492 70.6098C304.622 70.4197 304.712 70.206 304.759 69.9809C304.805 69.7558 304.807 69.5237 304.764 69.2979C304.764 69.2979 304.468 67.5539 304.779 66.0079C304.933 65.2348 305.225 64.5877 305.625 64.1839C306.025 63.7801 306.538 63.4819 307.714 63.4921C311.406 63.5237 314.701 63.9055 316.786 64.7972C318.871 65.689 319.742 66.6373 319.694 68.9279C319.56 74.7883 319.622 78.4319 319.622 78.4319C319.63 78.8959 319.822 79.3377 320.155 79.6602C320.489 79.9826 320.937 80.1593 321.401 80.1513C321.865 80.1433 322.307 79.9513 322.63 79.6175C322.952 79.2837 323.129 78.8356 323.121 78.3716C323.121 78.3716 323.06 74.8114 323.193 69.0043C323.193 69.0036 323.193 69.0029 323.193 69.0022C323.268 65.4557 321.072 62.8233 318.163 61.5796C315.255 60.3358 311.631 60.0262 307.745 59.9929Z" fill="black"/>
<path fill-rule="evenodd" clip-rule="evenodd" d="M282.164 197.783C282.164 197.783 296.527 199.416 309.748 198.273C322.968 197.13 338.536 194.517 341.254 193.539C345.331 192.07 345.98 196.558 344.837 203.007C343.694 209.455 338.33 234.227 338.649 238.053C338.968 241.879 344.456 250.572 346.845 263.484C349.233 276.396 356.677 310.486 354.793 356.375C354.67 359.484 354.392 361.313 352.023 362.701C349.666 364.088 345.094 366.374 343.457 364.333C341.83 362.292 343.375 334.676 342.891 324.066C342.397 313.455 339.328 271.066 332.409 244.781C330.855 238.88 330.947 236.229 332.996 224.191C335.035 212.152 336.054 204.309 335.663 201.894C335.272 199.477 333.254 200.784 332.461 201.502C331.678 202.22 331.092 209.467 330.968 213.058C330.834 216.65 327.848 234.927 329.887 243.7C331.925 252.475 340.265 291.108 340.893 362.495C340.935 366.522 337.99 367.757 334.396 368.247C330.803 368.736 315.544 371.348 310.571 368.818C305.588 366.287 304.589 366.614 302.89 357.8C301.181 348.985 283.575 280.449 281.577 270.088C279.59 259.727 274.422 197.185 282.164 197.783Z" fill="black"/>
<path d="M351.157 358.182C350.928 358.161 350.697 358.185 350.477 358.253C350.258 358.321 350.053 358.431 349.876 358.578C349.519 358.875 349.295 359.301 349.252 359.763C349.209 360.225 349.351 360.685 349.647 361.042C349.647 361.042 349.999 361.399 350.6 363.099C351.202 364.8 351.911 367.679 352.191 372.195C352.475 376.863 352.866 382.391 352.527 386.584C352.357 388.68 351.978 390.436 351.477 391.458C350.977 392.481 350.694 392.689 349.989 392.699C344.555 392.779 340.425 392.301 340.425 392.301C340.197 392.275 339.965 392.294 339.744 392.357C339.523 392.42 339.317 392.526 339.137 392.669C338.957 392.812 338.807 392.989 338.695 393.189C338.584 393.39 338.513 393.611 338.486 393.839C338.433 394.3 338.565 394.763 338.853 395.127C339.141 395.49 339.562 395.725 340.023 395.778C340.023 395.778 344.376 396.281 350.041 396.198C352.111 396.168 353.776 394.721 354.62 392.997C355.464 391.273 355.826 389.188 356.014 386.867C356.39 382.226 355.969 376.615 355.686 371.98V371.978C355.389 367.189 354.629 363.987 353.902 361.933C353.176 359.879 352.344 358.808 352.344 358.808C352.197 358.631 352.017 358.484 351.814 358.377C351.611 358.27 351.388 358.203 351.159 358.182L351.157 358.182Z" fill="black"/>
<path d="M332.619 362.836C332.391 362.869 332.172 362.947 331.975 363.065C331.777 363.183 331.605 363.338 331.468 363.523C331.331 363.707 331.231 363.917 331.175 364.14C331.119 364.363 331.107 364.595 331.141 364.823C331.141 364.823 331.808 369.349 332.265 374.922C332.716 380.427 332.902 386.971 332.168 390.807C331.826 391.606 331.094 392.166 330.235 392.233C330.229 392.233 330.223 392.234 330.217 392.235C323.095 392.862 303.611 394.239 294.209 393.266C292.995 393.002 292.209 391.9 292.372 390.67C292.578 389.298 293.038 387.836 293.891 386.729C294.747 385.616 295.941 384.767 298.144 384.504C302.794 383.95 308.373 382.499 312.852 379.557C317.331 376.616 320.718 371.885 320.138 365.551C320.095 365.088 319.871 364.662 319.514 364.365C319.158 364.069 318.698 363.926 318.236 363.968C317.774 364.01 317.347 364.235 317.05 364.591C316.753 364.948 316.611 365.408 316.653 365.87C317.112 370.881 314.718 374.145 310.932 376.631C307.145 379.118 301.976 380.523 297.73 381.029C294.713 381.389 292.49 382.81 291.118 384.593C289.745 386.376 289.165 388.426 288.906 390.178C288.906 390.185 288.906 390.192 288.906 390.2C288.497 393.237 290.539 396.107 293.545 396.715C293.599 396.726 293.653 396.734 293.708 396.739C303.884 397.82 323.255 396.363 330.508 395.724C330.508 395.724 330.509 395.724 330.508 395.724C332.763 395.548 334.717 394.068 335.51 391.945C335.542 391.858 335.567 391.769 335.586 391.678C336.518 387.035 336.22 380.332 335.753 374.636C335.286 368.941 334.602 364.312 334.602 364.312C334.535 363.853 334.288 363.44 333.916 363.163C333.543 362.886 333.077 362.768 332.619 362.836Z" fill="black"/>
</g>
<defs>
<clipPath id="clip0_1_2">
<rect width="458.358" height="408.641" fill="white" transform="translate(0 0.5)"/>
</clipPath>
</defs>
</svg>
