<svg width="372" height="408" viewBox="0 0 372 408" fill="none" xmlns="http://www.w3.org/2000/svg">
<g clip-path="url(#clip0_1_115)">
<path d="M29.118 278.119C29.118 278.119 22.1538 280.069 19.5053 280.759C16.2085 281.617 11.8384 284.501 8.43965 290.269H8.44132C6.79351 293.062 5.11105 296.482 3.76749 299.595C2.42393 302.708 1.42213 305.36 1.13805 307.211C0.923879 308.603 0.660844 310.273 0.990982 312.693C1.32113 315.114 2.19978 318.286 4.1295 323.136C6.08672 328.05 8.57279 332.414 10.8978 335.814C13.2229 339.215 15.2689 341.593 16.8565 342.8C17.0395 342.939 17.2481 343.041 17.4705 343.1C17.6929 343.158 17.9246 343.172 18.1525 343.141C18.3803 343.11 18.5998 343.035 18.7984 342.919C18.9969 342.803 19.1707 342.649 19.3098 342.466C19.5904 342.096 19.7128 341.63 19.6501 341.17C19.5874 340.71 19.3446 340.294 18.9752 340.014C18.1136 339.359 15.9801 337.047 13.7875 333.839C11.5948 330.632 9.22443 326.469 7.38114 321.842C5.51119 317.142 4.73123 314.214 4.45919 312.22C4.18714 310.225 4.37959 309.164 4.59817 307.743C4.74602 306.78 5.68907 303.974 6.98034 300.982C8.27161 297.99 9.91503 294.658 11.4554 292.047C14.4347 286.991 18.2796 284.695 20.3861 284.147C23.1425 283.429 30.0618 281.489 30.0618 281.489C30.2833 281.427 30.4903 281.323 30.6711 281.181C30.852 281.039 31.0031 280.862 31.1158 280.662C31.2285 280.462 31.3006 280.241 31.328 280.013C31.3554 279.784 31.3376 279.553 31.2756 279.332C31.1502 278.885 30.8524 278.506 30.4478 278.279C30.0432 278.051 29.5648 277.994 29.118 278.119Z" fill="black"/>
<path d="M184.77 62.9362C184.541 62.9306 184.312 62.9702 184.098 63.053C183.883 63.1357 183.687 63.2599 183.521 63.4184C183.354 63.5768 183.221 63.7666 183.128 63.9767C183.035 64.1868 182.984 64.4132 182.978 64.643C182.739 74.4561 185.24 80.4953 190.548 84.9889C190.723 85.1373 190.926 85.2499 191.145 85.3199C191.364 85.3899 191.595 85.4161 191.824 85.3971C192.053 85.378 192.276 85.314 192.48 85.2088C192.684 85.1035 192.866 84.959 193.014 84.7836C193.314 84.4293 193.461 83.9704 193.422 83.5078C193.384 83.0453 193.163 82.617 192.809 82.3171C188.204 78.4193 186.252 73.964 186.477 64.727C186.488 64.2633 186.314 63.8142 185.994 63.4784C185.674 63.1425 185.234 62.9475 184.77 62.9362Z" fill="black"/>
<path d="M204.801 58.1648C204.338 58.1979 203.907 58.4134 203.603 58.7641C203.299 59.1148 203.147 59.5719 203.18 60.0349C203.413 63.2955 202.944 65.5333 202.271 66.8346C201.598 68.1358 200.87 68.5354 200.043 68.6141C198.388 68.7715 195.479 66.8964 194.107 62.5676C193.966 62.1253 193.656 61.7568 193.244 61.5431C192.832 61.3294 192.353 61.288 191.91 61.4281C191.468 61.5684 191.1 61.8786 190.886 62.2905C190.672 62.7024 190.631 63.1823 190.771 63.6247C192.476 69.0029 196.306 72.4857 200.374 72.0989C202.408 71.9055 204.287 70.559 205.381 68.4428C206.475 66.3266 206.934 63.4767 206.67 59.786C206.637 59.323 206.422 58.8921 206.071 58.5881C205.721 58.2841 205.263 58.1318 204.801 58.1648Z" fill="black"/>
<path d="M202.96 36.151C202.678 36.2219 202.418 36.3619 202.204 36.5583C201.99 36.7547 201.828 37.0013 201.733 37.2759C201.108 39.0824 198.823 42.645 195.398 46.5987C191.973 50.5523 187.406 55.0126 182.17 59.167C171.698 67.4755 158.535 74.4762 146.594 74.2728C146.343 74.2687 146.095 74.3186 145.865 74.4191C145.635 74.5195 145.429 74.6681 145.262 74.855C145.095 75.0418 144.969 75.2625 144.895 75.502C144.82 75.7415 144.798 75.9942 144.829 76.2431C144.829 76.2431 146.406 89.004 151.677 99.2881C156.884 109.431 165.459 120.32 173.984 124.072C181.771 127.507 193.138 126.793 199.923 120.274C207.331 113.152 218.508 103.301 221.015 76.9494C222.16 64.9049 220.265 56.7055 216.897 50.5731C213.529 44.4407 208.793 40.4539 204.573 36.5615C204.359 36.3646 204.1 36.2239 203.818 36.1522C203.537 36.0805 203.242 36.0801 202.96 36.151ZM203.832 40.6879C207.558 44.1041 211.212 47.4925 213.83 52.2589C216.837 57.7349 218.628 65.0777 217.531 76.618C215.106 102.103 205.034 110.507 197.499 117.751C192.104 122.934 181.793 123.692 175.397 120.87C168.466 117.82 159.73 107.309 154.793 97.6912C150.547 89.4065 149.043 80.1793 148.661 77.6605C161.301 77.1166 174.093 70.0457 184.347 61.9098C189.761 57.6139 194.464 53.0222 198.044 48.8906C200.765 45.7494 202.574 43.0766 203.834 40.6879H203.832Z" fill="black"/>
<path d="M174.38 64.984C173.918 65.0202 173.489 65.2385 173.187 65.591C172.886 65.9434 172.736 66.4013 172.772 66.8637C172.842 67.7555 172.427 69.1185 171.61 69.8037C170.793 70.4889 169.519 70.9359 166.768 69.7342C166.558 69.6422 166.331 69.5926 166.101 69.5882C165.871 69.5838 165.643 69.6246 165.429 69.7085C165.215 69.7924 165.019 69.9177 164.854 70.0771C164.688 70.2365 164.556 70.4271 164.464 70.6378C164.372 70.8484 164.322 71.0751 164.318 71.305C164.313 71.5348 164.354 71.7633 164.438 71.9774C164.522 72.1914 164.647 72.3867 164.807 72.5523C164.966 72.718 165.156 72.8506 165.367 72.9426C168.905 74.4884 171.967 74.0716 173.858 72.4852C175.749 70.8988 176.416 68.5819 176.261 66.5938C176.244 66.3645 176.181 66.141 176.077 65.936C175.973 65.731 175.829 65.5486 175.654 65.3991C175.48 65.2495 175.277 65.1359 175.059 65.0647C174.84 64.9935 174.609 64.966 174.38 64.984Z" fill="black"/>
<path d="M167.264 115.624C167.035 115.627 166.807 115.675 166.596 115.765C166.385 115.856 166.193 115.987 166.033 116.151C165.872 116.316 165.746 116.51 165.66 116.724C165.575 116.937 165.532 117.166 165.535 117.395C165.535 117.395 165.575 126.935 159.989 134.446C159.712 134.818 159.594 135.286 159.662 135.745C159.729 136.204 159.977 136.617 160.349 136.894C160.533 137.032 160.743 137.131 160.966 137.187C161.189 137.243 161.42 137.255 161.648 137.221C161.875 137.188 162.094 137.11 162.291 136.992C162.488 136.874 162.66 136.718 162.797 136.534C169.226 127.891 169.034 117.355 169.034 117.355C169.032 117.125 168.984 116.898 168.894 116.687C168.803 116.475 168.672 116.284 168.508 116.123C168.343 115.962 168.149 115.835 167.936 115.75C167.722 115.664 167.494 115.621 167.264 115.624Z" fill="black"/>
<path d="M200.927 115.087C200.463 115.101 200.024 115.299 199.706 115.636C199.387 115.974 199.216 116.424 199.23 116.888C199.23 116.888 199.508 126.615 206.329 135.719C206.467 135.903 206.64 136.058 206.838 136.175C207.035 136.293 207.254 136.37 207.482 136.402C207.709 136.435 207.941 136.422 208.164 136.365C208.386 136.308 208.596 136.208 208.78 136.07C209.15 135.792 209.396 135.377 209.462 134.918C209.527 134.459 209.408 133.993 209.13 133.621C202.994 125.431 202.727 116.785 202.727 116.785C202.713 116.321 202.516 115.881 202.178 115.563C201.841 115.245 201.39 115.074 200.927 115.087Z" fill="black"/>
<path d="M213.948 131.768C199.221 133.639 191.02 139.542 186.637 145.086C184.743 147.481 183.648 149.745 182.909 151.638C177.954 142.693 171.761 137.757 166.468 135.406C160.434 132.726 155.536 133.023 155.536 133.023C155.222 133.044 154.918 133.149 154.659 133.328C154.399 133.507 154.192 133.752 154.061 134.038C154.061 134.038 151.499 139.67 150.169 143.874C148.975 144.264 140.672 147.054 130.438 154.286C121.819 160.377 108.984 171.6 92.1921 201.252C83.1441 217.23 80.3442 231.371 58.323 256.303C52.8141 262.538 42.8524 270.742 28.7657 278.26C28.4367 278.436 28.1724 278.712 28.0114 279.048C27.8503 279.385 27.8009 279.764 27.8703 280.13C27.8703 280.13 29.3727 288.45 31.8169 293.45C31.9179 293.656 32.0586 293.841 32.2309 293.993C32.4033 294.146 32.6039 294.262 32.8213 294.337C33.0388 294.411 33.2689 294.442 33.4984 294.428C33.7278 294.414 33.9522 294.354 34.1587 294.253C34.5754 294.049 34.8942 293.688 35.0448 293.249C35.1954 292.81 35.1656 292.33 34.9619 291.913C33.2242 288.358 31.9314 282.336 31.5826 280.665C45.3395 273.16 55.2355 265.083 60.946 258.619C83.3062 233.303 86.4798 218.444 95.2385 202.976C111.842 173.658 124.145 163.018 132.456 157.143C143.012 149.684 152.057 146.877 152.057 146.877C152.334 146.791 152.585 146.637 152.789 146.43C152.992 146.222 153.14 145.968 153.22 145.689C154.118 142.562 156.127 138.023 156.774 136.576C157.921 136.576 160.737 136.69 165.047 138.604C170.374 140.971 176.935 145.935 181.789 156.817C181.945 157.168 182.213 157.457 182.551 157.641C182.889 157.824 183.278 157.891 183.658 157.831C184.037 157.772 184.387 157.589 184.652 157.311C184.918 157.033 185.084 156.675 185.126 156.293C185.126 156.293 185.553 152.102 189.383 147.258C193.099 142.557 200.037 137.364 213.222 135.435C213.565 136.093 213.881 136.727 214.724 138.212C215.911 140.304 217.245 142.593 218.588 143.98C219.727 145.157 221.012 145.442 222.848 146.143C224.684 146.844 226.971 147.689 229.484 148.852C234.509 151.177 240.399 154.752 245.131 160.843C254.897 173.409 267.34 195.419 279.024 218.625C287.11 234.678 290.112 256.563 334.988 282.997C334.635 284.624 333.192 291.048 330.534 296.084C330.317 296.495 330.272 296.975 330.409 297.418C330.546 297.862 330.854 298.232 331.264 298.449C331.674 298.666 332.154 298.711 332.598 298.574C333.041 298.437 333.412 298.129 333.628 297.719C337.039 291.257 338.713 282.509 338.713 282.509C338.783 282.152 338.74 281.782 338.59 281.45C338.44 281.118 338.19 280.842 337.876 280.659C292.518 254.293 290.726 234.075 282.152 217.051C270.419 193.749 257.988 171.683 247.895 158.695C242.706 152.017 236.274 148.138 230.953 145.676C228.292 144.445 225.9 143.562 224.095 142.873C222.291 142.184 220.975 141.416 221.101 141.546C220.416 140.839 218.912 138.498 217.768 136.484C216.625 134.47 215.727 132.71 215.727 132.71C215.564 132.389 215.305 132.126 214.987 131.957C214.668 131.788 214.305 131.722 213.948 131.768Z" fill="black"/>
<path d="M17.0763 281.819C16.6167 281.881 16.2005 282.123 15.919 282.491C15.6375 282.86 15.5137 283.325 15.5749 283.784C15.5749 283.784 17.0575 294.527 22.2091 303.482C21.1311 304.576 18.6115 307.221 16.9728 310.4C15.6899 312.888 15.0387 315.213 14.6117 317.074C14.1846 318.935 13.8805 320.405 13.7099 320.757C13.824 320.521 13.6209 320.774 13.558 320.767C13.4951 320.759 13.1066 320.791 12.6255 319.309C10.8508 313.827 11.0967 308.978 14.8897 297.648C14.9627 297.43 14.9921 297.199 14.9762 296.97C14.9603 296.741 14.8993 296.517 14.7968 296.311C14.6943 296.105 14.5523 295.922 14.3788 295.771C14.2053 295.62 14.0038 295.505 13.7858 295.432C13.3459 295.285 12.8654 295.318 12.4503 295.525C12.0351 295.732 11.7191 296.096 11.5717 296.536C7.69121 308.127 7.28831 314.187 9.29624 320.389C10.0278 322.645 11.5298 324.075 13.1895 324.25C14.8492 324.426 16.202 323.643 16.8597 322.281C17.4988 320.962 17.6274 319.583 18.0233 317.858C18.4195 316.131 18.9843 314.132 20.0823 312.003C21.6255 309.01 25.5399 305.041 25.5399 305.041C25.8231 304.761 26.0024 304.393 26.0482 303.997C26.0941 303.602 26.0037 303.202 25.792 302.865C20.625 294.632 19.0431 283.321 19.0431 283.321C18.9813 282.861 18.7394 282.444 18.3705 282.163C18.0017 281.881 17.5362 281.757 17.0763 281.819Z" fill="black"/>
<path d="M337.535 280.507C337.093 280.363 336.613 280.402 336.199 280.612C335.786 280.823 335.473 281.19 335.33 281.632C335.259 281.85 335.232 282.081 335.251 282.31C335.269 282.539 335.332 282.763 335.437 282.967C335.541 283.172 335.685 283.354 335.86 283.503C336.035 283.652 336.238 283.765 336.457 283.836C336.457 283.836 343.499 286.165 348.136 289.385C350.707 291.174 354.773 293.698 358.484 296.513C362.196 299.328 365.472 302.533 366.426 304.903C367.532 307.65 368.142 311.403 368.223 314.922C368.304 318.442 367.823 321.785 367.11 323.521C365.27 327.993 364.541 331.796 356.884 339.042C356.717 339.2 356.583 339.39 356.489 339.599C356.396 339.809 356.344 340.036 356.338 340.265C356.332 340.495 356.371 340.724 356.453 340.939C356.535 341.153 356.658 341.35 356.817 341.517C356.975 341.684 357.164 341.818 357.374 341.912C357.584 342.005 357.81 342.057 358.04 342.063C358.269 342.07 358.498 342.031 358.713 341.948C358.928 341.866 359.124 341.743 359.291 341.585C367.339 333.968 368.646 328.985 370.347 324.851C371.404 322.276 371.809 318.693 371.72 314.843C371.632 310.993 371.016 306.932 369.673 303.597C368.178 299.885 364.486 296.673 360.598 293.725C356.71 290.776 352.544 288.19 350.134 286.513C344.808 282.814 337.536 280.51 337.536 280.51L337.535 280.507Z" fill="black"/>
<path d="M349.201 285.894C348.795 285.67 348.316 285.616 347.87 285.745C347.425 285.874 347.048 286.174 346.824 286.581C346.824 286.581 345.341 289.27 343.847 292.181C343.1 293.636 342.351 295.147 341.77 296.432C341.48 297.074 341.231 297.658 341.042 298.176C340.852 298.694 340.687 299.043 340.667 299.737C340.653 300.183 340.81 300.617 341.106 300.951C341.106 300.951 346.562 307.15 349.47 309.703C350.663 310.752 352.627 312.812 354.297 314.829C355.132 315.837 355.902 316.841 356.479 317.696C357.055 318.55 357.428 319.323 357.478 319.5C358.057 321.562 360.27 322.623 362.148 322.1C364.025 321.578 365.427 319.497 365.287 316.883C365.067 312.697 364.297 304.17 357.269 296.45C356.957 296.107 356.521 295.902 356.058 295.88C355.594 295.858 355.141 296.021 354.798 296.333C354.628 296.488 354.49 296.675 354.392 296.883C354.294 297.091 354.238 297.316 354.227 297.546C354.217 297.775 354.251 298.005 354.329 298.221C354.407 298.437 354.527 298.636 354.682 298.806C360.942 305.683 361.58 313.044 361.791 317.067C361.872 318.564 361.412 318.671 361.209 318.727C361.006 318.783 360.919 318.813 360.846 318.551C360.572 317.571 360.048 316.725 359.378 315.732C358.707 314.737 357.879 313.662 356.991 312.59C355.215 310.446 353.232 308.344 351.778 307.067C349.629 305.18 345.294 300.364 344.351 299.314C344.494 298.932 344.699 298.44 344.957 297.869C345.495 296.679 346.228 295.201 346.96 293.775C348.424 290.922 349.888 288.267 349.888 288.267C349.999 288.065 350.069 287.844 350.095 287.616C350.12 287.387 350.1 287.156 350.036 286.935C349.973 286.714 349.866 286.508 349.722 286.329C349.579 286.149 349.401 286 349.2 285.889L349.201 285.894Z" fill="black"/>
<path d="M183.225 154.14C182.762 154.159 182.325 154.361 182.01 154.702C181.696 155.043 181.529 155.495 181.548 155.959C181.548 155.959 181.971 166.464 182.76 178.608C183.549 190.751 184.665 204.428 186.188 211.274C186.237 211.499 186.331 211.711 186.463 211.899C186.595 212.088 186.763 212.248 186.956 212.371C187.15 212.495 187.367 212.579 187.593 212.618C187.819 212.658 188.051 212.653 188.276 212.603C188.5 212.553 188.712 212.46 188.9 212.328C189.089 212.196 189.249 212.028 189.372 211.834C189.496 211.64 189.58 211.424 189.619 211.197C189.659 210.971 189.654 210.739 189.604 210.515C188.222 204.303 187.038 190.476 186.252 178.381C185.467 166.287 185.043 155.818 185.043 155.818C185.025 155.354 184.823 154.917 184.482 154.603C184.141 154.288 183.689 154.122 183.225 154.14Z" fill="black"/>
<path fill-rule="evenodd" clip-rule="evenodd" d="M194.377 173.892C194.377 174.541 194.119 175.164 193.66 175.624C193.2 176.083 192.577 176.341 191.928 176.341C191.278 176.341 190.655 176.083 190.196 175.624C189.737 175.164 189.479 174.541 189.479 173.892C189.479 173.242 189.737 172.619 190.196 172.16C190.655 171.7 191.278 171.442 191.928 171.442C192.577 171.442 193.2 171.7 193.66 172.16C194.119 172.619 194.377 173.242 194.377 173.892Z" fill="black"/>
<path fill-rule="evenodd" clip-rule="evenodd" d="M196.201 191.12C196.201 191.77 195.943 192.393 195.484 192.852C195.024 193.312 194.401 193.57 193.752 193.57C193.102 193.57 192.479 193.312 192.02 192.852C191.561 192.393 191.303 191.77 191.303 191.12C191.303 190.471 191.561 189.847 192.02 189.388C192.479 188.929 193.102 188.671 193.752 188.671C194.401 188.671 195.024 188.929 195.484 189.388C195.943 189.847 196.201 190.471 196.201 191.12Z" fill="black"/>
<path fill-rule="evenodd" clip-rule="evenodd" d="M197.485 208.079C197.485 208.728 197.227 209.351 196.767 209.811C196.308 210.27 195.685 210.528 195.035 210.528C194.386 210.528 193.763 210.27 193.304 209.811C192.844 209.351 192.586 208.728 192.586 208.079C192.586 207.429 192.844 206.806 193.304 206.347C193.763 205.887 194.386 205.629 195.035 205.629C195.685 205.629 196.308 205.887 196.767 206.347C197.227 206.806 197.485 207.429 197.485 208.079Z" fill="black"/>
<path d="M219.265 141.181C218.832 141.348 218.483 141.68 218.295 142.104C214.022 151.738 202.053 159.966 188.997 161.805C175.94 163.643 162.008 159.396 153.043 144.31C152.805 143.911 152.419 143.623 151.97 143.509C151.52 143.394 151.043 143.463 150.644 143.701C150.447 143.818 150.274 143.973 150.136 144.157C149.999 144.341 149.899 144.551 149.842 144.773C149.785 144.996 149.773 145.228 149.806 145.455C149.839 145.683 149.916 145.902 150.033 146.099C159.677 162.327 175.317 167.267 189.485 165.272C203.652 163.277 216.558 154.651 221.494 143.523C221.587 143.313 221.638 143.086 221.643 142.856C221.649 142.627 221.609 142.398 221.527 142.183C221.444 141.969 221.32 141.773 221.161 141.606C221.003 141.44 220.813 141.306 220.603 141.213C220.179 141.025 219.698 141.014 219.265 141.181Z" fill="black"/>
<path d="M188.093 0.508584C177.282 0.324787 168.099 3.12261 161.76 6.00882C120.81 24.6301 115.106 51.6089 111.699 65.7825C109.878 73.3393 110.632 82.508 111.594 91.1259C112.555 99.7444 113.714 107.887 113.113 112.679C112.557 117.142 108.038 124.455 102.954 132.43C97.8703 140.405 92.2925 149.194 89.9426 157.835C85.1397 175.465 99.5149 191.415 99.5149 191.415C99.8225 191.762 100.255 191.973 100.718 192.001C101.182 192.03 101.637 191.873 101.984 191.565C102.156 191.413 102.297 191.228 102.398 191.022C102.498 190.815 102.557 190.59 102.571 190.361C102.585 190.131 102.554 189.901 102.479 189.684C102.404 189.467 102.287 189.266 102.135 189.094C102.135 189.094 89.137 174.11 93.3202 158.755C95.4552 150.903 100.83 142.273 105.905 134.312C110.98 126.351 115.826 119.21 116.586 113.114C117.308 107.355 116.025 99.2716 115.073 90.738C114.121 82.2037 113.491 73.2951 115.104 66.6019C118.548 52.2751 123.287 27.3507 163.211 9.19604C175.142 3.76365 197.587 -1.54329 222.174 15.7614C230.31 21.487 242.318 36.5907 245.252 67.8707C245.69 72.529 243.926 80.8821 241.996 88.6998C241.03 92.6087 240.04 96.4149 239.303 99.6938C238.567 102.973 238.052 105.644 238.156 107.715C238.304 110.677 237.469 114.6 239.854 119.202C242.239 123.805 247.6 128.786 259.545 135.055C266.058 138.476 270.477 141.722 274.111 147.043C277.746 152.364 280.613 159.895 283.558 171.818C284.484 175.558 285.117 181.805 283.981 188.197C282.846 194.589 280.001 201.096 274.047 205.834C273.867 205.977 273.717 206.154 273.605 206.355C273.494 206.557 273.423 206.778 273.397 207.006C273.371 207.234 273.391 207.466 273.454 207.687C273.517 207.908 273.624 208.114 273.767 208.294C273.91 208.474 274.087 208.624 274.288 208.735C274.49 208.847 274.711 208.918 274.939 208.944C275.167 208.97 275.399 208.95 275.62 208.887C275.841 208.823 276.047 208.717 276.227 208.574C282.982 203.199 286.185 195.797 287.427 188.81C288.668 181.823 288.006 175.222 286.955 170.977C283.966 158.877 281.016 150.945 277.001 145.068C272.986 139.19 267.924 135.502 261.173 131.955C249.527 125.844 244.826 121.184 242.964 117.591C241.102 113.998 241.835 111.173 241.653 107.539C241.592 106.308 242.004 103.649 242.72 100.462C243.436 97.2733 244.422 93.475 245.394 89.5388C247.338 81.6663 249.285 73.3626 248.738 67.5442C245.731 35.4844 233.363 19.355 224.189 12.8991C211.344 3.85868 198.907 0.69408 188.096 0.5102L188.093 0.508584Z" fill="black"/>
<path fill-rule="evenodd" clip-rule="evenodd" d="M100.823 190.256C100.823 190.256 87.137 174.789 91.6301 158.296C96.1149 141.804 113.533 123.457 114.848 112.898C116.172 102.346 109.966 80.4414 113.4 66.1912C116.826 51.9409 122.047 25.9892 162.485 7.60127C174.789 1.99882 198.041 -3.36364 223.179 14.3292C231.834 20.4199 244.023 36.0356 246.993 67.7056C247.978 78.1822 239.571 101.022 239.902 107.626C240.233 114.222 236.766 121.123 260.357 133.503C273.621 140.471 279.322 147.373 285.255 171.396C287.232 179.382 287.845 197.092 275.135 207.204C265.106 188.005 254.912 170.577 246.513 159.769C236.592 147 221.872 144.857 219.844 142.764C217.817 140.67 214.168 133.503 214.168 133.503C211.859 133.801 209.716 134.19 207.73 134.67C201.251 126.022 200.978 116.837 200.978 116.837C208.177 109.894 217.048 100.178 219.273 76.7837C221.516 53.1988 211.901 45.7013 203.386 37.8479C200.209 47.0253 171.827 76.4527 146.565 76.0224C146.565 76.0224 148.17 88.6093 153.234 98.4901C156.718 105.276 161.889 112.442 167.284 117.375C167.284 117.375 167.4 127.413 161.393 135.489C157.967 134.62 155.65 134.769 155.65 134.769C155.65 134.769 152.671 141.257 151.538 145.205C151.538 145.205 142.221 148.101 131.447 155.715C124.224 160.82 114.029 169.518 100.823 190.256ZM145.042 76.3286C142.378 68.5166 136.635 68.7069 135.94 73.1591C135.254 77.6113 140.789 83.6937 143.222 86.1929C145.646 88.692 147.202 88.8327 146.391 86.5984C145.58 84.3723 145.042 76.3286 145.042 76.3286ZM221.268 77.7768C221.003 79.2912 221.35 80.7311 223.767 79.1256C226.191 77.5202 229.352 73.7135 228.524 69.0876C227.705 64.4616 226.812 61.7887 224.503 64.5941C220.87 68.9966 221.565 76.0058 221.268 77.7768Z" fill="black"/>
<path d="M229.684 177.137C229.255 177.314 228.914 177.654 228.737 178.083C228.559 178.512 228.558 178.993 228.735 179.422C228.735 179.422 229.714 181.789 230.794 184.685C231.875 187.581 233.056 191.066 233.417 192.938C234.144 196.743 235.179 212.074 234.542 220.015C234.198 224.301 234.172 231.837 234.371 238.882C234.47 242.405 234.626 245.791 234.835 248.566C235.043 251.34 235.244 253.375 235.662 254.751C236.063 256.066 235.988 259.165 234.948 262.265C233.908 265.365 231.998 268.518 229.209 270.563C223.132 275.014 207.072 284.138 183.416 285.171C179.265 285.352 171.746 285.246 164.119 283.936C156.493 282.626 148.784 280.058 144.16 275.721C138.581 270.49 136.25 265.569 135.734 255.378C135.461 249.906 133.848 239.866 132.615 227.268C131.381 214.669 130.526 199.603 131.75 184.505C131.769 184.276 131.742 184.046 131.672 183.827C131.601 183.608 131.488 183.405 131.339 183.23C131.19 183.055 131.009 182.911 130.804 182.806C130.599 182.701 130.376 182.638 130.147 182.619C129.918 182.601 129.687 182.627 129.469 182.698C129.25 182.768 129.047 182.881 128.872 183.03C128.697 183.179 128.553 183.361 128.448 183.566C128.343 183.77 128.279 183.993 128.261 184.223C127.011 199.637 127.886 214.897 129.13 227.609C130.375 240.32 131.99 250.573 132.238 255.553C132.781 266.265 135.696 272.582 141.767 278.275C147.271 283.438 155.557 286.016 163.528 287.386C171.499 288.755 179.181 288.859 183.57 288.667C208.053 287.598 224.677 278.22 231.278 273.385C234.819 270.788 237.045 267.013 238.264 263.377C239.483 259.742 239.789 256.297 239.007 253.731C238.834 253.162 238.525 250.995 238.322 248.304C238.12 245.611 237.963 242.265 237.865 238.784C237.669 231.821 237.708 224.26 238.027 220.295C238.713 211.737 237.763 197.049 236.852 192.278C236.385 189.863 235.176 186.422 234.072 183.463C232.968 180.504 231.969 178.087 231.969 178.087C231.881 177.875 231.753 177.682 231.59 177.519C231.427 177.357 231.234 177.228 231.022 177.14C230.81 177.052 230.582 177.007 230.352 177.007C230.122 177.007 229.895 177.052 229.683 177.14L229.684 177.137Z" fill="black"/>
<path d="M129.715 212.01C129.486 212.022 129.261 212.08 129.054 212.179C128.846 212.278 128.661 212.417 128.507 212.589C128.353 212.76 128.235 212.959 128.159 213.176C128.082 213.393 128.05 213.623 128.062 213.852C128.062 213.852 128.344 218.281 125.21 226.553C122.075 234.825 115.505 246.732 101.7 261.001C93.6843 269.282 67.029 291.36 40.0252 292.803C39.5619 292.828 39.1275 293.036 38.8175 293.381C38.5075 293.727 38.3472 294.181 38.3719 294.644C38.3841 294.874 38.4414 295.099 38.5405 295.306C38.6396 295.514 38.7785 295.699 38.9495 295.853C39.1204 296.007 39.32 296.125 39.5367 296.202C39.7535 296.279 39.9832 296.312 40.2127 296.299C68.9563 294.763 95.6974 272.236 104.215 263.437C118.311 248.867 125.166 236.544 128.481 227.796C131.796 219.048 131.555 213.667 131.555 213.667C131.542 213.437 131.485 213.212 131.386 213.005C131.287 212.797 131.148 212.611 130.977 212.458C130.806 212.304 130.607 212.185 130.39 212.109C130.173 212.032 129.943 211.999 129.714 212.012L129.715 212.01Z" fill="black"/>
<path d="M235.748 217.14C235.315 217.307 234.966 217.639 234.778 218.063C234.59 218.487 234.578 218.968 234.744 219.401C234.744 219.401 245.037 246.159 270.115 272.367C278.16 280.762 293.409 295.794 326.058 299.813C326.519 299.87 326.983 299.741 327.349 299.456C327.715 299.17 327.952 298.751 328.009 298.291C328.037 298.062 328.02 297.831 327.959 297.61C327.897 297.388 327.793 297.181 327.651 296.999C327.51 296.818 327.334 296.667 327.134 296.554C326.934 296.44 326.713 296.368 326.485 296.34C294.742 292.432 280.617 278.267 272.642 269.946C248.056 244.251 238.01 218.145 238.01 218.145C237.928 217.931 237.804 217.734 237.645 217.568C237.487 217.401 237.297 217.267 237.087 217.174C236.877 217.08 236.651 217.029 236.421 217.024C236.191 217.018 235.962 217.057 235.748 217.14Z" fill="black"/>
<path fill-rule="evenodd" clip-rule="evenodd" d="M142.411 379.978C113.136 378.679 73.1695 370.105 73.1695 370.105C35.0395 359.281 27.9581 346.239 25.196 342.391C11.4313 323.225 23.2002 311.391 25.196 309.116C34.4007 298.647 58.147 299.268 63.7613 299.458C89.5531 300.311 121.344 308.793 121.344 308.793C121.501 308.685 199.307 337.285 233.622 359.728C234.292 360.167 235.185 359.985 235.624 359.314C236.062 358.644 235.872 357.75 235.202 357.312C201.359 335.167 167.144 321.189 125.25 306.583C130.198 304.159 136.437 302.04 136.437 302.04C134.434 285.465 140.044 273.912 140.044 273.912C140.913 274.963 141.881 275.989 142.965 276.999C153.093 286.499 174.955 287.293 183.494 286.921C207.565 285.87 223.907 276.618 230.245 271.976C230.916 271.487 231.536 270.941 232.107 270.362C240.68 283.901 239.927 301.196 239.927 301.196C246.538 303.381 252.215 307.808 255.566 310.837C236.725 316.506 220.854 320.395 201.996 328.77C201.268 329.101 200.937 329.953 201.26 330.681C201.591 331.418 202.443 331.741 203.171 331.418C222.426 322.861 258.76 313.99 258.76 313.99C291.378 306.286 315.134 304.068 323.359 303.968C348.588 303.654 355.514 321.43 356.085 323.813C359.461 337.956 349.54 348.871 341.828 354.424C330.856 362.343 300.546 368.848 300.546 368.848C301.374 368.93 275.044 374.756 241.069 379.995C240.283 380.119 239.736 380.855 239.861 381.65C239.985 382.436 240.721 382.982 241.515 382.858C277.394 377.322 283.31 374.649 307.042 371.802C311.345 375.402 314.001 381.269 314.158 383.942C314.903 396.082 302.64 400.385 297.592 401.362C269.616 406.749 252.297 400.625 246.497 399.036C227.184 393.757 224.52 381.658 224.52 381.658C197.917 390.024 157.587 384.778 157.587 384.778C157.065 396.181 133.549 402.917 129.403 403.886C102.379 410.225 79.1106 405.706 74.7251 403.778C53.6175 394.493 61.9566 380.35 64.2785 377.603C65.3757 376.304 67.4195 374.566 69.2713 373.085C88.7257 377.197 111.539 381.501 142.279 382.874C143.081 382.908 143.76 382.287 143.793 381.492C143.826 380.698 143.205 380.019 142.411 379.978ZM188.931 296.628C186.142 296.628 183.883 298.887 183.883 301.676C183.883 304.457 186.142 306.716 188.931 306.716C191.711 306.716 193.978 304.457 193.978 301.676C193.978 298.887 191.711 296.628 188.931 296.628ZM188.931 299.524C190.114 299.524 191.082 300.484 191.082 301.676C191.082 302.86 190.114 303.819 188.931 303.819C187.739 303.819 186.779 302.86 186.779 301.676C186.779 300.484 187.739 299.524 188.931 299.524Z" fill="black"/>
<path d="M173.548 97.0819C173.384 96.921 173.189 96.7941 172.976 96.7084C172.762 96.6226 172.534 96.5798 172.304 96.5824C172.074 96.5849 171.847 96.6328 171.636 96.7232C171.424 96.8136 171.233 96.9448 171.072 97.1093C170.748 97.4411 170.568 97.8882 170.573 98.3522C170.578 98.8163 170.768 99.2592 171.099 99.5837C176.772 105.133 183.862 106.771 191.285 103.393C191.707 103.201 192.036 102.849 192.199 102.414C192.361 101.98 192.345 101.498 192.153 101.076C191.96 100.653 191.608 100.324 191.174 100.162C190.739 99.9988 190.258 100.015 189.835 100.208C183.472 103.103 178.5 101.926 173.548 97.0819Z" fill="black"/>
</g>
<defs>
<clipPath id="clip0_1_115">
<rect width="370.898" height="406.647" fill="white" transform="translate(0.834717 0.5)"/>
</clipPath>
</defs>
</svg>
