<svg width="321" height="517" viewBox="0 0 321 517" fill="none" xmlns="http://www.w3.org/2000/svg">
<g clip-path="url(#clip0_1_140)">
<path d="M157.819 479.308C157.59 479.327 157.367 479.39 157.162 479.494C156.957 479.599 156.775 479.743 156.626 479.918C156.477 480.093 156.364 480.296 156.294 480.515C156.223 480.733 156.196 480.964 156.215 481.193C156.853 489.097 150.982 496.425 142.348 500.626C140.024 501.76 137.022 502.224 134.553 502.761C133.318 503.029 132.216 503.269 131.193 503.924C130.681 504.252 130.154 504.746 129.869 505.455C129.585 506.164 129.627 506.979 129.851 507.647C130.877 510.721 133.332 512.373 135.854 512.954C138.377 513.536 141.054 513.39 143.599 513.494C156.572 514.041 164.986 507.787 168.611 504.387C168.645 504.82 168.679 505.188 168.728 505.685C168.817 506.589 168.899 507.61 169.687 508.605C170.474 509.6 172.059 509.989 173.441 509.667C173.444 509.667 173.448 509.667 173.452 509.667C175.806 509.11 177.424 507.861 178.191 506.349C178.958 504.837 178.931 503.318 178.901 502.155C178.57 490.235 173.39 480.923 173.39 480.923C173.279 480.722 173.129 480.545 172.949 480.402C172.769 480.259 172.563 480.152 172.342 480.089C172.121 480.025 171.89 480.006 171.661 480.032C171.433 480.058 171.212 480.128 171.011 480.239C170.809 480.351 170.632 480.5 170.489 480.68C170.346 480.86 170.239 481.066 170.176 481.287C170.112 481.508 170.093 481.739 170.119 481.967C170.145 482.195 170.215 482.416 170.327 482.617C170.327 482.617 175.096 491.294 175.4 502.252C175.426 503.306 175.36 504.193 175.068 504.769C174.775 505.346 174.312 505.868 172.651 506.263C172.015 506.411 172.393 506.382 172.438 506.44C172.484 506.496 172.287 506.06 172.217 505.347C172.147 504.634 172.134 503.718 171.969 502.748C171.804 501.777 171.47 500.589 170.371 499.777C170.003 499.505 169.544 499.388 169.091 499.45C168.638 499.513 168.228 499.75 167.947 500.111C167.947 500.111 159.842 510.683 143.749 510.003C141.013 509.892 138.46 509.965 136.649 509.548C134.947 509.155 134.008 508.534 133.337 506.798C133.658 506.642 134.301 506.403 135.303 506.185C137.558 505.695 140.876 505.246 143.889 503.776C153.408 499.143 160.499 490.682 159.71 480.919C159.691 480.689 159.628 480.466 159.523 480.262C159.418 480.057 159.274 479.875 159.099 479.726C158.924 479.577 158.721 479.464 158.503 479.394C158.284 479.323 158.053 479.296 157.824 479.315L157.819 479.308Z" fill="black"/>
<path d="M167.242 63.6338C167.014 63.6013 166.782 63.6139 166.56 63.6709C166.337 63.7279 166.128 63.8281 165.944 63.9659C165.76 64.1038 165.605 64.2765 165.488 64.4742C165.37 64.6719 165.293 64.8907 165.261 65.1182C164.495 70.4653 162.185 73.8228 157.68 75.6743C157.251 75.8507 156.909 76.1902 156.73 76.6183C156.551 77.0465 156.55 77.528 156.726 77.9572C156.813 78.17 156.942 78.3635 157.104 78.5266C157.266 78.6896 157.459 78.8193 157.672 78.9079C157.884 78.9964 158.112 79.042 158.342 79.0425C158.572 79.043 158.8 78.9983 159.013 78.9106C164.593 76.6169 167.836 71.8192 168.725 65.6137C168.79 65.1546 168.671 64.6882 168.393 64.317C168.115 63.9457 167.701 63.7 167.242 63.6338Z" fill="black"/>
<path d="M164.632 51.1157C162.838 51.1882 161.335 51.6413 160.186 52.496C159.036 53.3508 158.333 54.5571 157.955 55.7766C157.886 55.996 157.862 56.2268 157.883 56.4557C157.904 56.6845 157.97 56.907 158.077 57.1103C158.184 57.3137 158.33 57.4941 158.507 57.641C158.684 57.7879 158.888 57.8985 159.108 57.9666C159.327 58.0347 159.558 58.0589 159.788 58.0378C160.017 58.0166 160.239 57.9505 160.443 57.8432C160.646 57.736 160.827 57.5897 160.974 57.4127C161.12 57.2357 161.231 57.0315 161.299 56.8118C161.521 56.0947 161.81 55.649 162.275 55.3032C162.74 54.9574 163.475 54.6631 164.774 54.6108C165.238 54.5919 165.675 54.3898 165.989 54.0488C166.304 53.7078 166.47 53.2559 166.452 52.7924C166.433 52.329 166.23 51.892 165.889 51.5776C165.548 51.2632 165.096 51.097 164.632 51.1157Z" fill="black"/>
<path d="M174.588 49.6446C174.36 49.6756 174.14 49.7511 173.941 49.867C173.743 49.9828 173.569 50.1367 173.43 50.3197C173.291 50.5028 173.189 50.7115 173.131 50.9339C173.072 51.1562 173.058 51.3879 173.089 51.6156C173.152 52.0752 173.395 52.4912 173.764 52.772C174.134 53.0528 174.599 53.1756 175.059 53.1132C178.702 52.6182 181.631 53.312 184.251 55.0378C184.443 55.1643 184.658 55.2518 184.884 55.2953C185.11 55.3388 185.342 55.3374 185.567 55.2912C185.793 55.245 186.007 55.1549 186.197 55.026C186.387 54.8971 186.55 54.732 186.677 54.54C186.804 54.3482 186.891 54.1333 186.935 53.9076C186.978 53.682 186.977 53.4498 186.931 53.2247C186.884 52.9995 186.794 52.7858 186.665 52.5955C186.536 52.4051 186.371 52.242 186.179 52.1156C182.884 49.9452 178.946 49.0524 174.588 49.6446Z" fill="black"/>
<path d="M173.136 80.227C172.259 80.142 171.423 80.3532 170.624 80.7203C168.289 81.7931 165.336 82.9638 163.51 83.2664C162.549 83.4193 161.963 83.9197 161.454 84.5118C160.945 85.1039 160.548 85.8569 160.398 86.7593C160.099 88.5643 161.203 90.7846 163.658 91.9909C168.556 94.397 174.872 92.2545 176.097 86.9783C176.612 84.7738 176.615 82.911 175.48 81.4879C174.912 80.776 174.012 80.314 173.136 80.2292V80.227ZM172.74 83.7243C172.765 83.7753 173.072 84.541 172.689 86.1819C172.032 89.0137 168.33 90.3824 165.206 88.8475C163.649 88.083 163.793 87.6917 163.853 87.3278C163.884 87.1458 163.995 86.9243 164.112 86.7881C164.229 86.6518 164.384 86.6684 164.063 86.7189C164.067 86.7189 164.071 86.7189 164.075 86.7189C166.647 86.295 169.647 85.0198 172.092 83.8966C172.456 83.7291 172.662 83.7205 172.744 83.7218L172.74 83.7243Z" fill="black"/>
<path fill-rule="evenodd" clip-rule="evenodd" d="M181.984 64.6184C181.866 65.2545 181.683 65.8719 181.443 66.4355C181.204 66.999 180.915 67.4977 180.591 67.9029C180.266 68.3082 179.914 68.612 179.554 68.7972C179.195 68.9825 178.834 69.0455 178.493 68.9825C178.152 68.9196 177.838 68.732 177.568 68.4304C177.299 68.1288 177.078 67.7192 176.92 67.2249C176.763 66.7306 176.67 66.1613 176.648 65.5496C176.627 64.9379 176.676 64.2957 176.794 63.6597C177.031 62.3751 177.532 61.1937 178.187 60.3753C178.842 59.5568 179.596 59.1684 180.285 59.2955C180.625 59.3585 180.939 59.5461 181.209 59.8477C181.479 60.1492 181.699 60.5588 181.857 61.053C182.015 61.5473 182.107 62.1165 182.129 62.7283C182.151 63.34 182.102 63.9823 181.984 64.6184Z" fill="black"/>
<path fill-rule="evenodd" clip-rule="evenodd" d="M162.887 64.5467C162.691 65.6111 162.265 66.5882 161.704 67.263C161.144 67.9378 160.494 68.2551 159.898 68.1449C159.302 68.0349 158.808 67.5065 158.526 66.676C158.244 65.8455 158.196 64.7809 158.393 63.7165C158.49 63.1894 158.645 62.6783 158.848 62.2122C159.051 61.7461 159.298 61.3343 159.576 61.0001C159.853 60.666 160.156 60.4162 160.466 60.2649C160.776 60.1135 161.087 60.0637 161.382 60.1182C161.677 60.1727 161.95 60.3305 162.186 60.5826C162.421 60.8346 162.614 61.176 162.754 61.5872C162.894 61.9984 162.977 62.4714 163 62.9792C163.023 63.487 162.985 64.0197 162.887 64.5467Z" fill="black"/>
<path d="M171.598 41.8492C163.355 41.7149 157.392 45.4723 155.04 50.4631C150.492 60.1341 149.065 73.0863 151.952 89.7987C153.487 98.6871 159.616 103.415 165.128 105.695C170.641 107.975 175.759 108.046 175.759 108.046C176.223 108.054 176.67 107.876 177.004 107.554C177.337 107.231 177.528 106.789 177.536 106.325C177.544 105.862 177.367 105.414 177.044 105.081C176.722 104.747 176.28 104.555 175.816 104.547C175.816 104.547 171.298 104.459 166.467 102.461C161.636 100.463 156.713 96.7931 155.403 89.2037C152.601 72.9804 154.052 60.7876 158.207 51.952C160.419 47.2579 167.84 43.0467 179.497 46.7137C182.865 47.7767 186.693 49.5938 189.871 53.1045C193.049 56.6151 195.646 61.8541 196.378 70.0736C196.541 71.8841 197.787 73.4724 199.499 73.7654C201.208 74.0582 202.951 73.001 203.923 71.2458V71.2345C204.395 70.3943 205.981 68.821 207.547 68.2902C209.115 67.7582 210.5 67.7563 212.25 70.0554C213.185 71.2763 213.547 74.5016 212.185 77.4947C210.823 80.4879 208.039 83.2416 203.073 84.0382C201.253 84.3316 198.66 85.3555 196.251 88.9778C193.842 92.6001 191.206 98.803 187.936 110.141C187.872 110.362 187.853 110.593 187.878 110.821C187.904 111.05 187.975 111.27 188.086 111.472C188.197 111.673 188.347 111.85 188.526 111.993C188.706 112.137 188.912 112.243 189.133 112.307C189.354 112.37 189.585 112.39 189.814 112.364C190.042 112.338 190.263 112.268 190.465 112.157C190.666 112.046 190.843 111.896 190.987 111.716C191.13 111.537 191.237 111.331 191.3 111.11C194.524 99.9319 197.139 93.9643 199.166 90.9156C201.193 87.8684 202.221 87.7186 203.631 87.4912C209.68 86.5209 213.578 82.8934 215.375 78.9437C217.172 74.994 217.167 70.7159 215.032 67.9274C212.566 64.6928 209.059 64.0774 206.422 64.972C203.783 65.8672 201.855 67.7538 200.862 69.5312C200.862 69.5349 200.862 69.5387 200.862 69.5425C200.383 70.4105 200.097 70.3115 200.089 70.3101C200.078 70.3101 199.919 70.3452 199.866 69.7549C199.08 60.9288 196.181 54.854 192.467 50.7507C188.752 46.6474 184.29 44.5507 180.552 43.3711C177.347 42.3628 174.347 41.8851 171.599 41.8403L171.598 41.8492Z" fill="black"/>
<path d="M176.586 13.4657C159.75 13.9174 149.668 19.3874 143.855 25.8358C138.043 32.2836 136.532 39.5316 136.215 43.4442C135.191 56.0204 138.917 64.065 143.008 68.8347C147.098 73.6044 151.633 75.1878 151.633 75.1878C151.851 75.2629 152.081 75.2942 152.311 75.2802C152.54 75.2662 152.765 75.2072 152.972 75.1063C153.179 75.0054 153.363 74.8647 153.516 74.6923C153.668 74.52 153.785 74.3193 153.86 74.1017C153.934 73.8844 153.966 73.6545 153.952 73.4252C153.937 73.1959 153.878 72.9716 153.777 72.7652C153.676 72.5587 153.536 72.3742 153.363 72.2221C153.191 72.07 152.99 71.9532 152.773 71.8785C152.773 71.8785 149.193 70.6689 145.666 66.5562C142.139 62.4435 138.744 55.5153 139.703 43.7295C139.975 40.3705 141.319 33.8769 146.456 28.1784C151.593 22.4801 160.556 17.3997 176.684 16.9675C181.287 16.8385 190.678 16.7586 200.072 19.7438C209.466 22.7289 218.762 28.6384 223.673 40.7256C224.789 43.4634 226.439 51.7827 225.204 60.0085C223.97 68.2344 220.15 76.3647 210.528 80.342C210.099 80.5196 209.758 80.86 209.581 81.2886C209.403 81.7171 209.403 82.1986 209.58 82.6272C209.668 82.8395 209.797 83.0328 209.959 83.1954C210.122 83.358 210.315 83.4869 210.527 83.575C210.739 83.6632 210.967 83.7087 211.197 83.7089C211.427 83.7091 211.654 83.6639 211.867 83.5761C222.767 79.0704 227.321 69.5039 228.668 60.5284C230.015 51.5529 228.45 43.1683 226.915 39.405C221.569 26.2484 211.183 19.601 201.134 16.408C191.086 13.2151 181.276 13.3342 176.586 13.4657Z" fill="black"/>
<path fill-rule="evenodd" clip-rule="evenodd" d="M152.204 73.5327C152.204 73.5327 135.976 67.949 137.959 43.5869C138.549 36.3156 143.671 16.0987 176.636 15.2153C185.929 14.9548 215.042 14.8189 225.297 40.0645C227.949 46.5656 231.722 73.4761 211.2 81.9593C215.313 77.8593 215.767 71.7771 213.648 69.0023C209.432 63.4639 203.857 67.7792 202.395 70.3955C200.944 73.0231 198.338 72.3209 198.123 69.9198C196.604 52.8742 187.13 47.2905 180.025 45.048C167.786 41.1971 159.298 45.5349 156.624 51.2092C153.802 57.212 152.204 64.5965 152.204 73.5327Z" fill="black"/>
<path d="M174.619 121.352C173.225 121.32 171.669 121.351 170.241 122.288C168.752 123.259 168.225 124.915 168.187 126.451C168.148 127.987 168.576 129.586 169.725 130.813C171.152 132.337 173.097 132.431 174.84 132.311C175.712 132.251 176.555 132.092 177.328 131.826C178.101 131.56 178.828 131.245 179.446 130.484C180.746 128.88 181.018 126.938 180.624 125.394C180.23 123.849 179.343 122.626 178.045 121.952C177.423 121.63 177.083 121.614 176.527 121.525C175.971 121.435 175.321 121.37 174.623 121.354L174.619 121.352ZM174.537 124.849C175.065 124.862 175.58 124.914 175.965 124.976C176.346 125.037 176.708 125.202 176.43 125.057C176.572 125.132 177.078 125.649 177.233 126.258C177.388 126.868 177.364 127.493 176.728 128.278C176.833 128.149 176.607 128.371 176.191 128.515C175.772 128.659 175.187 128.777 174.601 128.818C173.431 128.898 172.346 128.484 172.286 128.422C171.962 128.075 171.67 127.272 171.689 126.535C171.707 125.797 172.013 125.307 172.156 125.214C172.346 125.089 173.479 124.825 174.535 124.849L174.537 124.849Z" fill="black"/>
<path d="M186.38 117.917C183.798 117.802 181.824 119.464 180.154 120.877C178.484 122.289 177.237 123.706 177.237 123.706C176.931 124.054 176.775 124.51 176.804 124.973C176.834 125.436 177.046 125.868 177.394 126.175C177.742 126.482 178.198 126.637 178.661 126.608C179.125 126.579 179.557 126.368 179.864 126.02C179.864 126.02 180.971 124.768 182.414 123.547C183.857 122.326 185.757 121.392 186.223 121.412C187.76 121.486 188.997 122.187 189.756 123.248C190.515 124.31 190.842 125.744 190.294 127.564C189.022 131.787 186.968 133.32 186.48 133.411C183.527 133.917 179.676 131.638 178.384 129.296C178.16 128.89 177.783 128.589 177.338 128.46C176.892 128.331 176.413 128.384 176.007 128.608C175.805 128.719 175.627 128.869 175.484 129.048C175.34 129.228 175.233 129.434 175.169 129.654C175.105 129.875 175.085 130.107 175.111 130.335C175.137 130.564 175.207 130.785 175.318 130.986C177.424 134.803 182.226 137.705 187.091 136.859C187.095 136.859 187.099 136.859 187.102 136.859C189.993 136.336 192.175 133.455 193.645 128.575C194.468 125.842 194.001 123.169 192.605 121.215C191.208 119.261 188.927 118.039 186.385 117.919L186.38 117.917Z" fill="black"/>
<path d="M164.059 118.089C163.382 118.118 162.689 118.266 161.992 118.574C159.9 119.5 157.844 120.73 156.383 122.589C154.923 124.447 154.2 127.019 154.852 129.873C155.482 132.634 156.895 135.05 158.853 136.594C160.811 138.137 163.652 138.681 165.991 137.204C169.596 134.933 171.946 132.581 173.065 131.287C173.216 131.113 173.33 130.911 173.403 130.693C173.475 130.475 173.504 130.244 173.487 130.015C173.471 129.786 173.409 129.562 173.306 129.357C173.203 129.151 173.06 128.968 172.886 128.818C172.712 128.668 172.51 128.553 172.291 128.481C172.073 128.409 171.843 128.38 171.613 128.397C171.384 128.414 171.16 128.476 170.954 128.579C170.749 128.683 170.566 128.825 170.416 129C169.518 130.038 167.382 132.192 164.121 134.247C163.038 134.931 162.181 134.763 161.02 133.848C159.86 132.934 158.733 131.149 158.265 129.097C157.817 127.137 158.223 125.915 159.137 124.752C160.05 123.59 161.611 122.57 163.406 121.775C164.493 121.295 165.905 121.829 167.271 122.814C168.636 123.8 169.623 125.002 169.623 125.002C169.768 125.181 169.947 125.329 170.149 125.439C170.351 125.549 170.573 125.618 170.801 125.642C171.03 125.666 171.261 125.645 171.482 125.579C171.703 125.514 171.908 125.406 172.087 125.261C172.447 124.969 172.676 124.545 172.724 124.084C172.773 123.623 172.636 123.162 172.344 122.801C172.344 122.801 171.127 121.283 169.32 119.979C167.965 119 166.091 118.008 164.061 118.092L164.059 118.089Z" fill="black"/>
<path d="M164.712 108.084C163.59 108.815 161.646 110.402 159.811 111.911C157.977 113.419 156.365 114.782 156.365 114.782C156.036 115.06 155.821 115.45 155.762 115.876C155.702 116.303 155.802 116.736 156.042 117.094C156.119 117.207 156.958 118.648 157.636 119.857C158.314 121.065 158.933 122.184 158.933 122.184C159.157 122.59 159.533 122.891 159.979 123.02C160.425 123.149 160.903 123.096 161.31 122.872C161.511 122.761 161.689 122.611 161.833 122.432C161.976 122.252 162.083 122.046 162.147 121.826C162.211 121.605 162.231 121.373 162.205 121.145C162.18 120.916 162.109 120.695 161.998 120.494C161.998 120.494 161.375 119.366 160.69 118.145C160.32 117.484 160.064 117.071 159.747 116.521C160.351 116.013 160.819 115.614 162.036 114.614C163.33 113.55 164.348 112.775 165.309 112.044C166.007 112.999 166.962 114.299 168.689 116.716C169.822 118.301 170.98 119.938 171.896 121.275C172.813 122.611 173.562 123.839 173.578 123.874C173.699 124.13 173.879 124.352 174.104 124.523C174.329 124.694 174.592 124.808 174.87 124.855C175.149 124.902 175.435 124.881 175.704 124.794C175.972 124.707 176.216 124.556 176.414 124.354C176.414 124.354 179.151 121.561 182.303 118.625C183.879 117.157 185.558 115.655 187.022 114.468C188.047 113.637 188.642 113.312 189.26 112.937C189.82 113.6 190.33 114.189 191.438 115.561C192.238 116.551 193.051 117.585 193.675 118.437C193.905 118.75 193.877 118.719 194.045 118.99C193.138 119.775 191.842 120.943 190.772 121.609C190.576 121.73 190.406 121.889 190.272 122.075C190.138 122.262 190.042 122.474 189.99 122.698C189.938 122.922 189.931 123.154 189.968 123.381C190.006 123.607 190.088 123.825 190.209 124.02C190.331 124.215 190.489 124.385 190.676 124.519C190.863 124.653 191.075 124.749 191.299 124.801C191.523 124.853 191.755 124.86 191.982 124.823C192.209 124.785 192.427 124.703 192.622 124.582C194.72 123.278 197.518 120.688 197.518 120.688C197.769 120.461 197.949 120.165 198.036 119.837C198.122 119.509 198.111 119.163 198.005 118.841C197.669 117.826 197.18 117.296 196.5 116.368C195.819 115.44 194.982 114.376 194.162 113.362C192.524 111.333 190.953 109.5 190.953 109.5C190.722 109.23 190.414 109.037 190.071 108.946C189.727 108.855 189.364 108.871 189.03 108.991C187.658 109.486 186.386 110.48 184.818 111.752C183.25 113.023 181.526 114.565 179.915 116.065C177.532 118.285 176.429 119.424 175.475 120.383C175.217 120.001 175.115 119.779 174.785 119.297C173.845 117.927 172.678 116.276 171.538 114.68C169.257 111.489 167.08 108.515 167.08 108.515C166.815 108.154 166.422 107.908 165.982 107.828C165.541 107.748 165.087 107.839 164.712 108.084Z" fill="black"/>
<path d="M277.225 58.7673C276.482 58.8104 275.808 58.8936 275.16 59.0903C274.511 59.2869 273.773 59.5828 273.272 60.4441C271.638 63.2595 270.943 67.6231 270.332 71.6418C270.027 73.6512 269.778 75.5464 269.558 76.9862C269.448 77.7062 269.343 78.3135 269.252 78.736C269.162 79.1586 268.951 79.4954 269.185 79.1386C246.896 112.608 238.635 138.186 238.635 138.186C238.492 138.628 238.532 139.108 238.743 139.52C238.955 139.933 239.322 140.245 239.763 140.387C240.205 140.529 240.685 140.491 241.098 140.279C241.511 140.067 241.823 139.701 241.966 139.259C241.966 139.259 250.044 114.192 272.105 81.0698C272.108 81.066 272.112 81.0622 272.116 81.0584C272.563 80.3788 272.561 80.0261 272.68 79.4724C272.8 78.9185 272.909 78.2639 273.023 77.5124C273.253 76.0094 273.5 74.1283 273.798 72.1636C274.378 68.3438 275.292 64.1831 276.226 62.426C276.457 62.3603 276.878 62.2875 277.43 62.2557C278.575 62.19 280.198 62.2727 281.91 62.4636C285.334 62.8452 289.235 63.6731 290.889 64.242C291.082 64.3077 291.282 64.4751 291.458 65.4454C291.635 66.4156 291.605 67.9134 291.412 69.5247C291.027 72.7471 290.072 76.3744 289.679 78.4858C289.531 79.2828 289.679 79.4163 289.756 79.7776C289.83 80.139 289.93 80.551 290.05 81.0496C290.291 82.0466 290.611 83.3765 290.925 85.0294C291.551 88.3353 292.14 92.9215 291.921 98.4987C291.481 109.653 287.839 124.759 274.57 141.506C272.31 144.367 264.113 152.903 253.181 160.208C242.248 167.512 228.547 173.63 215.052 172.449C214.606 172.41 214.163 172.542 213.813 172.819C213.462 173.096 213.231 173.497 213.166 173.938C213.166 173.938 211.427 185.835 209.565 198.393C207.702 210.951 205.689 224.311 205.233 226.763C204.363 231.444 200.776 237.146 191.265 240.726C189.37 241.44 181.684 244.514 169.709 245.405C157.734 246.295 141.631 244.953 123.313 236.603C121.476 235.763 120.331 234.735 119.511 233.169C118.691 231.604 118.223 229.398 118.185 226.305C118.128 221.352 117.828 208.363 119.781 194.285C121.733 180.206 126.012 165.144 134.615 156.197C134.936 155.863 135.112 155.414 135.103 154.95C135.093 154.487 134.9 154.046 134.566 153.724C134.231 153.403 133.783 153.227 133.319 153.236C132.855 153.245 132.413 153.438 132.091 153.773C122.551 163.695 118.314 179.388 116.315 193.805C114.315 208.222 114.627 221.469 114.683 226.347C114.725 229.766 115.227 232.534 116.41 234.793C117.593 237.052 119.482 238.703 121.859 239.788C140.755 248.403 157.5 249.825 169.968 248.898C182.437 247.97 190.791 244.647 192.5 244.002C202.91 240.084 207.574 233.325 208.675 227.405C209.205 224.557 211.163 211.471 213.026 198.909C214.773 187.131 216.206 177.329 216.404 175.976C230.55 176.656 244.255 170.384 255.128 163.119C266.425 155.571 274.636 147.074 277.317 143.681C291.029 126.373 294.955 110.438 295.42 98.6405C295.652 92.7417 295.028 87.8746 294.366 84.3813C294.035 82.6346 293.693 81.2293 293.452 80.2336C293.332 79.7357 293.238 79.3369 293.187 79.0833C293.164 78.9734 293.173 78.8799 293.175 78.8311C293.538 76.9791 294.472 73.4089 294.886 69.9429C295.1 68.1521 295.188 66.4082 294.9 64.822C294.611 63.2363 293.763 61.5322 292.025 60.9352C289.825 60.1791 285.958 59.397 282.295 58.9887C280.463 58.7845 278.711 58.6794 277.226 58.7651L277.225 58.7673Z" fill="black"/>
<path d="M291.476 77.0857C283.272 76.7231 270.64 77.9528 270.64 77.9528C270.411 77.9747 270.188 78.0414 269.985 78.1491C269.782 78.2569 269.602 78.4038 269.456 78.5811C269.31 78.7583 269.2 78.9627 269.132 79.1825C269.065 79.4022 269.042 79.6331 269.064 79.8619C269.109 80.3236 269.335 80.7485 269.693 81.0434C270.051 81.3383 270.512 81.4791 270.974 81.4347C270.974 81.4347 283.637 80.2411 291.321 80.5808C291.785 80.6013 292.238 80.4369 292.58 80.1237C292.923 79.8105 293.126 79.3741 293.147 78.9107C293.168 78.4472 293.003 77.9945 292.69 77.6522C292.376 77.31 291.94 77.1063 291.476 77.0857Z" fill="black"/>
<path fill-rule="evenodd" clip-rule="evenodd" d="M289.021 70.3161C289.021 70.852 288.84 71.366 288.519 71.7449C288.197 72.1238 287.762 72.3368 287.307 72.3368C286.853 72.3368 286.417 72.1238 286.096 71.7449C285.774 71.366 285.594 70.852 285.594 70.3161C285.594 69.7803 285.774 69.2663 286.096 68.8874C286.417 68.5085 286.853 68.2957 287.307 68.2957C287.762 68.2957 288.197 68.5085 288.519 68.8874C288.84 69.2663 289.021 69.7803 289.021 70.3161Z" fill="black"/>
<path d="M280.409 33.6954C279.487 33.7588 278.601 33.9163 277.789 34.1223C274.197 35.0335 270.775 38.285 270.87 43.1565C270.92 45.7036 271.929 49.9189 272.902 53.8078C273.875 57.6967 274.836 61.0679 274.836 61.0679C274.964 61.5136 275.263 61.8906 275.669 62.1158C276.074 62.341 276.553 62.3961 276.999 62.2691C277.445 62.142 277.823 61.8429 278.048 61.4376C278.274 61.0324 278.33 60.5541 278.203 60.1079C278.203 60.1079 277.254 56.7846 276.297 52.9606C275.341 49.1365 274.401 44.6182 274.371 43.088C274.308 39.8047 276.348 38.0973 278.65 37.5135C281.294 36.8426 283.899 36.7623 285.994 39.1371C287.314 40.64 288.546 42.0704 289.013 43.0393C289.246 43.524 289.28 43.8284 289.256 43.9927C289.232 44.1558 289.19 44.32 288.771 44.6674C288.771 44.6679 288.771 44.667 288.771 44.6674C286.892 46.1996 284.432 45.123 283.763 43.9529C283.532 43.5502 283.151 43.2554 282.703 43.1334C282.255 43.0115 281.777 43.0723 281.374 43.3025C280.972 43.5329 280.676 43.9137 280.554 44.3613C280.432 44.8089 280.493 45.2866 280.724 45.6894C282.57 48.9136 287.429 50.2827 290.989 47.3772C290.993 47.3772 290.997 47.3772 291.001 47.3772C291.926 46.6143 292.57 45.5843 292.727 44.4971C292.884 43.4099 292.597 42.4028 292.176 41.5284C291.334 39.7798 289.926 38.3048 288.63 36.8299C286.275 34.1599 283.186 33.5116 280.419 33.702L280.409 33.6954Z" fill="black"/>
<path d="M283.865 0.502719C282.992 0.51631 282.021 0.907325 281.392 1.59107C280.136 2.95857 279.994 4.76372 280.073 7.22973C280.137 9.20045 279.727 16.4387 279.287 22.9268C278.848 29.4148 278.389 35.3301 278.389 35.3301C278.371 35.5591 278.398 35.7895 278.47 36.008C278.541 36.2264 278.654 36.4287 278.803 36.6033C278.953 36.7779 279.135 36.9214 279.34 37.0255C279.545 37.1297 279.769 37.1925 279.998 37.2104C280.227 37.2282 280.457 37.2008 280.676 37.1296C280.895 37.0585 281.097 36.9451 281.272 36.7957C281.446 36.6464 281.59 36.4641 281.694 36.2593C281.799 36.0545 281.861 35.8312 281.879 35.6022C281.879 35.6022 282.339 29.672 282.78 23.1635C283.221 16.6549 283.657 9.74442 283.572 7.11691C283.505 5.03452 283.931 4.07081 283.964 4.01554C284.083 4.01554 284.396 4.06875 284.878 4.28542C284.882 4.28543 284.886 4.28543 284.89 4.28542C285.388 4.50729 286.373 5.67269 287.065 7.79381C287.758 9.91494 288.218 12.8351 288.316 16.1159C288.417 19.4882 288.465 24.6796 288.385 29.446C288.305 34.2124 288.027 38.7603 287.725 40.0641C287.674 40.2881 287.666 40.5201 287.704 40.7468C287.742 40.9736 287.825 41.1906 287.946 41.3856C288.068 41.5805 288.228 41.7496 288.415 41.883C288.602 42.0165 288.814 42.1117 289.038 42.1633C289.262 42.2151 289.494 42.2223 289.721 42.1844C289.948 42.1465 290.165 42.0643 290.36 41.9425C290.555 41.8206 290.724 41.6617 290.858 41.4745C290.991 41.2873 291.087 41.0755 291.138 40.8515C291.664 38.5763 291.805 34.338 291.886 29.5056C291.968 24.6733 291.918 19.4554 291.816 16.0096C291.711 12.472 291.235 9.28116 290.395 6.70767C289.555 4.1343 288.411 2.02244 286.314 1.08906C285.526 0.735241 284.74 0.487255 283.87 0.500507L283.865 0.502719Z" fill="black"/>
<path d="M294.378 31.8791C293.456 31.9437 292.623 32.2105 291.855 32.5074C290.318 33.1009 289.028 33.8899 289.028 33.8899C288.832 34.0091 288.66 34.1659 288.524 34.3513C288.388 34.5366 288.29 34.7469 288.235 34.9703C288.181 35.1936 288.17 35.4255 288.205 35.6527C288.24 35.8799 288.32 36.098 288.44 36.2945C288.559 36.4911 288.716 36.6623 288.901 36.7983C289.086 36.9343 289.297 37.0323 289.52 37.087C289.744 37.1416 289.976 37.1517 290.203 37.1167C290.431 37.0817 290.649 37.0023 290.845 36.8829C290.845 36.8829 291.948 36.2236 293.116 35.7724C293.7 35.5468 294.297 35.3929 294.626 35.3698C294.954 35.3472 294.765 35.3982 294.595 35.1796C294.512 35.0742 294.765 35.5638 294.85 36.2989C294.935 37.0341 294.945 38.0119 294.88 39.0375C294.752 41.0886 294.302 43.3972 293.853 44.5633C293.338 45.8956 292.429 47.7333 291.489 49.2972C290.55 50.8604 289.365 52.2135 289.196 52.3256C289.617 52.0481 285.961 53.0234 287.813 47.7532C287.89 47.5362 287.922 47.3062 287.91 47.0765C287.897 46.8469 287.839 46.622 287.74 46.4147C287.64 46.2074 287.5 46.0218 287.329 45.8685C287.157 45.7151 286.957 45.5971 286.74 45.5212C286.302 45.3676 285.821 45.3941 285.402 45.5949C284.984 45.7956 284.663 46.1542 284.509 46.5918C282.077 53.5084 287.576 57.5866 291.124 55.2478C292.533 54.316 293.443 52.8423 294.489 51.1024C295.534 49.3625 296.499 47.4231 297.118 45.8221C297.802 44.0435 298.226 41.6112 298.373 39.2565C298.447 38.0791 298.443 36.9352 298.324 35.9007C298.205 34.8668 298.06 33.9381 297.35 33.0294C296.551 32.0044 295.294 31.8121 294.373 31.877L294.378 31.8791Z" fill="black"/>
<path d="M298.534 33.7396C296.967 33.9061 295.759 34.6223 295.759 34.6223C295.352 34.8451 295.05 35.2202 294.92 35.6653C294.789 36.1103 294.841 36.589 295.064 36.9959C295.286 37.403 295.662 37.7051 296.107 37.8358C296.552 37.9664 297.031 37.9149 297.439 37.6927C297.439 37.6927 298.285 37.2851 298.904 37.2193C299.214 37.1864 299.358 37.2465 299.358 37.2465C299.358 37.2465 299.433 37.1977 299.515 37.7352C299.515 37.739 299.515 37.7428 299.515 37.7466C299.721 39.065 299.547 42.0448 298.678 45.2545C297.81 48.464 296.283 51.9787 294.028 54.7997C293.57 55.37 293.447 55.2254 293.087 54.9855C292.727 54.7449 292.421 54.3078 292.669 53.5764C292.743 53.3587 292.773 53.1284 292.758 52.8991C292.742 52.6697 292.682 52.4457 292.58 52.2396C292.478 52.0335 292.337 51.8495 292.164 51.6982C291.991 51.5468 291.789 51.4311 291.571 51.3575C291.132 51.2093 290.651 51.2416 290.235 51.4474C289.819 51.6531 289.502 52.0155 289.354 52.4549C288.615 54.6342 289.544 56.8289 291.144 57.8966C292.744 58.9642 295.307 58.7999 296.762 56.9853C299.414 53.6675 301.088 49.7455 302.056 46.1681C303.024 42.5906 303.319 39.4311 302.97 37.2045C302.779 35.9666 302.141 34.8688 301.219 34.2891C300.295 33.7083 299.314 33.6616 298.53 33.7447L298.534 33.7396Z" fill="black"/>
<path d="M301.919 41.0241C301.719 40.9104 301.498 40.8372 301.27 40.8087C301.042 40.7802 300.81 40.7969 300.588 40.8579C300.367 40.9189 300.159 41.023 299.978 41.1643C299.796 41.3055 299.644 41.4811 299.53 41.6811C299.301 42.0845 299.242 42.5623 299.365 43.0094C299.489 43.4566 299.784 43.8365 300.188 44.0657C300.188 44.0657 300.468 44.1664 300.94 44.9992C301.413 45.8321 301.925 47.316 301.615 49.9765C301.313 52.5722 300.241 54.566 299.063 55.9757C298.005 57.2435 296.905 57.829 296.494 58.0175C296.494 57.7817 296.424 57.6993 296.706 56.792C296.844 56.349 296.8 55.8696 296.585 55.4589C296.369 55.0482 295.998 54.7399 295.555 54.602C295.112 54.4642 294.632 54.5079 294.222 54.7236C293.811 54.9393 293.502 55.3094 293.364 55.7523C292.821 57.4947 292.568 58.8942 293.302 60.265C293.669 60.9503 294.4 61.5052 295.123 61.6896C295.847 61.8738 296.515 61.7881 297.142 61.6171C297.146 61.6171 297.15 61.6171 297.153 61.6171C298.662 61.1933 300.197 60.0821 301.75 58.2214C303.304 56.3608 304.704 53.7232 305.093 50.3841C305.474 47.1097 304.837 44.7768 303.986 43.2766C303.135 41.7763 301.919 41.0268 301.919 41.0268V41.0241Z" fill="black"/>
<path d="M200.743 117.3C197.834 117.421 196.112 117.658 196.112 117.658C195.652 117.719 195.235 117.96 194.953 118.329C194.671 118.697 194.546 119.162 194.607 119.622C194.638 119.85 194.713 120.07 194.828 120.269C194.943 120.468 195.096 120.642 195.279 120.782C195.462 120.922 195.67 121.024 195.893 121.083C196.115 121.142 196.347 121.157 196.575 121.127C196.575 121.127 223.036 117.724 242.46 131.751C242.836 132.023 243.305 132.134 243.763 132.06C244.221 131.986 244.631 131.734 244.903 131.358C245.175 130.982 245.286 130.513 245.213 130.055C245.14 129.597 244.887 129.187 244.511 128.915C228.873 117.622 209.468 116.936 200.743 117.3Z" fill="black"/>
<path d="M174.38 128.933C174.163 128.856 173.933 128.822 173.703 128.834C173.474 128.845 173.248 128.902 173.041 129.001C172.833 129.099 172.646 129.238 172.492 129.408C172.338 129.579 172.219 129.778 172.142 129.995C172.142 129.995 155.923 175.384 153.008 216.592C152.632 221.878 152.663 228.1 153.247 233.82C153.83 239.54 154.884 244.715 156.959 248.172C157.077 248.369 157.233 248.541 157.417 248.678C157.602 248.815 157.811 248.914 158.034 248.97C158.257 249.026 158.489 249.038 158.717 249.004C158.944 248.97 159.163 248.892 159.36 248.774C159.758 248.535 160.045 248.148 160.157 247.698C160.27 247.248 160.199 246.771 159.96 246.374C158.453 243.862 157.287 238.942 156.728 233.466C156.17 227.99 156.14 221.917 156.5 216.84C159.364 176.365 175.44 131.169 175.44 131.169C175.517 130.953 175.551 130.723 175.54 130.494C175.528 130.264 175.472 130.039 175.373 129.832C175.275 129.624 175.136 129.438 174.966 129.284C174.795 129.129 174.596 129.01 174.38 128.933Z" fill="black"/>
<path fill-rule="evenodd" clip-rule="evenodd" d="M179.017 146.929C179.017 147.508 178.787 148.063 178.378 148.472C177.968 148.882 177.413 149.112 176.833 149.112C176.254 149.112 175.699 148.882 175.289 148.472C174.879 148.063 174.649 147.508 174.649 146.929C174.649 146.35 174.879 145.795 175.289 145.385C175.699 144.976 176.254 144.746 176.833 144.746C177.413 144.746 177.968 144.976 178.378 145.385C178.787 145.795 179.017 146.35 179.017 146.929Z" fill="black"/>
<path fill-rule="evenodd" clip-rule="evenodd" d="M176.683 161.133C176.683 161.712 176.453 162.267 176.043 162.676C175.633 163.086 175.078 163.316 174.499 163.316C174.212 163.316 173.928 163.259 173.663 163.149C173.398 163.04 173.157 162.879 172.954 162.676C172.751 162.474 172.591 162.233 172.481 161.968C172.371 161.703 172.315 161.419 172.315 161.133C172.315 160.846 172.371 160.562 172.481 160.297C172.591 160.033 172.751 159.792 172.954 159.589C173.157 159.387 173.398 159.226 173.663 159.116C173.928 159.006 174.212 158.95 174.499 158.95C175.078 158.95 175.633 159.18 176.043 159.589C176.453 159.999 176.683 160.554 176.683 161.133Z" fill="black"/>
<path fill-rule="evenodd" clip-rule="evenodd" d="M173.228 176.667C173.228 177.246 172.998 177.801 172.589 178.211C172.179 178.62 171.624 178.85 171.044 178.85C170.758 178.85 170.474 178.793 170.209 178.684C169.944 178.574 169.703 178.413 169.5 178.211C169.297 178.008 169.137 177.767 169.027 177.503C168.917 177.238 168.86 176.954 168.86 176.667C168.86 176.381 168.917 176.097 169.027 175.832C169.137 175.567 169.297 175.326 169.5 175.124C169.703 174.921 169.944 174.76 170.209 174.65C170.474 174.541 170.758 174.484 171.044 174.484C171.624 174.484 172.179 174.714 172.589 175.124C172.998 175.533 173.228 176.088 173.228 176.667Z" fill="black"/>
<path fill-rule="evenodd" clip-rule="evenodd" d="M170.145 193.558C170.145 194.137 169.915 194.692 169.505 195.101C169.096 195.511 168.54 195.741 167.961 195.741C167.382 195.741 166.826 195.511 166.417 195.101C166.007 194.692 165.777 194.137 165.777 193.558C165.777 192.979 166.007 192.424 166.417 192.014C166.826 191.605 167.382 191.375 167.961 191.375C168.54 191.375 169.096 191.605 169.505 192.014C169.915 192.424 170.145 192.979 170.145 193.558Z" fill="black"/>
<path fill-rule="evenodd" clip-rule="evenodd" d="M167.678 213.162C167.678 213.741 167.448 214.296 167.038 214.706C166.629 215.115 166.073 215.345 165.494 215.345C164.915 215.345 164.359 215.115 163.95 214.706C163.54 214.296 163.31 213.741 163.31 213.162C163.31 212.583 163.54 212.028 163.95 211.619C164.359 211.209 164.915 210.979 165.494 210.979C166.073 210.979 166.629 211.209 167.038 211.619C167.448 212.028 167.678 212.583 167.678 213.162Z" fill="black"/>
<path fill-rule="evenodd" clip-rule="evenodd" d="M167.308 232.394C167.308 232.973 167.078 233.529 166.668 233.938C166.258 234.347 165.703 234.577 165.124 234.577C164.544 234.577 163.989 234.347 163.579 233.938C163.17 233.529 162.94 232.973 162.94 232.394C162.94 232.108 162.996 231.824 163.106 231.559C163.216 231.294 163.376 231.054 163.579 230.851C163.782 230.648 164.023 230.488 164.288 230.378C164.553 230.268 164.837 230.212 165.124 230.212C165.41 230.212 165.694 230.268 165.959 230.378C166.224 230.488 166.465 230.648 166.668 230.851C166.871 231.054 167.032 231.294 167.141 231.559C167.251 231.824 167.308 232.108 167.308 232.394Z" fill="black"/>
<path d="M51.9913 156.361C51.7637 156.459 51.5597 156.605 51.3926 156.788C51.2255 156.971 51.099 157.187 51.0219 157.423C51.0219 157.423 49.9503 160.68 48.4323 164.468C46.9143 168.257 44.8358 172.636 43.3549 174.396C43.0863 174.715 42.9407 175.12 42.944 175.537C42.9473 175.953 43.0995 176.356 43.3731 176.67C43.3731 176.67 45.0756 178.631 46.8655 180.836C47.7605 181.938 48.6766 183.1 49.3978 184.085C50.119 185.071 50.6673 186.028 50.6838 186.072C50.6973 186.108 50.7119 186.143 50.7278 186.178C50.7278 186.178 58.6116 203.73 75.2031 214.621C80.0131 217.777 85.8052 221.17 92.9651 221.255C100.125 221.342 108.388 218.046 117.969 208.666C118.3 208.342 118.489 207.899 118.493 207.435C118.498 206.971 118.318 206.524 117.993 206.193C117.668 205.862 117.225 205.673 116.761 205.668C116.297 205.664 115.85 205.843 115.518 206.167C106.356 215.136 99.0772 217.829 93.0066 217.756C86.936 217.684 81.8102 214.772 77.1237 211.698C61.5542 201.477 53.9147 184.736 53.9147 184.736L53.9565 184.841C53.5933 183.876 52.9989 183.088 52.219 182.022C51.439 180.957 50.4978 179.76 49.581 178.631C48.1677 176.891 47.3776 175.988 46.8317 175.353C48.6566 172.733 50.3219 169.163 51.6812 165.77C52.757 163.085 53.0818 162.031 53.5116 160.78C54.7704 161.67 56.0952 162.618 57.6771 164.027C58.7669 164.997 59.8427 165.963 60.8355 166.777C61.8284 167.59 62.6676 168.254 63.673 168.661C68.1023 170.459 76.3069 175.974 83.1747 180.981C90.0425 185.987 95.7066 190.506 95.7066 190.506C96.0694 190.795 96.5323 190.928 96.9934 190.876C97.4544 190.824 97.8761 190.592 98.1656 190.229C98.455 189.867 98.5889 189.404 98.5374 188.944C98.486 188.483 98.2534 188.061 97.8911 187.772C97.8911 187.772 92.1752 183.211 85.2375 178.153C78.2998 173.096 70.2724 167.564 64.9899 165.421C64.7659 165.33 63.9533 164.806 63.0555 164.071C62.1576 163.336 61.1037 162.391 60.0077 161.414C57.8159 159.462 55.5883 157.401 53.4255 156.386C53.2014 156.281 52.9574 156.225 52.7098 156.22C52.4622 156.216 52.2166 156.265 51.9891 156.363L51.9913 156.361Z" fill="black"/>
<path d="M64.2863 165.128C63.8328 165.029 63.3588 165.114 62.9682 165.364C62.5777 165.615 62.3026 166.01 62.2035 166.464C62.2035 166.464 59.6384 177.744 51.2675 184.061C50.8973 184.34 50.6534 184.755 50.5891 185.214C50.5248 185.673 50.6452 186.139 50.9244 186.51C51.0629 186.693 51.2361 186.847 51.4343 186.964C51.6325 187.081 51.8517 187.157 52.0795 187.189C52.3072 187.221 52.5392 187.208 52.7617 187.15C52.9843 187.092 53.1932 186.991 53.3768 186.853C63.0468 179.556 65.6254 167.209 65.6254 167.209C65.6742 166.985 65.6784 166.753 65.6375 166.526C65.5967 166.3 65.5118 166.084 65.3874 165.891C65.2631 165.698 65.1018 165.531 64.9129 165.4C64.724 165.269 64.511 165.176 64.2863 165.128Z" fill="black"/>
<path d="M39.1252 154.651C36.7853 154.887 33.4948 155.643 29.5636 157.655C29.9681 157.449 29.5931 157.631 29.1076 157.644C28.6219 157.661 27.9242 157.644 27.109 157.611C25.4787 157.537 23.3612 157.376 21.1617 157.239C18.9623 157.103 16.6799 156.99 14.6568 157.025C12.6344 157.06 10.9362 157.147 9.46649 157.825C8.39978 158.312 7.45647 158.893 6.69097 159.575C5.92355 160.26 5.24897 161.043 5.07966 162.216C4.91036 163.39 5.70156 164.725 6.73302 165.309C7.76437 165.893 9.00235 166.127 10.6551 166.211C13.619 166.357 17.9425 166.684 22.005 167.158C26.0674 167.633 29.9646 168.309 31.6751 168.93C35.9599 170.498 42.4084 172.293 48.9833 170.454C49.4304 170.329 49.8092 170.031 50.0366 169.627C50.2641 169.222 50.3216 168.744 50.1963 168.297C50.0714 167.851 49.7741 167.472 49.3699 167.244C48.9656 167.017 48.4875 166.959 48.0405 167.083C42.628 168.597 36.8851 167.11 32.8747 165.643C30.4376 164.758 26.5764 164.171 22.4145 163.685C18.2534 163.2 13.8877 162.868 10.8343 162.719C9.7232 162.662 9.232 162.48 8.88217 162.347C8.95356 162.257 8.89912 162.301 9.02604 162.188C9.44669 161.813 10.1217 161.374 10.9273 161.007C10.9311 161.007 10.9349 161.007 10.9386 161.007C11.3327 160.825 12.8774 160.561 14.7234 160.529C16.5696 160.497 18.7833 160.6 20.9495 160.735C23.1158 160.869 25.2331 161.033 26.9565 161.111C27.8181 161.149 28.5788 161.167 29.234 161.143C29.8893 161.121 30.3385 161.191 31.1596 160.772C34.7063 158.957 37.5534 158.325 39.4796 158.131C41.4057 157.936 42.2595 158.149 42.2595 158.149C42.4841 158.198 42.716 158.203 42.9423 158.162C43.1686 158.122 43.3848 158.037 43.5784 157.913C43.772 157.789 43.9394 157.629 44.0709 157.44C44.2023 157.252 44.2952 157.039 44.3445 156.815C44.3938 156.59 44.3984 156.358 44.358 156.132C44.3176 155.906 44.233 155.69 44.109 155.497C43.9851 155.303 43.8243 155.136 43.6357 155.004C43.4471 154.873 43.2344 154.78 43.0098 154.731C43.0098 154.731 41.468 154.415 39.1276 154.652L39.1252 154.651Z" fill="black"/>
<path d="M12.6647 151.55C10.4672 151.622 8.30428 151.823 6.42086 152.24C4.57189 152.646 3.37723 152.948 2.41251 154.045C1.93021 154.593 1.64033 155.581 1.8459 156.343C2.05147 157.105 2.49226 157.558 2.91937 157.925C4.62771 159.39 7.24234 160.165 9.99982 160.973C10.4451 161.103 10.924 161.052 11.3311 160.83C11.7383 160.607 12.0403 160.232 12.1711 159.787C12.3014 159.342 12.2497 158.864 12.0272 158.457C11.8048 158.05 11.4299 157.748 10.9848 157.617C9.00863 157.038 7.6914 156.384 6.61121 155.841C6.90834 155.739 6.75693 155.749 7.1734 155.657C10.2623 154.974 15.038 154.942 18.9439 155.129C22.8497 155.315 25.9048 155.686 25.9048 155.686C26.1332 155.714 26.3647 155.697 26.5863 155.635C26.8079 155.573 27.0152 155.469 27.1963 155.327C27.3774 155.185 27.5288 155.009 27.6417 154.809C27.7547 154.609 27.8271 154.388 27.8548 154.16C27.9105 153.699 27.781 153.236 27.4946 152.87C27.2082 152.505 26.7884 152.269 26.3276 152.213C26.3276 152.213 23.1508 151.827 19.1099 151.634C17.0894 151.537 14.8578 151.48 12.6602 151.552L12.6647 151.55Z" fill="black"/>
<path d="M37.8282 134.492C36.8946 134.325 35.7315 134.727 35.0771 135.472C34.4236 136.216 34.1244 137.121 33.9483 138.202C33.5503 140.604 34.196 143.388 34.8247 145.796C34.8689 145.966 34.8746 145.938 34.9199 146.104C34.8372 146.068 34.8168 146.04 34.7318 146.004C32.8231 145.186 30.4604 144.272 28.0077 143.38C23.103 141.598 17.9301 139.922 15.2057 139.317C13.9347 139.033 12.8061 138.989 11.7795 139.266C10.7524 139.542 9.75641 140.265 9.36919 141.336C8.98196 142.407 9.24945 143.534 9.78751 144.442C10.3257 145.35 11.1447 146.143 12.2288 146.871C14.4582 148.365 18.2023 149.753 21.5624 150.923C24.9225 152.094 27.8129 152.952 27.8129 152.952C28.0334 153.017 28.2646 153.038 28.4932 153.014C28.7219 152.99 28.9436 152.921 29.1456 152.812C29.3476 152.702 29.5261 152.554 29.6707 152.375C29.8154 152.197 29.9234 151.991 29.9886 151.771C30.1206 151.326 30.0704 150.847 29.8492 150.439C29.6279 150.032 29.2538 149.728 28.8089 149.596C28.8089 149.596 25.9878 148.761 22.7156 147.621C19.4442 146.481 15.6354 144.941 14.181 143.966C13.4192 143.455 12.9792 142.958 12.8021 142.659C12.7907 142.64 12.8025 142.67 12.7907 142.648C13.0715 142.587 13.6108 142.544 14.4419 142.729C16.7154 143.234 21.9924 144.916 26.81 146.667C29.2188 147.542 31.5364 148.44 33.3504 149.217C35.1643 149.995 36.6303 150.85 36.6505 150.868C36.9428 151.123 37.3116 151.274 37.699 151.296C38.0864 151.319 38.4705 151.213 38.7908 150.994C39.111 150.775 39.3493 150.455 39.4683 150.086C39.5873 149.717 39.5802 149.319 39.4481 148.954C39.4481 148.954 38.7946 147.144 38.2109 144.908C37.6271 142.673 37.2073 139.924 37.3986 138.77C37.4484 138.463 37.4722 138.495 37.5314 138.334C37.7261 138.509 38.0572 138.676 38.5274 139.546C40.1386 142.538 46.7335 153.773 51.3558 159.114C51.6595 159.465 52.0899 159.681 52.5527 159.714C53.0155 159.748 53.4726 159.597 53.8237 159.293C53.9978 159.143 54.1405 158.96 54.2437 158.755C54.3469 158.549 54.4085 158.325 54.4252 158.096C54.4418 157.867 54.4133 157.637 54.3408 157.418C54.2684 157.2 54.1535 156.999 54.003 156.825C49.9228 152.11 43.0354 140.537 41.6083 137.887C40.7135 136.232 39.6932 134.833 37.8257 134.498L37.8282 134.492Z" fill="black"/>
<path d="M8.50583 143.898C6.7797 143.95 5.36439 144.2 4.20533 144.599C3.04638 144.999 2.11904 145.548 1.46743 146.362C0.815828 147.177 0.529047 148.387 0.889753 149.402C1.24808 150.403 1.84497 150.951 2.49885 151.565C3.15283 152.179 3.90098 152.763 4.61922 153.288C6.05581 154.338 7.39695 155.153 7.39695 155.153C7.59329 155.273 7.81136 155.352 8.03854 155.388C8.26572 155.423 8.49766 155.413 8.72108 155.359C8.9445 155.305 9.1549 155.207 9.34054 155.072C9.52617 154.936 9.68326 154.765 9.80285 154.569C9.92237 154.373 10.002 154.155 10.0372 153.928C10.0724 153.7 10.0626 153.469 10.0081 153.245C9.95366 153.022 9.8557 152.812 9.71985 152.626C9.58399 152.441 9.41285 152.284 9.21631 152.164C9.21631 152.164 7.98096 151.412 6.68647 150.466C6.03917 149.992 5.38079 149.472 4.89589 149.017C4.54447 148.687 4.4692 148.551 4.38239 148.442C4.5177 148.315 4.73302 148.113 5.34519 147.902C6.79799 147.401 9.6764 147.108 14.0989 147.832C14.5571 147.906 15.0263 147.796 15.4031 147.525C15.78 147.254 16.0338 146.845 16.1086 146.387C16.1834 145.929 16.0731 145.46 15.8021 145.084C15.531 144.707 15.1215 144.453 14.6633 144.378C12.268 143.987 10.232 143.842 8.50583 143.894V143.898Z" fill="black"/>
<path fill-rule="evenodd" clip-rule="evenodd" d="M205.556 231.236C205.556 231.236 221.523 249.289 209.67 281.874C208.786 284.275 206.848 313.315 207.267 394.307C207.313 403.368 209.398 480.214 209.398 482.366C209.398 484.53 205.375 486.432 194.484 485.719C191.323 485.515 189.986 482.094 189.192 478.221C188.399 474.359 160.771 368.687 162.493 299.293C162.573 296.167 159.672 295.895 159.525 298.784C159.366 301.66 158.901 354.496 174.88 424.151C176.727 432.203 177.373 474.71 177.01 478.787C176.636 482.853 175.39 487.893 166.551 488.21C162.879 488.335 154.04 487.576 152.782 478.3C151.513 469.013 123.25 304.481 119.012 293.2C116.224 285.759 98.761 255.722 118.445 234.815C119.431 236.298 120.791 237.385 122.581 238.201C159.796 255.167 188.275 243.728 191.878 242.369C199.312 239.571 203.494 235.381 205.556 231.236Z" fill="black"/>
<path d="M193.773 480.12C193.321 480.015 192.846 480.093 192.451 480.337C192.057 480.582 191.776 480.974 191.67 481.425C191.67 481.425 188.723 493.561 189.663 502.062C190.131 506.395 193.669 509.56 198.202 511.466C200.592 512.473 205.834 514.033 210.891 513.795C213.419 513.676 215.955 513.099 217.918 511.461C219.881 509.823 221.009 507.119 220.811 503.683C220.784 503.22 220.574 502.787 220.228 502.478C219.881 502.169 219.426 502.011 218.963 502.038C218.499 502.064 218.066 502.274 217.757 502.62C217.448 502.967 217.29 503.422 217.316 503.885C217.469 506.537 216.776 507.856 215.676 508.774C214.576 509.691 212.808 510.202 210.727 510.3C206.565 510.495 201.364 509.002 199.561 508.243C195.688 506.615 193.424 504.302 193.142 501.684C193.142 501.68 193.142 501.676 193.142 501.672C192.337 494.385 195.079 482.217 195.079 482.217C195.184 481.765 195.106 481.29 194.861 480.896C194.617 480.502 194.225 480.221 193.773 480.115V480.12Z" fill="black"/>
<path d="M205.957 479.304C205.493 479.305 205.049 479.491 204.722 479.82C204.395 480.149 204.212 480.594 204.213 481.058C204.243 489.147 206.757 494.52 209.339 497.81C209.632 498.183 209.873 498.288 210.167 498.611C208.588 498.863 207.235 499.414 206.207 500.093C204.087 501.495 203.069 503.352 203.069 503.352C202.846 503.758 202.794 504.237 202.925 504.682C203.055 505.127 203.357 505.502 203.764 505.725C204.171 505.948 204.649 506 205.095 505.87C205.54 505.74 205.916 505.439 206.139 505.033C206.139 505.033 206.743 503.933 208.137 503.011C209.532 502.089 211.542 501.355 214.873 502.464C215.298 502.605 215.76 502.578 216.166 502.388C216.571 502.198 216.889 501.86 217.053 501.444C217.216 501.027 217.214 500.564 217.047 500.149C216.879 499.734 216.559 499.399 216.152 499.213C216.152 499.213 214.229 498.37 212.095 495.651C209.961 492.932 207.742 488.429 207.715 481.047C207.714 480.817 207.668 480.59 207.579 480.378C207.49 480.166 207.361 479.973 207.197 479.811C207.034 479.65 206.841 479.521 206.628 479.434C206.415 479.347 206.187 479.303 205.957 479.304Z" fill="black"/>
<path d="M277.176 480.631C276.792 480.651 276.426 480.796 276.133 481.045C275.84 481.294 275.637 481.632 275.556 482.007C272.95 494.041 259.19 499.702 259.19 499.702C258.759 499.873 258.414 500.209 258.231 500.635C258.047 501.061 258.04 501.543 258.212 501.973C258.384 502.404 258.72 502.749 259.146 502.933C259.572 503.116 260.054 503.123 260.485 502.951C260.485 502.951 272.548 498.239 277.448 487.261C278.127 488.762 278.822 490.335 279.907 492.143C282.744 496.872 286.993 502.117 293.088 503.11C293.315 503.147 293.547 503.139 293.771 503.087C293.995 503.034 294.206 502.938 294.392 502.804C294.579 502.669 294.738 502.499 294.858 502.304C294.979 502.108 295.06 501.891 295.097 501.664C295.172 501.206 295.062 500.737 294.791 500.36C294.52 499.984 294.11 499.73 293.652 499.655C289.321 498.949 285.519 494.693 282.911 490.344C280.302 485.996 278.931 481.832 278.931 481.832C278.811 481.467 278.574 481.152 278.257 480.935C277.94 480.718 277.56 480.611 277.176 480.631Z" fill="black"/>
<path d="M284.292 493.557C283.83 493.544 283.382 493.714 283.046 494.031C282.711 494.348 282.514 494.785 282.501 495.247C282.495 495.475 282.533 495.703 282.615 495.917C282.697 496.13 282.819 496.326 282.977 496.492C283.134 496.658 283.322 496.792 283.531 496.885C283.74 496.979 283.965 497.03 284.194 497.036C293.797 497.308 302.338 498.486 308.346 500.173C311.35 501.016 313.721 502.001 315.205 502.958C316.689 503.916 317.08 504.686 317.08 505.086C317.08 505.519 316.596 506.394 314.867 507.429C313.137 508.464 310.413 509.501 306.996 510.366C300.161 512.097 290.545 513.196 279.936 513.196C269.326 513.196 259.708 512.097 252.873 510.366C249.456 509.501 246.732 508.464 245.003 507.429C243.273 506.394 242.792 505.519 242.792 505.086C242.792 504.738 243.054 504.126 244.17 503.301C245.287 502.476 247.121 501.589 249.487 500.799C254.219 499.218 261.076 497.977 269.015 497.379C269.243 497.362 269.466 497.3 269.67 497.197C269.874 497.094 270.056 496.952 270.205 496.778C270.355 496.605 270.468 496.404 270.54 496.187C270.611 495.969 270.639 495.74 270.622 495.512C270.605 495.284 270.543 495.062 270.44 494.858C270.337 494.653 270.194 494.472 270.021 494.323C269.847 494.173 269.646 494.06 269.429 493.988C269.211 493.917 268.982 493.889 268.754 493.906C260.607 494.52 253.546 495.772 248.382 497.496C245.8 498.359 243.69 499.326 242.101 500.5C240.512 501.674 239.306 503.207 239.306 505.086C239.306 507.376 241.003 509.095 243.212 510.417C245.421 511.74 248.395 512.825 252.017 513.742C259.261 515.576 269.088 516.68 279.936 516.68C290.784 516.68 300.609 515.576 307.852 513.742C311.474 512.825 314.448 511.74 316.657 510.417C318.866 509.095 320.564 507.376 320.564 505.086C320.564 502.952 319.059 501.301 317.095 500.034C315.132 498.767 312.501 497.723 309.289 496.822C302.865 495.018 294.118 493.835 284.292 493.557Z" fill="black"/>
<path d="M279.159 198.057C278.695 198.054 278.249 198.235 277.918 198.561C277.588 198.886 277.401 199.33 277.397 199.793L275.516 482.365C275.514 482.595 275.558 482.823 275.645 483.036C275.731 483.249 275.859 483.443 276.021 483.606C276.182 483.77 276.374 483.9 276.586 483.989C276.798 484.078 277.026 484.125 277.255 484.126C277.719 484.129 278.166 483.948 278.496 483.622C278.826 483.297 279.014 482.853 279.017 482.39L280.899 199.818C280.9 199.588 280.856 199.36 280.77 199.147C280.683 198.934 280.555 198.741 280.394 198.577C280.232 198.414 280.04 198.284 279.828 198.194C279.616 198.105 279.389 198.058 279.159 198.057Z" fill="black"/>
<path d="M281.846 160.509C280.774 160.399 279.518 160.448 278.161 160.854C275.447 161.664 272.49 163.867 269.801 168.388C269.049 169.646 267.26 173.182 266.663 178.099C266.084 182.861 266.777 188.915 270.726 194.942C270.598 195.474 270.379 196.07 270.496 197.36C270.575 198.239 270.812 199.264 271.569 200.152C272.327 201.039 273.618 201.582 275.002 201.554C278.894 201.465 281.413 201.658 282.928 201.658C283.211 201.658 284.924 202.072 286.518 200.997C287.315 200.459 287.939 199.553 288.269 198.444C288.52 197.601 288.523 196.446 288.519 195.263C289.25 194.699 290.373 193.719 291.633 191.73C293.456 188.854 295.182 184.274 295.117 177.511C295.08 173.408 293.547 169.754 291.494 166.924C289.44 164.093 286.903 162.045 284.425 161.119C283.804 160.889 282.916 160.619 281.844 160.509L281.846 160.509ZM281.505 163.982C282.186 164.053 282.76 164.232 283.205 164.397C284.761 164.978 286.966 166.639 288.663 168.979C290.361 171.318 291.59 174.296 291.62 177.544C291.679 183.704 290.147 187.545 288.681 189.859C287.214 192.172 285.965 192.863 285.965 192.863C285.687 193.027 285.459 193.264 285.308 193.549C285.156 193.834 285.086 194.155 285.106 194.478C285.197 195.951 285.077 196.912 284.918 197.444C284.76 197.976 284.63 198.052 284.564 198.097C284.433 198.185 283.987 198.159 282.933 198.159C281.752 198.159 278.969 197.965 274.932 198.057C274.338 198.068 274.317 197.974 274.239 197.882C274.159 197.789 274.027 197.491 273.986 197.044C273.905 196.15 274.186 195.013 274.186 195.013C274.255 194.765 274.269 194.505 274.227 194.251C274.184 193.998 274.086 193.756 273.94 193.544C270.156 188.077 269.623 182.786 270.142 178.52C270.66 174.253 272.319 171.007 272.813 170.18C275.19 166.184 277.423 164.73 279.166 164.21C280.037 163.949 280.826 163.914 281.507 163.986L281.505 163.982Z" fill="black"/>
<path d="M286.87 192.62C283.255 192.584 272.464 192.79 272.464 192.79C272.234 192.794 272.007 192.844 271.796 192.936C271.585 193.028 271.395 193.16 271.235 193.326C271.076 193.491 270.95 193.687 270.866 193.901C270.782 194.115 270.742 194.343 270.746 194.573C270.75 194.803 270.8 195.029 270.892 195.24C270.984 195.451 271.117 195.641 271.282 195.801C271.448 195.96 271.643 196.085 271.857 196.169C272.072 196.253 272.3 196.294 272.53 196.289C272.53 196.289 283.427 196.086 286.837 196.119C287.067 196.121 287.295 196.078 287.508 195.993C287.722 195.907 287.916 195.78 288.08 195.619C288.245 195.458 288.375 195.267 288.465 195.055C288.556 194.844 288.603 194.617 288.605 194.387C288.608 194.157 288.565 193.929 288.479 193.715C288.393 193.502 288.266 193.308 288.104 193.144C287.943 192.979 287.751 192.849 287.539 192.759C287.328 192.669 287.1 192.622 286.87 192.62Z" fill="black"/>
<path d="M285.518 172.427C274.674 172.067 268.13 174.547 268.13 174.547C267.915 174.629 267.719 174.753 267.552 174.911C267.385 175.069 267.251 175.259 267.158 175.469C267.064 175.678 267.013 175.905 267.007 176.134C267.001 176.364 267.041 176.593 267.123 176.807C267.289 177.24 267.621 177.589 268.045 177.778C268.468 177.967 268.95 177.98 269.383 177.814C269.383 177.814 275.124 175.583 285.403 175.925C285.633 175.932 285.862 175.894 286.077 175.813C286.292 175.732 286.489 175.61 286.656 175.452C286.824 175.295 286.959 175.107 287.054 174.898C287.149 174.688 287.202 174.462 287.209 174.232C287.224 173.769 287.054 173.319 286.737 172.98C286.42 172.642 285.982 172.443 285.518 172.427Z" fill="black"/>
<path d="M283.15 166.605C277.744 166.429 271.397 167.101 271.397 167.101C271.168 167.124 270.946 167.193 270.744 167.303C270.542 167.412 270.363 167.56 270.218 167.739C270.073 167.917 269.965 168.122 269.899 168.343C269.834 168.563 269.813 168.794 269.837 169.023C269.885 169.484 270.115 169.908 270.476 170.2C270.836 170.492 271.298 170.629 271.76 170.58C271.76 170.58 278.015 169.939 283.035 170.102C283.264 170.11 283.493 170.072 283.709 169.991C283.924 169.91 284.121 169.787 284.289 169.63C284.456 169.473 284.591 169.285 284.686 169.075C284.781 168.866 284.833 168.64 284.841 168.41C284.856 167.947 284.686 167.496 284.369 167.158C284.052 166.819 283.613 166.621 283.15 166.605Z" fill="black"/>
<path d="M281.279 180.028C273.977 179.984 267.871 181.672 267.871 181.672C267.423 181.792 267.041 182.086 266.809 182.488C266.578 182.89 266.515 183.367 266.636 183.815C266.757 184.263 267.05 184.645 267.453 184.876C267.855 185.108 268.332 185.17 268.781 185.05C268.781 185.05 279.184 182.341 288.083 184.2C288.537 184.295 289.011 184.206 289.399 183.952C289.788 183.698 290.06 183.3 290.155 182.846C290.202 182.621 290.204 182.389 290.161 182.163C290.118 181.938 290.032 181.722 289.906 181.53C289.78 181.338 289.617 181.172 289.427 181.043C289.237 180.914 289.023 180.823 288.798 180.776C286.28 180.25 283.713 180.043 281.279 180.028Z" fill="black"/>
<path d="M275.693 187.012C272.225 187.205 269.509 187.499 269.509 187.499C269.047 187.545 268.623 187.773 268.33 188.133C268.036 188.492 267.898 188.953 267.944 189.414C267.967 189.643 268.035 189.865 268.143 190.067C268.252 190.27 268.4 190.449 268.578 190.594C268.756 190.74 268.961 190.849 269.181 190.915C269.401 190.981 269.632 191.003 269.861 190.98C269.861 190.98 280.982 189.936 285.918 190.6C286.146 190.631 286.378 190.616 286.6 190.557C286.822 190.498 287.031 190.396 287.214 190.256C287.396 190.117 287.55 189.943 287.665 189.744C287.78 189.545 287.856 189.326 287.886 189.098C287.948 188.638 287.824 188.173 287.543 187.804C287.262 187.435 286.845 187.193 286.385 187.131C283.38 186.727 279.16 186.819 275.693 187.012Z" fill="black"/>
<path d="M283.989 172.394C283.759 172.384 283.529 172.418 283.313 172.496C283.096 172.574 282.897 172.694 282.728 172.849C282.558 173.004 282.42 173.191 282.322 173.399C282.224 173.607 282.169 173.832 282.158 174.062C282.025 176.987 281.693 194.347 281.693 194.347C281.684 194.811 281.86 195.259 282.182 195.594C282.503 195.928 282.945 196.121 283.409 196.13C283.873 196.139 284.321 195.964 284.656 195.642C284.99 195.321 285.183 194.879 285.193 194.416C285.193 194.416 285.542 176.755 285.657 174.221C285.679 173.758 285.514 173.305 285.201 172.962C284.888 172.62 284.452 172.415 283.989 172.394Z" fill="black"/>
<path d="M277.574 166.802C277.346 166.77 277.115 166.784 276.892 166.842C276.67 166.9 276.461 167.001 276.277 167.14C276.094 167.279 275.94 167.452 275.824 167.65C275.707 167.848 275.631 168.067 275.6 168.295C275.558 168.598 275.569 168.676 275.56 168.928C275.549 169.179 275.543 169.504 275.537 169.897C275.521 170.682 275.506 171.741 275.492 172.983C275.465 175.465 275.441 178.675 275.422 181.855C275.382 188.216 275.36 194.453 275.36 194.453C275.359 194.683 275.403 194.911 275.49 195.124C275.578 195.336 275.706 195.529 275.868 195.693C276.03 195.856 276.222 195.985 276.434 196.074C276.646 196.163 276.874 196.209 277.104 196.21C277.568 196.211 278.013 196.028 278.342 195.701C278.672 195.374 278.857 194.93 278.859 194.467C278.859 194.467 278.884 188.233 278.923 181.877C278.943 178.7 278.967 175.491 278.994 173.02C279.007 171.785 279.023 170.734 279.038 169.967C279.049 169.584 279.053 169.272 279.06 169.049C279.071 168.827 279.094 168.594 279.071 168.773C279.134 168.314 279.012 167.848 278.732 167.479C278.452 167.109 278.036 166.866 277.577 166.802H277.574Z" fill="black"/>
<path d="M157.304 114.38C157.304 114.38 146.857 115.567 132.51 124.252C118.163 132.937 99.739 149.145 83.1991 179.106C83.0878 179.307 83.0173 179.528 82.9916 179.757C82.9659 179.985 82.9854 180.216 83.0491 180.437C83.1128 180.658 83.2194 180.864 83.3629 181.044C83.5063 181.223 83.6839 181.373 83.8852 181.484C84.0866 181.595 84.3079 181.665 84.5365 181.691C84.7651 181.716 84.9967 181.697 85.2176 181.633C85.4386 181.569 85.6447 181.462 85.8244 181.319C86.004 181.175 86.1536 180.997 86.2645 180.796C102.532 151.329 120.489 135.62 134.323 127.245C148.156 118.871 157.689 117.857 157.689 117.857C158.15 117.806 158.572 117.574 158.862 117.212C159.153 116.85 159.287 116.387 159.236 115.926C159.185 115.465 158.953 115.043 158.59 114.753C158.228 114.463 157.765 114.329 157.304 114.38Z" fill="black"/>
</g>
<defs>
<clipPath id="clip0_1_140">
<rect width="319.831" height="516.179" fill="white" transform="translate(0.7323 0.5)"/>
</clipPath>
</defs>
</svg>
